<svg xmlns="http://www.w3.org/2000/svg" xmlns:xlink="http://www.w3.org/1999/xlink" version="1.1" viewBox="0 0 24 30" x="0px" y="0px"><path d="M19 20h-10l-3 3v-3h-1c-1.657 0-3-1.343-3-3v-10c0-1.657 1.343-3 3-3h14c1.657 0 3 1.343 3 3v10c0 1.657-1.343 3-3 3zM20 7c0-0.552-0.448-1-1-1h-14c-0.552 0-1 0.448-1 1v10c0 0.552 0.448 1 1 1h14c0.552 0 1-0.448 1-1v-10zM17 13h-10c-0.552 0-1-0.448-1-1s0.448-1 1-1h10c0.552 0 1 0.448 1 1s-0.448 1-1 1zM15 10h-8c-0.552 0-1-0.448-1-1s0.448-1 1-1h8c0.552 0 1 0.448 1 1s-0.448 1-1 1zM7 14h6c0.552 0 1 0.448 1 1s-0.448 1-1 1h-6c-0.552 0-1-0.448-1-1s0.448-1 1-1z" fill="#ffffff" /><text x="0" y="39" fill="#000000" font-size="5px" font-weight="bold" font-family="'Helvetica Neue', Helvetica, Arial-Unicode, Arial, Sans-serif">Created by Travis Avery</text><text x="0" y="44" fill="#000000" font-size="5px" font-weight="bold" font-family="'Helvetica Neue', Helvetica, Arial-Unicode, Arial, Sans-serif">from the Noun Project</text></svg>
