<svg xmlns="http://www.w3.org/2000/svg" xmlns:xlink="http://www.w3.org/1999/xlink" version="1.1" x="0px" y="0px" viewBox="0 0 100 125" enable-background="new 0 0 100 100" xml:space="preserve"><g><path fill="#ffffff" d="M83.968,20.118c-0.247-0.324-0.594-0.516-0.962-0.625c0.157-0.992-0.199-1.577-0.536-1.897   c-0.251-0.239-0.544-0.383-0.84-0.466c0.003-0.007,0.005-0.015,0.008-0.022c0.31-0.809-0.055-1.336-0.226-1.525   c-0.182-0.202-0.414-0.335-0.676-0.419c0.191-0.286,0.396-0.601,0.61-0.941c0.778-1.237,0.267-1.997,0.011-2.266   c-0.866-0.91-2.604-0.499-3.181-0.175c-0.21,0.117-1.207,0.946-1.376,1.159c-0.654,0.821-2.119,2.726-3.075,3.972   c-0.257-0.248-0.544-0.44-0.88-0.537c-1.207-0.35-2.256,0.517-2.346,0.595l-6.157,4.924c-3.183-3.111-10.605-7.448-12.826-8.716   c0.002-0.086,0.013-0.171,0.004-0.258c-0.062-0.626-0.407-1.174-0.946-1.503l-3.534-2.162c-0.464-0.283-1.006-0.365-1.527-0.232   c-0.028,0.007-0.063,0.022-0.092,0.031L36.4,5.49c-0.084-0.069-0.162-0.143-0.258-0.199c-0.601-0.352-1.321-0.365-1.926-0.037   c-0.558,0.303-1.121,0.737-1.673,1.289c-1.926,1.926-7.998,11.203-8.3,11.673c-0.072,0.135-0.686,1.357-0.198,2.895   c0.413,1.3,1.465,2.383,3.121,3.213l3.709,3.484v18.824c0,0.539,0.218,1.049,0.589,1.42c-0.515,4.541-3.571,32.328-2.184,39.713   c0.121,0.649,0.55,1.198,1.147,1.467l8.091,3.65c0.271,0.122,0.553,0.181,0.83,0.181c0.738,0,1.44-0.412,1.787-1.12   c0.803-1.639,3.826-9.449,3.487-13.403c-0.116-1.347-0.155-3.232-0.156-5.182c3.278,4.443,6.699,13.313,9.009,20.903   c0.162,0.53,0.54,0.972,1.037,1.212c0.273,0.133,0.572,0.199,0.871,0.199c0.249,0,0.498-0.046,0.734-0.139l8.606-3.377   c1-0.394,1.51-1.498,1.159-2.514L52.845,51.847c3.307-4.179,3.654-15.888,3.638-21.09c2.364,1.737,6.721,4.863,9.175,6.157   c0.995,0.525,1.916,0.788,2.752,0.788c0.419,0,0.817-0.066,1.192-0.199c1.127-0.398,1.637-1.261,1.778-1.544l5.81-9.655   c0.081-0.134,0.138-0.275,0.185-0.419c3.302-0.105,6.114-2.588,6.734-4.061C84.469,20.971,84.175,20.389,83.968,20.118z    M42.588,10.084c-1.055,0.28-2.317,0.446-3.692,0.184c-1.223-0.234-1.624-1.061-1.728-2.325L42.588,10.084z M55.389,93.679   c-1.319-4.33-5.93-18.558-10.897-23.355c0.05-3.106,0.156-5.733,0.158-5.783c0.023-0.552-0.406-1.018-0.958-1.04   c-0.571-0.049-1.018,0.406-1.04,0.958c-0.017,0.4-0.399,9.863-0.023,14.251c0.27,3.148-2.338,10.412-3.288,12.351l-8.095-3.663   c-1.255-6.686,1.439-32.182,2.12-38.345c4.782,1.864,14.364,3.113,17.606,3.494l13.021,37.748L55.389,93.679z M51.312,50.573   c-2.429-0.284-14.732-1.81-18.437-3.941V27.378c0-0.002,0-0.003,0-0.005V15.125c0-0.552-0.448-1-1-1s-1,0.448-1,1v9.938   l-2.339-2.197c-0.135-0.127-0.291-0.236-0.464-0.322c-2.751-1.385-2.251-2.974-2.074-3.364c1.752-2.678,6.492-9.754,7.959-11.223   c0.416-0.416,0.824-0.734,1.175-0.947l0.001,0.178c0.005,1.088,0.021,4.401,3.386,5.045c3.077,0.588,5.68-0.519,6.931-1.049   c0.246-0.104,0.435-0.192,0.548-0.222l3.526,2.167c-1.609,1.496-4.173,4.617-3.263,8.714c1.045,4.708,2.907,5.562,3.899,5.649   l4.31,1.909C54.604,37.16,53.847,47.372,51.312,50.573z M69.644,34.969c-0.023,0.039-0.044,0.079-0.062,0.121   c-0.001,0.004-0.188,0.368-0.646,0.529c-0.566,0.202-1.377,0.038-2.344-0.472c-3.266-1.723-10.46-7.14-10.532-7.194   c-0.142-0.107-0.303-0.155-0.466-0.178c-0.1-0.069-0.196-0.144-0.31-0.195l-4.311-1.916c-0.201-0.089-0.4-0.142-0.61-0.161   c-0.352-0.033-1.424-0.833-2.148-4.094c-0.635-2.862,1.048-5.186,2.331-6.483c2.169,1.242,9.427,5.492,12.4,8.398   c0.723,0.705,1.859,0.763,2.646,0.134l6.186-4.949c0.105-0.091,0.405-0.242,0.513-0.213c0.049,0.014,0.222,0.17,0.38,0.685   c0.616,2.002,2.171,5.071,2.809,6.293L69.644,34.969z M77.004,23.87c-0.637-1.243-1.694-3.393-2.26-5.001   c0.789-1.03,2.809-3.666,3.57-4.625c0.115-0.115,0.762-0.657,0.837-0.716c0.068-0.036,0.191-0.068,0.325-0.092   c-1.021,1.598-1.426,1.994-1.416,1.994c0,0,0.001,0,0.002-0.001c-0.399,0.277-0.543,0.802-0.338,1.243   c0.204,0.441,0.695,0.671,1.168,0.544c0.192-0.052,0.414-0.095,0.619-0.124c-0.262,0.741-0.262,0.894-0.262,1.011   c0,0.308,0.143,0.599,0.385,0.789c0.242,0.189,0.557,0.256,0.859,0.181c0.151-0.038,0.414-0.052,0.556-0.028   c0.001,0.029,0.001,0.063-0.005,0.102c-0.04,0.1-0.23,0.433-0.408,0.711c-0.209,0.328-0.209,0.748,0,1.075   c0.208,0.329,0.593,0.505,0.975,0.454c0.133-0.018,0.312-0.024,0.465-0.019C81.397,22.303,79.302,23.941,77.004,23.87z"/></g><text x="0" y="115" fill="#000000" font-size="5px" font-weight="bold" font-family="'Helvetica Neue', Helvetica, Arial-Unicode, Arial, Sans-serif">Created by Josie Schultz</text><text x="0" y="120" fill="#000000" font-size="5px" font-weight="bold" font-family="'Helvetica Neue', Helvetica, Arial-Unicode, Arial, Sans-serif">from the Noun Project</text></svg>
