<?xml version="1.0" encoding="UTF-8" standalone="no"?>
<!-- Created with Inkscape (http://www.inkscape.org/) -->

<svg
   xmlns:dc="http://purl.org/dc/elements/1.1/"
   xmlns:cc="http://creativecommons.org/ns#"
   xmlns:rdf="http://www.w3.org/1999/02/22-rdf-syntax-ns#"
   xmlns:svg="http://www.w3.org/2000/svg"
   xmlns="http://www.w3.org/2000/svg"
   version="1.2"
   width="56.734375"
   height="56.734375"
   id="svg2">
  <defs
     id="defs4" />
  <metadata
     id="metadata7">
    <rdf:RDF>
      <cc:Work
         rdf:about="">
        <dc:format>image/svg+xml</dc:format>
        <dc:type
           rdf:resource="http://purl.org/dc/dcmitype/StillImage" />
        <dc:title></dc:title>
      </cc:Work>
    </rdf:RDF>
  </metadata>
  <g
     transform="translate(-152.28125,-146.34738)"
     id="layer1">
    <g
       id="flowRoot2985"
       style="font-size:40px;font-style:normal;font-weight:normal;line-height:125%;letter-spacing:0px;word-spacing:0px;fill:#ffffff;fill-opacity:1;stroke:none;font-family:Sans">
      <path
         d="m 154.28125,148.34738 52.73437,0 0,52.73438 -52.73437,0 0,-52.73438 m 1.05469,1.05469 0,50.625 50.625,0 0,-50.625 -50.625,0 m 0.42187,0.63281 49.57031,0 0,49.57032 -49.57031,0 0,-49.57032 m 1.05469,1.47657 0,1.05468 c 0.42187,0.51568 0.63281,1.00786 0.63281,1.47657 l 0.21094,0 0,-0.42188 0.21094,0 -0.42188,-0.84375 0.21094,-0.21094 -0.21094,0 -0.21094,0.21094 -0.21093,-0.84375 c -1e-5,-0.37495 0.35156,-0.72651 1.05468,-1.05469 0.70313,0.16412 1.05469,0.72662 1.05469,1.6875 l -1.6875,3.79688 0,0.63281 0.63281,0.63281 0.42188,0 c 0.79687,5e-5 1.64062,-0.91401 2.53125,-2.74218 0.58593,-0.56246 1.14843,-0.84371 1.6875,-0.84375 l 0.21094,0 0.84375,0.63281 0,-0.63281 -0.63282,-0.63282 -1.05468,0 -0.21094,0.21094 -0.21094,0 0,-0.63281 c -0.77344,5e-5 -1.33594,0.63286 -1.6875,1.89844 l -0.84375,1.26562 -0.63281,0 0,-0.42187 c 1.12499,-1.42964 1.68749,-2.55464 1.6875,-3.375 l 0,-0.63282 -0.21094,0.21094 -0.21094,0 -1.26562,-1.26562 -0.84375,0 -0.84375,0.84375 m 4.21875,-0.84375 0,0.21093 c 0.28124,5e-5 0.42187,0.2813 0.42187,0.84375 l 0.42188,-0.42187 -0.63281,-0.63281 -0.21094,0 m 20.03906,0 0,0.42187 0.63281,0 0,-0.42187 -0.63281,0 m 3.58594,0 0,0.21093 0.42187,0 0,-0.21093 -0.42187,0 m 5.48437,1.26562 0.21094,0 c 1.45309,-0.70307 2.92965,-1.05464 4.42969,-1.05469 l 0.63281,0 c 1.78121,5e-5 3.53902,0.63287 5.27344,1.89844 l 0.21094,0 0,-0.42187 c -1.99223,-1.12495 -3.67973,-1.68745 -5.0625,-1.6875 l -1.89844,0 c -1.68754,5e-5 -2.95316,0.42192 -3.79688,1.26562 m 11.60157,0.21094 0,1.26562 0.63281,0.84375 0,0.21094 -1.05469,-0.42187 0,0.21093 c 0.11714,0.93755 0.53902,1.71099 1.26563,2.32032 l 0,0.21093 -0.42188,0 0,0.42188 c 1.54683,1.35942 2.32026,2.4141 2.32031,3.16406 l 0,0.42188 -0.42187,0 c -0.37505,-1.54684 -1.07817,-2.32027 -2.10938,-2.32032 l -0.21093,0 c -5e-5,0.42192 0.2812,0.63286 0.84375,0.63282 l 0.21093,0.21093 0,0.21094 c -0.65629,0.18754 -1.00786,0.46879 -1.05468,0.84375 l 0.21093,0.21094 0.21094,-0.21094 0.84375,0 1.47656,1.26563 0.21094,0.84375 -0.42187,0 0.21093,1.05468 0,1.26563 c -5e-5,1.03128 -0.21098,2.29691 -0.63281,3.79687 l 0.42188,0 0.63281,-4.42968 c -5e-5,-4.21871 -0.56255,-6.32808 -1.6875,-6.32813 l 0,-0.42187 0.21094,0 0.84375,0.63281 0,-0.21094 c -0.16411,-0.58589 -0.72661,-1.28902 -1.6875,-2.10937 l 0,-0.21094 0.42187,0 0.21094,0.21094 0.21094,0 0,-0.21094 c -0.70318,-0.63277 -1.05474,-1.47652 -1.05469,-2.53125 0.30464,-1.26558 0.6562,-1.89839 1.05469,-1.89844 l 0.63281,0 c 0.2812,5e-5 0.42182,0.21099 0.42187,0.63281 l 0.21094,0 0,-0.63281 -1.05469,-0.42187 -1.89843,1.47656 m -39.65625,0 0,0.21094 0.21093,0 c 1.57031,-0.8437 3.04687,-1.26558 4.42969,-1.26563 l 0.84375,0 c 1.78124,5e-5 3.53905,0.77349 5.27344,2.32031 l 0,-0.42187 0.21094,0.21094 0.21093,0 0,-0.21094 c -2.06251,-1.4062 -3.75001,-2.10933 -5.0625,-2.10938 l -1.6875,0 c -1.19532,5e-5 -2.67188,0.42193 -4.42968,1.26563 m 13.07812,-0.42188 -0.63281,-0.21093 c -2e-5,0.25786 0.49217,0.60942 1.47656,1.05468 l 0.21094,-0.21093 0.42187,0 0,0.21093 -0.21093,0.21094 0,0.21094 0.21093,0.21094 1.05469,0 c -2e-5,-0.56245 0.35154,-0.8437 1.05469,-0.84375 l 0.42187,0.42187 0,-0.84375 c -0.42189,-0.70307 -0.98439,-1.05464 -1.6875,-1.05469 -0.65627,0.44537 -1.4297,0.72662 -2.32031,0.84375 m 9.07031,-0.84375 c -0.4219,0.70318 -0.91409,1.05474 -1.47656,1.05469 l 0,0.21094 0.42188,0 c 0.30466,-0.0234 0.72653,-0.44526 1.26562,-1.26563 l -0.21094,0 m 1.6875,0 0.42188,0.63282 0,0.42187 c -3e-5,0.42193 -0.63284,0.63286 -1.89844,0.63281 l -0.63281,1.05469 0.21094,0 c -3e-5,-0.42183 0.7734,-0.77339 2.32031,-1.05469 l 0.42187,-0.84375 c -0.21096,-0.56245 -0.4219,-0.8437 -0.63281,-0.84375 l -0.21094,0 m -3.58593,0.21094 0,0.42188 0.63281,0 0,-0.42188 -0.63281,0 m -2.32032,0.21094 0,0.63281 0.63282,0 0,-0.21094 -0.42188,-0.42187 -0.21094,0 m -15.1875,0.42187 0,0.21094 c 3.09374,5e-5 4.64061,0.63286 4.64063,1.89844 l 0,0.21094 -0.63281,0.63281 -0.21094,0 -1.6875,-1.89844 -1.05469,0 -0.63281,0.63281 0,0.42188 0.42187,0 c -1e-5,-0.56245 0.14062,-0.8437 0.42188,-0.84375 l 0.63281,0 c 0.30468,5e-5 0.72655,0.77348 1.26563,2.32031 l 0.84375,0.21094 1.05468,-0.21094 0,0.42188 0.42188,0 0.21094,-1.05469 -0.21094,-1.05469 0.42187,0 0,-0.21094 c -1e-5,-0.93745 -1.33595,-1.57026 -4.00781,-1.89843 l -1.89844,0.21093 m 30.16407,-0.21093 -0.63282,0.84375 0,0.21093 0.42188,0.42188 0.21094,0 -0.21094,-0.21094 0,-0.21094 c 0.14058,-0.56245 0.42183,-0.8437 0.84375,-0.84375 l 0,-0.21093 -0.63281,0 m -13.71094,0.21093 0,0.21094 0.42187,0.42188 0.21094,-0.21094 0,-0.42188 -0.63281,0 m 10.54687,1.26563 0.21094,0.21094 0.84375,0 -0.42187,-0.63282 c -4e-5,-0.42182 0.2109,-0.63276 0.63281,-0.63281 l 0,-0.21094 -0.21094,0 c -0.70316,0.23443 -1.05472,0.6563 -1.05469,1.26563 m -3.16406,-1.05469 0,0.21094 c 0.70309,0.0938 1.05465,0.44536 1.05469,1.05469 l 0.21094,0 0,-0.42188 c -0.14066,-0.56245 -0.49223,-0.8437 -1.05469,-0.84375 l -0.21094,0 m -25.10156,0.21094 0,0.21094 0.42187,0 0,-0.21094 -0.42187,0 m 40.71094,0 -0.63282,0.84375 c 0.18746,0.6563 0.46871,1.00786 0.84375,1.05469 l -0.42187,-1.05469 0.42187,-0.84375 -0.21093,0 m -23.41407,0.42187 0,0.42188 0.63282,0 -0.42188,-0.42188 -0.21094,0 m 1.47657,0 -0.21094,0.21094 0,0.42188 0.21094,0 0.42187,-0.42188 -0.21094,-0.21094 -0.21093,0 m 3.16406,2.53125 -0.21094,0 c -0.46878,5e-5 -0.96097,-0.21089 -1.47656,-0.63281 l 0,0.21094 0.21094,0.21094 c -3e-5,0.42192 0.49215,0.63285 1.47656,0.63281 l 0,0.42187 0.21094,0 1.05468,-0.21093 0,-0.21094 -0.63281,0 -0.21094,0.21094 0,-0.21094 0.63282,-1.05469 0.21093,0 0,0.63281 0.21094,0 0.42188,-1.6875 0.63281,0 0,0.63282 c -0.84378,1.50004 -1.26566,2.48442 -1.26563,2.95312 l 0,0.63281 0.21094,-0.21093 0.21094,0 c 0.23434,4e-5 0.44528,0.49223 0.63281,1.47656 l 1.05469,0.21094 0.42187,0 0.42188,-0.42188 -0.21094,0 -0.84375,0.21094 -0.84375,-1.47656 0.21094,-0.63282 0,-0.21093 -0.21094,0 0,0.42187 -0.42187,0 0,-0.63281 c 0.49215,-0.98433 0.84371,-1.47652 1.05468,-1.47656 l 0,0.63281 0.21094,0 0.42188,-1.47656 0,-0.84375 c -0.14066,-0.42183 -0.56254,-0.63277 -1.26563,-0.63282 -0.23441,5e-5 -1.00784,0.8438 -2.32031,2.53125 m 11.8125,-2.53125 0,0.21094 c -4e-5,0.37505 0.35152,0.72661 1.05469,1.05469 l 0,-0.21094 c -0.56255,-0.2812 -0.8438,-0.63276 -0.84375,-1.05469 l -0.21094,0 m -22.99219,0.42188 c 0.89061,1.68755 1.80467,2.53129 2.74219,2.53125 l 0.63281,0 c 0.28123,4e-5 0.42185,-0.2812 0.42188,-0.84375 0.42185,5e-5 0.63279,-0.14058 0.63281,-0.42188 l 0,-0.21093 -1.26563,0.42187 -0.63281,0 c -0.67971,5e-5 -1.52346,-0.49214 -2.53125,-1.47656 m 13.28906,0 1.05469,0 0,0.84375 c -0.35159,-0.42183 -0.70316,-0.63277 -1.05469,-0.63281 l 0,-0.21094 m -13.92187,0.63281 0,0.21094 0.21094,0.21094 0.21093,0 0,-0.21094 -0.21093,-0.21094 -0.21094,0 m 6.32812,0 -11.39062,24.04688 1.6875,0.84375 c 0.14061,-0.42186 0.56248,-0.63279 1.26562,-0.63282 l 15.39844,0 c 1.05466,3e-5 2.10934,1.61721 3.16406,4.85157 l 0.84375,1.89843 0.42188,0 2.53125,-0.21093 0.21094,0.21093 0,0.63282 -0.21094,1.47656 0.42187,0.42187 0,0.84375 -0.84375,2.10938 0.63282,2.10937 c -0.49223,1.40626 -1.82817,2.10939 -4.00782,2.10938 l 0,0.21094 0.63282,0.21093 6.75,-0.21093 6.32812,0.21093 0.21094,-0.21093 0,-0.21094 c -3.51567,-0.53906 -5.27348,-1.24218 -5.27344,-2.10938 -1.05473,-1.33592 -3.7266,-6.96092 -8.01562,-16.875 l -10.125,-21.72656 -0.63282,0 m 10.54688,0 -0.21094,1.05469 0,0.21094 c -3e-5,0.46879 0.2109,0.96098 0.63281,1.47656 l -0.21093,0.21094 0,0.21093 -0.21094,-0.21093 -0.42188,0 0,0.21093 c 0.32809,1.54692 1.10153,2.32036 2.32032,2.32032 l -0.21094,-0.21094 0,-0.21094 0.63281,0 -0.21094,-0.21094 0,-0.42187 0.21094,0 0.63281,0.42187 0,-0.21093 -1.05468,-1.26563 0,-0.21094 0.63281,0 c -4e-5,0.60942 0.35152,1.0313 1.05469,1.26563 l 0,-0.42188 0.21093,0 0.63282,0.21094 0.21093,-0.21094 0.42188,0.42188 0.42187,-1.26563 0,-0.21093 c -0.44535,4e-5 -0.93754,-0.42183 -1.47656,-1.26563 l 0.21094,0 c 0.70308,0.23442 1.05465,0.58598 1.05469,1.05469 l 0.21093,0 0,-0.63281 -1.89843,-1.6875 -0.63282,0.84375 c -3e-5,-0.21089 -0.84378,-0.56246 -2.53125,-1.05469 l -0.21093,-0.21094 -0.21094,0 m 8.64844,0 0,0.63281 0.42187,-0.42187 1.05469,0.42187 -0.63281,-0.63281 -0.84375,0 m -17.92969,0.21094 0,0.21094 c 0.53903,0.56254 5.39059,11.0391 14.55469,31.42968 1.87495,3.98439 2.99995,6.09376 3.375,6.32813 l -4.00782,-8.64844 0.21094,-0.21094 -0.21094,0 -0.21093,0.21094 -5.69532,-12.86719 0.21094,-0.21093 -0.21094,0 -0.21093,0.21093 -6.96094,-15.60937 c -0.0938,-0.42183 -0.37503,-0.70308 -0.84375,-0.84375 m -7.17188,0.42187 0,0.21094 0.21094,0.21094 0.21094,0 0,-0.21094 -0.21094,-0.21094 -0.21094,0 m -0.42187,0.21094 c -2e-5,1.42973 -1.12502,2.27348 -3.375,2.53125 l -0.21094,0.21094 -0.21094,0 0.42188,0.63281 c -0.84377,0.63286 -1.26564,1.26567 -1.26563,1.89844 l 0,0.21094 0.21094,0 2.32031,0.21093 0.63282,-0.21093 0.21093,0.21093 0,0.21094 -0.21093,0.21094 0,0.21094 0.21093,0 c 0.96092,4e-5 1.80467,-0.91402 2.53125,-2.74219 l -0.21093,-1.47656 -0.21094,0 c -2e-5,0.67973 -0.49221,1.38285 -1.47656,2.10937 l -0.21094,0 -0.42188,-0.42187 c 1.12499,-0.5859 1.68749,-1.28902 1.6875,-2.10938 l -0.21093,0.21094 -0.42188,0 0.42188,-1.6875 0,-0.21094 -0.21094,0 m -9.49219,1.26563 0,0.21093 1.05469,0 0,0.63282 -1.47656,-0.21094 -0.63282,0 -1.05468,0.21094 0,0.21093 0.42187,0.42188 1.05469,0 2.32031,0.84375 0.84375,-0.21094 0.42188,0.42188 0,-0.21094 -0.63282,-0.84375 c 0.98437,0.14067 1.47655,0.42192 1.47657,0.84375 l -0.42188,0 0,0.42187 0.21094,0 1.05469,-0.21093 -1.26563,-2.32032 c -0.42189,5e-5 -0.63282,-0.2812 -0.63281,-0.84375 l -2.10938,0 -0.63281,0.63282 m 10.75781,-0.63282 -0.21093,0.21094 0,0.84375 0.21093,-0.21094 0.21094,0 0,0.63282 0.21094,0 0,-0.42188 -0.42188,-0.84375 0.21094,-0.21094 -0.21094,0 m -12.23437,0.63282 0,0.21093 0.63281,0 0.21094,-0.21093 0,-0.21094 -0.84375,0.21094 m 33.96094,0.63281 0.21093,0.21094 -0.21093,0.21093 0.42187,0 -0.21094,0.21094 0.42188,1.05469 -0.21094,0.21094 1.05469,-0.63282 0.21094,0 0,0.63282 -0.84375,0.21093 0.21093,0.21094 0,0.21094 -0.21093,0.21094 0,0.21093 0.21093,0.21094 0.21094,0 c 0.28121,-0.56246 0.70308,-0.84371 1.26563,-0.84375 L 199,158.89426 l 0,0.21094 0.21094,0 0.42187,-0.42188 -0.21094,-0.63281 0.21094,0 c 0.70308,-0.18746 1.05464,-0.67964 1.05469,-1.47656 l -2.10938,-0.42188 -0.42187,0 -0.21094,-0.63281 c -0.84379,0.28129 -1.26566,0.56254 -1.26562,0.84375 m -39.02344,0 1.26562,0.84375 -0.21093,0.21094 -0.42188,0 -0.63281,-0.63282 0,-0.42187 m 17.71875,0.42187 0,0.42188 0.21094,0 0,-0.42188 -0.21094,0 m 0.84375,0 c 0.28123,0.63286 0.56248,0.98442 0.84375,1.05469 l 0.42187,-0.42187 c -0.46877,4e-5 -0.89064,-0.2109 -1.26562,-0.63282 m -15.39844,1.26563 0.21094,0 0.63281,-0.63281 -0.84375,0.63281 m 14.76563,-0.63281 -0.42188,0.42187 0.21094,0.21094 0,0.63281 -0.42188,1.6875 0,0.21094 0.21094,0 0.42188,-1.26563 0.21093,0.21094 0.21094,0 -0.21094,-2.10937 -0.21093,0 m -14.55469,1.89843 -0.21094,0 0,-0.42187 c -0.42188,0.0938 -0.63282,0.65629 -0.63281,1.6875 l 0,0.42187 c -1e-5,1.57036 0.84374,3.11723 2.53125,4.64063 l 0,-0.21094 -1.05469,-1.26562 0,-0.42188 0.63281,0.42188 0.21094,0 0,-1.05469 c 0.0937,-0.84371 0.30468,-1.26559 0.63281,-1.26563 l 0.21094,0 0,0.21094 -0.42187,1.6875 0.42187,2.10938 0.21094,0 c -1e-5,-0.84372 0.14062,-1.26559 0.42187,-1.26563 0,1.31254 0.49218,2.15629 1.47657,2.53125 l 0,-0.21094 c -0.70314,-0.42184 -1.0547,-0.91402 -1.05469,-1.47656 l 0.63281,-2.32031 c -0.28126,4e-5 -0.42188,-0.2109 -0.42187,-0.63281 l 0.42187,-1.26563 -0.21094,0 -0.21093,0.21094 -0.21094,0 -0.21094,-1.05469 0.21094,-0.63281 c 0.28124,4e-5 0.42186,0.21098 0.42187,0.63281 l 0.21094,0 0.21094,-1.26562 c -0.93751,4e-5 -1.85157,0.42191 -2.74219,1.26562 l -0.21094,-0.63281 -0.21093,0 c -0.42188,0.14067 -0.63282,0.56254 -0.63282,1.26562 l 0,0.42188 0.42188,1.6875 -0.42188,0.42187 c -0.42188,4e-5 -0.70313,-0.63277 -0.84375,-1.89843 0,-1.12496 0.77344,-2.4609 2.32032,-4.00782 -0.25782,5e-5 -0.89064,0.56255 -1.89844,1.6875 m -3.79688,-1.47656 0,0.21094 c 0,0.28129 0.21094,0.42192 0.63282,0.42187 l 0.63281,0 0,-0.21093 -1.26563,-0.42188 m 6.32813,0.63281 0.21094,0.21094 0.42187,0 0,-0.63281 -0.21094,0 -0.42187,0.42187 m 37.125,-0.42187 -0.21094,3.16406 0,0.21094 0.21094,0 0.42187,-1.89844 -0.21093,-1.47656 -0.21094,0 m -14.13281,0.21094 0,0.42187 c 0.98434,5.06254 3.09371,7.59379 6.32812,7.59375 l 0.63281,0 2.95313,-0.42187 0,-0.21094 -0.42188,0 -3.16406,0.42187 c -0.84379,-0.14059 -1.26566,-0.35152 -1.26562,-0.63281 l 0,-0.21094 c 0.56246,4e-5 0.84371,-0.2109 0.84375,-0.63281 l 0,-0.42187 -1.05469,0.84375 c -2.57816,3e-5 -4.12503,-2.24996 -4.64063,-6.75 l -0.21093,0 m -23.83594,0.42187 0,0.42188 0.42187,-0.42188 -0.42187,0 m 3.375,0 0,0.21094 0.42187,0.42187 0.21094,-0.21093 0,-0.21094 -0.21094,-0.21094 -0.42187,0 m 27.21094,1.89844 c -4e-5,0.3516 0.98433,1.54691 2.95312,3.58594 0.84371,1.21878 1.26558,2.27347 1.26563,3.16406 l 0,0.21094 c -0.2813,2.25003 -1.19536,3.37503 -2.74219,3.375 l -0.84375,0 c -0.56254,-0.21091 -0.98441,-0.7031 -1.26563,-1.47657 -3e-5,-0.98434 0.63278,-1.47653 1.89844,-1.47656 l 0,-0.21094 -1.05469,0 -0.63281,0.21094 0,-0.42187 c -0.42191,0.14066 -0.63285,0.56253 -0.63281,1.26562 l 0.21094,1.26563 -0.63282,0 c 0.65622,1.12503 1.35934,1.68753 2.10938,1.6875 l 0.84375,-0.21094 0,0.42187 -0.21094,0.21094 0,0.21094 0.21094,0 c 2.24996,-0.79685 3.37496,-2.69528 3.375,-5.69531 l 0,-0.21094 -0.42188,-2.32031 0.21094,0 c 0.37496,3e-5 0.65621,0.9141 0.84375,2.74218 -4e-5,0.89066 -0.3516,2.29691 -1.05469,4.21875 0.28121,3e-5 0.42184,0.21097 0.42188,0.63282 l 0.63281,0 -0.42187,-0.63282 c 0.70308,-2.43746 1.05464,-4.12496 1.05468,-5.0625 -4e-5,-3.42183 -1.40629,-5.81245 -4.21875,-7.17187 l -0.42187,0 c -0.98441,4e-5 -1.4766,0.56254 -1.47656,1.6875 m -36.07032,-1.47656 -0.42187,4.00781 0,0.84375 1.05469,5.27344 -0.21094,0.63281 0.21094,0 c 0.28124,3e-5 0.42187,-0.21091 0.42187,-0.63281 l -1.05469,-3.79688 0,-2.95312 0.42188,-3.375 -0.42188,0 m 12.44532,0 0.63281,0 1.05469,0.21093 0,0.21094 -0.63282,0.21094 -1.05468,-0.21094 0,-0.42187 m 20.03906,0.42187 0,0.21094 0.42187,0 0.21094,-0.21094 0,0.21094 -0.42187,1.05469 -0.21094,0 0,-0.84375 -0.21094,0 -0.21094,1.26562 1.05469,-0.21094 0.21094,0.21094 0,0.42188 -1.26563,0.21093 0,1.05469 2.10938,0 0,0.42188 0.21094,0 1.26562,-1.26563 0,-0.63281 -0.42187,0 0.21093,-0.21094 0,-0.21094 -0.21093,0 c -0.14067,0.42192 -0.56254,0.63286 -1.26563,0.63282 l 0,-0.21094 0.84375,-0.63281 0.21094,-0.21094 0,-0.21094 -0.21094,0.21094 -0.42187,0 0.21093,-1.05469 -0.21093,0 -1.26563,-0.21094 -0.63281,0.21094 m 4.64062,-0.42187 0.84375,0 0.84375,0.84375 0,0.21093 -1.6875,-0.21093 -0.63281,0.21093 0,-0.21093 0.63281,-0.84375 m -36.49218,1.6875 0.21093,0 c 0,-0.37496 0.35156,-0.5859 1.05469,-0.63282 l 0,-0.42187 -0.63281,0 c -0.23438,4e-5 -0.44532,0.3516 -0.63281,1.05469 m 7.59375,-0.63282 0.42187,0 0.42188,-0.42187 -0.42188,0 -0.42187,0.42187 m 2.10937,-0.42187 0,0.21094 0.42188,0.42187 0.21093,-0.21094 0,-0.42187 -0.63281,0 m 31.21875,0.42187 0.42188,0.63282 0,0.21093 -0.21094,0 -0.63281,-0.42187 0,0.21094 c 0.23433,4e-5 0.51558,0.42191 0.84375,1.26562 l 0.84375,0 -0.63282,-1.6875 0.42188,0 -0.42188,-0.42187 -0.63281,0.21093 m -32.0625,0.21094 -0.21094,0.63281 0.63282,0 0,-0.21093 -0.42188,-0.42188 m 8.85938,0 -1.05469,1.47656 0.21094,0 0.21093,-0.21093 0,0.42187 c 0.28123,4e-5 0.56248,-0.49215 0.84375,-1.47656 l 0,-0.21094 -0.21093,0 m 12.02343,0 0,0.21094 0.63282,0.42187 0.63281,0 0,-0.21093 -1.26563,-0.42188 m 7.59375,0 c 1.54684,1.26567 2.32027,2.39067 2.32032,3.375 -1.54692,-1.78121 -2.32036,-2.90621 -2.32032,-3.375 m -29.74218,0.84375 0.42187,0 0,-0.42187 -0.42187,0.42187 m 3.16406,-0.42187 0,0.42187 0.42187,0 0,-0.42187 -0.42187,0 m 2.32031,0 0,0.21093 0.42188,0 0,-0.21093 -0.42188,0 m 8.4375,-0.21094 c 0.84373,4e-5 2.46091,3.09379 4.85156,9.28125 1.61716,2.97659 2.46091,4.87503 2.53125,5.69531 l -0.63281,0.63281 -13.71094,0 -0.63281,-0.63281 c 3.93748,-9.04684 6.3281,-13.96871 7.17188,-14.76562 l 0.21093,-0.21094 0.21094,0 m -11.8125,0.42187 0,0.42188 0.42188,0 0,-0.42188 -0.42188,0 m 1.6875,0.84375 0.21094,0.63282 -0.21094,0 -2.32031,-0.21094 -0.63281,0.21094 c 0.8203,1.54691 1.66405,2.32035 2.53125,2.32031 l 0,0.21094 -0.42188,0.63281 0,0.42187 1.26563,0 0,-0.21093 c -0.56252,3e-5 -0.84377,-0.14059 -0.84375,-0.42188 l 2.10937,-0.21094 c -1e-5,0.42191 -0.28126,0.63285 -0.84375,0.63282 l 0,0.21093 0.63281,0 1.47657,-0.42187 0,0.21094 -0.42188,0.63281 0.21094,0 c -2e-5,-0.2109 0.28123,-0.42184 0.84375,-0.63281 l 0.21094,-0.21094 0,-0.21094 -0.21094,0 -0.63281,0.21094 c -2e-5,-0.42184 0.42185,-0.84371 1.26562,-1.26563 l 0,0.42188 c 0.56248,-0.28121 0.84373,-0.70309 0.84375,-1.26563 -0.75002,0.56254 -1.38283,0.84379 -1.89844,0.84375 l -1.6875,0 -0.42187,-0.42187 0.21094,-0.21094 1.47656,0 c 1.54686,-0.2109 2.32029,-0.56246 2.32031,-1.05469 l -0.42187,0 0,-0.21093 0.42187,-0.63282 -1.05469,0.21094 -2.53125,-0.63281 -1.05468,0 -0.42188,0.42187 m 9.49219,-0.42187 -6.32813,13.71094 0,0.42187 0.21094,0 6.53906,-14.13281 -0.42187,0 m -12.23438,0.21094 0,0.21093 0.63282,0 0,-0.21093 -0.63282,0 m -1.05468,0.21093 0,0.42188 0.42187,0 0,-0.42188 -0.42187,0 m 27.84375,0.21094 0,1.05469 -0.21094,-0.21094 -0.21094,0 0,0.63281 0.42188,0.42188 0.21093,0 0.21094,-0.21094 0.21094,0 0.63281,0.63281 0.21094,-1.05468 -0.84375,-0.42188 0,0.21094 0.21094,0.21094 -0.42188,0 -0.21094,-1.26563 -0.21093,0 m -34.80469,0.21094 0,0.42187 c -0.42188,4e-5 -0.63282,0.14067 -0.63281,0.42188 l 0,0.21094 0.21093,0 0,-0.42188 0.84375,0 3.79688,3.79688 0.21094,0 0,-0.21094 -3.58594,-4.00781 -0.84375,-0.21094 m 12.86719,-0.21094 0.21093,0 1.26563,0.21094 0,0.21094 -0.42188,0.42187 -0.21093,0 -0.84375,-0.84375 m 28.47656,0.63281 -0.21094,0.21094 0,0.21094 0.21094,0 0.21094,-0.21094 0,-0.21094 -0.21094,0 m -34.17188,0.42188 0,0.63281 0.42188,0 0,-0.21094 -0.42188,-0.42187 m 1.89844,0 c 0.98436,0.58597 1.47655,1.00785 1.47656,1.26562 l -0.42187,0 -1.05469,-0.21093 0,-1.05469 m -2.10937,1.05469 0,0.42187 0.21093,0 0,-0.42187 -0.21093,0 m 0.84375,0 0.42187,0.42187 0.21094,0 0,-0.42187 -0.63281,0 m 13.5,0 0,0.42187 0.42187,0 0,-0.42187 -0.42187,0 m 20.46093,1.89843 0.21094,0.63282 0.21094,0 c -5e-5,-1.26559 0.49214,-1.8984 1.47656,-1.89844 l 0.42188,0 c 0.56245,0.28129 0.8437,0.63285 0.84375,1.05469 l 0.21093,0 0,-0.21094 c -4e-5,-0.56246 -0.56254,-0.98434 -1.6875,-1.26563 -1.12504,0.14067 -1.68754,0.70317 -1.6875,1.6875 m -33.11718,-1.05468 0,0.21093 0.42187,0.42188 0.21094,-0.21094 0,-0.21094 -0.21094,-0.21093 -0.42187,0 m -1.89844,0.21093 0,0.42188 0.21094,0 0,-0.42188 -0.21094,0 m 14.55469,0 0,0.21094 0.63281,0.21094 0,-0.21094 -0.21094,-0.21094 -0.42187,0 m -21.09375,0.42188 -0.42188,1.47656 0.21094,1.6875 0.21094,0 c -1e-5,-1.31246 0.28124,-2.01559 0.84375,-2.10937 l 0.21093,0 c 0.46875,3e-5 0.96094,0.21097 1.47657,0.63281 l 0,-0.42188 -0.84375,-1.05468 0.21093,-0.21094 -0.21093,0 -1.47657,0.21094 -0.21093,-0.21094 m 7.59375,0 0,0.42187 0.42187,0 0,-0.42187 -0.42187,0 m 12.86718,0.21094 0,0.42187 0.42188,0 0,-0.42187 -0.42188,0 m 1.26563,0 0,1.6875 0.21094,0 0,-1.6875 -0.21094,0 m -14.97656,0.42187 0,0.21094 c 0.56249,0.18753 0.84374,0.5391 0.84375,1.05469 l 1.6875,0 c 0.98436,3e-5 2.17967,-0.28122 3.58593,-0.84375 l 0,-0.21094 -0.21093,0 c -0.93752,0.42191 -1.92189,0.63285 -2.95313,0.63281 l -0.42187,0 c -0.70314,4e-5 -1.54689,-0.28121 -2.53125,-0.84375 m 38.17968,0 0,0.42188 0.21094,0 0,-0.42188 -0.21094,0 m -25.73437,0.42188 0,0.42187 0.63281,-0.42187 0.21094,0 c 0.42185,3e-5 0.63279,0.42191 0.63281,1.26562 l 0.21094,0 0,-0.63281 c -0.21096,-0.56247 -0.4219,-0.84372 -0.63281,-0.84375 l -1.05469,0.21094 m 3.79687,0.21093 0,0.21094 0.84375,0.21094 0,-0.21094 -0.21093,-0.21094 -0.63282,0 m 20.25,1.26563 0.21094,0.21094 c -1.54692,3e-5 -2.32036,0.28128 -2.32031,0.84375 l 0,0.42187 1.05469,-0.63281 c 0.8437,3e-5 1.33589,0.56253 1.47656,1.6875 l 0,0.63281 c -5e-5,1.52347 -1.26567,3.49222 -3.79688,5.90625 l 0,0.21094 c 3.23433,-2.67185 4.85152,-5.27341 4.85157,-7.80469 l 0,-0.42187 -0.84375,-2.32032 c -0.42193,0.14066 -0.63286,0.56254 -0.63282,1.26563 m -34.80468,2.32031 c 0.32811,3e-5 0.60936,0.42191 0.84375,1.26563 l 1.26562,0 c 0.23436,3e-5 0.51561,-0.49216 0.84375,-1.47657 l -0.21094,0 -0.42187,0.84375 -0.21094,0 c -0.84376,3e-5 -1.26564,-0.42184 -1.26562,-1.26562 -2e-5,-0.60934 0.91405,-1.31247 2.74218,-2.10938 l 0,-0.21093 -0.21093,0 c -2.25002,0.86722 -3.37502,1.85159 -3.375,2.95312 m 12.86718,-2.74219 0,0.21094 0.21094,0.21094 0.21094,0 0,-0.21094 -0.21094,-0.21094 -0.21094,0 m -2.95312,0.21094 0.42187,0.84375 -0.63281,2.10938 0,0.42187 c -2e-5,1.17191 0.84373,1.87503 2.53125,2.10938 1.8281,2e-5 2.74216,-1.05466 2.74219,-3.16407 -3e-5,-0.49215 0.28122,-0.98434 0.84375,-1.47656 l -0.84375,0 c -0.2344,3e-5 -0.51565,0.42191 -0.84375,1.26563 l -0.21094,0 -0.21094,-0.84375 -0.42187,0 c -0.28128,3e-5 -0.49221,0.4219 -0.63281,1.26562 l 0.21093,1.89844 -0.21093,0.21094 -0.42188,0 -0.42187,-0.42188 0.21093,-1.26562 -0.21093,-0.21094 0,-0.21094 0.42187,-1.26562 0,-0.21094 -0.21094,0 -1.05468,0.21094 c -0.28128,-0.84372 -0.56253,-1.2656 -0.84375,-1.26563 l -0.21094,0 m -13.28906,1.89844 0,0.21094 0.84375,-0.84375 -0.21094,0 -0.63281,0.63281 m -1.47657,0 0,0.21094 0.63282,0 0,-0.63282 -0.21094,0 -0.42188,0.42188 m -2.74218,-0.21094 0,0.21094 0.63281,0 0,-0.21094 -0.63281,0 m -1.05469,0.42188 -0.21094,0.21093 0,0.21094 0.21094,0 0.21094,-0.21094 0,-0.21093 -0.21094,0 m 17.29687,0 -0.21093,1.47656 0.63281,0 0,-0.42188 -0.21094,-1.05468 -0.21094,0 m -14.97656,0.21093 0,1.47657 0.21094,0 0,-1.47657 -0.21094,0 m -2.95312,0.42188 -0.21094,0.21094 0,0.21093 0.21094,0 0.21093,-0.21093 0,-0.21094 -0.21093,0 m 4.42968,0.42187 0.42188,0.42188 0.42187,0 0,-0.84375 -0.42187,0 -0.42188,0.42187 m 1.6875,-0.42187 0,0.63281 0.42188,-0.42187 0,-0.21094 -0.42188,0 m 13.5,-0.21094 0.21094,0 c -2e-5,1.14847 0.42185,1.92191 1.26563,2.32031 l 1.05468,0 c 0.39842,3e-5 0.74998,-0.63278 1.05469,-1.89843 l 0.63281,0.63281 c -2e-5,1.12503 -0.9844,1.68753 -2.95312,1.6875 -0.9844,-0.60935 -1.47659,-1.24216 -1.47656,-1.89844 l 0.21093,-0.84375 m 5.0625,1.47656 0.21094,-0.21093 0.21094,0 0.63281,0.21093 0,-0.21093 -0.21094,-0.63282 0.42188,-0.42187 -0.21094,0 c -0.70315,0.28128 -1.05471,0.70315 -1.05469,1.26562 m -23.83593,-1.05468 c 0.49218,1.75784 2.53124,4.28909 6.11718,7.59375 l 0.21094,0 c -3.5625,-3.56248 -5.53125,-6.09372 -5.90625,-7.59375 l -0.42187,0 m 40.92187,6.32812 0.21094,0 c 1.80464,-1.4531 3.14058,-3.21091 4.00781,-5.27344 l 0.84375,-0.42187 0,-0.21094 -0.21094,-0.21094 0,-0.21093 c -0.35161,3e-5 -1.05473,1.12503 -2.10937,3.375 l -2.74219,2.95312 m -38.17969,-5.69531 0,0.21094 0.42188,0 0,-0.21094 -0.42188,0 m 0.84375,0.63281 0,0.42188 0.42188,0 0,-0.42188 -0.42188,0 m 12.44532,0 0,0.21094 c 0.28123,3e-5 0.56248,0.35159 0.84375,1.05469 l -0.42188,0.42187 0.84375,0.42188 c 0.84373,-0.1406 1.2656,-0.35154 1.26563,-0.63282 l -1.05469,-0.63281 0.21094,-0.63281 -0.21094,0 -1.26563,-0.21094 -0.21093,0 m -13.5,0.63281 0.21093,0.21094 0.21094,0 0,-0.63281 -0.42187,0.42187 m 31.21875,-0.42187 0,0.21094 c 0.56246,0.0703 0.84371,0.28128 0.84375,0.63281 l -0.21094,2.32031 c 0.14059,0.56253 0.56246,0.84378 1.26562,0.84375 l 0.42188,0 1.26562,-1.05469 0,-0.42187 -0.42187,-0.63281 0,-0.63282 0.63281,-0.84375 -0.21094,0 c -0.32816,3e-5 -0.5391,0.35159 -0.63281,1.05469 l -0.42187,0 0,-0.42187 -0.21094,0 0,0.63281 0.42187,1.26562 0,0.21094 -0.63281,0.63281 -0.63281,0 -0.63281,-0.63281 0,-0.63281 0.42187,-1.6875 c -0.28129,-0.56247 -0.63285,-0.84372 -1.05469,-0.84375 l -0.21093,0 m -10.125,0.21094 c -3e-5,0.70315 -0.28128,1.05471 -0.84375,1.05468 l 0,0.21094 0.42187,0.42188 1.26563,0 -0.21094,-0.21094 0,-0.63281 c 0.84372,2e-5 1.2656,-0.21091 1.26562,-0.63282 l 0,-0.21093 -1.89843,0 m -17.29688,1.89843 0,0.63282 -0.21094,0 -0.63281,-0.21094 -0.21094,0.21094 c 0.46874,2.39065 1.52343,3.58596 3.16407,3.58593 l 0.21093,0.63282 0.21094,-0.21094 1.6875,0.63281 1.05469,0 0,0.42188 c -2.03908,0.28127 -3.93751,0.77345 -5.69531,1.47656 0.8203,-1.12498 2.01561,-1.68748 3.58593,-1.6875 l 0,-0.21094 c -1.0547,2e-5 -1.82813,-0.21091 -2.32031,-0.63281 -0.84376,0.14065 -1.26563,0.35158 -1.26562,0.63281 l 0.63281,0.63281 c -0.42189,3e-5 -0.98438,0.56252 -1.6875,1.6875 l 1.47656,0.42188 1.47656,-0.21094 0.42188,0.63281 4.00781,-1.6875 0.21094,0.21094 0,0.21094 c -2e-5,0.28127 -0.84377,0.63283 -2.53125,1.05469 -0.56251,0.58595 -0.84376,1.14845 -0.84375,1.6875 l 0.42187,0 c -1e-5,1.07814 0.28124,1.71095 0.84375,1.89843 l 0.84375,0 0,-0.21093 -0.63281,-0.84375 0,-0.42188 c -1e-5,-1.26561 0.84374,-1.89842 2.53125,-1.89844 l 1.05469,0 c 2.7656,2e-5 4.94529,1.96877 6.53906,5.90625 l 0.21094,0 0.21094,-0.21093 0.21093,0 c -0.89064,-3.11718 -2.78908,-5.57811 -5.69531,-7.38282 -5.90626,-2.64841 -8.85938,-4.89841 -8.85937,-6.75 0.28124,-0.86716 0.6328,-1.35934 1.05468,-1.47656 l 0.21094,0 0.21094,0.63281 -0.63281,0 0,0.21094 1.26562,0.84375 0.63281,0 0,-0.21094 -0.21093,-0.63281 0.21093,0 0.63282,-0.63281 0,-0.42188 -0.84375,0.21094 -1.6875,-0.21094 c -0.84376,0.28128 -1.26564,0.84378 -1.26563,1.6875 m 31.85156,-1.26562 0.63282,0.84375 0,0.63281 c -5e-5,1.26565 -1.33598,2.39065 -4.00782,3.375 0.2109,0.56252 0.42184,0.84377 0.63282,0.84375 l 0.84375,0 c 1.9687,-0.0937 2.95308,-0.44529 2.95312,-1.05469 l 0,-0.21093 -0.21094,0.21093 -0.21093,0 -0.21094,-0.21093 0,-0.21094 c 0.63277,-0.18748 1.12496,-0.74998 1.47656,-1.6875 l -0.63281,0 0,-1.05469 c -4e-5,-0.98435 -0.42192,-1.47653 -1.26563,-1.47656 m -38.8125,1.05469 0,0.63281 0.84375,-0.63281 c 0.51562,2e-5 1.07812,0.28127 1.6875,0.84375 l 0,-0.21094 c -0.72656,-0.7031 -1.35937,-1.05466 -1.89843,-1.05469 l -0.21094,0 -0.42188,0.42188 m 19.61719,-0.42188 0,0.84375 0.42188,0.42188 0.21093,-0.21094 0.21094,0 c -2e-5,0.32815 0.35154,0.53909 1.05469,0.63281 0.42185,3e-5 0.63279,-0.28122 0.63281,-0.84375 l 0.84375,0 0,-0.63281 -0.63281,-0.21094 0,0.42188 -0.21094,0 -0.63281,-0.21094 0.21094,0.21094 0,0.42187 -0.63282,0 0,-0.63281 -0.21093,0 -0.21094,0.21094 -0.21094,0 -0.42187,-0.42188 -0.42188,0 m -14.97656,0.21094 -0.21094,0.21094 0,0.84375 0.21094,0 0.21094,-1.05469 -0.21094,0 m 41.55469,0 0,0.42187 0.21093,0 0,-0.42187 -0.21093,0 m -0.84375,0.21094 -0.21094,0.21093 0,0.21094 0.21094,0.21094 0.21093,0 0.21094,-0.21094 0,-0.21094 -0.21094,-0.21093 -0.21093,0 m -44.29688,0.84375 0,0.42187 0.21094,0 0,-0.42187 -0.21094,0 m 45.14063,0 0,0.21093 0.42187,0 0,-0.21093 -0.42187,0 m -43.66407,0.21093 0,0.21094 0.84375,0.63281 0,-0.21093 -0.84375,-0.63282 m 2.10938,0 0,0.21094 0.63281,0.42188 0,-0.21094 -0.63281,-0.42188 m 40.5,0.21094 0,0.42188 0.42187,0 0,-0.42188 -0.42187,0 m 0.84375,0.84375 0.42187,0 0,-0.42187 -0.42187,0.42187 m -45.35156,-0.21094 -0.42188,1.05469 0,0.21094 0.21094,0 0.42187,-1.05469 0,-0.21094 -0.21093,0 m -1.26563,0.42188 0,0.21094 0.21094,0.21093 0.21094,0 0,-0.21093 -0.21094,-0.21094 -0.21094,0 m 45.5625,0 0,0.84375 0.21094,0 0.42187,-0.42188 0,-0.42187 -0.63281,0 m 1.26563,0.84375 0.21093,0.63281 0.21094,0 0,-0.42187 -0.21094,-0.21094 -0.21093,0 m -46.19532,0.21094 0,0.42187 0.21094,0 0,-0.42187 -0.21094,0 m 0.84375,0 0,0.21093 0.21094,0.21094 0.63281,0 0,-0.21094 -0.84375,-0.21093 m 42.82032,0 c -0.2813,0.84377 -0.91411,1.26564 -1.89844,1.26562 l 0,0.21094 c 0.8437,2e-5 1.26558,0.35158 1.26562,1.05469 l 0.84375,0.42187 0,-0.63281 c -0.56254,2e-5 -0.84379,-0.21092 -0.84375,-0.63281 l 0,-0.21094 c -4e-5,-0.28123 0.28121,-0.42185 0.84375,-0.42188 l 0.21094,-0.21093 0,-0.84375 -0.42187,0 m -41.76563,0.42187 0,0.21094 0.42188,0 0,-0.21094 -0.42188,0 m 36.91406,-0.21094 0,0.21094 -0.42187,0.42188 -0.63281,0 -0.42188,-0.42188 1.47656,-0.21094 m -39.02343,0.42188 0,0.42187 0.21093,0 0,-0.42187 -0.21093,0 m 2.95312,0 0,0.21094 0.42188,0 0,-0.21094 -0.42188,0 m 43.875,0 -0.84375,1.05469 c 0.37495,2e-5 0.72651,-0.35154 1.05469,-1.05469 l -0.21094,0 m -5.90625,0.42187 0,0.21094 0.84375,0 0,-0.21094 -0.84375,0 m -41.13281,0.42188 0,1.05469 0.21094,0 0,-1.05469 -0.21094,0 m 2.74219,0.21094 -0.21094,0.84375 1.05469,0.21093 0.21093,0 0,-0.21093 c -0.5625,2e-5 -0.84375,-0.28123 -0.84375,-0.84375 l -0.21093,0 m 15.60937,0.63281 -0.21094,-0.21094 -0.63281,0 c -2e-5,0.65627 1.19529,2.27346 3.58594,4.85156 l 0.63281,0.84375 c -1.82815,-2.78904 -2.74221,-4.40623 -2.74219,-4.85156 0.14061,-0.56248 0.56248,-0.84373 1.26563,-0.84375 l -0.42188,-0.42187 -0.84375,0 -0.63281,0.63281 m 5.27344,1.05469 0,0.21093 1.05469,1.05469 0,-0.21094 -0.63282,-0.84375 0,-0.42187 1.05469,-1.05469 c 0.84372,0.28127 1.2656,0.56252 1.26563,0.84375 l 0,0.63281 c -3e-5,0.4219 -0.49222,1.40627 -1.47657,2.95313 l 0.21094,0 c 1.54685,-1.89842 2.32028,-3.30467 2.32031,-4.21875 l -2.10937,-0.63281 -0.84375,0 c -0.37503,2e-5 -0.65628,0.56252 -0.84375,1.6875 m 13.07812,-1.47657 c -4e-5,0.84378 0.49215,1.26565 1.47657,1.26563 1.68745,0.93752 2.5312,2.27345 2.53125,4.00781 l -0.63282,1.05469 0.42188,0 c 0.56246,-0.18749 0.84371,-0.74998 0.84375,-1.6875 l 0.21094,0 0.63281,0.42187 0.21094,0 c -5e-5,-1.14842 -0.63286,-2.2031 -1.89844,-3.16406 0.84371,2e-5 1.26558,-0.1406 1.26562,-0.42187 -0.28129,2e-5 -0.42191,-0.21092 -0.42187,-0.63282 l -1.05469,-0.42187 0,0.84375 -1.47656,-0.63281 c -4e-5,-0.28123 0.28121,-0.42186 0.84375,-0.42188 l 0,-0.21094 -1.47656,-0.21093 -1.47657,0.21093 m 7.59375,-0.21093 0,0.21093 0.63282,0 0,-0.21093 -0.63282,0 m 1.05469,0 0,0.21093 0.42188,0 0,-0.21093 -0.42188,0 m -23.83594,0.42187 0,1.05469 0.21094,0 0,-1.05469 -0.21094,0 m -20.25,0.21094 0,0.21094 0.63282,0 0,-0.21094 -0.63282,0 m 2.10938,1.47656 0.21094,0.21094 0.21093,0 c 0,-0.28123 0.91406,-0.77342 2.74219,-1.47656 l 0,-0.21094 -0.21094,0 c -0.70313,2e-5 -1.6875,0.49221 -2.95312,1.47656 m 38.39062,-1.47656 0,0.21094 0.42188,0 0,-0.21094 -0.42188,0 m -14.97656,2.95312 -0.21094,-0.21093 0,0.21093 0.21094,0.21094 c -0.91409,0.63283 -1.89846,2.32033 -2.95312,5.0625 l 0.63281,0.84375 c -3e-5,-0.89061 0.35153,-1.73436 1.05469,-2.53125 l 0.21093,0.21094 -0.42187,1.05469 2.74219,-3.58594 -0.21094,0 c -1.26565,1.31251 -1.89847,2.15626 -1.89844,2.53125 l -0.42187,-0.42188 c 0.82028,-1.42967 2.71872,-3.04685 5.69531,-4.85156 l -0.63281,-1.26562 c -1.00785,0.44533 -2.27347,1.35939 -3.79688,2.74218 m 16.03125,-2.53125 0,0.21094 1.05469,0.63281 0,-0.21093 -1.05469,-0.63282 m -12.65625,0.42188 0.42188,0 0,0.21094 c -1.1016,0.6797 -2.01566,1.45314 -2.74219,2.32031 l -0.21094,0 c -3e-5,-0.56248 0.84372,-1.40623 2.53125,-2.53125 m 12.44531,0.21094 c 0.0234,0.25783 0.65621,0.89064 1.89844,1.89843 0.93745,1.50002 1.49995,3.04689 1.6875,4.64063 -5e-5,1.75782 -0.77348,3.02345 -2.32031,3.79687 -0.86723,-0.28124 -1.35942,-0.6328 -1.47656,-1.05468 l 0,-0.42188 1.47656,-1.47656 0,-0.21094 -0.63281,-0.63281 c -5e-5,0.77345 -0.42192,1.47657 -1.26563,2.10937 l 0,0.63282 c -4e-5,0.77344 0.63277,1.33594 1.89844,1.6875 l 0,0.21093 1.05469,0 c 0.70307,-0.32811 1.05464,-0.96092 1.05468,-1.89843 l 0.63282,0 0,0.84375 -1.26563,1.89843 0,0.42188 0.84375,0 c 0.56245,-1.49999 0.8437,-2.6953 0.84375,-3.58594 l 0,-0.42187 -0.21094,0.21093 -0.21093,0 -0.21094,-1.05468 0.21094,-1.05469 0.21093,0 0,1.26562 0.21094,0 0,-1.05468 c -5e-5,-2.41405 -1.4063,-4.66405 -4.21875,-6.75 l -0.21094,0 m -20.88281,0.21093 0,0.84375 0.21094,0 0,-0.84375 -0.21094,0 m 22.35938,0 0,0.21094 2.74218,1.89844 0.42188,-1.47656 -0.42188,0 c -5e-5,0.42189 -0.21098,0.63283 -0.63281,0.63281 l -2.10937,-1.26563 m -30.16407,0 2.74219,0.63282 0,0.21093 -2.53125,0 -0.42187,-0.42187 0.21093,-0.21094 0,-0.21094 m -7.38281,0.42188 0.42188,0 0,0.21094 -0.42188,0 0,-0.21094 m 35.64844,0.21094 0,0.21093 c 1.26558,1.00783 1.89839,1.9219 1.89844,2.74219 l -0.21094,0.21094 0,0.21094 0.21094,0 0.21093,-0.63282 c -4e-5,-0.98435 -0.70317,-1.89841 -2.10937,-2.74218 m -37.96875,0.21093 -0.63281,0.84375 0.21093,0 0.63282,-0.84375 -0.21094,0 m -4.64063,2.74219 0.42188,0.42188 c -0.42188,0.91407 -0.63282,2.03907 -0.63281,3.375 l 0,1.89843 c 0.42187,1e-5 0.63281,0.56251 0.63281,1.6875 l 0.42187,0.63282 0.21094,-0.21094 1.05469,0.21094 0.42187,0 0,-0.84375 -0.42187,0 0,-0.63282 0.42187,0 0,-0.21093 c -1.26562,-1.1953 -1.89844,-2.53124 -1.89843,-4.00782 -1e-5,-0.84373 0.77343,-2.3906 2.32031,-4.64062 l -0.21094,-0.21094 -0.21094,0 -2.32031,2.53125 -0.21094,0 m 5.69532,-2.10937 -0.21094,1.05468 0,0.42188 0.63281,0.84375 1.26563,-0.21094 0,-0.84375 -0.21094,0 0,0.63281 -0.63281,0 -0.84375,-0.84375 0.21093,-0.84375 0,-0.21093 -0.21093,0 m 16.66406,0 0,0.63281 0.21094,0 0,-0.63281 -0.21094,0 m -18.77344,0.42187 -0.21094,0.21094 0,0.21094 0.21094,0 0.21094,-0.21094 0,-0.21094 -0.21094,0 m 25.10156,1.05469 1.26563,-0.42188 0.21094,0 0.63281,0.63282 0,0.42187 c -3e-5,0.42189 -0.28128,0.63283 -0.84375,0.63281 l 0,0.21094 0.42187,0 c 0.56247,-0.14061 0.84372,-0.42186 0.84375,-0.84375 l 0.21094,0 0.21094,0.21094 0.21094,0 0.21093,-0.21094 0,-0.21094 -0.63281,-0.84375 0.63281,-0.21093 0,-0.42188 -1.47656,0 c -1.26565,0.28127 -1.89847,0.63283 -1.89844,1.05469 m -20.03906,-0.84375 c -2.60157,6.89064 -4.78125,10.33594 -6.53906,10.33594 -0.51563,0.42188 -1.21875,0.63282 -2.10938,0.63281 l 0,0.42187 5.69532,-0.42187 5.27343,0.42187 0.84375,-0.21093 c -1e-5,-0.1875 -1.19532,-0.53906 -3.58593,-1.05469 -0.70314,-0.72655 -1.0547,-1.35937 -1.05469,-1.89844 -1e-5,-0.77343 0.91405,-3.02342 2.74219,-6.75 l 0,-0.21094 -0.21094,-0.21093 0,-0.21094 0.21094,-0.63281 -0.21094,0 -1.05469,-0.21094 m -5.48437,0.42187 -0.21094,0.21094 0,0.42188 0.21094,0 0.21093,-0.63282 -0.21093,0 m 19.40625,0 0,0.42188 0.21093,0 0,-0.42188 -0.21093,0 m -9.07032,2.95313 0.42188,1.47656 -0.21094,0 -0.63281,-0.21094 0,1.05469 2.10937,2.53125 0,0.84375 -0.42187,0 c -1.35939,-2.24999 -2.41408,-3.37499 -3.16406,-3.375 l -0.21094,0 0,0.21094 0.21094,0.21094 0,0.21093 c -1.0547,2e-5 -1.75783,0.35158 -2.10938,1.05469 -1e-5,0.28126 0.56249,0.77345 1.6875,1.47656 l 0,0.63282 0.84375,0 c 1.12499,0.0703 1.68749,0.63282 1.6875,1.6875 -0.93751,2.39063 -2.83595,3.58594 -5.69531,3.58593 -1.03126,1e-5 -2.3672,-0.35155 -4.00781,-1.05468 l -0.21094,0 0,0.21093 c 1.7578,0.70313 3.16405,1.05469 4.21875,1.05469 l 0.63281,0 c 3.02343,0 5.1328,-1.26562 6.32813,-3.79687 0.42185,-0.42187 0.63279,-1.33593 0.63281,-2.74219 l 0,-1.47656 -1.26563,-4.64063 0.21094,-0.63281 0.21094,0 1.47656,5.48437 0,0.63282 c -2e-5,2.08594 -0.77345,3.98438 -2.32031,5.69531 l 0.21094,0 c 2.03904,-1.71093 3.23435,-3.53906 3.58593,-5.48438 l 0.42188,-0.63281 -0.21094,0.21094 -0.63281,0 0.21094,-1.05469 -0.42188,-2.95312 -0.21094,0 0,0.42187 -0.21093,0 c -0.28127,2e-5 -0.84377,-0.98436 -1.6875,-2.95312 l -0.21094,0 c -0.42189,1e-5 -0.84377,0.77345 -1.26563,2.32031 m 9.28125,-2.10938 0,0.63282 0.21094,0 0,-0.63282 -0.21094,0 m 20.67188,0 0,0.63282 0.42187,0 0,-0.63282 -0.42187,0 m -40.71094,0.21094 0,0.42188 0.21094,0 0,-0.42188 -0.21094,0 m 2.10938,0.63281 0,0.42188 0.21093,0 0,-0.42188 -0.21093,0 m 5.27343,0 c -1.54688,3.14064 -2.32032,5.10939 -2.32031,5.90625 l 0,0.63282 0.42188,0.42187 -0.21094,-0.63281 c -1e-5,-0.72655 0.77343,-2.76561 2.32031,-6.11719 l 0,-0.21094 -0.21094,0 m 12.86719,0 0,0.63282 0.21094,0 0,-0.63282 -0.21094,0 m 10.125,0 0,0.42188 c 0.93747,1e-5 1.49996,0.28126 1.6875,0.84375 l 0,0.21094 -0.42187,0 c -0.51566,-0.42186 -1.00785,-0.6328 -1.47657,-0.63282 l -1.05468,0 0,0.21094 0.63281,0 0,0.21094 c -4e-5,0.28126 -0.56253,0.4922 -1.6875,0.63281 l -0.63281,0.84375 0.21093,0 c 0.23435,-0.56248 0.72653,-0.84373 1.47657,-0.84375 0.91402,2e-5 1.40621,0.70314 1.47656,2.10938 l 0.21094,0 0.63281,-0.42188 c 0.28121,1e-5 0.42184,0.28126 0.42187,0.84375 l 0.21094,0.21094 0.21094,0 c 0.98434,-0.91405 1.47652,-1.7578 1.47656,-2.53125 l -0.63281,-1.05469 0,-0.21094 0.42187,-0.63281 0,-0.21094 -3.16406,0 m 10.125,0.42188 0,0.21094 0.42188,0 0,-0.21094 -0.42188,0 m -40.71094,0.21094 0,0.21093 0.21094,0.21094 0.21094,0 0,-0.21094 -0.21094,-0.21093 -0.21094,0 m 41.55469,0.42187 0.42188,0 0,-0.42187 -0.42188,0.42187 m -25.94531,-0.21094 0,0.42188 0.42187,0 -0.63281,1.26562 0,0.84375 0.21094,0 c -2e-5,-0.98436 0.49217,-1.47654 1.47656,-1.47656 0.65623,2e-5 1.35935,0.4922 2.10938,1.47656 l 0,-0.21093 c -3e-5,-1.05468 -1.19534,-1.82811 -3.58594,-2.32032 m 5.0625,0 0,0.42188 0.21094,0 0,-0.42188 -0.21094,0 m 4.42969,0 -0.84375,1.26563 0,0.63281 1.05468,-0.84375 0.21094,0 c 0.56247,0.18752 0.84372,0.75001 0.84375,1.6875 l 0,2.74219 0.21094,0 0.42187,-4.64063 -0.21093,-0.63281 -0.21094,0.21094 -1.26563,-0.42188 -0.21093,0 m 14.55468,0 0,0.21094 0.63282,0.21094 0,-0.21094 -0.21094,-0.21094 -0.42188,0 m -19.61718,0.21094 0,0.42188 0.21093,0 0,-0.42188 -0.21093,0 m 0.84375,0.42188 0,0.63281 0.21093,0 0,-0.63281 -0.21093,0 m 12.23437,0 0.21094,0 0.21094,1.05468 -0.21094,0.21094 -0.21094,0 0,-1.26562 m -32.48437,0.42187 0,0.21094 0.42187,0.42187 0,-0.63281 -0.42187,0 m 1.26562,0 0,0.84375 0.42188,0 0,-0.84375 -0.42188,0 m 30.16406,-0.21094 0.21094,0 c 0.30465,2e-5 0.5859,0.63283 0.84375,1.89844 -0.70316,-0.56249 -1.05472,-1.1953 -1.05469,-1.89844 m -32.27343,0.84375 0,0.84375 0.42187,0 0.21094,-0.63281 -0.21094,-0.21094 -0.42187,0 m 28.6875,0.42188 -0.42188,0.42187 -0.21094,-0.21093 c -0.56253,0.4922 -0.84378,1.26563 -0.84375,2.32031 -3e-5,3.96094 2.17966,6.42188 6.53907,7.38281 l 2.53125,0 c 1.07808,0 2.48433,-0.35156 4.21875,-1.05469 l 0,-0.21093 -0.21094,0 c -1.71098,0.70313 -3.32817,1.05469 -4.85156,1.05468 l -0.42188,0 c -3.86722,1e-5 -6.25784,-2.03905 -7.17187,-6.11718 l 0,-1.47657 c -4e-5,-0.60936 0.35153,-1.31248 1.05468,-2.10937 l -0.21093,0 m -31.00782,0 0.21094,0 0.84375,2.32031 c -0.70313,-0.35155 -1.05469,-0.91405 -1.05469,-1.6875 l 0,-0.63281 m 3.79688,0.21094 -0.42188,0.63281 0,0.21094 0.42188,0.42187 0.42187,0 0,-0.84375 -0.42187,-0.42187 m 1.05469,0 0,0.42187 0.42187,0 0,-0.42187 -0.42187,0 m 17.29687,3.58593 -0.21094,0 -0.63281,-0.84375 -0.21094,-0.21093 -0.21093,0 -0.42188,1.47656 1.05469,1.89844 -0.63281,0.63281 c -0.84378,-0.84374 -1.5469,-1.26562 -2.10938,-1.26563 l -0.84375,0 0,0.21094 0.42188,0.63281 0,0.42188 -1.26563,0 -0.84375,0.42187 0,0.21094 0.21094,0.21094 0,0.21094 -0.84375,0.84375 0,0.63281 0.42187,0.42187 c -1e-5,-0.74999 0.91405,-1.24218 2.74219,-1.47656 l 1.89844,0.21094 0.21094,0 c 1.54685,0 2.32028,-0.77343 2.32031,-2.32031 -3e-5,-0.42187 0.1406,-0.63281 0.42187,-0.63282 l 0.21094,0.21094 0,0.84375 -0.21094,0.84375 c 0.0937,0.56251 0.65623,0.84376 1.6875,0.84375 l 4.64063,0 c 0.42184,1e-5 0.63278,0.28126 0.63281,0.84375 l -0.21094,0.63281 0.84375,-0.84375 0,-0.42187 c -3e-5,-0.25781 -0.49222,-0.60937 -1.47656,-1.05469 l 0.21094,-0.63281 -0.63281,-0.42188 -0.42188,0 -1.05469,0.21094 0,-0.84375 -0.42187,0 c -0.53909,1e-5 -1.1719,0.35157 -1.89844,1.05469 l -0.21094,0 -0.42187,-0.42188 0,-0.21093 c 0.0703,-0.28125 0.42185,-0.5625 1.05469,-0.84375 l -0.42188,-1.6875 c 0.28122,1e-5 0.42185,0.28126 0.42188,0.84375 l 0.21093,0 0,-0.84375 -0.21093,-0.63282 -0.84375,0.63282 -0.21094,-0.21094 -0.21094,0 0.21094,-0.63281 c -3e-5,-0.70312 -0.4219,-1.54687 -1.26563,-2.53125 -0.9844,0.91407 -1.47658,2.10938 -1.47656,3.58593 m -8.64844,-3.58593 0.42188,0.42187 0,0.21094 -0.42188,-0.42188 0,-0.21093 m 6.11719,0.42187 -0.21094,0.21094 0,0.21094 0.21094,0 0.63281,-0.21094 0,-0.21094 -0.63281,0 m -17.29687,0.42188 0,0.21093 0.21093,0.21094 0.21094,0 0,-0.21094 -0.21094,-0.21093 -0.21093,0 m 11.60156,-0.21094 0.63281,0.21094 0,0.42187 -0.21094,0 -0.42187,-0.42187 0,-0.21094 m 12.44531,1.47656 0.21094,1.26563 0.21094,0 c -3e-5,-1.12499 0.14059,-1.68749 0.42187,-1.6875 l 0.42188,0 0,0.21093 -0.21094,1.26563 0.21094,0.63281 0.63281,0 -0.42188,-0.63281 c 0.0468,-0.98437 0.18747,-1.47655 0.42188,-1.47656 l -0.21094,-0.63282 -0.84375,0 -0.84375,1.05469 m -21.72656,-0.84375 0,0.42188 0.21094,0 0,-0.42188 -0.21094,0 m 19.19531,-0.21094 0.21094,0 -1.05469,1.6875 -0.21094,0 0,-0.84375 1.05469,-0.84375 m -20.46094,0.84375 0,0.21094 0.63282,0 0,-0.21094 -0.63282,0 m 27.84375,2.10938 0,0.42187 c -3e-5,1.26564 0.63278,2.32032 1.89844,3.16407 l 0,-0.21094 c -0.98441,-0.60937 -1.47659,-1.52343 -1.47656,-2.74219 0.18747,-0.58593 0.53903,-1.0078 1.05469,-1.26562 l 0.63281,0 c 0.28121,1e-5 0.42184,0.21094 0.42187,0.63281 l 0.42188,0 0,-0.84375 -0.42188,-0.42188 -1.05468,0 -0.21094,-0.63281 c -0.84378,0.35157 -1.26566,0.98439 -1.26563,1.89844 m -19.82812,-1.89844 0.21094,0 c 1.26561,1e-5 1.89842,0.42189 1.89843,1.26563 l -2.10937,-1.26563 m 5.90625,0.42188 0,0.42187 c -0.32814,0.84376 -0.60939,1.26564 -0.84375,1.26563 l 0,-0.21094 c 0.18748,-0.98437 0.46873,-1.47655 0.84375,-1.47656 m 0.84375,0.63281 0,0.84375 0.21094,0 c -2e-5,-0.56249 0.1406,-0.84374 0.42187,-0.84375 l 0.21094,0 c 0.42185,1e-5 0.63279,0.28126 0.63281,0.84375 l 0.21094,0 0,-0.42188 c -0.21096,-0.56249 -0.4219,-0.84374 -0.63281,-0.84375 l -0.63282,0 -0.42187,0.42188 m 2.74219,0.21094 0.42187,0 0.42188,1.26562 c -0.56253,-0.21093 -0.84378,-0.42186 -0.84375,-0.63281 l 0,-0.63281 m -8.01563,0.63281 0.21094,0 c 0.56248,0.21095 0.84373,0.42188 0.84375,0.63281 l 0,0.21094 c -0.63283,-0.28124 -0.98439,-0.56249 -1.05469,-0.84375 m 2.10938,0 0.21093,0 0,0.42187 c -1e-5,0.77345 -0.28126,1.33595 -0.84375,1.6875 l 0,-1.47656 0.63282,-0.63281 m -3.79688,2.53125 -5.27344,-0.21094 -2.53125,0 0,0.21094 7.80469,0.21094 c 0.84374,-0.14062 1.26561,-0.35156 1.26563,-0.63282 l -0.21094,0 -1.05469,0.42188 m 26.78906,-0.21094 0,0.21094 2.10938,0 0,-0.21094 -2.10938,0 m 8.01563,0.21094 0,0.21094 0.84375,0 0.21094,-0.21094 0,-0.21094 -1.05469,0.21094 m -45.98438,0 0,0.21094 2.74219,0 0,-0.21094 -2.74219,0 m 21.9375,-0.21094 0,0.21094 -0.63281,0.63281 -0.21094,0 0.84375,-0.84375 m 2.10938,0 0.84375,0.84375 -0.84375,0 0,-0.84375 m 9.07031,0.21094 0,0.21094 3.375,0 0,-0.21094 -3.375,0 m 9.49219,0 0,0.21094 2.74219,0 0,-0.21094 -2.74219,0 m -39.44531,0.84375 0.42187,0.42187 2.10938,0 0,-0.21093 -1.89844,-0.42188 -0.63281,0.21094 m 24.46875,-0.42188 0.84375,0.21094 0,0.21094 -1.26563,0.42187 -1.26562,-0.21093 0,-0.21094 1.6875,-0.42188 m 8.85937,0.84375 0,0.21094 0.42188,0.42188 0,-0.63282 0.21093,-0.21093 0,-0.21094 -0.21093,0 -0.42188,0.42187 m 2.74219,-0.42187 0,0.21094 0.42187,0.84375 c 2.24996,-0.1875 3.37496,-0.53906 3.375,-1.05469 l -0.21093,0 -2.32032,0.63281 -1.05468,-0.63281 -0.21094,0 m 4.21875,0 0,0.21094 0.21094,0.21093 -0.42188,0.42188 0,0.84375 0.21094,0 0.42187,-0.84375 0,-0.42188 -0.42187,-0.42187 m 1.05469,0.21094 0,0.21093 1.47656,1.26563 0.84375,0 0,-0.21094 c -0.8438,1e-5 -1.26567,-0.49218 -1.26563,-1.47656 l -1.05468,0.21094 m -43.24219,0 c 0,0.65625 -0.35157,1.35938 -1.05469,2.10937 l 0.42188,0 c 0.42187,0 0.63281,-0.49218 0.63281,-1.47656 l 0.63281,0 0,0.42187 0.21094,0 0,-1.05468 -0.84375,0 m 7.80469,0 -0.63282,1.05468 0.42188,0 0.63281,-0.63281 -0.42187,-0.42187 m -6.32813,0.63281 0,0.21094 0.21094,0.63281 0.42187,0 -0.21093,-0.21094 0,-0.21094 0.21093,-0.21093 0,-0.21094 -0.63281,0 m 10.75781,0 -0.21093,0.21094 0,0.21093 0.21093,0 0.21094,-0.21093 0,-0.21094 -0.21094,0 m 9.49219,0.42187 0,0.21094 0.42188,0 0.42187,-0.42187 -0.21094,-0.21094 -0.21093,0 -0.42188,0.42187 m -2.95312,0.84375 0,-0.42187 -0.21094,0 -1.47656,0.42187 0,0.21094 1.47656,0 c 1.54685,-0.21093 2.32029,-0.49218 2.32031,-0.84375 l -0.21094,0 -1.89843,0.63281 m 4.64062,-0.63281 0,0.21094 2.32031,0.63281 1.6875,0 0,-0.21094 -1.89843,-0.63281 0.21093,0.21094 0,0.42187 -0.21093,0 -1.89844,-0.63281 -0.21094,0 m -10.125,0.21094 0,0.42187 0.21094,0 0,-0.42187 -0.21094,0 m 17.50781,0.21094 0,0.42187 0.42188,-0.42187 -0.42188,0 m -9.07031,0.21093 0,0.21094 0.63281,0 0,-0.21094 -0.63281,0"
         id="path4022"
         style="font-size:72px;font-variant:normal;font-stretch:normal;fill:#ffffff;fill-opacity:1;font-family:Goudy Initials;-inkscape-font-specification:Goudy Initials" />
    </g>
  </g>
</svg>
