<?xml version="1.0" encoding="UTF-8" standalone="no"?>
<!-- Created with Inkscape (http://www.inkscape.org/) -->

<svg
   xmlns:dc="http://purl.org/dc/elements/1.1/"
   xmlns:cc="http://creativecommons.org/ns#"
   xmlns:rdf="http://www.w3.org/1999/02/22-rdf-syntax-ns#"
   xmlns:svg="http://www.w3.org/2000/svg"
   xmlns="http://www.w3.org/2000/svg"
   xmlns:sodipodi="http://sodipodi.sourceforge.net/DTD/sodipodi-0.dtd"
   xmlns:inkscape="http://www.inkscape.org/namespaces/inkscape"
   width="37.779362"
   height="38.225933"
   id="svg2"
   version="1.1"
   inkscape:version="0.48.5 r10040"
   sodipodi:docname="Anonymous.svg">
  <defs
     id="defs4" />
  <sodipodi:namedview
     id="base"
     pagecolor="#ffffff"
     bordercolor="#666666"
     borderopacity="1.0"
     inkscape:pageopacity="0.0"
     inkscape:pageshadow="2"
     inkscape:zoom="1.4"
     inkscape:cx="213.05581"
     inkscape:cy="-24.125554"
     inkscape:document-units="px"
     inkscape:current-layer="layer1"
     showgrid="false"
     inkscape:window-width="1366"
     inkscape:window-height="733"
     inkscape:window-x="0"
     inkscape:window-y="0"
     inkscape:window-maximized="1"
     fit-margin-top="2"
     fit-margin-left="2"
     fit-margin-right="2"
     fit-margin-bottom="2" />
  <metadata
     id="metadata7">
    <rdf:RDF>
      <cc:Work
         rdf:about="">
        <dc:format>image/svg+xml</dc:format>
        <dc:type
           rdf:resource="http://purl.org/dc/dcmitype/StillImage" />
        <dc:title></dc:title>
      </cc:Work>
    </rdf:RDF>
  </metadata>
  <g
     inkscape:label="Layer 1"
     inkscape:groupmode="layer"
     id="layer1"
     transform="translate(-52.481233,-37.400117)">
    <path
       style="fill:none;stroke:#ffffff;stroke-width:2;stroke-linecap:butt;stroke-linejoin:miter;stroke-miterlimit:4;stroke-opacity:1;stroke-dasharray:none"
       d="m 59.093924,46.250247 c -2.583419,2.393115 -3.926896,9.862735 -3.535534,12.626907 0.246891,1.743783 0.972794,4.47097 2.020305,6.565991 5.289575,10.57915 20.371312,7.722468 25.901567,2.433467 5.869224,-5.613183 4.556241,-19.685694 -1.688544,-24.207766 -1.97109,-1.427336 -3.71841,-3.07445 -9.491844,-3.272933 -4.391652,-0.150979 -10.220044,3.088381 -13.20595,5.854334 z"
       id="path2999"
       inkscape:connector-curvature="0"
       sodipodi:nodetypes="sssssss" />
    <path
       style="fill:none;stroke:#ffffff;stroke-width:1.50000000000000000;stroke-linecap:butt;stroke-linejoin:miter;stroke-miterlimit:4;stroke-opacity:1;stroke-dasharray:none"
       d="m 73.741136,55.21535 c 0,-0.570169 -0.253694,-0.971555 -0.609404,-1.227001 -0.355709,-0.255446 -0.813435,-0.364953 -1.221497,-0.351363 -1.484341,0.04943 -1.383759,1.683749 -0.554948,2.484951 0.82881,0.801201 2.385849,0.769289 2.385849,-0.906587 z"
       id="path3001"
       inkscape:connector-curvature="0"
       sodipodi:nodetypes="sssss" />
    <path
       style="fill:none;stroke:#ffffff;stroke-width:1.50000000000000000;stroke-linecap:butt;stroke-linejoin:miter;stroke-miterlimit:4;stroke-opacity:1;stroke-dasharray:none"
       d="m 80.433397,52.058623 c -0.469145,-0.01897 -1.289122,0.336439 -1.262691,0.883883 0.06314,1.30767 0.863461,1.75963 1.452094,1.767767 0.669894,0.0093 1.181651,-0.320391 1.2129,-1.410506 0.02002,-0.698516 -0.284086,-1.199623 -1.402303,-1.241144 z"
       id="path3003"
       inkscape:connector-curvature="0"
       sodipodi:nodetypes="csssc" />
  </g>
</svg>
