<?xml version="1.0" encoding="UTF-8" standalone="no"?>
<!-- Created with Inkscape (http://www.inkscape.org/) -->

<svg
   xmlns:dc="http://purl.org/dc/elements/1.1/"
   xmlns:cc="http://creativecommons.org/ns#"
   xmlns:rdf="http://www.w3.org/1999/02/22-rdf-syntax-ns#"
   xmlns:svg="http://www.w3.org/2000/svg"
   xmlns="http://www.w3.org/2000/svg"
   version="1.2"
   width="56.734375"
   height="56.734375"
   id="svg2">
  <defs
     id="defs4" />
  <metadata
     id="metadata7">
    <rdf:RDF>
      <cc:Work
         rdf:about="">
        <dc:format>image/svg+xml</dc:format>
        <dc:type
           rdf:resource="http://purl.org/dc/dcmitype/StillImage" />
        <dc:title></dc:title>
      </cc:Work>
    </rdf:RDF>
  </metadata>
  <g
     transform="translate(-152.28125,-146.34738)"
     id="layer1">
    <g
       id="flowRoot2985"
       style="font-size:40px;font-style:normal;font-weight:normal;line-height:125%;letter-spacing:0px;word-spacing:0px;fill:#ffffff;fill-opacity:1;stroke:none;font-family:Sans">
      <path
         d="m 154.28125,148.34738 52.73437,0 0,52.73438 -52.73437,0 0,-52.73438 m 1.05469,1.05469 0,50.625 50.625,0 0,-50.625 -50.625,0 m 0.42187,0.63281 49.57031,0 0,49.57032 -49.57031,0 0,-49.57032 m 14.76563,0.42188 0,0.21094 c 0.84373,5e-5 1.2656,0.14067 1.26562,0.42187 l -0.21094,0.21094 0,0.21094 0.21094,0.84375 -0.21094,0.21093 0.21094,0 0.42188,-0.42187 -0.21094,-0.84375 1.05469,0.21094 0.21093,-0.21094 0,-0.21094 -2.32031,-0.63281 -0.42187,0 m 10.125,0.21094 c -3e-5,0.70317 0.1406,1.05473 0.42187,1.05468 l -0.42187,0.84375 0.21093,0 c 0.28123,5e-5 0.42185,-0.56245 0.42188,-1.6875 l 0.84375,-0.21093 0,-0.21094 -0.84375,0 -0.63281,0.21094 m 5.0625,8.01562 0.21093,-0.21094 0.21094,0 0.21094,0.21094 0.21094,0 c -3e-5,-3.30464 2.10934,-5.83589 6.32812,-7.59375 l 1.47656,-0.21094 c 2.20309,5e-5 4.17184,0.56255 5.90625,1.6875 l 0.21094,0 0,-0.21093 c -4e-5,-0.60933 -1.68754,-1.24214 -5.0625,-1.89844 l -0.21094,0 c -3.14066,0.37505 -5.46097,1.14849 -6.96093,2.32031 -1.68753,2.03911 -2.53128,4.00786 -2.53125,5.90625 m 15.82031,-7.38281 0,0.84375 0.21094,0.21094 0,0.21093 -0.84375,0.21094 0,0.42188 c 2.24995,2.39067 3.37495,5.06254 3.375,8.01562 l 0,1.47656 -0.63282,0.63282 -0.21093,0 0.21093,-1.89844 -0.21093,0 c -0.51568,4e-5 -1.00786,-0.56246 -1.47657,-1.6875 l 0.21094,0 c 0.70308,0.39848 1.05464,0.82035 1.05469,1.26562 l 0.21094,0 0,-0.42187 c -5e-5,-0.79683 -0.77349,-1.57027 -2.32032,-2.32031 l 0,0.21093 0.21094,0.63282 -0.21094,0 c -0.60942,-0.56246 -1.31254,-0.98434 -2.10937,-1.26563 l -0.42188,-0.42187 -0.42187,0.42187 0,0.21094 c -4e-5,1.07817 0.49214,1.99223 1.47656,2.74219 l 0,0.21093 -0.63281,0 c -4e-5,0.79692 0.77339,1.64067 2.32031,2.53125 0.70308,0.96098 1.05464,1.87504 1.05469,2.74219 -5e-5,1.07816 -0.35161,1.78128 -1.05469,2.10938 l -0.21094,-0.21094 0,-0.21094 0.84375,-2.10937 c -0.32817,-0.84372 -0.60942,-1.26559 -0.84375,-1.26563 l 0,0.63281 -0.42187,0 c -5e-5,-0.7734 -0.56255,-1.19527 -1.6875,-1.26562 l 0,0.63281 c -4e-5,0.84379 0.2812,1.26566 0.84375,1.26563 l 0,0.63281 -0.21094,0 -0.84375,-0.42188 0,0.21094 c 0.28121,2.39066 0.63277,3.58597 1.05469,3.58594 l -0.63281,1.05469 0.21093,0 c 0.70308,-1.03122 1.05465,-2.15622 1.05469,-3.375 l -0.21094,0 0.21094,-0.84375 0.21094,0 0.21094,2.10937 -0.21094,0.63281 c 0.56245,-0.0937 0.91402,-0.44528 1.05469,-1.05468 l 0.21093,0 0.21094,0.21093 0.63281,-2.10937 0,-2.10938 -0.63281,-1.6875 0.21094,-0.21093 0.21094,0 c 0.32807,4e-5 0.53901,0.56253 0.63281,1.6875 l 0.42187,0 -0.21093,-0.21094 0,-0.42188 0.63281,0 0,0.42188 c 0.32807,4e-5 0.53901,-0.98434 0.63281,-2.95313 -5e-5,-2.24995 -0.70317,-5.13276 -2.10937,-8.64843 l 0,-0.21094 0.63281,-0.84375 0.84375,0 0,0.42187 -0.84375,1.05469 c -5e-5,0.8438 0.35151,1.26567 1.05469,1.26563 l -0.42188,-0.63282 0,-0.21093 0.63281,-1.6875 c -0.18755,-0.70308 -0.67973,-1.05464 -1.47656,-1.05469 l -0.63281,0 -0.84375,0.84375 m -41.34375,-0.63281 0,0.21093 0.42187,0 0,-0.21093 -0.42187,0 m 2.32031,0 0,0.21093 c 0.67968,5e-5 1.45312,0.56255 2.32031,1.6875 l 0,-0.21093 c -0.63282,-1.12495 -1.26563,-1.68745 -1.89843,-1.6875 l -0.42188,0 m 2.95313,1.26562 0,0.42188 0.21093,0 c -1e-5,-0.51558 0.28124,-1.07808 0.84375,-1.6875 l -0.21093,0 c -0.56251,0.2813 -0.84376,0.70317 -0.84375,1.26562 m 1.89843,-1.26562 0,0.21093 0.42188,0.42188 0.21094,0 -0.21094,0.21094 0,0.63281 0.42187,0.42187 0.63282,0 0.84375,-0.84375 -0.21094,0 -0.63281,0.63282 -0.21094,0 -0.42188,-0.42188 0,-1.26562 -0.84375,0 m 2.32032,0.84375 0.21093,0 0.42188,-0.63282 0,-0.21093 c -0.21095,5e-5 -0.42189,0.2813 -0.63281,0.84375 m 12.65625,-0.84375 0,0.21093 c 0.42184,5e-5 0.63278,0.21099 0.63281,0.63282 l 0.21094,0.21093 0.21093,0 c -0.18752,-0.6562 -0.46877,-1.00776 -0.84375,-1.05468 l -0.21093,0 m 2.53125,0 0,0.63281 0.63281,0.21094 0.21094,-0.21094 0,-0.63281 -0.84375,0 m 1.47656,0.42187 0.63281,0.42188 0.21094,-0.21094 0,-0.21094 -0.42188,-0.42187 -0.42187,0.42187 m 13.92187,0 0.21094,0.63281 0.21094,0 0,-1.05468 -0.42188,0.42187 m -43.24218,3.79688 c 0.28124,0.84379 0.84374,1.26567 1.6875,1.26562 l 2.32031,-0.84375 1.47656,0.84375 c -0.23438,-0.70308 -0.65626,-1.05464 -1.26562,-1.05469 l -2.53125,0.84375 c -0.84376,-0.2812 -1.26563,-0.8437 -1.26563,-1.6875 0,-1.33588 0.84375,-2.39057 2.53125,-3.16406 l 0,-0.21094 -0.21094,0 c -1.82812,0.96099 -2.74219,2.29693 -2.74218,4.00782 m 20.88281,-4.00782 0,1.05469 0.42187,0.42188 0.21094,0 0,-0.63282 0.84375,0.42188 c 0.56248,-0.21089 0.84373,-0.42183 0.84375,-0.63281 l 0,-0.21094 -0.21094,0 0,0.42187 -0.84375,0 c -0.28127,5e-5 -0.42189,-0.21088 -0.42187,-0.63281 l -0.21094,-0.21094 -0.63281,0 m -21.51563,0.21094 0,0.21094 c 0,0.2813 0.21094,0.42192 0.63282,0.42187 l 0.63281,0 0,-0.21093 c -0.5625,5e-5 -0.84375,-0.14058 -0.84375,-0.42188 l -0.42188,0 m 27.63282,0 0,0.63281 0.42187,0 0,-0.63281 -0.42187,0 m -25.3125,2.10938 0,0.21093 0.42187,0.42188 0.42188,0 -0.42188,-0.63281 0,-0.42188 c 0.5625,-0.8437 1.125,-1.26557 1.6875,-1.26562 l 0,-0.21094 -0.21094,0 c -1.26563,0.2813 -1.89844,0.91411 -1.89843,1.89844 m 32.27343,0.63281 0.63282,0.21094 -0.42188,1.6875 1.05469,1.05468 1.26562,0 0,-0.42187 -0.21093,-0.21094 0,-0.21094 1.26562,0 0,-1.05468 -0.84375,0.42187 c -0.98441,5e-5 -1.4766,-0.49214 -1.47656,-1.47656 0.32809,-1.4062 1.17184,-2.10933 2.53125,-2.10938 l 0.63281,0 2.32031,0.21094 0.21094,0 0,-0.21094 -2.95312,-0.42187 c -2.67192,0.63286 -4.00785,1.47661 -4.00782,2.53125 m -27.63281,-2.10938 0,0.21094 0.21094,0.21094 0.21094,0 0,-0.21094 -0.21094,-0.21094 -0.21094,0 m 10.75781,0 -0.21093,0.21094 0,0.42188 0.42187,0 -0.21094,-0.21094 0,-0.21094 0.21094,-0.21094 -0.21094,0 m 0.63282,0 0,0.21094 0.42187,0 0,-0.21094 -0.42187,0 m -1.89844,0.21094 0,0.42188 0.42187,0 0,-0.42188 -0.42187,0 m 11.8125,0.42188 0,0.21093 0.63281,0 0,-0.63281 -0.21094,0 -0.42187,0.42188 m -1.05469,-0.21094 -0.21094,0.21094 0,0.42187 0.63282,0 0,-0.21094 -0.42188,-0.42187 m 2.53125,0 0,0.21094 1.89844,0 0,-0.21094 -1.89844,0 m 11.8125,0.21094 -0.21094,0.21093 0,0.21094 0.42188,0.42188 0,0.42187 -0.21094,-0.21094 -0.84375,0 c -0.77348,5e-5 -1.40629,0.42193 -1.89844,1.26563 l 0.21094,0.21094 0.42188,0 0.21093,-0.21094 0.21094,0 0,0.21094 c -0.42191,0.51567 -0.63285,1.00785 -0.63281,1.47656 -4e-5,0.84379 0.42183,1.26567 1.26562,1.26562 l 0.63282,0 -0.84375,-1.05468 0.42187,-1.26563 -0.21094,0 -0.21093,0.21094 0,-0.21094 c -4e-5,-0.56245 0.77339,-1.05464 2.32031,-1.47656 l 0.63281,0.21094 0,0.21093 -1.47656,0.42188 0,0.21094 c 2.64839,4e-5 4.4062,1.4766 5.27344,4.42968 l 0.21093,0 0,-0.63281 c -4e-5,-0.77339 -0.70317,-1.89839 -2.10937,-3.375 l 0.21094,-0.21094 c -0.32817,5e-5 -0.96099,-0.8437 -1.89844,-2.53125 l -1.89844,-0.21093 m -7.59375,0.21093 -0.84375,1.05469 0,0.84375 0.42188,0 0,-0.42187 -0.21094,-0.21094 0,-0.21094 0.84375,-1.05469 -0.21094,0 m -4.85156,0.21094 0,0.21094 0.42187,0.42187 0.42188,0 0,-0.42187 -0.84375,-0.21094 m -25.10156,0.21094 0,0.63281 c 3.30468,5e-5 5.41405,1.47661 6.32812,4.42969 l 0.21094,1.6875 0,0.21094 c 0.77342,4e-5 1.96874,0.49222 3.58594,1.47656 l 0,-1.6875 c -2e-5,-3.37496 0.70311,-5.06245 2.10937,-5.0625 l 3.58594,-0.42188 c 3.04685,5e-5 6.1406,0.77349 9.28125,2.32032 l 0.84375,-2.10938 0,-0.21094 c -1.59378,-0.70307 -5.60159,-1.05464 -12.02344,-1.05468 l -6.32812,0.21093 -7.59375,-0.42187 m 2.10937,1.47656 0,0.21094 c 0.58593,5e-5 1.64062,0.70317 3.16406,2.10937 l 0,-0.21093 -0.42187,-0.42188 0.21094,-0.21094 -0.21094,0 -0.21094,0.21094 c -1e-5,-0.51558 -0.77344,-1.07808 -2.32031,-1.6875 l -0.21094,0 m 8.85938,1.89844 0,0.42187 0.21093,0 c -1e-5,-0.86714 1.12499,-1.42964 3.375,-1.6875 l 1.89844,0 c 1.61717,5e-5 3.44529,0.2813 5.48438,0.84375 l 0.21093,0 0,-0.21093 c -2.20315,-0.56246 -4.17189,-0.84371 -5.90625,-0.84375 l -1.05468,0 c -2.81252,4e-5 -4.21877,0.49223 -4.21875,1.47656 m 17.08593,-0.84375 c -0.56253,1.10161 -0.84378,2.01567 -0.84375,2.74219 l 1.6875,3.375 c 0.28122,0.5391 0.42184,1.31253 0.42188,2.32031 -4e-5,3.84378 -1.89847,6.44534 -5.69531,7.80469 -2.06253,0.4219 -4.10159,0.63284 -6.11719,0.63281 l -7.38281,0 0,-8.22656 c -2e-5,-1.07809 -1.12502,-1.92184 -3.375,-2.53125 l 0,22.35937 c -2e-5,4.85158 -0.63283,7.87501 -1.89844,9.07031 l -3.16406,1.26563 0,0.21094 0.42187,0.42187 0.21094,0 5.69531,-0.42187 6.75,0.21093 c -2e-5,-1.12499 -0.42189,-1.68749 -1.26562,-1.6875 -2.25002,1e-5 -3.37502,-2.10936 -3.375,-6.32812 l 0,-12.86719 6.53906,0 c 4.96872,3e-5 8.76559,0.91409 11.39062,2.74219 l 2.95313,-0.42188 1.89844,0 c -1.75785,-1.80466 -3.7266,-2.85934 -5.90625,-3.16406 -0.56254,3e-5 -0.84378,-0.21091 -0.84375,-0.63281 4.21871,-2.34372 6.32808,-5.36715 6.32812,-9.07031 l 0,-1.05469 c -4e-5,-3.14058 -1.4766,-5.46089 -4.42969,-6.96094 l 0,0.21094 m -5.69531,0.42187 0,0.21094 0.42188,0 0,-0.21094 -0.42188,0 m -5.48437,0.42188 0,1.26562 0.42187,0.84375 0.21094,0 0,-0.21093 -0.42188,-1.26563 0.84375,0.63281 0,-0.42187 -0.84375,-0.84375 -0.21093,0 m -18.35157,0.42187 0,0.21094 c 0.44531,5e-5 0.79687,0.56255 1.05469,1.6875 l 0.42188,0 c 0.77343,4e-5 1.40624,-0.42183 1.89843,-1.26562 l 0,-0.21094 -0.21093,0 c -1e-5,0.56254 -0.4922,0.98442 -1.47657,1.26562 -0.42188,5e-5 -0.77344,-0.63276 -1.05468,-1.89843 l -0.63282,0.21093 m 20.88282,1.47657 -0.84375,-0.42188 -0.42188,1.05469 0,0.21094 0.21094,0 0,-0.42188 1.26562,0.21094 -0.21093,0.21094 0,0.42187 0.21093,0 c -2e-5,-0.42183 0.1406,-0.63277 0.42188,-0.63281 l 0.21094,0.21094 0.21093,0 c 0.3281,-0.84371 0.60935,-1.26558 0.84375,-1.26563 l 0.42188,0 -0.21094,1.05469 0,0.42187 0.63281,0 0,0.42188 -0.42187,0.42187 0.21094,1.26563 c 0.98434,-0.60934 1.47653,-1.5234 1.47656,-2.74219 l 0,-0.42187 c -0.4219,4e-5 -0.63284,0.21098 -0.63281,0.63281 l -0.42188,0 0,-0.21094 0.21094,-1.26562 c -0.14065,-0.56246 -0.4219,-0.84371 -0.84375,-0.84375 -1.5469,0.51567 -2.32034,1.07817 -2.32031,1.6875 m 11.17968,-1.6875 0,0.21093 1.6875,1.89844 0,-0.21094 c -3e-5,-0.35152 -0.56253,-0.98433 -1.6875,-1.89843 m -27.84375,0.42187 0,0.42188 c 0.5625,4e-5 0.84375,0.14067 0.84375,0.42187 0,0.30473 -0.63282,1.14848 -1.89843,2.53125 l 0.21093,0 c 1.26562,-1.21871 1.89843,-2.13277 1.89844,-2.74219 l -0.63281,-0.63281 -0.42188,0 m 0.63282,2.32031 0.21093,0 c 0.84374,-0.8437 1.26562,-1.54683 1.26563,-2.10937 l -1.47656,2.10937 m 7.38281,-2.10937 -0.21094,2.95312 0,1.6875 0.21094,0 0.21094,-3.58593 0,-1.05469 -0.21094,0 m -13.92188,0.21094 -0.84375,1.05468 0,0.84375 1.05469,1.47657 0.21094,0 0,-0.63282 -1.05469,-0.84375 0,-0.42187 0.63281,-0.63281 c 0.89063,4e-5 1.38281,0.63285 1.47657,1.89843 l -1.89844,4.21875 -0.21094,1.47657 0,0.21093 0.21094,0 0,-0.42187 1.47656,1.26562 0.63281,-0.21093 -0.63281,0.84375 0.42188,0 c 0.25781,-0.0234 0.89062,-0.65622 1.89843,-1.89844 l 2.10938,-1.05469 c 0.70312,0.0938 1.05468,0.51566 1.05469,1.26563 l -0.42188,0.42187 0.63281,0 0.42188,-0.42187 0,-0.84375 c -1e-5,-0.70309 -0.84376,-1.05465 -2.53125,-1.05469 l 0.21094,-0.21094 0,-0.42187 -1.26563,0 c -0.25782,3e-5 -1.10157,1.12503 -2.53125,3.375 l -0.63281,-0.63282 0,-0.42187 c 0.44531,3e-5 0.9375,-0.42184 1.47656,-1.26563 -0.42188,4e-5 -0.63281,-0.14058 -0.63281,-0.42187 0.375,-1.05465 0.72656,-1.61715 1.05469,-1.6875 l 0,0.42187 -0.42188,1.47657 c 0.375,3e-5 0.65625,-0.56247 0.84375,-1.6875 l 0,-1.05469 c -0.28125,4e-5 -0.42188,0.21098 -0.42187,0.63281 l -0.21094,0 -0.42188,-0.42187 c 0.42187,-0.51559 0.63281,-1.00778 0.63282,-1.47657 l 0,-0.21093 c -1e-5,-1.68746 -0.77344,-2.53121 -2.32032,-2.53125 m 18.14063,0.42187 0,0.63281 -0.84375,0 -2.32031,0.42188 0,1.05469 c -2e-5,0.63285 0.42185,1.26566 1.26562,1.89843 l -1.05469,0.21094 0,0.42188 2.10938,0.63281 1.05469,0 -0.21094,-0.21094 0,-0.21094 -0.21094,0.21094 -0.21094,0 -0.42187,-0.42187 0.21094,-0.21094 0.63281,0 0.21094,0.21094 0.21093,0 0,-0.42188 c -0.56252,4e-5 -0.84377,-0.14058 -0.84375,-0.42187 l 0.21094,0 0.84375,0.21093 0.21094,0 0,-0.21093 -2.32031,-1.05469 0,-0.21094 2.74218,0 -0.42187,-0.63281 0.42187,0 0.63282,0.42187 0.21093,0 -0.63281,-0.84375 0,-0.21093 0.63281,0 c -2e-5,0.42191 0.14061,0.63285 0.42188,0.63281 l 0,-0.21094 c -0.37502,-0.93746 -0.7969,-1.49996 -1.26563,-1.6875 l -1.26562,0 m 21.72656,0.84375 0,1.05469 -0.21094,0 -2.32031,-1.26563 -0.21094,0.21094 0,1.26563 c -4e-5,0.98441 0.56246,1.4766 1.6875,1.47656 l -0.42187,-0.63281 0,-0.21094 0.42187,0 0,0.42187 0.21094,0 c -4e-5,-0.56246 0.14059,-0.8437 0.42188,-0.84375 l 0.21093,0 -0.42187,1.89844 -0.21094,0 0,-0.42187 -0.21094,0 0,0.42187 -0.21093,0 -0.21094,-0.21094 -0.21094,0 -0.63281,0.21094 c -4e-5,0.51567 0.35152,1.21879 1.05469,2.10938 l 0,0.63281 -0.84375,1.05469 c 0.84371,-0.28122 1.26558,-0.84372 1.26562,-1.6875 l -0.21094,-1.05469 0.21094,0 0.42188,0.42187 0,0.42188 -0.42188,1.26562 0.21094,0 0.42187,-1.26562 0,-1.05469 -0.21093,-1.47656 0.21093,-0.21094 0.21094,0 0.42188,2.32031 -0.21094,0.21094 0,0.42188 0.21094,0 0.21093,-1.05469 0,-0.21094 -0.21093,-1.47656 0.42187,0 0,0.84375 0.42188,0 0,-0.42188 -0.84375,-3.58593 -0.42188,0.42187 m -31.42969,0 -0.42187,1.05469 0.21094,0 0.63281,-0.21094 0,-0.42187 -0.42188,-0.42188 m 18.5625,0.84375 0,0.42188 0.63282,-0.42188 0.21093,0 0,0.21094 c -3e-5,0.28129 -0.21096,0.42192 -0.63281,0.42187 l -0.21094,0.21094 0,0.21094 0.21094,0 c 0.84372,-0.32808 1.2656,-0.82027 1.26563,-1.47656 l -0.21094,0 -1.26563,0.42187 m -23.41406,-0.21094 0.21094,1.05469 -0.42188,0.63281 0,0.21094 c 0.5625,-0.23433 0.84375,-0.72652 0.84375,-1.47656 l 0,-0.21094 -0.63281,-0.21094 m 20.25,0 -0.21094,1.05469 0,0.21094 0.42188,-0.42188 0,-0.84375 -0.21094,0 m 5.0625,0 -0.42187,0.84375 0,0.21094 0.42187,0.42188 0.42188,0 -0.21094,-1.47657 -0.21094,0 m 0.63281,0 0,0.63282 0.63282,1.05468 0.63281,0 0,-0.21093 -1.26563,-1.47657 m 6.11719,0 0,0.21094 0.63281,2.95313 c -3e-5,4.47659 -2.03909,7.71097 -6.11718,9.70312 l -0.21094,0 0,0.42188 0.21094,0 c 4.21871,-2.0156 6.32808,-5.17966 6.32812,-9.49219 l 0,-1.26563 -0.63281,-2.53125 -0.21094,0 m -29.32031,0.21094 -0.42188,0.63281 0.21094,0 0.42188,-0.63281 -0.21094,0 m 18.14062,0 0,0.42188 0.21094,0 0,-0.42188 -0.21094,0 m -3.375,1.05469 -0.63281,-0.21094 0,0.21094 -0.21094,0.21094 0,0.21093 c 0.28123,0.63286 0.56248,0.98442 0.84375,1.05469 l 0.42188,0 0,-0.63281 0.21094,0 c 0.0703,0.56254 0.28122,0.84379 0.63281,0.84375 l 0,-0.21094 -0.42188,-0.84375 c 0.42185,4e-5 0.63279,-0.14058 0.63282,-0.42187 l 0.21093,0 0.21094,0.21093 0.21094,0 0,-0.21093 -0.63281,-0.84375 -0.63282,0 -0.84375,0.63281 m 21.30469,-0.84375 0.63281,0.21094 0,0.21093 -0.42187,0.42188 -0.21094,-0.84375 m 1.47656,0.21094 0.42188,0.42187 c -0.0938,0.37504 -0.44536,0.7266 -1.05469,1.05469 l 0,-0.42188 -0.21094,-0.21093 0.84375,-0.84375 m -40.28906,2.10937 0,0.42188 c 1.99218,-1.12496 3.53905,-1.68746 4.64063,-1.6875 2.46092,4e-5 4.57029,1.12504 6.32812,3.375 L 172,163.32395 c -1.92189,-1.96871 -4.17189,-2.95309 -6.75,-2.95313 l -0.42188,0 c -1.07813,4e-5 -2.41407,0.56254 -4.00781,1.6875 m 14.97656,-1.26562 c -2e-5,0.23441 0.42186,0.51566 1.26563,0.84375 l 0,-0.63282 -1.05469,-0.21093 -0.21094,0 m 7.17188,0.84375 0,0.21093 c 0.42185,4e-5 0.63278,0.21098 0.63281,0.63282 0.37497,0.56253 1.21872,0.84378 2.53125,0.84375 -0.49222,0.70316 -1.33597,1.05472 -2.53125,1.05468 l 0.21094,0.21094 0,0.63281 -0.42188,0.63282 1.6875,0.21093 c 0.84372,-0.14059 1.2656,-0.35152 1.26563,-0.63281 l 0,-0.42187 -0.42188,0 0,-0.63282 0.21094,0.21094 0.63281,0 c 0.77341,4e-5 1.33591,-0.35152 1.6875,-1.05469 l 0,-0.42187 c -0.65628,4e-5 -1.21878,-0.35152 -1.6875,-1.05469 l -0.21093,-0.21094 -0.21094,0 -0.84375,0.21094 0.42187,-0.84375 -0.84375,-0.21094 -2.10937,0.63282 m 3.58594,-0.63282 0,0.63282 0.21093,0 0,-0.63282 -0.21093,0 m -5.69532,1.05469 0.21094,-0.21094 0.42188,0 0,0.21094 -0.42188,0.63281 0.21094,0 0.42187,-0.42187 0.21094,0 -0.21094,0.21094 0,0.42187 0.21094,-0.21094 0.21094,0 0.21094,0.21094 0,0.21094 -0.42188,0 0,0.21094 0.63281,0 0.63282,-1.05469 c -0.98441,4e-5 -1.47659,-0.35152 -1.47657,-1.05469 -0.46877,0.14067 -0.75002,0.42192 -0.84375,0.84375 m 21.09375,-1.05469 0,0.42188 -0.21093,0.21094 0,0.21093 0.21093,0 0.21094,-0.21093 0,0.63281 -0.21094,-0.21094 -0.21093,0.21094 -0.42188,0 -0.21094,-1.05469 0.84375,-0.21094 m -38.39062,0.63282 0,0.21093 c 1.68749,4e-5 2.53124,0.63286 2.53125,1.89844 l -1.26563,0.42188 0,0.21093 1.05469,0 0.63281,-1.47656 c -1e-5,-0.74996 -0.70313,-1.17183 -2.10937,-1.26562 l -0.84375,0 m 12.65625,1.26562 0.21094,0.21094 0,0.21094 -0.42188,1.47656 1.47656,0 0,-0.21094 -0.42187,0 c -2e-5,-0.28121 0.21091,-0.42184 0.63281,-0.42187 -2e-5,-0.28122 -0.21096,-0.42184 -0.63281,-0.42188 l 0,-0.21094 0.42187,0 0,-0.21093 -0.42187,0 c -2e-5,-0.28122 0.28123,-0.42184 0.84375,-0.42188 l 0,-0.42187 -0.42188,0 -1.26562,0.42187 m 2.32031,0.42188 0.42188,0 0,-0.42188 -0.42188,0.42188 m 4.85156,0 0,0.42187 1.26563,0 0,-0.21094 -1.26563,-0.21093 m -11.17968,0.84375 0,0.21093 1.05468,0 -0.21093,-0.21093 0,-0.21094 0.42187,-0.42188 -0.42187,0 c -0.56252,0.21098 -0.84377,0.42192 -0.84375,0.63282 m 7.38281,-0.63282 0,0.21094 0.42187,0 0,-0.21094 -0.42187,0 m -6.11719,0.42188 0,0.21094 0.42188,0 0,-0.21094 -0.42188,0 m 5.0625,0 0,0.42187 0.42188,0 0,-0.42187 -0.42188,0 m 1.89844,0 0,0.21094 0.42187,0 0,-0.21094 -0.42187,0 m 0.84375,0.21094 0,0.42187 0.63281,0 0,0.42188 -1.26562,0 0,0.21093 c 0.28122,0.63285 0.56247,0.98441 0.84375,1.05469 l 0.84375,0 c -3e-5,-0.70309 0.28122,-1.05465 0.84375,-1.05469 l 0,-0.42187 c -0.28128,-0.56246 -0.70316,-0.84371 -1.26563,-0.84375 l -0.63281,0.21094 m -10.33594,0 0,4.42968 0.21094,3.16407 0.21094,0 0,-6.53907 -0.21094,-1.05468 -0.21094,0 m 1.89844,1.89843 0.21094,0 1.05468,-0.21093 -0.42187,0.84375 0.21094,1.47656 -0.42188,1.6875 1.26563,0 c 0.28123,3e-5 0.56248,-0.42184 0.84375,-1.26563 l 0.63281,0 -0.21094,1.05469 0,0.21094 c 0.86717,3e-5 1.57029,-0.56247 2.10938,-1.6875 l -0.21094,0.21094 -0.21094,0 -0.63281,-0.42188 0.21094,-0.21094 0,-0.42187 -0.21094,0 0,0.42187 -0.63281,0 0,-0.21093 0.21093,-0.21094 0,-0.21094 -0.21093,0 -1.05469,1.05469 -0.42188,0 0,-0.21094 1.05469,-2.10937 -0.21094,0 -0.42187,0.42187 -0.21094,0 -0.42187,-0.42187 0,-0.42188 c 0.42185,4e-5 0.63279,-0.14059 0.63281,-0.42187 l 0,-0.21094 -0.63281,0.42187 -0.21094,0 0,-0.63281 0.42187,0 0,-0.21094 -0.21093,0 c -0.63283,4e-5 -1.26565,0.56254 -1.89844,1.6875 m 6.75,-1.6875 0.42187,0.42188 0,-0.42188 -0.42187,0 m 8.85937,0 -0.21093,0.21094 0,0.21094 0.63281,0.42187 0.21094,-0.21093 0,-0.21094 -0.63282,-0.42188 M 172,164.58957 l 0.21094,1.47656 0.21093,0 0.21094,-1.05468 -0.42187,-0.42188 -0.21094,0 m 22.14844,1.05469 0,0.21094 c 0.63277,-0.28122 0.98433,-0.56247 1.05468,-0.84375 l 0,-0.21094 c -0.63285,0.28129 -0.98441,0.56254 -1.05468,0.84375 m -6.75,-0.42188 0,0.21094 0.42187,1.26563 c -0.14066,0.56253 -0.42191,0.84378 -0.84375,0.84375 l 0,0.42187 0.63281,0 0.63282,-0.63281 0,-0.63281 c -4e-5,-0.74997 -0.28129,-1.24216 -0.84375,-1.47657 m -9.70313,0.84375 0,0.21094 c -2e-5,0.28129 0.42185,0.42191 1.26563,0.42188 l 0.63281,0.63281 c 0.3281,3e-5 0.53904,-0.35153 0.63281,-1.05469 l -0.21094,0 c -0.28127,4e-5 -0.4219,-0.2109 -0.42187,-0.63281 l -0.21094,0 0,0.42187 -0.21094,0 0,-0.42187 -0.21093,0 -0.21094,0.21094 -0.21094,-0.21094 -0.42187,0 -0.42188,0.42187 m -1.6875,0.84375 1.05469,-0.42187 0,-0.63281 c -0.37502,0.0938 -0.72658,0.44534 -1.05469,1.05468 m 17.92969,-0.42187 0,0.21094 0.63281,0 1.47656,-0.21094 1.47657,0.63281 c -5e-5,-0.42184 0.21089,-0.63278 0.63281,-0.63281 l -0.63281,-0.63281 -0.63282,0 -2.95312,0.63281 m -21.51563,-0.21094 0,0.42188 0.21094,0.63281 -0.63281,2.74219 0,0.84375 c 0.39842,3e-5 0.74998,-1.33591 1.05469,-4.00782 l -0.63282,-0.63281 m 10.33594,0 c -3e-5,0.42191 -0.35159,0.63285 -1.05469,0.63281 l 1.05469,2.10938 0,0.21094 -0.63281,0 -1.6875,-1.47657 0.42187,1.05469 -1.05468,-1.05469 0,1.05469 -0.42188,0 -0.42187,-1.47656 -0.21094,0 0,0.63281 c 0.28123,1.2891 0.63279,1.99222 1.05469,2.10938 l 0.21093,0 0.21094,-1.05469 0.21094,0 c 0.39841,0.42191 1.17185,0.84378 2.32031,1.26562 -3e-5,0.42191 0.1406,0.63285 0.42188,0.63282 l 0.21093,-1.05469 0,-0.42188 -0.21093,-1.05468 0.21093,0 0.63282,0.21093 0,-0.21093 c -3e-5,-0.91403 -0.42191,-1.61716 -1.26563,-2.10938 m 20.25,0 0,0.21094 0.21094,0.21094 0.21094,0 0,-0.21094 -0.21094,-0.21094 -0.21094,0 m -22.35937,0.21094 0,0.42187 0.42187,1.05469 0.42188,0 c -3e-5,-0.74996 -0.28128,-1.24215 -0.84375,-1.47656 m 3.58593,0 0,0.21094 1.05469,0.42187 0,0.42188 -0.21094,0 -0.63281,-0.42188 -0.21094,0 c 0.23435,0.56254 0.72654,0.84378 1.47657,0.84375 l 0.21093,0 0,-0.21094 c -0.39846,-0.84371 -0.89065,-1.26559 -1.47656,-1.26562 l -0.21094,0 m 16.03125,-0.21094 0.21094,0 0,0.42188 -0.21094,0 0,-0.42188 m -38.39062,0.42188 0,0.63281 -1.05469,3.58594 0.42188,1.05468 -0.63282,0 0,0.21094 c 0.51562,1.12503 1.5,1.68753 2.95313,1.6875 l 0.84375,-0.21094 0.21094,0.21094 0.42187,0 0,-0.21094 c -0.56251,3e-5 -1.05469,-0.35153 -1.47656,-1.05468 l 0.21094,-0.21094 0.21093,0 c 0.1875,0.56253 0.82031,0.84378 1.89844,0.84375 l 0.42188,0 0,-0.21094 c -0.82033,3e-5 -1.31251,-0.49216 -1.47657,-1.47656 l 0.21094,-0.21094 0.42188,0 c -1e-5,0.84378 0.21092,1.26566 0.63281,1.26563 l 0.21094,0 0,-1.26563 -0.21094,-0.21094 0.21094,-0.21093 0,-0.42188 -0.63282,0 0.42188,-1.89844 -0.63281,-0.42187 -0.42188,1.26562 0,0.63282 -0.84375,0 0,0.21093 0.21094,1.05469 -0.21094,0 -0.42187,-0.42187 0,-1.05469 0.21093,-0.84375 -0.21093,-0.63281 -1.05469,0.84375 -0.21094,-0.21094 0.42188,-1.26563 0,-0.42187 c -1e-5,-0.32809 -0.35157,-0.53903 -1.05469,-0.63281 m -4.85156,0.21093 0.63281,0.63282 0.21094,0 -0.63282,-0.63282 -0.21093,0 m 40.71093,0.21094 c -4e-5,0.98441 -0.21098,1.4766 -0.63281,1.47656 l -0.63281,-0.42187 -0.21094,0 0,0.42187 0.63281,0.63282 0.21094,0 c 0.84371,3e-5 1.26558,-0.42185 1.26563,-1.26563 l 0,-0.42187 -0.42188,-0.42188 -0.21094,0 m -41.13281,0.21094 0,0.42187 0.63281,0.63282 0.84375,0 -1.47656,-1.05469 m 38.17969,0.21094 0,0.63281 0.21094,0.21094 c -1.68754,3e-5 -2.53129,0.35159 -2.53125,1.05468 l 0,0.63282 0.42187,0.42187 0.21094,0 -0.21094,-0.21094 0,-0.42187 0.63281,-0.63281 0.63282,0 0.84375,0.63281 -0.42188,1.47656 -0.21094,-0.21094 -0.21093,0 0,0.21094 0.21093,0.21094 -3.79687,1.89844 0.21094,0 c 3.51558,-1.12497 5.27339,-2.3906 5.27343,-3.79688 l -1.05468,-2.10937 -0.21094,0 m 5.69531,3.375 0.21094,0 3.16406,-2.32032 0.21094,0.21094 0.42187,0 0,-0.84375 -0.21093,0 c -0.72661,3e-5 -1.99224,0.98441 -3.79688,2.95313 m -42.82031,0 0,0.42187 0.21094,0 c -1e-5,-1.03122 0.42187,-1.73434 1.26562,-2.10937 0.5625,3e-5 0.84375,0.35159 0.84375,1.05468 l 0.21094,0 0.21094,-1.05468 -0.63282,-0.63282 -0.21093,0 c -1.26563,4e-5 -1.89844,0.77347 -1.89844,2.32032 m -1.05469,-2.10938 -0.21094,2.10938 c 0,2.78909 1.05469,5.25002 3.16407,7.38281 l 2.74218,1.47656 0,-0.63281 c -1.71094,2e-5 -3.25781,-1.54685 -4.64062,-4.64063 -0.42188,-0.91403 -0.63282,-2.03903 -0.63281,-3.375 l 0,-0.63281 0.21093,-1.47656 -0.21093,-0.21094 -0.42188,0 m 21.30469,0.42188 -0.21094,0.21093 0,0.63282 0.21094,0 0.21094,-0.84375 -0.21094,0 m 0.42187,0.21093 c -2e-5,0.42191 -0.21096,0.77347 -0.63281,1.05469 l -0.21094,0.63281 1.05469,-1.26562 0,-0.42188 -0.21094,0 m 5.69532,0 0,1.47657 0.42187,0 0,-0.42188 -0.21094,-1.05469 -0.21093,0 m -11.17969,0.42188 0,1.47656 0.63281,0.21094 0.42188,0 0,-0.21094 c -0.56252,3e-5 -0.84377,-0.42184 -0.84375,-1.26562 l 0,-0.21094 -0.21094,0 m -10.75781,0 0.63281,0.42187 0.21094,-0.21093 0.42187,0.42187 -1.05469,1.05469 -0.21093,-1.6875 m 33.53906,2.32031 0.42187,0 c 1.26559,-0.60934 2.03902,-1.17184 2.32032,-1.6875 l -2.74219,1.6875 m 5.90625,-0.21094 0.42187,0 c -4e-5,-0.70309 0.49214,-1.05465 1.47657,-1.05468 l 0.21093,0 c 0.28121,0.0703 0.56246,0.4219 0.84375,1.05468 l -0.84375,1.89844 0.21094,0.21094 0.21094,0 c 0.42182,-0.72654 0.63276,-1.42966 0.63281,-2.10938 -5e-5,-0.74997 -0.2813,-1.24215 -0.84375,-1.47656 l -0.42187,0 c -0.8438,3e-5 -1.47661,0.49222 -1.89844,1.47656 m -1.47656,-1.05468 -0.21094,0.21093 0,0.21094 0.21094,0 0.21093,-0.21094 0,-0.21093 -0.21093,0 m -36.91407,0 0.42188,0.42187 0,0.21094 -0.21094,0.21094 0.21094,0.21093 0,0.21094 -0.42188,0.42188 -0.21093,0 0.21093,-1.6875 m 36.28125,0.42187 -0.21093,0.21094 0,0.21094 0.21093,0 0.21094,-0.21094 0,-0.21094 -0.21094,0 m -1.6875,0.21094 c -4e-5,0.28128 -1.05472,0.77347 -3.16406,1.47656 l 0,0.21094 0.42188,0 c 1.82808,-0.74997 2.81245,-1.31247 2.95312,-1.6875 l -0.21094,0 m 1.05469,0.21094 -0.21094,0.21093 0,0.21094 0.21094,0 0.21094,-0.21094 0,-0.21093 -0.21094,0 m 3.79688,0.21093 0.21093,1.05469 c -0.14067,0.56253 -0.49223,0.84378 -1.05468,0.84375 l 0,0.42188 c 0.98432,-0.28123 1.47651,-0.84373 1.47656,-1.6875 l 0,-0.21094 -0.42188,-0.42188 -0.21093,0 m -11.17969,1.89844 0.21094,0 c 0.70308,3e-5 1.82808,-0.56247 3.375,-1.6875 l -3.58594,1.6875 m -33.11719,0 0,0.21094 0.42188,1.47656 0.21093,0 -0.21093,-1.05469 0,-0.42187 c 0.0937,-0.84372 0.30468,-1.2656 0.63281,-1.26563 l 0.84375,0 0,0.63282 0.21094,0 0,-0.63282 -0.63282,-0.42187 -0.63281,0 c -0.5625,0.2344 -0.84375,0.72659 -0.84375,1.47656 m 39.86719,0 c -4e-5,0.37503 0.56246,0.65628 1.6875,0.84375 l 0.21094,0 0,-0.42187 c -0.98442,2e-5 -1.47661,-0.28123 -1.47657,-0.84375 l 0.84375,-0.63282 1.05469,0 1.47656,0.42188 0,-0.21094 c -4e-5,-0.42184 -0.70317,-0.63278 -2.10937,-0.63281 -1.12504,3e-5 -1.68754,0.49222 -1.6875,1.47656 m 2.53125,0 0,1.26563 0.21094,0 0.21093,-1.6875 -0.42187,0.42187 m -35.4375,-0.21094 0,0.42188 0.21094,0 0,-0.42188 -0.21094,0 m 0.42187,0 0.21094,0.21094 0,0.21094 -0.21094,0.21094 0,0.21093 0.63282,-0.21093 0,-0.63282 -0.63282,0 m 28.05469,0 0,0.21094 c 0.74996,3e-5 1.87496,0.28128 3.375,0.84375 -0.49223,-0.7031 -1.26566,-1.05466 -2.32031,-1.05469 l -1.05469,0 m -1.47656,0.84375 1.05469,-0.42187 0,-0.21094 -0.21094,0 -0.84375,0.63281 m -31.42969,-0.21093 c 0,0.28127 0.21093,0.4219 0.63281,0.42187 l 0.21094,0.21094 0,0.21094 c -0.84375,0.21096 -1.26563,0.70315 -1.26562,1.47656 l 0.21093,0 c 0,-0.44529 1.75781,-0.79685 5.27344,-1.05469 l 0.21094,-0.21094 0.21094,0 0,-0.42187 -0.21094,0 -1.47656,0.21094 0.21093,-0.21094 0,-0.42188 -3.375,-0.42187 -0.63281,0.21094 m 42.1875,-0.21094 -0.21094,0.21094 c 0.70308,0.93752 1.05464,1.78127 1.05469,2.53125 -5e-5,0.75002 -0.2813,1.24221 -0.84375,1.47656 -1.12505,-0.1406 -1.68754,-0.7031 -1.6875,-1.6875 l -0.42187,0 c 0.37495,1.40627 1.07807,2.1094 2.10937,2.10937 0.63277,3e-5 1.05464,-0.63279 1.26563,-1.89843 -5e-5,-0.8906 -0.42193,-1.80466 -1.26563,-2.74219 m -32.0625,0.63281 0.21094,5.27344 -0.21094,1.6875 0.21094,1.89844 -0.21094,1.89843 c 0.16405,4.07814 0.51561,6.1172 1.05469,6.11719 -0.42189,-0.8203 -0.63283,-3.28124 -0.63281,-7.38281 l 0,-7.38281 -0.21094,-2.10938 10.33594,0 0,-0.21094 -6.75,-0.21093 -2.32032,0 c -0.98439,0.0469 -1.47657,0.18752 -1.47656,0.42187 m 10.75781,0 0,0.21094 0.84375,0 0,-0.21094 -0.84375,0 m 1.26563,0.21094 0,0.21094 0.84375,0 0,-0.21094 -0.84375,0 m 1.05469,0.21094 0,0.21093 0.63281,0 0,-0.21093 -0.63281,0 m 9.49218,0.21093 0,0.21094 1.47657,0 5.48437,0.42188 2.10938,-0.42188 0,-0.42187 -0.21094,0 c -0.63286,0.4219 -1.26567,0.63283 -1.89844,0.63281 l -6.32812,-0.63281 -0.63282,0.21093 m -21.09375,2.32032 0,0.63281 c 0.2578,0.51565 0.67967,0.86721 1.26563,1.05469 l 2.32031,-0.84375 0.63281,0 0.63282,0.63281 0,1.05469 -0.63282,0.63281 -0.42187,0 -1.05469,-0.84375 -0.21094,0 0,0.21094 c 0.53905,2e-5 0.89061,0.42189 1.05469,1.26562 1.12498,2e-5 1.68748,-0.56248 1.6875,-1.6875 l 0,-0.63281 -1.05469,-1.05469 0.42188,-0.42187 -1.05469,-0.21094 -1.89844,1.26562 -0.63281,0 -0.63281,-0.63281 0,-0.84375 c 0.49217,-0.84372 1.12498,-1.2656 1.89844,-1.26562 l 0.42187,0 c 2.10935,2e-5 3.16404,1.33596 3.16406,4.00781 l 0,0.42187 -0.21093,-0.21093 -0.21094,0 0.21094,0.21093 0,0.21094 -0.63282,1.89844 c 0.25779,0.63283 0.74998,1.19533 1.47657,1.6875 0.35153,-1.12498 0.7031,-1.68748 1.05468,-1.6875 l 0.21094,0.21094 c -0.75002,1.0547 -1.31252,3.09376 -1.6875,6.11718 -0.28127,2e-5 -0.4219,0.21095 -0.42187,0.63282 l -0.63282,0 0.21094,-0.21094 0,-0.21094 -0.21094,-0.21094 0,-0.21093 0.63282,0 0,-0.21094 c -0.4219,1e-5 -0.63284,-0.14061 -0.63282,-0.42188 l 0.42188,0 0,-0.84375 c -2e-5,-0.77342 -0.4219,-1.40623 -1.26563,-1.89843 l -0.21093,3.16406 0,1.26562 0.42187,0.42188 0.84375,-0.21094 1.05469,1.26563 c 0.42185,-0.60937 0.77341,-1.9453 1.05469,-4.00782 0.98435,-2.67185 2.39059,-4.00779 4.21875,-4.00781 l 0.21093,0 c 1.2656,0.28127 1.89841,0.63283 1.89844,1.05469 l 0,0.63281 -0.84375,0.84375 -3.16406,-0.84375 c -0.70315,0.18752 -1.05471,0.6797 -1.05469,1.47656 l 0,0.42188 0.63281,0.84375 -0.21093,0.63281 c 0.28122,1e-5 0.42184,0.28126 0.42187,0.84375 l 0.21094,0 0.21094,-0.63281 -0.21094,-1.05469 0.63281,0 0.21094,0.21094 0.63281,-0.21094 0,-0.42187 -1.47656,-0.21094 -0.42188,0.42187 -0.42187,-0.84375 c 0.28122,-0.63279 0.56247,-0.98435 0.84375,-1.05468 l 0.21094,0 c 0.53903,1e-5 1.38278,0.4922 2.53125,1.47656 l 0.84375,0 c 0.98434,1e-5 1.47653,-0.56249 1.47656,-1.6875 l 0.21094,0 0.63281,0.42187 0.21094,-0.21093 0.21093,0 -0.21093,-1.05469 0,-2.53125 -1.05469,0 0.63281,-0.84375 0,-0.21094 -3.16406,-0.63281 -0.21094,0 c -1.57034,2e-5 -2.90627,0.91408 -4.00781,2.74219 l -0.42188,-0.42188 c 0.84373,-0.93748 1.2656,-2.06248 1.26563,-3.375 l -0.21094,0.21094 -0.21094,0 0,-0.42188 0.21094,-0.21093 0,-0.21094 -0.42187,-1.05469 c -0.56253,0.14065 -0.84378,0.49221 -0.84375,1.05469 l -0.42188,0 0,-0.63281 c -2e-5,-0.91404 -0.56252,-1.68748 -1.6875,-2.32032 l -0.63281,0 0,0.63282 -1.6875,-0.63282 c -1.96877,0.2344 -2.95314,1.00784 -2.95313,2.32032 m 7.59375,-1.6875 0,0.63281 0.84375,-0.63281 c 0.7031,2e-5 1.05466,0.70315 1.05469,2.10937 l 0.21094,0 0.21094,-1.47656 c -0.28128,-0.84373 -0.84378,-1.2656 -1.6875,-1.26563 l -0.63282,0.63282 m 3.375,0 -0.84375,2.10937 0.21094,0 1.26563,-2.10937 -0.63282,0 m -1.47656,3.58593 0,0.21094 0.21094,0 c -3e-5,-0.5156 1.33591,-1.49998 4.00781,-2.95312 l -0.42187,-0.42188 -0.63282,0 -3.16406,3.16406 m 14.13281,-2.95312 0,0.21094 1.05469,0 0,-0.21094 -1.05469,0 m -33.32812,1.47656 0.84375,1.26563 0,0.21093 c -0.70313,0.0938 -1.0547,0.30471 -1.05469,0.63282 0.51562,0.42189 1.00781,0.63283 1.47656,0.63281 l 0.21094,0 0.84375,-0.21094 0.84375,0.21094 0.42188,-0.42188 0,-1.05468 c -1.82814,2e-5 -2.7422,-0.56248 -2.74219,-1.6875 -1e-5,-0.28123 0.28124,-0.42185 0.84375,-0.42188 -1e-5,-0.28122 -0.21095,-0.42185 -0.63281,-0.42187 -0.70314,0.2344 -1.0547,0.65627 -1.05469,1.26562 m 20.25,1.6875 c 2.90622,-1.54685 5.85934,-2.32029 8.85937,-2.32031 l 0.42188,0 c 1.7109,2e-5 3.32808,0.4219 4.85156,1.26562 l 0.42188,-0.84375 c -1.75786,-0.7031 -3.51567,-1.05466 -5.27344,-1.05468 -4.00785,2e-5 -7.10159,0.9844 -9.28125,2.95312 m 14.55469,-2.95312 0,0.21093 1.05468,0 0,-0.21093 -1.05468,0 m -40.92188,0.63281 c 0.91406,2e-5 2.25,0.77346 4.00781,2.32031 l 0.21094,0.21094 0.42188,0 0,-0.21094 c -0.82032,-0.35154 -2.01563,-1.2656 -3.58594,-2.74219 l -0.63281,0 -0.42188,0.42188 m 33.32813,0.63281 c 1.54684,1.59377 2.32027,3.77346 2.32031,6.53906 -4e-5,3.58595 -2.32035,6.32814 -6.96094,8.22657 l -3.58594,0.42187 0,1.26563 0.21094,0 c 5.32028,0 9.46872,-1.96874 12.44531,-5.90625 0.56246,-0.74999 0.84371,-1.3828 0.84375,-1.89844 l 0.42188,0.42187 c -0.5391,1.50002 -2.01566,3.32814 -4.42969,5.48438 -3.21097,1.54688 -5.95315,2.32032 -8.22656,2.32031 l 0,0.21094 1.89844,0 c 3.9609,1e-5 7.61715,-2.53124 10.96875,-7.59375 0.56246,-1.82811 0.84371,-3.30467 0.84375,-4.42969 l 0,-0.21094 c -4e-5,-2.34373 -0.42192,-3.74997 -1.26563,-4.21875 l 0,0.21094 c 0.42184,0.93752 0.7734,2.27346 1.05469,4.00781 l -0.63281,4.00782 -0.42188,-0.42188 0.42188,-2.53125 0,-0.84375 c -4e-5,-3.37498 -0.91411,-5.06248 -2.74219,-5.0625 l -3.16406,0 m 7.59375,0.84375 0,0.63281 0.42187,0.42188 c -4e-5,-0.67967 0.28121,-1.31248 0.84375,-1.89844 l -0.21094,0 c -0.63285,0.28127 -0.98441,0.56252 -1.05468,0.84375 m -40.28907,-0.63281 0,0.63281 0.21094,0 0.42188,-0.42187 -0.63282,-0.21094 m 41.13282,1.6875 c -5e-5,0.65627 0.77339,1.64064 2.32031,2.95312 0.56245,0.84377 0.8437,1.47658 0.84375,1.89844 -5e-5,0.37502 -0.21098,0.72658 -0.63281,1.05469 l -0.63282,-0.21094 0,-1.47656 c -4e-5,-1.40623 -0.63285,-2.10936 -1.89843,-2.10938 -0.70317,0.2344 -1.05473,0.65627 -1.05469,1.26563 l 0,0.42187 0.21094,0 c 0.0234,-0.84373 0.44527,-1.2656 1.26562,-1.26562 0.74996,2e-5 1.17183,1.19533 1.26563,3.58594 l 0.21093,0.21093 0,0.21094 -0.21093,0 L 199,186.1052 l 0.84375,1.47656 -0.21094,0.21094 -0.42187,0 c -5e-5,-0.89061 -0.63286,-1.73436 -1.89844,-2.53125 l -0.21094,0 0,0.42187 c 0.91402,2e-5 1.47652,0.63283 1.6875,1.89844 -4e-5,1.54689 -1.05473,2.32032 -3.16406,2.32031 l 0,0.42188 0.42187,1.47656 -0.21093,0 c -1.12504,0.0938 -1.68754,0.65626 -1.6875,1.6875 -4e-5,0.28126 0.56246,0.42188 1.6875,0.42187 0.63277,0.56251 1.26558,0.84376 1.89843,0.84375 l 1.47657,0 1.26562,-1.47656 0.84375,0.63281 0.21094,0 0.21094,-0.21093 0.21093,0 -0.42187,-2.95313 0,-1.6875 -0.63281,0.42188 -0.21094,-1.47657 -0.21094,0 c -4e-5,2.39064 -0.49223,3.58595 -1.47656,3.58594 0.70308,-1.24217 1.05464,-2.22655 1.05469,-2.95312 l 0,-1.6875 c -5e-5,-0.28124 0.49214,-0.42186 1.47656,-0.42188 0.56245,-0.51561 0.8437,-1.07811 0.84375,-1.6875 l -0.84375,-1.05469 0.21094,-0.21093 1.05468,0.63281 0,-0.84375 c -4e-5,-1.03123 -0.84379,-1.94529 -2.53125,-2.74219 l 0,-0.21094 0.42188,-0.42187 0.21094,0 c 1.0312,1.12502 2.01557,1.68752 2.95312,1.6875 l -0.42187,-1.26563 c 0.8437,3e-5 1.26557,-0.56247 1.26562,-1.6875 l -1.05469,1.05469 -2.53125,-0.21094 -1.89843,0 0,-0.42187 1.05468,-0.21094 0.84375,0 0.21094,0.21094 0.21094,0 0,-0.21094 -1.05469,-0.63281 -1.05469,0 c -0.70316,0.35158 -1.05473,0.91408 -1.05468,1.6875 m -11.39063,-1.47656 0,0.21093 c 0.91403,3e-5 1.54684,0.35159 1.89844,1.05469 l -0.42188,0.42188 -0.21093,-0.21094 -0.21094,0 0,0.21094 0.42187,0.42187 0.42188,0 0.63281,-0.63281 c -3e-5,-0.98435 -0.70316,-1.47654 -2.10937,-1.47656 l -0.42188,0 m -0.84375,0.21093 0,0.21094 0.42188,0 0,-0.21094 -0.42188,0 m -27.84375,0.42188 0,0.63281 0.63281,0 0,-0.63281 -0.63281,0 m 21.72656,-0.21094 0.63282,0 -0.63282,2.95313 -0.84375,0 c 0.56248,-0.58592 0.84373,-1.28905 0.84375,-2.10938 l 0,-0.84375 m -7.80468,0.42188 0,0.21093 c -2e-5,0.30471 0.7031,0.7969 2.10937,1.47657 l 0,-0.21094 -2.10937,-1.47656 m -15.1875,0.21093 0,0.63282 0.63281,0 -0.21094,-0.63282 -0.42187,0 m 22.35937,0 0.21094,0 0,0.63282 -0.21094,0 0,-0.63282 m -20.25,0.42188 0,0.63281 0.63281,0 0,-0.63281 -0.63281,0 m 2.32031,0 0,0.21094 0.42188,0 0,-0.21094 -0.42188,0 m -3.375,0.42187 0,0.63282 0.42188,0 0,-0.21094 -0.42188,-0.42188 m 5.27344,-0.21093 0.21094,0 1.26562,0.21093 0,0.21094 -1.26562,0 -0.21094,-0.21094 0,-0.21093 m 15.82031,0 0.21094,0 0,0.63281 -0.21094,0 0,-0.63281 m -6.96093,0.42187 -0.21094,0.21094 0,1.05469 c 2.99998,0.84377 5.03904,2.03908 6.11719,3.58593 l 0,0.21094 c 0.28122,2e-5 0.42185,-0.21092 0.42187,-0.63281 -2e-5,-1.1953 -2.10939,-2.67186 -6.32812,-4.42969 m 27,0 0.21093,0 2.53125,1.6875 -0.42187,0.42188 c -1.38286,-1.0078 -2.1563,-1.71092 -2.32031,-2.10938 m -38.8125,0.84375 -1.26563,-0.21094 0,0.42188 1.05469,0 c 1.03124,2e-5 1.59374,-0.21092 1.6875,-0.63281 l -1.47656,0.42187 m 18.5625,-0.63281 0.21093,0 0,0.42187 -0.21093,0 0,-0.42187 m 11.39062,0.21094 0,0.84375 -1.05469,-0.21094 -0.42187,1.26562 0,0.42188 0.21094,0 c 0.0468,-0.70311 0.25777,-1.05467 0.63281,-1.05469 l 0.21094,0 0.63281,0.63281 0,0.63282 c -4e-5,0.56251 -0.70316,1.68751 -2.10938,3.375 l 0.21094,0 c 1.68747,-1.61717 2.53122,-2.74217 2.53125,-3.375 l 0,-1.05469 c -3e-5,-0.74998 -0.28128,-1.24217 -0.84375,-1.47656 m -27.63281,0.21093 -0.42188,0.63282 1.05469,-0.42188 0,-0.21094 -0.63281,0 m 1.05469,0.21094 -0.21094,0.21094 -0.84375,0.63281 -0.21094,-0.21094 -0.42187,0 0,0.63282 0.63281,0 -1.26563,1.47656 0,0.63281 0.21094,1.05469 0.21094,0 0,-0.42188 0.63281,0 c -1e-5,0.75002 0.35156,1.17189 1.05469,1.26563 0.98436,-0.30467 1.47655,-0.72655 1.47656,-1.26563 l -0.42187,-1.89843 0.42187,-0.63282 -0.21094,0 -0.63281,0.84375 c 0.18749,0.9844 0.39843,1.47658 0.63281,1.47657 -0.28126,0.63282 -0.5625,0.98439 -0.84375,1.05468 l -0.42187,0 -0.84375,-0.84375 0,-0.63281 c -1e-5,-1.35936 1.1953,-2.27342 3.58594,-2.74219 l 0,-0.84375 -0.21094,0 -1.05469,0.21094 -1.26562,-0.21094 0,0.21094 m 22.35937,-0.21094 0,0.21094 c -3e-5,0.70315 -0.14065,1.05471 -0.42187,1.05469 l -0.84375,-0.21094 -0.21094,0 0,0.21094 c 0.56247,2e-5 0.98434,0.28127 1.26562,0.84375 l 0,0.21094 c -0.4219,-0.42186 -0.91409,-0.6328 -1.47656,-0.63282 l 0,-0.21093 -0.21094,0.21093 -0.63281,0 -0.42187,-0.42187 c 0.28122,2e-5 0.42184,-0.21092 0.42187,-0.63281 l 0.84375,0 1.6875,-0.63282 m -27.84375,0.63282 0,0.63281 0.42188,-0.42188 0,-0.21093 -0.42188,0 m -1.6875,0.84375 -0.21094,0.21093 0,0.42188 c 0.14063,0.42189 0.5625,0.63283 1.26563,0.63281 l 0.63281,0 1.6875,-1.26562 -2.10937,0.84375 -0.42188,0 c -0.28125,1e-5 -0.42188,-0.21092 -0.42187,-0.63282 l -0.21094,-0.21093 -0.21094,0 m -0.21094,6.53906 0.21094,2.95312 0.21094,0 0.21094,-0.21093 0.21093,0 -0.42187,-2.53125 c 0,-2.85936 1.54687,-5.03905 4.64062,-6.53907 l 0,-0.21093 -0.63281,0 c -2.95313,2.10939 -4.42969,4.28907 -4.42969,6.53906 m 8.85938,-6.53906 0,0.21093 c 0.56249,0.0703 0.84374,0.28127 0.84375,0.63282 l -0.21094,0.21093 0,0.42188 0.21094,0 0.21094,-1.05469 -0.84375,-0.42187 -0.21094,0 m 38.39062,0 0,0.21093 0.42188,0.42188 0.21094,0 0.42187,-0.42188 0,-0.21093 -1.05469,0 M 172,183.57395 l 0,0.21093 0.42187,0 0,0.21094 -0.42187,0.63281 0,0.84375 0.63281,0.63282 -0.42187,-1.05469 c -2e-5,-0.60936 1.05467,-1.03123 3.16406,-1.26563 -2e-5,-0.3281 -0.77346,-0.60935 -2.32031,-0.84375 -0.70315,0.18752 -1.05471,0.39846 -1.05469,0.63282 m -11.8125,0.42187 c -1.82813,1.6172 -2.74219,3.37502 -2.74219,5.27344 0,0.98439 0.5625,1.96876 1.6875,2.95312 l 0.21094,0 -0.21094,-1.05468 c 0.84375,1e-5 1.26562,-0.42187 1.26563,-1.26563 l -0.63282,-0.63281 0,0.21094 0.42188,0.42187 -0.63281,0.63281 c -0.39844,1e-5 -0.89063,-0.49217 -1.47657,-1.47656 l 0,-1.26562 c 0,-1.12499 0.77344,-2.39061 2.32032,-3.79688 l -0.21094,0 m 43.03125,0.84375 0.84375,3.16406 0,0.42188 c -5e-5,4.57032 -1.9688,7.52344 -5.90625,8.85937 l -2.95313,0.21094 c -0.98441,1e-5 -1.82816,-0.49218 -2.53125,-1.47656 l 0,-0.63281 0.63282,-0.63282 0.21093,0 0.84375,0.63282 0,-0.21094 c -0.3516,-0.84374 -0.84378,-1.26562 -1.47656,-1.26563 -0.89066,1e-5 -1.38285,0.63282 -1.47656,1.89844 l -0.21094,0 -0.63281,-0.42187 0,1.05468 0.42187,0.42188 0.42188,-0.42188 c 1.12496,0.65626 1.68746,1.4297 1.6875,2.32032 0.42184,0 0.63277,-0.28125 0.63281,-0.84375 l 0.21094,0 0.21094,0.21093 0.21093,0 -0.21093,0.21094 0,0.21094 0.42187,0.42187 0,-0.21093 -0.21094,-1.05469 0.42188,0.42187 0.21094,-0.21093 0.63281,0 1.05469,0.42187 c -4e-5,0.28125 -0.28129,0.42188 -0.84375,0.42188 l 0,0.21093 0.21093,0 c 1.3359,1e-5 3.23433,-0.84374 5.69532,-2.53125 1.82807,-2.03905 2.74213,-4.35936 2.74218,-6.96093 l 0,-1.6875 c -5e-5,-1.03124 -0.28129,-2.15624 -0.84375,-3.375 l -0.42187,0.42187 m -16.03125,6.32813 c 0.56247,1e-5 0.84372,-0.42187 0.84375,-1.26563 -3e-5,-0.89061 1.05465,-2.01561 3.16406,-3.375 l 0.21094,-1.05469 -0.21094,0 c -2.67191,1.54689 -4.00784,3.44533 -4.00781,5.69532 m -13.5,-4.64063 0,0.21094 0.21094,-0.21094 0.84375,0 c 0.56248,2e-5 0.84373,0.4922 0.84375,1.47656 l 0.21093,0 0,-1.05468 c -0.28127,-0.6328 -0.56252,-0.98436 -0.84375,-1.05469 l -0.63281,0 -0.63281,0.63281 m 23.20312,0 0.21094,0.21094 0.63281,0 0,-0.21094 -0.42187,-0.42187 -0.42188,0.42187 m 6.32813,0.21094 c -5e-5,1.50001 -0.35161,2.41407 -1.05469,2.74219 l 0.63281,0.63281 0.42188,0 0.42187,-1.6875 -0.21093,-1.6875 -0.21094,0 m -40.5,2.74219 -0.42188,0 0,-0.63282 1.05469,-1.47656 -0.21094,0 c -0.84375,0.56251 -1.47656,0.84376 -1.89843,0.84375 l 0,-0.42187 -1.47657,0 0,0.21093 c 0,0.32814 0.5625,0.60939 1.6875,0.84375 l 0,0.21094 -0.63281,0.63281 0.42188,1.6875 -0.63282,1.26563 0.21094,0.21094 0.21094,0 c 1.12499,-0.14062 1.68749,-0.70312 1.6875,-1.6875 l 0.21094,-0.21094 0.21093,0 c 0,0.70313 0.42187,1.0547 1.26563,1.05469 l 0.84375,-0.63282 0,-0.42187 c -0.98438,1e-5 -1.47657,-0.49218 -1.47656,-1.47656 l 0,-0.63282 c -1e-5,-0.46873 0.84374,-0.96092 2.53125,-1.47656 l 0,-0.21094 -0.63282,0 c -1.96875,0.25783 -2.95313,1.03127 -2.95312,2.32032 m 17.50781,-1.47657 -0.21094,1.05469 0,0.21094 0.21094,0 0,-0.42188 0.84375,-0.21093 -0.21094,-0.63282 -0.63281,0 m -4.42969,0.21094 0,0.84375 0.21094,0 0,-0.84375 -0.21094,0 m 9.28125,0.21094 0.42188,1.05469 0.21094,0 0,-0.84375 -0.21094,-0.21094 -0.42188,0 m -26.15625,0.21094 0,0.21093 0.63282,0.42188 0,-0.21094 -0.63282,-0.42187 m 30.16407,0.42187 -0.21094,0.21094 0,0.21094 0.21094,0 0.63281,-0.21094 0,-0.21094 -0.63281,0 m -4.42969,0.21094 0,0.42187 0.42187,0 0,-0.42187 -0.42187,0 m 1.6875,0.21094 0,0.21093 0.42187,0 0,-0.21093 -0.42187,0 m -13.28906,1.47656 1.05468,-0.42188 c 0.84373,0.84376 1.40623,1.82814 1.6875,2.95313 0.42186,1e-5 0.6328,0.42188 0.63282,1.26562 l 0.21093,-0.21093 0.21094,0 c 0.28123,0 0.56248,0.5625 0.84375,1.6875 l -0.42187,0 0,0.21093 0.21093,0.63282 -0.42187,0 c 0.63279,0.98437 1.33591,1.47656 2.10937,1.47656 l 1.05469,0 0,-0.42188 -0.42187,0 0,-0.42187 0.84375,-0.42188 0,1.05469 1.05468,-1.05469 0,-0.21093 -0.84375,-3.16407 0,-0.63281 c -2e-5,-1.31249 0.77342,-2.01561 2.32032,-2.10937 l 0.21093,0.21093 0.21094,0 0,-0.42187 c -0.11721,-0.42187 -0.6094,-0.77343 -1.47656,-1.05469 -0.49221,1e-5 -0.84378,0.56251 -1.05469,1.6875 l -0.63281,0 0.21094,-0.84375 -0.21094,-0.63281 -0.21094,0 c -0.51565,0.3047 -1.00783,0.8672 -1.47656,1.6875 l 0,0.63281 0.21094,0 0,-0.42187 0.63281,0.21093 -0.21094,0.21094 0,0.42188 0.42188,0 0,0.21093 -0.21094,0.63282 0.21094,1.26562 -0.63282,0.21094 0.84375,1.26562 -0.42187,0.42188 -0.21094,0 c -0.63283,-0.32812 -1.12502,-2.29687 -1.47656,-5.90625 l -0.63281,-0.42188 -0.42188,0 -0.21094,1.26563 -0.21093,0 c -0.28127,1e-5 -0.4219,-0.28124 -0.42188,-0.84375 -0.56252,-0.84374 -1.19533,-1.26561 -1.89844,-1.26563 -0.70314,0.23439 -1.0547,0.65627 -1.05468,1.26563 m 24.89062,-1.26563 0.42188,0.42188 -1.47657,0.42187 1.05469,-0.84375 m -12.44531,0.42188 -0.21094,0.21094 0,0.21093 0.21094,0.21094 0.21094,0 0.21093,-0.21094 0,-0.21093 -0.21093,-0.21094 -0.21094,0 m -1.26563,0.21094 0,0.42187 0.42188,-0.42187 -0.42188,0 m 14.34375,0 0,0.84375 -0.21093,-0.21094 -0.21094,0 0,0.42187 -0.42188,0 -0.42187,-0.42187 1.26562,-0.63281 m -12.65625,0.84375 0,0.42187 0.42188,0 0,-0.42187 -0.42188,0 m -1.05468,0.21093 0,0.21094 0.42187,0 0,-0.21094 -0.42187,0 m 13.28906,0.42188 0.84375,0 0,0.21094 -0.21094,0.21093 0,0.21094 -0.63281,-0.21094 0,-0.42187 m -0.21094,0.21094 0.21094,0.21093 0,0.42188 -0.63281,0 0,-0.21094 0.42187,-0.42187 m -41.34375,2.32031 c 0.42187,1.40625 0.63281,2.60157 0.63281,3.58594 l -0.42187,0.42187 0,0.21094 0.84375,0 0.63281,-0.63281 -0.21094,-0.21094 0,-0.21094 0.42188,-0.42187 0.21094,0.21093 0,-0.84375 -1.05469,-1.26562 0.42187,-0.42188 0.21094,0 c 0.375,1e-5 0.65625,0.56251 0.84375,1.6875 l 0.21094,-0.21093 0.21094,0 0.42187,0.42187 0,0.42188 -0.63281,-0.42188 0,0.21094 0.63281,0.42187 0.21094,-0.21093 0.21094,0.21093 0,0.21094 -0.21094,0.21094 1.26562,0.21094 0,-0.63282 1.89844,0.21094 0.21094,-0.21094 0,-0.63281 -0.21094,0.21094 -1.05469,0 c -0.98438,0 -2.25,-1.125 -3.79687,-3.375 l -1.05469,-0.21094 -0.84375,1.05469 m 42.82031,-1.05469 0,0.21094 -0.42187,0.42187 -1.05469,0 0,0.42188 -0.63281,0 0,-0.42188 2.10937,-0.63281 m -42.1875,0.42188 0.21094,0 0.84375,0.63281 0,0.21094 -1.05469,0.21093 0,-1.05468 m 46.61719,0.21093 -1.47656,2.95313 -0.21094,-0.21094 -0.21094,0 0,0.21094 0.21094,0.21094 -0.84375,0.84375 0,0.42187 0.42188,0.42188 0.21093,0 c -4e-5,-0.5625 0.14058,-0.84375 0.42188,-0.84375 0.0468,0.70312 0.25776,1.05469 0.63281,1.05468 0.8437,1e-5 1.26558,-0.35156 1.26563,-1.05468 l -0.63282,0.42187 -0.63281,0 -0.42187,-1.26562 1.47656,-2.95313 0,-0.21094 -0.21094,0 m -14.55469,0.63282 0,0.84375 0.21094,0 0.42188,-0.84375 0,-0.21094 -0.63282,0.21094 m -22.99218,0.63281 0,0.21094 5.90625,0 0,-0.21094 -4.21875,-0.21094 -1.6875,0.21094 m 21.72656,-0.21094 0.42187,0.42188 0.21094,0 -0.42187,-0.42188 -0.21094,0 m -11.39063,0.21094 0,0.63281 0.21094,0.21094 0.21094,0 -0.21094,-0.84375 -0.21094,0 m 5.48438,0 0,0.21094 0.63281,0 0,-0.21094 -0.63281,0 m 14.13281,0 0,0.63281 c 0.23434,0.56251 0.72652,0.84376 1.47656,0.84375 l 0.84375,0 0,-0.21094 c -0.98441,1e-5 -1.4766,-0.42187 -1.47656,-1.26562 l -0.84375,0 m -31.42969,0.21094 0,0.21093 0.84375,0 0,-0.21093 -0.84375,0 m 0.42188,1.05468 0,0.21094 0.63281,-0.42187 0.42188,0 0.63281,0.63281 c -0.23439,0.70313 -0.65626,1.05469 -1.26563,1.05469 l 0,0.21093 0.42188,0 c 0.84374,-0.21093 1.26561,-0.70312 1.26562,-1.47656 l 0,-0.21094 c -1e-5,-0.28124 -0.42188,-0.49218 -1.26562,-0.63281 l -0.84375,0.63281 m 0.84375,2.10938 0,0.21094 0.63281,0 c 1.31249,0 2.64842,-0.84375 4.00781,-2.53125 l -0.42187,-0.42188 -0.21094,0 c -1.17189,1.82813 -2.50782,2.74219 -4.00781,2.74219 m 21.30469,-2.74219 0,0.21094 0.21093,0.21094 0,0.21093 -0.21093,0.21094 -1.6875,-0.63281 c -1.54691,0 -2.32034,0.63282 -2.32032,1.89844 l 0,0.21093 0.63282,0.63282 0.63281,0 c 0.46872,0 0.96091,-0.21094 1.47656,-0.63282 l 0.63281,0 0.63282,0.42188 0,-0.42188 -0.42188,-0.42187 -0.42187,0 c -0.51566,0 -1.14847,0.28125 -1.89844,0.84375 l -0.42188,0 -0.42187,-0.42188 0,-0.42187 c 0.23435,-0.5625 0.72653,-0.84375 1.47656,-0.84375 l 0.42188,0 6.75,1.89844 0.42187,0 0,-0.21094 c -0.82035,0 -1.94535,-0.77343 -3.375,-2.32031 l -1.6875,-0.42188 -0.42187,0 m -18.35157,2.53125 0,0.21094 0.42188,0 2.74219,-1.47656 0.63281,0 c 0.60936,0 1.10154,0.35156 1.47656,1.05468 l -0.21094,0.63282 -0.63281,0 -0.21094,-0.21094 -0.21093,0 0,0.21094 0.21093,0.21093 1.05469,0 0.63281,-0.63281 0,-0.42187 c -2e-5,-0.35156 -0.28127,-0.5625 -0.84375,-0.63282 l 0,-0.42187 0.63282,0 0,-0.42188 -2.10938,-0.21093 c -0.4922,0 -1.47658,0.63281 -2.95312,1.89843 l -0.63282,0.21094 m 18.98438,-2.10937 0.21094,0 1.47656,0.42187 0,0.42188 -0.84375,0.21093 0.21094,-0.21093 0,-0.42188 -1.05469,0 0,-0.42187 m -7.80469,0.63281 0.21094,0.21094 0,0.21093 -1.05469,0.63282 0,-0.84375 0.84375,-0.21094 m 10.96875,0.21094 0,0.21093 0.84375,0.63282 0,-0.21094 -0.84375,-0.63281 m -27.84375,0.84375 0,0.21093 0.42188,0 0,-0.21093 -0.42188,0 m -3.375,0.21093 0.21094,0.63282 0.42187,-0.42188 -0.21093,-0.21094 -0.42188,0 m 12.23438,0 0,0.21094 0.63281,0.21094 0,-0.21094 -0.21094,-0.21094 -0.42187,0 m -10.125,0.21094 0,0.21094 2.53125,0.42187 1.26562,0 0,-0.21093 -3.58594,-0.42188 -0.21093,0 m 32.69531,0.42188 0,0.21093 0.42187,0 0,-0.21093 -0.42187,0"
         id="path4044"
         style="font-size:72px;font-variant:normal;font-stretch:normal;fill:#ffffff;font-family:Goudy Initials;-inkscape-font-specification:Goudy Initials" />
    </g>
  </g>
</svg>
