<?xml version="1.0" encoding="UTF-8" standalone="no"?>
<!-- Created with Inkscape (http://www.inkscape.org/) -->

<svg
   xmlns:dc="http://purl.org/dc/elements/1.1/"
   xmlns:cc="http://creativecommons.org/ns#"
   xmlns:rdf="http://www.w3.org/1999/02/22-rdf-syntax-ns#"
   xmlns:svg="http://www.w3.org/2000/svg"
   xmlns="http://www.w3.org/2000/svg"
   version="1.2"
   width="56.734375"
   height="56.734375"
   id="svg2">
  <defs
     id="defs4" />
  <metadata
     id="metadata7">
    <rdf:RDF>
      <cc:Work
         rdf:about="">
        <dc:format>image/svg+xml</dc:format>
        <dc:type
           rdf:resource="http://purl.org/dc/dcmitype/StillImage" />
        <dc:title></dc:title>
      </cc:Work>
    </rdf:RDF>
  </metadata>
  <g
     transform="translate(-152.28125,-146.34738)"
     id="layer1">
    <g
       id="flowRoot2985"
       style="font-size:40px;font-style:normal;font-weight:normal;line-height:125%;letter-spacing:0px;word-spacing:0px;fill:#ffffff;fill-opacity:1;stroke:none;font-family:Sans">
      <path
         d="m 154.28125,148.34738 52.73437,0 0,52.73438 -52.73437,0 0,-52.73438 m 1.05469,1.05469 0,50.625 50.625,0 0,-50.625 -50.625,0 m 0.42187,0.63281 49.57031,0 0,49.57032 -49.57031,0 0,-49.57032 m 20.88281,2.95313 0.42188,0 c 0.28123,5e-5 0.42185,-0.42183 0.42187,-1.26563 0.39842,-0.56245 0.89061,-0.8437 1.47657,-0.84375 0.7031,5e-5 1.05466,0.49224 1.05468,1.47657 l 0.42188,-0.42188 0,-0.42187 c -3e-5,-0.30464 -0.49221,-0.6562 -1.47656,-1.05469 -1.40628,5e-5 -2.17971,0.8438 -2.32032,2.53125 m -12.02343,-2.32031 -0.21094,0.63281 0.21094,0 0.21093,-0.21094 0,-0.42187 -0.21093,0 m 20.88281,0.63281 -0.21094,0 0,-0.42188 -0.42187,0 -0.21094,1.05469 0,0.42188 0.42187,0.42187 0.63282,0 c 0.0234,-1.12495 0.30465,-1.68745 0.84375,-1.6875 l 0.21093,0 c 0.84372,5e-5 1.2656,0.42193 1.26563,1.26563 l 0.42187,-0.42188 0,-0.63281 c -0.14065,-0.42183 -0.56253,-0.63276 -1.26562,-0.63281 l -0.21094,0 c -0.46878,5e-5 -0.96097,0.21098 -1.47656,0.63281 m 5.0625,0.21094 0.21094,0.21093 -0.21094,0.21094 0,0.21094 c -4e-5,0.98442 0.35153,1.47661 1.05469,1.47656 l 0.21093,0 0,-0.21094 c -0.42191,5e-5 -0.63284,-0.35151 -0.63281,-1.05468 l 0,-0.21094 1.05469,-1.05469 0.84375,0 c 0.70309,0.35161 1.05465,0.91411 1.05469,1.6875 l -0.21094,0.21094 0,0.42187 0.21094,0 0.21093,-1.05468 0,-0.63282 c -0.3516,-0.70307 -0.9141,-1.05463 -1.6875,-1.05468 l -0.42187,0 c -1.05472,0.16411 -1.61722,0.44536 -1.6875,0.84375 m -31.64063,1.05468 c 0.21094,0.56255 0.42187,0.8438 0.63282,0.84375 l 0,-0.84375 c 0.42187,5e-5 0.6328,0.2813 0.63281,0.84375 l 0.42187,0 0,-0.21093 -0.21093,-0.21094 0,-0.21094 0.84375,-1.47656 -0.21094,-0.21094 0.21094,-0.21094 -0.21094,0 c -1.40626,0.32818 -2.10938,0.89068 -2.10938,1.6875 m 36.70313,-1.6875 0,0.42188 0.21094,0 0,-0.42188 -0.21094,0 m 8.64844,0 c -5e-5,0.42193 -0.35161,0.63287 -1.05469,0.63282 l -0.21094,-0.21094 -0.42187,0 0,0.21094 1.05468,0.21093 0.42188,0 c 0.2812,5e-5 0.42182,-0.21088 0.42187,-0.63281 l 0,-0.21094 -0.21093,0 m -30.79688,0.63282 0.42188,0.42187 0.42187,-0.42187 -0.42187,-0.42188 -0.42188,0.42188 m 20.46094,3.375 0.21094,0.21093 0.21093,0 c 1.00778,-2.39057 2.48434,-3.58588 4.42969,-3.58593 l 0.42188,0 c 3.23432,0.32817 4.85151,1.73442 4.85156,4.21875 l 0,1.26562 c -5e-5,1.75786 -1.12505,2.81254 -3.375,3.16406 l -0.63281,0 0,0.42188 c 3.0937,4e-5 4.64057,-1.47652 4.64062,-4.42969 -5e-5,-2.97651 -1.82817,-4.66401 -5.48437,-5.0625 l -0.63282,0 c -2.06254,5e-5 -3.60941,1.26568 -4.64062,3.79688 m 1.47656,-3.375 -0.21094,0.21093 0,0.21094 0.21094,0 0.21094,-0.21094 0,-0.21093 -0.21094,0 m -34.17187,1.05468 0,0.21094 0.42187,0 0,0.42188 -0.21094,0.21093 0,0.21094 0.21094,0.21094 0.21094,0 0.42187,-0.42188 0,0.63282 0.42188,0 0.63281,-0.42188 0.21094,0.21094 0,0.21094 -0.42188,0.42187 0,0.42188 0.63282,0 -0.42188,0.63281 0.42188,0 0.63281,-0.21094 0,0.42188 c 0.84374,4e-5 1.26561,-0.42183 1.26562,-1.26563 l 0,-0.63281 -0.42187,0 0.21094,-1.05469 0,-0.84375 -1.47657,0 0.63282,0.84375 -0.21094,0 -1.26563,-0.84375 0.42188,0 0,-0.21094 -0.63281,0 c -1.12501,0.14068 -1.68751,0.42193 -1.6875,0.84375 m 5.48437,-0.84375 0,0.21094 1.05469,0 0,-0.21094 -1.05469,0 m 1.26563,0.21094 0,0.21094 0.42187,0 0,1.05469 c 0.42186,0.37504 0.6328,0.93754 0.63281,1.6875 l 0.21094,0 0.21094,-1.05469 0,-0.42188 -0.63281,-0.84375 0,-0.21093 1.89843,0.21093 0.42188,-0.63281 0,-0.21094 -0.63281,0.21094 -1.6875,-0.21094 -0.84375,0.21094 m 4.21875,0.21094 0.42187,0.42187 0.42188,0 0,-0.84375 -0.42188,0 -0.42187,0.42188 m 27.63281,0 0,0.21094 1.6875,1.05468 0,-0.21093 c -5e-5,-0.23433 -0.49223,-0.58589 -1.47656,-1.05469 l -0.21094,0 m -26.15625,0.42187 0,0.63282 0.63281,0 0,-0.63282 -0.63281,0 m 21.72656,1.47657 0.21094,0 c 0.56246,-0.84371 1.26558,-1.26558 2.10937,-1.26563 l 0.84375,0 1.05469,1.05469 -0.63281,1.05469 0,0.21093 0.42187,0 0.63282,-0.63281 0,-0.42187 c -5e-5,-0.98433 -0.49224,-1.47652 -1.47657,-1.47657 l -0.84375,0 c -0.86723,5e-5 -1.64066,0.49224 -2.32031,1.47657 m -37.96875,-1.26563 c 0.49219,1.26567 0.98437,1.89849 1.47656,1.89844 l 0.21094,0 0,-0.21094 -0.42187,0 0,-0.42187 0.42187,0 0,-0.21094 -0.63281,-0.84375 0.21094,-0.21094 -0.21094,0 0,0.21094 -0.21094,-0.21094 -0.84375,0 m 13.28906,0.63281 0,0.21094 1.6875,0 0.84375,-0.21094 0,-0.42187 -0.21093,0 -2.32032,0.42187 m 31.42969,-0.42187 -0.21094,0.21094 0,0.21093 0.63282,0 -0.42188,-0.42187 m -35.01562,0.42187 0.21093,0.21094 0,0.63281 -0.42187,0.63282 0.21094,0 0.63281,-0.63282 -0.21094,-0.84375 -0.42187,0 m -5.90625,13.71094 c 1.40624,0.65629 2.10936,1.50003 2.10937,2.53125 l 0,0.21094 c -1e-5,1.05472 -0.35157,1.82815 -1.05469,2.32031 l -0.21093,-0.21094 0,-0.21093 -1.47657,0.21093 -0.21093,0 -0.21094,-0.21093 -0.21094,0 0,3.375 c 0,2.20315 0.5625,4.66408 1.6875,7.38281 l 0.21094,0 c 0.30468,-0.60936 1.21874,-1.31248 2.74219,-2.10938 -0.84376,-2.48435 -1.26564,-4.73435 -1.26563,-6.75 l 0,-0.21093 c -1e-5,-8.90622 4.28905,-14.74215 12.86719,-17.50782 1.59373,-0.56245 3.7031,-0.8437 6.32812,-0.84375 l 0.84375,0 c 6.32809,5e-5 11.10934,2.39067 14.34375,7.17188 l 1.47657,3.16406 c 0.2812,4e-5 0.42183,-0.2109 0.42187,-0.63281 -0.98442,-3.79684 -1.4766,-6.3984 -1.47656,-7.80469 l 0.21094,-0.21094 -0.21094,-1.05468 c -0.49223,0.56254 -0.98442,0.84379 -1.47656,0.84375 l -0.21094,0 c -5.2266,-2.10933 -9.93753,-3.16402 -14.13281,-3.16407 -10.47658,5e-5 -17.50783,4.42974 -21.09375,13.28907 l 0,0.42187 m 39.44531,-13.28906 0,0.42187 0.42187,-0.42187 -0.42187,0 m -40.92188,0.63281 0.21094,1.05469 0.21094,0 c -1e-5,-0.6562 0.21093,-1.14839 0.63281,-1.47656 l -0.63281,0 -0.42188,0.42187 m 41.76563,-0.42187 0,0.21093 0.42187,0.42188 0.21094,-0.21094 0,-0.42187 -0.63281,0 m -40.5,0.21093 0,0.21094 c 0.44531,5e-5 0.93749,0.42192 1.47656,1.26563 l 0,0.84375 c -1e-5,0.28129 -0.21094,0.42192 -0.63281,0.42187 l -0.63281,-0.21094 c -1e-5,0.21099 0.28124,0.42192 0.84375,0.63282 0.56249,-0.14058 0.84374,-0.56246 0.84375,-1.26563 -0.32814,-0.89058 -0.89064,-1.52339 -1.6875,-1.89844 l -0.21094,0 m 34.80469,0 0,0.21094 c 0.84371,5e-5 1.26558,0.21099 1.26562,0.63281 l 0.21094,0 0,-0.63281 -0.63281,-0.21094 -0.84375,0 m -35.22657,0.84375 0.21094,0.63282 c -0.42188,4e-5 -0.77344,0.63285 -1.05469,1.89843 l 0,1.05469 c 0,1.42973 0.91406,2.76567 2.74219,4.00781 l 0,-0.42187 c -1.6875,-1.5234 -2.53125,-2.92965 -2.53125,-4.21875 0,-0.74996 0.42187,-1.38277 1.26563,-1.89844 l 0.84375,0.21094 0,-0.21094 c -0.32813,-0.8437 -0.82032,-1.26558 -1.47657,-1.26562 l 0,0.21093 m -2.32031,0.42188 0,0.21094 0.84375,0.21093 0,-0.21093 -0.21094,-0.21094 0.21094,-0.21094 -0.21094,-0.21094 -0.21093,0 -0.42188,0.42188 m 41.34375,0 0,0.63281 0.63281,-0.21094 c 0.56246,0.14067 0.84371,0.56255 0.84375,1.26563 l -0.42187,0.42187 0,0.21094 c 0.72652,5e-5 1.2187,-0.35152 1.47656,-1.05469 l -0.84375,-1.47656 -0.21094,0.21094 -1.47656,0 m -17.50781,0 0,0.21094 1.05469,0 0,-0.21094 -1.05469,0 m -18.35156,1.05469 -0.21094,-0.21094 0,0.42187 c 0.84374,5e-5 1.26561,0.14067 1.26562,0.42188 l -0.63281,0.21094 -0.21094,-0.21094 0,0.21094 0.21094,0.21093 1.05469,0 c 0.8203,5e-5 1.45311,-0.49214 1.89844,-1.47656 l 0,-0.42187 -3.375,0.84375 m 0,16.875 c -1e-5,1.71096 0.42186,3.96096 1.26562,6.75 l 0.21094,0 -0.21094,-0.21094 0,-0.63281 0.21094,-0.21094 0,-0.21094 -0.21094,0 -0.21094,0.21094 -0.63281,-5.69531 0,-0.21094 c -1e-5,-7.96871 4.07811,-13.5234 12.23438,-16.66406 2.08591,-0.42183 3.84372,-0.63277 5.27343,-0.63282 l 0,-0.21093 -1.6875,0 c -3.39845,4e-5 -7.19533,1.61723 -11.39062,4.85156 -3.23439,3.65629 -4.85157,7.94534 -4.85156,12.86719 m 21.09375,-17.71875 0,0.21093 1.6875,0 0,-0.21093 -1.6875,0 m 1.89843,0.21093 0,0.21094 0.84375,0 0,-0.21094 -0.84375,0 m 12.02344,0 0,2.53125 1.26563,6.32813 0,0.63281 -0.21094,0.21094 0,0.21094 0.42187,0 0.21094,-0.63282 c -0.98442,-4.24214 -1.4766,-7.33589 -1.47656,-9.28125 l -0.21094,0 m -10.75781,0.21094 0,0.21094 0.42187,0 0,-0.21094 -0.42187,0 m 0.63281,0.21094 0,0.21094 0.42188,0 0,-0.21094 -0.42188,0 m -7.59375,0.21094 0,0.21093 0.63281,0 0,-0.21093 -0.63281,0 m 1.6875,0.21093 0,0.21094 0.84375,0 0,-0.21094 -0.84375,0 m 5.48438,0.42188 0,0.21094 0.84375,0.63281 0,-0.21094 -0.84375,-0.63281 m -13.92188,5.0625 c -0.28127,4e-5 -0.42189,-0.2109 -0.42187,-0.63281 l 0.63281,-1.89844 c -0.98439,0.60942 -1.47658,1.59379 -1.47656,2.95312 l 0,0.21094 0.84375,2.53125 -0.63282,0 c -0.42189,-1.07809 -0.63283,-2.2734 -0.63281,-3.58594 -0.28127,4e-5 -0.42189,0.63286 -0.42187,1.89844 -0.28127,4e-5 -0.4219,-0.28121 -0.42188,-0.84375 l -0.21094,0 -0.21093,0.63281 0.21093,1.26563 -0.63281,-0.42188 0,0.21094 0.21094,1.05469 c -0.56252,3e-5 -0.84377,0.84378 -0.84375,2.53125 l 0.42187,0.42187 0.21094,0 0.21094,-1.89843 -0.42188,-0.42188 0.42188,0 0.21094,-0.21094 0.42187,0.42188 0,0.21094 -0.21094,0 0.42188,1.05468 0.21094,-0.21093 0.21093,0 c 0.70311,0.84378 1.05467,1.47659 1.05469,1.89843 l -1.05469,-0.63281 0,0.21094 1.26563,0.63281 c 0.42186,3e-5 0.63279,-0.28122 0.63281,-0.84375 l 0.21094,-0.21094 0.21094,0 1.6875,0.63282 0.84375,0 c -0.4219,-0.72653 -0.63284,-1.42966 -0.63282,-2.10938 l -0.21093,0 0,0.84375 -0.42188,0 0,-2.32031 c 0.42186,3e-5 0.63279,0.3516 0.63281,1.05469 l 0.21094,0 0,-0.84375 -0.63281,-1.6875 1.05469,0.21093 0,-0.84375 c -0.9844,-1.31246 -1.47659,-2.22652 -1.47657,-2.74218 l 0,-0.63282 c 0.11717,-1.12495 0.60936,-1.68745 1.47657,-1.6875 l 0.21093,0 0,0.21094 c -0.63283,4e-5 -1.0547,0.56254 -1.26562,1.6875 1.31248,-1.31246 2.50779,-2.15621 3.58594,-2.53125 l 0.63281,0.21094 0,0.21094 c -0.0703,0.32816 -0.63284,0.67973 -1.6875,1.05468 -0.56252,0.86723 -0.84377,1.57036 -0.84375,2.10938 l 0.21094,1.05469 0.21093,0 0.63282,-0.42188 c -3e-5,1.99223 0.49216,3.32816 1.47656,4.00781 0.21091,0.56254 0.42185,0.84379 0.63281,0.84375 1.54685,-1.12496 2.32029,-2.03902 2.32031,-2.74218 l 0,-0.63282 -0.21093,-1.05468 0.42187,0 0.84375,0.63281 0.42188,0 c -3e-5,-2.95308 1.05465,-4.42965 3.16406,-4.42969 l 0.21094,0 0,-0.21094 -0.42188,0 -2.32031,0.84375 -0.21094,-0.21093 0,-0.21094 1.05469,-0.42188 0,-0.21093 -0.42188,0 -1.47656,0.84375 -0.42187,0 0,-0.21094 c 0.23434,-0.56246 0.72653,-0.84371 1.47656,-0.84375 l 0,-0.21094 -0.42188,0 c -0.86721,0.37504 -1.9219,1.21879 -3.16406,2.53125 l -0.21094,-0.21094 c 0.0468,-0.37495 0.82029,-1.2187 2.32032,-2.53125 l -1.47657,1.05469 -0.21093,0 0,-0.42187 c -3e-5,-0.28121 0.21091,-0.42183 0.63281,-0.42188 l 0.21094,-0.21094 0,-0.21093 -0.21094,0 -0.63281,0.42187 -0.42188,-0.42187 -0.84375,0 c -3.93752,0.42192 -5.90627,1.26566 -5.90625,2.53125 -0.30471,0.0235 -0.58596,0.79691 -0.84375,2.32031 m -11.39062,-4.21875 c 0.0703,0.32817 0.56249,0.67973 1.47656,1.05469 l 0,-0.63282 -0.42188,-0.42187 -0.21093,0.21094 -0.21094,0 -0.21094,-0.63282 -0.42187,0.42188 m -1.47657,-0.21094 0,0.21094 0.63282,0.63281 0.21093,0 0,-0.63281 -0.84375,-0.21094 m -4.85156,1.47656 c 0.28125,5e-5 0.42187,-0.21089 0.42188,-0.63281 l 0.84375,0 c 0.37499,0.0938 1.21874,1.14848 2.53125,3.16406 l 0.21093,0 -1.89843,-3.16406 0.21093,-0.21094 -0.21093,0 -0.21094,0.21094 -0.63281,-0.63281 c -0.84376,4e-5 -1.26563,0.42192 -1.26563,1.26562 m 29.95313,-1.26562 0,0.21094 0.63281,0 0,-0.21094 -0.63281,0 m 2.74218,0 0,0.21094 c 3.11715,2.4141 4.94528,4.6641 5.48438,6.75 l 0.21094,0 0,-0.21094 c -0.67973,-2.29684 -2.57817,-4.54683 -5.69532,-6.75 m 12.44532,0.21094 0,0.63281 0.84375,0 0,-0.21094 -0.84375,-0.42187 m -8.22657,0.84375 c 1.54684,3.82035 2.32028,6.70316 2.32032,8.64843 l 0,1.26563 c -4e-5,2.6719 -0.63286,5.06253 -1.89844,7.17187 l 0.21094,0 c 1.54683,-2.32028 2.32027,-4.99215 2.32031,-8.01562 -4e-5,-2.6484 -0.84379,-5.60152 -2.53125,-8.85938 l -0.21094,-0.21093 -0.21094,0 m 10.54688,0 -0.21094,0.21093 0,0.21094 0.21094,0 0.21094,-0.21094 0,-0.21093 -0.21094,0 m -41.97656,0.84375 0,0.21093 0.84375,-0.63281 0.42187,0 c 0.28124,4e-5 0.42187,0.21098 0.42188,0.63281 l 0.21093,0 0,-0.42187 -0.63281,-0.42188 -0.63281,0 -0.63281,0.63282 m 25.10156,-0.63282 0,0.42188 c 2.43746,4e-5 4.54684,1.4766 6.32812,4.42969 0.84371,1.54691 1.26559,3.30472 1.26563,5.27343 -4e-5,6.2344 -3.23441,10.31253 -9.70313,12.23438 l -3.16406,0.42187 -10.125,-0.84375 -0.21094,0.21094 0,0.21094 0.42188,0 10.33594,0.84375 c 5.20309,2e-5 9.2109,-2.67185 12.02343,-8.01563 0.56246,-1.49997 0.84371,-2.90622 0.84375,-4.21875 l 0,-1.6875 c -4e-5,-3.63277 -1.82816,-6.65621 -5.48437,-9.07031 l -0.84375,-0.21094 -1.6875,0 m -7.80469,0.21094 0.21094,0 c -0.70315,0.86723 -1.05471,1.57035 -1.05469,2.10938 l -0.21094,0 0,-0.84375 1.05469,-1.26563 m 21.30469,3.58594 c -5e-5,0.9141 0.35152,1.54691 1.05469,1.89844 1.9687,3e-5 2.95307,-0.56247 2.95312,-1.6875 l -0.21094,-0.63282 -0.42187,0 0.21094,0.21094 0,0.21094 c -5e-5,0.58597 -0.49224,1.07816 -1.47657,1.47656 -0.70317,4e-5 -1.26567,-0.35152 -1.6875,-1.05469 l 0,-0.42187 c -4e-5,-0.70309 0.91402,-1.82809 2.74219,-3.375 -2.10942,1.12504 -3.16411,2.25004 -3.16406,3.375 m -28.26563,-3.16406 -0.21093,0.21093 0,0.21094 0.21093,0 0.21094,-0.21094 0,-0.21093 -0.21094,0 m -0.63281,0.42187 c -1.33595,1.31254 -2.53126,2.08598 -3.58594,2.32031 l 0,0.42188 c 1.3828,-0.53902 2.64843,-1.45309 3.79688,-2.74219 l -0.21094,0 m 1.05469,0 c -2.20314,1.71098 -3.96095,4.31254 -5.27344,7.80469 -1e-5,0.49222 -0.84376,1.82816 -2.53125,4.00781 l 0.21094,0 c 1.05468,-0.84372 2.74217,-3.79684 5.0625,-8.85937 l 2.74219,-2.95313 -0.21094,0 m -10.75781,0.42188 0,0.21093 0.21093,0.63282 0.21094,0 0,-0.21094 -0.21094,-0.63281 -0.21093,0 m 19.40625,-0.21094 0.42187,0.42187 -0.84375,2.74219 -0.21094,0 0,-0.84375 0.63282,-2.32031 m -24.04688,2.95312 c 0,0.77348 0.42187,1.33598 1.26563,1.6875 l 0.63281,-0.21093 0,-0.21094 c -1.125,4e-5 -1.6875,-0.49215 -1.6875,-1.47656 0,-0.60934 0.42187,-0.9609 1.26562,-1.05469 l 0,-0.21094 -0.42187,0 c -0.70313,0.18754 -1.05469,0.67973 -1.05469,1.47656 m 3.58594,-1.47656 0,0.21094 0.21094,0.21094 0.21093,0 0,-0.21094 -0.21093,-0.21094 -0.21094,0 m 26.36719,0.63281 -0.63282,1.6875 0,0.21094 0.42188,1.89844 -0.21094,0.21094 -0.21094,-0.21094 -0.63281,0 -0.21094,1.47656 0.84375,2.53125 0,0.21094 -0.21093,0 -0.21094,-0.21094 -0.21094,0 0,0.42188 c 0.84372,1.40628 1.26559,2.32034 1.26563,2.74218 -4e-5,1.71097 -0.70316,3.18753 -2.10938,4.42969 1.19528,2e-5 1.96872,-1.40622 2.32031,-4.21875 l 0.21094,-0.21094 0.21094,0 0.21094,0.21094 0.21093,-0.84375 0.42188,0.42188 -0.21094,1.89843 0,0.21094 0.21094,0 0.63281,-2.53125 -0.21094,-2.95312 0,-0.42188 c -0.28128,-0.28122 -0.63284,-1.61715 -1.05468,-4.00781 l 0,-0.21094 0.21093,0 1.47657,5.48438 0,0.84375 -0.21094,2.10937 c 0.56246,3e-5 1.05465,-1.68747 1.47656,-5.0625 l -0.42187,-4.21875 c -0.28129,4e-5 -0.42191,0.21098 -0.42188,0.63281 l -0.63281,0 0.21094,-0.21093 0,-0.21094 -0.21094,0 -0.21094,0.21094 -1.6875,-1.89844 0,-0.42188 -0.42187,0 m 2.32031,0.63282 0,0.63281 0.21094,0 c -4e-5,-0.42184 0.14059,-0.63278 0.42187,-0.63281 l 0.42188,0 c 1.31246,3e-5 2.29683,1.19535 2.95312,3.58593 l 0.21094,0 0,-0.42187 c -0.89066,-2.53121 -2.01566,-3.79684 -3.375,-3.79688 l -0.84375,0.63282 m -12.02344,0 0,0.21093 0.42188,0 0,-0.21093 -0.42188,0 m 5.0625,-0.21094 0.21094,0 0.21094,1.26562 c -0.18753,0.58598 -0.53909,1.00785 -1.05469,1.26563 l 0,-0.21094 c 0.42185,-0.60934 0.63278,-1.38277 0.63281,-2.32031 m 13.92188,0.42187 -0.21094,1.05469 0,1.05469 0.21094,0 c -4e-5,-1.12496 0.2812,-1.68746 0.84375,-1.6875 l 0.21093,0 -0.42187,-0.42188 -0.63281,0 m -12.65625,0.42188 0.42187,0.42187 0.21094,0 0.42187,-0.42187 -1.05468,0 m 1.6875,0 0.42187,0.42187 0,-0.42187 -0.42187,0 m -7.80469,0.21094 0,0.42187 0.63281,0 0,-0.42187 -0.63281,0 m 7.38281,0.42187 0,0.63281 0.63281,0 0,-0.21093 -0.42187,-0.42188 -0.21094,0 m -1.6875,0.63281 0,0.42188 0.21094,0 0.63281,-0.63281 0,-0.21094 -0.42187,0 -0.42188,0.42187 m -15.39844,0 c -0.37501,1.26566 -1.14845,1.89848 -2.32031,1.89844 l 0.21094,0.63281 0.63281,0 c 0.32811,4e-5 0.89061,-0.84371 1.6875,-2.53125 l -0.21094,0 m 9.07032,0.42188 0.21093,0.21094 0.42188,0 0.42187,-0.42188 -0.21093,-0.21094 -0.42188,0 -0.42187,0.42188 m 1.47656,-0.42188 0,0.21094 0.42187,0 0,-0.21094 -0.42187,0 m 16.24219,0 0,0.42188 0.21093,0 0,-0.42188 -0.21093,0 m 8.85937,0.21094 c -5e-5,0.28129 -0.56255,0.42191 -1.6875,0.42188 l -0.63281,0.84375 0,0.63281 0.63281,0.63281 0.21094,0 -0.42188,-0.84375 c 0.28121,-0.63278 0.56246,-0.98434 0.84375,-1.05469 l 0.63282,0 c 0.70307,0.3516 1.05463,0.9141 1.05468,1.6875 -0.37504,0.84379 -1.28911,1.26566 -2.74218,1.26563 l 0,0.21094 1.05468,0 c 1.26558,3e-5 1.89839,-0.56247 1.89844,-1.6875 l 0,-0.63282 c -5e-5,-0.74996 -0.2813,-1.24215 -0.84375,-1.47656 m -19.40625,0.63281 0,0.21094 0.84375,0.21094 0.21094,-0.21094 0,-0.63281 -0.63281,0 -0.42188,0.42187 m -26.15625,0 0,0.63282 -0.63281,1.05468 0.21094,0 0.63281,-0.84375 0,-0.63281 -0.21094,-0.21094 m 15.39844,-0.42187 0.21094,0 c 0.60935,0.46878 1.17185,1.38285 1.6875,2.74219 -0.70315,3e-5 -1.33596,-0.84372 -1.89844,-2.53125 l 0,-0.21094 m 5.27344,0.63281 0.21093,0.21094 0.42188,0 0,-0.63281 -0.21094,0 -0.42187,0.42187 m -1.47657,0.63281 0.42188,0.42188 c 0.42185,-0.0937 0.7031,-0.37497 0.84375,-0.84375 l -0.21094,-0.21094 -0.42187,0 -0.63282,0.63281 m 5.27344,-0.63281 0,0.42188 0.42188,0.42187 0.63281,-0.63281 0,-0.21094 -1.05469,0 m -2.74219,0.42188 0,0.42187 0.21094,0 0,-0.42187 -0.21094,0 m -10.33593,0.21093 c -0.25783,3.09379 -0.75002,4.64066 -1.47657,4.64063 l 0.21094,0.21094 0,0.21093 c 0.98436,3e-5 1.47655,-1.54684 1.47656,-4.64062 l 0,-0.42188 -0.21093,0 m 14.76562,0.42188 0,0.21094 0.42188,0.42187 0.63281,-0.63281 -0.42188,-0.42188 -0.21093,0 -0.42188,0.42188 m -5.69531,0.21094 0,0.63281 0.21094,0 0.63281,-0.63281 0,-0.42188 -0.42188,0 -0.42187,0.42188 m 2.74219,0 0,0.63281 0.84375,0 0,-0.42188 0.21093,0 -0.21093,-0.63281 -0.42188,0 -0.42187,0.42188 m 8.85937,-0.63282 0.21094,0 0.21094,1.05469 0,1.05469 -0.42188,0.42187 0,-2.53125 m 3.58594,0.21094 0,0.42188 0.21094,0 0,-0.42188 -0.21094,0 m -36.49219,2.53125 0,1.26563 c 0,0.91409 0.63281,1.61721 1.89844,2.10937 l 0,-0.21094 c -1.125,-0.56247 -1.6875,-1.3359 -1.6875,-2.32031 l 0,-0.63281 c 0,-1.07809 0.77343,-1.78122 2.32031,-2.10938 1.10156,0.3516 1.73437,0.77347 1.89844,1.26563 l 0,1.05469 -1.05469,0.84375 -1.05469,-0.63282 0,0.42188 c 0,0.2344 0.35156,0.44534 1.05469,0.63281 0.70312,-0.18747 1.05468,-0.39841 1.05469,-0.63281 l 0.21094,0.21094 0.21093,0 0.42188,-0.42188 0,-0.21094 c -0.23438,-1.82809 -1.07813,-2.74215 -2.53125,-2.74218 l -0.63281,0 c -1.40626,0.28128 -2.10938,0.9844 -2.10938,2.10937 m 25.52344,-1.6875 0,0.21094 0.42187,0.42187 0.42188,-0.42187 0,-0.21094 -0.42188,-0.42187 -0.42187,0.42187 m 4.00781,-0.63281 0.63281,2.74219 -0.42187,0 -0.63281,-2.10938 0,-0.21094 0.42187,-0.42187 m -9.49219,0.42187 0,0.84375 0.63282,0 0,-0.42187 -0.42188,-0.42188 -0.21094,0 m 2.32032,0.21094 0,1.05469 0.42187,0 0,0.21094 0.63281,-0.21094 0,-0.63281 -0.42187,-0.42188 -0.63281,0 m 17.08593,0 0,0.63281 0.21094,0 0.42188,-0.42187 -0.21094,-0.21094 -0.42188,0 m 1.05469,0.42188 0,0.42187 0.42188,0 0.42187,-0.42187 -0.42187,-0.42188 -0.42188,0.42188 m -13.28906,0 0,0.42187 0.42187,0.42188 0.42188,0 0,-0.42188 -0.42188,-0.42187 -0.42187,0 m -24.04688,0.42187 -0.21093,1.05469 0,0.21094 0.84375,0 0,-0.63282 -0.63282,-0.63281 m 10.33594,0 0,0.63281 0.21094,0 0,-0.63281 -0.21094,0 m 7.17188,0.63281 0,0.21094 1.26562,0 0,-0.42187 -0.42187,-0.42188 -0.21094,0 -0.63281,0.63281 m 3.375,-0.63281 0,0.21094 0.42187,0.42187 0.21094,0 0.42187,-0.42187 0,-0.21094 -1.05468,0 m 11.39062,0 0,0.63281 0.21094,0.63282 c -1.12504,3e-5 -1.68754,0.21097 -1.6875,0.63281 l 0,0.63281 0.84375,0.63281 0,-0.21093 -0.63281,-0.63282 0,-0.21093 0.42187,-0.42188 0.63281,0 c 0.56247,3e-5 0.84372,0.91409 0.84375,2.74219 l 0.21094,0 0.21094,-1.47656 -0.84375,-2.95313 -0.21094,0 m -9.07031,0.21094 0.42187,0.42187 0,-0.42187 -0.42187,0 m 12.86719,1.47656 0,0.21094 0.21093,0 0.63282,-1.47656 c -0.56255,0.14065 -0.84379,0.56253 -0.84375,1.26562 m -26.36719,-1.05469 c -2e-5,0.89066 0.91405,1.87503 2.74219,2.95313 l 0,0.21094 c -0.51565,3e-5 -1.28908,-0.42185 -2.32032,-1.26563 l 0,0.21094 c -1e-5,0.44534 0.77343,0.93753 2.32032,1.47656 l 0,0.42188 -0.21094,0 c -0.46877,2e-5 -0.96096,-0.21091 -1.47656,-0.63282 l 0,0.21094 c 0.86717,0.9844 1.92185,1.47659 3.16406,1.47656 l 0.42187,0 1.47657,-0.21093 0.21093,0.21093 0,0.42188 -1.05468,0.21094 c -1.28909,2e-5 -2.55471,-0.35154 -3.79688,-1.05469 l 0,0.21094 c 0.72655,0.56252 1.64061,0.91409 2.74219,1.05468 l 0,0.42188 -0.42188,0 -1.05468,-0.21094 c -2e-5,0.4219 0.77342,0.63284 2.32031,0.63281 l 0.42187,0 0,0.21094 c -2e-5,0.28128 -0.21095,0.4219 -0.63281,0.42188 l -0.84375,-0.21094 -0.21094,0 0,0.21094 1.05469,0.21093 0.63281,0 0,0.21094 -0.21093,0.21094 0,0.21094 1.26562,0.42187 0.21094,0 1.05469,-0.21094 0,-0.21093 -1.05469,-0.21094 0,-0.63281 2.10937,0 1.6875,-1.26563 -0.21093,-0.21094 0,-0.63281 c 0.96091,3e-5 1.80466,-1.19528 2.53125,-3.58594 l -0.21094,0.21094 -1.6875,0 -1.05469,0.21094 -0.21094,-0.63281 c -0.96096,3e-5 -1.87502,0.35159 -2.74218,1.05468 l -0.21094,0 0,-0.42187 0.21094,-0.21094 0,-0.21094 -0.63282,-0.21093 -2.74218,1.05468 -0.21094,0 c -0.89064,3e-5 -2.01564,-0.84372 -3.375,-2.53125 m 27.63281,0.42188 0.63281,0 0,-0.42188 -0.21093,0 -0.42188,0.42188 m -15.1875,0.21094 0,0.21093 0.42188,0.42188 0.21093,0 0.42188,-0.42188 0,-0.21093 -0.42188,-0.42188 -0.21093,0 -0.42188,0.42188 m -7.80469,0.21093 0,0.21094 0.63282,0 0.42187,-0.42187 0,-0.21094 -0.63281,0 -0.42188,0.42187 m 1.6875,0 0.42188,0 0,0.21094 0.63281,-0.21094 -0.42187,-0.42187 -0.21094,0 -0.42188,0.42187 m 2.95313,-0.42187 0,0.63281 0.21094,0 c 0.56247,-0.2109 0.84372,-0.42184 0.84375,-0.63281 l -1.05469,0 m 4.85156,0 0,0.63281 1.05469,0 0,-0.63281 -1.05469,0 M 199,170.07395 l 0,0.21093 0.21094,0 1.05468,-0.21093 0,-0.21094 -0.63281,0 L 199,170.07395 m 2.53125,-0.21094 0,0.21094 1.05469,0.21093 0.21093,0 0,-0.21093 -0.84375,-0.21094 -0.42187,0 m -20.46094,0.21094 0,0.21093 0.42188,0.42188 0.63281,0 0,-0.63281 -1.05469,0 m -3.16406,0.63281 0.84375,0 0,-0.42188 -0.42188,0 -0.42187,0.42188 m 20.67187,-0.42188 -1.26562,1.47657 0.21094,0 1.26562,-1.47657 -0.21094,0 m 4.42969,0 0,0.21094 1.47656,1.26563 c -5e-5,-0.44529 -0.49223,-0.93747 -1.47656,-1.47657 m -0.63281,0.42188 0,0.21094 0.42187,0.42187 0,-0.21094 -0.42187,-0.42187 m -43.66406,0.42187 0,0.84375 0.63281,0.42188 0,-0.21094 c -0.28125,3e-5 -0.42188,-0.35153 -0.42188,-1.05469 l -0.21093,0 m 24.89062,0.84375 0.63281,0.21094 c 0.42185,-0.0937 0.7031,-0.37497 0.84375,-0.84375 l -0.21093,-0.21094 -0.63282,0 -0.63281,0.84375 m 16.875,-0.21093 0,0.21093 c 1.82808,3e-5 2.74214,0.77347 2.74219,2.32032 l 0.21094,0 0,-0.84375 c -0.60943,-1.12497 -1.31255,-1.68747 -2.10938,-1.6875 l -0.84375,0 m -34.17187,0.21093 0,0.21094 0.42187,0.42188 0.21094,0 0.21094,-0.21094 -0.21094,0 -0.63281,-0.42188 m 12.44531,-0.21093 1.05469,0 0,0.21093 c -0.44534,3e-5 -1.07815,0.28128 -1.89844,0.84375 l 0,-0.21093 0.84375,-0.84375 m 6.75,0.21093 0.42187,0.42188 0.21094,0 0,-0.42188 -0.63281,0 m 11.60156,0 -0.21094,0.21094 0,0.21094 0.21094,0 0.21094,-0.21094 0,-0.21094 -0.21094,0 m 2.10938,0.84375 0,0.21094 1.05468,-1.05469 -0.21093,0 -0.84375,0.84375 m 5.27343,-0.84375 0,0.63282 0.21094,0 0,-0.63282 -0.21094,0 m -21.09375,0.63282 0,0.21093 0.42188,0.42188 0.21094,0 0,-0.63281 -0.63282,0 m 1.6875,0 c -0.70315,0.72659 -1.05471,1.42971 -1.05468,2.10937 l -0.21094,-0.21094 -0.42188,0 c -0.21096,3e-5 -0.77346,0.9844 -1.6875,2.95313 l -1.05468,0.42187 0,0.21094 0.42187,0 c -2e-5,0.4219 -0.35159,0.63284 -1.05469,0.63281 l 0,0.21094 0.42188,0 c 0.84372,-0.3281 1.75778,-0.96091 2.74219,-1.89844 l 0.21093,0.21094 -1.6875,1.6875 0.21094,0 0.84375,-0.63281 0.21094,0 0,0.21094 -0.21094,0.21093 0,0.21094 0.21094,0 c 0.72653,2e-5 1.92184,-1.19529 3.58594,-3.58594 l 0,-1.26562 -0.21094,0.21094 -0.42188,0 c -0.25784,-1.12498 -0.53909,-1.68747 -0.84375,-1.6875 m 11.60157,0 -0.42188,0.84375 0.21094,0 0.42187,-0.84375 -0.21093,0 m 0.21093,0.84375 0.21094,0 0.63281,-0.63282 0.63282,0.21094 c -5e-5,-0.28122 -0.21098,-0.42184 -0.63282,-0.42187 -0.46879,0.14065 -0.75004,0.4219 -0.84375,0.84375 m -29.10937,-0.63282 -1.26563,1.47657 0,0.63281 c -1e-5,0.51565 0.49218,1.42971 1.47657,2.74219 l 0,0.63281 -0.42188,0.63281 0.21094,0 0.42187,-0.63281 0,-0.63281 -1.05468,-2.74219 0,-0.21094 c 0.23436,-0.56247 0.72655,-0.84372 1.47656,-0.84375 0.98436,0.4219 1.47655,1.12503 1.47656,2.10938 -1e-5,2.08596 -1.75782,3.77346 -5.27344,5.0625 -1.57032,0.93752 -2.69532,1.9922 -3.375,3.16406 l 0.21094,0.63281 c -0.5625,0.28127 -0.84375,0.70314 -0.84375,1.26563 2.22656,-1.9453 3.98437,-2.99999 5.27344,-3.16407 l 1.6875,-0.42187 0.42187,0.42187 c -2.36719,0.4219 -4.33594,1.26565 -5.90625,2.53125 l -1.26562,1.47657 0.21094,0 0.42187,-0.42188 0.21094,0 0,0.21094 -0.84375,1.05469 0,0.42187 c 1.92187,-2.24998 3.74999,-3.37498 5.48437,-3.375 l 1.26563,0 1.6875,0.42188 0,-0.21094 -0.42188,-0.42188 0,-0.21093 0.42188,0 0.63281,0.42187 1.26563,0 -0.21094,-0.21094 0,-0.21093 c 1.26561,-0.2578 1.89842,-0.53905 1.89844,-0.84375 -0.56252,1e-5 -1.40627,-0.70311 -2.53125,-2.10938 l 0.21093,-0.21094 -1.26562,-0.42187 -0.21094,0 -1.6875,0.42187 -0.42187,0 0,-0.63281 c 3.23436,-0.30466 4.85154,-1.28904 4.85156,-2.95312 l 0.21094,-1.05469 -0.84375,0.42187 c -0.21096,-2.53122 -1.19533,-3.79684 -2.95313,-3.79687 l -0.42187,-0.42188 -0.21094,0 m 36.70312,0.21094 0,0.42188 0.21094,0 0,-0.42188 -0.21094,0 m -23.625,0 c -1.45315,1.26565 -2.78908,1.89847 -4.00781,1.89844 l 0,-0.63281 4.00781,-1.26563 M 199,173.23801 l 0,0.42187 0.21094,0 0,-0.42187 -0.21094,0 m -5.69531,0.21094 0,0.63281 0.21093,0 0,-0.63281 -0.21093,0 m -36.49219,2.10937 c 0.28125,0.84378 0.84375,1.26565 1.6875,1.26563 l 0.42187,0 0,-0.21094 c -0.63281,2e-5 -1.125,-0.28123 -1.47656,-0.84375 l 0,-0.84375 c 0.35156,-0.7031 0.91406,-1.05466 1.6875,-1.05469 l 0,-0.21094 -0.63281,0 c -0.86719,3e-5 -1.42969,0.63284 -1.6875,1.89844 m 25.94531,-1.89844 0,0.21094 0.63281,0 0,-0.21094 -0.63281,0 m 5.27344,0.63282 c -3e-5,0.84377 -0.28128,1.75783 -0.84375,2.74218 l 0.21094,0 c 0.56246,-0.91403 0.84371,-1.68747 0.84375,-2.32031 l 0,-0.42187 -0.21094,0 m 5.0625,0 0,0.42187 0.21094,0 0,-0.42187 -0.21094,0 m 4.00781,1.26562 c 0.14058,0.46878 0.42183,0.75003 0.84375,0.84375 l 0,-0.21094 c -0.3516,3e-5 -0.56254,-0.28122 -0.63281,-0.84375 -4e-5,-0.56247 0.77339,-0.84372 2.32031,-0.84375 l 0,-0.21093 -1.47656,0 c -0.70317,0.2344 -1.05473,0.65627 -1.05469,1.26562 m 2.74219,-1.05469 0,0.21094 0.42187,0 0,-0.21094 -0.42187,0 m 3.375,0 c -5e-5,0.70316 -0.14067,1.26565 -0.42188,1.6875 l 0.21094,0 0.63281,-1.6875 -0.42187,0 m -3.16406,1.26563 0,0.21094 0.21093,0 2.10938,-0.84375 0,-0.21094 -0.42188,0 -1.89843,0.84375 m -10.96875,0.21094 0,0.84375 0.42187,0 -0.21094,-0.21094 0,-0.42188 0.63282,-0.63281 0.84375,0.84375 0,0.42188 c -4e-5,0.70315 -0.56254,1.61721 -1.6875,2.74218 l 0.21093,0 c 1.26559,-1.19529 1.89841,-2.24997 1.89844,-3.16406 -0.28128,-0.63279 -0.56253,-0.98435 -0.84375,-1.05469 l -0.63281,0 -0.63281,0.63282 M 199,175.34738 l 0,0.63282 c 0.37495,0.91408 0.72652,1.40627 1.05469,1.47656 l 0,-0.21094 c -0.4688,-0.11716 -0.75005,-0.74997 -0.84375,-1.89844 l -0.21094,0 m -4.21875,0.63282 -0.21094,0.21093 0,0.21094 0.21094,0 0.21094,-0.21094 0,-0.21093 -0.21094,0 m -17.71875,0 0.21094,0 c -0.32815,0.84377 -0.6094,1.26565 -0.84375,1.26562 l 0,-0.42187 c 0.21091,-0.56248 0.42185,-0.84373 0.63281,-0.84375 m 17.29687,0.63281 -0.21093,0.21094 0,0.21093 0.21093,0 0.21094,-0.21093 0,-0.21094 -0.21094,0 m 7.17188,0.42187 c -1.12505,0.9844 -1.68755,1.68753 -1.6875,2.10938 l 0,0.21094 0.21094,0 c -5e-5,-0.42186 0.56245,-1.19529 1.6875,-2.32032 l -0.21094,0 m 0.84375,0 0.21094,2.10938 0.21093,0 0,-1.47656 -0.21093,-0.63282 -0.21094,0 m -8.4375,0.21094 -1.6875,1.89844 0.21094,0 1.6875,-1.89844 -0.21094,0 m -28.26563,0.63281 0,0.63282 c -1e-5,0.42189 0.28124,0.63283 0.84375,0.63281 l 0.84375,0 0,-0.21094 c -0.60938,2e-5 -1.03126,-0.21091 -1.26562,-0.63281 -1e-5,-0.42185 0.28124,-0.63279 0.84375,-0.63281 l 0,-0.21094 -0.84375,0 -0.42188,0.42187 m 13.07813,-0.21093 0,0.21093 0.84375,0 0.63281,-0.21093 0,-0.21094 -0.21094,0 -1.26562,0.21094 m -4.42969,0.42187 0,0.21094 c 0.56248,0.0703 0.84373,0.28127 0.84375,0.63281 l 0,0.63281 c -2e-5,0.6094 -0.98439,0.96096 -2.95312,1.05469 l 0,0.21094 1.05468,0 c 1.68748,-0.14061 2.53123,-0.7031 2.53125,-1.6875 -0.23439,-0.7031 -0.65627,-1.05467 -1.26562,-1.05469 l -0.21094,0 m 24.04688,0 0,0.42188 0.21093,0 0,-0.42188 -0.21093,0 m -20.03907,0.42188 0,0.21093 0.63282,0 0.84375,-0.21093 0,-0.21094 -0.63282,0 -0.84375,0.21094 m -21.72656,0.84375 1.47656,2.95312 0,0.42188 c 0,0.70314 -0.42187,1.0547 -1.26562,1.05468 l 0,0.21094 0.84375,0 c 0.23437,2e-5 0.51562,-0.49217 0.84375,-1.47656 -0.1875,-0.89061 -0.75,-1.87498 -1.6875,-2.95313 l 0,-0.21093 0.42187,-0.42188 0.63282,0 c 0.84374,0.51565 1.26562,1.3594 1.26562,2.53125 l 0,0.42188 -1.89844,8.85937 0,0.63281 c 0,3.23439 0.91406,4.85157 2.74219,4.85157 0.63281,-0.28125 0.98437,-0.5625 1.05469,-0.84375 l 0,-2.95313 -0.21094,0 0,1.05469 -0.21094,0 -0.21093,-1.47656 c 0.28124,-0.86718 0.6328,-1.35937 1.05468,-1.47657 l 0,0.21094 -0.42187,0.84375 0,0.21094 0.21094,0 c -1e-5,-0.91405 0.6328,-1.47655 1.89843,-1.6875 0.98437,0.16407 1.47656,0.79688 1.47657,1.89844 -1.40626,1.21875 -2.10939,2.13282 -2.10938,2.74218 0.0937,1.12501 0.65624,1.68751 1.6875,1.6875 l 0.63281,0 0.21094,-0.21093 0.21094,0 c -1e-5,0.25781 0.6328,0.46875 1.89844,0.63281 l 0,0.84375 0.42187,-0.42188 0,-0.63281 c -1e-5,-0.28124 -0.56251,-0.56249 -1.6875,-0.84375 l 0,-0.42187 0.42188,-1.26563 -0.21094,-0.63281 -0.21094,0 c -1e-5,0.72657 -0.35157,1.28907 -1.05469,1.6875 l 0,0.21094 0.21094,0.84375 -1.26562,0 c -0.23439,0 -0.58595,-0.42187 -1.05469,-1.26563 -1e-5,-0.42187 0.98437,-1.1953 2.95312,-2.32031 l 0,-1.26563 c -1e-5,-1.17186 -0.70313,-1.9453 -2.10937,-2.32031 l 0,-0.21094 0.21094,-0.21093 0,-0.21094 -0.63282,0 c -2.0625,1e-5 -3.25781,1.6172 -3.58593,4.85156 l 0,1.47656 -0.42188,0 -0.42187,-0.42187 0,-1.47656 0.21093,-0.84375 0,-0.21094 -0.21093,0 c -0.14063,0.84376 -0.35157,1.26563 -0.63282,1.26562 l 0,-0.42187 c 0,-1.05468 0.35156,-1.89843 1.05469,-2.53125 l 0,0.21094 -0.21094,1.05468 0,0.21094 0.21094,0 c 0.84375,-1.7578 1.26562,-3.23436 1.26563,-4.42969 l 0,-0.21093 -1.26563,0.84375 -0.42187,0 0,-0.21094 c 1.26562,-0.89061 1.89843,-2.29686 1.89843,-4.21875 l 0,-0.84375 -0.42187,-1.47656 -0.63281,0.42187 c -1e-5,-1.96873 -0.70313,-2.9531 -2.10938,-2.95312 -0.46875,0.14064 -0.75,0.42189 -0.84375,0.84375 m 28.26563,-0.63282 0,0.21094 c 0.70309,2e-5 1.05465,0.35159 1.05468,1.05469 -0.67971,0.70314 -1.45315,1.05471 -2.32031,1.05469 l 0,0.21093 0.63281,0 c 1.40622,-0.49216 2.10935,-0.91404 2.10938,-1.26562 l 0,-0.84375 -0.63281,-0.63281 -0.84375,0.21093 m 16.24218,0 0,0.21094 c 1.12496,0.63284 1.68746,1.40627 1.6875,2.32031 l 0,0.84375 c -0.39848,0.70315 -0.82036,1.05471 -1.26562,1.05469 l 0,0.21094 0.21094,0 c 0.8437,-0.28123 1.26557,-0.84373 1.26562,-1.6875 l 0,-0.42188 c -5e-5,-1.03122 -0.63286,-1.87497 -1.89844,-2.53125 m -2.95312,0.21094 0,0.84375 0.21094,0 0,-0.84375 -0.21094,0 m -10.125,2.95313 0,0.21093 0.63281,0 c 3.32809,-1.54685 5.43746,-2.32029 6.32813,-2.32031 1.26558,0.18752 1.89839,0.82033 1.89843,1.89844 -0.28129,0.77346 -0.70316,1.26564 -1.26562,1.47656 l -0.63281,0 -0.21094,-0.21094 -0.21094,0 0,0.21094 0.63281,0.42188 0.84375,0 0.63282,-0.42188 0.63281,0.21094 0,-0.21094 0.42187,-1.26562 0,-0.21094 -0.21093,-0.84375 0.21093,-0.63281 c -0.67973,-0.70311 -1.45316,-1.05467 -2.32031,-1.05469 -1.14847,2e-5 -3.5391,0.91408 -7.17187,2.74219 l -0.21094,0 m -9.49219,-2.53125 0,0.21093 c 0.42185,3e-5 0.63279,0.14065 0.63281,0.42188 l 0,0.63281 -0.42187,0.63281 0.42187,0 0.63282,-0.63281 0,-0.84375 -1.05469,-0.42187 -0.21094,0 m 19.82813,0.84375 0,0.63281 c 0.56245,1.42971 1.26558,2.27345 2.10937,2.53125 l 0.21094,0 0,-0.21094 c -1.4063,-0.53904 -2.10942,-1.52342 -2.10938,-2.95312 l -0.21093,0 m 1.47656,0 0,0.63281 0.84375,0.63281 0.21094,0 0,-0.21094 c -0.56255,2e-5 -0.8438,-0.35154 -0.84375,-1.05468 l -0.21094,0 m -33.75,0.63281 0.63281,0.21094 0,0.42187 c -1e-5,0.30471 -0.84376,0.65627 -2.53125,1.05469 l 1.89844,-1.6875 m 15.60937,0.42187 0,0.21094 1.47657,0 0,-0.21094 -1.47657,0 m 9.70313,0.84375 0,0.42188 0.21094,0 0,-0.42188 -0.21094,0 m 0.84375,0 0,0.42188 0.21094,0 0,-0.42188 -0.21094,0 m 0.42187,2.32032 -1.05468,-0.21094 -0.42188,0 -0.42187,0.42187 1.6875,0.21094 0,-0.21094 0.84375,0.42188 0,-0.21094 -0.42188,-0.42187 0.42188,-0.42188 0.21093,0 -0.21093,-1.47656 c -0.25785,2e-5 -0.46879,0.63283 -0.63282,1.89844 m -16.24218,-1.6875 0,0.21093 0.42187,0 0,-0.21093 -0.42187,0 m 7.59375,0 0,0.21093 c 2.67184,2e-5 4.00778,0.49221 4.00781,1.47657 l 0,0.21093 -0.63281,0.63282 0.21093,0 0.63282,-0.63282 0,-0.21093 c -4e-5,-1.12499 -0.84379,-1.68748 -2.53125,-1.6875 l -1.6875,0 m 6.75,0 0,0.42187 0.42187,0 -0.42187,-0.42187 m -22.35938,0 0.21094,0 c 0.74998,2e-5 1.80467,0.28126 3.16406,0.84375 l 0,0.21093 -0.63281,0 -2.74219,-0.63281 0,-0.42187 m 4.85156,0.21093 0,0.21094 0.42188,0 0,-0.21094 -0.42188,0 m -13.28906,0 0.42188,0 0,1.6875 -0.21094,0 -0.21094,-1.05468 0,-0.63282 m 13.92188,0.21094 0,0.21094 c 3.98435,2e-5 7.92184,3.58595 11.8125,10.75781 2.2734,2.95313 5.01559,4.42969 8.22656,4.42969 l 0.63281,0 c 0.5859,-0.42187 1.35934,-0.63281 2.32031,-0.63281 l 0.21094,0.21093 0,0.21094 -0.21094,0.21094 0.21094,0 5.90625,-1.05469 0.84375,0 c 0.42183,1e-5 0.63276,0.28126 0.63281,0.84375 l 0.21094,0 0,-0.84375 c -5e-5,-0.42187 -0.56255,-0.63281 -1.6875,-0.63281 l 0.42188,-0.63281 -0.21094,-0.21094 -1.05469,0 c -0.44536,0 -1.64067,0.70313 -3.58594,2.10937 l -1.47656,0 0,-0.42187 c 1.54683,-0.25781 2.32027,-0.53906 2.32031,-0.84375 l -0.42187,0 1.05469,-1.47656 0,0.63281 -0.21094,0.21094 0,0.21093 0.21094,0 0.21093,-0.21093 0,-1.47657 c -0.56254,1e-5 -0.84379,-0.35155 -0.84375,-1.05468 -0.56254,-0.84374 -1.26566,-1.26562 -2.10937,-1.26563 -1.26567,0.25782 -1.89848,0.82032 -1.89844,1.6875 0.23434,0.70313 0.5859,1.0547 1.05469,1.05469 l 0.63281,-0.21094 0,-0.21094 c -0.56254,1e-5 -0.84379,-0.21093 -0.84375,-0.63281 0.23434,-0.70312 0.65621,-1.05468 1.26563,-1.05469 0.8437,0.28126 1.26558,0.84376 1.26562,1.6875 l 0,0.21094 c -4e-5,1.61719 -1.54692,2.60157 -4.64062,2.95313 l -1.47657,0 c -3.46878,0 -6.56253,-2.8125 -9.28125,-8.4375 -3.07033,-4.07811 -5.95314,-6.11717 -8.64843,-6.11719 l -0.21094,-0.21094 -0.63281,0 m 4.00781,0 0,0.21094 0.42187,0 0,-0.21094 -0.42187,0 m 13.92187,0 0,0.63281 0.42188,0 0,-0.63281 -0.42188,0 m 6.75,0 c -0.3516,1.28908 -1.12504,2.97658 -2.32031,5.0625 l -0.21094,-0.21094 -0.21093,0 0,0.21094 0.21093,0.21094 c -2.43753,2.53126 -5.46097,4.07813 -9.07031,4.64062 l -0.63281,0 1.05469,1.6875 c 7.03121,-1.78124 10.54683,-3.96092 10.54687,-6.53906 l 0.84375,-4.64062 0,-0.42188 -0.21094,0 m 4.42969,0.42188 0.21094,0.21093 -0.42188,0.42188 1.26563,0.42187 c -5e-5,-0.42185 0.21089,-0.63279 0.63281,-0.63281 l -1.05469,-0.84375 -0.21093,0 -0.42188,0.42188 m -3.79687,-0.21094 c -0.58598,5.20314 -1.42973,7.8047 -2.53125,7.80469 -2.17973,1.75782 -5.06254,3.09375 -8.64844,4.00781 l 0,0.21094 0.21094,0 c 5.2734,-1.33593 8.64839,-3.09374 10.125,-5.27344 l 1.05468,-5.90625 0,-0.84375 -0.21093,0 m -20.25,0.21094 0,0.21093 4.64062,2.32032 0.21094,0 0,-0.21094 -4.64063,-2.32031 -0.21093,0 m -5.0625,0.21093 0,0.21094 c 4.92185,1.50002 7.38278,4.2422 7.38281,8.22656 l 0,0.63282 0.42187,0 0,-0.21094 c -2e-5,-4.21874 -2.25002,-7.10155 -6.75,-8.64844 l -0.84375,-0.21094 -0.21093,0 m 10.125,0.42188 0,0.84375 1.47656,1.6875 -0.21094,0 -1.26562,-0.21094 c -0.56253,2e-5 -0.98441,0.35158 -1.26563,1.05469 l 0.84375,-0.21094 1.6875,0.42188 0.84375,-0.63282 0,-0.42187 c -3e-5,-0.74999 -0.56253,-1.52342 -1.6875,-2.32031 l 0,-0.63282 -0.42187,0.42188 m 16.45312,-0.21094 c -4e-5,0.70314 -0.14067,1.05471 -0.42187,1.05469 l 0,0.42187 0.42187,0 0.42188,-0.42187 -0.21094,-1.05469 -0.21094,0 m 1.47656,0 0,1.05469 -0.21093,-0.21094 -0.21094,0 -0.42188,1.89844 -0.21093,0 -0.21094,-0.21094 -0.21094,0 c -4e-5,0.70314 -0.14067,1.0547 -0.42187,1.05469 l 0.42187,1.6875 -0.21094,0 -0.21093,-0.21094 -0.21094,0 0,1.26563 c 1.68745,1.78126 2.5312,3.04688 2.53125,3.79687 l 0.21094,0 0,-0.63281 -0.21094,-0.84375 0.21094,0 0.21093,0.21094 0.21094,0 -0.21094,-0.21094 0,-0.42188 0.21094,0 0.21094,0.21094 0.21094,0 0,-0.84375 -0.84375,-2.32031 0.21093,-0.21094 0.21094,0 0.63281,1.6875 0.21094,0 0,-0.63281 0.21094,0.21094 0.21094,0 0,-0.42188 -0.42188,-1.05469 0.63281,0 -0.42187,-2.32031 c -0.2813,2e-5 -0.42192,0.21095 -0.42188,0.63281 l -0.42187,0 0.21094,-0.21093 0,-0.21094 -0.21094,0 -0.21094,0.21094 -0.84375,-2.95313 -0.21094,0 m -34.59375,0 1.47657,0.21094 0,0.42187 -2.95313,-0.21093 0,-0.21094 1.47656,-0.21094 m 28.89844,0.63281 -0.42187,0.63282 0,0.21093 0.21093,0 0.42188,-0.84375 -0.21094,0 m -21.30469,0.21094 0,0.21094 c 1.54686,0.56251 2.32029,1.26564 2.32032,2.10937 -0.28128,0.63283 -0.56252,0.98439 -0.84375,1.05469 l -0.42188,0 -0.84375,-0.63281 0,0.21094 0.63281,0.63281 1.05469,0 c 0.56248,-0.23436 0.84373,-0.72655 0.84375,-1.47656 -0.25783,-0.84374 -1.10158,-1.54686 -2.53125,-2.10938 l -0.21094,0 m 18.5625,0.21094 0,0.21094 c 0.70309,0.39845 1.05465,0.82032 1.05469,1.26562 l 0.21094,0 0,-0.63281 -1.26563,-0.84375 m -23.83593,0.21094 0,0.21093 c 0.84373,2e-5 1.26561,0.70314 1.26562,2.10938 l 0.42188,0 c -2e-5,-0.70311 0.21092,-1.05467 0.63281,-1.05469 -2e-5,-0.70311 -0.70314,-1.12498 -2.10938,-1.26562 l -0.21093,0 m -5.69532,1.47656 c 4.64062,5.62501 10.33592,8.43751 17.08594,8.4375 l 4.00781,0 0,-0.21094 -1.05468,-1.47656 -2.32032,0 c -5.39064,1e-5 -10.03126,-2.46093 -13.92187,-7.38281 l -0.63281,-0.63282 c -2.10939,0.42189 -3.16407,0.84377 -3.16407,1.26563 m 3.79688,-1.26563 0,0.21094 0.21094,0.21094 0.21093,0 0,-0.21094 -0.21093,-0.21094 -0.21094,0 m 19.61719,0.42188 0.21093,0.21094 0,0.21093 -0.42187,0.42188 0.21094,0.21094 -0.42188,0 0,0.42187 c 0.42184,2e-5 0.63278,0.14064 0.63281,0.42188 l -0.21093,0.21093 -0.21094,0 -0.63281,-0.21093 0.21093,0.21093 0,0.42188 -0.21093,0 -0.63282,-0.42188 0,0.42188 0.42188,0 0,0.42187 -0.42188,0 0,0.42188 c 0.98435,1.07814 1.47653,1.9922 1.47657,2.74219 l 0.21093,0 c -3e-5,-0.56249 0.21091,-0.84374 0.63282,-0.84375 l 0,-0.42188 -1.05469,-1.26562 0,-0.42188 0.42187,0 1.47657,1.26563 1.47656,-2.10938 0,-0.21094 c -4e-5,-0.28123 -0.63285,-0.49217 -1.89844,-0.63281 l -0.21094,-0.63281 0.42188,0 0,-0.21094 1.6875,0.42188 0.21094,0 -0.21094,-0.21094 0,-0.21094 0.63281,-0.63281 0,-0.21094 -0.84375,0.42188 -2.32031,-0.42188 -0.63281,0.21094 m 8.22656,-0.21094 0,0.63281 0.21094,0 0,-0.63281 -0.21094,0 m -27.42188,0.42188 0,0.21093 0.21094,0.21094 0.21094,0 0,-0.21094 -0.21094,-0.21093 -0.21094,0 m 4.64063,0 0,0.21093 c 0.84373,2e-5 1.26561,0.42189 1.26562,1.26563 l -1.05468,1.6875 0.21093,0 c 0.84374,-0.89061 1.26561,-1.52342 1.26563,-1.89844 -2e-5,-0.84373 -0.28127,-1.26561 -0.84375,-1.26562 l -0.84375,0 m 29.10937,0 0.21094,0 c -5e-5,1.00782 0.2812,1.85157 0.84375,2.53125 l 0,0.21093 -0.63281,0 -0.42188,-1.89843 0,-0.84375 m -10.33593,0.63281 0,0.21094 c 0.84371,1e-5 1.26558,0.21095 1.26562,0.63281 l 0,0.63281 c -0.0938,0.56251 -0.79691,0.84376 -2.10937,0.84375 l 0,0.21094 1.26562,0 c 0.5859,-0.18749 1.00778,-0.53905 1.26563,-1.05469 l 0,-0.21094 c -4e-5,-0.84373 -0.28129,-1.26561 -0.84375,-1.26562 l -0.84375,0 m 2.95312,1.05469 0,0.42187 0.21094,0 0,-0.42187 -0.21094,0 m -0.21094,0.63281 c -0.44535,0.84376 -1.14847,1.26564 -2.10937,1.26562 l 0,0.21094 0.63281,0 c 0.9609,-0.35155 1.5234,-0.84374 1.6875,-1.47656 l -0.21094,0 m -14.55468,0.21094 c -3e-5,0.84376 -0.21097,1.26563 -0.63282,1.26562 l 0,0.42188 0.42188,0 c 0.28122,1e-5 0.42185,-0.21093 0.42187,-0.63282 l 0,-1.05468 -0.21093,0 m -6.96094,1.26562 0,0.21094 0.63281,0 c -2e-5,-0.37499 0.56248,-0.65624 1.6875,-0.84375 1.40623,0.18751 2.10935,0.82032 2.10938,1.89844 l 0,0.42187 c -3e-5,0.28126 -0.21096,0.42189 -0.63282,0.42188 l 0,0.21093 c 0.98436,1e-5 1.61717,0.14064 1.89844,0.42188 l 0.84375,-1.47656 c -0.28127,1e-5 -0.77346,-0.42187 -1.47656,-1.26563 -0.72659,-0.56249 -1.50002,-0.84374 -2.32031,-0.84375 l -0.63282,0 -2.10937,0.84375 m 17.71875,-0.21094 0,0.21094 0.84375,0 0,-0.21094 -0.84375,0 m -16.875,0.63282 0,0.21093 0.21094,0 0.21093,-0.21093 0.21094,0 c 0.56248,1e-5 0.84373,0.35157 0.84375,1.05468 l 0.42188,0 0,-0.63281 c -0.14065,-0.42186 -0.56252,-0.6328 -1.26563,-0.63281 l -0.63281,0.21094 m 26.78906,-0.42188 c 0.98433,0.63282 1.47652,1.33595 1.47656,2.10938 -0.98442,-0.37499 -1.4766,-1.07812 -1.47656,-2.10938 m -10.33594,0.42188 0,0.21093 0.42188,0 0,-0.21093 -0.42188,0 m -5.69531,0.21093 0,0.21094 0.21094,0.21094 0.21094,0 0,-0.21094 -0.21094,-0.21094 -0.21094,0 m 6.32813,0 0.21093,0.63282 0.21094,0 0,-0.63282 -0.42187,0 m -4.21875,0.63282 0,0.21093 -0.42188,0.42188 -0.42187,0 -0.84375,-0.63281 0,0.21093 0.84375,0.63282 0.63281,0 0.42187,-0.42188 0,-0.21094 -0.21093,-0.21093 m 17.29687,-0.21094 0,0.84375 0.21094,-0.21094 0.21094,0 -0.21094,-0.63281 -0.21094,0 m -20.46094,0.63281 0,1.05469 0.42188,-0.42188 -0.21094,-0.63281 -0.21094,0 m 17.29688,1.26563 0.63281,1.05468 -0.42187,0.84375 0.21093,0 0.42188,-1.05468 -0.63281,-0.84375 -0.21094,0 m 2.32031,0.42187 0,0.42188 0.21094,0 0,-0.42188 -0.21094,0 m -33.96094,0.84375 0,0.63281 0.42188,0 0,-0.21093 -0.42188,-0.42188 m 2.32032,0 0,0.21094 c 0.86717,2.53125 2.13279,3.79688 3.79687,3.79687 l 1.47656,0.21094 c 1.40623,0 2.60154,-0.56249 3.58594,-1.6875 l -0.21094,0 c -0.98439,0.84376 -2.17971,1.26563 -3.58593,1.26563 l -0.63282,0 c -1.94533,0 -3.35158,-1.26562 -4.21875,-3.79688 l -0.21093,0 m -3.58594,0.21094 0,0.63281 0.63281,0 0,-0.63281 -0.63281,0 m 2.32031,0 0,0.42187 0.42188,0 0,-0.42187 -0.42188,0 m 32.27344,0 0,0.42187 0.21094,0 0,-0.42187 -0.21094,0 m -0.63281,0.21094 0,0.42187 -0.21094,-0.21094 -0.21094,0 0,0.21094 0.21094,0.21094 -0.42188,0.42187 0.84375,-0.21093 0,-0.84375 -0.21093,0 m -35.01563,0.63281 0.42188,0.42187 0.21093,0 0,-0.84375 -0.21093,0 -0.42188,0.42188 m 26.36719,-0.42188 0.42187,0.63282 c -3e-5,0.98438 -0.42191,1.47656 -1.26562,1.47656 l 0,0.21094 0.84375,0 0.84375,-0.84375 0,-1.05469 -0.42188,-0.42188 -0.42187,0 m 9.91406,0.21094 0,0.21094 0.42188,0 0.21093,-0.21094 0,-0.21094 -0.63281,0.21094 m 1.05469,-0.21094 0,0.21094 0.42187,0.42188 0.21094,0 0,-0.42188 -0.21094,-0.21094 -0.42187,0 m -30.79688,0.21094 -0.21093,0.21094 0,0.84375 0.84375,-0.84375 -0.63282,-0.21094 m 2.74219,0 0,0.21094 0.42188,0 0,-0.21094 -0.42188,0 m 0.63281,0.21094 0,0.21094 0.63282,0 0,-0.21094 -0.63282,0 m 0.84375,0.21094 0,0.21093 4.42969,0.42188 0.84375,0 0,-0.21094 -4.85156,-0.42187 -0.42188,0 m 8.64844,0 0,0.21093 c 0.98434,0.63282 1.47653,1.33595 1.47656,2.10938 l 0,0.21094 c -3e-5,0.28125 -0.21097,0.42187 -0.63281,0.42187 l 0,0.21094 1.05469,0 0.21094,-0.84375 c -4e-5,-0.375 -0.70316,-1.14843 -2.10938,-2.32031 m -3.16406,0.21093 0,0.21094 2.53125,0 0,-0.21094 -2.53125,0 m -25.3125,0.21094 0,0.42188 0.21094,0 0,-0.42188 -0.21094,0 m 10.75781,1.47656 0.63281,0.84375 c -1e-5,-0.98437 0.21093,-1.47655 0.63282,-1.47656 l 0.21093,0 c 0.56249,1e-5 1.47655,0.42188 2.74219,1.26563 l 0.21094,0 0,-0.21094 c -1.71095,-1.125 -2.76564,-1.6875 -3.16406,-1.6875 -0.84377,0 -1.26564,0.42188 -1.26563,1.26562 m 7.38281,-1.26562 0,0.63281 0.63282,0.63281 0.84375,0 0,-0.21093 c -0.84377,0 -1.26565,-0.35156 -1.26563,-1.05469 l -0.21094,0 m -17.50781,0.42187 0,0.42188 0.42188,0 -0.42188,-0.42188 m 22.57031,0.21094 -0.42187,1.26563 0,0.42187 0.63281,0.21094 -0.21094,-0.21094 0,-1.26562 0.21094,-0.21094 0,-0.21094 -0.21094,0 m 0.84375,0 0,0.63281 c 0.1406,0.84376 0.35154,1.26563 0.63282,1.26563 l 1.05468,0 0,-0.21094 c -0.70315,0 -1.19534,-0.56249 -1.47656,-1.6875 l -0.21094,0 m 2.74219,0 0.21094,1.05469 c -3e-5,0.42188 -0.35159,0.63281 -1.05469,0.63281 l 0,0.21094 0.63281,0 c 0.37497,0 0.72654,-0.35156 1.05469,-1.05469 -0.0938,-0.42187 -0.37503,-0.70312 -0.84375,-0.84375 m -25.3125,0.21094 0.42188,0.42187 0.21093,-0.21093 0,-0.21094 -0.63281,0 m 1.26563,0 0,0.21094 0.42187,0 0,-0.21094 -0.42187,0 m 17.29687,0.21094 0,0.21093 0.42188,0 0.63281,-0.21093 0,-0.21094 -0.21094,0 -0.84375,0.21094 m 13.07813,-0.21094 0,0.21094 0.42187,0 0,-0.21094 -0.42187,0 m -30.79688,1.05469 0,0.21093 1.47656,0.42188 0.63282,0 -0.84375,-1.05469 -1.26563,0.42188"
         id="path4066"
         style="font-size:72px;font-variant:normal;font-stretch:normal;font-family:Goudy Initials;-inkscape-font-specification:Goudy Initials" />
    </g>
  </g>
</svg>
