<?xml version="1.0" encoding="UTF-8" standalone="no"?>
<!-- Created with Inkscape (http://www.inkscape.org/) -->

<svg
   xmlns:dc="http://purl.org/dc/elements/1.1/"
   xmlns:cc="http://creativecommons.org/ns#"
   xmlns:rdf="http://www.w3.org/1999/02/22-rdf-syntax-ns#"
   xmlns:svg="http://www.w3.org/2000/svg"
   xmlns="http://www.w3.org/2000/svg"
   version="1.2"
   width="56.734375"
   height="56.734375"
   id="svg2">
  <defs
     id="defs4" />
  <metadata
     id="metadata7">
    <rdf:RDF>
      <cc:Work
         rdf:about="">
        <dc:format>image/svg+xml</dc:format>
        <dc:type
           rdf:resource="http://purl.org/dc/dcmitype/StillImage" />
        <dc:title></dc:title>
      </cc:Work>
    </rdf:RDF>
  </metadata>
  <g
     transform="translate(-152.28125,-146.34738)"
     id="layer1">
    <g
       id="flowRoot2985"
       style="font-size:40px;font-style:normal;font-weight:normal;line-height:125%;letter-spacing:0px;word-spacing:0px;fill:#ffffff;fill-opacity:1;stroke:none;font-family:Sans">
      <path
         d="m 154.28125,148.34738 52.73437,0 0,52.73438 -52.73437,0 0,-52.73438 m 1.05469,1.05469 0,50.625 50.625,0 0,-50.625 -50.625,0 m 0.42187,0.63281 49.57031,0 0,49.57032 -49.57031,0 0,-49.57032 m 0.63281,1.26563 c 0,0.42192 0.63281,0.8438 1.89844,1.26562 l 1.6875,-0.21093 0,-0.21094 c -1.82813,5e-5 -2.74219,-0.2812 -2.74219,-0.84375 l 0,-0.42188 1.05469,-0.21093 0,-0.21094 -0.84375,0 c -0.63281,0.2813 -0.98437,0.56255 -1.05469,0.84375 m 5.27344,1.26562 0.84375,0 c 0.0469,-0.44526 1.24218,-0.93745 3.58594,-1.47656 l 2.95312,-0.21094 0.63282,0 c 1.28904,5e-5 3.25779,0.49224 5.90625,1.47657 l 0.21093,0 0,-0.21094 c -2.48439,-1.12495 -4.87501,-1.68745 -7.17187,-1.6875 -3.09376,5e-5 -5.41407,0.70317 -6.96094,2.10937 m 14.76563,-1.05468 c 0.21091,0.56255 0.42185,0.8438 0.63281,0.84375 l 0.21094,0 -0.42188,-0.84375 c 0.21092,-0.56245 0.42185,-0.8437 0.63281,-0.84375 l 0.84375,0.63281 0,-0.21094 -1.05468,-0.63281 c -0.56252,0.14067 -0.84377,0.49224 -0.84375,1.05469 m 3.58593,-1.05469 -0.63281,0.84375 0,1.26562 0.84375,0 c -2e-5,-1.26557 0.56248,-1.89838 1.6875,-1.89843 0.63279,0.2813 0.98435,0.56255 1.05469,0.84375 l 0,0.42187 -0.42188,0.63281 0.21094,0 0.63281,-0.63281 c -2e-5,-0.67964 -0.35159,-1.17182 -1.05468,-1.47656 l -0.42188,0 c -0.46877,5e-5 -0.96096,0.21099 -1.47656,0.63281 -3e-5,-0.42182 -0.14065,-0.63276 -0.42188,-0.63281 m 4.21875,1.26562 0,0.63282 c 0.23435,0.56255 0.72654,0.84379 1.47657,0.84375 l 0.21093,0 1.89844,-0.42188 0,-0.21094 -1.05469,0.21094 -0.63281,0 c -0.84378,5e-5 -1.26565,-0.42182 -1.26562,-1.26562 l 0.63281,-0.42188 0.21094,0 0.84375,0.63281 0.21093,0 -1.05468,-1.26562 -0.21094,0 c -0.84378,5e-5 -1.26565,0.42192 -1.26563,1.26562 m 4.00782,2.53125 0.63281,0.42188 c -3e-5,-1.99214 2.10934,-3.25776 6.32812,-3.79688 l 0.84375,0 4.00782,1.05469 0.21093,0 0,-0.21094 c -2.32035,-0.8437 -4.35941,-1.26557 -6.11718,-1.26562 -3.79691,1.12505 -5.69535,2.32036 -5.69532,3.58594 l -0.21093,0.21093 m 13.5,-2.74218 -0.63282,-0.21094 0,0.63281 c 1.26558,1.2188 1.89839,2.13286 1.89844,2.74219 l -0.63281,0 c -5e-5,-0.89058 -0.63286,-1.5937 -1.89844,-2.10938 -1.68754,0.18755 -2.53129,0.4688 -2.53125,0.84375 l 0.21094,1.05469 0.63281,0 c -4e-5,-0.70308 0.35152,-1.05464 1.05469,-1.05469 0.25777,5e-5 1.10152,0.8438 2.53125,2.53125 l 0.84375,0 c 0.56245,-0.23433 0.8437,-0.72651 0.84375,-1.47656 l -1.05469,-2.74219 0,-0.42187 c -5e-5,-0.2812 0.42183,-0.42183 1.26563,-0.42188 l 0,-0.21093 -0.63282,-0.21094 c -0.51567,5e-5 -1.14848,0.35161 -1.89843,1.05469 m -1.89844,-0.84375 0,0.42187 0.63281,0.21094 0,-0.21094 -0.63281,-0.42187 m -10.54688,1.26562 c 0.56247,-0.21089 0.84372,-0.42182 0.84375,-0.63281 -0.56253,0.21099 -0.84378,0.42192 -0.84375,0.63281 m -22.78125,0.21094 0,0.42187 1.05469,0.21094 0.63281,0 0,-0.21094 c -0.56251,5e-5 -0.84376,-0.14057 -0.84375,-0.42187 l 0.42188,-0.63281 -0.42188,0 c -0.56251,0.21098 -0.84376,0.42192 -0.84375,0.63281 m 27.21094,-0.63281 0,0.21093 0.42188,0 0,-0.21093 -0.42188,0 m -23.41406,0.84375 0.42187,0.42187 0.21094,0 c -1e-5,-0.56245 0.28124,-0.8437 0.84375,-0.84375 l 0,-0.21094 -0.84375,0 -0.63281,0.63282 m 20.88281,1.6875 0,0.21093 c -3e-5,0.98443 0.49215,1.47661 1.47656,1.47657 0.56247,4e-5 0.98434,-0.28121 1.26563,-0.84375 l 0,-0.21094 -1.26563,0.42187 -0.84375,-0.84375 0,-0.21093 c 0.28122,-1.4062 0.84372,-2.10933 1.6875,-2.10938 l 0,-0.21094 -0.21093,0 c -1.40629,0.60943 -2.10941,1.38286 -2.10938,2.32032 m -31.00781,-2.10938 0,0.21094 0.42187,0 0,-0.21094 -0.42187,0 m 36.07031,0.63281 0.21094,0 1.47656,-0.42187 0,-0.21094 -0.84375,0 c -0.56254,0.21099 -0.84379,0.42193 -0.84375,0.63281 m -1.05469,-0.42187 -0.21093,0.63281 0.21093,0 0.42188,-0.42187 0,-0.21094 -0.42188,0 m -37.75781,1.05469 0,0.63281 c 3.16406,5e-5 4.99218,1.61723 5.48438,4.85156 l 0,8.4375 0.21093,1.6875 -0.21093,2.32031 0,18.14063 c -1e-5,3.51563 -1.68751,5.27344 -5.0625,5.27344 l 0,0.21093 0.42187,0.42188 1.89844,0 17.92969,0.42187 c 4.75778,1e-5 8.8359,-1.12499 12.23437,-3.375 l -0.84375,-1.05468 0,-0.21094 0.21094,-0.21094 0,-0.21094 -0.21094,0 -0.21094,0.21094 0,-1.05469 c -3.56253,2.53126 -7.3594,3.79689 -11.39062,3.79688 l -0.84375,0 -9.49219,-0.21094 c -0.56251,-0.58593 -0.84376,-1.14843 -0.84375,-1.6875 l 0,-35.01562 c -1e-5,-0.84371 0.6328,-1.26558 1.89844,-1.26563 l 8.85937,-0.42187 c 4.61716,4e-5 8.34372,1.26567 11.17969,3.79687 l -0.21094,0 c -3.18753,-2.24995 -6.91408,-3.37495 -11.17968,-3.375 l -9.91407,0.42188 -0.42187,0.84375 0.21094,1.47656 0,33.53906 c 0.0937,0.84376 0.30467,1.26564 0.63281,1.26563 l -0.21094,-0.84375 -0.21094,-35.85938 0.21094,0 c 2.78905,-0.2812 6.4453,-0.42183 10.96875,-0.42187 4.71091,4e-5 9.07028,1.96879 13.07813,5.90625 l 0,-0.21094 -1.6875,-1.6875 0.21093,0 3.16407,3.16406 c 1.03121,4e-5 2.15621,-0.28121 3.375,-0.84375 -4.50004,-5.9062 -9.9141,-8.85933 -16.24219,-8.85937 l -3.375,0 -11.8125,0.21093 -6.32813,-0.42187 -1.47656,0.21094 m 37.96875,-0.21094 0,0.63281 0.63281,0 0,-0.21094 -0.42187,-0.42187 -0.21094,0 m 1.05469,0.42187 0,0.21094 0.84375,0 0,-0.21094 -0.42188,-0.42187 -0.42187,0.42187 m 4.00781,0 0.63281,0 c -4e-5,0.37505 0.35152,0.72661 1.05469,1.05469 l 0.42188,0.84375 -0.21094,0 -1.89844,-1.89844 m -43.03125,0.63282 0,0.21093 c 2.22656,0.82036 3.70312,1.5938 4.42969,2.32032 -1e-5,-0.86715 -1.47657,-1.71089 -4.42969,-2.53125 m 37.54688,0 0,1.26562 c 0.21089,1.26567 0.77339,1.89848 1.6875,1.89844 -4e-5,0.30473 -0.63286,0.51567 -1.89844,0.63281 0.42183,0.65629 1.26558,1.28911 2.53125,1.89844 l 0.21094,1.05469 c -5e-5,0.86722 -0.35161,1.78129 -1.05469,2.74218 l 0.21094,0 c 0.98433,-0.51558 1.47652,-1.71089 1.47656,-3.58593 l 0.42187,0 0,0.42187 -0.42187,1.6875 0,0.21094 0.21094,0 0.42187,-1.89844 0,-0.84375 -0.63281,-1.89844 0.21094,0 c 0.56245,0.23442 0.8437,0.72661 0.84375,1.47657 l 0,1.26562 L 199,161.42551 c 0.42183,-0.14059 0.63277,-0.56246 0.63281,-1.26563 l 0,-1.89843 c 0.28121,4e-5 0.42183,0.28129 0.42188,0.84375 l 0.21093,0 0.21094,-1.6875 -0.42187,-2.10938 -0.84375,0 c -5e-5,0.42192 -0.14067,0.63286 -0.42188,0.63281 -0.63285,-0.70307 -1.75785,-1.19526 -3.375,-1.47656 l -0.42187,-0.42187 m 8.4375,0.63281 0.21093,0.84375 -0.63281,0 0,-0.42188 0.42188,-0.42187 m -44.71875,0.84375 c -1.40626,2.67192 -2.10938,4.92191 -2.10938,6.75 0,1.75785 0.70312,4.8516 2.10938,9.28125 l 0,1.05469 c -1e-5,0.75002 -0.28126,1.24221 -0.84375,1.47656 l -0.42188,0 -0.63281,-0.63281 0.84375,-1.26563 0,-1.05469 -0.63281,0 0.21093,0.63282 -0.63281,1.6875 c 0,0.70315 0.42187,1.05471 1.26563,1.05468 0.86718,3e-5 1.49999,-0.70309 1.89843,-2.10937 l 0.63282,0 0,-0.21094 c -1e-5,-1.71091 -0.4922,-3.04684 -1.47657,-4.00781 l 0,-0.21094 0.63282,0 0,-0.63281 -0.21094,0.21094 -0.21094,0 -0.63281,-2.10938 0.84375,0.63281 0,-0.21093 c -1.26563,-1.61715 -1.89844,-2.67184 -1.89844,-3.16407 l 0.21094,-0.21093 0,-0.21094 -0.42188,0 0,-0.42188 0.42188,0 0,-0.21093 -0.42188,0 0.42188,-0.63282 -0.42188,0 0,-0.42187 0.42188,0 0,-0.21094 -0.42188,0 0,-0.42187 0.42188,0 0.42187,0.42187 -0.21093,0.21094 0.21093,0 -0.21093,0.21094 c -1e-5,1.71097 0.56249,3.18753 1.6875,4.42968 -1e-5,0.65629 0.77343,1.21879 2.32031,1.6875 l 0,-0.84375 c -0.28126,-0.56246 -0.63282,-0.84371 -1.05469,-0.84375 0.98437,-0.51558 1.47656,-1.28902 1.47656,-2.32031 l 0.21094,-0.21094 c -1e-5,-0.74996 -0.98438,-1.66402 -2.95312,-2.74218 l 0,-0.21094 c -1e-5,-0.98433 0.56249,-1.47652 1.6875,-1.47656 l 0,-0.21094 -1.05469,0 c -0.70313,0.18754 -1.05469,0.67973 -1.05469,1.47656 l 0,0.63281 c 0,0.75004 0.84375,1.59379 2.53125,2.53125 l 0,0.63282 -0.63281,0.63281 c -1.35938,4e-5 -2.20313,-1.12496 -2.53125,-3.375 l 0,-1.89844 1.05469,-2.95312 -0.21094,0 -0.63281,-0.21094 m 1.26562,0.42187 -0.21094,0.63282 0.63282,0.84375 -0.21094,-1.47657 -0.21094,0 m 36.49219,-0.21093 0.42187,0 0,0.63281 -0.42187,-0.42188 0,-0.21093 m 5.90625,0.84375 0.63281,0.63281 0.63281,0 0.84375,-0.84375 0,-0.21094 -0.21093,0 -1.89844,0.42188 m -26.36719,0.63281 0.21094,0.63281 0.21094,0 c -2e-5,-0.56245 0.42185,-0.8437 1.26562,-0.84375 l 0.42188,-0.42187 -0.21094,-0.21094 -1.05469,0 c -0.35158,4e-5 -0.56252,0.28129 -0.63281,0.84375 l -0.21094,0 m 3.58594,-0.84375 0,0.21094 c 0.98435,1.89848 1.47654,3.58598 1.47656,5.0625 l 0,1.26562 -0.21094,2.53125 c 0.44529,4e-5 0.72654,-0.70309 0.84375,-2.10937 -0.28127,-4.64059 -0.9844,-6.9609 -2.10937,-6.96094 m -11.17969,0.42187 0,0.42188 c -1e-5,1.1016 0.56249,2.36723 1.6875,3.79687 l 0,0.42188 -0.84375,0.21094 2.10938,3.79687 0.21093,1.47656 c -1e-5,1.75785 -0.98439,3.1641 -2.95312,4.21875 l -0.63281,0.63282 0.21093,0 c 1.05468,3e-5 2.24999,-0.91404 3.58594,-2.74219 L 172,169.2302 l 0,0.21093 -1.89844,2.10938 0.21094,0 1.47656,-1.05469 0.21094,0 -0.42188,0.63281 0.42188,0 c 0.35154,-0.0937 1.12498,-1.00778 2.32031,-2.74218 l 0,0.42187 -1.05469,1.6875 1.6875,-1.26562 0,0.21093 c 1.54686,-0.93746 2.32029,-1.99215 2.32032,-3.16406 l 0.21093,0.21094 0.21094,0 c 0.42185,3e-5 1.05467,-1.61715 1.89844,-4.85156 l -0.63281,-0.42188 0.21093,-1.89844 -0.21093,-2.32031 -0.21094,0 c -1.12502,0.60942 -1.68752,1.38286 -1.6875,2.32031 l -0.42188,0 -0.21093,-0.21093 -0.21094,0 -0.21094,0.63281 0.21094,3.16406 -0.21094,0.63281 -0.21094,0 -0.21093,-0.21093 -0.21094,0 0.21094,-1.47657 c -0.14065,-3.07027 -0.63284,-4.75776 -1.47657,-5.0625 l -0.42187,0 -0.21094,0.84375 -0.21094,0 c -1.00783,-0.67964 -1.9922,-1.0312 -2.95312,-1.05468 l -0.42188,0 -1.47656,0.21093 m 12.65625,-0.21093 0,0.21093 0.63281,2.53125 0.21094,0 0,-1.05468 c -0.25784,-1.12496 -0.53909,-1.68746 -0.84375,-1.6875 m 16.03125,-0.21094 1.05469,0.63281 0,0.21094 -0.63281,0 -0.42188,-0.63281 0,-0.21094 m 6.53906,1.26562 0.21094,2.10938 0,0.63281 -0.42187,2.10938 0.21093,0.21093 0.21094,0 0.63281,-3.58593 -0.21093,-0.84375 0,-0.63282 -0.63282,0 m -35.01562,0 0.21094,0 1.89843,2.53125 -0.21093,0 c -0.75002,5e-5 -1.38283,-0.8437 -1.89844,-2.53125 m 5.69531,0.21094 c 0.46873,5e-5 0.74998,0.84379 0.84375,2.53125 l -0.21094,0.21094 -0.21093,0 0,-0.84375 -0.21094,0 c -2e-5,0.42192 -0.14065,0.63285 -0.42188,0.63281 l -0.21093,-1.47656 0,-0.21094 0.63281,0.42188 0,-0.21094 -0.21094,-1.05469 m 4.21875,0.21094 0.21094,0 0.21094,1.05469 -0.21094,0.63281 -0.21094,0 -0.21094,-1.05469 0.21094,-0.63281 m 1.05469,0.21094 0,0.21093 0.42187,1.26563 0.21094,0 0,-0.42188 -0.42187,-1.05468 -0.21094,0 m 2.53125,4.85156 0,1.26562 0.21094,0 c 0.23434,-3.51558 0.79684,-5.27339 1.6875,-5.27343 l 1.05468,0 c 0.56247,0.28129 0.84372,0.63285 0.84375,1.05468 l 0.42188,-0.42187 0,-0.42188 -0.63281,-0.63281 -1.05469,0 0,-0.42187 -0.21094,0 c -1.5469,4e-5 -2.32034,1.61723 -2.32031,4.85156 m 6.53906,-4.42969 0.21094,0 0.63281,0.63281 -0.21094,0 -0.63281,-0.63281 m -1.26562,0.42188 0,0.42187 c 1.68746,3.25785 2.53121,5.2266 2.53125,5.90625 -0.21098,1.26566 -0.77347,1.89847 -1.6875,1.89844 -0.75004,-0.28122 -1.17191,-0.63278 -1.26563,-1.05469 l 0.63281,-1.6875 c -0.70315,0.56254 -1.05471,1.19535 -1.05468,1.89844 l 0,0.21094 1.05468,1.26562 -0.21093,0.21094 0,0.21094 1.05468,0 c 1.54684,-0.28122 2.32028,-0.98434 2.32032,-2.10938 -4e-5,-0.79684 -1.05473,-3.04684 -3.16407,-6.75 l 0,-0.42187 -0.21093,0 m 13.07812,1.47656 0,0.21094 0.42188,0 0.21093,-1.05469 1.05469,0 c 0.42183,4e-5 0.63277,0.42192 0.63281,1.26562 l 0.21094,0 -0.21094,0.21094 0,0.84375 0.21094,0 0.21094,-1.05469 c -5e-5,-0.91402 -0.35161,-1.54683 -1.05469,-1.89843 l -0.84375,0 c -0.56254,0.23441 -0.84379,0.7266 -0.84375,1.47656 m -28.89844,-1.47656 0.42188,0 0,0.21093 -0.42188,0 0,-0.21093 m 16.66407,0.42187 c 1.26559,2.95317 3.30465,4.42973 6.11718,4.42969 l 1.05469,0 1.05469,-1.05469 -0.21094,0 -2.10937,0.63281 c -2.15629,4e-5 -4.05473,-1.33589 -5.69532,-4.00781 l -0.21093,0 m -16.24219,0 0.84375,1.26563 -0.42188,0 -0.42187,-0.42188 0.21094,-0.21094 c -0.4219,5e-5 -0.63283,-0.14058 -0.63282,-0.42187 l 0.21094,-0.21094 0.21094,0 m 0.21094,0 0.42187,0 0,0.21094 -0.42187,0 0,-0.21094 m 8.01562,0.42188 0,0.63281 0.21094,0 0,-0.63281 -0.21094,0 m -2.74219,0.63281 0.42188,0.42187 -0.42188,0 0,-0.42187 m 2.95313,0.42187 0,3.58594 0.21094,0 0,-3.58594 -0.21094,0 m -7.59375,0.84375 0.63281,0 0,0.42188 -0.63281,0 0,-0.42188 m 5.0625,0.63282 0,0.21093 c -0.65627,3.32816 -1.64065,5.50785 -2.95313,6.53907 l 0,-0.21094 c 1.68748,-2.99997 2.53123,-5.10934 2.53125,-6.32813 l 0.21094,-0.21093 0.21094,0 m 6.96094,0.63281 0.63281,0 0,-0.42188 -0.21094,0 -0.42187,0.42188 m 16.03125,1.89844 0,0.42187 c 0.21089,4e-5 0.49214,-0.70309 0.84375,-2.10937 l 1.26562,-0.42188 c 0.98433,1.03129 1.47651,2.43754 1.47656,4.21875 -0.14067,1.21878 -0.49223,2.48441 -1.05468,3.79688 0.74995,-0.28122 1.17182,-1.61716 1.26562,-4.00782 -5e-5,-2.81246 -0.77348,-4.21871 -2.32031,-4.21875 -0.6563,4e-5 -1.14848,0.77348 -1.47656,2.32032 M 185.5,163.74582 l 0,0.21094 0.84375,-0.84375 -0.21094,0 -0.63281,0.63281 m 1.89844,-0.42187 0,0.21093 0.21093,0.84375 0.21094,0 0,-0.84375 -0.21094,-0.21093 -0.21093,0 m -19.40625,0.63281 0,0.42187 0.84375,0 0,-0.42187 -0.42188,-0.42188 -0.42187,0.42188 m 5.48437,-0.42188 0.63281,0.21094 -0.21093,0.21094 0.21093,2.10937 c -1e-5,1.2891 -0.4922,2.48441 -1.47656,3.58594 l 0,-0.21094 c 0.70311,-1.42965 1.05467,-2.76559 1.05469,-4.00781 l -0.21094,-1.89844 m 1.26563,0 0.21093,0 0.63282,0.21094 0,0.42188 -0.42188,0 -0.42187,-0.42188 0,-0.21094 m 20.25,1.05469 -0.63282,0 1.47657,3.58594 c 0.42183,2.10941 0.84371,3.16409 1.26562,3.16406 l 1.05469,0.21094 2.32031,0 c -4e-5,-1.68747 -0.84379,-4.28903 -2.53125,-7.80469 l -2.95312,0.84375 m 7.59375,-0.84375 c -5e-5,0.44535 -0.70318,1.42973 -2.10938,2.95313 l 0,0.42187 0.42188,0 1.89843,-2.32031 0.42188,-0.84375 -0.21094,-0.21094 -0.42187,0 m -16.66407,0.21094 0,0.42187 0.42188,0.42188 0.21094,-0.21094 0,-0.63281 -0.63282,0 m -1.05468,0.21094 0,0.63281 0.21093,0 0,-0.63281 -0.21093,0 m -15.82032,0.42187 0,0.42188 c 1.12499,3e-5 1.68749,0.3516 1.6875,1.05468 l 0.21094,0 0,-0.21093 c -0.21095,-0.84372 -0.70314,-1.26559 -1.47656,-1.26563 l -0.42188,0 m 6.32813,0 0.42187,0.63281 -0.42187,0 -0.42188,-0.42187 0.21094,-0.21094 0.21094,0 m 4.00781,0.21094 0,2.74219 c 0.1406,0.4219 0.56248,0.63284 1.26563,0.63281 0.56247,-0.25778 1.12497,-1.03122 1.6875,-2.32031 l 0.84375,-0.42188 0,-0.21094 -0.63282,0 c -0.9844,4e-5 -1.68752,0.70316 -2.10937,2.10938 l -0.21094,0 0,-1.05469 0.21094,-0.21094 c -0.0938,-0.42184 -0.37503,-0.70308 -0.84375,-0.84375 l 0,-0.42187 -0.21094,0 m 12.65625,0 -0.42187,0.84375 0,0.21094 0.84375,-0.63282 c 0.70308,0.25785 1.05465,0.82035 1.05468,1.6875 -0.63285,1.68754 -2.25003,2.53129 -4.85156,2.53125 l 0,0.21094 0.63281,0 c 3.37497,3e-5 5.06246,-0.91403 5.0625,-2.74219 l -0.42187,0 0,-0.63281 c -4e-5,-0.98434 -0.49223,-1.47652 -1.47656,-1.47656 l -0.42188,0 m -24.04687,0.21094 0,0.63281 0.21093,0 0.42188,-0.42188 0,-0.21093 -0.63281,0 m 1.05468,0.42187 0,0.63281 0.63282,0 0,-0.21093 -0.42188,-0.42188 -0.21094,0 m 6.32813,0.21094 0.42187,0.42187 -0.84375,0 0.42188,-0.42187 m -16.03125,0.84375 0,0.42187 0.21094,0 0,-0.42187 -0.21094,0 m 10.75781,0 -1.47656,1.47656 0,-0.42187 -0.21094,0 -0.21094,0.21093 -0.21093,0 0.21093,0.21094 0,0.63281 -0.21093,0.21094 0.21093,0.63281 0.63282,-0.42187 0.21093,0 c -0.14063,0.56253 -0.42188,0.84378 -0.84375,0.84375 l 0,0.42187 0.21094,-0.21093 0.42188,0 -0.84375,1.05468 c 0.60936,-0.14059 1.38279,-0.84371 2.32031,-2.10937 l -0.21094,-0.21094 0.42188,-2.10937 -0.21094,-0.21094 -0.21094,0 m 4.64063,-0.21094 0.21093,0 0.63282,0.21094 -0.42188,0.42187 -0.21094,0 -0.21093,-0.63281 m 0,0.63281 0.42187,0.63282 -0.21094,0 -0.63281,-0.21094 0.42188,-0.42188 m 26.57812,0.21094 0,0.84375 c 0.32808,0.32816 1.0312,2.15628 2.10938,5.48438 l 0.42187,0 0,-0.21094 -2.32031,-6.11719 -0.21094,0 m -21.72656,5.27344 0.42187,0 0,0.21094 -4.42968,2.74218 c -2.25002,2.13284 -3.72658,4.80471 -4.42969,8.01563 l 0.21094,1.05469 0.21093,0 c 0.11718,-2.62498 1.66405,-5.57811 4.64063,-8.85938 1.73435,-0.98435 3.07029,-1.47653 4.00781,-1.47656 l 0,0.21094 c -2e-5,0.70315 0.42185,1.05471 1.26563,1.05468 l 0.84375,0 -0.21094,-0.21093 0,-0.42188 c 0.65622,3e-5 1.14841,-0.1406 1.47656,-0.42187 l 0.21094,0 0.42187,0.42187 -0.63281,0 0,0.21094 c 0.84372,0.0938 1.2656,0.30471 1.26563,0.63281 l -0.21094,0 -0.21094,-0.21094 -0.42187,0 0,0.21094 0.84375,0.21094 0.21093,-0.21094 c -3e-5,0.30471 0.35154,0.7969 1.05469,1.47656 -0.28128,0.63284 -0.56253,0.9844 -0.84375,1.05469 l -0.42187,0 -0.21094,-0.21094 -0.21094,0 0,0.21094 0.42188,0.42188 1.05468,0 1.05469,-1.05469 0,-0.84375 c -3e-5,-0.63279 -0.4219,-1.2656 -1.26562,-1.89844 0.98434,-0.0937 1.47653,-0.30466 1.47656,-0.63281 -0.96097,-0.56247 -1.80472,-0.84372 -2.53125,-0.84375 l -1.05469,0 -3.58594,0.21094 c -2e-5,-0.23435 1.05467,-0.58591 3.16407,-1.05469 1.38278,-0.74997 2.22653,-1.52341 2.53125,-2.32031 l 0,-0.21094 -0.84375,0.21094 -0.21094,0 0,-0.21094 c 0.84372,-0.32809 1.26559,-0.96091 1.26562,-1.89844 l 0,-0.63281 -0.21093,0 c -0.89066,1.38284 -2.85941,2.71878 -5.90625,4.00781 l -0.21094,1.05469 m -19.19531,-4.85156 0,0.21093 0.21093,0.21094 0.42188,0 0,-0.21094 -0.63281,-0.21093 m 0.84375,0.42187 0,0.21094 0.84375,0 0.21093,-0.21094 0,-0.21094 -1.05468,0.21094 m -1.26563,0.21094 0,0.21094 c 0.60937,0.89065 1.38281,1.52347 2.32031,1.89843 l 0,-0.63281 c -0.35157,3e-5 -1.05469,-0.49215 -2.10937,-1.47656 l -0.21094,0 m 18.98438,0 0,0.63281 0.63281,0.63281 0.42187,0 0.42188,-0.42187 c -3e-5,-0.23434 -0.49221,-0.51559 -1.47656,-0.84375 m 21.51562,0.84375 0,0.63281 0.21094,0 0,-0.63281 -0.21094,0 m -14.55469,1.89844 c 4.47653,-0.28122 7.7109,-0.63278 9.70313,-1.05469 l 0,-0.63281 c -0.67973,0.51565 -3.84379,0.93753 -9.49219,1.26562 l -0.21094,0.21094 0,0.21094 m -6.96093,-1.26563 c -0.49221,1.33597 -2.1094,3.37503 -4.85157,6.11719 -1.96876,2.6719 -2.95314,4.42971 -2.95312,5.27344 l 0,0.21093 0.21094,0 c -2e-5,-1.6406 2.53123,-5.0156 7.59375,-10.125 l 0.63281,-1.26562 -0.63281,-0.21094 m -6.32813,0 0,0.21094 -0.63281,0.63281 0,-0.21094 0.63281,-0.63281 m 28.05469,0.21094 0,0.84375 0.21094,0.84375 0.21093,0 0,-0.21094 -0.21093,-1.47656 -0.21094,0 m -41.55469,0 0,0.42187 0.21094,0 0,-0.42187 0.63281,0.63281 c 0,0.21097 -0.28125,0.42191 -0.84375,0.63281 l -0.42187,-1.05468 0.21093,-0.21094 0.21094,0 m 1.6875,0.21094 0,0.21093 0.84375,0.63282 0,-0.21094 -0.84375,-0.63281 m 14.34375,0 c -2e-5,0.2344 -0.42189,0.51565 -1.26562,0.84375 l 0,0.84375 0.42187,0 c -2e-5,-0.7031 0.14061,-1.05466 0.42188,-1.05469 l 0.42187,0 0.84375,0.84375 0,0.84375 -1.26562,1.89844 0.21093,0 c 1.26561,-1.40622 1.89842,-2.46091 1.89844,-3.16407 l -0.21094,-1.05468 -0.21093,0.21093 -0.21094,0 -1.05469,-0.21093 m -13.28906,0.84375 0,0.21093 0.42187,0 0,-0.21093 -0.42187,0 m 21.9375,-0.21094 -0.84375,0.84375 -0.21094,-0.21094 0,-0.21094 1.05469,-0.42187 m 7.38281,0.21094 0,0.21093 2.95313,0.42188 0.63281,0 0,-0.21094 -3.16406,-0.42187 -0.42188,0 m -30.375,0.21093 0,0.63282 c 0.72656,1.00784 1.14843,2.27346 1.26563,3.79687 -0.32813,2.53127 -1.38282,3.7969 -3.16407,3.79688 -0.53906,2e-5 -1.10156,-0.42186 -1.6875,-1.26563 l 0,-1.05469 c 0.14063,-0.42185 0.5625,-0.63278 1.26563,-0.63281 l 1.26562,1.26563 0,-0.42188 c 0,-0.7031 -0.35156,-1.19529 -1.05468,-1.47656 l -0.42188,0 c -1.125,2e-5 -1.6875,0.63284 -1.6875,1.89844 l 0.63281,2.10937 -0.21093,0.21094 1.47656,0.21094 0.84375,0 c 1.49999,2e-5 2.55468,-1.47654 3.16406,-4.42969 -1e-5,-1.12497 -0.49219,-2.67185 -1.47656,-4.64063 l -0.21094,0 m 23.41406,-0.21093 0.21094,0.21093 0,0.21094 -1.47656,0.84375 -0.21094,0 0,-0.42187 c 0.35154,3e-5 0.84372,-0.28122 1.47656,-0.84375 m 0.42188,1.26562 3.58594,-0.63281 c 2.6484,3e-5 5.32027,0.63284 8.01562,1.89844 l 0,-0.63282 c -3.04691,-1.12497 -5.43753,-1.68747 -7.17187,-1.6875 -2.95316,0.1641 -4.42972,0.51566 -4.42969,1.05469 m 10.33594,-0.63281 0,0.21094 0.84375,0 0,-0.21094 -0.84375,0 m 1.05468,0.21094 0,0.21093 0.42188,0 0,-0.21093 -0.42188,0 m 4.85157,0.42187 0,0.21094 0.84375,0 0.63281,-0.21094 0,-0.42187 -0.21094,0 -1.26562,0.42187 m -32.0625,0 -0.84375,0 0,0.42188 1.05468,-0.21094 1.26563,0 c 1.82811,0.16409 2.74217,0.86721 2.74219,2.10937 l -0.84375,0.84375 -1.05469,0 -0.63281,-0.42187 0,0.21094 c 0.23436,0.56252 0.72654,0.84377 1.47656,0.84375 l 0.84375,0 c 0.84373,-0.42185 1.26561,-1.05466 1.26562,-1.89844 -1e-5,-0.8906 -0.98439,-1.59372 -2.95312,-2.10938 l -2.32031,0.21094 m 28.05468,-0.21094 0,0.21094 0.84375,0 0,-0.21094 -0.84375,0 m -11.17968,0.42188 0,0.21094 c 3.93746,3e-5 5.90621,0.70315 5.90625,2.10937 l 0,0.42188 c -0.32816,1.12502 -0.89066,1.68752 -1.6875,1.6875 l -0.63282,-0.21094 0.42188,0.42187 1.05469,0 c 0.7734,3e-5 1.3359,-0.35153 1.6875,-1.05468 l 0,-0.84375 c -4e-5,-1.68748 -1.4766,-2.67185 -4.42969,-2.95313 l -2.32031,0.21094 m 12.23437,-0.21094 0,0.21094 2.32031,0.21094 0,-0.42188 -2.32031,0 m -5.69531,0.63281 0,0.21094 1.26562,1.05469 0.42188,0 c -0.18754,-0.46872 -0.75004,-0.8906 -1.6875,-1.26563 m 4.64062,0 c -4e-5,3.37503 -0.42191,6.25784 -1.26562,8.64844 0.67965,2e-5 1.59371,0.91408 2.74219,2.74219 1.54683,-3.07029 2.32026,-6.58591 2.32031,-10.54688 l 0,-0.63281 -2.32031,0 -1.47657,-0.21094 m 4.21875,0.21094 c -4e-5,4.9219 -0.9141,8.92971 -2.74218,12.02344 l 0,0.21094 c 1.9687,-2.78905 2.95308,-5.95311 2.95312,-9.49219 l 0,-2.74219 -0.21094,0 m -6.75,0.42188 0,0.63281 0.63282,0 0,-0.42188 -0.63282,-0.21093 m 7.59375,1.6875 c 0.0937,0.70315 0.30464,1.05471 0.63282,1.05468 l 0.63281,0 0,-0.21093 c -0.70317,2e-5 -1.05474,-0.42185 -1.05469,-1.26563 l 0.42188,-0.63281 0,-0.21094 c -0.42193,0.14065 -0.63286,0.56253 -0.63282,1.26563 m 0.84375,-0.42188 0,0.63281 0.21094,0 c 0.0937,-0.70309 0.30464,-1.05466 0.63281,-1.05468 l 0.42188,0 c 0.2812,2e-5 0.42182,0.35159 0.42187,1.05468 l 0.21094,0 0,-0.63281 c -0.0938,-0.42185 -0.37505,-0.7031 -0.84375,-0.84375 -0.63286,0.28128 -0.98442,0.56253 -1.05469,0.84375 m -24.46875,-0.84375 0.42188,0 -0.42188,0.42188 0,-0.42188 m 10.96875,0.21094 0,1.05469 -0.21093,0.21093 0,0.21094 0.21093,0 0.42188,-0.63281 0,-0.84375 -0.42188,0 m 3.79688,0.42187 -0.21094,0.21094 0,0.21094 0.21094,0.21094 0.42187,0 0,-0.21094 -0.42187,-0.42188 m 1.26562,0 -0.21093,0.21094 0,0.63281 0.42187,0 0.42188,-0.42187 -0.63282,-0.42188 m 9.28125,0.21094 0,1.05469 0.21094,2.32031 0.21094,0 0,-1.6875 -0.21094,-1.6875 -0.21094,0 m -20.67187,0.42188 0,0.21093 0.63281,0 0,-0.21093 -0.63281,0 m 2.74219,3.79687 0,0.21094 0.21093,0 1.26563,-0.21094 2.74219,0.42188 0,0.42187 -3.16407,-0.42187 -2.74218,0.42187 0,0.21094 0.63281,0 0.84375,-0.21094 0.21094,0.21094 0,0.21094 c -2.39066,0.14064 -3.58597,0.4922 -3.58594,1.05468 l 0.21094,0 c 0.91403,-0.42185 2.03903,-0.63279 3.375,-0.63281 2.74215,2e-5 5.06246,1.26565 6.96093,3.79688 l 0.42188,0.84375 -0.21094,0.21093 -0.42187,0 c -4e-5,-2.2031 -2.39066,-3.67966 -7.17188,-4.42968 l -0.21094,0 c -1.99221,2e-5 -3.53908,0.70314 -4.64062,2.10937 l 0.21094,0 c 1.21872,-0.84373 2.34372,-1.2656 3.375,-1.26562 1.5234,2e-5 2.78903,0.98439 3.79687,2.95312 l -0.63281,0 c -3e-5,-1.14842 -1.05472,-1.99217 -3.16406,-2.53125 -2.6719,0.56252 -4.00784,1.26564 -4.00782,2.10938 l 0.21094,0 c 0.1406,-0.42186 0.56248,-0.6328 1.26563,-0.63282 -1.40628,0.93752 -2.1094,1.78127 -2.10938,2.53125 l 0,0.21094 0.21094,0 c 0.49216,-1.40623 1.40622,-2.10936 2.74219,-2.10937 l 0,-0.21094 c 1.96872,0.14064 2.95309,1.0547 2.95312,2.74219 l 0.21094,-0.21094 0.63281,0 0.42188,0.42187 -0.63282,1.26563 0.42188,1.47656 0.42187,0 c 1.2656,-0.60936 1.89841,-1.17186 1.89844,-1.6875 l 0.21094,0 0.63281,0.42188 0.21094,-1.05469 0,-1.05469 c -4e-5,-0.28123 -0.21097,-0.42186 -0.63281,-0.42187 l 0,-0.63282 0.42187,-0.42187 0.84375,0 0.42188,0.42187 c -0.84379,2e-5 -1.26566,0.14064 -1.26563,0.42188 l 0.21094,-0.21094 0.21094,0 c 0.42184,0.14064 0.63277,0.56252 0.63281,1.26563 l -0.42188,1.47656 0,0.21094 0.21094,0 0,-0.42188 0.21094,0 0,0.63281 -0.21094,0.63282 1.05469,1.6875 0,0.21093 c -0.84379,1e-5 -1.26566,-0.6328 -1.26563,-1.89843 l 0,-0.21094 -0.21093,0 0,1.26562 c -4e-5,0.37501 0.63277,1.21876 1.89843,2.53125 l 0,0.21094 0.42188,0 0.21094,-1.47656 0.63281,0 c -4e-5,1.00782 0.91402,1.99219 2.74219,2.95312 -4e-5,-1.33593 0.42183,-3.23436 1.26562,-5.69531 l 0,-0.42187 -0.21094,-1.05469 0.21094,0 0.63281,0.42187 0.42188,0 0,-0.21093 c -0.28129,-3.39842 -1.26567,-5.43748 -2.95313,-6.11719 -1.1016,2e-5 -2.01566,-0.28123 -2.74218,-0.84375 l 0,0.21094 0.42187,0.42187 0,0.21094 -0.84375,-0.63281 0,-0.63282 0.42188,-0.42187 0.21093,0.21094 0,0.21093 -0.21093,0.21094 0.63281,-0.21094 1.26562,0.63282 c 0.84371,-0.35155 1.26559,-0.98436 1.26563,-1.89844 l 0,-0.21094 -0.63281,0.42188 -0.21094,0 -0.42188,-0.42188 c 0.86715,2e-5 1.42965,-0.63279 1.6875,-1.89844 l 0,-0.21093 -0.21093,-1.05469 c -1.68754,1.68752 -3.93754,2.53127 -6.75,2.53125 l -3.375,0.63281 m -17.29688,-1.6875 c -1e-5,0.75002 0.35155,1.24221 1.05469,1.47656 l 0.21094,0 0,-0.21093 c -0.56252,2e-5 -0.84377,-0.21092 -0.84375,-0.63282 l 0,-0.21093 c -2e-5,-0.84373 0.42186,-1.2656 1.26562,-1.26563 l 0.21094,0 c 0.70311,0.35159 1.05467,0.91409 1.05469,1.6875 l -0.21094,1.26563 0,0.21093 0.21094,0 0.21093,-1.47656 0,-0.21094 c -1e-5,-0.77341 -0.35157,-1.33591 -1.05468,-1.6875 l -1.26563,0 c -0.28126,0.0703 -0.56251,0.4219 -0.84375,1.05469 m 9.49219,0.84375 0,0.21094 0.63281,0.21094 0.63281,-2.32032 c -0.84377,0.35159 -1.26564,0.9844 -1.26562,1.89844 m -1.89844,-1.47656 0,0.21094 c 0.28123,2e-5 0.42186,0.28127 0.42188,0.84375 l 0.42187,0 0,-0.63282 c -2e-5,-0.28122 -0.21096,-0.42185 -0.63281,-0.42187 l -0.21094,0 m 25.94531,0 -0.21093,1.05469 0,0.84375 0.21093,0 0.42188,-1.89844 -0.42188,0 m -22.57031,0.84375 0.21094,0.21094 -0.21094,0.21093 0.84375,0.21094 0.21094,-0.21094 0,-0.42187 -0.42188,-0.42188 -0.21093,0 -0.42188,0.42188 m 1.47656,-0.21094 0,0.42188 1.05469,0.21093 0.42188,0 -0.63282,-0.63281 -0.84375,0 m 1.89844,0.21094 0,0.42187 0.42188,0.42188 0.21093,-0.21094 0,-0.21094 -0.42187,-0.42187 -0.21094,0 m 11.8125,0 -0.21094,0.21094 -0.42187,0.42187 0,0.21094 -1.6875,0 0,-0.21094 2.32031,-0.63281 m -13.92187,0.63281 0,0.42188 -0.21094,0.21093 0.42187,0.42188 0.21094,0 0.21094,-0.21094 0,-0.84375 -0.63281,0 m -1.47657,0.21094 -0.21093,0.21094 0,0.21093 0.42187,1.47657 0.21094,0 0.63281,-0.63282 c -2e-5,-0.84372 -0.35159,-1.2656 -1.05469,-1.26562 m 24.46875,0 0,1.05469 0.21094,0 0,-1.05469 -0.21094,0 m -21.72656,0.21094 0,0.84375 0.42188,0 0.42187,-0.42188 0,-0.42187 -0.84375,0 m 20.67188,0 -0.21094,1.26562 0.84375,3.58594 0,1.05469 c -5e-5,3.44532 -1.26567,5.97657 -3.79688,7.59375 l -1.05468,0 -0.63282,-0.42188 0,0.42188 c 0.0937,0.56251 0.79684,0.84376 2.10938,0.84375 l -0.42188,0.84375 0.63282,0 c 1.49995,0 2.3437,-1.05468 2.53125,-3.16407 l 0.63281,0.84375 -2.32031,3.375 0,1.26563 0.42187,1.89844 c 0.28121,0 0.42183,-0.21094 0.42188,-0.63282 l 0.21093,-0.21093 0.21094,0 c 0.25777,1.125 0.60933,1.6875 1.05469,1.6875 0.8437,0 1.26557,-0.42188 1.26562,-1.26563 l -0.63281,0.42188 -0.21094,0 c -0.37504,0 -0.65629,-0.49219 -0.84375,-1.47657 1.26558,-5.64842 1.89839,-9.16404 1.89844,-10.54687 -0.0704,-2.20311 -0.70317,-4.66404 -1.89844,-7.38281 l -0.21093,0 M 172,184.4177 l 0,0.42187 0.21094,0 c -2e-5,-2.34373 1.47654,-4.24217 4.42968,-5.69531 l 1.26563,0 0,-0.42188 -1.05469,0 c -1.66408,3e-5 -3.21095,1.5469 -4.64062,4.64063 L 172,184.4177 m -10.33594,-5.27344 c -0.63282,0.86721 -2.10938,1.92189 -4.42969,3.16406 l -0.63281,1.89844 0,0.84375 0.21094,0 c 0,-2.08592 1.26562,-3.56248 3.79687,-4.42969 l 1.26563,-1.47656 -0.21094,0 m 16.45313,0 -0.21094,1.05469 0,0.42187 0.84375,1.05469 0,-1.47656 -0.21094,-1.05469 -0.42187,0 m 2.32031,0.84375 0,0.21094 0.84375,0.21093 0.42187,-0.63281 -0.42187,-0.42187 c -0.56253,0.21096 -0.84378,0.42189 -0.84375,0.63281 m -9.49219,-0.21094 0,0.42188 0.21094,0 0,-0.42188 -0.21094,0 m -2.74219,0.21094 c 0.56249,0.58596 0.84374,1.14846 0.84375,1.6875 l -0.63281,5.69531 0,1.26563 c -1e-5,1.96876 0.49218,2.95313 1.47656,2.95312 l 0.21094,1.26563 0.63281,0 -0.21093,-1.05469 0.21093,0 0.84375,-0.21094 c -1e-5,-1.89842 0.21092,-3.16405 0.63282,-3.79687 l -0.21094,0 c -0.21096,0.56251 -0.42189,0.84376 -0.63281,0.84375 l -0.21094,0 0,-0.42188 c 0.49217,-0.84373 0.98436,-1.26561 1.47656,-1.26562 l 0,0.42187 0.21094,-0.21094 1.05469,0 0.84375,0.84375 0,0.42188 c -1.26565,1.07814 -1.89846,1.92189 -1.89844,2.53125 l 0,0.21094 c 0.0703,1.12501 0.63279,1.68751 1.6875,1.6875 0.84373,-0.28124 1.2656,-0.56249 1.26562,-0.84375 l -1.26562,0.42187 -0.63281,0 -0.84375,-0.84375 0,-0.42187 c -2e-5,-0.74999 0.28123,-1.24218 0.84375,-1.47657 l 0.84375,0.21094 c 0.56248,-0.58592 0.84373,-1.14842 0.84375,-1.6875 -2e-5,-1.26561 -0.63284,-1.89842 -1.89844,-1.89844 l -0.63281,0 -0.21094,0.21094 -0.21094,0 0,-0.63281 0.21094,-0.21094 0,-0.21094 -0.21094,0 c -1.40626,2e-5 -2.10939,1.19533 -2.10937,3.58594 l -0.21094,0 c -0.28127,1e-5 -0.42189,-0.21092 -0.42188,-0.63281 l 0.42188,-1.47656 -0.21094,0.21093 -0.21094,0 -0.21093,-0.21093 0,-0.21094 0.21093,-0.63281 -0.21093,0 -0.21094,-0.21094 c 0.18748,-0.58592 0.53905,-1.0078 1.05469,-1.26563 l 0,0.42188 -0.21094,1.47656 0,0.21094 0.21094,0 0.42187,-2.53125 -0.21094,-0.63281 -0.42187,0 c -2e-5,0.56251 -0.21095,0.84376 -0.63281,0.84375 l -0.21094,-0.21094 0,-0.42188 0.42187,-0.63281 0,-1.47656 c -1e-5,-1.12498 -0.56251,-1.68748 -1.6875,-1.6875 m 33.32813,0.42187 0.63281,0.63282 -0.21094,-1.05469 -0.42187,0.42187 m -10.125,-0.21093 0.42187,0 0,1.05468 -0.63281,0 -0.42187,-0.42187 0.42187,-0.42188 0,0.63282 0.21094,0 0,-0.84375 m -18.14063,2.74218 0.21094,0 c -2e-5,-0.46873 0.6328,-1.10154 1.89844,-1.89843 0.63279,0.28127 0.98435,0.56252 1.05469,0.84375 l -0.21094,0.21093 0.21094,0 0.63281,-0.63281 c -0.14065,-0.56248 -0.56252,-0.84373 -1.26563,-0.84375 -0.93752,2e-5 -1.78126,0.77346 -2.53125,2.32031 m 6.11719,-1.89843 0,0.21093 0.21094,0 0.63281,-0.21093 0,-0.42188 -0.42187,0 -0.42188,0.42188 m -19.40625,0.42187 -0.42187,0.63281 0,0.63282 0.21093,0 0.42188,-1.26563 -0.21094,0 m 10.96875,0 0,0.42188 0.21094,0 0,-0.42188 -0.21094,0 m -0.21094,0.63281 0,0.84375 0.21094,0 0,-0.84375 -0.21094,0 m 31.64063,0 c -5e-5,2.81252 -0.49224,4.21877 -1.47656,4.21875 l -0.42188,0 c -0.56254,-0.28123 -0.84379,-0.70311 -0.84375,-1.26562 -4e-5,-0.60936 0.42183,-0.96092 1.26563,-1.05469 l 0,-0.21094 -0.63282,0 c -0.70317,0.25783 -1.05473,0.82033 -1.05468,1.6875 -5e-5,0.98439 0.49214,1.47658 1.47656,1.47657 1.26558,1e-5 1.89839,-0.77343 1.89844,-2.32032 l 0,-2.53125 -0.21094,0 m -28.05469,2.74219 c 0.23436,0.70314 0.58592,1.0547 1.05469,1.05469 l 0.42187,0 0,-0.21094 c -0.70314,2e-5 -1.0547,-0.21092 -1.05468,-0.63281 l 0,-0.63281 c 0.23435,-0.56249 0.72654,-0.84374 1.47656,-0.84375 l 0.42187,0 1.26563,1.26562 0,0.42188 c -2e-5,3.09376 0.35154,5.34376 1.05469,6.75 l 0.21093,0 0,-0.21094 c -0.28127,-0.46874 -0.49221,-1.52343 -0.63281,-3.16406 l 0.42188,-4.85157 c -0.21096,-0.56248 -0.4219,-0.84373 -0.63282,-0.84375 -2e-5,0.4219 -0.14064,0.63283 -0.42187,0.63282 -2e-5,-0.42186 -0.4219,-0.6328 -1.26563,-0.63282 l 0,-0.21093 c -1.54689,2e-5 -2.32033,0.70314 -2.32031,2.10937 m 21.72656,-2.10937 c 0.44528,2e-5 0.86715,0.70314 1.26563,2.10937 l -0.42188,0 -0.84375,-2.10937 m -35.85937,0.42187 0,0.21094 0.63281,0.42187 0,-0.21093 -0.63281,-0.42188 m 35.4375,0.21094 0.21094,0 c 0.23433,2e-5 0.51558,0.4922 0.84375,1.47656 l -0.42188,0 -0.63281,-1.26562 0,-0.21094 m -34.59375,0.42187 0,0.21094 0.21094,0.21094 0.21093,0 0,-0.21094 -0.21093,-0.21094 -0.21094,0 m 28.05469,0.21094 0.63281,0 0,0.21094 -0.42188,0 0,0.21094 c 0.56247,1e-5 0.84372,0.14064 0.84375,0.42187 l -1.26562,0.42188 -0.21094,0 0,-0.21094 0.42188,-0.63281 -0.21094,0.21093 -0.42188,0 0.63282,-0.63281 m -8.4375,2.74219 0,0.21094 0.21093,0 c -2e-5,-0.4453 0.42185,-1.21874 1.26563,-2.32032 -0.46878,2e-5 -0.96096,0.70315 -1.47656,2.10938 m -23.625,-1.05469 0,0.21094 c 0.84374,0.84376 1.75781,1.26564 2.74218,1.26562 0.63281,-0.23436 1.125,-0.65623 1.47657,-1.26562 -0.84376,0.56251 -1.47657,0.84376 -1.89844,0.84375 l -0.42188,0 c -0.53906,1e-5 -1.17187,-0.35155 -1.89843,-1.05469 m 23.41406,0 -0.42188,1.26563 0,0.21093 0.21094,0 0.42188,-1.47656 -0.21094,0 m 7.17187,-0.21094 0.63282,0.21094 -0.42188,0.42188 -0.42187,-0.42188 0.21093,-0.21094 m 5.27344,0.63282 c 0.74996,1e-5 1.24215,0.28126 1.47656,0.84375 -0.98441,-0.14061 -1.4766,-0.35155 -1.47656,-0.63282 l 0,-0.21093 m -5.27344,0.42187 0.84375,0 0,0.21094 -0.84375,0.21094 0,-0.42188 m -7.17187,0.63281 0,0.42188 0.21094,0 0,-0.42188 -0.21094,0 m 20.25,1.05469 0,0.21094 0.42187,0 c 0.51558,-0.2578 0.86714,-0.67967 1.05469,-1.26563 -0.98442,0.46877 -1.47661,0.82033 -1.47656,1.05469 m -20.88281,-0.84375 0,1.05469 0.21093,0 0,-1.05469 -0.21093,0 m 13.5,-0.21094 0.21093,0 1.05469,0.42188 0,0.21094 -0.21094,0 -1.05468,-0.21094 0,-0.42188 m 6.53906,0.21094 0,0.42188 0.63281,0 0,-0.42188 -0.63281,0 m -20.67188,0.21094 0,1.05469 c 0.1406,1.64063 0.42185,3.04688 0.84375,4.21875 l 0.42188,0 0.42187,-0.42188 -0.42187,-1.6875 0,-2.53125 -0.21094,0 c -2e-5,0.32814 -0.28127,0.6797 -0.84375,1.05469 l 0,-1.6875 -0.21094,0 m -18.77343,0.42187 0,0.21094 0.42187,0.42188 0,0.42187 -0.63281,0.84375 0,0.21094 0.21094,0 0.63281,-0.63281 0,-1.26563 -0.63281,-0.21094 m 20.67187,3.375 0.21094,1.05469 0.42187,0 -0.21093,-1.6875 c 0.53903,-1.12499 1.24216,-1.68749 2.10937,-1.6875 1.12497,0.0703 1.68747,0.63283 1.6875,1.6875 l -0.63281,0.63281 0,0.21094 c 0.72653,1e-5 1.14841,-0.49218 1.26562,-1.47656 -3e-5,-0.74999 -0.70315,-1.31249 -2.10937,-1.6875 l 0,-0.21094 -0.42188,0 c -1.5469,0.16408 -2.32033,1.21876 -2.32031,3.16406 m 12.65625,-3.375 c 0.56246,0.21095 0.84371,0.42189 0.84375,0.63282 l -0.84375,0 0,-0.63282 m 5.69531,0.84375 0.21094,0.21094 0.21094,0 0.42187,-0.42187 -0.21093,-0.21094 -0.21094,0 -0.42188,0.42187 m 3.375,-0.63281 1.26563,0 0,0.42188 -0.84375,0 -0.42188,-0.42188 m -43.66406,1.05469 0.42188,0.42187 0.21093,-0.21093 0,-0.63282 -0.21093,0 -0.42188,0.42188 m 41.55469,-0.21094 0,0.21094 0.42187,0.42187 0.21094,0 0,-0.63281 -0.63281,0 m 2.32031,-0.21094 0.42188,0 0.63281,0.63282 -0.63281,0 0,0.21093 0.63281,0 0,0.21094 -0.84375,0 0,0.21094 0.63281,0 0,0.42187 -0.63281,0.21094 c -5e-5,-0.28124 -0.35161,-0.42186 -1.05469,-0.42187 l 0,-0.21094 c 0.2812,1e-5 0.42183,-0.21093 0.42188,-0.63281 l 0.63281,0 0,-0.21094 -0.63281,0 0.42187,-0.42188 m -32.27344,0.21094 0,0.63281 -1.05468,0 0,-0.42187 1.05468,-0.21094 m 4.85157,1.47656 0.21093,1.26563 0.21094,0 c -2e-5,-1.40624 0.14061,-2.10936 0.42188,-2.10938 l 0.63281,0 -0.42188,-0.42187 -0.42187,0 c -0.4219,0.14064 -0.63283,0.56251 -0.63281,1.26562 m 18.14062,-1.26562 0.84375,0 -0.63281,0.63281 -0.21094,-0.21094 0,-0.42187 m -37.125,1.05469 0,0.21093 0.63281,0 0,-0.84375 -0.63281,0.63282 m 1.47656,-0.63282 -0.21093,0.21094 0,0.42188 0.21093,0.21093 0,0.21094 c 0.42188,-0.0937 0.70313,-0.37499 0.84375,-0.84375 l -0.84375,-0.21094 m 1.47657,0.42188 -0.42188,0.63281 0.42188,0.42188 0.42187,-0.42188 0,-0.21094 -0.42187,-0.42187 m 10.33593,-0.21094 0.63282,0 0.42187,0.42188 -1.05469,0 0,-0.42188 m -9.07031,0.42188 -0.21094,0.84375 0.63282,-0.63282 0,-0.21093 -0.42188,0 m 33.96094,0 0,0.42187 -0.63281,0.21094 -0.21094,-0.21094 0,-0.21094 0.84375,-0.21093 m -25.10156,0.21093 0.84375,0 0.42187,0.42188 -0.84375,0 -0.42187,-0.42188 m -12.65625,0.63282 0,0.63281 0.63281,0 0,-0.21094 -0.42188,-0.42187 -0.21093,0 m 1.05468,0.42187 0,0.42188 0.63282,0 0.42187,-0.42188 -0.63281,-0.42187 -0.42188,0.42187 m 1.47657,0.42188 0,0.21093 0.84375,0 0.21093,-0.63281 -0.63281,0 -0.42187,0.42188 m 34.80468,-0.63282 0.21094,0 c 0.56246,0.21095 0.84371,0.42189 0.84375,0.63282 l -1.05469,0 0,-0.63282 m -35.64843,1.05469 0,0.21094 0.42187,0 0,-0.21094 -0.42187,0 m 43.03125,-0.21094 0.21093,0 c -0.42192,0.70314 -0.9141,1.0547 -1.47656,1.05469 l 1.26563,-1.05469 m -23.20313,3.79688 -18.14062,-0.42188 -2.10938,0 0,0.21094 21.30469,0.42188 c 3.44528,0 7.17184,-1.05468 11.17969,-3.16407 l 0,-0.42187 -0.21094,0 c -3.93753,2.25001 -7.94534,3.375 -12.02344,3.375 m -21.51562,-2.74219 -0.42188,0.63281 0,0.21094 0.21094,0 0.42187,-0.84375 -0.21093,0 m 39.23437,0.84375 c -4e-5,0.25782 0.35152,0.6797 1.05469,1.26563 1.54683,-0.25781 2.32027,-0.60937 2.32031,-1.05469 l -0.21094,0 -1.6875,0.63281 -0.84375,-0.84375 0,-0.21094 0.42188,-0.63281 -1.05469,0.84375 m -7.80469,1.89844 c -3e-5,0.84375 0.7031,1.47657 2.10938,1.89844 l 0.84375,0 0,-0.21094 c -1.68754,0 -2.53128,-0.63281 -2.53125,-1.89844 -3e-5,-0.89062 0.56246,-1.3828 1.6875,-1.47656 l 0,-0.21094 -0.63281,0 c -0.98441,0.42188 -1.4766,1.0547 -1.47657,1.89844 m 2.53125,-1.89844 0,0.21094 0.63282,0.21094 0,-0.21094 -0.21094,-0.21094 -0.42188,0 m -34.59375,0.21094 0,1.26562 c 0,0.53907 1.125,1.31251 3.375,2.32032 l 0,-0.21094 c -2.10937,-0.82031 -3.16406,-1.73437 -3.16406,-2.74219 l 0,-0.63281 -0.21094,0 m 44.92969,-0.21094 c 0.70308,0.3047 1.05464,0.79688 1.05469,1.47656 l -0.21094,0.21094 -0.42187,0 0,-0.63281 -0.21094,0 0,0.42187 0.21094,0.63282 -0.63282,0 0.21094,-2.10938 m -10.125,4.42969 -3.375,-0.63281 -0.42187,0.63281 4.64062,0.42187 c 2.60152,1e-5 5.34371,-1.26562 8.22656,-3.79687 l 0,-0.42188 c -3.04691,2.53126 -6.07035,3.79688 -9.07031,3.79688 m -6.11719,-2.32031 0,0.63281 0.84375,0 0,0.42187 -0.42187,0.42188 -0.21094,0 -1.05469,-0.63281 c -2.25002,0 -3.37502,0.42188 -3.375,1.26562 l -0.21093,0.21094 0.21093,0 0.63282,-0.63281 0.84375,0 2.95312,0.21093 0.84375,-0.63281 -0.21094,-0.21094 0.42188,0 -0.42188,-1.47656 -0.42187,0 -0.42188,0.42188 m -1.6875,0 0,0.21093 0.63282,0 0,-0.21093 -0.63282,0 m 14.97657,1.6875 0.21093,0.63281 0.42188,0 c -4e-5,-0.63281 0.42183,-1.33593 1.26562,-2.10938 l 0,-0.21093 -0.21093,0 -1.6875,1.6875 m -37.33594,-1.26563 -0.42188,1.05469 0,0.42187 0.21094,0 c 0,-0.84374 0.21093,-1.26562 0.63281,-1.26562 l 0,-0.21094 -0.42187,0 m 1.26562,0 0,0.21094 c 0.44531,0 1.5,0.70313 3.16407,2.10937 l 0.42187,0 c 0.58593,1e-5 1.14843,-0.28124 1.6875,-0.84375 l -0.63281,-1.05468 1.89844,-0.21094 0,-0.21094 -2.10938,0 -0.42187,0.63281 c -1e-5,0.28126 0.21092,0.42188 0.63281,0.42188 l 0,0.21094 c -0.23439,0.5625 -0.72657,0.84375 -1.47656,0.84375 -0.32814,0 -1.03126,-0.63281 -2.10938,-1.89844 l -0.63281,-0.21094 -0.42188,0 m 16.45313,0 0,0.21094 1.05469,0 0,-0.21094 -1.05469,0 m -9.49219,0.21094 0,0.21094 3.16406,1.6875 0.21094,0 0,-0.21094 -3.16406,-1.6875 -0.21094,0 m 2.10938,0 c 0.35154,0.60938 0.84373,1.03125 1.47656,1.26562 l 0,-0.21093 -1.05469,-1.05469 -0.42187,0 m 4.85156,1.6875 1.26562,0.42187 -0.42187,-0.63281 0,-0.42187 c 0.23435,-0.5625 0.65623,-0.84375 1.26562,-0.84375 l 0,-0.21094 -0.63281,0 c -0.98439,0.28125 -1.47658,0.84375 -1.47656,1.6875 m 4.21875,-1.6875 0,0.21094 0.63281,0 0,-0.21094 -0.63281,0 m 6.32812,0.21094 -0.63281,1.47656 0.84375,0 0.42188,-1.47656 -0.63282,0 m -18.35156,0.84375 0.21094,0.63281 0.63281,0 -0.21094,-0.21094 0,-0.42187 0.21094,-0.21094 0,-0.21094 -0.42187,0 -0.42188,0.42188 m 25.52344,-0.42188 0,0.21094 0.63281,0 0,-0.21094 -0.63281,0 m -1.05469,0.21094 0,0.21094 0.84375,0 0,-0.21094 -0.84375,0 m -34.38281,0.63281 0,0.21094 0.21094,0.21094 0.63281,0 0.21094,-0.21094 -0.63282,0 -0.21093,-0.21094 -0.21094,0"
         id="path4088"
         style="font-size:72px;font-variant:normal;font-stretch:normal;fill:#ffffff;font-family:Goudy Initials;-inkscape-font-specification:Goudy Initials" />
    </g>
  </g>
</svg>
