<?xml version="1.0" encoding="UTF-8" standalone="no"?>
<!-- Created with Inkscape (http://www.inkscape.org/) -->

<svg
   xmlns:dc="http://purl.org/dc/elements/1.1/"
   xmlns:cc="http://creativecommons.org/ns#"
   xmlns:rdf="http://www.w3.org/1999/02/22-rdf-syntax-ns#"
   xmlns:svg="http://www.w3.org/2000/svg"
   xmlns="http://www.w3.org/2000/svg"
   version="1.2"
   width="56.734375"
   height="56.734375"
   id="svg2">
  <defs
     id="defs4" />
  <metadata
     id="metadata7">
    <rdf:RDF>
      <cc:Work
         rdf:about="">
        <dc:format>image/svg+xml</dc:format>
        <dc:type
           rdf:resource="http://purl.org/dc/dcmitype/StillImage" />
        <dc:title></dc:title>
      </cc:Work>
    </rdf:RDF>
  </metadata>
  <g
     transform="translate(-152.28125,-146.34738)"
     id="layer1">
    <g
       id="flowRoot2985"
       style="font-size:40px;font-style:normal;font-weight:normal;line-height:125%;letter-spacing:0px;word-spacing:0px;fill:#ffffff;fill-opacity:1;stroke:none;font-family:Sans">
      <path
         d="m 154.28125,148.34738 52.73437,0 0,52.73438 -52.73437,0 0,-52.73438 m 1.05469,1.05469 0,50.625 50.625,0 0,-50.625 -50.625,0 m 0.42187,0.63281 49.57031,0 0,49.57032 -49.57031,0 0,-49.57032 m 3.79688,3.375 0,0.42188 0.42187,0 c 0,-0.91401 1.6875,-1.82808 5.0625,-2.74219 l 1.26563,0 2.10937,0.21094 0,-0.42188 -2.95312,-0.21093 c -1.78126,5e-5 -3.75001,0.91411 -5.90625,2.74218 m 9.91406,-1.6875 c 0.42186,5e-5 0.6328,0.2813 0.63281,0.84375 l 0.21094,0 0.21094,-0.21093 0.21093,0 -0.42187,-0.84375 0.21094,-0.21094 0.21093,0 1.26563,0.21094 0.21094,0 0,-0.42188 c -1.12502,5e-5 -1.68752,-0.14057 -1.6875,-0.42187 -0.70314,0.14067 -1.05471,0.49223 -1.05469,1.05468 m 7.38281,-0.84375 0.21094,0.21094 0,0.84375 -2.10938,0.42188 0,0.21093 1.89844,0 c 0.67967,5e-5 1.31248,-0.42182 1.89844,-1.26562 l 0,-0.21094 -0.21094,0.21094 -0.42187,0 -0.84375,-0.63281 -0.21094,0.21093 -0.21094,0 m 3.58594,1.05469 0.21094,0 c 0.35153,-0.70307 0.84372,-1.05464 1.47656,-1.05469 l 0,-0.21093 -0.42188,0 c -0.30471,0.0235 -0.72658,0.44536 -1.26562,1.26562 m 2.32031,-1.26562 0,0.21093 c 0.56247,0.0704 0.84372,0.2813 0.84375,0.63282 l -0.21094,0.21093 -1.47656,0 0,0.42188 c 0.1406,0.42192 0.56247,0.63286 1.26563,0.63281 l 0.63281,-0.21094 0,-0.21093 -1.47656,0 0,-0.42188 1.26562,0 0.42188,-0.42187 0,-0.21094 c -3e-5,-0.32808 -0.35159,-0.53901 -1.05469,-0.63281 l -0.21094,0 m 6.53906,0.84375 0,0.21093 0.21094,0 c -3e-5,-0.42182 0.14059,-0.63276 0.42188,-0.63281 l 0.21093,0 c 0.84372,5e-5 1.26559,0.49224 1.26563,1.47656 l 0.84375,0 0.63281,-0.63281 -0.42187,-1.05469 -0.21094,0.21094 -0.42188,0 -0.63281,-0.42187 -0.63281,0 c -0.84379,5e-5 -1.26566,0.2813 -1.26563,0.84375 m 11.17969,-0.84375 0,0.21093 0.63281,0 0,-0.21093 -0.63281,0 m -40.5,0.21093 0,1.05469 0.21094,0 0,-1.05469 -0.21094,0 m 8.85938,0 0,0.84375 0.21093,0 0,-0.84375 -0.21093,0 m 25.52343,0 -0.84375,1.26563 0.21094,0 0.84375,-0.63281 0,-0.63282 -0.21094,0 m 6.96094,0 0,0.21094 2.74219,0.63281 0.21094,0 0.42187,-0.42187 0,-0.21094 -0.63281,0.21094 -2.53125,-0.42188 -0.21094,0 m -7.38281,1.6875 0,0.21094 c 1.78121,-0.8437 2.97652,-1.26557 3.58594,-1.26562 l 0.63281,0 c 4.07808,5e-5 6.11714,1.75786 6.11719,5.27343 -0.70318,2.25005 -1.82818,3.37505 -3.375,3.375 l -0.21094,0 c -0.77348,5e-5 -1.33598,-0.35152 -1.6875,-1.05468 l 0,-1.26563 c 0.39839,-0.70308 0.96089,-1.05464 1.6875,-1.05469 -0.0469,-0.37495 -0.39848,-0.6562 -1.05469,-0.84375 -0.89067,5e-5 -1.38285,0.63286 -1.47656,1.89844 l -0.21094,0 -0.42187,-0.42187 0.21093,-1.26563 c -0.0938,-1.68745 -0.65629,-2.5312 -1.6875,-2.53125 l 0,0.21094 0.42188,0.63281 0,2.53125 -0.21094,0.21094 c 0.44527,2.53129 1.7109,3.79691 3.79688,3.79687 l 0.84375,0 c 2.5312,-0.39839 3.79682,-1.66402 3.79687,-3.79687 l 0,-1.05469 c -0.6563,-3.37495 -2.69536,-5.06245 -6.11719,-5.0625 l -0.42187,0 c -1.80473,5e-5 -3.21098,0.49224 -4.21875,1.47656 m -37.33594,-1.26562 0,0.42187 c 0.42187,5e-5 0.70312,0.35162 0.84375,1.05469 l -0.84375,6.96094 c 0,3.86722 1.89844,7.17191 5.69531,9.91406 l 0.63282,0 c -3.09376,-2.85934 -4.64063,-5.32027 -4.64063,-7.38281 l -0.21094,-1.47656 -0.21093,0 0.21093,-0.21094 0,-0.42188 -0.63281,-0.21093 0,0.21093 0.42188,0.42188 -0.42188,0 -0.42187,-0.42188 0.21093,-0.21093 -0.21093,-0.21094 0,-0.42188 0.21093,0 1.05469,0.42188 0,-0.84375 -0.21094,0 0,0.63281 -1.05468,-0.42187 0,-0.21094 0.21093,-1.05469 1.26563,0.84375 c 0.65625,-1.9687 1.64062,-2.95308 2.95312,-2.95312 l 0.42188,0 0.21094,0.21093 0,-0.21093 -1.89844,-0.63282 0,-0.21093 0.21094,-0.21094 -0.42188,0 c -1.125,0.4688 -1.6875,1.38286 -1.6875,2.74219 l -0.63281,0 0,-0.21094 1.05469,-3.58594 0,-0.63281 -0.21094,0.21094 -0.63281,0 0,-1.26563 c -0.14063,-0.42182 -0.56251,-0.63276 -1.26563,-0.63281 m 8.4375,0.42187 0,0.21094 0.42188,0 c -1e-5,0.42193 0.14061,0.63286 0.42187,0.63281 l 0,-0.42187 c -1e-5,-0.2812 -0.21095,-0.42183 -0.63281,-0.42188 l -0.21094,0 m 22.14844,0 0,0.21094 0.63281,0.42188 0,-0.21094 -0.63281,-0.42188 m -14.55469,0.21094 0,0.21094 0.42188,0.42187 0.21093,0 -0.63281,-0.63281 m 12.02344,0 0,0.21094 0.42187,0 0,-0.21094 -0.42187,0 m -13.07813,0.21094 0.42188,0.42187 0.21094,0 0,-0.42187 -0.63282,0 m 28.05469,0 0,0.21094 c 0.89058,5e-5 1.38277,0.56255 1.47656,1.6875 l -0.63281,0.63281 -0.21094,0 c -0.28129,5e-5 -0.42192,-0.21089 -0.42187,-0.63281 l -0.21094,0.21093 -0.21094,0 c 0.28121,0.8438 0.56246,1.26567 0.84375,1.26563 l 0.84375,0 0.84375,-0.63281 0.63282,0.21093 0,-0.63281 c -5e-5,-1.26558 -0.91411,-2.03901 -2.74219,-2.32031 l -0.21094,0 m -37.96875,1.05469 0,0.21093 c 0,0.37505 0.91406,0.6563 2.74219,0.84375 2.53124,0.96099 3.79686,2.36724 3.79687,4.21875 l 0.21094,0.63282 0,2.10937 c -1e-5,0.23442 0.42186,0.44535 1.26563,0.63281 l 2.10937,-0.42187 0,-5.0625 c -2e-5,-1.12495 0.70311,-1.68745 2.10938,-1.6875 l 13.92187,0 0,-0.21094 -0.21094,-1.05469 -16.03125,0 -9.91406,-0.21093 m 27.42188,0.21093 c -4e-5,0.98443 0.28121,1.47661 0.84375,1.47657 2.17965,4e-5 3.65621,1.68754 4.42968,5.0625 l 0.21094,0 0,-0.42188 0.21094,0 -0.84375,-5.69531 0,-0.42188 -4.85156,0 m 5.27343,0.21094 0,1.05469 0.21094,0 0,-1.05469 -0.21094,0 m -32.90625,0.42188 0,0.21093 1.05469,0.42188 0.42188,0 0,-0.21094 -1.47657,-0.42187 m 27,0 0,0.63281 0.21094,0 0,-0.63281 -0.21094,0 m -25.3125,0.63281 0,0.21094 0.63282,0 0,-0.21094 -0.63282,0 m 1.05469,0.21094 0,0.21093 0.42188,0 0,-0.21093 -0.42188,0 m 24.25781,0 0,1.47656 0.21094,0 0,-1.47656 -0.21094,0 m 9.91407,0 0,0.63281 0.63281,0 0,-0.21094 -0.42188,-0.42187 -0.21093,0 m -24.89063,0.42187 c -0.70314,5e-5 -1.0547,0.2813 -1.05469,0.84375 l 0,4.64063 0.21094,0 0,-4.21875 c -2e-5,-0.56246 0.35155,-0.84371 1.05469,-0.84375 l 0,-0.21094 0.21094,0.21094 13.92187,0 0,-0.63282 -14.34375,0.21094 m 21.09375,0 0,0.84375 0.21094,0 0,-0.84375 -0.21094,0 m -5.27344,0.21094 0,0.21094 1.89844,0.21093 0.21094,0 0,-0.21093 -1.26563,-0.21094 -0.84375,0 m -15.1875,0.84375 0,2.32031 0.21094,0 0.21094,-2.10937 -0.21094,-0.21094 -0.21094,0 m 1.26563,0 0,0.63281 0.21094,0 0,-0.63281 -0.21094,0 m 0.63281,0 0,0.21094 c 0.32811,1.40629 1.03123,2.10941 2.10938,2.10937 l 0.21093,0 0.84375,-0.84375 0,-0.84375 -0.42187,-0.42187 -0.21094,0 c -2e-5,0.84379 -0.35158,1.26567 -1.05469,1.26562 -0.84377,-0.32808 -1.26564,-0.82027 -1.26562,-1.47656 l -0.21094,0 m 6.75,0.21094 c -3e-5,0.67973 -1.05471,1.45316 -3.16406,2.32031 l -0.21094,0.21094 0,0.84375 0.63281,0.84375 -0.21093,0.21093 -0.21094,0 c -1.64065,4e-5 -2.83596,-0.98433 -3.58594,-2.95312 l -0.21094,0 0,0.21094 c 0.86717,2.25004 2.13279,3.37504 3.79688,3.375 l -0.21094,1.05468 3.375,2.10938 0,1.26562 0.63281,0 0,-0.42187 -0.21093,-1.05469 c 0.56247,4e-5 0.84372,-0.2109 0.84375,-0.63281 -0.21097,-0.56246 -0.42191,-0.84371 -0.63282,-0.84375 l -1.47656,0 -1.05469,-0.21094 0,-0.21094 0.42188,-0.63281 c -3e-5,-0.28121 -0.21096,-0.42183 -0.63281,-0.42187 l -0.21094,-0.21094 0,-0.42188 1.05469,0.21094 2.53125,-0.42187 0.21093,0 0,0.21093 -1.47656,0.42188 0.42188,0.42187 0.42187,0 1.05469,-1.05468 -1.47656,-1.05469 -2.10938,0.21094 0,-0.63282 2.32031,-0.42187 0,-0.42188 -0.42187,0 0,-0.21093 0.42187,-1.26563 -0.42187,-0.42187 -0.21094,0 m 7.17188,0 0,3.16406 0.21093,0 0,-2.95313 0.21094,-0.21093 -0.42187,0 m 0.63281,0.42187 0,1.26563 c 0.0937,2.25004 0.37496,3.37504 0.84375,3.375 l 0.21094,-0.21094 -0.63282,-2.10938 0.21094,-2.32031 0,-0.42187 -0.21094,0 -0.42187,0.42187 m 4.21875,-0.42187 0,0.63281 0.21094,0 0,-0.63281 -0.21094,0 m -8.22656,0.42187 -0.21094,0.84375 0.21094,0 0.42187,-0.42187 -0.42187,-0.42188 m 1.26562,0 0,0.42188 0.63281,0 -0.42187,-0.42188 -0.21094,0 m -27,0.63281 0.84375,2.53125 -0.63281,0 c -1e-5,1.21879 1.1953,2.20317 3.58594,2.95313 l 0.21093,0.21094 0,0.42187 -0.42187,0.42188 c -1.03126,-0.84372 -1.8047,-1.26559 -2.32031,-1.26563 l -0.42188,0 0.21094,0.21094 0,0.21094 -0.21094,0.21093 0,0.21094 -0.21094,-0.21094 -0.63281,0 -0.42187,0.42188 c 0.98437,0.84379 1.82811,1.26566 2.53125,1.26562 l 0.21093,0.21094 0,0.21094 c -0.42188,3e-5 -0.63282,0.14066 -0.63281,0.42187 l 0,0.42188 1.6875,-0.42188 1.05469,0 0.21094,0.21094 c 3.28123,4e-5 5.95311,-1.47652 8.01562,-4.42969 l -0.21094,0 c -1.82814,2.25004 -4.07813,3.37504 -6.75,3.375 l 0,-0.63281 2.10938,-0.21094 0,-0.21093 c -0.65626,3e-5 -1.85157,-0.49215 -3.58594,-1.47657 l 0,-0.63281 0.42188,0 c 1.5703,1.12504 2.76561,1.68754 3.58593,1.6875 1.54686,4e-5 2.95311,-0.84371 4.21875,-2.53125 -1.12501,0.84379 -2.10939,1.26567 -2.95312,1.26563 l -0.84375,0 -1.47656,-0.42188 0.21093,-0.21094 0,-0.21093 -0.21093,0 -0.21094,0.21093 -0.42188,-1.89843 -0.42187,0 c -0.28126,4e-5 -0.42189,0.21098 -0.42188,0.63281 l -0.42187,0 0,-0.63281 0.42187,0 0,-0.21094 -0.63281,0 0,-0.21094 0.42188,-0.42187 0.42187,0.42187 0,-0.21094 -0.42187,-1.47656 -0.21094,0 c -0.56251,0.16411 -0.84376,0.79692 -0.84375,1.89844 l -0.21094,0 c -0.32813,4e-5 -0.60938,-0.63277 -0.84375,-1.89844 l -0.63281,-0.42187 c -1e-5,0.56254 -0.14063,0.84379 -0.42188,0.84375 -0.53907,-0.70308 -1.10157,-1.05465 -1.6875,-1.05469 l -0.21093,0 -0.42188,0.42187 m 14.76563,-0.21093 0,0.42187 0.21093,0 0,-0.42187 -0.21093,0 m 19.40625,0 0,0.42187 0.21093,2.10938 -0.63281,0.63281 0.21094,0 c 0.42183,-0.0937 0.63277,-0.5859 0.63281,-1.47656 l -0.21094,-1.6875 -0.21093,0 m 8.22656,0 c -0.2813,0.56254 -0.70317,0.84379 -1.26563,0.84375 l -0.63281,-0.63282 -0.63281,0.63282 0.63281,0.63281 0.21094,0 c 0.8437,4e-5 1.47651,-0.49215 1.89844,-1.47656 l -0.21094,0 m -14.34375,0.42187 -0.21094,0.21094 0,0.63281 0.63281,-0.21094 0,-0.21093 -0.42187,-0.42188 m -1.6875,0.21094 0,0.63281 0.42187,0 0.42188,-0.42187 -0.21094,-0.21094 -0.63281,0 m 4.42969,1.47656 0.84375,-0.63281 0.63281,0.21094 0,-0.21094 -0.63281,-0.63281 c -0.56254,0.28129 -0.84379,0.70316 -0.84375,1.26562 m -5.48438,-1.05469 -0.21094,0.21094 0,0.63281 0.42188,0 0.42187,-0.42187 0,-0.21094 -0.63281,-0.21094 m -11.17969,0.42188 -1.26562,5.48437 0,0.21094 c 0.53904,0.84379 1.31248,1.26566 2.32031,1.26563 l 0,-0.42188 0.42188,0 0.21093,0.21094 c 0.91404,3e-5 1.47654,-0.63278 1.6875,-1.89844 l -0.42187,0 0.21094,-0.21094 0,-0.21093 c -3e-5,-0.98434 -0.49221,-1.47653 -1.47657,-1.47657 -0.25783,4e-5 -0.6797,0.56254 -1.26562,1.6875 l 0,0.42188 0.21094,0 c 0.28123,4e-5 0.49216,-0.56246 0.63281,-1.6875 l 0.21094,-0.21094 0.42187,0 c 0.56248,0.23442 0.84373,0.7266 0.84375,1.47656 l 0,0.42188 -1.05469,1.05469 -0.63281,0 c -0.77346,3e-5 -1.33596,-0.42184 -1.6875,-1.26563 l 0.84375,-4.64062 0,-0.21094 -0.21094,0 m 9.91407,0 0,0.21094 0.21093,0.63281 0.21094,0 0,-0.84375 -0.42187,0 m 12.65625,-0.21094 0.21093,0 0.21094,0.21094 0.21094,0 0,-0.21094 0.63281,0.21094 -0.21094,0.21094 0.21094,0.21093 0,0.21094 -0.42187,0.42188 -0.21094,0 -0.42188,-0.42188 0.63282,0 0,-0.21094 -0.84375,0 0,-0.63281 m -9.49219,0.42188 -0.21094,0.21093 0,0.42188 0.63281,0.21094 0,-0.42188 -0.42187,-0.42187 m -7.17188,0.21093 0.21094,0.84375 -0.21094,0.21094 0.21094,0.21094 -0.42187,0 -0.84375,-0.42188 0,-0.63281 0.84375,0.63281 0,-0.21093 -0.42188,-0.42188 0.21094,-0.21094 0.42187,0 m -18.5625,0.21094 0.42188,0 1.05469,1.26563 -0.21094,0.21093 -0.21094,0 -0.42187,-0.42187 0.21093,-0.21094 0,-0.21094 c -0.5625,5e-5 -0.84375,-0.14058 -0.84375,-0.42187 l 0,-0.21094 m 23.83594,1.47656 0.21094,0 c -3e-5,-0.28121 0.21091,-0.42183 0.63281,-0.42187 l 0.21094,-0.63281 -0.21094,0 -0.84375,1.05468 M 199,159.73801 l 0.21094,0 0,0.21094 -0.42188,0.42187 -0.63281,0 0,-0.21094 L 199,159.73801 m -16.03125,0.21094 0.21094,0.21093 0,0.21094 -1.89844,0.21094 c 0.0937,-0.42183 0.65622,-0.63277 1.6875,-0.63281 m -17.29688,0.21093 0.21094,0.21094 0,0.21094 -0.42187,0.42187 0.42187,0.42188 0.84375,0.63281 -0.42187,-1.26562 0.42187,0 c -1e-5,1.1016 0.91405,1.80472 2.74219,2.10937 l 0.42187,0 0,0.42188 -1.47656,0 -1.6875,-1.05469 0,0.21094 c -0.98438,-0.42184 -1.68751,-1.05465 -2.10937,-1.89844 l 1.05468,-0.42188 m 24.46875,0.21094 0,0.42188 0.21094,0 0,-0.42188 -0.21094,0 m -16.66406,0.21094 -0.21094,0.21094 0,0.21093 0.21094,0 0.21094,-0.21093 0,-0.21094 -0.21094,0 M 199,160.37082 l 1.47656,0 0,0.21094 -1.47656,0 0,-0.21094 m -35.01563,0.42188 1.05469,1.26562 -0.21094,0 c -0.84375,-0.32808 -1.26563,-0.60933 -1.26562,-0.84375 l 0.42187,-0.42187 m 23.83594,1.05468 0,0.21094 0.21094,0 0,-0.42187 c 0.82028,4e-5 1.94528,1.12504 3.375,3.375 l 0.21094,0.21093 0.42187,0 c 0.72653,4e-5 1.1484,-0.2109 1.26563,-0.63281 l 0,-0.21094 -0.63282,-2.32031 1.05469,-0.63281 0.63281,0.21094 -0.21093,-0.63282 -0.63282,0 c -1.12503,4e-5 -1.68753,0.56254 -1.6875,1.6875 l 0.42188,0.63282 -0.21094,0.63281 -0.42187,0 c -0.42191,-1.96871 -1.40629,-2.95309 -2.95313,-2.95313 -0.56253,0.14067 -0.84378,0.42192 -0.84375,0.84375 m 14.97656,-0.84375 -0.21093,0.21094 0,0.21094 0.21093,0 0.21094,-0.21094 0,-0.21094 -0.21094,0 m -0.63281,0.42188 c -2.53129,1.54691 -3.79692,3.23441 -3.79687,5.0625 l 0,1.05469 0.21093,0 c -4e-5,-2.43747 0.7734,-4.05465 2.32032,-4.85157 0.63276,-0.23433 1.12495,-0.65621 1.47656,-1.26562 l -0.21094,0 m -20.25,0.21094 0,0.21093 0.42188,0 0,-0.21093 -0.42188,0 m 16.66406,0.21093 0,0.21094 0.84375,0 0.63282,-0.21094 0,-0.21093 -0.21094,0 -1.26563,0.21093 m -1.26562,0 -0.21094,0.21094 0,0.21094 0.63281,0 -0.42187,-0.42188 m -15.39844,0.42188 0,0.21094 0.84375,0 0,-0.42188 -0.84375,0.21094 m 3.16406,-0.21094 0,0.21094 c 0.93747,4e-5 1.57029,0.3516 1.89844,1.05469 l 0,0.63281 -0.63281,0.63281 -0.42188,0 -0.21093,-0.21094 -0.21094,0 0,0.21094 0.42187,0.42188 c 0.74997,3e-5 1.24216,-0.28122 1.47657,-0.84375 l 0,-0.63282 c -4e-5,-0.70308 -0.3516,-1.19527 -1.05469,-1.47656 l -1.26563,0 m -4.85156,0.21094 0.42188,0 0.21093,0.84375 -0.63281,0 0,-0.84375 m 17.71875,0.63281 0.21094,0.21094 0.42187,0 0,-0.63281 -0.21093,0 -0.42188,0.42187 m 2.95313,2.53125 c -5e-5,0.84379 0.56245,1.75785 1.6875,2.74219 l 0.21093,0 0,-0.21094 c -0.98442,-1.07809 -1.4766,-1.92184 -1.47656,-2.53125 l 0,-1.47656 1.26563,-0.84375 0.21093,0 c 0.63277,4e-5 1.19527,0.56254 1.6875,1.6875 -5e-5,1.12503 -0.49223,2.46097 -1.47656,4.00781 l 0.21094,0 c 0.98433,-1.21871 1.47651,-2.34371 1.47656,-3.375 l 0,-0.84375 c -5e-5,-1.12496 -0.63286,-1.68746 -1.89844,-1.6875 l 0,-0.21094 c -1.26567,0.42192 -1.89848,1.33598 -1.89843,2.74219 m -6.11719,-0.21094 0,0.21094 c -4e-5,1.50004 0.7734,2.9766 2.32031,4.42969 l -1.47656,-3.375 c 0.32808,-0.98434 0.60933,-1.47653 0.84375,-1.47656 l 0.42187,0 c 0.42184,3e-5 0.63277,0.28128 0.63282,0.84375 l 0.21093,0 0.21094,-1.05469 -0.21094,-0.21094 0.21094,-0.21094 -0.21094,0 0,0.21094 -0.84375,-0.42187 -0.63281,0.21093 0,-0.84375 -0.21094,0 c -0.84379,0.3516 -1.26566,0.9141 -1.26562,1.6875 m -29.32031,-1.6875 0.21093,0.63282 0.21094,-0.21094 0.63281,0.21094 -0.42187,0.42187 -0.63281,-0.21094 -0.21094,1.05469 -0.21094,0 -0.21094,-1.05469 c 0.21093,-0.56246 0.42187,-0.84371 0.63282,-0.84375 m 6.96093,0.63282 0,6.11718 0.21094,1.05469 0.21094,0 0,-6.75 -0.42188,-0.42187 m 20.67188,-0.21094 c -0.28129,0.63285 -0.56254,0.98441 -0.84375,1.05469 l -0.42188,-0.42188 1.05469,-0.63281 0.21094,0 m -14.76563,2.10937 0,0.42188 1.47657,1.26562 0,0.21094 c -0.4219,3e-5 -0.63284,0.21097 -0.63282,0.63281 l 1.6875,0.42188 0,-0.21094 -0.42187,-0.42187 1.05469,0 1.05468,0.21093 -0.21093,0.21094 0,0.21094 1.6875,-0.42188 0,0.42188 0.21093,0 0,-0.84375 c 0.28122,3e-5 0.49216,0.42191 0.63282,1.26562 l -0.21094,0 -0.21094,-0.21093 -2.95312,0.42187 0.21093,0.21094 0,0.21094 -0.42187,0.63281 0,0.63281 0.21094,-0.21094 0.21093,0 -0.21093,-0.21093 0,-0.21094 c -3e-5,-0.28122 0.42184,-0.49216 1.26562,-0.63281 l 0.84375,0.42187 c 1.12497,3e-5 1.68747,-0.70309 1.6875,-2.10937 -3e-5,-0.70309 -1.68753,-1.05466 -5.0625,-1.05469 -0.70315,-0.72653 -1.05471,-1.35934 -1.05469,-1.89844 l 0.84375,-0.84375 0.84375,0.42188 0,-0.21094 -0.42187,-0.42188 -1.05469,0 c -0.70315,0.3516 -1.05471,0.9141 -1.05469,1.6875 m 10.33594,-1.05468 0,0.63281 c -3e-5,0.75003 0.28122,1.24222 0.84375,1.47656 l 0,-0.63281 -0.42187,-0.63281 0,-0.84375 1.05468,0 0,0.42187 0.42188,0 0,-0.21094 c -0.0469,-0.37496 -0.39847,-0.65621 -1.05469,-0.84375 l -0.84375,0.63282 m -24.89062,-0.42188 1.05468,0.21094 0,0.21094 -0.21093,0.21093 0,0.21094 c -0.84376,-0.18746 -1.26564,-0.3984 -1.26563,-0.63281 l 0.21094,-0.21094 0.21094,0 m 4.64062,14.34375 0.21094,7.80469 c -1e-5,4.21876 -0.63283,6.32813 -1.89844,6.32812 -1e-5,0.23439 -1.26563,0.65626 -3.79687,1.26563 l 0,0.21094 23.20312,0.21093 1.89844,0 5.27344,0.21094 c 2.53121,-3.8203 3.79683,-5.92967 3.79687,-6.32812 l -0.21094,0 c -2.55472,2.95313 -6.28128,4.42969 -11.17968,4.42968 l -10.75782,0 c -1.19533,1e-5 -2.03908,-0.70311 -2.53125,-2.10937 L 172,185.47238 l 0,-8.01562 -0.21094,-2.95313 c 0.18748,-0.70309 0.39842,-1.05466 0.63281,-1.05468 l 3.16407,0 c -2e-5,-0.35154 0.28123,-0.84372 0.84375,-1.47657 l -0.21094,0.21094 -1.6875,0 c -1.82814,3e-5 -2.74221,-0.56247 -2.74219,-1.6875 l 0,-5.69531 -3.375,1.6875 0,12.44531 m -2.74219,-14.13281 c 0.56249,0.14066 0.84374,0.49222 0.84375,1.05469 l -1.05468,-0.63282 0.21093,-0.21093 0,-0.21094 m 26.78907,0.84375 0,0.42187 0.21093,0 c 0.63278,-0.28121 0.98434,-0.56246 1.05469,-0.84375 l 0,-0.21093 -1.26562,0.63281 m -31.64063,0 0,0.63281 c 0,0.70316 0.28125,1.12504 0.84375,1.26563 l -0.21094,-0.21094 0,-1.26563 0.21094,-0.21093 0,-0.21094 -0.84375,0 m -4.21875,1.05469 0,0.84375 0.21094,0.21093 0,-0.42187 0.42187,-0.42188 0.21094,0 c 0.53906,4e-5 1.52344,0.63285 2.95313,1.89844 l 0,-0.21094 -2.95313,-2.53125 c -0.5625,0.21098 -0.84375,0.42191 -0.84375,0.63282 m 28.6875,0.21093 0.21094,0.63282 1.26562,0 0,0.42187 c -0.4219,3e-5 -0.63284,0.14066 -0.63281,0.42188 l 1.05469,-0.21094 0.42187,0.42187 -1.6875,0.42188 0,0.42187 0.63282,0 0,0.21094 c -0.56253,3e-5 -0.84378,0.14066 -0.84375,0.42188 l 0,0.21093 0.42187,0.42188 0.42188,0 1.05468,-0.21094 0,-0.21094 c -0.4219,4e-5 -0.63284,-0.14059 -0.63281,-0.42187 l 1.47656,-1.47656 0,-0.42188 c -1.12503,-0.32809 -1.68753,-0.60934 -1.6875,-0.84375 l 0.63282,-0.63281 0,-0.21094 -1.05469,-0.21094 -0.42188,0 -0.63281,0.84375 m 8.01563,-0.84375 0,0.42188 7.17187,9.07031 c -4e-5,-0.3281 -0.91411,-1.66403 -2.74219,-4.00781 l 0.42188,-0.42188 -0.21094,0 -0.42187,0.42188 c -2.25004,-3.42184 -3.58598,-5.24997 -4.00782,-5.48438 l -0.21093,0 m -19.82813,1.6875 c 0.42186,1.26566 1.19529,1.89847 2.32031,1.89844 l 0.42188,0 2.10937,-0.21094 0,-0.42187 -0.21093,0 -0.63282,0.42187 c -1.96877,4e-5 -2.95314,-0.63278 -2.95312,-1.89843 l 0,-0.21094 0.63281,-0.63281 0.63281,0.21093 -0.63281,-0.63281 -0.84375,0 c -0.37502,4e-5 -0.65627,0.49222 -0.84375,1.47656 m 16.66406,-0.84375 c -0.63284,3.37504 -2.17972,5.06253 -4.64062,5.0625 l -6.75,0 c -0.6094,0.3516 -1.03127,0.84378 -1.26563,1.47657 l 8.01563,0 c 2.03903,2e-5 3.44528,1.12502 4.21875,3.375 0.28121,1.26564 0.56246,1.89846 0.84375,1.89843 l 0.21094,0 -0.42188,-6.11718 0.42188,-5.48438 -0.21094,-0.21094 -0.42188,0 m -25.52343,1.05469 0.21093,0.63281 -0.21093,0.21094 -0.21094,0 -0.63281,-0.21094 c -1e-5,0.84379 0.49218,1.26566 1.47656,1.26563 l 0.63281,0.63281 -0.63281,0.63281 -2.10938,-0.84375 -0.42187,0 -0.42188,0.42188 0.63282,0.21094 0,0.21093 -1.05469,0.21094 0,0.63281 1.05469,-0.21093 -0.21094,-0.21094 0,-0.21094 1.89844,0 0,0.21094 -0.42188,0 0,0.21094 c 1.54687,3e-5 2.3203,-0.56247 2.32031,-1.6875 -0.84376,-1.03122 -1.26563,-2.0156 -1.26562,-2.95313 -0.35157,4e-5 -0.56251,0.28129 -0.63281,0.84375 m 26.78906,0 -0.42188,4.64063 0.21094,6.53906 -0.42187,0 0,0.21094 0.63281,0 0.21094,-0.21094 -0.42188,-6.75 0.42188,-3.375 0,-1.05469 -0.21094,0 m 7.17187,0.21094 0,0.21094 0.42188,0.42187 0,-0.21094 -0.42188,-0.42187 m -41.55468,1.6875 0,0.42187 0.63281,1.05469 0.21094,0 0,-0.42187 -0.42188,-1.26563 0.63281,-0.42187 0.63282,0 c 0.28124,3e-5 0.42187,0.21097 0.42187,0.63281 l 0.21094,0 0,-0.42188 -0.84375,-0.63281 c -0.86719,0.28128 -1.35938,0.63285 -1.47656,1.05469 m 35.22656,-1.05469 0,0.21094 0.84375,0.42187 0.21094,0 0,-0.21093 -1.05469,-0.42188 m 6.32812,1.6875 0.21094,0.63281 0.42188,0 L 199,170.9177 l 0,-0.63282 c 0.39839,-0.70309 0.96089,-1.05465 1.6875,-1.05468 l 0,-0.42188 c -0.79692,3e-5 -1.50004,0.56253 -2.10938,1.6875 m 5.27344,-1.47656 0,0.21094 c 0.56245,0.75003 0.8437,1.38284 0.84375,1.89843 -0.35161,0.84378 -1.19536,1.26566 -2.53125,1.26563 l 0,0.21094 0.84375,0 c 1.26558,3e-5 1.89839,-0.7031 1.89844,-2.10938 -5e-5,-0.74997 -0.2813,-1.24215 -0.84375,-1.47656 l -0.21094,0 m -30.16406,1.6875 -0.21094,-0.21094 0,0.63281 6.53906,-1.47656 0,-0.21094 -0.63281,0 c -0.58596,0.37504 -2.4844,0.79691 -5.69531,1.26563 m 27.63281,-1.26563 -0.42187,0.84375 0,0.21094 0.42187,0 0.21094,-0.84375 0,-0.21094 -0.21094,0 m 1.05469,0 1.47656,1.6875 0,-0.21093 c -0.23442,-0.63278 -0.6563,-1.12497 -1.26562,-1.47657 l -0.21094,0 m -10.125,0.21094 0,0.84375 c 1.35934,3e-5 3.25777,1.12503 5.69531,3.375 0.67965,1.03128 1.24215,1.59378 1.6875,1.6875 -1.2891,-2.60153 -3.75004,-4.57028 -7.38281,-5.90625 m -18.35156,10.96875 0.84375,4.64063 c -0.4219,1e-5 -0.63283,0.21095 -0.63282,0.63281 l 0.42188,1.89844 0,0.63281 -0.21094,0.21094 0,0.21093 0.21094,0 0.84375,-0.84375 0,-0.63281 -0.21094,-1.47656 0.21094,0 0.84375,0.63281 1.05469,0 0,-0.21094 -0.42188,0 c -0.37502,-1.40623 -0.72658,-2.10935 -1.05469,-2.10937 l -0.63281,0.42187 -0.63281,-2.53125 0,-0.21093 0.21094,-0.21094 0,-0.21094 -0.21094,0 -0.21094,0.21094 0,-0.21094 c -2e-5,-5.36716 2.03904,-9.09372 6.11719,-11.17969 l 0,-0.42187 -0.21094,0 c -2.22658,0.86722 -3.98439,2.83597 -5.27344,5.90625 -0.70314,1.50002 -1.0547,3.11721 -1.05468,4.85156 m -6.96094,-10.54687 -0.21094,1.05468 0,0.21094 0.21094,0 0.21094,-0.84375 0,-0.42187 -0.21094,0 m 30.16406,0 0,0.21093 0.21094,0.21094 0.21094,0 0,-0.21094 -0.21094,-0.21093 -0.21094,0 m 2.53125,0.21093 0,0.21094 0.63281,0.63281 -0.63281,-0.84375 m -17.29687,0.21094 0,0.21094 0.42187,0 0,-0.21094 -0.42187,0 m -14.76563,0.21094 -0.21094,0.63281 0.42188,0 0,-0.63281 -0.21094,0 m 34.38281,0 -0.63281,1.89844 0,1.26562 0.21094,0 c -5e-5,-1.59372 0.21089,-2.64841 0.63281,-3.16406 l -0.21094,0 m -44.71875,0.84375 -0.21093,0.63281 0.21093,0 0.21094,-0.21094 0,-0.42187 -0.21094,0 m 35.22657,0 -0.63282,1.47656 0.42188,0.42188 c -4e-5,-0.98435 0.49215,-1.47654 1.47656,-1.47657 l 0.21094,0 0.84375,0.21094 0.21094,0 0,-0.21094 -1.89844,-0.42187 -0.63281,0 m -34.38282,0.63281 0,0.42188 0.21094,0 0.42188,-0.42188 -0.63282,0 m -1.05468,0.63281 0,0.42188 0.21093,0 0,-0.42188 -0.21093,0 m 1.89843,0.42188 0,0.21094 0.84375,0 0,-0.21094 -0.42187,-0.42188 -0.42188,0.42188 m 6.75,1.05469 0.63282,2.10937 0.21093,0 0,-0.21094 -0.42187,-2.53125 1.26562,-0.42187 c -1e-5,-0.28122 -0.21095,-0.42185 -0.63281,-0.42188 -0.56251,3e-5 -0.84376,0.49222 -0.84375,1.47657 l -0.21094,0 m 38.60157,-1.47657 0,0.84375 0.21093,0 0,-0.84375 -0.21093,0 m -10.125,1.05469 0,1.26563 -0.63282,0 c -3e-5,0.67971 0.70309,1.66408 2.10938,2.95312 l 0.21094,0.63281 -0.21094,0.21094 -0.21094,0 c -0.3516,-0.98435 -0.84379,-1.47654 -1.47656,-1.47656 l -0.42188,0.42187 -1.05468,-0.42187 -0.21094,0.21094 c 0.30465,0.98439 0.72652,1.47658 1.26562,1.47656 l 0,0.42187 -0.63281,0.21094 c 0.23434,0.70315 0.65621,1.05471 1.26563,1.05469 l 0.21093,-0.21094 c -4e-5,0.35158 0.42184,1.05471 1.26563,2.10938 l 0.21094,0.63281 -0.21094,0.21094 0,0.42187 1.05469,0.42188 0.21093,-2.10938 0,-1.89844 -0.84375,0 0,-0.21093 0.42188,-0.42188 0.21094,0.21094 0,-0.21094 -1.89844,-5.27344 0,-0.84375 0.21094,-0.21093 0,-0.21094 -0.21094,0 -0.63281,0.63281 m -36.28125,-0.42187 0,0.42187 0.42187,-0.42187 -0.42187,0 m 1.89843,0.84375 0.21094,0.21093 0.21094,0 0.42187,-0.42187 -0.21093,-0.21094 -0.21094,0 -0.42188,0.42188 m 1.89844,-0.42188 -0.21094,0.21094 0,0.21094 c 0.28125,0.63284 0.5625,0.9844 0.84375,1.05468 l 0.21094,0 0,-0.21093 c -0.56251,2e-5 -0.84375,-0.35154 -0.84375,-1.05469 l 0.21094,-0.21094 -0.21094,0 m 1.6875,0 0,0.42188 c -1e-5,0.56252 0.42187,1.26565 1.26563,2.10937 -1.12501,0.14065 -1.68751,0.4219 -1.6875,0.84375 l 0,0.42188 0.21093,0 c 0.98437,2e-5 1.47656,-0.28123 1.47657,-0.84375 l 0,-0.21094 0.42187,0 c 0.70312,0.39846 1.05468,0.82034 1.05469,1.26562 l 0.21094,0 0,-0.42187 c -1e-5,-0.30466 -0.56251,-0.86716 -1.6875,-1.6875 l 0.42187,-0.63281 0,-0.21094 c -0.84376,-0.1406 -1.26563,-0.49216 -1.26562,-1.05469 l -0.42188,0 m 9.07031,0.42188 0.21094,2.10937 0,8.85938 c -2e-5,2.43751 0.14061,4.33595 0.42188,5.69531 l 0.21093,0 c -0.28126,-2.74218 -0.42189,-7.3828 -0.42187,-13.92188 l 0,-1.6875 c -2e-5,-0.70309 0.28123,-1.05466 0.84375,-1.05468 l 0,-0.42188 -1.26563,0.42188 m 1.47657,-0.21094 0,0.21094 0.84375,0 0.42187,-0.42188 -0.21094,0 -1.05468,0.21094 m 3.16406,-0.21094 0,0.21094 9.49219,0.21094 0.21093,0.21093 0.42188,0 0,-0.21093 -2.95313,-0.42188 -7.17187,0 m 24.46875,0.21094 0,0.42187 0.21094,0 0,-0.42187 -0.21094,0 M 158.5,174.2927 l 0,0.42187 0.63281,0 0,-0.42187 -0.63281,0 m 45.77344,0.21093 c -5e-5,0.9844 -0.2813,1.47659 -0.84375,1.47657 l -0.42188,0 -1.26562,-1.26563 0,0.21094 c 0.35151,0.84377 0.91401,1.26565 1.6875,1.26562 l 0.21093,0 c 0.56246,-0.28122 0.8437,-0.7031 0.84375,-1.26562 l 0,-0.42188 -0.21093,0 m -47.03907,0.21094 0,0.63281 0.63282,0 0,-0.63281 -0.63282,0 m 19.19532,0.21094 -0.84375,3.375 c -2e-5,1.05471 0.35154,1.89846 1.05468,2.53125 l 0,-0.63281 1.47657,0.21093 0.42187,-0.63281 0,-0.42187 -1.05469,0.21093 -0.84375,-0.84375 0.21094,-0.21093 -0.21094,0 -0.21093,0.21093 -0.21094,-1.47656 0,-0.21094 c -2e-5,-0.67966 0.21092,-1.38278 0.63281,-2.10937 l -0.42187,0 m 8.64843,1.6875 0,0.42187 0.21094,0 c -3e-5,-0.53903 0.35153,-1.17185 1.05469,-1.89843 l -0.42188,0 c -0.56253,0.2344 -0.84378,0.72658 -0.84375,1.47656 m 6.96094,-1.47656 0,0.21093 c 0.25778,0.51565 0.67965,0.86722 1.26563,1.05469 l 0,-0.21094 -1.26563,-1.05468 m -32.27344,0.21093 0,0.21094 c 0,0.28128 0.42187,0.49221 1.26563,0.63281 l 0.21094,0 0,-0.21093 c -0.37501,2e-5 -0.79688,-0.21092 -1.26563,-0.63282 l -0.21094,0 m 19.40625,0.21094 -0.21093,0.84375 c 0.1406,0.51565 0.63278,1.21878 1.47656,2.10938 l -0.21094,0.21093 -0.21094,0 -0.84375,-0.21093 c 0.16404,2.53127 1.14842,3.79689 2.95313,3.79687 l 0.42187,0 0,-0.21094 -1.26562,-0.21093 0,-0.21094 0.21094,-0.21094 0,-0.21094 1.6875,0.63282 0,-0.42188 c -0.70316,-0.0937 -1.05472,-0.30467 -1.05469,-0.63281 l 0.63281,0 0.21094,0.21094 0.21094,0 0,-0.21094 -0.84375,-0.42188 0,-0.63281 0.21093,0 0.63282,0.42188 0,-0.21094 -0.63282,-0.63281 0,-0.21094 0.42188,0 0.21094,0.21094 0.21093,0 0,-0.21094 1.6875,0.63281 -0.63281,-0.63281 0.21094,-0.63281 -0.21094,-0.21094 -0.21094,0 0.21094,-0.21094 0,-0.21094 -0.21094,-0.21093 0,-0.21094 0.21094,-0.21094 0.21094,0 0.21094,0.21094 0,-0.21094 c -0.56253,-0.28122 -0.84378,-0.63279 -0.84375,-1.05469 -0.28128,3e-5 -0.42191,0.21097 -0.42188,0.63282 l -0.21094,0 c -2e-5,-0.49217 -1.40627,-0.91404 -4.21875,-1.26563 m 18.35157,0 0,0.21094 0.21093,0.63281 -0.84375,0 0,1.26563 1.26563,-0.42188 0.42187,0 c 0.98433,3e-5 2.10933,2.25002 3.375,6.75 0.0703,1.40627 0.28121,2.10939 0.63282,2.10938 l 0.21093,-0.21094 c -4e-5,-2.95311 -0.84379,-5.90623 -2.53125,-8.85938 l -0.21093,0 -0.21094,0.21094 -0.21094,0 -0.21094,-0.21094 0,-0.21093 0.42188,-0.42188 -0.21094,0 -0.21094,0.21094 -0.42187,-0.42188 -0.21094,0 0.21094,0.21094 0,0.21094 -0.42188,0 0,-0.42188 0.21094,-0.21093 0,-0.21094 -1.05469,-0.21094 -0.21093,0 m -38.8125,0.21094 0,0.42187 0.42187,0 0,-0.42187 -0.42187,0 m 41.76562,0 0,0.21094 0.21094,0.21093 0.21094,0 0,-0.21093 -0.21094,-0.21094 -0.21094,0 m -20.03906,0.42187 1.47656,0 0.42188,0.42188 -0.21094,0.21094 -1.05469,-0.21094 -0.63281,0 0,-0.42188 m 20.88281,0.21094 -0.21094,0.63281 c 0.70308,1.14846 1.40621,3.6094 2.10938,7.38282 l 0.21094,0 0,-0.84375 c -5e-5,-1.31248 -0.56255,-3.70311 -1.6875,-7.17188 l -0.42188,0 m -34.80469,0.21094 0,0.42187 0.21094,0 0,-0.42187 -0.21094,0 m -5.69531,0.63281 0.21094,0.63281 0.42187,0 -0.21093,-1.05468 -0.42188,0.42187 M 199,176.61301 l 0.42187,0 0,0.21094 -0.42187,0 0,-0.21094 m -42.1875,1.47656 c 0.1875,1.26565 1.10156,1.89846 2.74219,1.89844 l 0.42187,0 0,-0.21094 c -1.82813,-0.1406 -2.74219,-0.63279 -2.74219,-1.47656 l 0.84375,-1.05469 c 0.5625,0.0703 0.84375,0.28128 0.84375,0.63281 l 0.42188,0 0,-0.21093 -0.63281,-0.63282 -0.63282,0 c -0.84375,3e-5 -1.26562,0.35159 -1.26562,1.05469 m 29.32031,-0.63281 0,0.42187 0.21094,-0.21093 0.63281,0 0.42188,1.05468 -1.47657,0.42188 0,0.42187 1.6875,-0.42187 0.42188,0.42187 -1.05469,0.21094 0,0.21094 1.05469,0 0,0.21094 -0.21094,0.21093 0,0.21094 0.21094,0.21094 1.47656,0 0,-0.21094 -0.21094,-0.63281 0.21094,0 0.84375,0.21094 0.21094,-0.21094 0,-0.21094 c -0.28129,2e-5 -0.77347,-0.42185 -1.47656,-1.26562 -0.56254,2e-5 -0.84379,-0.14061 -0.84375,-0.42188 l 0.63281,-0.63281 -1.6875,-0.21094 -1.05469,0.21094 m -4.64062,0.21094 1.05468,1.26562 0,0.21094 -0.63281,0 -0.84375,-1.26563 0.21094,-0.21093 0.21094,0 m 3.16406,0.21093 0,0.21094 0.63281,0.42188 0,-0.21094 -0.63281,-0.42188 m 18.5625,1.6875 0.21094,1.05469 0.21093,0 c -4e-5,-0.98435 0.14058,-1.47654 0.42188,-1.47656 l 0.21094,0.21094 0.21093,0 0,-0.63282 -0.42187,-0.42187 c -0.37505,2e-5 -0.6563,0.4219 -0.84375,1.26562 m -8.85938,-0.84375 0.42188,0.42188 0.42187,0.42187 0,0.63282 -0.63281,0 -0.63281,-1.05469 0,-0.21094 0.21094,-0.21094 0.21093,0 m -30.16406,0.42188 0,0.21094 0.42188,0.63281 0,0.21094 -0.42188,1.26562 0.21094,0 0.42187,-0.63281 0,-1.47656 -0.63281,-0.21094 m 1.89844,0.21094 c -1e-5,0.51564 -0.28126,1.14845 -0.84375,1.89843 l 0.21094,0 0.84375,-1.47656 0,-0.42187 -0.21094,0 m 22.14844,-0.21094 0.42187,0 0.21094,0.63281 -0.63281,0.21094 0,-0.84375 m 9.28125,2.95312 0,0.21094 0.21093,0 c -4e-5,-0.65623 0.42184,-1.14842 1.26563,-1.47656 0.70308,2e-5 1.05464,0.49221 1.05469,1.47656 l 0.42187,0 0.21094,-0.63281 c -5e-5,-0.51561 -0.49223,-1.00779 -1.47656,-1.47656 l 0.21093,-0.21094 0,-0.63281 c -1.26566,2e-5 -1.89848,0.91408 -1.89843,2.74218 m -22.57032,-1.89843 0,0.42187 0.21094,0 0,-0.42187 -0.21094,0 m -17.92968,2.10937 0,0.42188 1.6875,1.6875 0,-0.42188 -0.42188,-1.26562 1.05469,-0.21094 c -1e-5,-0.28123 -0.21094,-0.42186 -0.63281,-0.42188 l -0.21094,-0.21093 0,-0.42188 0.63281,-0.63281 0.21094,0 c 1.12499,0.0938 1.68749,0.58596 1.6875,1.47656 -1e-5,0.79689 -0.49219,1.78127 -1.47656,2.95313 l 0,0.21093 c 1.12499,-0.96092 1.68749,-2.15623 1.6875,-3.58593 -1e-5,-0.84373 -0.84376,-1.33592 -2.53125,-1.47657 -1.12501,0.37502 -1.68751,1.00784 -1.6875,1.89844 m 28.26562,-1.89844 0,0.42188 0.42188,-0.42188 -0.42188,0 m 10.125,-0.21093 c 0.84371,1.14845 1.26559,2.20314 1.26563,3.16406 l 0,0.21094 -0.21094,0 c -0.30473,1e-5 -0.51567,-0.6328 -0.63281,-1.89844 l -0.84375,-1.05469 0.42187,-0.42187 m -20.25,0.84375 0,0.21093 c 0.28123,0.86721 0.63279,1.3594 1.05469,1.47657 l 0.63281,0 0.63281,-0.63282 -1.05468,0.21094 c -0.70315,-0.39842 -1.05471,-0.82029 -1.05469,-1.26562 l -0.21094,0 m 8.85938,0 0,0.42187 0.42187,0 0,-0.42187 -0.42187,0 m 0.42187,2.10937 0,0.21094 1.26563,0 0.21093,0.84375 -0.84375,-0.63281 0.42188,1.05468 c -0.56253,-0.1406 -0.84378,-0.42185 -0.84375,-0.84375 l -0.21094,0 0,0.21094 c 0.5156,1.03127 1.85153,2.85939 4.00781,5.48438 l 0.63282,2.53125 0.84375,-0.21094 c -0.28129,-1.92186 -0.9141,-3.60936 -1.89844,-5.0625 l 0,-0.63281 0.21094,0 c 0.53903,1e-5 1.31246,1.75782 2.32031,5.27343 l 0,0.21094 0.63281,0 0,-2.32031 c -0.84378,-5.34373 -2.53128,-8.01561 -5.0625,-8.01563 -0.91409,2e-5 -1.47659,0.63284 -1.6875,1.89844 m 4.64063,-1.6875 -0.21094,0.63281 1.05469,0.84375 0.42187,0 0,-0.21093 -0.42187,-0.63282 0.21093,-0.21093 0,-0.21094 -1.05468,-0.42188 0,0.21094 m -22.14844,0.63281 0.42187,0.63282 -0.21093,0.21093 0.21093,0.21094 0,0.21094 c -1e-5,0.42189 -0.28126,0.63283 -0.84375,0.63281 l 0,0.21094 0.21094,0 c 0.6328,-0.28123 0.98436,-0.56248 1.05469,-0.84375 l 0,-0.84375 -0.42188,-0.42188 -0.42187,0 m 16.66406,0 0,0.42188 0.21094,0 0,-0.42188 -0.21094,0 m 10.125,0 0,0.63282 c 0.84371,2e-5 1.26559,0.42189 1.26563,1.26562 l 0.21093,0 0,-0.63281 c -0.14066,-0.84373 -0.3516,-1.26561 -0.63281,-1.26563 l -0.84375,0 m -5.90625,0.21094 0.21094,0 c 0.70309,2e-5 1.40621,1.33596 2.10937,4.00781 l 0,0.21094 -0.21093,0 c -0.3516,-1.45311 -0.9141,-2.50779 -1.6875,-3.16406 l 0.42187,1.26562 0,0.21094 -1.26562,-1.6875 0.21093,-0.21094 0.21094,0 0.21094,0.21094 0.21094,0 0,-0.21094 -0.42188,-0.42187 0,-0.21094 m 9.49219,0.21094 0,1.47656 0.21094,0 0,-1.47656 -0.21094,0 m -5.27344,0.84375 -1.05469,0.21094 -0.21093,0.21093 0,1.05469 0.21093,0 0.42188,-0.42187 0,-0.21094 c 0.98434,0.42189 1.47652,1.12502 1.47656,2.10937 l -1.05469,2.53125 0.21094,1.6875 0.21094,0 c 0.32809,1e-5 1.73434,-1.40623 4.21875,-4.21875 l 0.63281,0 -0.42187,-0.42187 -0.42188,0 c -0.58598,1e-5 -1.2891,0.56251 -2.10937,1.6875 l -0.21094,0 c -4e-5,-0.42186 -0.14066,-0.6328 -0.42188,-0.63281 l 0.42188,-1.47657 c 0.28121,2e-5 0.42183,0.21096 0.42187,0.63282 l 0.21094,0 0,-1.05469 -0.21094,-0.21094 0,-0.21094 -0.84375,0.42188 c -3e-5,-1.26561 -0.49222,-1.89842 -1.47656,-1.89844 l 0,0.21094 m -8.64844,0 0,0.42187 0.42188,0 0,-0.42187 -0.42188,0 m 20.88282,0.21094 c -0.37505,0.56251 -0.6563,1.6172 -0.84375,3.16406 l -0.21094,0 -0.21094,-0.21094 -0.21094,0.21094 0,1.6875 0.63282,3.16406 c -0.14068,0.84376 -0.35161,1.26564 -0.63282,1.26563 l -0.21093,-0.21094 -0.21094,0 0.42187,-1.26563 0,-0.21093 -0.63281,-2.10938 -0.21094,0 c -4e-5,0.42189 -0.14067,0.63283 -0.42187,0.63281 -0.56255,-0.65623 -1.05473,-1.0078 -1.47656,-1.05468 -1.26567,0.28126 -1.89848,0.91407 -1.89844,1.89843 -4e-5,0.84376 0.28121,2.1797 0.84375,4.00782 -0.39848,1.40625 -1.03129,2.10938 -1.89844,2.10937 l 0,0.42188 0.21094,0 c 0.70308,0 1.40621,-0.70312 2.10937,-2.10938 l -0.63281,-4.21875 0.63281,-0.42187 0.42188,0 c 0.56245,1e-5 0.8437,0.84376 0.84375,2.53125 l 0.21094,0 0,-1.05469 c 0.2812,1e-5 0.42183,0.28126 0.42187,0.84375 l 0.21094,0 0,-0.63281 0.21094,0 0,1.89843 0.21093,-0.21093 0.21094,0 -0.21094,-0.21094 0,-0.42188 1.26563,0 -0.42188,0.63282 0.21094,0.21093 -1.05469,0.21094 0.21094,0.21094 0,0.42187 -0.42187,0 0,-0.63281 -0.21094,0 c -5e-5,0.56251 -0.35161,0.84376 -1.05469,0.84375 l -0.21094,-0.63281 -0.21093,0 0,0.84375 c -5e-5,0.28125 0.21089,0.42188 0.63281,0.42187 l 0,0.63282 -1.6875,2.32031 0.21094,0.21094 0.42187,0 2.95313,-1.47657 0.63281,0 0.63281,0.63282 -0.21094,0.63281 0.21094,0 c 0.56245,0 0.8437,-0.14062 0.84375,-0.42188 -0.0938,-1.12499 -0.30474,-1.68749 -0.63281,-1.6875 l -0.84375,0 c -0.63286,1e-5 -1.4063,0.42188 -2.32031,1.26563 l -0.42188,0 1.6875,-2.32031 0.42188,0.42187 c 0.93745,1e-5 1.49995,-1.26562 1.6875,-3.79687 l 0,-2.95313 -0.21094,-4.42969 0.42187,-1.05468 -0.21093,0 m -18.35157,0.63281 0.42188,0.42187 0,0.21094 -0.42188,-0.42187 0,-0.21094 m -27.42187,3.375 0.21094,0 c 0.93749,-1.82811 2.76562,-2.74217 5.48437,-2.74219 l 0,-0.21094 -1.89844,0 c -1.75781,0.58596 -2.95313,1.42971 -3.58593,2.53125 l -0.21094,0.21094 0,0.21094 m 38.60156,-2.95313 0,0.42188 0.21094,0 0,-0.42188 -0.21094,0 m -32.69531,0.21094 0,0.21094 c 1.49999,2e-5 2.41405,1.0547 2.74219,3.16406 -0.53908,1.96876 -1.52345,2.95314 -2.95313,2.95313 -1.12501,1e-5 -1.68751,-0.49218 -1.6875,-1.47657 l 0,-0.42187 c 0.0703,-0.28124 0.42187,-0.56249 1.05469,-0.84375 l 1.05469,0.63281 0.21093,0 0,-0.42187 c -0.28126,-0.56249 -0.63282,-0.84374 -1.05468,-0.84375 l 0.42187,-0.84375 -1.05469,-0.21094 c -0.9375,1e-5 -1.64063,0.77345 -2.10937,2.32031 -1e-5,1.52345 1.05468,2.43751 3.16406,2.74219 1.71093,1e-5 2.83593,-1.1953 3.375,-3.58594 -1e-5,-1.61717 -0.91407,-2.74217 -2.74219,-3.375 l -0.42187,0 m 33.53906,1.26563 0,0.42187 0.63281,0.63281 0,-0.21093 -0.21093,-0.84375 0.84375,-0.63282 c 1.12495,2e-5 1.89839,0.91408 2.32031,2.74219 l 0.42187,-0.42187 c -0.42192,-1.82811 -1.26567,-2.74217 -2.53125,-2.74219 l -0.63281,-0.21094 c -0.56254,0.14064 -0.84379,0.56252 -0.84375,1.26563 m -41.13281,-0.21094 c 0.5625,1e-5 0.84375,0.42189 0.84375,1.26562 l 0,0.21094 0.21094,0 0,-1.6875 -0.21094,-0.21094 -0.42188,0 -0.42187,0.42188 m 7.38281,-0.42188 0,0.21094 c 0.56249,2e-5 0.84374,0.42189 0.84375,1.26563 l 0.21094,0 0.42187,-0.42188 c -0.28126,-0.70311 -0.70313,-1.05467 -1.26562,-1.05469 l -0.21094,0 m 18.14063,0.21094 -0.21094,0.21094 0,0.63281 c 0.56247,2e-5 0.84372,0.35158 0.84375,1.05469 l 0.63281,0 c -3e-5,-0.70311 0.1406,-1.05467 0.42188,-1.05469 l 0.63281,0.21094 0,-0.42188 -0.21094,-0.21093 0,-0.21094 -1.26562,0.42187 0,-0.21093 -0.84375,-0.42188 m -6.53907,1.6875 c 1.75779,3.23439 5.13279,4.85157 10.125,4.85156 l 2.32032,-0.21093 0,-0.84375 -3.375,0.63281 c -3.65628,1e-5 -6.67971,-1.47655 -9.07032,-4.42969 m 4.21875,0 c -2e-5,0.56251 -0.28127,0.91408 -0.84375,1.05469 l -1.05468,-0.42188 0,0.21094 1.6875,0.42188 0.21093,0 0.42188,-0.42188 0,-0.42187 -0.42188,-0.42188 m 23.41407,0 c -5e-5,0.84376 0.14057,1.40626 0.42187,1.6875 l -0.42187,0.42188 -0.21094,0 -0.21094,-1.05469 0,-0.63281 0.42188,-0.42188 m -19.19532,1.05469 0.63282,1.05469 c -3e-5,0.70313 -1.12503,1.05469 -3.375,1.05468 l 0,0.21094 3.16406,0.42188 1.47656,-0.42188 c -0.28128,-0.28124 -0.4219,-0.91405 -0.42187,-1.89844 l -0.63282,-0.42187 -0.84375,0 m 7.80469,0.63281 0.42188,0 0.42187,0.42188 0,0.42187 -0.42187,0 -0.42188,-0.42187 0,-0.42188 m 5.27344,0.21094 c -2.13285,4.21876 -3.60941,6.32813 -4.42969,6.32812 l -0.21094,0 0,0.21094 1.05469,0 c 0.51559,-0.25781 1.78121,-2.36718 3.79688,-6.32812 l 0,-0.21094 -0.21094,0 m -21.72656,0.21094 0,0.63281 0.21093,0 0,-0.63281 -0.21093,0 m 1.05468,0 0,0.21093 1.05469,0.84375 0,-0.21093 -1.05469,-0.84375 m 2.53125,0 0,0.21093 1.6875,0.84375 0,-0.42187 -1.6875,-0.63281 m -21.09375,2.53125 0,0.63281 0.21094,0 c 0,-1.54687 0.5625,-2.3203 1.6875,-2.32031 l 0.63281,0.42187 0,-0.42187 -0.63281,-0.63282 -0.21094,0 c -1.125,2e-5 -1.6875,0.77345 -1.6875,2.32032 m 17.71875,-1.6875 -0.21093,1.47656 0,0.42187 0.42187,0 0,-1.89843 -0.21094,0 m -1.47656,0.42187 0,0.21094 0.63281,0 0.21094,-0.21094 0,-0.21094 -0.84375,0.21094 m 3.58594,-0.21094 0,0.21094 c 0.56248,1e-5 0.84373,0.4922 0.84375,1.47656 l 0.42187,0 0,-0.63281 c -0.25783,-0.51561 -0.67971,-0.86718 -1.26562,-1.05469 m -4.42969,1.05469 0.63281,0.84375 c -0.21095,-0.56249 -0.42189,-0.84374 -0.63281,-0.84375 m -8.85937,0.63281 -0.21094,0.21094 0,0.21094 0.21094,0 0.21093,-0.21094 0,-0.21094 -0.21093,0 m -5.27344,2.32032 0,0.84375 0.21094,0 0,-1.05469 0.21093,0 0.42188,0.42187 0,1.05469 -0.42188,0 0,0.21094 c 0.0469,0.35157 1.45312,0.98438 4.21875,1.89844 l 0,0.42187 0.21094,-0.21094 0.42188,0 0,0.42188 2.53125,0 c 2.60154,0 4.57029,-0.77343 5.90625,-2.32031 l -0.42188,0 c -1.47658,1.26563 -3.09376,1.89844 -4.85156,1.89843 -4.64063,-0.4453 -6.96094,-1.71093 -6.96094,-3.79687 0,-0.84374 0.5625,-1.26562 1.6875,-1.26563 l 0,-0.42187 -1.05469,-0.21094 c -0.53906,1e-5 -1.03125,0.42189 -1.47656,1.26563 -0.42188,0 -0.63282,0.28125 -0.63281,0.84375 m 41.13281,-1.47657 0,0.42188 0.21094,0 0,-0.42188 -0.21094,0 m -0.21094,0.63282 0,0.42187 0.21094,0 0,-0.42187 -0.21094,0 m -36.70312,1.47656 0,0.21094 23.41406,0 0,-0.21094 -23.41406,0 m 32.90625,0.42187 0.42187,0.42188 0.21094,0 0.42188,-0.42188 -0.42188,-0.42187 -0.21094,0 -0.42187,0.42187 m -7.59375,-0.21093 0,0.21093 3.58594,0 0,-0.21093 -3.58594,0 m -32.0625,0.21093 0,0.42188 0.42187,-0.42188 -0.42187,0 m 38.17969,0 -0.21094,0.84375 0.21094,0.21094 0.84375,0 0.21093,-0.84375 -0.21093,-0.21094 -0.84375,0 m -27.42188,1.05469 0,0.21094 0.42188,0.42187 0.63281,0 -0.42188,-1.05468 -0.21093,0 -0.42188,0.42187 m 8.01563,-0.42187 -0.42188,0.63281 0,0.63281 0.42188,0 -0.21094,-0.21094 0,-0.42187 0.42187,-0.63281 -0.21093,0 m 5.0625,0 0,0.21093 0.42187,0.42188 0.21094,0 0,-0.63281 -0.63281,0 m 5.48437,0.84375 -1.05469,-0.63282 -0.21093,0 0,0.42188 0.42187,0.84375 0.21094,0 c 1.54684,-0.35156 2.32028,-0.70312 2.32031,-1.05469 l 0,-0.42187 -1.6875,0.84375 m 3.16406,-0.84375 0,0.42187 0.42188,-0.42187 -0.42188,0 m -10.33593,0.63281 0.63281,0.21094 0,-0.63282 -0.21094,0 -0.42187,0.42188 m 13.5,0.21094 0,0.21093 0.42187,0.63282 -0.42187,0.63281 0.42187,0 0.42188,-0.42188 0,-0.42187 -0.42188,-0.63281 0,-0.21094 1.05469,-0.21094 0,-0.21094 -0.63281,0 -0.84375,0.63282 m -35.01563,0.21093 0.42188,0 -0.63282,0.84375 0,0.42188 0.63282,0 c -1e-5,-0.70312 0.35156,-1.05468 1.05468,-1.05469 l 1.89844,0.42188 0.21094,0 0,-0.21094 c -0.37501,0 -0.79688,-0.28125 -1.26563,-0.84375 l -0.84375,-0.21094 -0.21093,0 c -0.84376,0.0938 -1.26563,0.30469 -1.26563,0.63281 m 32.69531,0.21094 0,0.42188 0.63282,0.63281 0.21093,0 -0.63281,-0.84375 c 0.28122,-0.5625 0.70309,-0.84375 1.26563,-0.84375 l 0,-0.21094 -0.42188,0 c -0.63285,0.28126 -0.98441,0.56251 -1.05469,0.84375 m -8.22656,-0.63281 -0.21094,0.21094 0,0.42187 0.21094,0 0.42188,-0.42187 -0.21094,-0.21094 -0.21094,0 m 5.27344,1.26562 0.42187,0.42188 0.21094,0 1.05469,-1.47656 -0.63281,0 -1.05469,1.05468 m 8.64844,-0.63281 0,0.63281 0.63281,0 0,-1.05468 -0.21094,0 -0.42187,0.42187 m -34.59375,0.42188 0,0.21093 0.84375,0 0.21093,-0.21093 0,-0.42188 -1.05468,0.42188 m 14.55468,-0.42188 0,0.21094 0.42188,0 0,-0.21094 -0.42188,0 m 4.21875,0 0.42188,0.42188 0,-0.42188 -0.42188,0 m -2.95312,0.21094 0,0.84375 0.42187,-0.42188 -0.42187,-0.42187 m -4.64063,0.21094 0,0.63281 0.21094,0 0,-0.63281 -0.21094,0 m 6.32813,0 0,0.21093 0.42187,0.42188 0.21094,-0.21094 0,-0.21094 -0.21094,-0.21093 -0.42187,0 m 2.32031,0.21093 0,0.21094 0.42188,0.42188 0.21093,-0.21094 0,-0.21094 -0.21093,-0.21094 -0.42188,0 m -5.0625,0.21094 0,0.21094 0.21094,0.21094 0.63281,0 0,-0.21094 -0.84375,-0.21094"
         id="path4110"
         style="font-size:72px;font-variant:normal;font-stretch:normal;fill:#ffffff;font-family:Goudy Initials;-inkscape-font-specification:Goudy Initials" />
    </g>
  </g>
</svg>
