<?xml version="1.0" encoding="UTF-8" standalone="no"?>
<!-- Created with Inkscape (http://www.inkscape.org/) -->

<svg
   xmlns:dc="http://purl.org/dc/elements/1.1/"
   xmlns:cc="http://creativecommons.org/ns#"
   xmlns:rdf="http://www.w3.org/1999/02/22-rdf-syntax-ns#"
   xmlns:svg="http://www.w3.org/2000/svg"
   xmlns="http://www.w3.org/2000/svg"
   version="1.2"
   width="56.734375"
   height="56.734375"
   id="svg2">
  <defs
     id="defs4" />
  <metadata
     id="metadata7">
    <rdf:RDF>
      <cc:Work
         rdf:about="">
        <dc:format>image/svg+xml</dc:format>
        <dc:type
           rdf:resource="http://purl.org/dc/dcmitype/StillImage" />
        <dc:title></dc:title>
      </cc:Work>
    </rdf:RDF>
  </metadata>
  <g
     transform="translate(-152.28125,-146.34738)"
     id="layer1">
    <g
       id="flowRoot2985"
       style="font-size:40px;font-style:normal;font-weight:normal;line-height:125%;letter-spacing:0px;word-spacing:0px;fill:#ffffff;fill-opacity:1;stroke:none;font-family:Sans">
      <path
         d="m 154.28125,148.34738 52.73437,0 0,52.73438 -52.73437,0 0,-52.73438 m 1.05469,1.05469 0,50.625 50.625,0 0,-50.625 -50.625,0 m 0.42187,0.63281 49.57031,0 0,49.57032 -49.57031,0 0,-49.57032 m 21.72656,2.10938 0.21094,0 c 0.7031,-0.39839 1.05467,-0.82026 1.05469,-1.26563 l 0.84375,0 c 0.28122,5e-5 0.42185,0.21099 0.42187,0.63282 l 0.21094,0 0,-0.42188 -0.63281,-0.42187 -0.63281,0 -1.47657,1.47656 m 8.4375,-1.47656 0.21094,0.21093 0,0.84375 c -3e-5,0.2813 -0.21097,0.42193 -0.63281,0.42188 l 0,0.21094 0.42187,0 c 0.42185,-0.51558 0.63279,-1.00777 0.63282,-1.47657 l -0.21094,-0.21093 -0.42188,0 m -2.74218,7.38281 -0.21094,-0.21094 -0.21094,0 0.21094,0.21094 0,1.47656 c -3e-5,1.6641 0.42185,2.85942 1.26562,3.58594 -0.70315,-1.45309 -1.05471,-2.43746 -1.05468,-2.95313 -3e-5,-4.52339 2.32028,-7.4062 6.96093,-8.64843 l 1.26563,-0.21094 1.26562,0 c 2.76559,5e-5 4.66402,1.12505 5.69532,3.375 l 0.21093,0 0,-0.21094 -0.63281,-1.05469 0,-0.21093 0.63281,0 c -4e-5,0.42192 0.35152,0.91411 1.05469,1.47656 L 199,155.09738 l -0.21094,-0.21093 -0.21094,0 c -4e-5,0.75004 -0.28129,1.24223 -0.84375,1.47656 -0.3516,4e-5 -0.56254,-0.28121 -0.63281,-0.84375 l 0.42188,-1.26563 0,-0.42187 -0.42188,0 0,0.21094 -0.21094,1.89843 c 0.28121,0.63286 0.56246,0.98442 0.84375,1.05469 l 0.63282,0 c 0.39839,5e-5 0.67964,-0.56245 0.84375,-1.6875 l 0.21093,0.21094 0.21094,0 0.42188,-0.42188 0,-0.63281 c -5e-5,-1.0312 -0.77349,-1.87495 -2.32032,-2.53125 l -0.21093,0 -0.21094,0.21094 -0.21094,0 0,-0.42188 -0.21094,0.21094 -0.21093,0 c -0.56254,-0.21089 -0.84379,-0.42182 -0.84375,-0.63281 l 0.21093,-0.21094 0,-0.21094 -0.42187,0 -3.79688,-0.21093 c -2.62503,5e-5 -5.01565,1.19536 -7.17187,3.58593 -0.9844,1.54692 -1.47659,2.81255 -1.47656,3.79688 m -26.36719,-6.53906 0.21094,0 0.42187,-0.42188 0.42188,0 c 0.28124,5e-5 0.56249,0.42193 0.84375,1.26563 l -0.63282,1.47656 0.21094,0 0.63281,-1.6875 0,-0.21094 -0.21093,-1.05469 -1.26563,0 -0.63281,0.63282 m 16.24219,-0.63282 0,0.21094 0.42187,0 0,-0.21094 -0.42187,0 m 2.74218,0 0,0.42188 0.42188,0 0,-0.42188 -0.42188,0 m 5.90625,2.10938 0.21094,0 c 0.37497,-0.93745 0.79685,-1.49995 1.26563,-1.6875 l 0.42187,0 0.63281,0.63281 0,0.84375 -0.42187,1.47656 c 0.37497,-0.0468 0.79684,-0.82026 1.26562,-2.32031 l -0.21093,0 -0.21094,0.21094 c -3e-5,-0.8437 -0.49222,-1.26558 -1.47656,-1.26563 -0.56253,5e-5 -1.05472,0.70318 -1.47657,2.10938 M 172,151.51145 l -0.63281,0 -0.21094,-0.21094 -0.21094,0 0,0.42187 0.63281,0 c 0.72655,5e-5 1.14842,-0.21088 1.26563,-0.63281 l -0.21094,0 L 172,151.51145 m 1.89844,-0.42188 0.21093,0.21094 0,0.63281 c -1e-5,0.44536 -0.70314,0.72661 -2.10937,0.84375 l 0,0.21094 0.84375,0 c 1.12498,-0.18745 1.68748,-0.67964 1.6875,-1.47656 l -0.63281,-0.42188 m 3.16406,0 0,0.42188 0.42187,0 0,-0.42188 -0.42187,0 m -19.82813,7.80469 0,1.6875 c 0,2.39066 1.6875,4.50004 5.0625,6.32812 l 1.05469,0.42188 0.42188,0 0,-0.21094 c -0.0703,-0.2109 -1.12501,-0.70309 -3.16407,-1.47656 -1.96875,-2.01559 -2.95312,-4.05465 -2.95312,-6.11719 l 0,-0.63281 c 0,-3.6562 1.96874,-6.04683 5.90625,-7.17188 l 1.47656,0 3.375,1.05469 0.21094,0 c -1e-5,-0.49214 -1.40626,-0.98432 -4.21875,-1.47656 -4.05469,5e-5 -6.44532,2.5313 -7.17188,7.59375 m 40.07813,-7.59375 0,0.21094 1.05469,0 0,-0.21094 -1.05469,0 m 1.26562,0.21094 0,0.21093 0.42188,0 0,-0.21093 -0.42188,0 m 3.58594,0.63281 -0.21094,0 -2.74218,-0.42188 c 0.98433,1.68755 1.61714,2.5313 1.89843,2.53125 l 1.47657,0 c 0.2812,5e-5 0.42182,-0.35151 0.42187,-1.05468 0.42183,4e-5 0.77339,-0.2812 1.05469,-0.84375 l 0,-0.84375 -1.89844,0.63281 m -33.53906,-0.42188 0,0.21094 0.42187,0 0,-0.21094 -0.42187,0 m 0.63281,0.21094 0,0.21094 0.42188,0 0,-0.21094 -0.42188,0 m 6.11719,0 0,0.63281 0.21094,0 0.42187,-0.42187 -0.21094,-0.21094 -0.42187,0 m 1.05469,0 0,0.21094 0.21093,0.21094 0.42188,0 0,-0.21094 -0.63281,-0.21094 m 14.34375,0 0,0.21094 0.42187,0 c -3e-5,0.42192 0.14059,0.63286 0.42188,0.63281 l 0.21093,0 0,-0.63281 -0.84375,-0.21094 -0.21093,0 m -20.88282,0.21094 0,0.21094 0.42188,0 0,-0.21094 -0.42188,0 m 10.33594,0 0,0.63281 0.21094,0.21094 0.42187,0 0,-0.21094 c -0.28127,5e-5 -0.4219,-0.21089 -0.42187,-0.63281 l -0.21094,0 m -9.70312,0.21094 0,0.21093 1.05468,0.21094 0.21094,0 0,-0.21094 -1.05469,-0.21093 -0.21093,0 m -7.38282,0.21093 0,0.21094 0.21094,0.21094 0.21094,0 0,-0.21094 -0.21094,-0.21094 -0.21094,0 m 37.75782,0.42188 1.47656,0 0,0.21094 c -0.42192,4e-5 -0.63286,0.14067 -0.63281,0.42187 l -0.84375,-0.21094 0,-0.42187 m -36.07032,0.42187 0,0.63282 c 4.07812,0.58598 6.11718,1.92192 6.11719,4.00781 l 0,8.22656 -0.21094,1.47656 3.79688,-3.16406 0,-7.17187 c -2e-5,-1.40621 0.49217,-2.10933 1.47656,-2.10938 l 6.53906,0.21094 0,-0.21094 0.84375,-1.6875 -13.07812,0 -1.26563,-0.21094 -0.21093,0.21094 -0.21094,0 -3.375,-0.21094 -0.42188,0 m -5.0625,2.95313 c 0.28125,4e-5 0.42187,0.21098 0.42188,0.63281 l 0.63281,0.21094 0,-0.21094 c -0.28125,5e-5 -0.5625,-0.42183 -0.84375,-1.26562 l 0.63281,0 0,0.63281 0.21094,0 c 0,-0.58589 0.28125,-1.14839 0.84375,-1.6875 l 0,-1.05469 -0.21094,0 c -1.125,0.89067 -1.6875,1.80473 -1.6875,2.74219 m 27,-2.74219 -1.47656,1.89844 3.79688,0 c 3.7734,4e-5 6.09371,1.82817 6.96093,5.48437 l 0,0.21094 0.63282,0 0.21093,-0.63281 -1.6875,-5.69531 0,-1.05469 -8.01562,0 -0.21094,-0.21094 -0.21094,0 m 8.85938,0.21094 0,1.26562 c 0.98433,2.03911 1.47652,3.72661 1.47656,5.0625 l 0,0.84375 -0.42187,0.63282 0,0.42187 0.84375,-0.84375 0,-0.21094 c -5e-5,-1.38277 -0.56255,-3.56245 -1.6875,-6.53906 l 0,-0.63281 -0.21094,0 m -33.11719,0.21094 0,0.42187 0.63281,0 0,-0.42187 -0.63281,0 m 2.74219,0.63281 0,0.21094 1.89844,0.42187 0.42187,0 0,-0.21094 -2.10937,-0.42187 -0.21094,0 m 39.23437,0 c -5e-5,0.42192 -0.42192,0.63286 -1.26562,0.63281 l 0,0.21094 1.05469,0.21094 0.42187,0 0.21094,-0.84375 -0.21094,-0.21094 -0.21094,0 m -42.82031,0.84375 c 0,0.42192 0.28124,0.63286 0.84375,0.63281 l 0,0.21094 c -1e-5,0.28129 -0.21094,0.42192 -0.63281,0.42187 l -0.21094,0.21094 0,0.21094 1.47656,0.42187 0.63282,-1.26562 0.63281,0 c -1e-5,0.51567 -0.28126,1.07817 -0.84375,1.6875 0.14062,0.56254 0.49218,0.84379 1.05469,0.84375 l 0,-0.21094 0.42187,-1.05469 0.63281,0.42188 0.21094,-0.21094 0,-0.63281 -0.42187,-1.26563 0.21093,-0.21093 -0.21093,0 -0.21094,0.21093 c -1e-5,-0.42183 -0.28126,-0.77339 -0.84375,-1.05468 l -2.74219,0.63281 m 39.23438,-0.42188 0,0.84375 0.42187,0.42188 0,-1.26563 -0.42187,0 m 1.05468,0 0,0.84375 0.21094,0 0,-0.84375 -0.21094,0 m -34.17187,0.21094 0,0.21094 0.42187,0 0,-0.21094 -0.42187,0 m -6.32813,0.63281 0,0.84375 0.21094,0 0,-0.84375 -0.21094,0 m 13.92188,0.21094 -0.21094,0.21094 0,0.63281 0.21094,0 c -2e-5,-0.56245 0.1406,-0.8437 0.42187,-0.84375 l 6.53907,0 0,-0.21094 -6.96094,0.21094 m 9.49219,-0.21094 0,0.21094 5.69531,0.21094 1.05469,0 0,-0.21094 -2.53125,-0.21094 -4.21875,0 m 17.50781,1.26563 -0.63281,0 0.21093,-0.21094 0,-0.84375 -0.21093,0 c -5e-5,0.51567 -0.91411,1.28911 -2.74219,2.32031 l -0.63281,2.10938 0,0.42187 1.05468,-0.21093 -0.21093,0.63281 c -5e-5,0.44535 0.2812,1.07816 0.84375,1.89844 l -1.05469,0 0,-0.84375 0.21094,-0.21094 0,-0.21094 -0.42188,0 0,1.26563 0.21094,1.05468 0.21094,0 0.21093,-0.21093 0.21094,0 c 0.16402,1.26566 0.37496,1.89847 0.63281,1.89843 -4e-5,-1.24215 0.70308,-2.43746 2.10938,-3.58593 l 0.63281,0.21093 0,-0.21093 c 0.42183,-1.05465 0.63277,-2.17965 0.63281,-3.375 l -0.21093,0.21093 -0.63282,0 0.42188,-1.6875 0,-0.63281 -0.21094,0 -0.63281,2.53125 -0.63281,0 0,-0.21094 c 0.70307,-1.31245 1.05464,-2.43745 1.05468,-3.375 -0.28129,5e-5 -0.42192,0.42192 -0.42187,1.26563 m -43.45313,-0.84375 0,0.42187 0.21094,1.05469 0.42188,0 -0.21094,-0.21094 0.21094,-0.21093 0,-0.42188 -0.63282,-0.63281 m 5.90625,-0.21094 0.84375,0.84375 -0.42187,0.42188 -0.42188,-1.26563 m 12.65625,0.63281 0,0.42188 0.84375,0 0,-0.42188 -0.84375,0 m 2.95313,0 0,1.05469 0.21094,0 c -3e-5,-0.42183 0.1406,-0.63277 0.42187,-0.63281 l 0.21094,0 c 0.56247,0.23442 0.84372,0.7266 0.84375,1.47656 l 0.21094,0 0,-0.42187 c -0.28128,-0.86715 -0.63284,-1.35933 -1.05469,-1.47657 l -0.84375,0 m -1.47656,0.63282 0,0.42187 0.21093,0 0.63282,-0.63281 -0.21094,-0.21094 -0.21094,0 -0.42187,0.42188 m 5.27343,1.47656 0,0.21094 0.21094,0 c 0.44528,-1.12496 1.14841,-1.68746 2.10938,-1.6875 0.56246,4e-5 1.05465,0.3516 1.47656,1.05468 l 0,0.63282 c -3e-5,0.42191 -0.28128,0.63285 -0.84375,0.63281 l -1.89844,-0.42188 -0.21094,0.21094 0,0.42188 0.63282,-0.42188 0.21093,0 1.26563,0.84375 0.63281,0 0.84375,-0.84375 0,-1.47656 0.63281,0 c -3e-5,-0.51558 -0.84378,-0.86714 -2.53125,-1.05469 -1.03128,5e-5 -1.87503,0.63286 -2.53125,1.89844 m -17.50781,-1.47656 -0.84375,1.47656 0.42188,0 0,0.21094 c -1e-5,0.28129 -0.70314,0.42191 -2.10938,0.42187 l 0.42188,0.42188 0.42187,0 c 1.10155,4e-5 1.87499,-0.42184 2.32031,-1.26563 l 0,-1.05469 -0.63281,-0.21093 m 9.28125,0.42187 0,0.42188 0.63281,0 0.42188,-0.42188 0,-0.42187 -0.63281,0 -0.42188,0.42187 m 1.89844,-0.21094 -0.21094,0.21094 0,0.63281 0.63281,0 0,-0.42187 -0.42187,-0.42188 m -18.14063,1.26563 0,0.21094 0.21094,0 c 0.0703,-0.56246 0.28125,-0.84371 0.63281,-0.84375 l 0.63282,0 c 0.84374,4e-5 1.54686,0.42191 2.10937,1.26562 l 0,0.42188 c -0.56251,4e-5 -0.84376,0.14066 -0.84375,0.42187 l 0.63281,0 0.42188,-0.42187 c -1e-5,-1.07809 -0.70313,-1.7109 -2.10938,-1.89844 l -1.05468,0 c -0.21095,4e-5 -0.42188,0.28129 -0.63282,0.84375 m 9.70313,-0.84375 0,0.42187 0.21094,0 0,-0.42187 -0.21094,0 m 0.63281,0 c -1e-5,2.25004 -1.40626,3.79691 -4.21875,4.64062 l -0.84375,0 c -1.68751,4e-5 -2.74219,-0.77339 -3.16406,-2.32031 l 0,-0.42187 0.42187,-0.42188 c -0.14063,-0.42183 -0.5625,-0.63277 -1.26562,-0.63281 l -0.21094,0 0,0.21094 c 0.53906,2.53129 1.94531,3.79691 4.21875,3.79687 l 0.63281,0.21094 c 3.09374,-0.98434 4.64061,-2.24996 4.64063,-3.79688 l 0,-1.26562 -0.21094,0 m 19.61719,1.26562 -0.21094,-0.21093 -0.21094,0 0.21094,0.21093 -0.21094,1.05469 0,0.63281 0.21094,0.21094 0,0.21094 -1.05469,0 c -3e-5,0.42191 0.28122,0.63285 0.84375,0.63281 l 0.84375,1.05469 0,0.21094 c -0.70316,-0.37497 -1.05472,-0.72653 -1.05468,-1.05469 l -0.21094,0 0,0.21094 c -3e-5,0.79691 1.8984,1.8516 5.69531,3.16406 l 2.10938,1.6875 0,0.21094 c -2.08598,-1.26559 -3.70317,-1.89841 -4.85157,-1.89844 -1.12503,0.0938 -1.68753,0.30472 -1.6875,0.63281 l 0.42188,0.63281 -1.05469,0.42188 0,1.26562 0.63281,0.63282 0.63282,0 0,-1.47657 c 0.35152,-0.70309 0.91402,-1.05465 1.6875,-1.05468 l 0.63281,0 c 2.13277,0.46878 4.38277,2.36722 6.75,5.69531 -5e-5,0.39847 0.21089,0.75003 0.63281,1.05469 0.56246,-0.1406 0.84371,-0.42185 0.84375,-0.84375 -0.84379,-1.87497 -2.25004,-3.84372 -4.21875,-5.90625 l -6.53906,-4.21875 -0.63281,-1.6875 0,-0.63282 c -4e-5,-1.12495 0.70309,-1.75777 2.10937,-1.89843 0.5859,0.18754 1.00778,0.5391 1.26563,1.05468 l 0,0.42188 c -4e-5,0.30473 -0.63285,0.51567 -1.89844,0.63281 l -0.21094,0.21094 0,1.05469 1.05469,0.84375 0.21094,0 0,-0.21094 c -0.42192,4e-5 -0.77348,-0.28121 -1.05469,-0.84375 l 0,-0.42188 c -4e-5,-0.30464 0.70309,-0.51558 2.10937,-0.63281 l 0.21094,-1.05469 0,-0.21093 c -0.3516,-0.70309 -0.9141,-1.05465 -1.6875,-1.05469 -1.42972,4e-5 -2.20316,0.42192 -2.32031,1.26562 m -14.55469,-1.05468 0,2.95312 0.21094,0 0,-2.95312 -0.21094,0 m 3.58594,0.63281 0,0.21094 0.21094,0 0.63281,-0.63282 -0.42188,0 -0.42187,0.42188 m -10.33594,0.42187 -0.42187,-0.42187 0,0.42187 c -2e-5,0.2813 0.21092,0.42192 0.63281,0.42188 0.56249,-0.14058 0.84373,-0.49215 0.84375,-1.05469 l -1.05469,0.63281 m 7.59375,1.05469 c 0.42186,1.54692 1.12498,2.32035 2.10938,2.32031 l 0.21093,0 0,-0.21093 c -1.12502,4e-5 -1.82814,-0.7734 -2.10937,-2.32032 l 1.05469,-1.47656 -0.21094,0 c -0.70315,0.35161 -1.05471,0.91411 -1.05469,1.6875 m 3.375,0 0,0.63281 -0.84375,0 0,0.63282 c -2e-5,0.32816 0.98435,0.75004 2.95313,1.26562 l 0.21093,0 0,-0.21094 c -0.4219,4e-5 -0.63283,-0.14058 -0.63281,-0.42187 l 0,-0.21094 0.21094,0.21094 1.47656,0 0,0.63281 -0.84375,0 0,0.21094 1.47656,0.21094 0,-0.21094 c -0.44534,-0.98434 -0.7969,-1.47652 -1.05468,-1.47656 -1.40628,-0.28121 -2.1094,-0.91403 -2.10938,-1.89844 l 0.84375,-0.63281 0.21094,0 0.21094,0.21093 0.21093,0 0,-0.42187 -1.05468,-0.21094 c -0.84378,0.28129 -1.26565,0.84379 -1.26563,1.6875 M 199,158.89426 l 0.42187,0 c -4e-5,0.7266 -0.21098,1.14848 -0.63281,1.26562 l 0,-0.21093 L 199,158.89426 m -39.02344,0.42187 0,0.21094 0.21094,0.21094 0.21094,0 0,-0.21094 -0.21094,-0.21094 -0.21094,0 m 17.29688,0.42188 0,0.21094 1.05468,0 0,-0.63282 -0.63281,0 -0.42187,0.42188 m 6.75,-0.42188 0,0.42188 0.21093,0 0,-0.42188 -0.21093,0 m 15.60937,-0.21093 0.21094,0 0.42187,0.84375 -0.21093,0.21093 -0.21094,0 -0.21094,-0.84375 0,-0.21093 m 1.89844,0.63281 0.63281,0.21094 0,0.21093 -1.05469,0 0.42188,-0.42187 m -42.82031,1.89844 0.21093,1.26562 0.21094,0 c 0,-1.26558 0.28125,-1.8984 0.84375,-1.89844 l 0.84375,0.42188 0,-0.42188 -0.63281,-0.63281 -0.63281,0 c -0.28126,4e-5 -0.56251,0.42192 -0.84375,1.26563 m 5.27343,-1.26563 0,0.21094 1.6875,1.05469 1.26563,-0.42188 0,-0.21094 -0.42188,-0.42187 -1.47656,0 0,0.42187 -0.42187,0 c -1e-5,-0.42183 -0.14064,-0.63277 -0.42188,-0.63281 l -0.21094,0 m 21.09375,0 0,0.21094 0.42188,0.42187 0.21094,0 -0.63282,-0.63281 m 15.82032,0 0.63281,0 0.21094,0.21094 0,0.21094 -0.21094,0 -0.63281,-0.21094 0,-0.21094 m -31.00782,0.63281 c -0.84376,1.14848 -2.25001,2.27348 -4.21875,3.375 l -0.21093,0.21094 0,0.21094 c 0.0937,0.84378 0.30467,1.26566 0.63281,1.26562 l 0.42187,0 -0.42187,-0.63281 0,-0.42187 3.375,-2.74219 0.63281,-1.26563 -0.21094,0 m 33.32813,-0.21093 c -0.93755,1.26566 -1.64067,1.89847 -2.10938,1.89843 0.56246,-1.26558 1.26558,-1.89839 2.10938,-1.89843 m -10.125,1.6875 0,0.42187 0.63281,0.63281 0.21094,0 0,-0.21093 c -0.42191,3e-5 -0.63285,-0.14059 -0.63281,-0.42188 l 0,-0.84375 0.63281,-0.63281 0.42187,0 0,0.63281 -0.42187,0 0,0.42188 c 0.28121,-0.0703 0.56246,-0.42184 0.84375,-1.05469 l -0.21094,-0.21094 -0.84375,0 c -0.42191,0.14067 -0.63285,0.56254 -0.63281,1.26563 m 7.38281,-1.47657 1.05469,0 0,0.21094 -1.05469,0 0,-0.21094 m -25.52344,0.42188 0,2.95312 0.42188,0 -0.21094,-2.95312 -0.21094,0 m 25.3125,0 1.26563,0 0,0.21094 -1.26563,0 0,-0.21094 m -15.82031,0.63281 0,0.21094 0.21094,0.63281 0.21094,-0.21094 0.63281,0 0.42187,0.42188 0,0.21094 c -3e-5,0.42191 -0.77346,0.63285 -2.32031,0.63281 l -0.84375,-0.21094 c -0.18753,0.70316 -0.39846,1.05473 -0.63281,1.05469 l 0,-0.21094 0.21094,-0.21094 0,-0.21093 c -1.26565,0.0938 -1.89847,0.23441 -1.89844,0.42187 l -0.21094,-0.21094 -1.47656,0 0,-0.42187 2.74219,0 0.42187,-0.42188 -2.32031,-0.63281 0,0.63281 -1.89844,-0.21093 c -0.56252,0.0235 -0.84377,0.1641 -0.84375,0.42187 -2e-5,0.56254 0.35154,0.84379 1.05469,0.84375 l 0,0.63281 -0.42188,0 0,0.21094 1.05469,0.21094 0.63281,0 1.05469,-0.63281 0,0.42187 c -2e-5,0.21097 -0.84377,0.56254 -2.53125,1.05469 l -0.63281,1.47656 0.21094,0 c 0.37497,3e-5 0.65622,0.56253 0.84375,1.6875 l 0.63281,0.21094 0.63281,-0.21094 -0.21094,-1.47656 -0.63281,0.42187 -0.21094,-0.21093 c 0.86717,-2.03903 3.60935,-3.23434 8.22657,-3.58594 1.82809,0.14066 3.0234,0.3516 3.58593,0.63281 l 1.05469,-0.42187 0,-0.21094 c -0.46878,4e-5 -0.96097,-0.2109 -1.47656,-0.63281 l -1.47656,0.42187 -0.21094,-0.21094 0,-0.21093 c 0.42184,3e-5 0.63278,-0.28122 0.63281,-0.84375 -0.35159,-0.44528 -1.75784,-0.86715 -4.21875,-1.26563 m -27.84375,1.47656 0.21094,0 0,-0.21093 0.21094,0.21093 0.42187,0 -0.42187,-0.42187 -0.42188,0.42187 m 29.74219,-0.63281 0.42187,0 0,0.63281 -0.63281,0.63282 -0.21094,0 0.42188,-1.26563 m -25.94531,0.42188 0,0.21093 1.05468,0 0,-0.21093 -1.05468,0 m 26.57812,-0.21094 0.63281,0 0,0.21094 c -0.21097,0.56253 -0.4219,0.84378 -0.63281,0.84375 l 0,-1.05469 m -25.3125,0.42187 0,0.21094 0.42188,0 0,-0.21094 -0.42188,0 m 26.15625,-0.21093 0.63281,0.21093 c -0.0703,0.28129 -0.4219,0.56254 -1.05468,0.84375 l 0,-0.21093 0.42187,-0.84375 m -28.26562,0.42187 0,0.21094 0.63281,0.42187 0,-0.21093 -0.63281,-0.42188 m 2.74218,0 0,0.21094 1.26563,0.84375 0,-0.21094 -1.26563,-0.84375 m 34.59375,0.84375 c -4e-5,0.49223 1.05465,2.17972 3.16407,5.0625 l 0.42187,0.84375 0.21094,0 0,-0.21094 -3.375,-5.27343 0.21094,-0.63282 0.42187,0 0.21094,0.21094 0.21094,0 0,-0.21094 -0.42188,-0.42187 -0.63281,0 c -0.28129,4e-5 -0.42192,0.21097 -0.42188,0.63281 m -29.32031,0.21094 0,0.42187 c -1e-5,0.42191 0.28124,0.63285 0.84375,0.63282 l 1.05469,0 0,-0.21094 c -0.98439,3e-5 -1.47658,-0.28121 -1.47656,-0.84375 l 0.21093,-0.63281 -0.63281,0.63281 m -9.49219,-0.21094 -0.21093,0.21094 0,0.42187 0.21093,0 0.21094,-0.63281 -0.21094,0 m 10.75782,7.38281 -0.21094,-0.21093 -0.21094,0 0.21094,0.21093 0,0.21094 c -0.84376,2.46097 -1.26564,4.28909 -1.26563,5.48438 l 0,1.26562 0.42188,0 0,-1.05469 c -1e-5,-4.24216 1.96873,-8.03903 5.90625,-11.39062 1.47654,-0.98434 2.46092,-1.47653 2.95312,-1.47656 l 0,-0.42188 -0.21093,0 c -2.17971,0.56254 -4.42971,2.39066 -6.75,5.48438 -0.56252,0.84378 -0.84377,1.47659 -0.84375,1.89843 m 12.65625,-7.38281 0.42187,0 c -0.21096,0.56254 -0.4219,0.84379 -0.63281,0.84375 l -0.21094,-0.21094 -0.42187,0.42188 -0.21094,-0.84375 0.21094,0.21094 0.21093,0 0.63282,-0.42188 m 19.19531,0.84375 0,0.42188 1.05469,0 0,0.42187 -1.05469,0 0,0.21094 c 0.14058,0.42191 0.56245,0.63285 1.26562,0.63281 l 0.21094,0 0.42188,-0.42187 c 0.8437,0.18753 1.26557,0.53909 1.26562,1.05468 l 0.21094,0 0,-0.63281 c -5e-5,-0.84371 -0.35161,-1.26559 -1.05469,-1.26562 l 0,-0.63282 0.21094,-0.21093 0,-0.21094 -0.21094,0 c -0.8438,0.42191 -1.61723,0.63285 -2.32031,0.63281 m -24.04688,0 -0.21093,0.21094 0,0.21094 0.21093,0 0.21094,-0.21094 0,-0.21094 -0.21094,0 m 8.64844,1.05469 0,0.84375 0.84375,0.84375 0.84375,0 0.42188,-0.42188 0,-0.21093 -0.21094,0.21093 -0.21094,0 c -0.56253,-0.14059 -0.84378,-0.56246 -0.84375,-1.26562 0.60935,-0.56247 1.38278,-0.84372 2.32031,-0.84375 l 0,-0.21094 -1.26562,0 c -1.26566,0.30472 -1.89847,0.65629 -1.89844,1.05469 m 3.375,-0.84375 0,0.21094 0.63281,0 0,-0.21094 -0.63281,0 m -31.21875,0.21094 0,1.05468 0.21094,0 0,-1.05468 -0.21094,0 m 8.4375,1.47656 -0.42187,0 0,0.42187 c 1.68748,4e-5 3.30467,-0.49215 4.85156,-1.47656 l 0,-0.21094 -0.21094,0 c -1.47657,0.84379 -2.88282,1.26566 -4.21875,1.26563 m 16.66406,-1.26563 c -2e-5,0.56254 -0.14065,0.84379 -0.42187,0.84375 l 0.42187,1.26563 -0.63281,0 0,0.42187 c 0.28122,0.56254 0.7031,0.84379 1.26563,0.84375 l 2.10937,-0.42187 0,-0.21094 -1.89844,-0.63281 0,-0.21094 0.42188,0 0.21094,0.21094 0.42187,0 0,-0.21094 c -0.91409,3e-5 -1.47659,-0.63278 -1.6875,-1.89844 l -0.21094,0 m 9.70313,-0.21093 0.21094,0.21093 0,0.21094 -1.26563,0.21094 0,-0.42188 1.05469,-0.21093 m -17.29688,0.42187 0,4.85156 0.21094,0 0,-4.85156 -0.21094,0 m -16.03125,0.84375 0,0.42188 0.21094,0 c 0,-0.56247 0.14062,-0.84372 0.42188,-0.84375 l 0.21093,0 0.84375,0.21093 0.21094,0 0,-0.21093 -1.05469,-0.21094 -0.42187,0 c -0.28125,3e-5 -0.42188,0.21097 -0.42188,0.63281 m 11.8125,3.16406 0.21094,4.21875 0,6.53907 c -1e-5,8.01563 -0.35158,12.02344 -1.05469,12.02343 -1.40626,0.98439 -3.02345,1.47657 -4.85156,1.47657 l -0.21094,0.21093 0,0.21094 0.84375,0.21094 6.32813,-0.21094 8.01562,0.42188 0.63282,-0.21094 0,-0.42188 c -4.21877,1e-5 -6.32815,-1.47655 -6.32813,-4.42968 l 0,-14.97657 c -2e-5,-1.26559 0.63279,-1.89841 1.89844,-1.89843 0.5156,2e-5 0.93748,-0.56247 1.26562,-1.6875 l -2.53125,0 -0.63281,-0.63282 0,-4.21875 c -0.79689,0.32816 -1.9922,1.45316 -3.58594,3.375 m -2.74218,-1.47656 2.10937,-1.6875 -0.21094,0 -1.89843,1.6875 m 24.67968,-1.6875 c -0.39847,3.09378 -1.38284,4.64066 -2.95312,4.64063 l -3.16406,0.21093 -3.16407,-0.21093 -2.74218,0 c -0.35159,3e-5 -0.70315,0.56253 -1.05469,1.6875 l 0.21094,0 1.89843,0.21093 6.96094,0 c 2.39059,3e-5 3.5859,1.75784 3.58594,5.27344 l 0.63281,0.63281 0,-0.42187 0.21094,0 -0.21094,-1.6875 0.21094,-10.125 -0.21094,-0.21094 -0.21094,0 m -16.45312,0.21094 -0.21094,0.21094 0,0.42187 0.21094,0 0.21094,-0.63281 -0.21094,0 m 3.16406,0 -0.21094,0.21094 0,0.21093 0.21094,0 0.21094,-0.21093 0,-0.21094 -0.21094,0 m -21.72656,0.21094 0,0.42187 0.21094,0 0,-0.42187 -0.21094,0 m 5.27344,0 0,0.21093 0.42187,0 0,-0.21093 -0.42187,0 m 30.58593,0 -0.21093,4.85156 0.21093,3.58594 0,2.53125 -0.21093,1.05468 0.42187,0 0,-5.90625 0.21094,-3.79687 -0.21094,-2.32031 -0.21094,0 m -28.89843,0.21093 -0.21094,2.32032 0,0.42187 0.21094,0 0.21093,-1.89844 0,-0.84375 -0.21093,0 m 3.58593,2.53125 0.21094,0 1.6875,-2.32031 0,-0.21094 c -1.07814,1.07816 -1.71095,1.92191 -1.89844,2.53125 m 14.55469,-2.53125 0.63281,0 0,0.21094 -0.63281,0 0,-0.21094 m -24.89062,0.42188 0,0.21094 0.21093,0.21093 0.21094,0 0,-0.21093 -0.21094,-0.21094 -0.21093,0 m 8.85937,0 0,0.42187 0.42188,-0.42187 -0.42188,0 m -6.96094,0.84375 0.21094,0 0.63281,-0.42188 c 0.75,4e-5 1.24218,0.28129 1.47657,0.84375 -1e-5,0.70316 -0.28126,1.54691 -0.84375,2.53125 l 0.21093,0 c 0.5625,-0.9609 0.84375,-1.80465 0.84375,-2.53125 l 0,-0.21093 c -0.23438,-0.56247 -0.72656,-0.84372 -1.47656,-0.84375 l -0.42187,0 -0.63282,0.63281 m 25.52344,-0.63281 0,0.21093 0.42188,0 0,-0.21093 -0.42188,0 m 0.63281,0.21093 0,0.21094 0.63282,0 0,0.42188 -0.42188,0 -0.21094,-0.21094 -0.21093,0 0.21093,0.21094 0,0.21093 c -3e-5,0.28129 -0.77346,0.49222 -2.32031,0.63282 l -0.42187,0.63281 0,0.21094 1.05468,-0.21094 2.53125,0 c 0.98435,3e-5 1.47653,-0.49216 1.47657,-1.47656 -0.63285,-0.42185 -1.26566,-0.63278 -1.89844,-0.63282 l -0.42188,0 m -27.63281,0.21094 0,0.21094 c 0.98437,0.84378 1.75781,1.33597 2.32031,1.47656 l 0.21094,0 0,-0.21094 c -0.44532,4e-5 -1.28907,-0.49215 -2.53125,-1.47656 m 7.17188,0.42188 0.42187,0.42187 0.42188,0 0,-0.84375 -0.42188,0 -0.42187,0.42188 m 10.54687,0.63281 0,0.63281 c 0.23436,0.56253 0.72654,0.84378 1.47656,0.84375 l 1.05469,-0.21094 0,-0.21093 -0.63281,0 -0.63281,0.21093 c -0.70315,-0.23434 -1.05471,-0.65622 -1.05469,-1.26562 l 0.42187,-0.42188 0.21094,0.21094 0.42188,0 -0.42188,-0.42187 -0.21094,0 -0.63281,0.63281 m 10.75781,-0.63281 0.63282,0 0,0.21093 -0.21094,0.63282 -0.21094,0 -0.21094,-0.84375 m 16.03125,1.05468 -0.63281,-0.42187 -0.63281,1.89844 0.42187,0.42187 0,0.84375 -1.05468,1.05469 -0.84375,0 c -0.35161,3e-5 -0.56255,-0.28122 -0.63282,-0.84375 l -0.42187,0 -1.89844,-0.21094 -1.05469,0.63281 0.21094,0.63282 c -0.44535,2e-5 -0.93754,0.49221 -1.47656,1.47656 l 2.32031,0.21094 -0.21094,0.21093 0,0.42188 0.42188,0 c 0.65621,2e-5 1.42964,-0.56248 2.32031,-1.6875 l 0,0.21094 -0.21094,1.6875 c 0.0937,0.70315 0.30465,1.05471 0.63282,1.05468 l 0.21093,-0.21093 -0.42187,-1.05469 0.21094,-0.21094 0.21093,0 c -4e-5,0.46878 0.42183,1.31253 1.26563,2.53125 l 0.21094,0.21094 0.42187,0 c -5e-5,-0.74998 0.35152,-1.4531 1.05469,-2.10938 l -0.21094,0.21094 -0.21094,0 -0.42187,-0.42187 0.21094,-0.63282 0.21093,0 c 0.28121,3e-5 0.42183,0.21097 0.42188,0.63282 l 0.21094,0 0.42187,-0.42188 0,-0.63281 c -5e-5,-1.12497 -0.49223,-1.68747 -1.47656,-1.6875 l -0.84375,0.21094 0,0.42187 0.42187,0.63281 -0.21093,0.21094 0,0.21094 0.42187,0.84375 -0.63281,0.21094 c -0.16411,-1.40623 -0.44536,-2.10935 -0.84375,-2.10938 l 0,0.84375 -0.42188,0 c -4e-5,-0.7031 -0.3516,-1.05466 -1.05468,-1.05469 L 199,174.2927 l 0,-0.21094 -1.05469,0.21094 -0.21094,0 c -4e-5,-0.3281 0.35152,-0.53904 1.05469,-0.63282 l 1.47656,0.84375 c 1.40621,3e-5 2.10933,-1.12497 2.10938,-3.375 l 0.63281,0 -0.42187,1.05469 0.21093,0.21094 0,0.21094 -0.21093,0.84375 0.42187,0 1.05469,-1.05469 0,-0.63281 -0.42188,-0.42188 0.42188,-1.89844 -0.21094,0 -1.05469,0.84375 m -36.28125,0 0.21094,0.21094 0.21094,0 0.42187,-0.42187 -0.21093,-0.21094 -0.21094,0 -0.42188,0.42187 m 10.125,5.27344 0,0.63281 c -2e-5,1.68753 0.35154,2.53128 1.05469,2.53125 l 0,-0.42187 -0.63281,-2.10938 c -2e-5,-2.81247 1.68748,-4.85153 5.0625,-6.11718 l 0,-0.21094 -0.42188,0 c -3.37502,1.5469 -5.06252,3.44534 -5.0625,5.69531 m 13.07813,-5.69531 0,0.21094 c -4e-5,0.2344 0.35153,0.44534 1.05469,0.63281 l 0.21093,-0.21094 0,-0.21094 -1.26562,-0.42187 m -25.73438,0.63281 0.21094,0.21094 0,0.21094 -0.21094,0.21093 0,0.42188 0.21094,0 0.21094,-0.84375 -0.21094,-0.21094 -0.21094,0 m 4.00782,0 -0.42188,0.84375 0.21094,0 0.42187,-0.84375 -0.21093,0 m 28.47656,0 0,0.42188 c 0.0937,0.84378 0.30465,1.26565 0.63281,1.26562 -4e-5,-0.56247 0.2109,-0.84372 0.63281,-0.84375 l 1.26563,1.05469 0,-0.21094 c -0.79692,-1.12497 -1.57036,-1.68747 -2.32031,-1.6875 l -0.21094,0 m -39.44531,0.21094 -0.21094,0.21094 0,0.84375 0.84375,0.84375 0,-0.21094 -0.63281,-0.63281 0,-0.63282 0.21093,-0.21093 0,-0.21094 -0.21093,0 m 37.54687,0.63281 0.42188,1.47656 0.21093,0 -0.21093,-1.05468 0,-0.21094 0.21093,-0.21094 0,-0.21094 0.21094,0.21094 0.42188,0 0,-0.21094 -0.42188,-0.42187 -0.42187,0 c -0.28129,3e-5 -0.42192,0.21097 -0.42188,0.63281 m -36.28125,-0.42187 -0.21094,0.63281 0,0.21094 0.21094,0 0.21094,-0.63282 0,-0.21093 -0.21094,0 m 1.47656,0.21093 0,0.21094 c 0.5625,0.23441 0.84375,0.72659 0.84375,1.47656 l 0,0.63282 c -0.28125,0.56252 -0.63281,0.84377 -1.05468,0.84375 l 0,0.21093 0.63281,0 0.63281,-0.84375 0,-0.84375 c 0,-0.7734 -0.35157,-1.3359 -1.05469,-1.6875 m 2.74219,0.21094 0.84375,0.84375 c -0.21094,-0.56247 -0.42188,-0.84372 -0.63281,-0.84375 l -0.21094,0 m 17.08594,0.42188 c -0.56252,0.6094 -1.05471,1.45315 -1.47656,2.53125 -3e-5,0.84377 0.49216,1.26565 1.47656,1.26562 l 0.21094,-0.21094 0,-0.21093 c -0.70315,2e-5 -1.05471,-0.1406 -1.05469,-0.42188 l 0,-0.84375 c -2e-5,-0.60935 0.35154,-1.31247 1.05469,-2.10937 l -0.21094,0 m -12.44531,0.21093 -0.21094,0.63282 0,0.21093 0.21094,0 0.21093,-0.63281 0,-0.21094 -0.21093,0 m -3.79688,0.42188 0.21094,0.63281 0.21094,0 0,-0.42187 -0.21094,-0.21094 -0.21094,0 m -5.0625,0.42187 0,0.21094 0.63281,0 1.05469,-0.21094 0,-0.21093 -0.42187,0 -1.26563,0.21093 m 11.17969,-0.21093 c -0.42189,1.31252 -0.63283,2.50784 -0.63281,3.58593 l 0,0.63282 c 0.0937,0.84377 0.30467,1.26564 0.63281,1.26562 l 0.42187,0 -0.84375,-1.05469 0,-0.63281 c -1e-5,-1.2656 0.21093,-2.46091 0.63282,-3.58594 l 0,-0.21093 -0.21094,0 m 24.89062,0.21093 0,0.42188 0.21094,1.05469 0.21094,0 0.21094,-0.21094 0.21093,0 c -0.32816,-0.84372 -0.60941,-1.2656 -0.84375,-1.26563 m -27.63281,0.21094 0,0.42188 0.21094,0 0,-0.42188 -0.21094,0 m -4.00781,0.21094 c -1e-5,0.37503 -0.63282,1.07815 -1.89844,2.10937 l 0.21094,0 1.89844,-1.89843 0,-0.21094 -0.21094,0 m 1.05469,0 0,0.42187 0.21093,0 0,-0.42187 -0.21093,0 m -6.11719,0.21094 0,1.26562 c 0,0.89065 0.35156,1.66409 1.05469,2.32031 -0.56251,-0.93747 -0.84376,-2.13278 -0.84375,-3.58593 l -0.21094,0 m 6.32812,0.42187 0,1.05469 0.21094,0 0,-1.05469 -0.21094,0 m 2.53125,0 0,0.42188 0.21094,0 0,-0.42188 -0.21094,0 m 8.4375,0.84375 0,16.875 0.21094,0 0,-16.45312 c 0.14061,-0.56248 0.49217,-0.84373 1.05469,-0.84375 l 0,-0.21094 -0.84375,0 c -0.28127,3e-5 -0.4219,0.21096 -0.42188,0.63281 m 4.42969,-0.63281 0,0.21094 10.125,0 0,-0.21094 -10.125,0 m -13.07812,0.42187 0,0.42188 0.21093,0 0,-0.42188 -0.21093,0 m 30.375,0 0.42187,0 0,0.21094 -0.42187,0 0,-0.21094 m -12.86719,0.42188 0,0.63281 0.63281,0 -0.21094,-0.63281 -0.42187,0 m 12.86719,-0.21094 c -4e-5,0.32815 -0.35161,0.53909 -1.05469,0.63281 -4e-5,-0.32809 0.35152,-0.53903 1.05469,-0.63281 m -31.42969,0.42188 -0.63281,1.05468 0.21093,0 0.63282,-0.84375 0,-0.21093 -0.21094,0 m 19.61719,0.63281 0,0.84375 0.42187,0.42187 0.42188,0 0,-0.42187 0.42187,0 0,0.42187 0.21094,0 0,-0.42187 0.21094,0 0.63281,0.21094 0,-0.63282 0.42187,0 0,0.84375 0.21094,-0.21093 0.42188,0 0,0.63281 0.21093,-0.21094 0.21094,0 0,0.42188 0.42188,0 c 0.28121,2e-5 0.42184,-0.21092 0.42187,-0.63282 -3e-5,-0.3281 -0.49222,-0.82028 -1.47656,-1.47656 l -0.21094,-0.21094 0,-0.21093 -2.95312,0.63281 m -22.35938,0 0,0.21094 0.63281,0.63281 0.21094,0 1.05469,-0.21094 0,-0.21094 -0.21094,0 -0.63281,0.21094 c -0.42188,3e-5 -0.63282,-0.35154 -0.63281,-1.05469 l -0.42188,0.42188 m 3.58594,-0.42188 0,0.42188 0.21094,0 0,-0.42188 -0.21094,0 m -5.90625,0.21094 -0.21094,0.21094 0,0.21094 0.21094,0 0.21094,-0.21094 0,-0.21094 -0.21094,0 m 19.82812,0.63281 -0.84375,0 0.21094,1.05469 -1.05469,1.26563 0,0.63281 1.6875,-1.05469 0,0.21094 c -2e-5,0.4219 -0.28127,0.63283 -0.84375,0.63281 l -0.21093,0.21094 0,0.21094 0.21093,0 2.10938,-0.21094 1.47656,0.21094 0,-0.63282 0.21094,0.21094 0.42187,0 -0.21093,-0.21094 0,-0.42187 0.42187,0 c -3e-5,-0.42185 -0.56253,-0.63279 -1.6875,-0.63281 l 0,-0.63282 1.6875,0.42188 0.42188,0 -0.42188,-0.63281 0.21094,0 0.63281,0.21093 0,-0.21093 c -3e-5,-0.42185 -0.63284,-0.77342 -1.89844,-1.05469 l -0.21093,0 -2.32032,0.42187 m -14.13281,-0.21093 0,0.42187 0.21094,0 0,-0.42187 -0.21094,0 m 29.74219,0.42187 c 0.14058,2.1094 0.42183,3.16409 0.84375,3.16406 l 0,-0.21093 c -0.18754,-1.96873 -0.46879,-2.9531 -0.84375,-2.95313 m -4.85156,0.21094 c -4e-5,0.28127 -0.21098,0.4219 -0.63282,0.42187 l 0,0.21094 0.42188,0 0.42187,-0.63281 -0.21093,0 m -25.10157,0.21094 0,0.42187 0.21094,0 0,-0.42187 -0.21094,0 m 15.60938,0 0.21094,0 -0.42188,0.42187 -0.21094,0 0.42188,-0.42187 m -18.77344,1.47656 c 0.58593,-0.18748 1.00781,-0.53904 1.26563,-1.05469 l -0.21094,0 -1.05469,1.05469 m 34.59375,-0.42188 0,0.21094 0.63281,-0.42187 0.42188,0 0.42187,0.42187 0,0.42188 -0.21093,0.21093 0,0.21094 0.21093,0 0.42188,-0.42187 0,-0.63282 -0.63281,-0.63281 -0.63282,0 -0.63281,0.63281 m -31.64062,-0.42187 0,0.42187 0.21093,0 0,-0.42187 -0.21093,0 m 21.72656,0 0,0.42187 0.42187,0 -0.42187,-0.42187 m -29.74219,0.21094 -0.21094,0.21093 0,0.42188 0.21094,0 0.21094,-0.63281 -0.21094,0 m 28.47656,0 0,0.42187 -0.21093,0 0.21093,0.63281 0.21094,0 c 0.3281,3e-5 0.53903,-0.35154 0.63281,-1.05468 l -0.84375,0 m 8.4375,0.42187 0.84375,0 -0.42187,-0.42187 -0.42188,0.42187 m -34.80468,-0.21094 0,0.21094 0.21093,0.21094 0.21094,0 0,-0.21094 -0.21094,-0.21094 -0.21093,0 m 24.89062,0 0,0.21094 0.84375,0.63281 0,-0.84375 -0.84375,0 m 5.48438,0 -0.21094,0.21094 0,0.42188 c 0.49215,1.12502 0.98434,1.68752 1.47656,1.6875 l 0,0.42187 -0.42187,0 0.42187,0.63281 -0.42187,0 0,0.21094 0.21093,0.63281 -0.42187,0 0.42187,1.05469 0.21094,0 c 0.42184,2e-5 0.7734,-1.05467 1.05469,-3.16406 -1.07816,-1.40623 -1.8516,-2.10935 -2.32031,-2.10938 m -1.89844,0.63282 0,0.42187 0.42187,-0.42187 0,-0.42188 -0.42187,0.42188 m -27.63281,-0.21094 0,0.21094 0.42187,0 0,-0.21094 -0.42187,0 m 1.47656,0 0,0.21094 0.42187,0 0,-0.21094 -0.42187,0 m 3.375,0 0,0.42187 0.21094,0 0,-0.42187 -0.21094,0 m 21.72656,0.42187 0,0.63282 0.42188,-0.42188 0,-0.63281 -0.42188,0.42187 m -29.95312,-0.21093 0,0.63281 0.21093,0 0,-0.63281 -0.21093,0 m 31.64062,0.84375 0,0.63281 0.21094,0 0.42187,-0.42188 0,-0.84375 -0.63281,0.63282 m 14.97656,0.63281 0,3.58594 0.21094,0 c -5e-5,-3.23436 0.21089,-4.85154 0.63281,-4.85157 l -0.21093,0 c -0.42193,0.14065 -0.63286,0.56253 -0.63282,1.26563 m -38.60156,-1.05469 c -1e-5,1.00784 -0.91407,1.9219 -2.74219,2.74219 l 0,0.21094 0.21094,0 c 0.77343,2e-5 1.68749,-0.91405 2.74219,-2.74219 l 0,-0.21094 -0.21094,0 m 18.98438,0 -0.21094,1.05469 0,0.21094 0.21094,0 0.42187,-1.26563 -0.42187,0 m 14.76562,1.47656 0,0.42188 0.42188,0 c -5e-5,-0.7031 0.2812,-1.12498 0.84375,-1.26563 0.93745,3e-5 1.49995,0.91409 1.6875,2.74219 l 0.21093,0 0,-0.84375 c -4e-5,-1.17185 -0.56254,-2.0156 -1.6875,-2.53125 -0.98442,2e-5 -1.4766,0.49221 -1.47656,1.47656 m -31.85156,-0.21093 0.42187,0 c 0.60937,-0.42186 1.17187,-0.63279 1.6875,-0.63282 l 0,-0.42187 -0.42187,0 c -0.77345,2e-5 -1.33595,0.35158 -1.6875,1.05469 m 9.49219,-1.05469 c 0.1406,0.70315 0.49216,1.05471 1.05468,1.05469 l 0.42188,-0.63282 0,-0.21093 -1.05469,-0.21094 -0.42187,0 m 8.4375,0 -0.21094,0.84375 0.63281,0 0,-0.84375 -0.42187,0 m 17.71875,0 0,0.42187 0.21093,0.21094 0,0.21094 -0.42187,0 0.21094,2.53125 0,1.47656 0.42187,0.42188 0.21094,-2.95313 -0.21094,-2.32031 -0.42187,0 m -16.45313,0.21094 -0.21094,0.21093 0,0.84375 0.21094,0 0.42188,-0.42187 0,-0.21094 -0.42188,-0.42187 m 1.05469,0.63281 0,0.63281 0.42187,0 0.42188,-0.42187 0,-0.63282 -0.42188,0 -0.42187,0.42188 m -26.78906,-0.21094 0,0.84375 c -1e-5,0.28127 0.21093,0.4219 0.63281,0.42188 l 0.21094,0 0,-0.21094 -0.42188,-0.42188 -0.21094,0 0.21094,-0.21093 0,-0.42188 -0.42187,0 m 17.08593,2.53125 0.42188,1.89844 -1.26563,1.47656 0,0.21094 0.21094,-0.21094 0.42188,0 c 0.93747,2e-5 1.6406,0.70314 2.10937,2.10938 l 0.21094,0 0,-0.63282 0.21094,0 c 0.5156,0.42189 1.00778,0.63283 1.47656,0.63282 l 1.89844,-0.84375 -0.63282,1.05468 c 0.79685,2e-5 1.49998,-0.98436 2.10938,-2.95312 l -0.42188,-0.63281 0.42188,0 0,-0.21094 -0.21094,-0.21094 0,-0.21094 -0.21094,0.21094 -0.63281,0 0,-0.21094 0.21094,-0.21093 0,-0.21094 -0.42188,0 -1.89843,0.63281 -0.63282,-0.21094 c -2e-5,-0.39842 0.7031,-0.67967 2.10938,-0.84375 l 0.63281,0 0,-0.21093 -0.21094,-0.21094 0,-0.21094 0.42188,0 0,-0.21094 -0.42188,0 0,-0.42187 0.42188,0 0,-0.42188 -0.63281,0 0.21093,-0.21093 0,-0.21094 c -0.4219,2e-5 -0.63284,-0.14061 -0.63281,-0.42188 l 0.21094,-0.21093 -1.89844,-0.42188 c -2.39065,2e-5 -3.58596,0.84377 -3.58594,2.53125 m -20.25,-2.32031 c 0.89063,1.40627 1.66406,2.10939 2.32032,2.10937 l 0.42187,0 0,-0.21093 c -0.84375,2e-5 -1.75781,-0.6328 -2.74219,-1.89844 m 32.48438,0 -0.21094,0.21094 0,0.63281 0.63281,0 0,-0.42188 -0.42187,-0.42187 m -24.25781,6.32812 -0.63282,0 -1.05468,-0.21093 0,-1.05469 0.63281,-0.84375 c -0.84376,0.32814 -1.26563,0.60939 -1.26563,0.84375 l 0,1.26562 c 0,0.44533 0.70312,0.79689 2.10938,1.05469 l 0,-0.21094 c -1e-5,-0.39842 0.42186,-0.74998 1.26562,-1.05468 l 0.63282,-0.84375 0.63281,0.42187 0.42187,-0.84375 -0.21093,0 -0.21094,0.21094 -0.21094,0 0,-0.21094 0.21094,-1.05469 0.21094,0 0,0.84375 0.42187,-0.42187 -0.84375,-2.53125 c -1e-5,-0.70311 0.6328,-1.05467 1.89844,-1.05469 l -0.42188,-0.42187 -0.21093,0 c -1.54689,2e-5 -2.32033,1.6172 -2.32032,4.85156 l -1.05468,1.26562 m 27.84375,-5.48437 0.21093,0 1.26563,-0.42188 1.89844,0 1.47656,0.42188 c -0.0938,-0.42185 -0.65629,-0.63279 -1.6875,-0.63281 l -1.89844,0 c -0.84379,0.0938 -1.26566,0.3047 -1.26562,0.63281 m -13.92188,-0.63281 1.05469,0 -1.6875,1.05468 0,0.21094 -0.42188,-0.42187 0,-0.21094 1.05469,-0.63281 m 9.07031,0.21093 0,1.05469 0.21094,0 0.42188,-0.42187 0,-0.21094 -0.42188,-0.42188 -0.21094,0 m -4.00781,0.21094 0,0.84375 0.42188,0 0.42187,-0.42187 -0.42187,-0.42188 -0.42188,0 m -19.40625,0.21094 -0.21094,0.63281 0.63282,0.84375 0.42187,0 0,-0.42187 c -0.42188,2e-5 -0.63282,-0.35155 -0.63281,-1.05469 l -0.21094,0 m 3.16406,0.42187 c 0.39843,1.5469 0.8203,2.32033 1.26563,2.32032 l 0.21094,0 0.21093,-0.21094 0.21094,0 -0.84375,-2.53125 -1.05469,0.42187 m 17.50782,0 0,0.42188 0.42187,0 0.21094,-0.21094 0.21094,0 -0.21094,-0.63281 -0.21094,0 -0.42187,0.42187 m 7.59375,0 0,0.42188 0.21093,0.21094 c 0.0468,0.28127 0.46872,0.4922 1.26563,0.63281 l 0,-0.21094 c -4e-5,-0.7031 0.35152,-1.05467 1.05469,-1.05469 0.84371,0.0938 1.26558,0.30471 1.26562,0.63282 l 0,0.21093 -0.42187,0 0.21093,0.21094 0,0.21094 1.26563,-0.42188 0,-0.42187 c -0.23442,-0.56248 -0.72661,-0.84373 -1.47656,-0.84375 l -1.89844,0 -1.47656,0.42187 m -6.32813,0.21094 0,0.63281 0.42188,0 0.42187,-0.42187 0,-0.21094 -0.42187,-0.42187 -0.42188,0.42187 m 2.32031,0.42188 0,0.42187 0.63282,-0.21094 0,-0.63281 -0.21094,0 -0.42188,0.42188 m -32.48437,0 -0.21094,0.21093 0,0.42188 0.21094,0.21094 0,-0.42188 0.21094,-0.21094 0,-0.21093 -0.21094,0 m 4.85156,0 0,0.21093 0.42188,0 0,-0.21093 -0.42188,0 m 33.96094,0 -1.05469,3.375 -0.21094,-0.21094 -0.21093,0 0,0.21094 0.21093,0 c -0.32816,1.59376 -2.2266,3.70313 -5.69531,6.32812 l 0,0.21094 c 1.1484,-0.35155 2.69528,-1.61718 4.64063,-3.79688 1.82808,-2.48436 2.74214,-4.52342 2.74218,-6.11718 l -0.42187,0 m -11.17969,0.21093 -0.21094,0.84375 0.21094,0.21094 0.21094,0 0.42187,-0.42187 0,-0.63282 -0.63281,0 m 3.58594,0 -0.21094,1.05469 0.42188,0 0.21093,-1.05469 -0.42187,0 m 11.8125,0 c -5e-5,0.4219 -0.70317,0.63284 -2.10938,0.63282 l -0.42187,0.63281 0,1.05469 0.42187,0.42187 0.21094,0 -0.21094,-1.05469 0,-0.21093 1.05469,-0.21094 c 0.67964,2e-5 1.17183,0.70314 1.47656,2.10937 -0.98442,2.53127 -1.4766,4.07814 -1.47656,4.64063 l 0,0.63281 1.26563,1.05469 0.21093,0 c 0.7734,1e-5 1.3359,-0.35155 1.6875,-1.05469 l 0,-0.42187 -1.26562,0 -0.21094,0.21093 -0.21094,0 0,-0.63281 c -4e-5,-0.51561 0.42183,-1.35936 1.26563,-2.53125 l -0.21094,0 -0.42187,0.42188 0,-0.63282 1.05468,-1.6875 0,0.84375 0.21094,0 0.21094,-1.47656 c -0.23442,2e-5 -0.86723,-0.84373 -1.89844,-2.53125 l -0.63281,-0.21094 m -37.75781,0.42188 0,0.21094 0.42187,0 0,-0.21094 -0.42187,0 m 24.67968,0 -0.21093,0.21094 0,0.21093 0.63281,0 -0.42188,-0.42187 m -26.78906,0.21094 0,0.21093 1.26563,0 0,-0.21093 -1.26563,0 m 3.79688,0.21093 0,0.21094 0.21093,0 0.63282,-0.21094 0,-0.21093 -0.21094,0 -0.63281,0.21093 m 25.52343,-0.21093 0,0.42187 0.42188,0.42188 0.21094,-0.21094 0,-0.63281 -0.63282,0 m -32.27343,2.53125 0,0.84375 c -1e-5,0.65626 0.63281,1.50001 1.89843,2.53125 l 0,0.21093 0.21094,0 c 0,-0.70311 0.70312,-1.26561 2.10938,-1.6875 l 0.21093,-1.05468 0,-0.42188 c -0.28125,-0.56248 -0.70313,-0.84373 -1.26562,-0.84375 l -0.21094,0 0,0.21094 c 0.70312,0.0938 1.05468,0.3047 1.05469,0.63281 l 0,0.84375 c -0.23438,0.56252 -0.72657,0.84377 -1.47656,0.84375 -1.54688,-0.23436 -2.32032,-0.93748 -2.32032,-2.10937 0,-1.12499 0.77344,-1.82811 2.32032,-2.10938 l 0,-0.21094 -0.84375,0 c -1.12501,0.56252 -1.68751,1.33596 -1.6875,2.32032 m 28.26562,-2.10938 0,0.63281 0.42188,0.42188 0.63281,-0.63281 0,-0.42188 -1.05469,0 m 2.95313,0.63281 0,0.63282 0.21093,0 0.42188,-0.42188 0,-0.63281 -0.21094,0 -0.42187,0.42187 m 3.58593,-0.42187 0,0.42187 1.05469,0 -0.42187,-0.42187 -0.63282,0 m -4.85156,0.21094 0,0.63281 0.42188,0 0,-0.63281 -0.42188,0 m -22.14844,0.21093 -0.21093,0.21094 0,0.21094 0.21093,0 0.21094,-0.21094 0,-0.21094 -0.21094,0 m 25.52344,0 0.21094,0.21094 0,0.42188 -0.42188,0 0.21094,0.21093 0,0.42188 -0.63281,0 c -4e-5,0.28127 0.2109,0.42189 0.63281,0.42187 l 0.21094,0.21094 0,0.42188 -0.21094,0 -1.05469,-0.63282 0,0.63282 -0.21093,-0.21094 -0.21094,0 0,1.89844 0.84375,0.21093 c 0.5859,-0.84373 1.1484,-1.26561 1.6875,-1.26562 l -0.21094,-0.63281 0.21094,-1.6875 -0.21094,-0.63282 -0.84375,0 m -9.70312,0 0.21093,0 -0.63281,0.63282 -0.21094,-0.21094 -0.63281,0.63281 -0.42187,-0.42187 c 0.0937,-0.42186 0.65622,-0.6328 1.6875,-0.63282 m 5.48437,1.05469 0.63281,0 0,-0.42187 -0.21093,0 -0.42188,0.42187 m 5.69531,0.42188 0.21094,0.21093 0.21094,0 0,-0.42187 0.42187,0 0.42188,0.42187 0,0.21094 c -4e-5,0.53908 -0.3516,1.31252 -1.05469,2.32031 l 0.21094,0 c 0.84371,-1.12498 1.26559,-2.03904 1.26562,-2.74218 -0.14066,-0.56249 -0.42191,-0.84374 -0.84375,-0.84375 -0.46878,0.14064 -0.75003,0.42189 -0.84375,0.84375 m -22.78125,-0.42188 0,0.21094 c 0.28124,2e-5 0.56249,0.42189 0.84375,1.26562 l 0.21094,0 0,-0.63281 -1.05469,-0.84375 m 18.35157,0.21094 0.42187,0.42187 0.42188,-0.42187 -0.21094,-0.21094 -0.63281,0.21094 m 14.13281,3.16406 0,0.84375 0.84375,0 c 0.25776,-2.39061 0.89058,-3.58592 1.89844,-3.58594 l 0,-0.63281 -1.05469,0 c -0.2813,2e-5 -0.42192,0.42189 -0.42188,1.26563 l -1.26562,2.10937 m -9.49219,1.89844 0.21094,0 c 1.49996,-1.40624 2.69527,-2.95311 3.58594,-4.64063 l 1.05468,0 0,0.84375 0.42188,-0.42187 0,-0.63281 -1.05469,-0.21094 c -0.51566,0.3047 -1.50004,1.57033 -2.95312,3.79687 l -1.26563,1.26563 m -23.41406,-4.85156 0,0.21093 1.26562,2.32032 0.21094,0 0,-0.63282 -1.47656,-1.89843 m 14.13281,3.79687 0,0.63281 1.05469,0.21094 0.84375,0 0,0.63281 1.26562,-0.84375 -0.21093,-0.63281 0.21093,0 1.26563,-0.84375 0.21094,0 0,0.21094 -1.26563,1.26562 c 1.40622,-0.51561 2.10934,-1.49998 2.10938,-2.95312 l 0,-0.21094 c -0.42191,2e-5 -0.63285,-0.14061 -0.63282,-0.42187 l -0.21093,0 c -4e-5,0.84376 -0.21097,1.26564 -0.63282,1.26562 l -0.21093,-0.21094 0.42187,-1.26562 -0.21094,-0.21094 -0.21093,0 c -3e-5,0.42189 -0.14066,0.63283 -0.42188,0.63281 l 0,-0.21093 0.21094,-0.63282 -0.42188,0 0.21094,0.21094 0,0.21094 -0.63281,0 0,-0.42188 -0.21094,0.21094 c -0.44534,1.00783 -1.28909,2.13283 -2.53125,3.375 m 18.5625,-3.375 0,0.42188 -0.21094,0.63281 -0.42187,0 0,-0.42188 0.63281,-0.63281 m -33.96094,0.63281 c 0.70312,1.9922 1.05468,3.75002 1.05469,5.27344 l -0.42187,1.6875 0.42187,0 0.21094,-1.47656 0,-1.89844 c -0.42189,-2.39061 -0.84376,-3.58592 -1.26563,-3.58594 m 34.38282,0.21094 -0.21094,0.21094 0,0.42187 0.21094,0 0.21093,-0.63281 -0.21093,0 m -12.65625,0.21094 0.84375,0 0,0.21094 -0.42188,0.42187 -0.42187,0 0,-0.63281 m -8.64844,0.21094 1.47656,0 -0.42187,0.42187 -1.05469,0 0,-0.42187 m 13.5,2.10937 2.10937,-0.84375 0.42188,0 0.84375,0.42188 0,1.47656 -0.21094,-0.21094 -0.21094,0 0,0.21094 0.21094,0.21094 -1.47656,0.42187 0,0.21094 0.84375,0 c 1.12496,1e-5 1.68746,-0.56249 1.6875,-1.6875 l -0.21094,-1.05469 0.42188,0 c -0.35161,-0.70311 -0.91411,-1.05467 -1.6875,-1.05469 -0.77348,2e-5 -1.68754,0.63283 -2.74219,1.89844 m -26.78906,-1.6875 0,0.42188 0.21093,0 0,-0.42188 -0.21093,0 m 9.70312,0.84375 0,0.21094 0.21094,-0.21094 0.84375,0 0.63281,0.63281 0,0.63282 c -2e-5,0.42188 -0.56252,0.70313 -1.6875,0.84375 l -1.05469,-0.21094 0.63282,0.63281 0.84375,0 c 1.2656,-0.21093 1.89841,-0.77342 1.89843,-1.6875 -0.18752,-0.58592 -0.53908,-1.0078 -1.05468,-1.26562 l -0.84375,0 -0.42188,0.42187 m 2.95313,-0.42187 0,0.21093 0.21093,0.21094 0.42188,0 0,-0.21094 -0.63281,-0.21093 m -13.71094,0.63281 0,0.21094 0.42187,0 0.21094,-0.21094 0,-0.21094 -0.63281,0.21094 m 1.26562,-0.21094 c -1e-5,1.82814 -0.28126,2.7422 -0.84375,2.74219 l -0.21093,0.21094 0.42187,0 c 0.56249,-0.28124 0.84374,-0.70312 0.84375,-1.26563 l 0,-1.6875 -0.21094,0 m 13.5,0 0,0.21094 0.84375,0 0,-0.21094 -0.84375,0 m 5.90625,-0.21094 0,0.21094 -0.63281,0.63281 -0.42187,0 c 0.0703,-0.28123 0.42184,-0.56248 1.05468,-0.84375 m 1.6875,0.84375 -0.21093,-0.21093 -0.21094,1.05468 0.63281,0.42188 0.42188,-1.47656 0,-0.21094 -0.63282,0.42187 m 3.16407,-0.42187 -0.84375,1.05469 0.21093,0 0.84375,-1.05469 -0.21093,0 m -11.39063,1.26562 0,0.42188 c 1.12498,-0.2578 1.68747,-0.53905 1.6875,-0.84375 l -0.21094,0 -0.63281,0.21094 0,-0.42188 0.42188,0 0,-0.21094 -0.21094,0 c -0.63284,0.28127 -0.9844,0.56252 -1.05469,0.84375 m -23.625,-0.21093 0,0.21093 0.63281,-0.42187 c 0.5625,1e-5 0.84375,0.56251 0.84375,1.6875 l 0.21094,0 0.21094,-1.26563 -0.84375,-0.63281 -0.63281,0 -0.42188,0.42188 m 6.32813,-0.21094 0,0.21094 c 0.56249,1e-5 0.98436,0.28126 1.26562,0.84375 l -0.42187,0.42187 c -0.70314,-0.84374 -1.6172,-1.26561 -2.74219,-1.26562 -1.26563,0.3047 -1.89844,0.65626 -1.89844,1.05468 l 0.21094,-0.21093 1.6875,0 c 0.70312,0.25782 1.05468,0.89063 1.05469,1.89843 l -0.42188,0.63282 0,0.42187 1.47656,0.21094 0,1.26562 0.42188,0.42188 0.21094,0 c -1e-5,-0.32812 0.56249,-1.17187 1.6875,-2.53125 l 0.21093,-0.63281 0,-0.63282 -0.21093,0 c -1e-5,0.89064 -0.21095,1.38283 -0.63282,1.47657 l 0,-1.05469 0.63282,-0.63281 -0.21094,-0.63282 0.42187,-1.05468 -1.6875,0 -0.84375,-0.21094 -0.21093,0 m 27.42187,0.21094 -0.21094,0.21093 0,0.21094 0.21094,0 0.21094,-0.21094 0,-0.21093 -0.21094,0 m 2.95313,0 -0.21094,0.21093 0,0.21094 0.21094,0 0.21093,-0.21094 0,-0.21093 -0.21093,0 m 8.4375,0.21093 0,0.21094 c 1.12495,0.0938 1.68745,0.58595 1.6875,1.47656 l -0.21094,0 c -0.44536,1e-5 -0.86724,0.35158 -1.26563,1.05469 l 0.21094,0.21094 0.21094,0 0.84375,-0.63281 0.42187,0 c -4e-5,0.70313 0.14058,1.05469 0.42188,1.05468 l 0.21094,-1.05468 c -0.56255,-0.72656 -0.8438,-1.35937 -0.84375,-1.89844 l -1.47657,-0.42188 -0.21093,0 m -22.78125,2.32032 -2.95313,-0.63282 0,0.21094 c -2e-5,0.89064 0.84373,1.45313 2.53125,1.6875 1.35935,0.42188 2.62498,0.63282 3.79688,0.63281 l 5.69531,0 c 1.40621,0.18751 2.10934,0.82032 2.10937,1.89844 0.42184,-0.14062 0.63278,-0.56249 0.63282,-1.26562 l -0.21094,-0.21094 0,-0.21094 0.63281,-0.21094 c -0.42191,-0.98436 -1.12503,-1.47655 -2.10937,-1.47656 l -1.6875,0.21094 0,-0.21094 0.42187,-0.63281 -0.21094,-0.21094 -1.05468,0 -4.21875,1.47656 -0.63282,0 0,-0.42187 c 0.8906,1e-5 1.38279,-0.28124 1.47657,-0.84375 l -0.63282,-0.21094 0.42188,-1.05469 -0.21094,-0.21093 -0.21094,0 c -0.93752,1.12501 -2.13283,1.68751 -3.58593,1.6875 m 13.5,-1.6875 -0.42188,0.63281 0.21094,0 0.42187,-0.63281 -0.21093,0 m 7.17187,0.21093 1.47656,0.21094 -0.42187,0.42188 -0.84375,0 -0.21094,-0.63282 m -14.34375,0.63282 0,0.21093 1.89844,-0.21093 0,-0.21094 -1.26563,0 -0.63281,0.21094 m -27.42187,0 0,0.42187 0.21093,0 0,-0.42187 -0.21093,0 m 1.05468,0 -0.63281,1.05468 0,1.05469 c 0.5625,2.95313 2.10937,4.42969 4.64063,4.42969 l 2.95312,-0.84375 0,-0.21094 -0.42187,0 -2.74219,0.63281 C 159.90624,196.72239 158.5,195.31614 158.5,193.06613 l 0.63281,-1.89843 -0.21094,0 m 31.00782,0.21093 0,0.42188 0.63281,-0.63281 -0.63281,0.21093 m 2.53125,0 0,0.21094 c 0.42183,1e-5 0.63277,0.14064 0.63281,0.42188 l 0.21094,0 0,-0.63282 -0.84375,0 m 4.64062,0 0,0.21094 0.21094,0.84375 0.63281,0 -0.21094,-0.21094 0,-0.21093 0.21094,-0.21094 0,-0.21094 -0.84375,-0.21094 m 1.26563,0 0,0.84375 0.42187,-0.42187 -0.42187,-0.42188 m -34.38282,0.21094 0.63282,0 0,0.42188 -0.42188,0.42187 -0.21094,0 -0.42187,-0.42187 0.42187,-0.42188 M 199,192.01145 l 0,0.84375 0.84375,0 0.21094,-0.21094 0.21093,0.21094 0.42188,0 0,-0.42188 L 199,192.01145 m -5.90625,2.10937 0.63281,0.42188 0,-0.21094 -0.21094,-1.26563 0.21094,-0.21093 0.42188,0 c 0.98433,1e-5 1.47652,0.49219 1.47656,1.47656 -0.58598,1.26563 -1.57035,1.89844 -2.95313,1.89844 l 0,0.21093 0.42188,0 c 1.96871,-0.49218 2.95308,-1.40624 2.95312,-2.74218 -4e-5,-0.84374 -0.49222,-1.26562 -1.47656,-1.26563 l -0.84375,0 c -0.42191,0.0938 -0.63285,0.65626 -0.63281,1.6875 m -14.13281,-1.6875 0.21093,0.21094 0.21094,0 0.21094,-0.21094 0.21094,0 0.21093,0.21094 0,0.42187 -1.05468,0.21094 -0.21094,-0.21094 0,-0.21093 0.21094,-0.21094 0,-0.21094 m 1.89843,0 0.42188,0 0,0.84375 -0.42188,0 0,-0.84375 m 21.9375,0.42188 0,0.84375 0.42188,0 0,-0.84375 -0.42188,0 m -43.24218,1.26562 c -1e-5,0.89063 0.70312,1.66407 2.10937,2.32031 l 0.21094,0 0,-0.21093 c -0.56251,0 -1.12501,-0.42187 -1.6875,-1.26563 l 0,-0.84375 c -1e-5,-0.28124 0.28124,-0.42187 0.84375,-0.42187 l 0,-0.21094 -0.42188,-0.42188 -0.21093,0 c -0.28126,0.0703 -0.56251,0.42189 -0.84375,1.05469 m 29.32031,-1.26562 0.63281,0 0.84375,0.63281 0,0.21094 -1.47656,-0.63282 0,-0.21093 m 8.85937,0.21093 0,1.26563 0.42188,0.42187 1.26562,0 0.42188,-0.42187 0,-0.63281 -0.84375,-0.21094 -0.21094,0.21094 c -4e-5,-0.42187 -0.14067,-0.63281 -0.42187,-0.63282 l -0.63282,0 m 2.74219,0.84375 0,0.21094 0.63281,0 0.63282,-0.63281 0,-0.21094 -0.63282,0 -0.63281,0.63281 m -3.375,1.05469 c -1.59379,1.40626 -3.28129,2.10938 -5.0625,2.10938 l 0,0.63281 c 1.78121,0 3.74996,-0.77343 5.90625,-2.32031 l -0.84375,-0.42188 m -1.6875,2.32031 0,0.21094 0.21094,0 c 3.02339,-1.40624 4.92183,-2.10937 5.69531,-2.10937 0.70308,0.1875 1.05464,0.67969 1.05469,1.47656 l -0.63281,0.63281 -0.63282,0 -1.26562,-1.05469 c -0.98442,0.18751 -1.47661,0.46876 -1.47656,0.84375 l 0,0.84375 0.63281,0.63282 0.42187,0 c -4e-5,-0.28125 -0.21098,-0.42188 -0.63281,-0.42188 l -0.21094,-0.21094 0,-0.63281 c -4e-5,-0.32812 0.35152,-0.53906 1.05469,-0.63281 0.74996,0.84375 1.45308,1.26563 2.10938,1.26562 l 0.84375,0 c -5e-5,-0.60937 0.2812,-0.96093 0.84375,-1.05468 l 0,-0.42188 c -5e-5,-1.12499 -0.56255,-1.68749 -1.6875,-1.6875 l -0.63282,0 c -0.60942,1e-5 -2.50785,0.77344 -5.69531,2.32031 m -18.14062,-1.47656 0,0.21094 1.89843,0.21094 2.10938,-0.42188 0,-0.63281 c -3e-5,0.42188 -1.33596,0.63282 -4.00781,0.63281 m 6.96093,1.05469 c 0.21091,1.125 0.77341,1.6875 1.6875,1.6875 0.84372,0 1.2656,-0.28125 1.26563,-0.84375 l 0,-0.21094 -0.21094,0 c -3e-5,0.5625 -0.28128,0.84375 -0.84375,0.84375 -0.77347,0 -1.33597,-0.42187 -1.6875,-1.26562 -3e-5,-0.84375 0.56247,-1.33594 1.6875,-1.47657 l 2.53125,1.05469 0,-0.21094 c -1.28909,-0.84374 -2.20315,-1.26561 -2.74219,-1.26562 -0.70315,1e-5 -1.26565,0.5625 -1.6875,1.6875 m -19.19531,-1.47656 0,0.42187 0.63281,0.21094 10.96875,-0.21094 0,-0.21094 -11.39062,0 -0.21094,-0.21093 m 23.20313,0 0,0.21093 c 0.84371,1e-5 1.26559,0.4922 1.26562,1.47657 -3e-5,0.42188 -0.21097,0.63281 -0.63281,0.63281 l -0.21094,0.21094 0,0.21093 0.42188,0 c 0.42184,-0.14062 0.63277,-0.56249 0.63281,-1.26562 -0.23441,-0.98437 -0.58597,-1.47656 -1.05469,-1.47656 l -0.42187,0 m -25.73438,1.05468 0,0.21094 0.84375,0 0,-0.21094 -0.84375,0 m -5.69531,0.84375 0,0.42188 1.26562,-0.84375 1.26563,0.42187 0.21094,0 0,-0.21093 -1.47657,-0.42188 -0.63281,0 -0.63281,0.63281 m 9.70312,-0.63281 -0.63281,0.84375 0.21094,0 0.63281,-0.84375 -0.21094,0 m 2.32032,0 0,0.42188 1.05468,0.84375 0,-0.21094 c -0.56251,-0.28125 -0.84376,-0.63281 -0.84375,-1.05469 l -0.21093,0 m 5.0625,0 -0.84375,1.6875 c 0.42185,0 0.63279,0.14063 0.63281,0.42188 l 2.32031,-0.21094 0,-0.21094 c -1.12502,0 -1.68752,-0.42187 -1.6875,-1.26562 l -0.42187,-0.42188 m 1.47656,0.21094 0,0.21094 0.42187,0 0,-0.21094 -0.42187,0 m 1.26562,0 0,0.21094 0.42188,0 0,-0.21094 -0.42188,0 m 2.10938,0 0.42187,0.42187 0,-0.42187 -0.42187,0 m 2.95312,0.84375 0.21094,0 0.63281,-0.63281 0.63282,0 0.42187,0.42187 0,0.21094 -0.21094,0.21094 0,0.21093 0.21094,0 0.21094,-0.21093 0,-0.42188 -0.63281,-0.63281 -0.63282,0 -0.84375,0.84375 m 13.07813,-0.21094 0,0.21094 0.42187,0 0,-0.21094 -0.42187,0 m -29.10938,0.21094 0,0.42187 c 0.14062,0.56251 0.56249,0.84376 1.26563,0.84375 l 0.42187,-0.63281 0,-0.42187 -0.21093,0 c -2e-5,0.5625 -0.14064,0.84375 -0.42188,0.84375 l -0.21094,0 c -0.37501,0 -0.58594,-0.35156 -0.63281,-1.05469 l -0.21094,0 m 13.71094,0 0,0.21094 0.42188,0 0,-0.21094 -0.42188,0 m 14.34375,0 0,0.21094 0.84375,0 0,-0.21094 -0.84375,0 m -23.625,0.21094 0,0.21093 0.21094,0.21094 0.42187,0 0,-0.21094 -0.63281,-0.21093 m 10.33594,0.21093 0,0.21094 0.63281,0 0,-0.21094 -0.63281,0 m -2.74219,0.21094 0,0.42188 0.21094,0 0,-0.42188 -0.21094,0 m 1.05469,0 0,0.42188 0.21094,0 0,-0.42188 -0.21094,0"
         id="path4132"
         style="font-size:72px;font-variant:normal;font-stretch:normal;fill:#ffffff;font-family:Goudy Initials;-inkscape-font-specification:Goudy Initials" />
    </g>
  </g>
</svg>
