<?xml version="1.0" encoding="UTF-8" standalone="no"?>
<!-- Created with Inkscape (http://www.inkscape.org/) -->

<svg
   xmlns:dc="http://purl.org/dc/elements/1.1/"
   xmlns:cc="http://creativecommons.org/ns#"
   xmlns:rdf="http://www.w3.org/1999/02/22-rdf-syntax-ns#"
   xmlns:svg="http://www.w3.org/2000/svg"
   xmlns="http://www.w3.org/2000/svg"
   version="1.2"
   width="56.734375"
   height="56.734375"
   id="svg2">
  <defs
     id="defs4" />
  <metadata
     id="metadata7">
    <rdf:RDF>
      <cc:Work
         rdf:about="">
        <dc:format>image/svg+xml</dc:format>
        <dc:type
           rdf:resource="http://purl.org/dc/dcmitype/StillImage" />
        <dc:title></dc:title>
      </cc:Work>
    </rdf:RDF>
  </metadata>
  <g
     transform="translate(-152.28125,-146.34738)"
     id="layer1">
    <g
       id="flowRoot2985"
       style="font-size:40px;font-style:normal;font-weight:normal;line-height:125%;letter-spacing:0px;word-spacing:0px;fill:#ffffff;fill-opacity:1;stroke:none;font-family:Sans">
      <path
         d="m 154.28125,148.34738 52.73437,0 0,52.73438 -52.73437,0 0,-52.73438 m 1.05469,1.05469 0,50.625 50.625,0 0,-50.625 -50.625,0 m 0.42187,0.63281 49.57031,0 0,49.57032 -49.57031,0 0,-49.57032 m 19.40625,0.63282 0,0.42187 0.42188,0 0,-0.42187 -0.42188,0 m 1.26563,0 0,0.42187 0.42187,0 0,-0.42187 -0.42187,0 m 1.26562,1.47656 0,0.63281 0.21094,0 c -2e-5,-0.91401 0.35154,-1.47651 1.05469,-1.6875 l 0.84375,0.42188 c -0.0938,-0.42183 -0.37503,-0.70308 -0.84375,-0.84375 -0.84378,0.32817 -1.26565,0.82036 -1.26563,1.47656 m 16.66406,-0.63281 1.6875,-0.42188 0.63282,0 3.16406,0.84375 0.21094,0 0,-0.21094 c -1.54692,-0.70307 -2.60161,-1.05463 -3.16407,-1.05468 l -0.84375,0 c -1.05472,0.16411 -1.61722,0.44536 -1.6875,0.84375 m 7.17188,0.63281 1.05469,1.47656 0,0.42188 -0.42188,0 -1.26562,-1.26563 c -2.95317,0.0938 -4.42973,0.37505 -4.42969,0.84375 l 0,0.42188 0.42187,0.42187 c 0.0468,-0.70308 0.25777,-1.05464 0.63282,-1.05469 l 4.42968,1.47657 0.42188,0 0.63281,-0.21094 0,-0.21094 -0.21094,0 -0.63281,0.21094 -0.21094,0 0,-0.21094 1.05469,-0.63281 0,0.42187 0.42188,0 0,-0.21093 -0.63282,-2.53125 0.63282,-0.63282 0.84375,0.42188 0,-0.21094 -0.63282,-0.42187 -0.42187,0 -1.6875,1.47656 m -42.82031,-0.42188 -1.26563,-0.63281 -0.21094,0.21094 0,0.21094 0.42188,0.42187 1.26562,0 1.26563,-0.21094 0.21094,0 0,0.21094 -2.32032,1.05469 0,0.21094 1.47657,0.21093 2.10937,-1.47656 0.63281,0 0,0.42188 c -0.11719,0.30473 -1.10156,0.93754 -2.95312,1.89843 l -0.63281,1.89844 0.21093,1.6875 0.21094,-0.21094 0.21094,0 0.42187,0.42188 0,0.42187 -0.21093,0.21094 c -1e-5,0.91411 0.6328,1.47661 1.89843,1.6875 l 0.84375,0 0,-0.21094 c -1.26563,5e-5 -1.89844,-0.77339 -1.89843,-2.32031 l 0,-0.21094 c -1e-5,-0.49214 0.56249,-1.47651 1.6875,-2.95312 -1e-5,-0.8437 0.14061,-1.26558 0.42187,-1.26563 l 0.42188,0 -0.42188,0.84375 0.21094,0 1.05469,-2.32031 c -0.18751,-0.70307 -0.6797,-1.05464 -1.47657,-1.05469 l -3.58593,0.84375 m 5.27343,-0.84375 c 0.14062,1.12505 0.35156,1.68755 0.63282,1.6875 l 0.21093,0 0,-0.63281 -0.21093,-1.05469 -0.63282,0 m 1.6875,0 0,0.63282 0.21094,0 4.00781,-0.21094 c 1.05468,5e-5 3.09374,0.63286 6.11719,1.89844 -1.89845,-1.54683 -4.35939,-2.32027 -7.38281,-2.32032 l -2.95313,0 m 15.60938,1.6875 0.84375,0 c 0.84372,-0.8437 1.54685,-1.26557 2.10937,-1.26562 l 0.42188,0.42187 c -0.14066,-0.56245 -0.49222,-0.8437 -1.05469,-0.84375 -0.93753,5e-5 -1.71096,0.56255 -2.32031,1.6875 m 9.28125,0.84375 0.21094,0 0.21093,-0.21093 0,0.42187 0.21094,0 c 1.26559,-1.68745 2.10934,-2.5312 2.53125,-2.53125 l 0,-0.21094 -0.63281,0 c -0.75004,5e-5 -1.59379,0.8438 -2.53125,2.53125 m 9.70312,-2.10937 0.42188,0 0,-0.42188 -0.42188,0.42188 m -14.55468,0.42187 c 0.2109,0.56255 0.42184,0.8438 0.63281,0.84375 l 0.63281,0 1.89844,-0.42187 0,-0.21094 -0.21094,0 -1.47656,0.21094 c -0.42191,-0.0937 -0.70316,-0.37495 -0.84375,-0.84375 l 0.21094,-0.21094 c -0.56253,0.21099 -0.84378,0.42193 -0.84375,0.63281 m -10.96875,-0.21093 0,0.21093 0.42187,0 0,-0.21093 -0.42187,0 m 1.05468,0 0,0.21093 1.05469,1.05469 c -0.32814,-0.8437 -0.60939,-1.26557 -0.84375,-1.26562 l -0.21094,0 m 17.50782,2.32031 0.21093,0.63281 0.63282,0 0.63281,-0.63281 -0.42188,0 -0.63281,-0.63281 c 0.23434,-0.98433 1.21871,-1.47652 2.95313,-1.47657 l 0,-0.21093 -0.84375,0 c -1.68754,0.37505 -2.53129,1.14848 -2.53125,2.32031 m 10.96875,-2.32031 -0.42188,1.47656 0,0.42187 0.63281,0 -0.42187,-0.63281 0,-0.21094 0.42187,-0.84375 0,-0.21093 -0.21093,0 m -41.97657,0 0.63282,0 0.42187,0.63281 0,0.21094 -1.05469,-0.63282 0,-0.21093 m 34.80469,0.21093 0,0.21094 0.63281,0 0,-0.21094 -0.63281,0 m -30.375,1.47657 0,0.84375 c -1e-5,0.23442 0.35155,0.44536 1.05469,0.63281 l 0.63281,-0.21094 c -1e-5,-0.2812 -0.28126,-0.42183 -0.84375,-0.42187 l -0.21094,-0.21094 0,-0.42188 c -1e-5,-0.74995 1.12499,-1.17182 3.375,-1.26562 l 0,-0.21094 -1.47656,0 c -1.19532,5e-5 -2.03907,0.42193 -2.53125,1.26563 m 4.64063,-1.05469 0,0.21094 0.42187,0 0,-0.21094 -0.42187,0 m 17.71875,1.05469 0.21093,0 0.21094,-0.21094 0.42188,0.42187 0.63281,-1.05468 0,-0.21094 c -0.98441,0.4688 -1.4766,0.82036 -1.47656,1.05469 m -16.875,2.10937 1.26562,1.6875 c 3.72654,-1.4062 6.96091,-2.10933 9.70313,-2.10937 8.97652,4e-5 14.81245,3.44535 17.50781,10.33593 l 0.21094,0.84375 0.42187,-0.42187 0,-0.63281 -1.6875,-8.01563 0,-0.84375 -1.6875,0.63281 -0.21094,0 c -5.90628,-2.39057 -10.61722,-3.58589 -14.13281,-3.58593 -2.13284,4e-5 -5.92971,0.70317 -11.39062,2.10937 m -14.76563,-0.42187 0.63281,0 0.42188,-0.42188 -0.63281,0 -0.42188,0.42188 m 6.96094,0 -0.21094,1.6875 c -1e-5,1.75785 0.84374,3.02348 2.53125,3.79687 l 0.42188,0.63281 -0.21094,0.21094 -0.42188,0 -0.63281,-0.42187 -0.84375,0 c -1e-5,0.70316 0.42187,1.40629 1.26563,2.10937 l 1.47656,0 1.05469,0.21094 0,0.42187 c -1.26564,0.21098 -1.89845,0.70317 -1.89844,1.47657 0.28124,0.63284 0.56249,0.98441 0.84375,1.05468 l 1.05469,-1.05468 c 0.79686,3e-5 1.35936,0.70316 1.6875,2.10937 l -0.21094,0.21094 0,0.42187 c 0.28123,4e-5 0.42186,-0.2109 0.42187,-0.63281 l 0.21094,-0.21094 0.21094,0 0,0.42188 c 0.23436,3e-5 0.51561,-0.56247 0.84375,-1.6875 0.56248,3e-5 0.84373,-0.56246 0.84375,-1.6875 l 0,-0.63281 c -2e-5,-0.49215 -0.35158,-1.19528 -1.05469,-2.10938 l 0,-0.21094 0.42188,-0.42187 c 0.84373,1.05473 1.2656,1.89848 1.26562,2.53125 l 0,0.84375 c -2e-5,1.00785 -0.14064,1.78128 -0.42187,2.32031 l 0.21093,0 0.42188,-1.6875 0.21094,0 0.21093,0.21094 0.21094,0 0,-2.10938 0.42188,0 0,0.42188 0.63281,-0.42188 0.21094,0.21094 c 0.46873,-3.07027 0.8906,-4.82808 1.26562,-5.27344 l 0,-0.21093 -0.21094,0 c -0.84377,4e-5 -1.26564,0.3516 -1.26562,1.05468 l -0.21094,0 -0.63281,-0.42187 c -0.42189,4e-5 -0.70314,0.9141 -0.84375,2.74219 l -0.21094,0 c -0.56252,-3.79683 -1.82814,-5.69527 -3.79687,-5.69532 l -1.6875,0 0.21093,0.21094 0,0.63281 -0.21093,0 c -1.64064,5e-5 -2.83595,-0.35151 -3.58594,-1.05468 m 38.17969,0.63281 0,0.21094 0.84375,0 0.42187,-0.42188 0,-0.42187 -1.26562,0.63281 m -43.03125,-0.42188 0,0.21094 -0.42188,0.42188 0,-0.21094 0.42188,-0.42188 m 21.09375,0.42188 0,0.21094 2.74218,0 0,-0.21094 -2.74218,0 m 3.16406,0 0,0.21094 1.47656,0 0,-0.21094 -1.47656,0 m -10.125,1.89844 0,0.21093 0.42187,0 c 3.28123,-1.12495 5.3906,-1.68745 6.32813,-1.6875 l 0,-0.21093 -0.63281,0 -6.11719,1.6875 m -12.02344,-1.26563 -0.42187,1.26563 1.6875,1.89843 0,0.21094 -0.42188,0.63281 0.21094,0 0.42187,-0.63281 0,-0.21094 c 0,-0.58589 -0.49219,-1.28902 -1.47656,-2.10937 l 0,-0.42188 c 0,-0.2812 0.28124,-0.42183 0.84375,-0.42187 l 0,-0.21094 -0.84375,0 m 27.84375,0.21094 0,0.21094 0.42188,0 0,-0.21094 -0.42188,0 m 13.92188,0 0,0.21094 0.63281,2.74218 -0.21094,1.6875 0.42188,0 0,-2.10937 -0.42188,-2.53125 -0.42187,0 m -45.5625,0.21094 c -0.70313,2.25004 -1.05469,4.07816 -1.05469,5.48437 l 0.84375,3.16406 -0.21094,0.21094 0.21094,0 0.21094,-0.21094 c 1.33593,1.52348 2.17968,2.29691 2.53125,2.32032 l 0,-0.42188 c -2.25001,-1.78121 -3.37501,-3.67965 -3.375,-5.69531 -1e-5,-0.91402 0.35156,-2.4609 1.05468,-4.64063 l 0,-0.21093 -0.21093,0 m 23.625,0 0,0.84375 -0.42188,0 -0.63281,-0.42188 -0.42188,0 c -2e-5,0.77348 0.63279,1.96879 1.89844,3.58594 l 0,1.05469 -0.21094,0 c -0.28127,4e-5 -0.63283,-0.70309 -1.05468,-2.10938 l -0.84375,-0.42187 0,0.63281 -0.21094,0 c -0.77346,-0.70308 -1.47659,-1.05465 -2.10938,-1.05469 -2e-5,1.03129 0.35154,1.94535 1.05469,2.74219 l 0,0.21094 -0.63281,0 c -2e-5,0.51566 0.98435,1.14847 2.95312,1.89843 l 0.42188,0.63282 -0.42188,0.42187 c -0.49221,-0.84371 -1.12502,-1.26559 -1.89843,-1.26562 l 0,0.21093 0.21093,1.05469 c -0.98439,4e-5 -1.47658,0.42191 -1.47656,1.26563 l 0,0.63281 1.05469,0.21094 -0.21094,-0.21094 0,-0.42188 0.42188,-0.42187 0.42187,0 c 1.54685,0.3516 2.32029,1.4766 2.32031,3.375 l 0.42188,0 0.42187,-0.42188 -1.26562,-2.74218 0.21094,-0.21094 0.21093,0 0.21094,0.21094 0,0.21093 0.21094,-0.21093 0.21094,0 0.63281,0.42187 0,-0.21094 -1.47656,-3.58593 0.21093,0 c 0.5156,4e-5 1.00779,0.9141 1.47657,2.74218 l 0.21093,0 0,-0.42187 -0.63281,-2.32031 0.21094,0 0.21094,0.21093 0.21093,0 0,-0.21093 -2.32031,-4.21875 0.21094,0 c 0.23435,4e-5 0.79685,0.84379 1.6875,2.53125 l 0.21094,0 0,-0.21094 -0.84375,-1.47656 0,-0.42188 0.21093,0 0.21094,0.21094 0.21094,0 0,-0.21094 c -0.28128,4e-5 -0.4219,-0.21089 -0.42188,-0.63281 l -0.21093,-0.21094 -0.21094,0 0.21094,-0.21094 0,-1.05468 -0.84375,0 m 8.64843,0 0,0.21093 0.42188,0 0,-0.21093 -0.42188,0 m -24.67968,0 c 1.64061,1.17192 3.53905,2.15629 5.69531,2.95312 l 0.42187,0.84375 -0.21093,0 c -3.02345,-1.03121 -4.9922,-2.22652 -5.90625,-3.58594 l 0,-0.21093 m 12.86718,0.21093 0,0.21094 1.05469,0.42188 0,-0.21094 -0.42187,-0.42188 -0.63282,0 m 8.4375,0 -1.47656,4.21875 0.21094,-0.21093 0.63281,0 0,2.32031 c 1.12497,-0.14059 1.68747,-0.63277 1.6875,-1.47656 0.42184,4e-5 0.63278,-0.63278 0.63281,-1.89844 l 0.63282,0.63281 -0.21094,0.21094 0,2.10937 0.42187,0.42188 0.42188,-0.42188 c 0.79684,1.12504 1.35934,1.68754 1.6875,1.6875 l 0,0.42188 0.21094,0 0.42187,-1.47656 0,-0.42188 -0.21094,-1.05469 0.21094,0 0.63281,0.21094 0,-0.42187 c -3e-5,-0.5859 -0.49222,-1.35934 -1.47656,-2.32032 l 0.42188,-0.42187 c -4e-5,0.60942 0.70308,1.1016 2.10937,1.47656 l 0.42188,0 0.63281,-0.63281 c -4e-5,-0.23433 -0.3516,-0.44527 -1.05469,-0.63281 l 0,0.21093 c -1.26566,-0.30464 -1.89847,-0.58589 -1.89844,-0.84375 l 0.42188,0 0.84375,0.21094 0.21094,0 0,-0.21094 c -0.51567,5e-5 -1.07817,-0.21089 -1.6875,-0.63281 l -0.42188,0 c -3e-5,0.28129 0.2109,0.42192 0.63281,0.42188 l -1.05468,0.84375 -0.21094,0 0.42187,-0.84375 -1.05468,-0.84375 -0.42188,0 0,0.21093 0.84375,2.95313 -0.21094,0 c -0.35159,4e-5 -0.84378,-1.12496 -1.47656,-3.375 l -0.21094,-0.21094 -0.21093,0 c -0.1641,1.26567 -0.37504,1.89848 -0.63282,1.89844 l -0.21093,-0.21094 0,-0.42187 0.21093,-1.47657 -0.84375,0 m 4.00782,0 0,0.21094 0.63281,0.21094 0.21094,0 0,-0.21094 -0.63282,-0.21094 -0.21093,0 m 9.49218,0 0,1.05469 1.26563,5.90625 0.21094,0 0,-0.42187 -1.26563,-6.53907 -0.21094,0 m -8.4375,0.42188 0,0.21094 0.63282,0.21093 0.21093,0 0,-0.21093 -0.63281,-0.21094 -0.21094,0 m -8.22656,1.6875 0.21094,2.95312 0.21094,0 c -3e-5,-2.5312 0.28122,-3.79683 0.84375,-3.79687 l 0.63281,0.21094 0,-0.84375 -1.05469,0 c -0.37503,4e-5 -0.65628,0.49223 -0.84375,1.47656 m 18.14063,-1.26563 0,0.21094 c 0.8437,0.0938 1.26557,0.51567 1.26562,1.26563 l 0.21094,0 0,-0.42188 c -5e-5,-0.42183 -0.42192,-0.77339 -1.26563,-1.05469 l -0.21093,0 m -14.34375,1.47657 0.21093,0 0,0.84375 -0.63281,2.32031 -0.21094,0 0,-0.63281 0.63282,-2.53125 m -11.60157,0.21093 0,0.42188 -0.21093,1.47656 -0.21094,0 -0.21094,-1.05469 c 0.21092,-0.56245 0.42186,-0.8437 0.63281,-0.84375 m 27.42188,0.21094 0,0.84375 0.21094,0 0,-0.84375 -0.21094,0 m -24.67969,0.21094 0.21094,0 c 1.42966,0.79691 2.34372,1.50004 2.74219,2.10937 l -0.21094,0 c -1.42971,-0.74996 -2.34377,-1.45308 -2.74219,-2.10937 m -19.19531,1.6875 0.21094,0 1.05468,-0.21094 0.42188,0.63281 0,0.84375 c -0.28126,0.56254 -0.70313,0.84379 -1.26563,0.84375 -1.125,-0.49215 -1.6875,-1.26558 -1.6875,-2.32031 l -0.21093,0 0,0.63281 c -1e-5,0.75004 0.49218,1.45317 1.47656,2.10938 l 1.26562,0 c 0.70312,-0.3984 1.05469,-0.9609 1.05469,-1.6875 0,-0.63277 -0.42188,-1.12496 -1.26562,-1.47656 -0.70313,0.18754 -1.0547,0.39847 -1.05469,0.63281 m 43.24219,-0.63281 0,0.21093 1.26562,1.05469 0,-0.21094 -1.26562,-1.05468 m -34.80469,0.21093 0.21094,0 2.32031,0.63282 0,0.21093 -2.53125,0.21094 0,-1.05469 m 22.57031,0 c 0.98434,0.70317 1.47653,1.33598 1.47656,1.89844 l 0,0.21094 -0.21093,0 -1.26563,-1.89844 0,-0.21094 m -26.15625,0.42188 c -2.57813,4.05472 -3.98438,7.78128 -4.21875,11.17969 l 0.84375,0 2.95313,0.84375 0,-0.21094 c -1e-5,-2.95309 0.91405,-6.11715 2.74218,-9.49219 -0.65626,-0.0703 -1.42969,-0.84371 -2.32031,-2.32031 m 31.64063,0.42187 -0.21094,1.05469 -1.05469,-0.21094 c -0.65629,4e-5 -1.21879,0.42192 -1.6875,1.26563 l 0,0.63281 0.21094,1.05469 0.42187,0 -0.21093,-1.05469 0,-0.21094 c 0.14058,-0.42183 0.56246,-0.63277 1.26562,-0.63281 l 0.42188,0 0.84375,0.84375 0,1.05469 c -0.84379,1.26566 -1.82817,1.89847 -2.95313,1.89844 l 0,0.21093 0.42188,0 c 1.96871,4e-5 3.30464,-0.91402 4.00781,-2.74218 l 0,-0.84375 c -0.35161,-1.3359 -0.77348,-2.10934 -1.26563,-2.32032 l -0.21093,0 m -11.8125,0.21094 0,1.6875 0.21093,0 0,-1.6875 -0.21093,0 m 19.82812,0.21094 0,0.42187 0.21094,0 0,-0.42187 -0.21094,0 m -1.26562,1.89844 0.21093,0.21093 0.21094,0 0.42188,-1.26562 0,-0.21094 c -0.23443,4e-5 -0.51568,0.42191 -0.84375,1.26563 m 1.47656,-1.05469 0,0.42187 0.21094,0 0,-0.42187 -0.21094,0 m -17.71875,2.32031 c 0.18747,0.70316 0.39841,1.05472 0.63281,1.05469 l 0.42188,0 -0.63282,-0.84375 c -3e-5,-0.37496 0.42185,-0.79684 1.26563,-1.26563 0.53903,4e-5 1.10153,0.42192 1.6875,1.26563 l 0,0.42187 c -0.30472,1.40629 -0.93753,2.10941 -1.89844,2.10938 l 0,0.21094 0.21094,0 c 1.54684,-0.56247 2.32028,-1.54684 2.32031,-2.95313 -0.37503,-1.12496 -1.00785,-1.68746 -1.89844,-1.6875 l -0.84375,0 c -0.84378,0.58598 -1.26565,1.14848 -1.26562,1.6875 m -2.10938,-1.47656 0,3.375 0.21094,0 0,-3.375 -0.21094,0 m 17.50782,0 0,0.84375 0.21093,0.21094 0,0.21093 -0.42187,1.05469 0.21094,0 0.42187,-0.63281 -0.21094,-1.6875 -0.21093,0 m -3.375,0.21094 0,0.42187 c 0.37495,1.12504 0.72652,1.68754 1.05468,1.6875 l -0.84375,-2.10937 -0.21093,0 m -29.32032,0 0.84375,0 c 0.84374,0.0938 1.26561,0.30472 1.26563,0.63281 l 0,0.42187 c -1.40627,-0.49215 -2.10939,-0.84371 -2.10938,-1.05468 m -2.95312,1.26562 c -1.26564,2.83597 -1.89845,5.50784 -1.89844,8.01563 l 0,0.42187 0.21094,0 c -1e-5,-2.92966 0.70311,-5.67184 2.10937,-8.22656 l -0.21093,-0.21094 -0.21094,0 m 8.22656,1.05469 0.63281,0 0,-0.42188 -0.21093,0 -0.42188,0.42188 m 8.64844,0 0,0.42187 0.21094,0 0,-0.42187 -0.21094,0 m 2.74219,2.95312 0,0.21094 c 1.87496,-0.3984 5.24996,-0.67965 10.125,-0.84375 l 5.0625,-2.10937 0,-0.21094 -0.21094,0 c -3.46879,1.68753 -8.0391,2.53128 -13.71094,2.53125 -3e-5,0.18753 -0.4219,0.32816 -1.26562,0.42187 m -0.42188,-2.74218 0.21094,0.21093 0,0.42188 c -3e-5,0.96097 -1.19534,1.73441 -3.58594,2.32031 l 0,0.21094 0.21094,0 1.47656,-0.42188 0.21094,0 0,0.21094 -4.00781,1.47656 -0.21094,0 0,-0.21093 2.10937,-0.84375 0,-0.21094 -0.21093,0 c -2.57815,0.70315 -5.46096,2.6719 -8.64844,5.90625 l 0.42187,1.89844 c 3.21092,-3.09373 6.23435,-4.6406 9.07032,-4.64063 1.49997,3e-5 2.62497,0.56253 3.375,1.6875 l 0,1.05469 0.21093,0 c 0.7031,-0.23435 1.05466,-0.58591 1.05469,-1.05469 l -0.63281,-1.26562 0.84375,-0.21094 -1.26563,-1.26563 -0.21093,0.21094 -2.74219,0 c -0.70315,3e-5 -1.05472,-0.14059 -1.05469,-0.42187 l -5.69531,2.10937 c 0.25779,-0.8906 2.99998,-1.94528 8.22656,-3.16406 l 0.42188,-0.63281 -0.42188,-0.42188 c 1.12497,-0.46872 1.68747,-1.17184 1.6875,-2.10937 -0.21097,-0.56247 -0.4219,-0.84372 -0.63281,-0.84375 l -0.21094,0 m -27.21094,0.21093 0,0.21094 0.21094,0.21094 0.21094,0 0,-0.21094 -0.21094,-0.21094 -0.21094,0 m 16.875,0 0,0.42188 0.84375,0 0,-0.42188 -0.84375,0 m 1.26563,0.84375 0,0.63282 1.05469,-0.84375 0.63281,0 c 0.37498,3e-5 0.65623,0.49222 0.84375,1.47656 -2e-5,0.89066 -1.33596,2.22659 -4.00781,4.00781 l -2.32032,2.74219 0.21094,0 c 0.84373,-1.31247 2.88279,-3.21091 6.11719,-5.69531 l 0.42187,-1.26563 0,-0.63281 c -0.56252,-0.84372 -1.19533,-1.26559 -1.89843,-1.26563 -0.63284,0.28129 -0.9844,0.56254 -1.05469,0.84375 m -3.375,0 0.42187,0 1.05469,-0.42187 0,-0.21094 -0.63281,0 c -0.56252,0.21097 -0.84377,0.42191 -0.84375,0.63281 m 29.53125,-0.21093 0,0.21093 1.26562,0 0,-0.21093 -1.26562,0 m -10.75781,0.21093 0,0.21094 0.84375,0 0,-0.21094 -0.84375,0 m 9.07031,0 0,0.21094 1.47656,1.26563 0,-0.21094 -1.47656,-1.26563 m 3.16406,0 0,0.21094 0.21094,0.21094 0.21094,0 0,-0.21094 -0.21094,-0.21094 -0.21094,0 m -37.96875,1.47657 1.89844,0 c 0.77342,3e-5 1.33592,-0.42185 1.6875,-1.26563 l -0.21094,0 c -0.44532,0.46878 -1.57032,0.82035 -3.375,1.05469 l 0,0.21094 m 8.4375,-1.26563 0,0.21094 0.42188,0 0,-0.21094 -0.42188,0 m -15.1875,0.21094 -0.21094,0.21094 0.42188,1.6875 0,0.42187 c -1e-5,0.77347 -0.35157,1.33597 -1.05469,1.6875 l -0.21094,0 -0.63281,-0.63281 0,-0.21094 0.42188,-1.6875 -0.21094,-0.63281 -0.21094,0 0,0.42187 0.21094,0 -0.63281,2.10938 c 0.28124,0.63284 0.56249,0.9844 0.84375,1.05469 l 0.63281,0 c 0.51562,3e-5 0.93749,-0.77341 1.26562,-2.32032 l -0.63281,-1.89843 0.21094,-0.21094 -0.21094,0 m 10.75781,1.05469 0,0.21093 0.21094,0 1.89844,-0.21093 0.21094,0 c 0.77342,3e-5 1.33592,0.35159 1.6875,1.05468 l 0,0.21094 c -2e-5,0.98441 -0.49221,1.47659 -1.47657,1.47656 l -0.21093,0 -0.21094,-0.21093 -0.21094,0 0,0.21093 0.84375,0.63282 1.47656,0 c 0.56248,-0.23435 0.84373,-0.72654 0.84375,-1.47657 l 0,-0.84375 0.63282,0 c -0.21096,-1.12496 -0.77346,-1.68746 -1.6875,-1.6875 l -1.26563,0 -2.74219,0.63282 m 28.26563,-0.63282 0,0.42188 c 0.70308,0.0469 1.05464,0.25784 1.05469,0.63281 L 199,169.86301 l 0.21094,0 0.21093,-0.21094 0,-0.42187 c -0.14067,-0.42185 -0.56254,-0.63278 -1.26562,-0.63282 m 4.64062,1.26563 0.21094,0 0.63281,-0.84375 -0.21093,0 -0.63282,0.84375 m -33.75,-0.42188 0,0.21094 0.63282,0 0,-0.21094 -0.63282,0 m 20.88282,0 0,0.21094 0.84375,0 0,-0.21094 -0.84375,0 m -21.9375,0.21094 0,0.21094 0.63281,0 0,-0.21094 -0.63281,0 m 24.04687,0 0,0.21094 0.42188,0 0,-0.21094 -0.42188,0 m 10.33594,0.21094 -0.21094,0.21094 0,0.21093 0.21094,0 0.21094,-0.21093 0,-0.21094 -0.21094,0 m -8.4375,0.21094 0,0.21093 0.42187,0 0,-0.21093 -0.42187,0 m 1.05469,0.21093 0,0.21094 0.42187,0 0,-0.21094 -0.42187,0 m 8.22656,0 0,0.21094 0.63281,0.63281 c -0.21098,-0.56247 -0.42192,-0.84371 -0.63281,-0.84375 m -17.92969,0.63282 0,0.21093 5.0625,0 c 2.4609,3e-5 5.41402,1.12503 8.85938,3.375 l 0.42187,0 c -3.44535,-2.67184 -7.24222,-4.00778 -11.39062,-4.00781 l -2.95313,0.42188 m 10.75781,-0.42188 0,0.21094 0.42188,0 0,-0.21094 -0.42188,0 m 4.00782,0 0,0.42188 0.21093,0 0,-0.42188 -0.21093,0 m -3.16407,0.21094 0,0.21094 0.84375,0 0,-0.21094 -0.84375,0 m 1.6875,0.21094 0,0.21093 0.42188,0 0,-0.21093 -0.42188,0 m 1.26563,0.21093 0,1.05469 0.21094,0 0,-1.05469 -0.21094,0 m -17.29688,0.42188 0,0.21094 0.63282,0 0,-0.21094 -0.63282,0 m 2.10938,0 0,0.21094 0.42187,0 0,-0.21094 -0.42187,0 m 12.44531,0.42187 0,0.21094 1.26563,0 0.21093,-0.21094 0,-0.21093 -1.47656,0.21093 m 5.0625,-0.21093 -0.63281,1.05468 c 0.2812,0.63284 0.56245,0.98441 0.84375,1.05469 l 0.21094,0 c 0.79682,3e-5 1.28901,-0.35153 1.47656,-1.05469 l -0.21094,0 c -0.0704,0.28128 -0.42192,0.56253 -1.05469,0.84375 -0.56254,-0.14059 -0.84379,-0.56247 -0.84375,-1.26562 l 0.42188,-0.63281 -0.21094,0 m -34.59375,0.21093 0,0.63282 c 1.40624,3e-5 2.10936,0.77346 2.10938,2.32031 l 0,0.63281 -1.6875,7.38281 -0.21094,1.47657 0,0.42187 0.21094,0 0,-0.63281 0.21093,0 0.21094,2.10937 0,0.42188 -0.21094,0 -0.42187,-0.42188 0,-1.26562 -0.21094,0 0,2.32031 0.84375,0.42188 c -1e-5,-2.41405 1.1953,-5.15623 3.58594,-8.22657 0.28123,3e-5 0.42186,-0.49216 0.42187,-1.47656 l 0,-1.47656 -0.21093,0 -1.05469,0.63281 -0.21094,0 0,-0.21094 0.84375,-2.74218 c -2e-5,-0.5156 -0.56251,-1.21873 -1.6875,-2.10938 l -0.21094,0.21094 -0.21093,0 -0.63282,-0.42188 -1.47656,0 m 20.46094,0 0.42187,0.63282 0,0.84375 -0.63281,0.84375 0.42188,0 c 0.56246,-0.1406 0.84371,-0.56248 0.84375,-1.26563 -0.28129,-0.63278 -0.56254,-0.98434 -0.84375,-1.05469 l -0.21094,0 m 1.47656,0 0,0.21094 1.05469,0.84375 0,-0.63281 -1.05469,-0.42188 m 4.21875,0.42188 0,0.21094 0.42188,0.63281 0,0.42187 -0.21094,0.21094 0,0.21094 0.63281,0 0,-0.84375 -0.84375,-0.84375 m -9.91406,0 1.89844,0 0,0.21094 -1.89844,0 0,-0.21094 m 7.38281,0.21094 0,0.21093 0.42188,0.42188 0.21093,-0.21094 0,-0.42187 -0.63281,0 m -24.67969,0.42187 0.42188,1.47656 -0.21094,0 -0.21094,-0.21093 -0.21093,0 0,0.42187 c 0.98436,0.96096 1.47655,1.7344 1.47656,2.32031 l -0.63281,0.42188 -0.42188,0 -2.32031,-2.74219 -1.05469,-0.63281 -0.21094,0 0,0.21094 c 0.79687,2e-5 1.85156,1.19533 3.16407,3.58593 l 1.26562,0.42188 c 0.74999,2e-5 1.24218,-0.91404 1.47656,-2.74219 l -0.21093,0 -0.21094,0.21094 -1.6875,-2.74219 -0.42188,0 m 23.20313,0.21094 -0.21094,0.21094 0,0.21093 0.63281,0 -0.42187,-0.42187 m 1.05469,0.21094 -0.21094,0.21093 0,0.21094 0.21094,0.21094 0.21093,0 0.21094,-0.21094 0,-0.21094 -0.21094,-0.21093 -0.21093,0 m -33.75,1.89843 0.21093,0 c 0.60938,-0.98434 1.45313,-1.47653 2.53125,-1.47656 l 0,-0.21094 -0.63281,0 c -1.40625,0.53909 -2.10938,1.10159 -2.10937,1.6875 m 4.64062,-1.6875 0,0.21094 0.63281,0 0,-0.21094 -0.63281,0 m 14.97656,12.44532 0,0.84375 c -2e-5,2.08595 0.42186,3.77344 1.26563,5.0625 l 0,-0.21094 c -0.56252,-2.06249 -0.91409,-3.96092 -1.05469,-5.69531 -2e-5,-2.06249 1.75779,-6.21092 5.27344,-12.44532 l -0.21094,0 c -3.51565,5.81253 -5.27346,9.96096 -5.27344,12.44532 m -14.13281,-12.23438 0,0.21094 0.42188,0 0,-0.21094 -0.42188,0 m 20.03906,1.6875 0,0.42188 0.42188,0 -0.21094,-1.05469 0.21094,-0.21094 0.42187,0 0.63282,0.63281 c -3e-5,0.86722 -1.19534,1.99222 -3.58594,3.375 l 0,0.21094 0.21094,0 4.00781,-2.95312 0,-0.84375 c -0.0703,-0.28123 -0.4219,-0.56248 -1.05469,-0.84375 -0.70315,0.0938 -1.05471,0.51565 -1.05469,1.26562 m -22.57031,-1.05469 0,0.21094 c 0,4.5469 1.40625,8.48439 4.21875,11.8125 l 2.53125,0.42188 0.21094,-1.47657 0,-0.63281 c -2.25001,-3.56248 -3.37501,-6.72654 -3.375,-9.49219 -1.17188,-0.56247 -2.29688,-0.84372 -3.375,-0.84375 l -0.21094,0 m 35.64844,0.84375 -5.90625,-0.21093 -0.21094,0.21093 0,0.21094 4.85156,1.26563 c 1.12496,0.56252 1.68746,1.47658 1.6875,2.74218 l 0,9.70313 c -4.96878,2.81251 -9.11722,4.21876 -12.44531,4.21875 -4.5469,1e-5 -8.90627,-1.61718 -13.07812,-4.85156 l 0,3.58593 c 4.87498,2.10939 9.16403,3.16407 12.86718,3.16407 3.11716,0 8.53122,-1.6875 16.24219,-5.0625 l 0,-11.60157 c -4e-5,-1.68747 1.12496,-2.74216 3.375,-3.16406 -5e-5,-0.23435 -0.42192,-0.44528 -1.26562,-0.63281 l -6.11719,0.42187 m -21.09375,2.32032 0.21094,0 c -2e-5,-0.46873 0.84373,-0.8906 2.53125,-1.26563 0.84372,0.18753 1.2656,0.6094 1.26562,1.26563 l 0.21094,0 0.42187,-0.42188 0,-0.42187 c -0.35158,-0.7031 -0.91408,-1.05467 -1.6875,-1.05469 -0.93752,2e-5 -1.92189,0.63284 -2.95312,1.89844 m 25.52344,1.47656 0,11.17969 c -1.89848,1.26563 -5.34379,2.74219 -10.33594,4.42968 -2.06253,0.70313 -4.80472,1.0547 -8.22656,1.05469 l 0,0.21094 3.16406,0 c 2.8359,0 8.10934,-1.75781 15.82031,-5.27344 l 0,-12.23437 c -4e-5,-1.17185 0.70308,-1.80467 2.10938,-1.89844 l 0.21093,-0.21094 c 0.42183,3e-5 0.63277,-0.1406 0.63282,-0.42187 l 0,-0.21094 -0.21094,0 c -1.87505,0.63284 -2.85942,1.33596 -2.95313,2.10937 l -0.21093,1.26563 m -35.85938,-3.16406 c 0.91405,4.92189 1.7578,7.38283 2.53125,7.38281 -1.17188,-1.92186 -1.94532,-4.38279 -2.32031,-7.38281 l -0.21094,0 m 25.10156,0 c -3e-5,0.32815 0.35153,0.53908 1.05469,0.63281 l 0.84375,0 0,-0.21094 -1.89844,-0.42187 m 2.10938,0.63281 0,0.21094 0.84375,0 0,-0.21094 -0.84375,0 m 1.47656,0.21094 0,0.21093 0.42188,0 0,-0.21093 -0.42188,0 m 11.60156,0 c -5e-5,1.59377 -0.70317,2.50783 -2.10937,2.74218 l -0.21094,0 0,0.21094 1.05469,0 c 0.98433,-1.17185 1.47651,-2.0156 1.47656,-2.53125 l 0,-0.42187 -0.21094,0 m -47.25,0.21093 0,0.21094 0.63282,0.42188 0,-0.21094 -0.63282,-0.42188 m 28.47657,0 0,0.21094 0.42187,0 0,-0.21094 -0.42187,0 m 7.80468,0 0,0.21094 0.42188,0 0,-0.21094 -0.42188,0 m -10.33593,0.63282 0,0.21093 0.21093,0 1.26563,-0.21093 1.26562,0.21093 0.21094,0 0,-0.21093 -1.89844,-0.42188 -1.05468,0.42188 m 3.16406,-0.42188 0,0.21094 c 0.42184,2e-5 0.63278,0.14065 0.63281,0.42187 l 0,0.21094 -0.21094,-0.21094 -0.42187,0 0,0.21094 c 0.84372,2e-5 1.40622,0.91409 1.6875,2.74219 l 0,0.21094 -0.42188,1.47656 0.42188,0 0,0.21094 c -3e-5,1.00783 0.14059,1.78126 0.42187,2.32031 l -0.21093,0.84375 c 2.53121,1e-5 3.79683,-0.70311 3.79687,-2.10938 0.56246,2e-5 0.84371,-0.49217 0.84375,-1.47656 l -0.21094,0 -0.21093,0.21094 -0.21094,0 -0.42188,-1.6875 0.84375,0.63281 0,-0.21094 c -1.12503,-1.03122 -1.68753,-1.80466 -1.6875,-2.32031 l 0.63282,0 c 0.7734,2e-5 1.54683,1.40627 2.32031,4.21875 -0.28129,1.26564 -0.70316,2.39064 -1.26563,3.375 1.40622,-0.49217 2.10934,-1.47654 2.10938,-2.95312 -4e-5,-2.99998 -1.96879,-5.03904 -5.90625,-6.11719 l 0,0.21094 c 1.12496,1.19533 1.68746,2.32033 1.6875,3.375 l 0,0.42187 -0.21094,0 c -0.28128,2e-5 -0.49222,-0.7031 -0.63281,-2.10937 l -1.89844,-2.10938 -0.21094,0 0.63282,0.84375 0,0.21094 -0.21094,0 -1.47656,-1.05469 -0.21094,0 m 15.82031,0 0,0.21094 c 0.2812,0.63283 0.56245,0.9844 0.84375,1.05469 l 0,-0.42188 c -0.21098,-0.56247 -0.42192,-0.84372 -0.63281,-0.84375 l -0.21094,0 m -29.95312,0.42188 0,0.21093 -0.21094,0.63282 -0.21094,0 0,-0.63282 0.21094,-0.21093 0.21094,0 m 5.69531,5.90625 0,0.84375 0.42187,0 0,0.21093 -0.63281,1.05469 0.21094,0 c 0.63279,-0.89061 1.8281,-1.59373 3.58594,-2.10937 l 0.63281,0 0,0.42187 c -2.6719,0.49221 -4.00784,1.26564 -4.00781,2.32031 l -0.42188,0.63282 0.21094,0 c 0.63279,-0.98436 1.33591,-1.47655 2.10937,-1.47657 l 0,0.21094 c -2e-5,0.21095 -0.49221,0.56252 -1.47656,1.05469 l -0.84375,1.6875 c 0.53904,-1.12499 2.08591,-1.68749 4.64063,-1.6875 l 1.47656,-0.21094 0,-0.21094 c -3e-5,-0.28123 -0.21097,-0.42186 -0.63281,-0.42187 l 0,-0.42188 0.84375,0 c 1.42965,2e-5 2.34372,-0.63279 2.74218,-1.89843 l -0.21093,0 c -0.39847,1e-5 -1.38285,-0.6328 -2.95313,-1.89844 l 0.42188,-0.42188 0,-0.21093 c -0.65628,2e-5 -1.92191,0.4922 -3.79688,1.47656 l -0.21094,0 0,-0.21094 1.05469,-0.63281 0.21094,0 0,-0.21094 -0.21094,0 -1.89844,0.84375 0,-0.21094 c -2e-5,-1.0781 1.61717,-2.2031 4.85157,-3.375 l 1.89843,0 c -3e-5,-0.35154 -0.70315,-0.56247 -2.10937,-0.63281 -2.46096,2e-5 -4.42971,1.82815 -5.90625,5.48438 m -18.5625,-5.27344 c -1e-5,0.46877 -0.21094,0.89065 -0.63281,1.26562 l 0.21093,0 0.63282,-0.63281 0.21093,0 -0.21093,-0.63281 -0.21094,0 m 12.44531,0.21094 0,0.42187 -0.84375,0.84375 0,-0.21094 0.84375,-1.05468 m 14.34375,0.21093 0,0.21094 0.42188,0 0,-0.21094 -0.42188,0 m -10.125,0.84375 0.21094,0.63282 0.21094,0 c -2e-5,-0.42186 0.1406,-0.63279 0.42187,-0.63282 l 0.42188,0 0,0.42188 0.21093,0 0,-0.21094 c -0.21096,-0.56248 -0.42189,-0.84373 -0.63281,-0.84375 l -0.21094,0 -0.63281,0.63281 m -18.77344,-0.21093 -0.21093,0.63281 0.21093,0 0.42188,-0.63281 -0.42188,0 m 24.89063,0.84375 0,0.21093 3.375,-0.42187 0.21094,0.21094 0,0.21093 -0.21094,1.05469 0.42187,0 0.42188,-0.42187 c -3e-5,-0.98436 -0.56253,-1.47654 -1.6875,-1.47657 l -0.21094,0 -2.32031,0.63282 m -13.28906,9.91406 -0.63282,0 c -1e-5,-0.70311 -0.14063,-1.05468 -0.42187,-1.05469 l -0.21094,0 c -1e-5,3.79689 1.05468,6.25782 3.16406,7.38281 l 0.21094,0 0,-0.21093 -0.21094,-0.21094 0,-0.21094 0.42188,-0.42187 0,-0.21094 c -0.98439,-1.40624 -1.47658,-3.02343 -1.47656,-4.85156 -2e-5,-3.67968 1.26561,-6.14061 3.79687,-7.38282 l 0.63281,0 0.63282,0.84375 0,0.63282 c -0.0938,0.42189 -0.65627,0.63283 -1.6875,0.63281 -0.84377,0.28127 -1.26565,0.77345 -1.26563,1.47656 l 0,0.21094 0.42188,0 0.21093,-1.05469 1.89844,0 c 0.89061,2e-5 1.45311,-0.56248 1.6875,-1.6875 0.42186,2e-5 0.63279,-0.21092 0.63281,-0.63281 -0.23439,-1.26561 -0.8672,-1.89842 -1.89843,-1.89844 l 0,-0.42187 c 0.56248,2e-5 0.84373,-0.21092 0.84375,-0.63282 l 0,-0.21093 -1.6875,-0.42188 c -3.04689,1.07815 -4.73439,4.52346 -5.0625,10.33594 m 34.80468,-10.125 c 0.42183,1.31252 0.63277,2.50783 0.63282,3.58594 l 0,1.47656 c -0.56255,4.21876 -1.33599,6.32813 -2.32032,6.32812 l -0.21093,-0.21093 -0.21094,0 -4.00781,3.58593 -1.89844,0.63282 -1.47656,-0.63282 0,0.21094 c 0.21089,0.70313 0.91402,1.05469 2.10937,1.05469 l 0.63281,-0.21094 0.21094,1.05469 c 1.49996,0 2.48433,-0.5625 2.95313,-1.6875 0.23433,-0.63281 0.6562,-1.12499 1.26562,-1.47656 l 0.42188,0 0,0.63281 c -0.98442,0.77344 -1.47661,1.47657 -1.47657,2.10937 l 0,1.26563 0.42188,0 0.63281,-0.42188 0.21094,0 c -5e-5,0.70313 0.70308,1.05469 2.10937,1.05469 0.63277,-0.28125 0.98433,-0.56249 1.05469,-0.84375 l -0.63281,-1.89844 -0.21094,0 0,0.21094 0.63281,1.6875 -0.21093,0.21094 -0.42188,0 c -0.42192,0 -0.77348,-0.63281 -1.05469,-1.89844 l 1.05469,-2.95312 0,-0.21094 -0.42187,-0.63281 c 0.8437,-3.14062 1.26557,-5.24999 1.26562,-6.32813 l 0,-1.89844 -0.63281,-3.79687 -0.42188,0 m -46.40625,0.21094 0,0.42187 0.42188,0 -0.42188,-0.42187 m 1.05469,0 0,0.21093 0.42188,0 0,-0.21093 -0.42188,0 m 44.71875,0.21093 0,0.84375 0.21094,0 0,-0.84375 -0.21094,0 m -44.92969,0.63282 0,0.42187 0.63282,0 0,-0.42187 -0.63282,0 m 14.55469,-0.21094 0.21094,0 0,0.42187 -0.21094,0 0,-0.42187 m -15.60937,0.42187 0,0.21094 0.42187,0 0,-0.21094 -0.42187,0 m 46.19531,0.21094 c -5e-5,2.25002 -0.63286,3.37502 -1.89844,3.375 l 0,0.42188 0.84375,0 c 0.8437,-0.51561 1.26558,-1.35936 1.26563,-2.53125 l 0,-1.26563 -0.21094,0 m -31.42969,0.42188 0.21094,0 0,0.42187 -0.21094,0 0,-0.42187 m 18.5625,0 0.21094,0.21093 0,0.84375 -0.42188,0.42188 -0.21093,-1.05469 0.42187,-0.42187 m -33.32812,2.95312 0,0.42188 c -1e-5,0.98439 0.56249,1.75782 1.6875,2.32031 l 0.42187,0 0,-0.21094 c -0.60938,2e-5 -1.17188,-0.42186 -1.6875,-1.26562 l 0.21094,-0.21094 0,-0.21094 -0.21094,0 -0.21094,0.21094 0,-0.84375 c 0,-0.77342 0.42188,-1.40623 1.26563,-1.89844 l 0.63281,0 c 1.125,0.0938 1.6875,0.58596 1.6875,1.47656 0,0.46877 -0.49219,0.82033 -1.47656,1.05469 l -0.42188,-0.42187 -0.21093,0 0,0.42187 1.47656,0.63281 c 0.70312,-0.74998 1.05468,-1.31248 1.05469,-1.6875 -0.18751,-1.2656 -0.82032,-1.89841 -1.89844,-1.89843 l -0.42188,0 c -1.07812,2e-5 -1.71094,0.70314 -1.89843,2.10937 m 14.55468,-2.32031 0,0.21094 -0.42187,0.42187 0,-0.21094 0.42187,-0.42187 m 8.01563,0 0,0.21094 -1.05469,1.47656 -0.21094,0 0,-0.63281 c 0.25779,-0.51561 0.67967,-0.86717 1.26563,-1.05469 m -8.85938,0.84375 0.21094,0 0,0.42187 -0.21094,0 0,-0.42187 m 12.44532,0.21094 2.10937,0 1.05469,0.21093 0,0.21094 -1.26563,0.21094 -2.32031,-0.21094 0.42188,-0.42187 m -12.65625,0.21093 0.21093,0 0,0.42188 -0.21093,0 0,-0.42188 m 0,0.42188 0,0.21094 -0.21094,0.63281 -0.21094,0 0,-0.63281 0.21094,-0.21094 0.21094,0 m 16.45312,0.63281 0,0.21094 0.63281,0 0,-0.63281 -0.21093,0 -0.42188,0.42187 m 4.21875,-0.42187 -0.63281,0.63281 -0.84375,0 c -4e-5,-0.28123 0.49215,-0.49217 1.47656,-0.63281 m 0.84375,0.84375 0,0.42187 0.42188,-0.42187 -0.42188,0 m 10.54688,1.47656 0.21093,0 c 0.42183,-0.14061 0.63277,-0.56249 0.63282,-1.26563 -0.23443,2e-5 -0.51568,0.42189 -0.84375,1.26563 m -16.03125,-1.05469 0,0.63281 0.21093,0 0.42188,-0.42187 0,-0.21094 -0.63281,0 m -1.89844,0.42188 0,0.42187 0.42187,0 0.42188,-0.42187 0,-0.21094 -0.21094,0 -0.63281,0.21094 m 7.59375,1.05468 -0.84375,0 -2.95313,-0.63281 -0.84375,0.21094 0,0.21094 0.21094,0.21093 0,0.21094 -2.10937,0.63281 c -0.70316,0.75002 -1.05472,1.31252 -1.05469,1.6875 l 0.21094,-0.21093 0.21093,0 c 1.54685,0.37501 2.32028,0.72657 2.32032,1.05468 -4e-5,0.28126 0.35153,0.42189 1.05468,0.42188 l 1.6875,0 c 0.77341,1e-5 1.33591,-0.28124 1.6875,-0.84375 l -0.42187,0 1.6875,-1.05469 0,-0.21094 c -0.7266,0.42189 -1.42972,0.63283 -2.10938,0.63282 l -0.42187,0 -1.05469,-0.21094 0.42188,-0.42188 1.47656,0.21094 c 0.82027,1e-5 1.80465,-0.6328 2.95312,-1.89844 l 0,-0.21093 c -0.58597,0.56251 -1.14847,0.84376 -1.6875,0.84375 l -0.21093,0 2.10937,-1.6875 0,-0.21094 c -0.9141,0.84376 -1.68754,1.26564 -2.32031,1.26562 m -1.26563,-1.05468 0,0.21093 0.42188,0 0,-0.21093 -0.42188,0 m 10.54688,0 0,0.42187 0.42187,0 0,-0.42187 -0.42187,0 m -21.09375,0 1.47656,0 0.42188,0.42187 -1.47657,0 -0.42187,-0.42187 m -7.38281,1.89843 0,0.42188 c 0.28123,0.56251 0.63279,0.84376 1.05468,0.84375 l 0.21094,0 0,-0.21094 c -0.56252,1e-5 -0.84377,-0.21092 -0.84375,-0.63281 l 0,-0.63281 0.84375,-0.84375 0.84375,0 c 0.56248,0.28126 0.84373,0.63282 0.84375,1.05468 l 0.21094,0 0,-0.21093 c -0.21096,-0.84374 -0.70315,-1.26561 -1.47656,-1.26563 l -0.21094,0 c -0.98439,2e-5 -1.47658,0.4922 -1.47656,1.47656 m 12.65625,-0.84375 0.42187,0 0,-0.42187 -0.42187,0.42187 m -2.10938,-0.21093 0,0.42187 0.42188,0 0.42187,-0.42187 -0.84375,0 m -25.94531,6.32812 0.21094,0 c -1e-5,-2.92967 1.96874,-4.82811 5.90625,-5.69531 l 1.47656,0 c 0.72655,1e-5 1.71092,0.35157 2.95312,1.05469 l 0,-0.42188 c -1.82813,-0.70311 -3.09376,-1.05467 -3.79687,-1.05469 -2.97657,2e-5 -5.22657,1.54689 -6.75,4.64063 l 0,1.47656 m 43.66406,-5.69531 0.42188,0.42187 0.42187,-0.42187 -0.42187,-0.42188 -0.42188,0.42188 m -40.71094,-0.21094 0,0.21094 0.42188,0 0,-0.21094 -0.42188,0 m -1.26562,0.21094 0,0.21094 1.05469,0 0,-0.21094 -1.05469,0 m 25.10156,0.42187 0.42188,0 0,-0.42187 -0.42188,0.42187 m 18.35156,-0.42187 -0.21093,0.21094 0,0.21093 0.21093,0.21094 0.21094,0 0.21094,-0.21094 0,-0.21093 -0.21094,-0.21094 -0.21094,0 m -45.14062,0.21094 0,0.42187 0.42187,0 0,-0.42187 -0.42187,0 m 1.05469,0.63281 0,0.21094 0.63281,0 0,-0.21094 -0.63281,0 m 6.96093,0 0,0.21094 1.05469,1.05468 0,-1.05468 -1.05469,-0.21094 m 21.72657,-0.21094 c 1.12496,0.28126 1.68746,0.56251 1.6875,0.84375 l -1.47657,-0.21094 -2.10937,0.21094 -0.21094,0 0,-0.21094 2.10938,-0.63281 m -30.375,0.42188 0,0.21093 0.42187,0 0,-0.21093 -0.42187,0 m 6.11718,0 -0.42187,0.84375 0.21094,0.63281 0.63281,0 0,-0.42188 -0.42188,0 0,-0.63281 0.21094,-0.21094 0,-0.21093 -0.21094,0 m -3.58593,1.89843 0.21093,0 c 0,-0.28123 0.49219,-0.84373 1.47657,-1.6875 -0.46876,2e-5 -1.03126,0.56252 -1.6875,1.6875 m 22.14843,-1.6875 -1.26562,1.6875 0,0.42188 -0.21094,0 -0.63281,-0.42188 -0.42188,0.63282 0,0.84375 c -2e-5,0.32813 0.56248,0.53907 1.6875,0.63281 l 0.42188,-1.47656 0.42187,0 -0.21093,1.47656 1.05468,0.21094 0.21094,0 c 0.37497,1e-5 0.65622,-0.49218 0.84375,-1.47657 l -0.21094,0 -0.63281,-0.21093 0.21094,-0.21094 0,-0.21094 c -0.28128,-1.26561 -0.63284,-1.89842 -1.05469,-1.89844 l -0.21094,0 m -23.83593,0.42188 -0.21094,0.21094 0,0.21093 0.63281,0 -0.42187,-0.42187 m 24.25781,0.21094 0,0.63281 -0.42188,0.42187 0,-0.63281 0.42188,-0.42187 m -20.25,2.95312 0.42187,1.89844 c 0,0.93751 -0.91406,1.5 -2.74218,1.6875 l -1.47657,-0.84375 0,0.21094 c 0.28125,0.84375 0.84375,1.26563 1.6875,1.26562 l 1.47657,0 0,0.42188 -1.26563,0 0,0.21093 1.05469,0.21094 c 1.68749,-0.42187 2.53124,-1.12499 2.53125,-2.10937 l 0.42187,0 0,0.84375 c -0.60938,0.84375 -1.17188,1.26563 -1.6875,1.26562 l 0,0.21094 0.42188,0 0.42187,-0.42188 0.21094,0 0,0.42188 c 0.70312,0 1.96874,-0.77343 3.79688,-2.32031 l 0.21093,0 -0.21093,-0.63282 -1.47657,0 0.21094,-1.05468 0,-1.05469 -0.21094,0 0,1.05469 c -0.32813,0 -0.53907,-0.5625 -0.63281,-1.6875 l 0.63281,0.42187 c -0.56251,-0.91405 -0.84376,-1.7578 -0.84375,-2.53125 -1.125,0.84376 -1.6875,1.68751 -1.6875,2.53125 l -1.26562,0 m 6.11719,-2.10937 0.21093,0 0.42188,2.32031 c -0.42189,1e-5 -0.63283,-0.70312 -0.63281,-2.10938 l 0,-0.21093 m -8.64844,0.42187 0,0.42188 0.21094,0 0,-0.42188 -0.21094,0 m -0.21094,0.63281 0,0.84375 c 0.32812,0.84376 0.60937,1.26564 0.84375,1.26563 l 0.63281,0 c 0.32812,1e-5 0.53906,-0.35156 0.63282,-1.05469 l 0,-0.21094 -0.21094,0 c -1e-5,0.56251 -0.21094,0.84376 -0.63281,0.84375 -0.70313,-0.35155 -1.0547,-0.91405 -1.05469,-1.6875 l -0.21094,0 m -2.32031,1.47657 0,1.05468 0.21094,0 0,-1.05468 -0.21094,0 m 44.50781,-0.21094 0.42188,0 0.84375,0.84375 -0.42188,0 -0.84375,-0.84375 m -36.91406,0.42187 0,0.84375 -0.21094,1.05469 -0.21094,0 0,-1.47656 0.42188,-0.42188 m -6.53906,0.42188 0,0.42187 0.21093,0 0,-0.42187 -0.21093,0 m 45.77343,1.47656 0.21094,0 1.05469,-0.42187 -0.42188,-0.42188 -0.21093,0 -0.63282,0.84375 m -4.21875,-0.21094 0,0.21094 c -0.23441,0.70313 -0.7266,1.05469 -1.47656,1.05469 l 1.47656,-1.26563 m -28.26562,2.53125 c -1.0547,-0.56249 -1.96876,-0.84374 -2.74219,-0.84375 l -1.05469,0.21094 0,0.21094 c 0.89062,0 2.08593,0.42188 3.58594,1.26562 1.54686,-0.23437 2.3203,-0.58593 2.32031,-1.05468 l -0.63281,-1.6875 0.21094,-0.21094 -0.63281,0 c -0.2344,1e-5 -0.58596,0.70313 -1.05469,2.10937 m 18.98437,-0.84375 -0.63281,-0.21093 0,0.42187 c 0.23434,0.56251 0.72653,0.84376 1.47656,0.84375 l 2.32032,0 0,-0.21094 c -1.26567,1e-5 -1.96879,-0.28124 -2.10938,-0.84375 l 0,-0.84375 1.05469,-0.21093 0.42187,0.84375 0.42188,0 0.21094,-0.63282 -0.63282,-0.42187 -0.21093,0 c -1.14848,1e-5 -1.92191,0.42188 -2.32032,1.26562 m -32.90625,-1.05468 0,0.21093 0.63282,1.6875 -0.21094,1.05469 0.21094,0 0.63281,-0.21094 0,-1.05468 -1.26563,-1.6875 m 45.14063,0 0.21094,2.10937 c -0.42193,-0.14062 -0.63286,-0.56249 -0.63282,-1.26562 l 0,-0.42188 0.42188,-0.42187 m -27.63281,1.26562 0,0.63281 c 0.0703,0.28126 0.42185,0.56251 1.05468,0.84375 l 0,-0.21093 -0.21093,-0.63282 c -2e-5,-0.49218 0.56248,-0.84374 1.6875,-1.05468 l 6.11718,1.89843 0.21094,0 0,-0.21093 c -3.86721,-1.40625 -6.25783,-2.10937 -7.17187,-2.10938 l -0.21094,0 c -0.75002,1e-5 -1.24221,0.28126 -1.47656,0.84375 m -2.53125,-0.63281 0.21093,0 0.21094,0.84375 -0.63281,0.42187 -0.21094,0 0.42188,-1.26562 m 14.76562,0.63281 c -3e-5,0.23438 0.42184,0.51563 1.26563,0.84375 l 0.42187,0 0,-0.21094 c -0.56253,1e-5 -0.84378,-0.35155 -0.84375,-1.05468 l -0.42187,0 -0.42188,0.42187 m -21.51562,-0.42187 -0.84375,0.84375 -0.42188,0 c 0.28124,-0.5625 0.70312,-0.84375 1.26563,-0.84375 m 16.24218,0.21093 0,0.21094 2.53125,1.05469 0.21094,0 0,-0.21094 -1.89844,-1.05469 -0.84375,0 m 1.6875,0 0,0.21094 3.375,1.47656 0.21094,0 0,-0.21093 -3.16406,-1.47657 -0.42188,0 m 14.97657,1.47657 0,0.42187 0.63281,0 -0.21094,-0.21094 0.84375,-1.26562 -0.21094,0 -1.05468,1.05469 m -8.22657,0.21093 -1.26562,-0.21093 -0.21094,0 0,0.21093 3.58594,0.42188 4.42969,-0.84375 0,-0.21094 -0.42188,0 0,-0.21094 c -2.36722,0.56251 -4.40629,0.84376 -6.11719,0.84375 m -17.71875,0.21094 0,0.21094 0.63282,0 0,-0.21094 -0.63282,0"
         id="path4154"
         style="font-size:72px;font-variant:normal;font-stretch:normal;font-family:Goudy Initials;-inkscape-font-specification:Goudy Initials" />
    </g>
  </g>
</svg>
