<?xml version="1.0" encoding="UTF-8" standalone="no"?>
<!-- Created with Inkscape (http://www.inkscape.org/) -->

<svg
   xmlns:dc="http://purl.org/dc/elements/1.1/"
   xmlns:cc="http://creativecommons.org/ns#"
   xmlns:rdf="http://www.w3.org/1999/02/22-rdf-syntax-ns#"
   xmlns:svg="http://www.w3.org/2000/svg"
   xmlns="http://www.w3.org/2000/svg"
   xmlns:sodipodi="http://sodipodi.sourceforge.net/DTD/sodipodi-0.dtd"
   xmlns:inkscape="http://www.inkscape.org/namespaces/inkscape"
   width="56.734375"
   height="56.734375"
   id="svg2"
   version="1.1"
   inkscape:version="0.48.5 r10040"
   sodipodi:docname="i.svg">
  <defs
     id="defs4" />
  <sodipodi:namedview
     id="base"
     pagecolor="#ffffff"
     bordercolor="#666666"
     borderopacity="1.0"
     inkscape:pageopacity="0"
     inkscape:pageshadow="2"
     inkscape:zoom="3.959798"
     inkscape:cx="43.996764"
     inkscape:cy="-4.4843295"
     inkscape:document-units="px"
     inkscape:current-layer="layer1"
     showgrid="false"
     fit-margin-top="2"
     fit-margin-left="2"
     fit-margin-right="2"
     fit-margin-bottom="2"
     inkscape:window-width="1366"
     inkscape:window-height="733"
     inkscape:window-x="0"
     inkscape:window-y="0"
     inkscape:window-maximized="1"
     showborder="true"
     borderlayer="false" />
  <metadata
     id="metadata7">
    <rdf:RDF>
      <cc:Work
         rdf:about="">
        <dc:format>image/svg+xml</dc:format>
        <dc:type
           rdf:resource="http://purl.org/dc/dcmitype/StillImage" />
        <dc:title></dc:title>
      </cc:Work>
    </rdf:RDF>
  </metadata>
  <g
     inkscape:label="Layer 1"
     inkscape:groupmode="layer"
     id="layer1"
     transform="translate(-152.28125,-146.34738)">
    <g
       style="font-size:40px;font-style:normal;font-weight:normal;line-height:125%;letter-spacing:0px;word-spacing:0px;fill:#ffffff;fill-opacity:1;stroke:none;font-family:Sans"
       id="flowRoot2985">
      <path
         d="m 154.28125,148.34738 52.73437,0 0,52.73438 -52.73437,0 0,-52.73438 m 1.05469,1.05469 0,50.625 50.625,0 0,-50.625 -50.625,0 m 0.42187,0.63281 49.57031,0 0,49.57032 -49.57031,0 0,-49.57032 m 2.32031,0.63282 0,1.05468 c 0.28125,0.56255 0.70313,0.8438 1.26563,0.84375 l 1.89844,-0.63281 0,0.21094 -0.42188,0.63281 1.26563,0.21094 c 1.68749,-1.10151 3.4453,-1.73433 5.27343,-1.89844 1.49999,5e-5 3.39843,0.35161 5.69532,1.05469 l 0.21093,-0.21094 0,-0.42187 c -2.15626,-0.70308 -4.6172,-1.05464 -7.38281,-1.05469 -1.31251,5e-5 -3.28126,0.42192 -5.90625,1.26562 l -1.47656,0 0,-0.21093 0.42187,0 c 0,-0.2812 0.35156,-0.42183 1.05469,-0.42188 l 0.21094,-0.21094 0,-0.42187 -1.05469,0 -1.05469,0.21094 m 20.03907,0.42187 0,0.42188 0.21093,1.05468 0.42188,0 0,-0.21093 -0.21094,-0.84375 c -2e-5,-0.56245 0.42185,-0.8437 1.26563,-0.84375 l 0,-0.21094 -0.84375,0 c -0.56253,0.21099 -0.84378,0.42192 -0.84375,0.63281 m 2.95312,2.74219 0.42188,0 c -3e-5,-1.4062 0.91403,-2.32026 2.74218,-2.74219 0.84372,0.0938 1.2656,0.30474 1.26563,0.63281 l 0,0.42188 c -1.26565,1.05473 -1.89847,1.75786 -1.89844,2.10937 l 0.63281,0 c -2e-5,-0.2812 0.63279,-0.98432 1.89844,-2.10937 l 0,-0.63281 -1.05469,-0.84375 c -1.94534,5e-5 -3.28127,0.98442 -4.00781,2.95312 l 0,0.21094 m 6.53906,-3.16406 0,0.21093 0.21094,0.63282 c -0.65628,0.4688 -1.28909,1.24223 -1.89844,2.32031 l 0.21094,0 c 1.54684,-1.54683 2.32028,-2.5312 2.32031,-2.95313 l -0.21093,-0.21093 -0.63282,0 m -2.53125,5.90625 0.21094,0.21093 0.21094,0 c -3e-5,-1.24214 1.61715,-2.85932 4.85156,-4.85156 l 4.00781,-0.84375 c 1.61715,5e-5 2.88277,0.2813 3.79688,0.84375 l 0.42187,-0.63281 0,-0.21094 -2.10937,-0.42187 -2.95313,0 c -3.14066,5e-5 -5.74222,1.54692 -7.80468,4.64062 l -0.63282,1.26563 m 17.50782,-4.85157 -1.89844,-0.21093 c -0.70317,0.42192 -1.05473,0.91411 -1.05469,1.47656 l 1.47656,0 1.26563,1.05469 0,0.63281 -0.42188,0.63281 0.63282,1.05469 -0.21094,1.26562 0,0.42188 -0.84375,0.21094 -0.21094,-0.21094 0,-0.21094 0.42188,-1.26562 0,-0.21094 -0.42188,-0.42188 -0.63281,0 -0.21094,0.21094 0.42188,0 0.21093,0.63281 -0.21093,1.05469 0,0.63281 0.63281,0.63282 c 1.12495,4e-5 1.68745,-0.70309 1.6875,-2.10938 l -0.42188,-1.47656 0.63282,0 0,-0.21094 c -0.14068,-0.60933 -0.8438,-1.45308 -2.10938,-2.53125 l 0.21094,-0.21094 0.21094,0 1.6875,0.42188 0.21093,0 0.42188,-0.42188 -0.42188,-0.42187 0,-0.21094 0.84375,-0.21094 0,-1.05468 -0.21093,0 c -0.44536,0.58598 -1.00786,0.93755 -1.6875,1.05468 m -29.32032,1.26563 0.21094,0 c 1.42967,-1.26558 2.83592,-1.89839 4.21875,-1.89844 l 0,-0.21094 -0.84375,0 c -1.80471,5e-5 -3.00002,0.70318 -3.58594,2.10938 m 6.11719,-1.89844 c -2e-5,0.25786 0.63279,0.53911 1.89844,0.84375 l 0.21094,0 0,-0.21094 -2.10938,-0.63281 m 19.19531,1.47656 0.21094,0.21094 0.21094,0 0.63281,-1.26562 0,-0.21094 -0.21094,0 c -0.56254,0.2813 -0.84379,0.70317 -0.84375,1.26562 m -6.75,-0.84375 0,0.21094 c 1.68747,5e-5 2.53121,0.2813 2.53125,0.84375 l -0.21093,0.21094 0,0.21094 0.63281,0 0.42187,-0.42188 0,-0.84375 -1.6875,-0.42187 -1.6875,0.21093 m -14.34375,0.42188 0,0.84375 0.63282,0.63281 0.63281,0 c 1.12497,-0.14058 1.68747,-0.63276 1.6875,-1.47656 l -0.21094,0 c -0.53909,0.70317 -1.10158,1.05473 -1.6875,1.05469 l -0.21094,0 c -0.37502,4e-5 -0.58596,-0.35152 -0.63281,-1.05469 l -0.21094,0 m -2.74218,0.84375 c 0.98435,0.42192 2.32029,1.4063 4.00781,2.95312 l 0.42187,0 0,-0.21093 c -1.66408,-1.68746 -2.9297,-2.74214 -3.79687,-3.16407 l -0.21094,0 -0.42187,0.42188 m 7.59375,-0.21094 0,0.21094 0.21093,1.26562 -0.84375,0.42188 c -0.9844,-0.18745 -1.47658,-0.4687 -1.47656,-0.84375 l -0.63281,0.21094 c -3e-5,0.37504 0.56247,0.65629 1.6875,0.84375 l 0.84375,0 c 0.28122,-0.0703 0.56247,-0.42183 0.84375,-1.05469 -0.18753,-0.70308 -0.39847,-1.05464 -0.63281,-1.05469 m -24.46875,0.63281 0,0.21094 c -1e-5,0.32817 1.12499,0.67974 3.375,1.05469 1.12499,0.86723 1.68749,2.34379 1.6875,4.42969 l 0,10.125 c 0.56249,-0.28122 1.7578,-0.49216 3.58593,-0.63282 l -0.21093,-3.58593 0,-6.75 c -1e-5,-2.53121 1.05467,-3.79683 3.16406,-3.79688 0.84373,-0.18745 1.26561,-0.39839 1.26562,-0.63281 l -0.84375,-0.42188 -6.96093,0.21094 -5.0625,-0.21094 m 36.70312,0.42188 -5.69531,-0.21094 -0.21094,0.21094 0,0.21094 c 3.51559,0.58598 5.2734,2.13285 5.27344,4.64062 l 0,7.38281 c -4e-5,3.79691 -0.28129,5.69535 -0.84375,5.69532 l -5.48438,0 0,1.89843 6.11719,0 0,11.39063 1.47656,0 c 0.70309,2e-5 1.3359,0.35158 1.89844,1.05469 l -0.21094,0.21093 0.21094,0.21094 0,0.21094 -0.21094,0.63281 0.21094,1.26563 c -0.28129,0.77345 -0.70316,1.26563 -1.26562,1.47656 l -1.26563,0 -0.63281,-0.63281 c 0.42183,1e-5 0.84371,-0.28124 1.26562,-0.84375 l -0.42187,-1.05469 -0.21094,0.21094 -0.21094,0 -0.63281,-0.21094 0,1.89844 -0.21094,2.10937 -0.21093,-0.21094 -0.21094,0 0.21094,0.21094 0,0.42188 -0.21094,-0.21094 -0.21094,0 0,0.21094 0.21094,0.21093 c -0.79691,1.14845 -2.34379,1.9922 -4.64063,2.53125 l 0,0.21094 1.05469,0.42188 5.48438,-0.21094 1.05468,0 0.84375,-0.21094 0.84375,0.21094 2.53125,0 0.21094,0.21094 0.21094,-0.21094 2.10937,0 0,-0.21094 c -4e-5,-0.23437 -0.98442,-0.58593 -2.95312,-1.05469 -1.68754,-1.12499 -2.53129,-2.67186 -2.53125,-4.64062 l 0,-25.3125 c -4e-5,-5.76558 0.42183,-8.64839 1.26562,-8.64844 l 2.95313,-1.47656 -1.26563,-0.42188 -5.69531,0.42188 m -22.99219,1.89844 0.42188,0 0.21094,-0.21094 0.21093,0 c -1e-5,0.84379 0.14061,1.26567 0.42188,1.26562 l 0.63281,0 -0.42187,-0.63281 0,-0.21094 c 0.1406,-1.12495 0.7031,-1.68745 1.6875,-1.6875 1.03123,0.0469 2.15622,0.67974 3.375,1.89844 l 0,-0.21094 c -1.50002,-1.54682 -2.90627,-2.32026 -4.21875,-2.32031 -1.1719,5e-5 -1.94533,0.70317 -2.32032,2.10938 m 31.64063,-1.6875 0.63281,0.63281 0.63281,0 0,-0.63281 -0.21093,0 -0.21094,0.21093 -0.21094,0 -0.63281,-0.21093 m -36.49219,3.375 0.21094,3.16406 0,6.11719 -0.21094,0.21093 0.21094,1.89844 0.21094,0 0,-11.17969 c -2e-5,-1.68745 0.91405,-2.5312 2.74218,-2.53125 -1e-5,-0.2812 0.35155,-0.42182 1.05469,-0.42187 l 0,-0.42188 c -2.67189,0.49224 -4.00782,1.4063 -4.00781,2.74219 l 0,0.42188 -0.21094,0 m 31.21875,32.48437 c -4e-5,1.10157 0.35152,1.94532 1.05469,2.53125 l 0,-0.21094 -0.84375,-2.32031 0,-13.28906 0.21094,-14.55469 -0.21094,-2.74219 c -4e-5,-2.81245 0.84371,-4.2187 2.53125,-4.21875 l 1.26562,-0.84375 -0.21093,0 c -2.5313,0.86724 -3.79692,2.06255 -3.79688,3.58594 l 0,32.0625 m -39.65625,-35.4375 c 0,0.32817 0.84375,0.60942 2.53125,0.84375 l 0.84375,0.63281 0,-0.21093 c 0,-0.46871 -1.125,-0.89058 -3.375,-1.26563 m 24.04688,1.05469 0.21093,0 c 1.54685,-0.32808 2.32029,-0.60933 2.32032,-0.84375 l -0.42188,0 c -1.40628,0.16411 -2.1094,0.44536 -2.10937,0.84375 m 6.75,-0.84375 c -4e-5,0.30473 0.70309,0.58598 2.10937,0.84375 l 0.42188,0 0,-0.21094 -2.53125,-0.63281 m -32.69532,0.21094 0,0.42187 0.63282,0.42188 0.21093,0 0.63282,-0.63282 -1.05469,0.21094 -0.21094,0 0,-0.42187 -0.21094,0 m 30.79688,0 0,0.21093 1.47656,1.26563 0,0.63281 c -0.23441,0.56255 -0.72659,0.8438 -1.47656,0.84375 l -0.63281,0 c -1.12503,5e-5 -1.96878,-0.70308 -2.53125,-2.10937 l -0.42188,0 0,0.21093 c 0.60935,1.4063 1.4531,2.10942 2.53125,2.10938 l 1.47656,0 c 0.77341,4e-5 1.33591,-0.35152 1.6875,-1.05469 -0.2344,-1.4062 -0.93753,-2.10933 -2.10937,-2.10937 m -13.28906,0.21093 0,0.42188 c 0.86716,0.98442 1.92185,1.47661 3.16406,1.47656 l 0.84375,0 c 1.8281,-0.2812 2.74216,-0.63277 2.74219,-1.05469 l -0.21094,0 c -0.72659,0.42192 -1.42971,0.63286 -2.10938,0.63282 l -1.6875,0 c -0.6797,4e-5 -1.52345,-0.49215 -2.53125,-1.47657 l -0.21093,0 m -15.60938,0.63282 -0.21094,1.6875 0.21094,1.26562 0.21094,0 0,-0.42187 0.21094,0 c 0.28124,4e-5 0.42187,0.28129 0.42187,0.84375 0.58593,0.56254 1.14843,0.84379 1.6875,0.84375 l 0.42188,0 0.63281,-0.63282 c -1.17188,5e-5 -1.87501,-0.56245 -2.10938,-1.6875 l 0.21094,-0.21093 0,-1.6875 -1.6875,-0.21094 0,0.21094 m 22.78125,-0.21094 c 2.24997,4.07817 3.37497,6.75004 3.375,8.01562 l 0.21094,0 0,-0.63281 c -3e-5,-0.5859 -0.9844,-3.04683 -2.95313,-7.38281 l -0.63281,0 m 8.64844,0.63281 0,0.42188 c 0.56246,0.0703 0.84371,0.28129 0.84375,0.63281 l -0.42188,1.26562 0,0.21094 0.21094,0 0.63281,-2.32031 -0.63281,-0.42188 -0.63281,0.21094 m 13.92187,0 0,4.64063 c -0.37504,0.93754 -1.35942,1.64066 -2.95312,2.10937 l -1.26563,0 0,0.84375 c -4e-5,0.28129 0.28121,0.42191 0.84375,0.42188 l -0.42187,0.84375 0.63281,0 c 0.84371,3e-5 1.68745,-0.63278 2.53125,-1.89844 l -0.21094,-0.21094 0,-0.21094 0.21094,0 0.63281,0.21094 c -4e-5,1.12504 -1.19536,2.46098 -3.58593,4.00781 l -0.63282,0.63282 0,0.21093 1.47657,-1.05468 0.21093,0 -1.47656,1.6875 -0.21094,0 0,-0.42188 -0.21093,0 -0.21094,1.05469 0,0.21094 1.26562,-0.42188 L 199,171.12863 c 0.2812,0.63285 0.42183,1.54691 0.42187,2.74219 l 0.21094,0 c -4e-5,-0.42185 0.14058,-0.63278 0.42188,-0.63281 0.30464,0.86721 0.72651,1.3594 1.26562,1.47656 1.82808,-0.21091 2.74214,-1.12497 2.74219,-2.74219 l 0,-0.21093 -1.26563,-3.16407 c 1.26558,-0.18746 1.89839,-0.60934 1.89844,-1.26562 l -0.21094,0 c -1.68754,0.70316 -2.53129,1.19534 -2.53125,1.47656 l 0,0.42188 c -4e-5,0.46878 0.56246,1.38284 1.6875,2.74218 l 0,0.42188 c -4e-5,0.56253 -0.35161,1.05471 -1.05468,1.47656 l -1.05469,0 -1.26563,-1.26562 0,-1.26563 c -4e-5,-1.12497 1.40621,-3.72653 4.21875,-7.80469 l 0.42188,-3.58593 -0.84375,-3.79688 -0.42188,0 m -23.83593,0.84375 0,0.21094 c 2.67184,3.96098 4.00778,6.56254 4.00781,7.80469 l 0.42187,0 0,-0.21094 c -0.75002,-2.99996 -2.08596,-5.60152 -4.00781,-7.80469 l -0.42187,0 m -22.35938,0.42188 -0.21094,1.05468 c 0,2.62504 0.84375,4.80473 2.53125,6.53907 l 0.21094,-0.21094 0.21094,0 c 0.63281,0.70316 1.19531,1.05472 1.6875,1.05469 l -1.89844,-1.26563 0,0.21094 -0.63281,-0.21094 0,-0.42187 0.21094,0.21093 0.21093,0 0,-0.21093 c -1.26562,-0.74997 -1.89844,-2.85934 -1.89843,-6.32813 l -0.42188,-0.42187 m 10.96875,-0.21094 0,1.47656 c -1e-5,0.46879 0.21093,0.96098 0.63281,1.47656 l 0,0.21094 -0.63281,0 0,0.21094 0.42188,2.32031 0,0.42188 c -2e-5,0.5391 -0.35158,1.17191 -1.05469,1.89843 l 0,2.32032 0.42187,0 4.00782,-0.84375 0,-0.21094 -0.42188,0 0.63281,-0.63281 1.47657,0 0,0.21093 -1.47657,0.21094 0,0.21094 0.42188,0 1.05469,-0.21094 1.05468,0.42188 0.21094,-0.21094 0,-0.42188 -0.84375,-0.84375 -0.21094,0 -2.10937,0.42188 0,-0.21094 3.375,-1.26562 c 0.7031,-1.05465 1.05467,-1.82809 1.05469,-2.32032 l 0,-0.42187 -0.42188,0 -0.21094,0.21094 -0.21093,0 -0.21094,-0.21094 0,-0.21094 c 0.37498,4e-5 0.65623,-0.56246 0.84375,-1.6875 l 0,-0.42187 -0.21094,0 -1.05469,0.42187 0,0.21094 0.42188,0 0,0.21094 -0.84375,0.21093 -0.42188,0 0,-0.21093 0.63282,0 0,-0.21094 -0.42188,0 0,-0.42188 c 1.26561,5e-5 2.03904,-0.56245 2.32031,-1.6875 l -1.05468,-0.21093 c -1.5469,0.37504 -2.32033,0.93754 -2.32032,1.6875 -0.23439,4e-5 -0.44533,-0.49215 -0.63281,-1.47657 l -0.21094,0 c -0.42189,0.49223 -0.70314,2.03911 -0.84375,4.64063 l -0.21093,0.21094 -0.63282,0 0,-0.21094 0.63282,-3.79688 c -0.28127,5e-5 -0.42189,-0.21089 -0.42188,-0.63281 l -0.21094,0 0,1.26563 -0.21093,0 c -0.28127,4e-5 -0.49221,-0.49215 -0.63282,-1.47657 l -1.47656,-0.42187 m 21.09375,4.85156 0,0.42188 c -3e-5,1.78128 1.12497,3.32816 3.375,4.64062 l 0,-0.42187 c -1.68753,-1.28903 -2.53128,-2.8359 -2.53125,-4.64063 -3e-5,-1.5234 0.84372,-2.57808 2.53125,-3.16406 l 0.21094,0 -0.21094,-1.47656 c -2.25003,0.9141 -3.37503,2.46098 -3.375,4.64062 M 199,157.62863 l 0,1.26563 0.21094,2.32031 L 199,161.84738 c 0.8437,4e-5 1.26558,-0.35152 1.26562,-1.05468 l -0.63281,-0.63282 0,-0.21093 c -4e-5,-0.35152 0.28121,-0.56246 0.84375,-0.63282 -4e-5,-0.77339 -0.42192,-1.33589 -1.26562,-1.6875 l -0.21094,0 m -20.88281,0.63282 0,0.84375 0.21093,0 c -2e-5,-0.42184 0.14061,-0.63277 0.42188,-0.63282 l 0.84375,0 1.05469,0.84375 0,-0.21093 c -0.72659,-0.70309 -1.3594,-1.05465 -1.89844,-1.05469 l -0.63281,0.21094 m 6.53906,0 0,1.05468 -0.21094,1.26563 c 0.42185,1.14848 0.63278,2.13285 0.63281,2.95312 l 0.21094,0 0,-0.84375 c -0.0938,-1.12496 -0.2344,-1.68746 -0.42187,-1.6875 l 0.21093,-1.05468 0,-1.6875 -0.42187,0 m 2.32031,0.21093 c -0.84378,0.79692 -1.26565,1.42973 -1.26562,1.89844 l 0,0.21094 0.21093,0 c -3e-5,-0.51558 0.42185,-0.93746 1.26563,-1.26563 0.84372,0.2813 1.26559,0.56255 1.26562,0.84375 l 0,0.42188 -0.21093,0.21094 0,0.21093 0.21093,0 0.42188,-1.26562 0,-0.42188 c -3e-5,-0.30464 -0.63285,-0.58589 -1.89844,-0.84375 m -17.29687,0.84375 0.21093,0 0.63282,1.89844 0,0.21094 -0.21094,1.47656 -0.42188,-0.42187 0,-1.6875 -0.21093,-1.26563 0,-0.21094 m -10.96875,0.42188 0,0.42187 0.21093,0 0,-0.42187 -0.21093,0 m 41.76562,0 0,0.63281 0.42188,0 0,-0.63281 -0.42188,0 m -22.78125,0.42187 0.42188,0.63282 0,0.21093 c -0.56253,4e-5 -0.84378,0.63286 -0.84375,1.89844 0.42185,0.98441 1.05466,1.4766 1.89843,1.47656 0.7031,-0.18746 1.05467,-0.3984 1.05469,-0.63281 l -0.63281,0.21094 c -0.9844,-0.46871 -1.47659,-1.03121 -1.47656,-1.6875 0.28122,-0.63277 0.56247,-0.98434 0.84375,-1.05469 l 0.84375,0 c 0.93747,4e-5 1.78122,0.56254 2.53125,1.6875 l 0.63281,1.47656 0.21094,0 0,-0.21093 c -0.79691,-2.81246 -2.27347,-4.21871 -4.42969,-4.21875 l -1.05469,0.21093 m -18.98437,0.21094 0,0.42188 c 0.28124,0.63285 0.56249,0.98441 0.84375,1.05468 l 0.21093,0 -0.84375,-1.47656 -0.21093,0 m 16.24218,-0.21094 0.42188,0 0,0.21094 -0.42188,0 0,-0.21094 m -14.97656,0.84375 0.42188,0.42188 0.21093,0 0.42188,-0.42188 -0.42188,-0.42187 -0.21093,0 -0.42188,0.42187 m 14.34375,-0.63281 0.63281,0 -1.26562,1.47656 0.21094,0 0.84375,-0.21093 0,0.21093 c -2.03908,2.32035 -4.07814,3.93754 -6.11719,4.85157 l -0.42188,0 0,-0.21094 3.375,-2.10938 c 1.03124,-1.54683 1.66405,-2.32027 1.89844,-2.32031 l 0,-0.21094 -0.21094,-0.21093 0,-0.21094 0.63282,-0.21094 -0.21094,-0.21094 0,-0.21093 0.63281,-0.42188 m 11.17969,0.63281 0,1.26563 0.21094,0 0,-1.26563 -0.21094,0 m -16.24219,0.21094 0.21094,0 0.21094,2.95313 -0.42188,0.42187 0.21094,0 c 0.28123,4e-5 0.42186,-0.2109 0.42187,-0.63281 l 0.84375,0 0,0.42187 c -0.39845,4e-5 -0.89064,0.3516 -1.47656,1.05469 l -0.21094,0 -0.21093,-1.05469 0.42187,-3.16406 m -8.22656,0.63281 -0.21094,0.84375 0.21094,0.21094 0.84375,-0.21094 0,-0.21093 -0.63281,-0.63282 -0.21094,0 m 42.60937,-0.21093 0.42188,0 0.42187,0.42187 -0.84375,0 0,-0.42187 m -27.63281,0.21093 0.21094,0 -1.26563,1.26563 0,0.21094 0.21094,0 0,-0.42188 0.42188,0 0,0.63281 -1.6875,1.05469 -0.63282,0 c -1e-5,-0.23434 0.49217,-0.51559 1.47657,-0.84375 l 0,-0.42187 -0.84375,0.63281 -0.42188,0 0,-0.42188 2.53125,-1.6875 m 15.1875,2.10938 0.21094,0.63281 0.21094,0 c -4e-5,-1.26559 0.28121,-1.8984 0.84375,-1.89844 l 0.21093,0 0,-0.21093 -0.42187,-0.42188 c -0.70316,0.25785 -1.05472,0.89066 -1.05469,1.89844 m -5.48437,-0.21094 0.21093,0.84375 0,0.21094 -1.05468,-0.21094 -0.21094,0.21094 0,1.6875 1.05469,4.21875 0,0.21094 -0.42188,0.42187 c -0.65628,-4.21871 -1.85159,-6.32809 -3.58594,-6.32812 l 0,0.84375 -0.21093,0 c -0.51565,-0.42184 -1.00784,-0.63278 -1.47657,-0.63282 l -1.05468,0 0,0.21094 0.42187,0.84375 -1.26562,1.05469 0,1.6875 c -3e-5,0.37503 0.49216,0.65628 1.47656,0.84375 l 1.47656,-0.42188 -0.42187,-0.42187 -1.6875,0 -0.21094,-0.63281 c 0.18748,-0.70309 0.67966,-1.05466 1.47656,-1.05469 l 0.84375,0 c 1.96872,1.26566 2.9531,2.81253 2.95313,4.64062 0.28122,3e-5 0.42184,0.70316 0.42187,2.10938 l 0,0.63281 0.63281,0 0.21094,-0.21094 0.21094,0.21094 1.26562,0 0,-0.63281 0.21094,-1.6875 -0.63281,-4.85156 -0.21094,0 0,1.26562 -0.21094,0 -0.21093,-3.16406 0.21093,-0.21094 0.21094,0 0,1.47656 0.21094,0 c -3e-5,-2.03902 0.56247,-3.44527 1.6875,-4.21875 l -0.84375,-0.42187 c -0.70316,4e-5 -1.19534,0.49223 -1.47656,1.47656 m -26.15625,-0.84375 0,0.21094 0.42187,0.42187 0.42188,-0.42187 0,-0.21094 -0.42188,-0.42187 -0.42187,0.42187 m 43.66406,-0.63281 0.84375,0 0.42187,0.42187 -0.21093,0.21094 -0.21094,0 -0.21094,-0.21094 -0.21094,0.21094 -0.42187,-0.63281 m -32.0625,0.42187 0.84375,0 0.42187,0.42188 -0.21093,0.21094 -0.21094,0 -1.26563,-0.21094 0.42188,-0.42188 m 31.64062,0.21094 -1.05468,0.84375 -0.42188,0 c -4e-5,-0.28121 0.49214,-0.56246 1.47656,-0.84375 m -32.48437,0.21094 0.21094,0 0.63281,0.21094 0,0.42187 -0.84375,0 0,-0.63281 m 18.14062,1.05469 0.21094,0.21093 0.21094,0 0.42187,-0.42187 0,-0.21094 -0.42187,0 -0.42188,0.42188 m -30.16406,0 0,0.21093 c 1.54687,1.82816 2.32031,3.30473 2.32031,4.42969 l -0.84375,0.63281 -0.84375,0 0,-0.42187 -0.21093,0 0,0.63281 0.63281,0.42188 0.42187,0 c 0.98437,3e-5 1.47656,-0.49216 1.47657,-1.47657 l 0,-0.21093 c -1e-5,-0.93747 -0.98438,-2.34372 -2.95313,-4.21875 m 29.53125,0 -0.21094,0.21093 0,0.63282 0.21094,0 0.42188,-0.42188 -0.42188,-0.42187 m -30.16406,0.21093 c 0,0.93754 -0.28125,1.64066 -0.84375,2.10938 l 0.63281,0 0.63281,-0.63281 0,-0.42188 -0.21093,-1.05469 -0.21094,0 m 33.96094,0.42188 0,0.21094 0.21093,0.21093 0.21094,0 0,-0.21093 -0.21094,-0.21094 -0.21093,0 m -2.74219,0.21094 0,0.21093 c -3e-5,0.28129 0.49215,0.49223 1.47656,0.63282 -3e-5,-0.37497 -0.49222,-0.65622 -1.47656,-0.84375 m 9.91406,0 0,0.63281 0.21094,0.21094 0.21094,0 0.21093,-0.21094 0,-0.21094 -0.42187,-0.42187 -0.21094,0 m 0.21094,1.47656 0,0.42187 0.21094,0 c 0.96089,-0.3984 1.5937,-0.89059 1.89843,-1.47656 L 199,166.48801 m -11.39063,-0.84375 0,0.21094 0.42188,0.42187 0.42187,-0.42187 0,-0.21094 -0.84375,0 m -16.24218,0.21094 -0.42188,1.05468 -0.42187,0 -0.21094,-0.63281 1.05469,-0.42187 m 11.39062,0 c 0.98435,0.67972 1.47654,1.45316 1.47656,2.32031 l 0,0.42187 -1.47656,-2.74218 m -21.09375,0.42187 0,0.21094 0.21094,0.21094 0.21094,0 0,-0.21094 -0.21094,-0.21094 -0.21094,0 m 25.73438,1.05469 c 0.42184,3e-5 0.63278,0.14066 0.63281,0.42187 l -0.63281,0.84375 0,0.42188 c -4e-5,0.70316 0.35153,1.19534 1.05468,1.47656 l 1.26563,0 1.89844,-1.89844 0.21093,0 0.63282,0.42188 0,-0.21094 -0.42188,-0.42187 -0.84375,0 -1.47656,1.47656 -0.42188,0 -0.84375,-0.84375 0,-0.63281 c 0.35153,-0.70309 0.91403,-1.05466 1.6875,-1.05469 l 0.63282,0 c 0.67965,3e-5 1.38277,0.21097 2.10937,0.63281 l 0,-0.63281 -3.79687,-1.05469 -1.6875,1.05469 m 14.97656,-1.26563 0,0.21094 -1.47656,2.53125 -0.63282,0 2.10938,-2.74219 m -27.63281,2.53125 c -2e-5,0.82035 0.49216,1.45316 1.47656,1.89844 l 0.21094,0 -1.05469,-1.47656 0,-0.63281 c -2e-5,-0.84372 0.28123,-1.26559 0.84375,-1.26563 0.42185,4e-5 0.63279,0.28129 0.63281,0.84375 l 0.42188,0 0,-0.63281 c -0.14065,-0.42184 -0.56252,-0.63278 -1.26563,-0.63281 -0.84377,0.35159 -1.26564,0.98441 -1.26562,1.89843 m -18.35157,1.26563 c 0,0.70315 0.49219,1.05472 1.47657,1.05469 l 0,0.42187 -1.26563,0.21094 c 0.14063,0.4219 0.5625,0.63284 1.26563,0.63281 l 0.84375,0 4.21875,-2.32031 1.05468,-0.21094 0,-0.21094 -0.42187,0 -4.21875,1.6875 c -0.79688,3e-5 -1.5,-0.49215 -2.10938,-1.47656 0.14063,-1.12497 0.70313,-1.68747 1.6875,-1.6875 L 158.5,167.5427 l -1.05469,0 c -0.70312,0.56253 -1.05469,1.33597 -1.05469,2.32031 m 14.34375,-1.89844 0,0.21094 c -1e-5,0.35159 0.77343,0.70316 2.32032,1.05469 l 0.21093,0 0,-0.21094 c -0.51564,3e-5 -1.14845,-0.42184 -1.89843,-1.26563 l -0.63282,0.21094 m -6.53906,1.26563 0,0.21093 0.42188,0 0,-0.21093 -0.42188,0 m -7.80469,12.02343 c 0.32813,2e-5 0.53906,0.49221 0.63282,1.47657 l 0.21093,0.21093 c 0,0.46877 0.21094,0.96096 0.63282,1.47657 l 0,0.21093 -0.63282,0 0,-0.42187 -0.21093,0 0,0.42187 0.21093,0.21094 -0.63281,0 0,-0.63281 -0.21094,0 0,0.21094 1.89844,6.53906 0,0.21094 c -0.25781,1.26563 -0.75,1.89844 -1.47656,1.89843 l 0,0.21094 1.05469,0 c 0.32812,-0.0703 0.67968,-0.56249 1.05468,-1.47656 l -0.21093,-1.05469 0.63281,0.42188 0,-1.05469 c -1e-5,-0.86718 -0.49219,-1.71093 -1.47656,-2.53125 -0.70313,-1.0078 -1.05469,-1.85155 -1.05469,-2.53125 l 0.21094,0 c 0.28124,2e-5 0.42187,0.35158 0.42187,1.05469 l 0.84375,1.05468 0,-0.42187 0.21094,0 0.84375,0.63281 1.05469,0 c -0.46876,-1.54686 -0.96095,-2.32029 -1.47657,-2.32031 0,-0.42186 0.21094,-0.6328 0.63282,-0.63281 l 0,-0.21094 c -1.54688,-1.31248 -2.32032,-2.29686 -2.32032,-2.95313 l 0,-0.21093 0.21094,0 1.26563,1.47656 0.42187,0 0,-0.84375 0.21094,0.21094 0.42187,0 0,-0.42188 0.21094,-0.21094 -0.21094,-0.21093 c -1.125,2e-5 -1.6875,-0.70311 -1.6875,-2.10938 l 0,-0.21094 c 0,-4.03122 2.8125,-6.98434 8.4375,-8.85937 l 3.375,0 c 1.24218,3e-5 2.85936,0.35159 4.85157,1.05469 l 0.42187,0 c -1.64064,-1.12497 -3.6797,-1.68747 -6.11719,-1.6875 -4.26563,3e-5 -7.78125,1.5469 -10.54687,4.64062 -1.40625,2.34378 -2.10938,4.80471 -2.10938,7.38281 m 10.54688,-10.96875 0,0.84375 0.21094,0 0,-0.84375 -0.21094,0 m -4.21875,12.86719 c 0.18749,1.26564 1.10155,1.89846 2.74219,1.89844 l 0.84375,-0.84375 0,-9.28125 c 0.0937,-0.84372 0.30467,-1.2656 0.63281,-1.26563 l 16.875,0 0,-0.63281 c -3e-5,-0.72653 -0.21097,-1.14841 -0.63281,-1.26562 l -15.39844,0 c -0.70314,3e-5 -1.26564,-0.42185 -1.6875,-1.26563 -2.25001,0.86722 -3.37501,1.50003 -3.375,1.89844 l 0,10.75781 m -1.89844,-9.70312 c -0.84375,1.05471 -1.26563,1.89846 -1.26562,2.53125 l 0,0.84375 0.42187,0.63281 c 1.54687,2e-5 2.32031,-0.42185 2.32031,-1.26563 l -0.21093,-0.63281 -0.63282,0 0,0.21094 0.42188,0 -0.21094,0.84375 -0.84375,0 c -0.32813,2e-5 -0.53907,-0.35154 -0.63281,-1.05469 l 0.84375,-2.10937 -0.21094,0 m 26.78906,0.63281 0,0.21094 2.10938,0.21093 3.58594,0 0,-0.42187 -0.21094,0 -1.6875,-0.21094 -3.79688,0.21094 m -20.67187,0 0,0.63281 -0.21094,1.05469 0.21094,1.26562 0,0.63282 -0.21094,1.05468 0.21094,1.26563 0,1.6875 -0.21094,0.21094 0,0.21093 0.42188,0 0,-6.75 0.21093,-1.05468 16.66407,0 0,-0.21094 -17.08594,0 m 0.84375,1.26562 1.05469,0 c 1.66404,3e-5 3.21092,0.56253 4.64062,1.6875 l 0.21094,0 0.42187,-0.42187 0,-0.21094 c -1.92189,-0.98435 -3.46876,-1.47653 -4.64062,-1.47656 l -1.26563,0 -0.42187,0.42187 m 11.8125,-0.42187 c 2.10935,2.62502 3.16403,5.2969 3.16406,8.01562 l 0,1.6875 -0.21094,2.10938 0.21094,0 c 0.42185,-0.0937 0.63279,-0.65624 0.63281,-1.6875 l 0,-0.63281 c -2e-5,-4.40623 -1.12502,-7.57029 -3.375,-9.49219 l -0.42187,0 m -3.375,1.6875 0.63281,2.53125 0.21094,0 0,-0.21094 -0.42188,-2.32031 c 0.37498,-0.42185 0.93748,-0.63279 1.6875,-0.63281 -2e-5,-0.42185 -0.28127,-0.63279 -0.84375,-0.63282 l 0,-0.21093 c -0.84377,0.21096 -1.26564,0.70315 -1.26562,1.47656 m 5.90625,-0.63281 0,0.21093 0.21094,0 2.74218,-0.42187 1.05469,0 2.53125,0.84375 c -3e-5,-0.82029 -1.26566,-1.31247 -3.79687,-1.47656 -1.82816,0.18752 -2.74222,0.46877 -2.74219,0.84375 m -7.17188,-0.63282 c -2e-5,1.59378 -1.12501,2.92971 -3.375,4.00782 -0.84376,1.05471 -1.26564,1.89845 -1.26562,2.53125 l 0,0.21093 0.21094,1.47657 0.21093,-0.21094 0.21094,0 0.84375,0.84375 -0.42187,0 -0.63282,-0.42188 0,0.21094 1.47657,0.63281 2.10937,-0.84375 0,0.42188 -0.21094,0.21094 0,0.21093 1.26563,0 c 0.74998,2e-5 1.24217,-0.28123 1.47656,-0.84375 l 0,-0.42187 -0.63281,0 0,-0.21094 c 0.67966,2e-5 1.10154,-0.56248 1.26562,-1.6875 l 0,-0.42187 -1.26562,0.42187 -1.26563,0 0,0.63281 -0.84375,0 0.42188,-0.84375 c -0.35158,0.0235 -1.05471,0.65627 -2.10938,1.89844 l -0.42187,0 -0.21094,-0.63281 c -2e-5,-0.56248 0.56248,-0.98436 1.6875,-1.26563 l 0,-0.21093 -0.42187,0 0,-0.42188 c 0.7031,2e-5 1.19529,-0.35154 1.47656,-1.05469 l 0.42187,0 0,0.42188 c -2e-5,0.28127 -0.42189,0.56252 -1.26562,0.84375 l 0,0.21094 0.21094,0 c 0.8906,2e-5 1.52341,-0.91404 1.89843,-2.74219 l -0.21093,0 -0.21094,0.21094 0,0.21093 -0.63281,-0.21093 c 0.7031,-0.82029 1.05466,-1.52342 1.05468,-2.10938 -0.28127,-0.63279 -0.56252,-0.98435 -0.84375,-1.05469 m 16.03125,1.05469 -0.21093,0 -0.84375,-0.21094 c -0.84379,0.25784 -1.54691,0.75003 -2.10938,1.47657 l 0,1.05468 c -3e-5,0.32815 0.56247,0.67971 1.6875,1.05469 l 0,-0.21094 -0.84375,-1.26562 0,-0.63281 0.84375,-0.84375 1.26563,0 c 0.42184,2e-5 0.7734,0.63283 1.05468,1.89843 -3e-5,0.72659 -1.26566,1.99221 -3.79687,3.79688 l -1.47656,1.6875 0.21093,0 c 0.79685,-1.12498 2.48435,-2.39061 5.0625,-3.79688 l 0.84375,-2.10937 c -0.70316,-1.17185 -1.05472,-2.15623 -1.05468,-2.95313 -0.42191,3e-5 -0.63285,0.35159 -0.63282,1.05469 m 8.01563,0.21094 0,1.47656 0.42187,0.42188 0.42188,-0.84375 0.21094,0 0.84375,1.26562 0.84375,0 1.26562,-1.05469 c -1.40629,-0.16403 -2.10942,-0.44528 -2.10937,-0.84375 l 0,-0.42187 c 0.14058,-0.42185 0.56245,-0.63279 1.26562,-0.63281 0.96089,2e-5 1.5937,0.70315 1.89844,2.10937 l 0,0.42188 c -0.49224,1.82814 -1.26567,2.7422 -2.32031,2.74218 l 0,0.21094 0.21093,0.21094 c 1.26558,2e-5 2.17964,-1.12498 2.74219,-3.375 -5e-5,-1.71091 -1.05473,-2.69529 -3.16406,-2.95313 l -0.21094,0 c -1.54692,0.35159 -2.32035,0.77347 -2.32031,1.26563 m -30.79688,0 0,0.42187 0.42188,0.42188 0.21094,0 c -2e-5,-0.84373 0.56248,-1.2656 1.6875,-1.26563 l 0,-0.21093 -1.6875,0 -0.63282,0.63281 m 14.76563,-0.21094 0,0.42188 1.6875,-0.42188 1.26562,0 1.47657,0.42188 c -4e-5,-0.42185 -0.84378,-0.7031 -2.53125,-0.84375 l -1.89844,0.42187 m -4.64063,0.84375 0.63282,0.84375 c -3e-5,-0.84372 0.1406,-1.2656 0.42187,-1.26562 l 0.63281,0 0.21094,0.21093 0.21094,0 0,-0.21093 -0.63281,-0.42188 -0.21094,0 c -0.70315,3e-5 -1.12502,0.28128 -1.26563,0.84375 m -9.07031,1.26563 -1.05469,-0.21094 -0.42187,1.47656 c -1e-5,0.44534 0.49217,0.93752 1.47656,1.47656 l -0.21094,-0.21093 0,-0.42188 0.42188,-0.42187 0.21094,0.21093 0,-0.84375 -0.63282,0.84375 -0.21093,0.21094 -0.21094,0 -0.42188,-0.42187 0,-0.84375 1.26563,-0.21094 c 0.42186,2e-5 0.6328,0.35158 0.63281,1.05469 0.35155,2e-5 0.6328,-0.63279 0.84375,-1.89844 l -0.42187,-1.47656 c -0.84377,0.70315 -1.26564,1.26564 -1.26563,1.6875 m 14.55469,-1.6875 c 0.28122,0.63283 0.56247,0.9844 0.84375,1.05468 l 0.21094,0 0.21093,-0.21093 0.21094,0.21093 0.84375,0 0.84375,-0.84375 -0.42187,0 0,0.42188 -0.63282,0 0.21094,-0.21094 0,-0.42187 -0.42187,0 0,0.42187 -0.42188,0 0,-0.42187 -0.42187,0 0,0.63281 c -0.28128,2e-5 -0.42191,-0.21091 -0.42188,-0.63281 l -0.63281,0 m -21.9375,1.05468 -0.63281,1.6875 -0.21094,-0.21093 -0.21094,0 0,0.21093 0.21094,0 -0.42188,2.10938 c 0.60937,3.09377 2.01562,4.64064 4.21875,4.64062 -0.14063,-0.70311 -0.5625,-1.05467 -1.26562,-1.05468 -1.54688,-1.05467 -2.32032,-2.46092 -2.32031,-4.21875 l 0.84375,-2.95313 0,-0.21094 -0.21094,0 m 22.14844,1.47657 0.21093,0 1.26563,-0.63282 1.26562,0.84375 0,-0.63281 c -3e-5,-0.39841 -0.56253,-0.67966 -1.6875,-0.84375 -0.70315,0.0938 -1.05471,0.51565 -1.05468,1.26563 m -25.10157,-0.63282 0,0.21094 0.63282,0.63281 0.63281,0 0.42187,-0.42187 0,-0.21094 -0.21093,0.21094 -0.84375,0 -0.63282,-0.42188 m 20.25,0 0,0.63282 0.42188,0 0.42187,-0.42188 -0.21093,-0.21094 -0.63282,0 m 1.6875,0.21094 0,0.21094 0.42188,0.42187 0.21094,-0.21093 0,-0.21094 -0.21094,-0.21094 -0.42188,0 m -23.625,0 0.42188,0 0.21094,1.89844 -0.21094,-0.21094 -0.21094,0 -0.42187,0.42188 -0.21094,0 0,-0.42188 0.21094,-0.21094 0,-0.21093 -0.21094,0 0.42187,-0.84375 -0.42187,0 0.42187,-0.42188 m 17.08594,0 0.21094,0 0,0.63281 -0.63281,0.42188 -0.42188,0 0.84375,-0.84375 0,-0.21094 m 1.47656,0.84375 0.21094,0.63281 0.21094,0 c 0.28123,3e-5 0.42185,-0.21091 0.42187,-0.63281 l -0.21093,-0.63281 -0.63282,0.63281 m 8.85938,-0.42187 0,0.42187 0.63281,0 1.05469,0.21094 0,-0.21094 -0.84375,-0.63281 -0.84375,0.21094 m -7.17188,0.63281 0,0.21094 0.21094,0 1.6875,-0.21094 -0.21094,-0.21094 0,-0.21094 -1.6875,0.42188 m 2.74219,-0.42188 0,0.84375 0.63281,0 0,-0.42187 -0.42187,-0.42188 -0.21094,0 m 20.88281,0.21094 c -4e-5,0.84377 -0.70317,1.26565 -2.10937,1.26563 l 0,0.84375 c 0.8437,0.0938 1.26558,0.23439 1.26562,0.42187 l 0.84375,-0.21094 0,-0.63281 -0.21093,-0.21094 0,-0.21093 0.84375,-0.21094 0,-0.42188 -0.63282,-0.63281 m -28.89843,0 0.21093,0 -1.6875,2.32031 -0.21093,0 c -2e-5,-0.74998 0.56248,-1.52341 1.6875,-2.32031 m 9.07031,0.63281 0.42187,0.42188 0,-0.84375 -0.42187,0.42187 m -4.21875,-0.21093 -0.21094,0.21093 0,0.21094 0.21094,0 0.21094,-0.21094 0,-0.21093 -0.21094,0 m 6.53906,6.53906 0.21094,0.63281 c 0.79684,-1.14842 1.42966,-3.53904 1.89844,-7.17187 -0.70316,2e-5 -1.05472,0.77345 -1.05469,2.32031 l -1.05469,4.21875 m -4.85156,-5.69531 0.84375,0.21093 0.21094,-0.21093 0,-0.42188 -0.63282,0 -0.42187,0.42188 m 7.38281,1.26562 0.21094,0 1.05469,-1.05469 0.63281,0.21094 -0.21094,-0.63281 c -0.77347,2e-5 -1.33597,0.49221 -1.6875,1.47656 m -1.89844,6.11719 0.21094,0.84375 0.21094,0 c 1.19528,-3.04686 3.16403,-5.36717 5.90625,-6.96094 l 1.6875,-0.42187 0.63281,0 0,-1.05469 c -1.78128,0.21096 -3.82034,1.47658 -6.11719,3.79687 l -2.53125,3.79688 m -4.00781,-7.38281 0,0.63281 0.42188,0 0.42187,-0.42188 0,-0.21093 -0.84375,0 m 23.20313,0.42187 0,0.63281 0.21093,0 0.42188,-0.42187 0,-0.21094 -0.63281,0 m -36.28125,1.26563 c -2e-5,0.28126 0.28123,0.42189 0.84375,0.42187 l 0,0.42188 c -0.84377,1e-5 -1.26564,0.42189 -1.26563,1.26562 l -1.26562,1.26563 1.26562,0.42187 0.42188,0 1.6875,-0.42187 -0.63282,1.26562 0.63282,0 c 0.77342,2e-5 1.33592,-0.28123 1.6875,-0.84375 l -0.21094,0 -0.21094,0.21094 0,-0.63281 -0.21094,0.21093 -0.42187,0 0,-0.21093 0.21094,-1.47657 -0.21094,0 -1.05469,0.21094 0,-0.42187 c 0.98436,-0.21092 1.47655,-0.70311 1.47656,-1.47657 l -0.84375,-0.21093 0,-0.42188 0.42188,0 0,-0.42187 -1.05469,-0.21094 c -0.58595,0.18752 -1.00782,0.53908 -1.26562,1.05469 m 36.91406,0 0.21094,0.21093 0.21093,0 0.21094,-0.21093 0,-0.42188 -0.21094,0 -0.42187,0.42188 m -24.04688,-0.21094 0.42188,0.63281 c -0.56253,2e-5 -1.05471,0.42189 -1.47656,1.26563 0.18747,0.65626 0.46872,1.00782 0.84375,1.05468 l 0,-0.21093 -0.21094,-0.63282 1.05469,-0.63281 c 0.84372,0.35158 1.26559,0.98439 1.26562,1.89844 l 0,0.84375 -0.21094,0.21094 0,0.21093 0.21094,0 0.21094,-0.21093 0,-2.10938 c -0.28128,-1.54686 -0.9844,-2.32029 -2.10938,-2.32031 m 18.98438,0 0,0.42187 c 1.42964,1.24221 2.20308,2.15627 2.32031,2.74219 -4e-5,1.12502 -0.56254,1.75783 -1.6875,1.89844 l -0.21094,-0.21094 0,-0.21094 0.84375,-1.05468 0,-0.42188 -0.42187,-0.42187 -0.42188,0 0.21094,0.21093 0,0.21094 -0.63281,1.6875 c 0.21089,0.56251 0.42183,0.84376 0.63281,0.84375 l 0.84375,0 c 0.35152,1e-5 0.70308,-0.56248 1.05469,-1.6875 l 0.42187,0 0,-1.6875 c -4e-5,-1.17186 -0.98442,-1.94529 -2.95312,-2.32031 m 2.74219,0.21094 0,0.21093 1.26562,0 0.42188,-0.42187 -0.63282,0 -1.05468,0.21094 m -45.35157,0 0,0.63281 0.21094,0.21094 0.21094,0 0,-0.21094 -0.21094,-0.63281 -0.21094,0 m 18.98438,0.21093 0,0.21094 -0.84375,0.84375 0,-0.42187 0.84375,-0.63282 m 14.55469,0.21094 0,0.21094 c 1.03121,2e-5 1.73434,0.35158 2.10937,1.05469 -4e-5,0.70314 -0.49222,1.0547 -1.47656,1.05468 l 0,0.21094 1.26562,0 0.42188,-0.63281 0,-1.05469 -0.84375,-0.84375 -1.47656,0 m 13.5,0.42188 0.42187,0.42187 0.21094,0 0,-0.84375 -0.21094,0 -0.42187,0.42188 m -32.0625,-0.42188 0.84375,0.42188 1.47656,-0.42188 c -2e-5,0.30471 -0.63283,0.58596 -1.89844,0.84375 l -0.42187,-0.63281 0,-0.21094 m 31.00781,0.84375 0,0.21094 1.47656,1.05469 0.63281,-0.21094 0,-0.21094 c -0.86723,2e-5 -1.57036,-0.28123 -2.10937,-0.84375 m -27.63281,1.47656 -0.42188,-0.42187 -0.21094,0.63281 -0.21093,-0.21094 -0.21094,0 0,0.42188 -0.21094,0 0,-0.42188 -0.21094,0 -0.42187,0.42188 c 0.35154,0.25783 2.10935,0.46876 5.27344,0.63281 l 0.42187,1.05469 0.21094,0 c 0.3281,1e-5 0.53904,-0.35155 0.63281,-1.05469 -0.28127,-0.6328 -0.56252,-0.98436 -0.84375,-1.05469 l 0.21094,-0.21093 0,-0.63282 -1.05469,-0.21093 -2.95312,1.05468 m -4.85157,-0.84375 0,0.42188 0.42188,0 0,-0.42188 -0.42188,0 m 2.95313,0.21094 0,0.42188 c 0.70311,-0.18749 1.05467,-0.39842 1.05469,-0.63282 l -0.21094,0 -0.84375,0.21094 m -2.32031,0 0,0.42188 0.21093,0 0,-0.42188 -0.21093,0 m 0.84375,0 1.05468,0.84375 0.21094,0 0,-0.63281 -1.26562,-0.21094 m 5.48437,0 0.21094,0 0.63281,1.05469 -0.21094,0.21094 -0.21093,0 -0.21094,-0.21094 -0.21094,0.21094 -1.6875,0 0,-0.21094 c 1.12498,1e-5 1.68748,-0.28124 1.6875,-0.84375 l 0,-0.21094 m 25.94531,0.42188 0,0.21093 0.84375,3.16407 c -4e-5,1.73438 -1.12504,3.28126 -3.375,4.64062 l 0.21094,0.21094 1.05469,0 c 1.52339,-1.33593 2.36714,-2.67187 2.53125,-4.00781 l 0,-1.6875 c -5e-5,-1.1953 -0.42192,-2.03905 -1.26563,-2.53125 m -13.5,0.21093 0,0.42188 -1.05468,-0.21094 -0.21094,0 c -0.56253,0.23439 -0.84378,0.72658 -0.84375,1.47656 l 0,0.21094 0.42187,0.42188 c -3e-5,-0.98436 0.49216,-1.47655 1.47657,-1.47657 0.84371,2e-5 1.26559,0.70314 1.26562,2.10938 l 0.21094,0 0.21094,-1.47656 c -4e-5,-0.98436 -0.49223,-1.47655 -1.47657,-1.47657 m 1.26563,5.0625 0.84375,2.10938 0.63281,0 0,-0.21094 c -0.70316,-0.8203 -1.05472,-1.66405 -1.05469,-2.53125 0.56247,-1.96874 1.54684,-2.95311 2.95313,-2.95312 1.26558,0.18751 1.8984,0.82032 1.89844,1.89843 l -0.63282,0.84375 0.21094,0 c 0.70309,-0.35155 1.05465,-0.91405 1.05469,-1.6875 -4e-5,-0.70311 -0.28129,-1.05467 -0.84375,-1.05468 l 0,-0.63282 0.63281,0 0,-0.42187 c -0.98441,1e-5 -1.4766,-0.14061 -1.47656,-0.42188 -1.89848,2e-5 -3.30472,1.26564 -4.21875,3.79688 l 0,1.26562 m -27.84375,-4.21875 0,1.26563 0.21094,2.32031 c -0.65626,2.67189 -1.64063,4.00782 -2.95313,4.00781 l -2.10937,0.63282 0,0.21093 1.89843,0.42188 4.42969,-0.21094 7.17188,0.42188 0.21093,-0.21094 0,-0.21094 c -1e-5,-0.28124 -1.19532,-0.6328 -3.58593,-1.05469 l -0.84375,-1.26562 0.21093,-0.21094 -0.21093,0 -0.21094,0.21094 -0.63281,-2.32031 0,-3.16407 -0.84375,0 -2.74219,-0.84375 m 9.70312,0 0.42188,0.63282 0,0.21093 -0.21094,0 -0.63281,-0.42187 -0.42188,0.42187 0,-0.63281 -0.42187,0 0,0.63281 c -2e-5,0.79689 0.35155,1.28908 1.05469,1.47657 l 0,-0.63282 c 0.53904,0.42189 1.17185,0.63283 1.89843,0.63282 l 0.21094,-0.21094 c -0.39845,-0.98436 -0.96095,-1.68749 -1.6875,-2.10938 l -0.21094,0 m -10.75781,0.42188 c 0,1.12501 -0.28125,1.68751 -0.84375,1.6875 l -1.26562,-0.42188 c 0.23437,0.56252 0.72655,0.84377 1.47656,0.84375 l 0.21094,-0.21093 0,0.21093 c 0.56249,-0.14061 0.84374,-0.56248 0.84375,-1.26562 l -0.21094,-0.84375 -0.21094,0 m 12.65625,2.74219 0.63281,0 c 1.26561,-1.24218 1.89842,-2.15624 1.89844,-2.74219 l -0.42187,0 -2.10938,2.74219 m 21.9375,-2.74219 0,0.21094 0.42188,0 0,-0.21094 -0.42188,0 m 6.32813,0.21094 0.21093,1.05468 0,0.84375 c -4e-5,1.17189 -0.63286,1.87501 -1.89843,2.10938 l -0.21094,0 c -0.70317,1e-5 -1.12505,-0.28124 -1.26563,-0.84375 l 0.63282,-1.05469 -0.21094,0 -0.84375,0.84375 0,0.84375 c 0.39839,0.70314 0.96089,1.0547 1.6875,1.05469 1.54683,-0.51562 2.32026,-1.42968 2.32031,-2.74219 l 0,-1.05469 -0.21094,-1.05468 -0.21093,0 m -35.64844,0.21093 0,3.58594 0.21094,1.05469 0.21093,0 -0.21093,-4.64063 -0.21094,0 m 13.5,2.53125 c 0.98435,-1.26561 1.8281,-1.89842 2.53125,-1.89843 l -1.26563,1.26562 0.21094,0 0.21094,-0.21094 0,0.21094 -0.63281,1.26563 -0.63282,0 0.21094,-0.21094 0,-0.21094 -0.21094,0 -0.42187,0.42188 -0.21094,0 0.21094,-0.21094 0,-0.21094 -0.21094,0 -0.21094,0.21094 -0.21093,-1.26563 c -0.86721,2e-5 -1.42971,1.54689 -1.6875,4.64063 l -0.21094,0.21094 -0.21094,0 -0.21094,-1.47657 -0.21093,0.21094 -0.42188,0 -0.42187,-2.32031 c 0.56247,0.3047 0.84372,0.93751 0.84375,1.89844 l 0.21093,0 0,-1.26563 c -0.35158,1e-5 -0.56252,-0.28124 -0.63281,-0.84375 l -1.05469,0 0.21094,1.05469 -0.42187,0 c -2e-5,-0.32812 -0.35159,-0.67968 -1.05469,-1.05469 l -0.84375,0 -1.05469,0.21094 0,0.63281 c 0.42186,1e-5 0.6328,0.14064 0.63281,0.42188 l 0,0.21093 -0.42187,0 L 172,191.1677 c -0.63283,0.28126 -0.98439,0.56251 -1.05469,0.84375 l 0,1.05468 0.21094,0 0.84375,-0.63281 0.63281,0 c 0.6328,1e-5 1.33592,0.4922 2.10938,1.47656 l 0,-0.21093 c 0.37498,0.0469 0.65623,0.39844 0.84375,1.05468 l 0.21093,-0.21093 0.42188,0 0.63281,1.6875 -0.42187,0 c -2e-5,0.28125 0.21091,0.42188 0.63281,0.42187 l 0,0.21094 -0.21094,0.21094 0,0.21093 0.42188,0 c 1.96872,-0.32812 2.9531,-1.3828 2.95312,-3.16406 l 0.63281,0 -0.84375,2.74219 0.63282,-0.42188 0.21093,0.21094 0.42188,-0.42187 0.63281,0.21093 0,0.21094 -0.84375,0.21094 0,0.42187 c 1.47654,1e-5 3.5156,-1.61718 6.11719,-4.85156 l 1.05469,-0.21094 0.42187,0 0.63281,0.63282 0,0.63281 c -2.6719,0.56251 -4.00784,1.89844 -4.00781,4.00781 0.42185,0.98438 1.05466,1.47657 1.89844,1.47656 l 0,-0.42187 0.21094,0 1.26562,0.42187 0.63281,0 c 1.64059,-1.26562 2.90622,-1.89843 3.79688,-1.89843 l 0.63281,1.89843 0.42188,0 c 0.46871,1e-5 1.31246,-0.56249 2.53125,-1.6875 l 0.63281,0.42188 0,-0.21094 -0.42188,-0.42187 -0.84375,0 -1.47656,1.47656 -0.63281,0 0.21094,-0.21094 0,-0.21094 -0.21094,0 -0.21094,0.21094 c -4e-5,-0.98437 -0.14066,-1.47656 -0.42187,-1.47656 l -0.63282,0 c -0.46878,0 -1.45316,0.49219 -2.95312,1.47656 l -1.6875,0 c -0.84378,-0.49218 -1.26566,-1.12499 -1.26563,-1.89844 l 0,-0.21093 c -3e-5,-0.89062 1.05466,-1.875 3.16407,-2.95313 l 0.21093,-1.05469 0,-0.42187 c -0.28128,-0.70312 -0.77347,-1.05468 -1.47656,-1.05469 l -0.42187,0 -0.63282,0.42188 -0.42187,0 0.21094,-1.05469 0,-0.21094 -0.42188,0 c -1.03128,1e-5 -2.08597,1.40626 -3.16406,4.21875 l -1.05469,0.84375 -0.21094,-0.21094 -0.21093,0 c 1.40622,-1.80468 2.10934,-3.0703 2.10937,-3.79687 l 0,-0.21094 -0.42187,0 c -3e-5,0.42189 -0.14066,0.63282 -0.42188,0.63281 l -0.21094,0 0.21094,-1.05468 0,-1.6875 c -3e-5,-0.84374 -0.28128,-1.26561 -0.84375,-1.26563 -1.28909,0.60939 -2.06252,1.31251 -2.32031,2.10938 l 0,0.21093 m -12.44531,-0.84375 0,0.84375 0.42187,0.42188 0.42188,0 -0.42188,-0.63281 0,-0.21094 0.63281,-0.63281 0.42188,0 0.84375,0.84375 c -2e-5,1.12501 -0.77345,1.68751 -2.32031,1.6875 l 0,0.21093 1.26562,0 c 0.91405,-0.28124 1.47655,-0.70311 1.6875,-1.26562 0.28124,1e-5 0.42186,-0.21093 0.42188,-0.63281 -0.18752,-0.98437 -0.46877,-1.47655 -0.84375,-1.47657 l 0,0.63282 -1.26563,-0.84375 c -0.58595,0.18751 -1.00782,0.53907 -1.26562,1.05468 m 8.01562,0.42188 0.42188,0 c 0.53904,-0.70311 1.10154,-1.05468 1.6875,-1.05469 -3e-5,0.42189 0.1406,0.63283 0.42187,0.63281 l 0,-0.63281 -0.42187,-0.42187 c -0.77346,1e-5 -1.47659,0.4922 -2.10938,1.47656 m 9.07031,0.42187 0.21094,0 c 0.25778,-0.70311 0.8906,-1.05467 1.89844,-1.05468 l 0,-0.42188 -0.21094,0 c -0.65628,1e-5 -1.28909,0.4922 -1.89844,1.47656 m -25.10156,-0.42187 0,0.42187 c 0.32812,0.51564 0.89062,1.00783 1.6875,1.47657 l 0.42188,-0.42188 -2.10938,-1.47656 m 21.9375,1.05469 0.21094,0 0.42187,0.42187 -0.42187,0 0.21094,0.21094 0,0.42187 -0.42188,0 0.21094,0.21094 0,0.21094 -0.21094,0.21094 -0.42187,0 0,-0.42188 -0.21094,-0.21094 0.21094,-0.21093 c 0.28122,1e-5 0.42184,-0.28124 0.42187,-0.84375 m 4.64063,0 0.21093,0.21093 0,0.21094 -0.42187,0.42188 -0.84375,0.63281 -0.21094,0 0,-0.21094 1.26563,-1.26562 m -26.57813,0.42187 0,0.21094 c 0,0.32813 0.49218,0.6797 1.47656,1.05469 l 0,-0.42188 -1.47656,-0.84375 m 8.22656,1.05469 0,0.21094 0.42188,0.42187 c 1.40623,1e-5 2.10936,-0.35155 2.10937,-1.05469 l -2.53125,0.42188 m 17.92969,-0.21094 0.21094,0 0,0.42188 -0.63281,0 0.42187,-0.42188 m 17.08594,0.63281 c -5e-5,0.28126 -0.49224,0.84376 -1.47656,1.6875 l 0.63281,0 c 0.21089,1e-5 0.56245,-0.56249 1.05469,-1.6875 l -0.21094,0 m -22.35938,0.63282 0.42188,0 0,0.21093 -0.42188,0.42188 0,-0.63281 m -4.00781,0.63281 1.26563,1.05469 0,0.63281 -0.21094,-0.21094 -0.21094,0.21094 -0.42187,0 -0.21094,-0.21094 -0.21094,0 0.42188,1.05469 c -0.70315,-0.65624 -1.05471,-1.42968 -1.05469,-2.32031 l 0.42187,0 c -2e-5,0.46875 0.35154,0.82032 1.05469,1.05468 l 0,-0.21093 c -0.56252,-0.21093 -0.84377,-0.42187 -0.84375,-0.63282 l 0,-0.42187 m 4.00781,0 0.21094,0.21094 0,0.42187 -0.63281,-0.21094 0.42187,-0.42187 m 0.84375,1.26562 1.6875,0.84375 -1.05468,0.21094 c -0.32816,1e-5 -0.53909,-0.35156 -0.63282,-1.05469 m -10.96875,1.05469 -6.11718,-0.21094 -3.375,0 -1.26563,0.21094 -1.05469,-0.21094 -0.42187,0 0,0.21094 1.05469,0.21094 5.90625,-0.21094 5.27343,0.42188 c 0.84374,-0.1875 1.26561,-0.39844 1.26563,-0.63282 l 0,-0.21093 -1.26563,0.42187 m 17.71875,-0.42187 0,0.21093 0.63282,0.42188 8.64843,-0.21094 4.21875,0.21094 0.63282,-0.21094 0,-0.21094 -0.42188,0 -0.21094,0.21094 -1.05468,-0.21094 -7.17188,0 -4.42969,0.21094 -0.84375,-0.42187 m -13.07812,0.21093 c 0.21092,0.56251 0.42185,0.84376 0.63281,0.84375 l -0.63281,-0.84375 m 5.69531,-0.21093 0.21094,0 1.05469,0.63281 0,0.21094 -0.63282,0 -0.63281,-0.84375 m -24.46875,1.05468 0,0.42188 0.63281,-0.42188 c 0.42188,1e-5 0.63281,0.28126 0.63282,0.84375 l 0.42187,0 0,-0.42187 -0.84375,-0.84375 -0.42187,0 -0.42188,0.42187 m 5.27344,0.42188 0.21094,1.05469 -0.63282,0.63281 -0.84375,0 c -0.14063,-1.26562 -0.49219,-1.89843 -1.05468,-1.89844 l 0,0.21094 c 0.2578,0 0.46874,0.63282 0.63281,1.89844 l 0.84375,0 c 0.74999,0 1.24218,-0.28125 1.47656,-0.84375 l 0,-0.42188 -0.21094,-0.63281 0.21094,0 0.84375,-0.21094 0.42188,0 0.21093,0.63281 -0.42187,0.42188 c -1e-5,0.42188 0.42187,0.63281 1.26562,0.63281 l -0.42187,0.63281 1.47656,0 c 0.77343,1e-5 1.33593,-0.35156 1.6875,-1.05468 l 0,-1.26563 -0.21094,0 c -0.23438,1e-5 -0.44532,0.42188 -0.63281,1.26563 l -1.05469,0.21093 -0.84375,0 -0.42187,-0.42187 0,-0.42188 0.21094,-0.63281 -0.21094,0 -0.84375,-0.21094 -1.05469,0 -0.63281,0.42188 m 37.54687,0.21094 0,1.05468 0.84375,0.84375 0.21094,-0.84375 c 0.82027,0.70313 1.52339,1.05469 2.10938,1.05469 0.58589,-0.1875 1.00776,-0.53906 1.26562,-1.05469 l 0,-0.21093 -0.21094,-1.05469 -0.42187,0 0,0.21094 0.21094,0.21093 0,0.21094 c -0.14068,0.5625 -0.56255,0.84375 -1.26563,0.84375 -0.70317,0 -1.19536,-0.56249 -1.47656,-1.6875 l -0.84375,0 -0.42188,0.42188 m -19.82812,-0.21094 0,0.42187 0.21094,0 0,-0.42187 -0.21094,0 m -10.125,0.21094 0,0.21093 0.42187,0 0,-0.21093 -0.42187,0 m 0.63281,0 0,0.21093 c 0.42186,1e-5 0.6328,0.14063 0.63281,0.42188 l 0,0.21094 c -0.14064,0.42187 -0.56251,0.63281 -1.26562,0.63281 -0.70314,0 -1.0547,-0.28125 -1.05469,-0.84375 l -0.21094,0 0,0.63281 0.84375,0.63281 1.26563,0 0.63281,-0.63281 0,-1.26562 -0.84375,0 m 2.74219,0.84375 c 0.67967,0.42187 1.59373,0.63281 2.74219,0.63281 0.72654,0 1.14841,-0.21094 1.26562,-0.63281 l -1.6875,0 c -2e-5,-0.28125 0.28123,-0.42187 0.84375,-0.42188 l -0.42187,-0.42187 -1.26563,0 c -0.75002,0 -1.2422,0.28125 -1.47656,0.84375 m -15.82031,-0.63282 0,0.42188 0.21093,0 0,-0.42188 -0.21093,0 m 0.84375,0.63282 0,0.42187 0.21093,0 c 0.72656,0 1.14844,-0.21093 1.26563,-0.63281 l 0,-0.42188 c -0.42188,0.42188 -0.91407,0.63282 -1.47656,0.63282 m 20.25,0.21093 1.05468,0 0,-0.42187 -0.63281,0 -0.42187,0.42187 m 2.32031,-0.21093 0,0.21093 0.21094,0.21094 0,0.21094 -1.05469,0 0,0.21094 1.89844,0 2.53125,-0.21094 0,-0.21094 -2.32032,-0.63281 -1.26562,0.21094 m 17.50781,0.21093 0,0.21094 0.21094,0 0.42187,-0.42187 0,-0.21094 -0.21093,0 -0.42188,0.42187 m -1.6875,0 0,0.42188 0.42188,0 0,-0.42188 -0.42188,0 m -39.23437,0.42188 0,0.21094 0.21093,0.21093 0.63282,0 0,-0.21093 -0.84375,-0.21094 m 19.82812,0.42187 0,0.21094 0.63281,0 1.05469,-0.21094 0,-0.42187 -0.84375,0 -0.84375,0.42187 m 20.25,-0.42187 0,0.42187 0.42188,0 0,-0.42187 -0.42188,0"
         style="font-size:72px;font-variant:normal;font-stretch:normal;font-family:Goudy Initials;-inkscape-font-specification:Goudy Initials"
         id="path4220" />
    </g>
  </g>
</svg>
