<?xml version="1.0" encoding="UTF-8" standalone="no"?>
<!-- Created with Inkscape (http://www.inkscape.org/) -->

<svg
   xmlns:dc="http://purl.org/dc/elements/1.1/"
   xmlns:cc="http://creativecommons.org/ns#"
   xmlns:rdf="http://www.w3.org/1999/02/22-rdf-syntax-ns#"
   xmlns:svg="http://www.w3.org/2000/svg"
   xmlns="http://www.w3.org/2000/svg"
   xmlns:sodipodi="http://sodipodi.sourceforge.net/DTD/sodipodi-0.dtd"
   xmlns:inkscape="http://www.inkscape.org/namespaces/inkscape"
   width="56.734375"
   height="56.734375"
   id="svg2"
   version="1.1"
   inkscape:version="0.48.5 r10040"
   sodipodi:docname="h.svg">
  <defs
     id="defs4" />
  <sodipodi:namedview
     id="base"
     pagecolor="#ffffff"
     bordercolor="#666666"
     borderopacity="1.0"
     inkscape:pageopacity="0"
     inkscape:pageshadow="2"
     inkscape:zoom="3.959798"
     inkscape:cx="43.996764"
     inkscape:cy="-4.4843295"
     inkscape:document-units="px"
     inkscape:current-layer="layer1"
     showgrid="false"
     fit-margin-top="2"
     fit-margin-left="2"
     fit-margin-right="2"
     fit-margin-bottom="2"
     inkscape:window-width="1366"
     inkscape:window-height="733"
     inkscape:window-x="0"
     inkscape:window-y="0"
     inkscape:window-maximized="1"
     showborder="true"
     borderlayer="false" />
  <metadata
     id="metadata7">
    <rdf:RDF>
      <cc:Work
         rdf:about="">
        <dc:format>image/svg+xml</dc:format>
        <dc:type
           rdf:resource="http://purl.org/dc/dcmitype/StillImage" />
        <dc:title></dc:title>
      </cc:Work>
    </rdf:RDF>
  </metadata>
  <g
     inkscape:label="Layer 1"
     inkscape:groupmode="layer"
     id="layer1"
     transform="translate(-152.28125,-146.34738)">
    <g
       style="font-size:40px;font-style:normal;font-weight:normal;line-height:125%;letter-spacing:0px;word-spacing:0px;fill:#ffffff;fill-opacity:1;stroke:none;font-family:Sans"
       id="flowRoot2985">
      <path
         d="m 154.28125,148.34738 52.73437,0 0,52.73438 -52.73437,0 0,-52.73438 m 1.05469,1.05469 0,50.625 50.625,0 0,-50.625 -50.625,0 m 0.42187,0.63281 49.57031,0 0,49.57032 -49.57031,0 0,-49.57032 m 6.32813,1.47657 c 1.05468,-0.56245 2.3203,-0.8437 3.79687,-0.84375 2.15624,5e-5 4.05467,0.70317 5.69531,2.10937 l 0,0.21094 0.63282,0 0,-0.21094 c -1.71096,-1.68745 -3.89064,-2.5312 -6.53907,-2.53125 -2.39063,0.42193 -3.58594,0.8438 -3.58593,1.26563 m -5.48438,0.42187 0,0.21094 0.21094,0 c 0,-0.60933 0.28125,-1.0312 0.84375,-1.26563 l 0.63281,0 c 0.5625,5e-5 0.84375,0.63287 0.84375,1.89844 l 0.21094,0 0.21094,-1.05469 c -0.21095,-0.8437 -0.70313,-1.26557 -1.47657,-1.26562 l -0.63281,0 c -0.375,5e-5 -0.65625,0.49224 -0.84375,1.47656 m 17.71875,-1.05469 0,0.21094 0.63281,0 1.47657,-0.21094 c 0.56247,0.21099 0.84372,0.42193 0.84375,0.63282 -0.28128,0.63286 -0.56252,0.98442 -0.84375,1.05468 l -0.42188,0 -1.26562,-0.21093 -0.21094,0 0,0.21093 1.6875,0.21094 c 0.98435,-0.18745 1.47654,-0.4687 1.47656,-0.84375 l 0,-0.63281 c -2e-5,-0.42183 -0.56252,-0.70308 -1.6875,-0.84375 -0.42189,0.2813 -0.98439,0.42192 -1.6875,0.42187 m 10.54688,0.21094 0,0.21094 c -3e-5,0.98442 0.35153,1.47661 1.05468,1.47656 l 1.47657,0 0,-0.21094 c -1.54691,5e-5 -2.32035,-0.2812 -2.32032,-0.84375 l 0,-0.42187 0.63282,-0.63281 0.63281,0.42187 0.21094,0 c -3e-5,-0.35151 -0.28128,-0.56245 -0.84375,-0.63281 -0.56253,0.21099 -0.84378,0.42192 -0.84375,0.63281 m 17.50781,0.42188 0,1.05468 -0.42188,0 -1.26562,-0.63281 0,0.42188 c 1.45308,1.71098 2.22651,2.97661 2.32031,3.79687 l -0.84375,0 0,-0.42187 0.21094,-0.21094 0,-0.21094 -0.21094,0 -0.21094,0.21094 c -4e-5,-0.79683 -0.56254,-1.64058 -1.6875,-2.53125 L 199,153.19895 l 0.21094,0.21093 0,0.21094 -0.21094,0.63281 -0.21094,-0.21093 -0.21094,0 -0.42187,1.26562 0,0.21094 0.42187,0.42187 0.21094,0 c -4e-5,-0.8437 0.14058,-1.26557 0.42188,-1.26562 1.42964,5e-5 2.3437,1.19536 2.74218,3.58594 l 1.47657,0.84375 0.21093,0 0,-1.47657 -0.21093,-3.58593 -0.42188,0 c 0.14058,-1.68745 0.35152,-2.5312 0.63281,-2.53125 l 0.21094,0 c 0.2812,5e-5 0.42183,0.21098 0.42188,0.63281 l 0.42187,-0.42188 c -0.2813,-0.74995 -0.63286,-1.17182 -1.05469,-1.26562 -0.58598,0.18755 -1.00786,0.53911 -1.26562,1.05469 m -14.76563,4.64062 -0.84375,-0.42187 c -1.12503,4e-5 -1.75784,2.17973 -1.89843,6.53906 l -0.21094,0.63281 -0.21094,0.21094 c -3e-5,0.28129 -0.21096,0.42191 -0.63281,0.42187 l 0,0.21094 0.63281,0 0.63281,-1.05469 0.21094,0.21094 0.21094,0 0.63281,-0.63281 -0.63281,-2.10938 0,-0.42187 0.63281,0 0,1.05469 0.21094,0.21093 0,0.21094 0.21094,-0.21094 0.21093,0 0.84375,0.63282 0,-1.26563 -0.42187,-0.63281 0,-0.21094 0.42187,0 0,-0.42187 -1.05468,-1.26563 0,-0.21094 0.21093,-0.21093 0,-0.21094 -0.42187,0 0,-0.21094 0.21094,-0.21094 -0.21094,-0.21093 0,-0.42188 0.21094,0 c 0.23434,5e-5 0.44528,0.35161 0.63281,1.05469 l -0.21094,0.63281 0.84375,0.63281 c -3e-5,-3.56245 1.40622,-5.88276 4.21875,-6.96093 0.56246,-0.2812 1.68746,-0.49214 3.375,-0.63282 l 2.95313,0.63282 -0.21094,0.21093 0,0.21094 0.21094,-0.21094 0.21093,0 1.47657,0.42188 0,-0.21094 c -0.72661,-0.8437 -1.92192,-1.26557 -3.58594,-1.26562 l -2.53125,0 c -1.94535,5e-5 -3.84379,1.19536 -5.69531,3.58593 l -0.63282,1.89844 m 12.86719,-5.48437 0,0.84375 1.05469,-0.42188 0,-0.42187 -1.05469,0 m -19.82812,0.42187 0,0.63281 0.63281,0 0,-0.63281 -0.63281,0 m -16.24219,0.63281 c 0.42186,5e-5 0.6328,0.21099 0.63281,0.63282 l 0.21094,0 0.63281,-0.21094 0,-0.21094 -0.63281,-0.63281 -0.42188,0 -0.42187,0.42187 m 25.10156,-0.21093 0,0.42187 0.84375,-0.42187 0,-0.21094 -0.21094,0 -0.63281,0.21094 m -31.21875,6.75 0,0.42187 0.21094,0 c 0,-2.48433 1.12499,-4.87495 3.375,-7.17187 -2.39063,1.35942 -3.58594,3.60942 -3.58594,6.75 m 5.0625,-6.75 0,0.21093 0.63281,0 0,-0.21093 -0.63281,0 m 32.48438,1.26562 0.21093,0.21094 0.21094,0 -0.21094,-0.21094 0,-0.21094 c -4e-5,-0.4687 0.49215,-0.74995 1.47657,-0.84375 l 0,-0.21093 -0.84375,0 c -0.56254,0.14067 -0.84379,0.56255 -0.84375,1.26562 m -7.17188,-0.84375 0,0.21094 0.42188,0 0.21093,-0.21094 0,-0.21094 -0.63281,0.21094 m -1.05469,0.42188 0,0.21093 0.42188,0 0,-0.21093 -0.42188,0 m -20.25,0.63281 c 0.0469,0.37505 0.39843,0.6563 1.05469,0.84375 l 0.21094,-0.63281 0,-0.21094 -0.21094,0 0,0.42187 -0.63281,0 0.42187,-0.84375 -0.42187,0 -0.42188,0.42188 m 2.95313,-0.42188 c -2e-5,0.56255 -0.21095,0.8438 -0.63281,0.84375 l 0,0.21094 0.84375,0 0,-1.05469 -0.21094,0 m 31.00781,0 1.05469,0.84375 0.21094,-0.21093 0.42187,0.63281 -0.42187,0 0.21093,0.21094 0,0.21093 -0.21093,0 -1.26563,-1.47656 0,-0.21094 m -39.44531,2.74219 c -1e-5,0.23442 0.42187,0.44536 1.26562,0.63281 0.77343,-1.82807 1.54687,-2.74214 2.32032,-2.74218 l 0.63281,0.21093 0.21094,-0.21093 0.21093,0.84375 -0.42187,-0.42188 -0.84375,0.42188 0.21094,0.63281 -0.84375,0.63281 0,-0.42187 0.42187,-0.63282 0,-0.21093 c -0.56251,0.23442 -0.84376,0.72661 -0.84375,1.47656 l 0.42188,0 -0.21094,2.10937 0,0.21094 0.21094,0 c 0.46874,5e-5 0.96092,-0.21089 1.47656,-0.63281 l 0.21094,0 0.21093,0.21094 0.21094,0 0,-0.21094 -0.21094,-0.21094 0,-0.21094 c 0.42187,5e-5 0.6328,-0.2812 0.63282,-0.84375 l 0.21093,0 0,0.63282 0.21094,0 c 0.0937,-0.84371 0.30468,-1.26558 0.63281,-1.26563 l 0.21094,0 0,0.21094 c -1e-5,0.42192 -0.42189,1.26567 -1.26562,2.53125 -2e-5,0.46879 0.49217,0.82035 1.47656,1.05469 l 0,-0.21094 -0.21094,-1.05469 c 0.42186,-0.72652 0.6328,-1.42964 0.63281,-2.10937 -1e-5,-0.98433 -0.4922,-1.47652 -1.47656,-1.47657 l -0.63281,0.63282 -0.21094,-0.21094 0,-0.21094 0.21094,-0.63281 c -0.21095,-0.56245 -0.42189,-0.8437 -0.63281,-0.84375 l -1.47657,0 c -1.47657,1.54692 -2.46094,2.32036 -2.95312,2.32031 m 10.33594,-1.89844 0,0.42188 c 3.5156,0.67973 5.27341,1.52348 5.27343,2.53125 0.28123,4e-5 0.56248,1.05473 0.84375,3.16406 l -0.21093,5.0625 0,14.97656 1.47656,0.21094 0.63281,0 c 0.98435,2e-5 1.47654,-0.1406 1.47656,-0.42187 l -0.21093,-3.16407 0.21093,-5.48437 0,-11.60156 c 0.28123,-3.09371 1.33591,-4.64058 3.16407,-4.64063 1.96871,-0.23433 2.95309,-0.51558 2.95312,-0.84375 l -0.21094,-0.21094 -0.21093,0 -7.59375,0.21094 -6.96094,-0.42187 -0.63281,0.21093 m 17.92968,3.16407 0,1.89843 0.42188,0 0.63281,-2.53125 -0.21094,-0.21093 0.63282,0 0,0.21093 -0.21094,0.63282 0.21094,0.21093 0.21093,0 c 0.42184,-1.82807 0.91403,-2.74214 1.47657,-2.74218 l 0.42187,0 0,0.21093 c -0.70316,0.53911 -1.05472,1.10161 -1.05469,1.6875 l 0.42188,0 -0.42188,1.47657 1.26563,0 0.63281,-0.63282 -1.05469,0.42188 0,-0.21094 c -3e-5,-0.32808 0.35153,-0.53902 1.05469,-0.63281 l 0,0.21094 0.21094,-0.21094 0.21094,0 0.21093,0.21094 0.21094,0 -0.42187,0.84375 0.63281,0 -0.21094,-0.21094 0,-0.21094 0.21094,-0.21094 0.63281,0 c -4e-5,0.42192 0.2109,0.63286 0.63281,0.63282 0.70309,4e-5 1.05465,0.21098 1.05469,0.63281 l 0.21094,0 0,-0.42188 -0.84375,-0.42187 0,-0.21094 0.42187,-0.42187 0.21094,0.21093 0,-0.21093 -1.05469,-0.42188 0,0.21094 -0.63281,-0.21094 0,-0.63281 0.42188,0 0,-0.21094 -0.63282,0 -1.47656,0.21094 0,-0.42188 c 1.12496,-0.0937 1.68746,-0.23432 1.6875,-0.42187 l 0.21094,0.21094 0.42187,0 c -1.05472,-0.98433 -1.89847,-1.47652 -2.53125,-1.47657 l -0.63281,0 c -1.89847,5e-5 -3.09378,1.05474 -3.58594,3.16407 m -29.10937,-2.95313 0,0.84375 -0.21094,0 -0.21094,-0.21094 -0.21093,0 0,0.42188 -0.21094,0 c 0.14062,0.70317 0.56249,1.05473 1.26562,1.05469 l -0.21093,-0.21094 0,-0.21094 0.21093,-1.47656 -0.21093,-0.21094 -0.21094,0 m 28.47656,0.21094 -0.21094,0.21094 0,0.21093 0.21094,0 0.21094,-0.21093 0,-0.21094 -0.21094,0 m 4.64063,0 0.63281,0 0,0.42187 -0.42188,0.42188 -0.21093,0 0,-0.84375 m -21.51563,0.42187 0,0.21094 4.00781,1.47656 0,-0.21093 c -0.96095,-0.56246 -2.29689,-1.05464 -4.00781,-1.47657 m 22.78125,-0.21093 0.42188,0.63281 -0.84375,0 0,-0.21094 0.42187,-0.42187 m -25.52344,0.84375 0,0.21093 1.05469,-0.21093 0,-0.42188 -0.63281,0 -0.42188,0.42188 m 12.23438,24.67968 0.21094,0 0.21093,-11.39062 -0.21093,-4.21875 0.21093,-5.0625 0,-0.63281 c -2e-5,-1.99215 1.54685,-3.18746 4.64063,-3.58594 l 0,-0.21094 c -3.37503,0.32817 -5.06253,1.66411 -5.0625,4.00781 l 0,21.09375 m -14.13281,-24.89062 0.42187,0 0,0.42187 -0.84375,0 0.42188,-0.42187 m 20.88281,0.21094 0,1.26562 0.63281,0 0,-0.21094 -0.42187,-1.05468 -0.21094,0 m 2.95312,0 0,0.63281 -0.42187,0 -0.42188,-0.42188 0.84375,-0.21093 m -35.22656,0.63281 0,0.42187 0.63281,0.21094 0,-0.42187 -0.63281,-0.21094 m 16.45313,0 0,2.10937 c -2e-5,1.61723 -1.12502,2.95317 -3.375,4.00782 l -1.05469,0.21093 c -2.39064,-0.46871 -3.58595,-1.5937 -3.58594,-3.375 l -0.21094,0 0,0.63282 c -1e-5,1.61722 1.40624,2.67191 4.21875,3.16406 1.78124,4e-5 3.18749,-1.3359 4.21875,-4.00781 l 0.21094,-1.26563 0,-1.05469 -0.42187,-0.42187 m 23.83593,0 0,0.21094 0.63282,0.21093 0,-0.42187 -0.63282,0 m -27,0.42187 c 0.14061,0.56255 0.49218,0.8438 1.05469,0.84375 l 0.42188,0 0,-0.21093 c -0.56252,4e-5 -1.05471,-0.2109 -1.47657,-0.63282 m 2.10938,0 -0.42188,0.63282 0.21094,0 0.42188,-0.63282 -0.21094,0 m 2.10937,0 0,0.42188 c 0.14061,0.56254 0.42186,0.84379 0.84375,0.84375 l 0.42188,0 0,-0.21094 c -0.70315,5e-5 -1.05471,-0.35152 -1.05469,-1.05469 l -0.21094,0 m 25.52344,0 0,0.21094 c 0.42183,5e-5 0.63277,0.2813 0.63281,0.84375 l -0.42187,0.42188 0.63281,0 0.21094,-0.84375 -0.21094,-0.63282 -0.84375,0 m -40.28906,1.26563 0.21094,0 0.21093,-0.63281 0.84375,0 c 0.42187,4e-5 0.63281,0.28129 0.63282,0.84375 l 0.21093,0 0,-0.63282 c -0.14063,-0.42183 -0.5625,-0.63276 -1.26562,-0.63281 -0.28126,0.0704 -0.56251,0.42192 -0.84375,1.05469 m 3.375,0.21094 0.21094,0.21093 0.21093,0 -0.21093,1.05469 0,0.42188 1.47656,-0.21094 -0.63281,-0.63281 -0.21094,0.21093 0,-0.21093 0.21094,-0.21094 0,-0.21094 -0.42188,-1.47656 c -0.56251,0.14067 -0.84376,0.49223 -0.84375,1.05469 l 0.21094,0 m 39.44531,-0.84375 0.84375,0 0.21094,1.05468 -0.42188,0 -0.42187,-0.42187 0.42187,0 0,-0.21094 c -0.42192,5e-5 -0.63286,-0.14058 -0.63281,-0.42187 m -10.75781,0.63281 -0.63281,1.89844 1.89843,-0.84375 0,0.21093 -0.21093,0.84375 0.84375,0 c 0.46871,5e-5 0.9609,-0.21089 1.47656,-0.63281 l 0.21094,0 -0.21094,1.05469 0.21094,-0.21094 0.63281,0 0.63281,0.63281 0,0.21094 c -4e-5,1.31254 -0.98441,2.08598 -2.95312,2.32031 l -0.63282,0 c -1.89847,4e-5 -3.37503,-1.05464 -4.42968,-3.16406 l -0.21094,0 0,0.42188 c 0.35153,0.89066 0.91403,1.52347 1.6875,1.89843 0.67965,0.84379 2.0859,1.26567 4.21875,1.26563 1.24215,4e-5 2.43746,-0.84371 3.58594,-2.53125 l -0.21094,-1.26563 0.63281,0 c -4e-5,-1.12495 -1.12504,-1.68745 -3.375,-1.6875 l -2.95312,0.42188 0.42187,-0.63281 -0.63281,-0.21094 m -5.69531,0 0.21093,0 c 0.21091,4e-5 0.56247,0.70317 1.05469,2.10937 l -0.63281,0 0,-0.42187 -0.21094,0 0,0.63281 -0.84375,-0.21094 0,-0.21093 0.42188,0 0,-0.21094 -0.42188,0 0.21094,-0.63281 0.63281,0.42187 -0.42187,-1.47656 m -19.82813,0.63281 -0.21094,1.05469 c 0.56249,-0.14058 0.84374,-0.49215 0.84375,-1.05469 l -0.63281,0 m 3.375,0 c -1e-5,0.84379 -0.14064,1.40629 -0.42187,1.6875 l 0.42187,0 c 0.28124,4e-5 0.42186,-0.21089 0.42188,-0.63281 l 0.21093,-0.21094 0.21094,0 0,0.63281 0.21094,0 0.63281,-0.63281 -0.42187,-0.42187 0.21093,-0.21094 0,-0.21094 -0.21093,0 -1.05469,0.21094 -0.21094,-0.21094 m 5.0625,0.42188 0.63281,0 0,-0.42188 -0.21093,0 -0.42188,0.42188 m 28.26563,-0.42188 0.63281,0 0,0.42188 -0.21094,0 -0.42187,-0.42188 m -42.60938,0.63281 -0.42187,0.42188 -0.21094,0 -0.21094,-0.21094 -0.21094,0 -0.21093,1.05469 0,0.63281 0.42187,1.05469 0.21094,0 0,-0.42188 0.42187,0 0,0.84375 c -1.125,4e-5 -1.6875,-0.28121 -1.6875,-0.84375 l 0.21094,-1.47656 -0.84375,-0.63281 -0.63281,0.21094 0,0.63281 c 0.5625,4e-5 0.84375,0.63285 0.84375,1.89844 l 0.63281,0.63281 0.42188,0 c 0.98437,4e-5 1.47655,-0.42184 1.47656,-1.26563 l -0.63281,-1.26562 c 0.14062,-0.56246 0.49218,-0.84371 1.05468,-0.84375 l 0,-0.21094 -0.63281,-0.21094 m 13.71094,0 0,0.63282 0.21094,0 0,-0.63282 -0.21094,0 m 1.6875,0 0,0.21094 c 0.98435,4e-5 1.47654,0.28129 1.47656,0.84375 l 0.21094,0 0,-0.42187 -1.26563,-0.63282 -0.42187,0 m 20.03906,-0.21093 0.42188,0 0.63281,1.26562 -0.21094,0 c -0.56254,-0.21089 -0.84379,-0.42183 -0.84375,-0.63281 l 0,-0.63281 m 0.63281,0.21093 0.21094,0 0.63281,0.21094 0,0.42188 c -0.56254,-0.2109 -0.84379,-0.42184 -0.84375,-0.63282 m 3.375,1.89844 0,1.05469 0.21094,0 c -4e-5,-1.49996 0.35152,-2.34371 1.05469,-2.53125 l 0.42187,0 c 0.70308,4e-5 1.47652,0.49223 2.32032,1.47656 -0.53911,-1.12496 -1.24224,-1.68746 -2.10938,-1.6875 l -0.21094,0 c -1.12504,0.14067 -1.68754,0.70317 -1.6875,1.6875 m -25.3125,-0.84375 0.21094,0.21094 0.21094,0 0.42187,-0.42188 0,-0.42187 -0.21093,0 -0.63282,0.63281 m -0.84375,0.21094 0,0.84375 0.63282,0 0,-0.21094 -0.21094,-0.63281 -0.42188,0 m 3.79688,0 c -2e-5,1.03129 -0.14065,1.73441 -0.42188,2.10937 l 0.21094,0 0.42188,-1.05468 0,-1.05469 -0.21094,0 m 12.02344,0.21094 0,0.21093 1.47656,1.26563 0,-0.21094 -1.47656,-1.26562 m 3.375,0.42187 c 0.84371,4e-5 1.26558,0.21098 1.26562,0.63281 -4e-5,0.56254 -0.63285,0.84379 -1.89844,0.84375 l 0,0.21094 1.6875,0 0.63282,-0.84375 0,-0.63281 -0.63282,-0.63281 -0.63281,0 -0.42187,0.42187 m 9.49218,-0.42187 c -4e-5,1.87504 -1.89848,3.77347 -5.69531,5.69531 -2.06254,0.39847 -4.38285,1.38285 -6.96094,2.95312 l 0,0.21094 0.21094,0 c 1.26559,-0.84372 4.35934,-2.03903 9.28125,-3.58594 2.17964,-1.54683 3.51558,-2.81246 4.00781,-3.79687 l 0,-0.84375 -0.63281,-0.63281 -0.21094,0 m -27.63281,0.21093 0,0.42188 0.63281,0 0,-0.42188 -0.63281,0 m 26.15625,0 -0.21094,0.63282 0.63282,0.42187 0.21093,0 0,-0.63281 -0.42187,-0.42188 -0.21094,0 m -39.44531,1.26563 0,0.42187 0.84375,0.84375 0,-0.21093 -0.21094,-0.84375 c 0.28124,-0.42184 1.05468,-0.63278 2.32031,-0.63282 l 0,-0.21093 -1.47656,-0.42188 c -0.86719,0.28129 -1.35938,0.63285 -1.47656,1.05469 m 42.39844,-0.84375 0,0.21094 0.21093,0.84375 0.21094,0 0,-0.42188 -0.21094,-0.63281 -0.21093,0 m -39.23438,0.42187 0,0.21094 1.47656,0.63281 0,-0.21093 -1.26562,-0.63282 -0.21094,0 m 9.07031,0.42188 0,0.42187 0.21094,0.21094 0,0.21094 -1.6875,2.10937 0,0.21094 0.42188,0.63281 -1.05469,1.05469 0.21094,0 0.84375,-0.84375 0.63281,0.63281 c 0.84373,4e-5 1.26561,-0.35152 1.26562,-1.05468 l 1.05469,0 0.42188,-0.42188 0,-0.21094 -0.42188,0 0.63281,-1.05468 c -0.56252,3e-5 -0.84377,-0.14059 -0.84375,-0.42188 l -1.47656,0.84375 -0.42187,0 0,-0.21094 c -2e-5,-0.2109 0.28123,-0.42183 0.84375,-0.63281 l 0.21093,-0.21094 0,-0.84375 -0.84375,-0.42187 m 14.97657,0 0,0.21094 c 1.03121,1.07816 2.6484,1.92191 4.85156,2.53125 l 0.42187,0.84375 0,0.21093 -0.42187,0.63282 0.63281,0 0.21094,-1.05469 c -4e-5,-0.56246 -1.40629,-1.26559 -4.21875,-2.10938 l -1.47656,-1.26562 m -16.66407,0.21094 -0.42187,0.63281 0,0.42187 0.42187,0.42188 0.21094,0 -0.42187,-0.63281 0.42187,-0.84375 -0.21094,0 m 19.61719,0 0,0.21093 0.42188,0 0,-0.21093 -0.42188,0 m 12.65625,0.21093 -0.21094,2.10938 0,0.21094 0.21094,0 0.21094,-1.26563 0,-1.05469 -0.21094,0 m -27.42187,0.21094 -0.42188,0.63281 0.21094,0 0.42187,-0.63281 -0.21093,0 m -17.08594,0.42188 c -1e-5,1.33597 1.33593,2.81253 4.00781,4.42968 l 2.10938,0.84375 0,-0.42187 c -1.40626,3e-5 -3.23439,-1.26559 -5.48438,-3.79688 0,-0.70308 -0.14063,-1.05464 -0.42187,-1.05468 l -0.21094,0 m 3.79687,2.10937 c 0,0.93754 0.49218,1.57035 1.47657,1.89844 l 0.21093,0 0,-0.21094 c -0.5625,4e-5 -0.98438,-0.63278 -1.26562,-1.89844 0.18749,-0.5859 0.53905,-1.00777 1.05469,-1.26562 l 0.21093,0 c 0.46874,4e-5 0.96093,0.21097 1.47657,0.63281 -0.28126,-0.84371 -0.84376,-1.26558 -1.6875,-1.26562 -0.98439,0.37504 -1.47657,1.07816 -1.47657,2.10937 m 23.83594,-1.89844 0,0.21094 0.42188,0.42188 0.21093,-0.21094 0,-0.21094 -0.21093,-0.21094 -0.42188,0 m 1.05469,0 0,0.42188 0.21094,0 0,-0.42188 -0.21094,0 m 8.85937,0 0.63282,1.05469 c -0.32817,0.84379 -0.82036,1.26566 -1.47657,1.26563 l 0,0.21093 0.21094,0 c 1.12496,-0.44527 1.68746,-1.07808 1.6875,-1.89843 l -0.63281,-0.63282 -0.42188,0 m 5.48438,0.42188 0.84375,0.21094 0,-0.21094 -0.42188,-0.42188 -0.42187,0.42188 m -35.4375,1.47656 0,0.42188 c -1e-5,0.49222 0.28124,0.98441 0.84375,1.47656 l -1.6875,0.42187 c 0.28124,0.63285 0.56249,0.98441 0.84375,1.05469 l 0,-0.21094 -0.21094,-0.21093 0.21094,-0.21094 1.47656,0.42187 0,0.42188 -0.63281,0 0,0.21094 2.10937,0.21093 0,-1.26562 c -0.98438,-0.9609 -1.47657,-1.73434 -1.47656,-2.32031 -1e-5,-0.56247 0.28124,-0.98434 0.84375,-1.26563 l 0.42188,0 0.63281,0.42188 0,-0.63282 c -0.14064,-0.42183 -0.56252,-0.63277 -1.26563,-0.63281 -0.63282,4e-5 -1.19532,0.56254 -1.6875,1.6875 l -0.42187,0 m 21.9375,-1.26562 0,0.42187 0.42187,-0.42187 -0.42187,0 m -1.05469,0.42187 0,0.42188 0.63281,0 -0.42187,-0.42188 -0.21094,0 m -13.07812,0 c -0.46877,0.84379 -1.03127,1.26566 -1.6875,1.26563 l 0,-0.21094 c 0.39842,-0.70309 0.96092,-1.05465 1.6875,-1.05469 m 26.78906,0.42188 0,0.21093 c 1.4062,1.05473 2.10933,2.39066 2.10937,4.00782 l 0.21094,0 0,-0.84375 c -5e-5,-0.93747 -0.70317,-2.06247 -2.10937,-3.375 l -0.21094,0 m -11.8125,0.21093 -0.63281,1.05469 0.21093,0 0.42188,-0.42187 0.63281,0 c 0.32809,3e-5 0.53903,0.3516 0.63281,1.05468 l -0.84375,1.26563 c 0.84372,-0.28122 1.26559,-0.84372 1.26563,-1.6875 -0.28129,-0.84371 -0.84379,-1.26559 -1.6875,-1.26563 m -4.21875,1.47657 0.21094,1.6875 0.21093,0 c -3e-5,-1.54684 0.21091,-2.32028 0.63282,-2.32032 l 0.42187,0 0.84375,0.84375 0,0.84375 c -3e-5,0.58598 -0.91409,2.06254 -2.74219,4.42969 l -0.42187,0.84375 c -3e-5,1.12503 0.70309,1.75784 2.10937,1.89844 2.81247,-1.96872 4.49997,-2.9531 5.0625,-2.95313 1.12497,0.0938 1.68747,0.58597 1.6875,1.47657 l 0.21094,0 0.21094,-0.84375 c -4e-5,-0.84372 -0.84379,-1.2656 -2.53125,-1.26563 l 0.42187,-1.05469 -0.21093,0 -0.21094,-0.21093 c -1.54691,0.25784 -2.32035,0.6094 -2.32031,1.05468 l 1.6875,-0.63281 0.42187,0 c -3e-5,0.28128 -0.84378,0.70316 -2.53125,1.26563 l 0,-0.21094 0.21094,-0.21094 0,-0.21094 -0.21094,0 c -1.35941,1.68753 -2.27347,2.53128 -2.74219,2.53125 l -0.21093,-0.63281 c 1.82809,-1.42966 2.74215,-2.34372 2.74218,-2.74219 l -0.21093,0 c -0.44535,0.79691 -0.93754,1.35941 -1.47657,1.6875 l -0.21093,0 0,-0.42187 c 0.42184,3e-5 0.7734,-0.42184 1.05468,-1.26563 l 0.84375,-0.42187 0.21094,0.21094 0,-0.21094 -0.21094,-0.21094 0.42188,-0.42187 0,-0.21094 -0.21094,0.21094 -0.42187,0 0.21093,-1.47657 0,-1.26562 -1.26562,-1.05469 -0.21094,0 c -0.9844,0.11723 -1.47659,0.5391 -1.47656,1.26563 m -28.89844,-1.05469 0,0.63281 0.21094,0 0.42187,-0.42187 -0.21093,-0.21094 -0.42188,0 m 1.26563,0 0,0.42187 0.42187,0.42188 0.21094,-0.21094 0,-0.63281 -0.63281,0 m 16.45312,0.84375 0,0.21094 c 0.70311,3e-5 1.05467,0.28128 1.05469,0.84375 l 0.21094,0 0.21093,-1.05469 0,-0.21094 -0.42187,0 -1.05469,0.21094 m -14.34375,0.21094 0,0.21093 0.21094,0.21094 0,0.21094 1.05469,-0.21094 0,-0.21094 -1.05469,-0.21093 -0.21094,0 m 41.55469,0.63281 0.21094,0 0.63281,-0.63281 -0.84375,0.63281 m -44.71875,0 c 0,0.98441 0.35156,1.47659 1.05469,1.47656 l 0.42187,0 0,-0.21094 c -0.70313,4e-5 -1.05469,-0.2109 -1.05469,-0.63281 l 0.21094,-1.05469 -0.21094,0 -0.42187,0.42188 m 27.21094,-0.42188 0,0.21094 0.21093,0.21094 0,0.21094 -0.63281,1.26562 0,0.42188 c 0.0937,0.84378 0.30466,1.26565 0.63281,1.26562 l 0.21094,0 c 0.77341,3e-5 1.33591,-0.35153 1.6875,-1.05469 l 0,-0.21093 -0.42187,-0.42188 c -3e-5,0.70316 -0.3516,1.05472 -1.05469,1.05469 l -0.21094,0 c -0.35159,3e-5 -0.56253,-0.28122 -0.63281,-0.84375 l 0.84375,-1.26563 c -0.21097,-0.56246 -0.4219,-0.84371 -0.63281,-0.84375 m -25.10157,0.63282 0,0.63281 c 0,0.28128 0.21094,0.42191 0.63282,0.42187 l 0.21093,0.21094 0,0.42188 c -0.70312,3e-5 -1.125,0.28128 -1.26562,0.84375 l 0.21094,0 1.47656,-1.05469 c -1e-5,-0.70309 -0.42188,-1.19528 -1.26563,-1.47656 m 11.8125,0 0,0.42187 0.21094,0 0,-0.42187 -0.21094,0 m 29.74219,0 0,0.21093 0.42188,0 0,-0.21093 -0.42188,0 m -1.05469,0.21093 0,0.21094 0.63282,0 0,-0.21094 -0.63282,0 m -1.47656,0.21094 0,0.21094 1.26563,0 0,-0.21094 -1.26563,0 m -27.42187,0.21094 0,0.42187 0.21093,0 0,-0.42187 -0.21093,0 m 25.10156,0 0,0.21094 1.47656,0 0,-0.21094 -1.47656,0 m -1.6875,0.21094 0,0.21093 0.84375,0 0,-0.21093 -0.84375,0 m 7.80469,0 -0.21094,0.21093 0,0.63282 0.21094,0 0.21093,-0.84375 -0.21093,0 m -40.71094,0.21093 0,0.21094 2.53125,0 0,-0.21094 -2.53125,0 m 13.92187,2.10938 1.05469,2.53125 0.21094,0 0,-0.21094 c -0.56252,-1.19528 -0.84377,-2.10934 -0.84375,-2.74219 0.18748,-0.70309 0.39842,-1.05465 0.63281,-1.05468 l 0.42188,0 c 0.28123,3e-5 0.42185,0.28128 0.42187,0.84375 l 0.42188,0 0.21093,-0.63282 -0.21093,-0.84375 -1.26563,0 c -0.70314,0.3516 -1.05471,1.05472 -1.05469,2.10938 m 16.45313,-1.47656 0,0.21093 0.21094,0 2.10937,-0.63281 0,-0.21094 -0.42187,0 -1.89844,0.63282 m -24.25781,-0.42188 0,0.21094 0.42187,0 0,-0.21094 -0.42187,0 m 32.69531,0 c -5e-5,0.56253 -0.2813,0.84378 -0.84375,0.84375 l 0,0.21094 0.63281,0 0.42188,-0.84375 0,-0.21094 -0.21094,0 m -43.45313,8.64844 0,1.05469 0.21094,1.26562 -0.21094,0.21094 0,0.21094 0.21094,1.05468 0.21094,0 c 0.28125,3e-5 0.42187,-0.21091 0.42187,-0.63281 l -0.42187,-1.26562 0,-2.10938 c 0,-2.50778 1.6875,-4.75778 5.0625,-6.75 l 3.16406,-1.05469 0,-0.21093 -0.63281,0 c -2.06251,3e-5 -4.38282,1.5469 -6.96094,4.64062 l -1.05469,3.58594 m 14.13282,-8.22656 0,0.63281 0.21093,0 0,-0.63281 -0.21093,0 m 0.84375,0 0,0.42187 c 0.84373,0.89066 1.2656,1.59378 1.26562,2.10938 L 172,171.12863 c -1.73439,-1.54684 -3.4922,-2.32028 -5.27344,-2.32031 l -0.21094,0 -2.10937,0.63281 0,0.42188 c 0.56249,3e-5 0.84374,0.14066 0.84375,0.42187 l 0,0.21094 c -0.98438,3e-5 -1.47657,0.49222 -1.47656,1.47656 l 0.21093,0.21094 0.21094,0 c -1e-5,-0.37497 0.91405,-0.86716 2.74219,-1.47656 l 0,-0.21094 0.21094,0 2.10937,0.21094 1.26563,-0.21094 0.21093,0 0,0.21094 c -1.12501,0.14065 -1.68751,0.35159 -1.6875,0.63281 1.59374,3e-5 3.6328,1.54691 6.11719,4.64063 0.72654,2.25002 1.28904,3.37502 1.6875,3.375 l 0.63281,0 -0.84375,-4.42969 0.21094,-0.21094 -0.21094,0 -0.21093,0.21094 c -2e-5,-0.74997 -0.35159,-1.4531 -1.05469,-2.10938 l -0.21094,0 0,0.42188 0.21094,0.21094 0,0.21093 -0.42188,0 c -0.35158,-0.42184 -0.70314,-0.63278 -1.05468,-0.63281 l 0.21093,-0.21094 0,-0.21093 -0.42187,-0.42188 0.84375,-0.21094 0,0.21094 -0.21094,0.21094 0,0.21094 0.21094,0 0.42187,-0.42188 0,0.42188 0.42188,0 c -0.86721,-1.54685 -2.20314,-2.9531 -4.00781,-4.21875 m 30.16406,0.42187 0,0.63281 0.21094,0 0,-0.63281 -0.21094,0 m -3.375,0.21094 0,0.21094 0.63281,0 0,-0.21094 -0.63281,0 m 4.42969,0 0,0.21094 c 0.58589,3e-5 1.2187,0.35159 1.89843,1.05468 l 0,-0.21093 c -5e-5,-0.46872 -0.49223,-0.82028 -1.47656,-1.05469 l -0.42187,0 m -31.85157,0.21094 0,0.21093 0.21094,0.21094 0.21094,0 0,-0.21094 -0.21094,-0.21093 -0.21094,0 m 21.72657,0.21093 0.21093,0.21094 0,0.21094 1.47657,-0.21094 c 1.03121,3e-5 2.50777,0.28128 4.42968,0.84375 l 0,-0.42187 c -1.82816,-0.56247 -3.1641,-0.84372 -4.00781,-0.84375 l -2.10937,0.21093 m 8.01562,0 -0.21094,0.21094 0,0.21094 0.21094,0 0.21094,-0.21094 0,-0.21094 -0.21094,0 m 1.26563,0.21094 0,0.63281 1.05468,0.84375 0,-0.21093 c -0.56254,-0.46872 -0.84379,-0.8906 -0.84375,-1.26563 l -0.21093,0 m -30.58594,0.21094 0.42187,0.42187 0.21094,0 -0.42187,-0.42187 -0.21094,0 m 28.6875,0 -1.26563,1.89844 0.21094,0 1.26563,-1.89844 -0.21094,0 m -32.48438,0 2.95313,0 0,0.21094 -1.47656,0.21093 -1.47657,0 0,-0.42187 m 27,0.21094 0,0.21093 0.42188,0 0,-0.21093 -0.42188,0 m -21.51562,0 0.42187,0 0.21094,1.6875 0.42188,0 c -2e-5,0.28128 -0.21096,0.4219 -0.63282,0.42187 l -0.63281,-0.21094 0,-0.42187 0.42188,0 0,-0.42188 -0.84375,0.42188 -0.21094,0 0,-0.21094 c 0.56248,3e-5 0.84373,-0.42184 0.84375,-1.26562 m 22.78125,0.21093 0,0.21094 c 0.44527,3e-5 0.86715,0.35159 1.26562,1.05469 l 0,0.21094 -0.63281,0.63281 -0.42187,0 -0.21094,-0.21094 -0.21094,0 0,0.21094 0.42188,0.42187 1.05468,0 0.42188,-0.84375 c -4e-5,-0.84372 -0.49223,-1.40622 -1.47656,-1.6875 l -0.21094,0 m -39.23438,0.21094 0,0.42188 0.21094,0.63281 1.05469,0 0.84375,-0.84375 -0.21094,0 -0.42187,0.42187 -0.84375,0 c -0.28125,3e-5 -0.42188,-0.2109 -0.42188,-0.63281 l -0.21094,0 m 1.6875,4.42969 c 0.30469,2.25002 1.14844,3.37502 2.53125,3.375 l 0.42188,0 0,-0.21094 -0.21094,-0.63281 0.21094,0 c 0.91405,2e-5 1.47655,-0.63279 1.6875,-1.89844 l 0,-0.21094 c -1e-5,-1.12497 -0.56251,-1.68747 -1.6875,-1.6875 l -0.42188,0.63282 0,0.84375 0.21094,0 c 0,-0.56248 0.14062,-0.84373 0.42188,-0.84375 l 0.42187,0 c 0.21093,2e-5 0.42187,0.28127 0.63281,0.84375 -0.0937,1.12502 -0.65625,1.68752 -1.6875,1.6875 l -0.42187,0 c -0.84376,-0.42185 -1.26563,-1.05467 -1.26563,-1.89844 l 0,-0.84375 c 0,-1.00779 0.84375,-2.2031 2.53125,-3.58594 -2.10938,1.14847 -3.16406,2.62503 -3.16406,4.42969 l -0.21094,0 m 45.5625,-4.42969 -0.63281,1.47656 0.21094,0 0.63281,-1.47656 -0.21094,0 m 0.63282,0.21094 0,0.63281 0.21093,0 0,-0.63281 -0.21093,0 M 161.875,170.9177 c -1e-5,0.28128 -0.21094,0.4219 -0.63281,0.42187 l 0,1.05469 0.63281,0 -0.21094,-0.21094 0,-0.63281 0.42188,-0.63281 -0.21094,0 m 6.32812,0 0,0.21093 0.63282,0 0,-0.21093 -0.63282,0 m 21.9375,0 0.63282,0.21093 0,0.21094 -1.47657,0.21094 0,-0.42188 0.84375,-0.21093 m 9.70313,0.21093 c 1.68745,1.68753 2.5312,2.81253 2.53125,3.375 l 0.63281,-0.42187 0.21094,0.21094 0,-0.21094 -1.05469,-1.47656 0.21094,-0.21094 -0.21094,0 -0.21094,0.21094 c -0.58598,-0.98435 -1.2891,-1.47654 -2.10937,-1.47657 m -36.70313,0.42188 0,0.84375 0.63282,1.05469 -0.63282,0 c 0.14062,0.56252 0.5625,0.84377 1.26563,0.84375 l 0.63281,0 c 0.23437,2e-5 0.72655,-0.7031 1.47656,-2.10938 l 0.42188,0 c 0.28124,3e-5 0.42186,0.35159 0.42187,1.05469 l 0.42188,0 0,-0.84375 -0.84375,-0.63281 c -0.6797,0.0235 -1.38282,0.44534 -2.10938,1.26562 -0.98438,-0.11716 -1.47657,-0.60934 -1.47656,-1.47656 l -0.21094,0 m 35.22657,0.63281 0,0.84375 c 0.2812,0.84378 0.56245,1.26565 0.84375,1.26563 l 1.05468,0 1.05469,-0.21094 0,-0.21094 -1.05469,0.21094 -0.63281,0 c -0.70317,-0.25779 -1.05473,-0.8906 -1.05469,-1.89844 l -0.21093,0 m -28.6875,0.21094 -0.21094,1.26562 0.21094,0.21094 0.21093,0 0,-1.26562 0.63282,0 0,-0.21094 -0.84375,0 m 6.53906,0.21094 0,0.21093 0.21094,0.63282 0.21093,0 0,-0.21094 -0.21093,-0.63281 -0.21094,0 m 8.85937,-0.21094 0.63282,0 c -3e-5,0.56253 0.28122,0.84378 0.84375,0.84375 l 0,0.42187 c -0.98441,-0.21091 -1.4766,-0.63278 -1.47657,-1.26562 m 18.14063,0.84375 0.63281,0.63281 0.42188,0 0,-0.42187 -1.05469,-0.21094 m -18.98438,0.21094 0,0.42187 -0.21093,0 c 0.28122,0.84378 0.84372,1.26565 1.6875,1.26563 l 0.42187,-0.42188 c -0.65628,-0.1406 -1.28909,-0.56247 -1.89844,-1.26562 m 4.42969,0.21093 0.42188,0.84375 -0.84375,1.47657 0.21093,0 1.05469,-2.10938 -0.21094,-0.21094 -0.63281,0 m -0.63281,3.79688 0.21094,0 c 1.47652,-2.24997 3.09371,-3.37497 4.85156,-3.375 l 0.42187,0 c 1.54684,3e-5 2.88278,0.84378 4.00782,2.53125 l 0.21093,0 0,-0.21094 c -1.26566,-1.8281 -2.53129,-2.74216 -3.79687,-2.74219 -2.67191,3e-5 -4.64066,1.26566 -5.90625,3.79688 m -17.92969,-3.58594 0,0.21094 0.63281,0.42187 0,-0.21093 -0.63281,-0.42188 m -5.69531,2.74219 0.42187,0 c 0.37499,-1.40622 1.49999,-2.10935 3.375,-2.10938 2.57811,3e-5 4.05467,1.82815 4.42969,5.48438 l 0,0.21094 c -2e-5,1.59377 -0.91408,3.21095 -2.74219,4.85156 l 0,0.21094 c 2.10936,-1.54686 3.16405,-3.37498 3.16407,-5.48438 -0.49221,-3.79685 -2.39064,-5.69528 -5.69532,-5.69531 -1.96876,0.58596 -2.95313,1.42971 -2.95312,2.53125 m 33.32812,-2.32031 0,0.21093 0.21094,0.21094 0.21094,0 0,-0.21094 -0.21094,-0.21093 -0.21094,0 m 4.85157,0.42187 0,0.42188 0.84375,-0.42188 0,0.42188 0.21093,0 0,-0.42188 -0.21093,-0.21094 -0.84375,0.21094 m -3.79688,0.21094 0,0.21094 1.26563,0.63281 0,-0.21094 -1.26563,-0.63281 m -25.73437,0.21094 -0.21094,0.21093 0,0.42188 1.05469,-0.21094 0.84375,0.84375 0,-0.21094 c -0.67971,-0.7031 -1.24221,-1.05466 -1.6875,-1.05468 m 9.91406,4.21875 c 0.49216,2e-5 1.12497,-1.26561 1.89844,-3.79688 l -0.21094,-0.21094 -0.21094,0 c -0.44534,3e-5 -0.93753,1.33597 -1.47656,4.00782 m 6.32812,-2.10938 0.42188,0 c -4e-5,-0.63279 0.63278,-1.05466 1.89844,-1.26562 l 0.21093,0 c 0.7734,2e-5 1.3359,0.4219 1.6875,1.26562 -3e-5,0.70315 -0.49222,1.05471 -1.47656,1.05469 l 0,0.21094 0.84375,0 c 0.70309,-0.25779 1.05465,-0.82029 1.05469,-1.6875 l -0.21094,-0.63282 0.21094,-0.21093 -0.21094,0 -0.21094,0.21093 c -3e-5,-0.56247 -0.42191,-0.84372 -1.26562,-0.84375 l -0.21094,0 c -1.38285,3e-5 -2.29691,0.63284 -2.74219,1.89844 m 12.23438,-1.89844 c -5e-5,0.28128 -0.42192,0.4219 -1.26563,0.42188 l 0,0.21094 1.05469,0 0.42188,-0.63282 -0.21094,0 m 1.26562,0 0,0.42188 0.42188,-0.42188 -0.42188,0 m 0.63282,0 0,0.21094 0.21093,0.21094 0,0.21094 -0.21093,0 0.42187,1.26562 c -5e-5,1.24221 -0.35161,2.57815 -1.05469,4.00781 l 0.21094,-0.21093 0.42188,0 0,0.21093 -0.42188,1.05469 -0.63281,0 0.21094,-0.21094 0,-0.21093 -0.21094,0 -0.63281,1.26562 0.21093,0.21094 0.21094,-0.21094 0.63281,0 -0.42187,1.6875 c -5e-5,1.07814 0.35151,1.78127 1.05469,2.10938 l 0.21093,0 0,-0.21094 c -0.42192,-0.58592 -0.63286,-1.28905 -0.63281,-2.10938 0.98433,-2.99998 1.47651,-4.8281 1.47656,-5.48437 l -0.63281,-3.79688 -0.42187,0 m -34.17188,0.21094 0,0.63281 0.42188,0.42188 c -2e-5,-0.42185 0.14061,-0.63279 0.42187,-0.63281 l 0,-0.42188 -0.84375,0 m 15.60938,1.6875 0.21093,0 0.84375,-0.84375 0.42188,0 0.42187,0.42188 0,0.42187 -0.42187,0 0,0.21094 0.42187,0 0.42188,-0.63281 0,-0.42188 -0.63281,-0.63281 c -1.12503,0.14065 -1.68753,0.63284 -1.6875,1.47656 m 17.71875,-1.26562 0,1.05468 c -0.35161,0.70315 -0.91411,1.05471 -1.6875,1.05469 l 0,0.42188 c 0.70308,2e-5 1.05464,0.14064 1.05468,0.42187 l 0,0.21094 0.21094,0 1.05469,-1.26563 0,-1.89843 -0.63281,0 M 199,176.19113 c -4e-5,0.4219 -0.21098,0.63284 -0.63281,0.63282 l -0.21094,0.21093 0,0.21094 0.42187,0 0.63282,-0.21094 c -0.44536,0.70315 -1.35942,1.05471 -2.74219,1.05469 -4e-5,-0.28122 0.2109,-0.42185 0.63281,-0.42187 l 0,-0.21094 -0.63281,0 c -0.3516,2e-5 -0.56254,0.28127 -0.63281,0.84375 l -0.63282,-0.63281 c -1.26566,0.53908 -1.89847,1.17189 -1.89843,1.89843 0.0703,1.68752 0.28121,2.53127 0.63281,2.53125 -4e-5,-0.98435 0.14059,-1.47654 0.42187,-1.47656 l 0.21094,0 0,0.84375 0.21094,-0.21094 0.21094,0 0.21093,0.21094 0.21094,0 c -4e-5,-0.46873 0.56246,-1.03123 1.6875,-1.6875 l 0,0.42188 -1.6875,2.10937 0.21094,0.21094 1.26562,-0.84375 0.21094,0.21094 0,0.21093 -0.42187,0.42188 0.63281,0 c 1.54683,2e-5 2.5312,-1.12498 2.95312,-3.375 l -0.21093,0 -0.63282,0.21094 0,-0.21094 0.42188,-1.89844 c -0.18755,-0.7031 -0.39848,-1.05466 -0.63281,-1.05469 l -0.21094,0 m -36.28125,2.95313 0.21094,0 c -1e-5,-0.53904 1.40624,-1.31248 4.21875,-2.32031 l 1.6875,0 0,-0.21094 -1.05469,-0.21094 -0.21094,0 c -1.33595,3e-5 -2.95313,0.77346 -4.85156,2.32031 l 0,0.42188 m -5.48438,-2.53125 0,0.84375 0.21094,0 0,-0.84375 -0.21094,0 m 5.0625,4.85156 0,1.47656 c 0,0.32815 0.5625,0.6094 1.6875,0.84375 2.24999,-0.67967 3.37499,-1.17185 3.375,-1.47656 -0.70313,-0.42185 -1.61719,-0.63279 -2.74218,-0.63281 l -0.21094,-0.21094 0,-0.21094 c -1e-5,-1.0781 0.77343,-1.78122 2.32031,-2.10937 l 0.42188,0 0.42187,0.42187 -0.21094,1.05469 1.26563,0.84375 0.21094,0 c 0.37498,2e-5 0.86717,-0.91404 1.47656,-2.74219 -0.28127,-0.98435 -0.98439,-1.47653 -2.10938,-1.47656 -2.81251,3e-5 -4.78125,1.40627 -5.90625,4.21875 m 35.01563,-4.21875 0,0.21094 0.63281,0 0,-0.21094 -0.63281,0 m -8.4375,0.21094 -0.21094,0.63281 0.21094,0 0.21094,-0.21094 0,-0.42187 -0.21094,0 m -31.42969,0.21094 0,0.63281 0.63281,0.42187 0.42188,0 0,-0.42187 -0.21094,0.21094 -0.21094,0 -0.42187,-0.84375 -0.21094,0 m 33.75,0 0,0.21093 0.63281,0.42188 0,-0.21094 -0.63281,-0.42187 m -3.375,0.42187 -0.42187,0.84375 0,0.21094 0.42187,0 0.21094,-0.84375 0,-0.21094 -0.21094,0 m -2.95312,0.21094 c -3e-5,1.40627 -1.47659,2.1094 -4.42969,2.10937 l -1.47656,0 c -1.87503,3e-5 -3.14065,-0.63279 -3.79688,-1.89843 l -0.21094,0.21093 0,0.42188 c -2e-5,1.40627 1.47655,2.10939 4.42969,2.10937 l 1.89844,0 c 2.9531,2e-5 4.42966,-0.91404 4.42969,-2.74218 l -0.21094,-0.21094 -0.63281,0 m 12.02343,0 2.32032,0 0,0.21094 -1.6875,0.42187 -0.63282,-0.21094 0,-0.42187 m -7.17187,0.42187 0,0.63282 -0.42188,0 c -1.5469,2e-5 -2.32034,0.63283 -2.32031,1.89843 l 0.63281,0 c 0.58591,2e-5 1.57028,0.70315 2.95313,2.10938 l 0.84375,0.21094 -0.63281,-0.84375 0.21093,0 1.05469,0.21093 0,-0.42187 c -1.26566,-0.30467 -1.89847,-0.79686 -1.89844,-1.47656 l 0.21094,0 1.6875,1.05468 0.42188,0 0,-0.21093 c -0.56254,2e-5 -0.84379,-0.14061 -0.84375,-0.42188 l 0,-0.42187 0.21093,0 1.05469,0.63281 0,-0.21094 -1.05469,-1.26562 0.21094,0 0.63281,0.21093 c -3e-5,-0.7031 -0.98441,-1.2656 -2.95312,-1.6875 m -27.84375,1.26563 0,0.63281 0.21094,0 0,-0.63281 -0.21094,0 m 8.22656,0.84375 0,0.21094 0.21094,-0.21094 0.63281,0 c 0.32811,2e-5 0.53905,0.35158 0.63281,1.05469 l 0.21094,0 0,-0.63282 c -2e-5,-0.7031 -0.28126,-1.05466 -0.84375,-1.05468 l -0.84375,0.63281 m 30.58594,-0.63281 0,0.42187 0.42187,0 0,-0.42187 -0.42187,0 m -44.08594,1.6875 0.21094,0.21093 0.21094,0 c 0.39843,-0.7031 0.82031,-1.05466 1.26562,-1.05468 l 0,-0.21094 -0.21094,-0.21094 0,-0.21094 c -0.98437,0.4219 -1.47656,0.91409 -1.47656,1.47657 m 8.85938,-1.47657 c 2.24998,1.42971 3.37498,2.62502 3.375,3.58594 l 0.21093,0 0,-0.42187 c -1.0547,-2.10936 -2.25001,-3.16404 -3.58593,-3.16407 m 36.91406,0 c -0.14067,0.56252 -0.56255,0.84377 -1.26563,0.84375 l 0,0.21094 0.63282,0 c 0.2812,-0.0703 0.56245,-0.42185 0.84375,-1.05469 l -0.21094,0 m -3.16406,0 0.21093,0 c -0.42191,1.12502 -0.84379,1.68752 -1.26562,1.6875 l -0.21094,-0.21093 0,-0.21094 1.26563,-1.26563 m 1.26562,0.63282 -0.21094,0.21093 0,0.42188 0.21094,0 0.21094,-0.63281 -0.21094,0 m -24.04687,0.42187 c -2e-5,5.60158 -2.32033,9.82032 -6.96094,12.65625 l -0.21094,0 0,0.21094 0.42188,0 c 1.85154,-0.79687 3.53904,-2.27343 5.0625,-4.42969 1.8281,-3.0703 2.74216,-5.46092 2.74218,-7.17187 l 0,-0.63282 c -2e-5,-0.23435 -0.35158,-0.44529 -1.05468,-0.63281 m 6.75,0 0,0.42188 -0.21094,0 c -3e-5,2.3672 0.98435,5.1797 2.95312,8.4375 l 0.42188,0 0,-0.21094 c -1.82816,-2.99999 -2.74222,-5.39061 -2.74219,-7.17188 l 0.21094,-0.21093 0,-0.21094 -0.21094,-1.05469 -0.42187,0 m -26.15625,1.47656 2.10937,4.42969 c 0,0.44533 -0.28125,0.93751 -0.84375,1.47656 l -0.63281,-0.21093 0,-0.21094 0.42187,-0.63281 0,-1.05469 -0.42187,-0.42188 -0.63281,0 -0.63282,0.63282 0,0.63281 c 0.28125,1e-5 0.42188,-0.21092 0.42188,-0.63281 l 1.05469,0 0,0.63281 c -0.42188,0.51564 -0.63282,1.00782 -0.63282,1.47656 l 0,0.21094 1.05469,0 c 0.23437,1e-5 0.72656,-0.6328 1.47656,-1.89844 l 0.21094,0 0.21094,0.21094 0.21094,0 0.21093,-0.21094 0,-0.42187 c 0,-1.21874 -0.77344,-2.20311 -2.32031,-2.95313 l 0,-0.21094 0.42188,-0.42187 0.42187,0 c 0.75,0.98439 1.24218,1.47658 1.47656,1.47656 l 0.63282,0 0,-0.42187 -0.21094,-0.21094 0,-0.21094 0.63281,-0.21094 0,-0.42187 c -0.375,2e-5 -1.21875,-0.56248 -2.53125,-1.6875 l -0.84375,0 c -0.5625,0.28127 -0.98438,0.70314 -1.26562,1.26562 m 21.09375,-1.05468 0,8.85937 c -3e-5,2.13282 -1.96877,3.39845 -5.90625,3.79688 l 0,0.21093 1.05468,0.42188 7.17188,-0.21094 6.96094,0.21094 0,-0.21094 c -4e-5,-0.32812 -1.12503,-0.67968 -3.375,-1.05469 -1.54691,-1.03124 -2.32034,-1.87499 -2.32032,-2.53125 l -0.21093,-9.49218 -3.375,0 m 4.00781,0 0,8.64843 0.21094,1.05469 0.21093,0 -0.21093,-9.70312 -0.21094,0 m 5.48437,0 0,1.05468 c 0.5156,1.03127 0.93747,1.59377 1.26563,1.6875 l 0,-0.42187 c -0.70316,-0.93748 -1.05472,-1.71092 -1.05469,-2.32031 l -0.21094,0 m 13.28907,0.21093 0,0.42188 0.42187,0 0,-0.42188 -0.42187,0 m -42.82032,0.21094 1.26563,0 0,0.21094 -0.63281,0 0.42187,0.63281 -1.05469,0.42188 -0.21093,0 0.21093,-0.21094 0,-0.21094 -0.42187,0 0,-0.42187 0.42187,-0.42188 m 33.75,2.10938 0,0.21093 0.21094,0 c -4e-5,-0.42185 0.28121,-0.77342 0.84375,-1.05468 l 0.21094,0 c -0.70316,1.07814 -1.05473,2.20314 -1.05469,3.375 -0.28128,1e-5 -0.42191,-0.49218 -0.42187,-1.47657 l -0.21094,0 0,1.47657 c -4e-5,2.06251 1.26559,4.24219 3.79687,6.53906 0.42184,0.51563 0.63278,1.00782 0.63282,1.47656 l 0.84375,-1.26562 0,-0.21094 -2.74219,-2.74219 0.21094,-0.21094 -0.21094,0 -0.21094,0.21094 -0.63281,-1.89844 0,-1.89843 0.63281,0 -0.21094,1.05468 0,0.21094 c -3e-5,2.29689 1.47653,3.70314 4.42969,4.21875 1.12496,-0.2578 1.68746,-0.53905 1.6875,-0.84375 L 199,191.37863 l 0,-0.21093 c 0.51558,1e-5 0.86714,-0.42187 1.05469,-1.26563 -0.11724,-0.98436 -0.60942,-1.47655 -1.47657,-1.47656 l -0.42187,0 0,0.21094 c 0.51558,1e-5 0.86714,0.28126 1.05469,0.84375 -0.18755,1.26563 -0.82036,1.89844 -1.89844,1.89843 l -0.42188,0 c -1.50004,1e-5 -2.34379,-1.26561 -2.53125,-3.79687 l 1.6875,-2.95313 c -0.14066,-0.98435 -0.3516,-1.47654 -0.63281,-1.47656 l 0,0.21094 0.21094,0.84375 -0.42188,0 c -4e-5,-0.56248 -0.3516,-0.84373 -1.05468,-0.84375 l 0,-0.42188 0.63281,0 0.21094,0.21094 0.21093,0 0,-0.21094 -1.47656,-0.42187 c -0.46879,2e-5 -1.1016,0.63283 -1.89844,1.89844 m -19.61718,-0.21094 0.21093,0 1.47657,-0.63281 c 0.58591,0.18751 1.00779,0.53908 1.26562,1.05468 -0.21096,0.56252 -0.42189,0.84377 -0.63281,0.84375 l -0.42188,0 -0.21093,-0.21093 -0.21094,0 0,0.21093 0.21094,0.21094 1.05468,0 0.42188,-0.84375 0,-1.26562 c -2e-5,-0.28124 -0.4219,-0.49217 -1.26563,-0.63282 -1.07814,0.37502 -1.71095,0.7969 -1.89843,1.26563 m 12.86718,-0.42188 0,0.84375 0.42188,0.42188 0.21094,0 -0.21094,-0.21094 0,-0.63281 c -3e-5,-0.32811 0.35153,-0.53905 1.05469,-0.63281 l 1.47656,0.84375 0,-0.21094 c -0.79691,-0.70311 -1.50003,-1.05467 -2.10938,-1.05469 l -0.84375,0.63281 m 13.07813,-0.63281 0,0.42188 -0.21094,0 -0.63281,-0.21094 1.6875,2.10937 -0.42188,0.42188 -0.21093,0 c -0.4688,-1.40623 -1.10161,-2.10936 -1.89844,-2.10938 -4e-5,0.4219 0.2109,0.63283 0.63281,0.63282 l 0.21094,0.21093 0,0.42188 -0.21094,-0.21094 -0.63281,0 0,0.63281 c 0.56246,0.0703 0.84371,0.28127 0.84375,0.63282 l -0.63281,0 0,0.21093 c -4e-5,0.56252 1.05464,1.05471 3.16406,1.47657 l 0.21094,-1.47657 -0.21094,-0.63281 0.63281,0 0,-0.21094 c -4e-5,-0.60935 -0.35161,-1.31248 -1.05469,-2.10937 l -0.21093,0.21094 -0.21094,0 -0.84375,-0.42188 m 2.10937,0 0,0.63281 0.84375,0 0,-0.21093 c -0.42192,1e-5 -0.63285,-0.14061 -0.63281,-0.42188 l -0.21094,0 m -10.96875,1.47656 c 0.25778,2e-5 0.46872,0.63283 0.63282,1.89844 0.49215,2e-5 0.84371,-0.56248 1.05468,-1.6875 l -0.21093,0.21094 -0.42188,0 0,-0.21094 0.42188,-0.63281 -0.84375,-0.42188 -0.63282,0.84375 m 4.42969,-0.84375 0,0.21094 c -4e-5,0.53908 -0.42191,1.10158 -1.26562,1.6875 l 0,-0.21094 c 0.37496,-0.93748 0.79683,-1.49998 1.26562,-1.6875 m 0.42188,0 0.84375,0 0,0.63282 -0.42188,0 -0.42187,-0.42188 0,-0.21094 m 6.96093,0.84375 0,0.63282 0.63282,-0.63282 0,-0.63281 -0.63282,0.63281 m -37.125,0 1.26563,0 0,0.42188 c -1e-5,0.42189 -0.28126,0.63283 -0.84375,0.63281 l 0,0.21094 0.63281,0 0.63281,-0.63281 0,-0.63282 -0.42187,-0.42187 -0.84375,0 -0.42188,0.42187 m 5.0625,0 0,0.84375 0.21094,0 0,-0.84375 -0.21094,0 m 22.57032,0.21094 0,0.42188 0.21093,0 0,-0.42188 -0.21093,0 m -30.58594,0.84375 0,0.21094 c -1e-5,0.42189 1.26562,0.77345 3.79687,1.05469 l 3.375,-0.42188 0,-0.42187 -0.21093,0 -2.74219,0.42187 -1.26563,0 -2.95312,-0.84375 m 2.53125,0 0,0.21094 0.63281,0 0,-0.21094 -0.63281,0 m 30.16406,0 0.84375,0 0,0.42188 -1.05469,0.63281 0,-0.84375 0.21094,0.21094 0.21094,0 0,-0.21094 -0.21094,-0.21094 m -7.59375,1.47656 0,0.21094 0.21094,0 c -3e-5,-0.70311 0.49215,-1.05467 1.47656,-1.05469 l 0.84375,0.84375 0,0.42188 c -3e-5,0.28126 -0.21097,0.42189 -0.63281,0.42187 l 0,0.21094 0.63281,0 0.42188,-1.05469 c -0.18754,-0.70311 -0.67972,-1.05467 -1.47657,-1.05468 -0.7969,1e-5 -1.28909,0.35157 -1.47656,1.05468 m 9.70313,-0.84375 c -0.42192,0.51564 -0.63286,1.00783 -0.63282,1.47657 l 0,0.42187 0.63282,0.63281 0.21093,0 c -4e-5,-0.84373 0.28121,-1.26561 0.84375,-1.26562 l -1.05468,-1.26563 m -25.10157,1.26563 0,1.05469 0.84375,1.47656 0.21094,0 0,-0.63281 -0.63281,-1.6875 0.63281,-0.42188 0.63281,0 c 0.56249,0.23439 0.84374,0.72658 0.84375,1.47656 -1e-5,0.65627 -0.28126,1.35939 -0.84375,2.10938 l 0.21094,0 c 0.70311,-0.89061 1.05467,-1.87499 1.05469,-2.95313 -0.35158,-0.84373 -0.98439,-1.26561 -1.89844,-1.26562 -0.63283,0.28126 -0.98439,0.56251 -1.05469,0.84375 m -2.10937,-0.63281 -0.42188,0.84375 0.21094,0 0.42188,-0.84375 -0.21094,0 m 32.0625,0 -0.21094,1.05468 c 0.14058,1.54689 0.70308,2.32033 1.6875,2.32032 0.86714,-0.28124 1.35933,-0.6328 1.47656,-1.05469 l 0,-1.26563 -0.21093,0 c -5e-5,0.98439 -0.2813,1.47658 -0.84375,1.47657 l -0.21094,0 c -1.12505,1e-5 -1.68755,-0.56249 -1.6875,-1.6875 l 0.21094,-0.63282 0,-0.21093 -0.21094,0 m -38.17969,0.42187 0,0.63281 0.21094,0.21094 -0.21094,0.21094 0.42188,0 -0.21094,-1.05469 -0.21094,0 m 23.41406,0.21094 0,0.42187 0.21094,0 0,-0.42187 -0.21094,0 m -21.72656,1.6875 c 0.14062,0.42189 0.56249,0.63282 1.26563,0.63281 0.84374,-0.14061 1.26561,-0.49217 1.26562,-1.05469 l 0.42188,0 c 0.28123,2e-5 0.42186,0.21095 0.42187,0.63282 l -0.42187,1.26562 0,0.84375 0.42187,0 0.21094,0.21094 0.21094,-0.21094 0.63281,-2.74219 -0.63281,0 0,-0.42187 0.21093,-0.21094 0,-0.21094 -0.21093,0 -0.42188,0.42188 c -1e-5,-0.21093 -0.28126,-0.42186 -0.84375,-0.63281 l -2.53125,1.47656 m 21.9375,-1.05469 0,0.42188 0.21094,0 0,-0.42188 -0.21094,0 m 1.89844,1.89844 0.42187,1.26562 -0.42187,0 -0.63281,-0.42187 -0.63282,0 0,0.84375 0.21094,0 0,-0.42188 0.21094,0 1.47656,1.6875 -0.21094,0 -1.05468,-0.21093 c -4e-5,0.70313 1.61715,1.54688 4.85156,2.53125 l 0.42187,0.63281 -0.42187,0 0,0.21094 -1.6875,-0.42188 -0.63281,0 -2.95313,0.84375 0.42188,0.63281 -0.42188,0.42188 c -3e-5,0.84375 0.42184,1.26563 1.26563,1.26562 l 0.21093,0 0.42188,-0.42187 -1.05469,-0.42188 c -3e-5,-0.79687 0.91403,-1.35937 2.74219,-1.6875 l 7.59375,0.42188 c 3.51558,-0.49218 5.27339,-1.19531 5.27344,-2.10938 l -0.84375,0 c -0.67974,0.56251 -2.01567,0.98438 -4.00782,1.26563 -4.38285,0 -7.40628,-1.54687 -9.07031,-4.64063 l 0,-1.47656 0.63281,-0.63281 0.42188,0 c 0.28121,1e-5 0.42184,0.28126 0.42187,0.84375 l 0.21094,0 0,-0.42188 c -0.18753,-0.58592 -0.5391,-1.0078 -1.05469,-1.26562 l -1.05468,0 c -0.70316,0.35157 -1.05472,0.91407 -1.05469,1.6875 m -27,-0.84375 0,0.42187 0.21094,0 0,-0.42187 -0.21094,0 m -1.89844,0.21094 -0.21094,0.21093 0,0.21094 0.21094,0 0.21094,-0.21094 0,-0.21093 -0.21094,0 m 24.04688,0.42187 c 1.17184,1e-5 2.0859,0.56251 2.74218,1.6875 l 0.21094,0 0,-0.21094 c -0.84378,-1.26561 -1.61722,-1.89842 -2.32031,-1.89843 l -0.21094,0 -0.42187,0.42187 m -23.625,0.42188 0.21093,0.63281 0.84375,0 0,-0.63281 -0.42187,-0.42188 -0.21094,0 -0.42187,0.42188 m 5.90625,0.63281 0.21093,0 c -1e-5,-0.28124 0.21093,-0.42187 0.63282,-0.42188 l 0.21093,-0.21093 0,-0.21094 c -0.63282,0.28126 -0.98438,0.56251 -1.05468,0.84375 m -6.75,-0.63281 0,0.42187 0.42187,0.42188 0,-0.42188 -0.42187,-0.42187 m 2.53125,0 0,0.21093 0.42187,0.42188 0.21094,0 0,-0.63281 -0.63281,0 m 31.42968,-0.21094 0.63282,0 1.26562,2.10937 -0.21094,0 c -0.3516,-0.0234 -0.9141,-0.65624 -1.6875,-1.89843 l 0,-0.21094 m -19.40625,2.32031 2.10938,-1.47656 0.63281,0 0.63281,0.63281 0,0.21094 -0.42187,0.63281 0.21094,0 0.63281,-0.63281 0,-0.84375 -0.42188,-0.42188 -0.63281,0 c -0.79689,1e-5 -1.71096,0.63283 -2.74219,1.89844 m 28.47657,-1.6875 0,0.42188 0.42187,0 0,-0.42188 -0.42187,0 m 1.05468,0.42188 0.21094,0 0.42188,-0.42188 -0.21094,0 -0.42188,0.42188 m -33.11718,0 0,0.21093 0.42187,0.63282 -0.42187,0.63281 0.21093,0 0.42188,-0.63281 0,-0.84375 -0.63281,0 m 2.53125,0 -0.63282,0.84375 0.21094,0 0.63281,-0.84375 -0.21093,0 m -11.17969,0.21093 0,0.21094 0.63281,0 0,-0.21094 -0.63281,0 m 22.35937,0 0,0.21094 0.84375,0 0,-0.21094 -0.84375,0 m 17.29688,0.42188 0,0.21094 0.42187,0 0.42188,-0.42188 0,-0.21094 -0.42188,0 -0.42187,0.42188 m -41.97656,-0.21094 0,0.21094 0.21093,0.21094 0.21094,0 0,-0.21094 -0.21094,-0.21094 -0.21093,0 m 0.84375,0 0,0.42188 0.63281,0 0,-0.42188 -0.63281,0 m 43.66406,0.42188 0,0.42187 0.42187,0 0,-0.84375 -0.42187,0.42188 m -18.35156,-0.21094 0,0.21094 0.63281,0.21093 0,-0.21093 -0.21094,-0.21094 -0.42187,0 m 17.08593,0 0,0.63281 0.42188,0 0.42187,-0.42187 0,-0.21094 -0.84375,0 m -14.97656,0.21094 0,0.42187 0.21094,0.21094 0.21094,0 -0.21094,-0.63281 -0.21094,0 m 4.42969,0.63281 c 0.2109,0.72657 0.91402,1.35938 2.10937,1.89844 l 0,-0.21094 c -0.79691,-0.46874 -1.35941,-0.96093 -1.6875,-1.47656 l 0,-0.21094 c -3e-5,-0.28124 0.28122,-0.42187 0.84375,-0.42188 l 0,-0.21093 -0.84375,0 c -0.28128,1e-5 -0.42191,0.21094 -0.42187,0.63281 m -5.69531,-0.42188 0,0.21094 1.05468,0.84375 0.21094,0 -1.26562,-1.05469 m 12.86718,0.63282 c -4e-5,0.28125 0.2109,0.42188 0.63282,0.42187 l 1.89843,-0.42187 0,-0.42188 -0.21093,0 -2.32032,0.42188 m -33.11718,1.05468 -1.89844,0 c -1.40626,0.14064 -2.10938,0.77345 -2.10938,1.89844 l -0.84375,0 c -0.98438,1e-5 -2.25,-0.28124 -3.79687,-0.84375 0,0.49219 1.54687,0.98438 4.64062,1.47656 0,0.98438 1.125,1.47657 3.375,1.47657 1.14843,0 2.90624,-0.28125 5.27344,-0.84375 1.82811,0.1875 2.74217,0.60938 2.74219,1.26562 l -0.63281,0.21094 -2.53125,-0.63281 -0.21094,0 -0.42188,0.42187 0.63282,-0.21094 2.10937,0.63282 1.05469,0 0.42187,-0.42188 0,-1.05469 c -0.3047,-0.70312 -1.00783,-1.05468 -2.10937,-1.05468 l -0.63281,0 0,-0.21094 0.42187,-0.63281 0,-0.21094 -2.74219,0 0,0.21094 c 0.72655,0 1.21874,0.28125 1.47657,0.84375 l 0,0.21093 -0.21094,0 -0.84375,-0.21093 -1.6875,0.42187 -0.21094,-0.84375 -3.16406,0.42188 0.21094,0.21093 0,0.42188 c -0.56251,-0.23437 -0.84376,-0.72656 -0.84375,-1.47656 l 0.42187,-0.42188 0.21094,0 0,0.42188 0.63281,0 c 2.67186,0 4.0078,-0.42187 4.00781,-1.26563 l -0.42187,0 0.21094,-1.05469 0,-0.42187 c -0.79689,0.84376 -1.64064,1.26563 -2.53125,1.26562 m -6.75,-0.63281 0,0.21094 1.05468,-0.21094 0.42188,0.63281 0,0.21094 c -1e-5,0.42188 -0.77344,0.63282 -2.32031,0.63281 l 0,0.21094 2.32031,0 0.42187,-0.63281 0,-0.63281 -0.84375,-0.84375 -0.63281,0 -0.42187,0.42187 m 42.82031,-0.42187 0,0.63281 0.42187,0 0,-0.63281 -0.42187,0 m 1.26562,0 0,0.42187 0.42188,0 0,-0.42187 -0.42188,0 m -31.00781,0.63281 -0.42187,0.63281 0.21093,0 c -1e-5,-0.28124 0.21092,-0.42187 0.63282,-0.42187 l 0,-0.21094 -0.42188,0 m 25.52344,0.84375 0,0.21094 c 0.18746,0.5625 0.74996,0.84375 1.6875,0.84375 l 1.6875,-0.21094 0,-0.21094 -0.84375,0 -0.21094,0.21094 -0.21094,0 c -0.98441,-0.14062 -1.4766,-0.56249 -1.47656,-1.26563 l 0.21094,-0.21093 -0.21094,0 -0.63281,0.63281 m -9.70313,-0.42188 0,0.21094 1.05469,0.63281 0,-0.21093 -1.05469,-0.63282 m -1.05468,1.89844 -6.75,-0.42187 -6.75,0.21093 0,0.21094 9.49218,0 4.42969,0.21094 1.05469,-0.21094 0,-0.63281 -1.47656,0.63281 m -23.83594,-0.63281 0.21094,1.47656 c -0.84376,-0.14062 -1.26563,-0.35156 -1.26563,-0.63281 l 0,-0.21094 1.05469,-0.63281 m 30.16406,0.21094 0.21094,0 0.21094,0.84375 -0.21094,0.21093 -0.21094,0 0,-1.05468 m 0.63281,0.21093 0.21094,0 0.21094,0.84375 -0.42188,0 0,-0.84375 m -35.85937,0.63282 0,0.21093 0.42187,0 0,-0.21093 -0.42187,0 m 44.50781,0 0,0.21093 0.42188,0 0,-0.21093 -0.42188,0 m -43.875,0.21093 0,0.21094 0.42188,0 0,-0.21094 -0.42188,0 m 19.82813,0 c -3e-5,1.26563 -0.28128,1.89844 -0.84375,1.89844 l -0.63282,0 -0.63281,-0.42187 c 0.14061,0.5625 0.56248,0.84375 1.26563,0.84375 0.7031,-0.23438 1.05466,-0.58594 1.05468,-1.05469 l 0,-1.26563 -0.21093,0 m 0.63281,0 c 0.46873,1.54688 1.80466,2.32032 4.00781,2.32032 0.23435,0 0.58591,-0.49219 1.05469,-1.47657 -0.14065,-0.56249 -0.56253,-0.84374 -1.26563,-0.84375 l -0.84375,0 0,0.21094 c 0.84373,1e-5 1.2656,0.21094 1.26563,0.63281 -3e-5,0.28126 -0.4219,0.56251 -1.26563,0.84375 -1.68752,-0.42187 -2.53127,-0.98437 -2.53125,-1.6875 l -0.42187,0 m -19.61719,0.21094 0,0.21094 c 0.84375,0.11719 1.26562,0.53907 1.26563,1.26562 l -0.63282,0.63282 0.63282,0 0.42187,-0.42188 0,-0.84375 c 0,-0.23437 -0.49219,-0.51562 -1.47656,-0.84375 l -0.21094,0 m 40.28906,1.05469 0,0.63281 0.42188,0.42188 0.21094,0 c -5e-5,-1.26562 0.49214,-1.89844 1.47656,-1.89844 l 0,-0.21094 -0.21094,0 c -1.26567,0.44532 -1.89848,0.79688 -1.89844,1.05469 m -6.96093,0.21094 0,0.42187 0.63281,0.63281 0.42187,0 -0.42187,-0.63281 0,-0.21094 c -4e-5,-0.42187 0.49215,-0.6328 1.47656,-0.63281 l 0,-0.21094 -1.47656,0 -0.63281,0.63282"
         style="font-size:72px;font-variant:normal;font-stretch:normal;font-family:Goudy Initials;-inkscape-font-specification:Goudy Initials"
         id="path4198" />
    </g>
  </g>
</svg>
