<?xml version="1.0" encoding="UTF-8" standalone="no"?>
<!-- Created with Inkscape (http://www.inkscape.org/) -->

<svg
   xmlns:dc="http://purl.org/dc/elements/1.1/"
   xmlns:cc="http://creativecommons.org/ns#"
   xmlns:rdf="http://www.w3.org/1999/02/22-rdf-syntax-ns#"
   xmlns:svg="http://www.w3.org/2000/svg"
   xmlns="http://www.w3.org/2000/svg"
   xmlns:sodipodi="http://sodipodi.sourceforge.net/DTD/sodipodi-0.dtd"
   xmlns:inkscape="http://www.inkscape.org/namespaces/inkscape"
   width="56.734375"
   height="56.734375"
   id="svg2"
   version="1.1"
   inkscape:version="0.48.5 r10040"
   sodipodi:docname="j.svg">
  <defs
     id="defs4" />
  <sodipodi:namedview
     id="base"
     pagecolor="#ffffff"
     bordercolor="#666666"
     borderopacity="1.0"
     inkscape:pageopacity="0"
     inkscape:pageshadow="2"
     inkscape:zoom="3.959798"
     inkscape:cx="43.996764"
     inkscape:cy="-4.4843295"
     inkscape:document-units="px"
     inkscape:current-layer="layer1"
     showgrid="false"
     fit-margin-top="2"
     fit-margin-left="2"
     fit-margin-right="2"
     fit-margin-bottom="2"
     inkscape:window-width="1366"
     inkscape:window-height="733"
     inkscape:window-x="0"
     inkscape:window-y="0"
     inkscape:window-maximized="1"
     showborder="true"
     borderlayer="false" />
  <metadata
     id="metadata7">
    <rdf:RDF>
      <cc:Work
         rdf:about="">
        <dc:format>image/svg+xml</dc:format>
        <dc:type
           rdf:resource="http://purl.org/dc/dcmitype/StillImage" />
        <dc:title></dc:title>
      </cc:Work>
    </rdf:RDF>
  </metadata>
  <g
     inkscape:label="Layer 1"
     inkscape:groupmode="layer"
     id="layer1"
     transform="translate(-152.28125,-146.34738)">
    <g
       style="font-size:40px;font-style:normal;font-weight:normal;line-height:125%;letter-spacing:0px;word-spacing:0px;fill:#ffffff;fill-opacity:1;stroke:none;font-family:Sans"
       id="flowRoot2985">
      <path
         d="m 154.28125,148.34738 52.73437,0 0,52.73438 -52.73437,0 0,-52.73438 m 1.05469,1.05469 0,50.625 50.625,0 0,-50.625 -50.625,0 m 0.42187,0.63281 49.57031,0 0,49.57032 -49.57031,0 0,-49.57032 m 47.03906,0.42188 0,0.21094 c 0.56246,5e-5 0.84371,0.35161 0.84375,1.05468 -0.58598,0.56255 -1.14848,0.8438 -1.6875,0.84375 l -3.79687,-0.84375 -0.21094,0 0.21094,0.21094 0,0.21094 0.21094,-0.21094 0.21093,0 0.63282,0.21094 0,0.21094 -0.84375,0.21093 0,-0.21093 -0.21094,0.21093 -0.21094,0 -0.42187,-0.42187 0.21093,-0.21094 0,-0.21094 -0.63281,-0.21093 c -2.27348,5e-5 -4.1016,0.70317 -5.48437,2.10937 0.67965,-0.39839 2.50777,-0.67964 5.48437,-0.84375 1.00777,5e-5 1.99215,0.77349 2.95313,2.32031 l 0,1.26563 c -0.23442,0.56254 -0.72661,0.84379 -1.47657,0.84375 -0.42191,-0.42183 -0.63285,-0.91402 -0.63281,-1.47656 l -0.21094,0 -0.21093,1.05468 c 0.49214,0.98442 1.05464,1.47661 1.6875,1.47657 0.53901,4e-5 1.10151,-0.49215 1.6875,-1.47657 l 0.63281,0.21094 0,-0.21094 0.21094,-0.21093 c -0.44536,-2.39058 -1.35942,-3.58589 -2.74219,-3.58594 l 0.42187,-0.42188 3.375,1.05469 1.47657,0 -0.42188,-0.63281 0.63281,-1.47656 c -0.28129,-0.63277 -0.56254,-0.98433 -0.84375,-1.05469 l -0.84375,0 m -28.05468,1.6875 c 0.0937,0.8438 0.30466,1.26567 0.63281,1.26562 l 1.05469,0 0,-0.21093 c -0.72659,4e-5 -1.14846,-0.21089 -1.26563,-0.63282 l 0,-0.63281 c -2e-5,-0.25776 0.42186,-0.60932 1.26563,-1.05469 0.53904,5e-5 1.4531,0.70318 2.74218,2.10938 l 0.63282,0.21094 1.47656,-0.42188 0,-1.05469 0.42187,-0.42187 0.84375,0 1.05469,0.63281 c -3e-5,-0.70307 -0.77346,-1.05464 -2.32031,-1.05469 l -0.63281,1.6875 -1.26563,0 c -1.24221,-1.26557 -2.22658,-1.89838 -2.95312,-1.89843 -1.12502,5e-5 -1.68752,0.49223 -1.6875,1.47656 m 16.875,-1.47656 0,0.21093 c 0.42183,5e-5 0.63277,0.14068 0.63281,0.42188 l 0,0.42187 -0.42188,0.63282 0.21094,0 0.84375,-0.84375 0,-0.21094 -0.63281,-0.63281 -0.63281,0 m -34.80469,0.84375 c 0.28125,1.28911 0.63281,1.99223 1.05469,2.10937 l 0.21093,0 c -0.5625,-0.58589 -0.84375,-1.14839 -0.84375,-1.6875 l 0.21094,-0.84375 -0.21094,0 -0.42187,0.42188 m 1.6875,0.84375 c 0.28125,0.84379 0.5625,1.26567 0.84375,1.26562 l 0.21094,-0.63281 -0.21094,0 -0.21094,0.21094 0,-1.05469 0.42188,-0.42188 0.21093,0 0.21094,0.21094 0.21094,0 0,-0.63281 -0.63281,-0.21094 c -0.70313,0.2813 -1.05469,0.70318 -1.05469,1.26563 m 8.22656,1.05468 0,0.42188 -0.21094,0 -1.05468,-0.63281 c -0.42189,0.14067 -0.63283,0.56254 -0.63282,1.26562 l 0,0.63281 c 0.0937,0.8438 0.30468,1.26567 0.63282,1.26563 l -0.42188,-1.05469 c 1.12499,0.63286 1.68749,1.26567 1.6875,1.89844 l -0.21094,0 -0.84375,-0.63281 0,0.42187 c 0.98437,0.37505 1.47655,0.72661 1.47657,1.05469 l -0.42188,0.42187 -0.63281,0 c -0.25782,5e-5 -1.10157,-1.12495 -2.53125,-3.375 l -0.63281,0 c -1e-5,0.8438 -0.14064,1.26567 -0.42188,1.26563 l -0.21094,0 c 0,-0.63277 -0.70313,-1.19527 -2.10937,-1.6875 l -0.42188,3.16406 0.42188,1.47656 -0.21094,0 -1.05469,-0.21093 -0.21093,0.21093 0,0.21094 0.42187,1.05469 0.21094,-0.21094 0.21094,0 0.63281,0.21094 0,-0.21094 -0.42188,-0.63281 0,-0.21094 c 0.9375,0.84379 1.78125,1.26567 2.53125,1.26563 l 0,0.21093 -1.05468,0.21094 -0.21094,-0.21094 0,0.21094 0.21094,0.21094 -0.21094,0.21094 2.53125,0 0,0.63281 -0.42188,0.42187 -3.79687,-0.84375 -0.21094,0 0,0.21094 0.84375,0.21094 0,0.21094 c -0.98438,0.0938 -1.47656,0.23441 -1.47656,0.42187 l 0.21094,0.63281 -0.63282,-0.21093 0.21094,-0.21094 0,-0.21094 -0.63281,0 0,-0.42187 1.26562,-0.42188 0,-0.21094 -0.42187,0 c -0.46875,4e-5 -1.03125,0.56254 -1.6875,1.6875 0.84375,0.14067 1.26562,0.3516 1.26562,0.63282 -0.75,0.75003 -1.17187,1.45316 -1.26562,2.10937 0.46875,1.12504 1.10156,1.68753 1.89844,1.6875 0.70312,3e-5 1.12499,-0.28121 1.26562,-0.84375 -1.125,4e-5 -1.6875,-0.42184 -1.6875,-1.26562 0,-1.12497 0.77344,-1.82809 2.32031,-2.10938 l 1.05469,0.21094 2.95313,-0.42188 0.21093,0.21094 0.21094,0 c 0.8203,4e-5 2.01561,-0.91402 3.58594,-2.74219 l -0.21094,0 c -1e-5,0.30473 -0.77345,0.51567 -2.32031,0.63282 -1.17189,4e-5 -2.08595,-0.42184 -2.74219,-1.26563 l 0,-0.21094 0.21094,0 c 0.74999,0.56254 1.3828,0.84379 1.89844,0.84375 l 2.95312,-0.21093 0,-0.84375 0.42188,-2.53125 0.42187,0.42187 0,0.84375 -0.63281,1.89844 0,0.21094 0.21094,0 c 0.56248,-1.26559 0.84373,-2.39059 0.84375,-3.375 -0.56252,4e-5 -0.84377,-0.49215 -0.84375,-1.47657 l 0.63281,0.42188 0,-0.21094 -1.47656,-2.95312 c 0.28123,-0.8437 0.70311,-1.26558 1.26562,-1.26563 0.70311,5e-5 1.05467,0.49224 1.05469,1.47656 l 0.42187,-0.42187 0,-0.84375 -1.05468,-1.05469 -0.84375,0 c -1.31252,5e-5 -2.01564,0.77349 -2.10938,2.32031 m 17.50781,-2.32031 0,0.42188 0.42188,0.42187 0.42187,0 0,-0.42187 -0.42187,-0.42188 -0.42188,0 m 2.32032,2.10938 0,0.21093 0.21093,0 c 0.7031,5e-5 1.05466,-0.49213 1.05469,-1.47656 l 0.21094,-0.21094 0.84375,0 c 0.42184,0.14068 0.63278,0.56255 0.63281,1.26563 l 0,0.21094 c -3e-5,0.51567 -0.77347,2.34379 -2.32031,5.48437 l -0.42188,2.95313 c -3e-5,2.88285 0.91403,5.34378 2.74219,7.38281 l 0,-0.42188 c -1.10159,-1.49996 -1.66409,-2.69527 -1.6875,-3.58593 l 0.21094,-1.26563 -0.21094,0 c -0.21097,4e-5 -0.42191,-0.28121 -0.63281,-0.84375 l 0.84375,0 0.21094,0.21094 0.21093,0 c -3e-5,-0.42184 0.28122,-0.7734 0.84375,-1.05469 l 0.21094,0.21094 0,0.21094 c -0.60941,4e-5 -0.96097,0.98441 -1.05469,2.95312 l 0,0.63281 0.63282,-0.42187 -0.21094,1.05469 c 0.2109,0.56253 0.42184,0.84378 0.63281,0.84375 l 0,-0.42188 -0.21094,-0.21094 0,-0.21093 c 0.23434,-0.79684 0.93747,-1.78122 2.10938,-2.95313 l -0.42188,0 0,-0.21094 1.26563,-1.89843 -0.21094,0 c -0.28128,0.63285 -0.56253,0.98441 -0.84375,1.05468 l 0,-0.21093 c 0.30465,-0.98434 0.72653,-1.47653 1.26563,-1.47657 l 0,-1.6875 -0.21094,0 c -0.44535,0.42192 -1.07816,0.63286 -1.89844,0.63282 -3e-5,0.42191 -0.14066,0.63285 -0.42187,0.63281 l -0.21094,-1.26563 c -1.26566,0.58598 -1.89847,1.64067 -1.89844,3.16407 l -0.21094,0 -0.42187,-0.42188 0,-0.42187 1.89844,-3.58594 c 0.93746,-1.96871 2.34371,-2.95308 4.21875,-2.95313 1.40621,0.23443 2.10933,0.86724 2.10937,1.89844 l 0,0.21094 -0.63281,0.63281 -0.63281,0 -1.6875,-1.26562 -1.05469,0 -0.63281,0.63281 0,0.84375 0.42187,0 c -3e-5,-0.70308 0.35153,-1.05464 1.05469,-1.05469 l 0.21094,0 1.6875,1.26563 c 1.40621,-0.18746 2.10933,-0.89058 2.10937,-2.10938 l 0,-0.21094 -1.26562,-1.26562 0.84375,-0.42188 0,-0.42187 -1.47657,-0.21094 -0.63281,0 c -1.14847,5e-5 -2.4141,0.63286 -3.79687,1.89844 l -0.42188,-0.42188 c 0.98434,-0.63276 1.47653,-1.33589 1.47656,-2.10937 -3e-5,-0.4687 -0.35159,-0.89058 -1.05468,-1.26563 l -0.63282,-0.63281 -0.63281,0 c -0.70316,5e-5 -1.05472,0.35161 -1.05469,1.05469 -0.2344,0.70317 -0.58597,1.05473 -1.05468,1.05469 m -0.84375,-1.47657 0.42187,0.42188 0.21094,0 0,-0.84375 -0.21094,0 -0.42187,0.42187 m -21.9375,0.21094 0.63281,0.84375 0.42187,0 -0.21093,-1.05469 -0.42188,0 -0.21094,0.21094 -0.21093,0 m 1.6875,-0.21094 0,0.84375 0.42187,0 0.21094,-0.21093 0.21094,0 -0.21094,-0.63282 -0.63281,0 m -3.16407,0.21094 0.42188,0.42188 0.21094,0 0,-0.42188 -0.63282,0 m 8.4375,3.375 0.42188,-0.42187 -0.21094,-0.21094 0.21094,-0.21094 0.21094,0 0.21093,0.63281 -0.21093,0.21094 c 0.42185,5e-5 0.63279,0.14067 0.63281,0.42188 l 0,0.21093 -0.42188,0 -1.05468,-0.21093 0,0.21093 0.21093,0.21094 0,0.21094 -0.21093,0.63281 0,0.21094 0.21093,0 c 0.0703,-0.56246 0.28124,-0.84371 0.63282,-0.84375 l 0.21093,0 0,0.21094 -0.84375,1.89843 0.21094,0.21094 -0.42187,0.42188 0.21093,0 0.21094,-0.21094 0,0.42187 0.21094,0 c 1.96873,-0.23433 2.95311,-1.07808 2.95312,-2.53125 l 0,-0.63281 -1.05468,0.63281 0,-0.42187 0.42187,-1.6875 -0.42187,-2.74219 c -1.54689,0.82036 -2.32033,1.94536 -2.32032,3.375 m 26.15625,-3.375 0.42188,0.42188 -0.21094,0.21093 -0.21094,0 -0.42187,-0.42187 0.21094,-0.21094 0.21093,0 m -35.64843,0.42188 -0.21094,0.21093 0,0.21094 0.42187,0.42188 0.42188,0 0,-0.21094 -0.63281,-0.63281 m 22.99218,0.21093 -0.21093,0.21094 0,0.21094 0.42187,0.42187 0.42188,-0.42187 0,-0.21094 -0.63282,-0.21094 m -21.09375,0.63282 0,0.42187 0.63282,0.63281 0.21093,0 0,-0.63281 -0.42187,-0.42187 -0.42188,0 m -6.75,0.42187 0,0.42188 0.21094,0 0.21094,-0.21094 0.21094,0 0.42187,0.42187 0,-0.21093 -0.63281,-0.42188 -0.42188,0 m 4.00782,0 0.42187,0.42188 0.21094,0 -0.42188,-0.42188 -0.21093,0 m 1.47656,0.21094 0,0.63281 0.63281,0.21094 0,-0.42188 -0.42187,-0.42187 -0.21094,0 m 39.65625,0 0,0.21094 1.26562,2.53125 0.21094,0 0,-0.84375 c -5e-5,-0.84371 -0.49223,-1.47652 -1.47656,-1.89844 m -26.57813,0.84375 c 3.79686,0.42192 5.69529,1.61723 5.69532,3.58594 l 0,27.21093 -0.42188,5.27344 c -2e-5,0.65626 0.7031,1.28907 2.10938,1.89844 1.40622,-2.34374 2.10934,-4.87499 2.10937,-7.59375 l -0.21094,-25.73438 c -2e-5,-2.06245 1.12497,-3.74995 3.375,-5.0625 l 0,-0.21093 -4.21875,0.21093 -6.96093,0 -0.21094,-0.21093 c -0.84377,0.18754 -1.26565,0.39848 -1.26563,0.63281 m 13.07813,-0.63281 c -3e-5,0.53911 -0.63285,1.10161 -1.89844,1.6875 l -1.26562,1.89843 -0.21094,4.85157 0.21094,15.82031 0,7.38281 c -3e-5,2.34376 -0.77347,4.87501 -2.32032,7.59375 l 0.21094,0 c 1.68747,-2.15624 2.53122,-4.89842 2.53125,-8.22656 l 0,-2.10938 -0.21094,-11.17968 0.21094,-2.10938 -0.21094,-3.58594 0.21094,-8.4375 c 0.16403,-0.74995 1.14841,-1.5937 2.95313,-2.53125 l 0,-1.05468 -0.21094,0 m -28.89844,0.42187 0,0.63281 0.42188,0 0,-0.21093 -0.42188,-0.42188 m -1.05469,0.21094 0,0.21094 0.42188,0 0,-0.21094 -0.42188,0 m 7.38282,0 0.42187,0 0.21094,0.63281 -0.21094,0 -0.42187,-0.42187 0,-0.21094 m 9.70312,0.42187 0,0.21094 c 1.07811,0.56255 2.27342,0.8438 3.58594,0.84375 l 0.21094,0 0,-0.21094 -3.79688,-0.84375 m -18.14062,0.63282 0,0.42187 0.42187,0.42188 0.21094,0 0,-0.84375 -0.63281,0 m 1.47656,0 -0.21094,0.21093 0,0.21094 0.63281,0.42188 0.21094,0 0,-0.63282 L 158.5,155.7302 m 44.92969,0 0,0.21093 0.21093,1.26563 c -0.49223,1.96879 -1.40629,2.95317 -2.74218,2.95312 l -0.63282,-0.42187 -0.21093,0 -0.21094,0.63281 c -5e-5,0.5391 0.35152,1.1016 1.05469,1.6875 -1.94536,4e-5 -3.21098,0.56254 -3.79688,1.6875 l -1.89844,0.63281 -1.26562,0 0,0.21094 c -4e-5,0.86722 0.70308,1.8516 2.10937,2.95313 -0.42191,0.14066 -0.63285,0.56253 -0.63281,1.26562 l 0,0.63281 0.42188,0.42188 c 1.14839,-1.26559 2.48433,-1.89841 4.00781,-1.89844 l 1.47656,-1.05469 0.21094,0 c -5e-5,0.70316 0.14058,1.05472 0.42187,1.05469 l 0.63282,0 c -5e-5,-0.74996 0.56245,-1.80465 1.6875,-3.16406 l -0.42188,-0.42188 0.84375,-1.6875 -0.21094,0 -0.21093,0.21094 -0.21094,0 0,-0.21094 0.42187,-1.05468 -0.21093,0 -1.26563,2.10937 -0.21094,-0.21094 -0.21093,0 0,0.21094 0.21093,0.21094 -1.47656,1.26562 -0.63281,-0.21093 0,-0.21094 c 2.5312,-1.57028 3.79682,-3.74996 3.79687,-6.53906 l 0,-0.63282 -0.21093,0 0,0.84375 -0.63282,0 0.21094,-0.21093 0,-2.10938 -0.42187,-0.42187 m -14.76563,0 0.21094,0 1.05469,0.21093 -0.42188,0.42188 -0.42187,0 -0.42188,-0.42188 0,-0.21093 m -13.5,1.05468 0,1.26563 1.47656,1.05469 0.21094,0.21093 0,0.21094 c -0.21096,0.56254 -0.42189,0.84379 -0.63281,0.84375 l -0.84375,0 -1.26563,-1.05469 0,0.21094 1.47657,1.26563 0.63281,0 c 0.56248,-0.23434 0.84373,-0.72652 0.84375,-1.47657 l 0,-0.42187 c -2e-5,-0.32808 -0.49221,-0.53902 -1.47656,-0.63281 l 0,-0.63282 0.84375,-0.84375 1.47656,0 c 0.84373,0.49224 1.2656,1.12505 1.26562,1.89844 l 0,0.21094 c -2e-5,1.54691 -0.77346,2.32035 -2.32031,2.32031 l 0,0.21094 1.05469,0 c 0.93748,4e-5 1.49997,-0.91402 1.6875,-2.74219 -3e-5,-1.17183 -0.84377,-1.94527 -2.53125,-2.32031 l -1.89844,0.42187 m 13.28906,-0.21093 0.63282,0 0.42187,0.42187 -1.47656,0.63281 0,-0.63281 0.63281,0 -0.21094,-0.21094 0,-0.21093 m -29.95312,0.42187 -0.21094,0.21094 0,0.21094 0.42188,0.42187 0.21093,0 0,-0.42187 -0.42187,-0.42188 m -1.47656,0.21094 0,0.42187 0.42187,0.42188 0.21094,0 0,-0.42188 -0.42188,-0.42187 -0.21093,0 m 7.59375,-0.21094 1.05468,1.6875 -0.21093,0 c -0.56251,-0.21089 -0.98439,-0.70308 -1.26563,-1.47656 l 0.21094,-0.21094 0.21094,0 m -3.16407,0.21094 0.84375,0.42187 0,0.42188 -1.26562,-0.42188 0.42187,-0.42187 m 12.23438,0 0,0.21094 -1.05469,1.26562 -0.84375,0 0,-0.21094 1.89844,-1.26562 m 22.57031,0.42187 c -0.70316,0.98442 -1.26566,1.47661 -1.6875,1.47657 l 0,0.21093 0.21094,0 0.84375,-0.21093 0.21094,0 0,0.21093 c -1.82817,0.58598 -2.74223,1.42973 -2.74219,2.53125 l 0,0.63282 0.42187,0.42187 0.42188,0 0,-0.84375 c -4e-5,-0.84371 0.42183,-1.26558 1.26562,-1.26562 l 0.21094,0 0.84375,0.84375 0,0.42187 -0.21094,0.21094 0,0.21094 2.95313,-2.53125 0,-0.42188 c -1.10161,-0.16402 -2.01567,-0.79683 -2.74219,-1.89844 m -34.17187,0.63282 0.63281,0.21093 0,0.21094 -0.42188,0.42188 -0.42187,0 0,-0.21094 0.21094,-0.63281 m 5.48437,0 0,0.63281 -0.21094,0.21094 0,0.21093 -0.63281,-0.21093 0.84375,-0.84375 m -10.33594,0.84375 0.63282,0.63281 0.21093,-0.21094 0,-0.21094 -0.21093,-0.63281 -0.21094,0 -0.42188,0.42188 m 5.69532,-0.21094 0.21093,0.21094 0.21094,0 -0.21094,0.63281 -0.84375,0 0,-0.21094 0.63282,-0.63281 m 7.59375,1.26562 0.21093,0.21094 0,0.21094 -1.05468,0 0,0.21094 c 0.42186,4e-5 0.63279,0.14066 0.63281,0.42187 l -0.84375,0 1.47656,1.6875 0,0.42188 -1.6875,-1.05469 c -0.56251,4e-5 -0.84376,0.28129 -0.84375,0.84375 l -0.21094,-0.21094 -0.42187,0 0.42187,0.63281 0,0.21094 -0.63281,0 0.42188,0.63281 -0.63282,0 0,-0.42187 -0.21093,0 0,0.63281 c -2e-5,1.12504 0.70311,1.75785 2.10937,1.89844 l 0,-1.05469 c 0.70311,0.0235 1.05467,0.1641 1.05469,0.42188 l 1.05469,-0.21094 0.84375,0 1.05468,0.21094 0.42188,-1.26563 -0.21094,0.21094 -0.21094,0 -0.21093,-1.6875 0,-0.21094 0.21093,0 c -1e-5,0.42191 0.14061,0.63285 0.42188,0.63281 l -0.63281,-1.47656 0.21093,0 0.21094,0.21094 0.21094,0 0,-0.42188 c -2e-5,-1.07808 -0.70314,-1.71089 -2.10938,-1.89843 l -1.05468,0.21093 m -13.28907,0.42188 0,0.42187 0.42188,0.42188 0.42187,-0.42188 -0.63281,-0.42187 -0.21094,0 m 18.35157,1.05469 -0.21094,0.21093 0,0.21094 0.42187,0.42188 0.63282,-0.21094 0,-0.42188 -0.84375,-0.21093 m -8.64844,0.42187 0,0.21094 c -1e-5,0.32816 -1.0547,0.60941 -3.16406,0.84375 l -0.42188,0 0,-0.21094 3.58594,-0.84375 m 7.80469,0.42188 -0.42188,0.63281 0.42188,0.42187 0.21093,0 0.21094,-0.84375 -0.21094,-0.21093 -0.21093,0 m 2.53125,0 0,0.42187 0.42187,0.42188 0.42188,0 0.21093,-0.63282 -0.21093,-0.21093 -0.84375,0 m 22.14843,0 -0.42187,0.63281 0.21094,0.21094 -0.63282,0.42187 -0.21093,0 0.21093,-0.21094 0,-0.42187 -0.84375,0.63281 -0.21093,0 c 0.49214,-0.84371 1.12495,-1.26558 1.89843,-1.26562 m -23.83593,0.84375 0,0.21093 0.42187,0.42188 0.42188,-0.42188 0,-0.63281 -0.42188,0 -0.42187,0.42188 m 18.35156,-0.21094 0,0.63281 0.42187,0 -0.21093,-0.63281 -0.21094,0 m -6.11719,0.21094 0,0.21093 0.42188,0 0,-0.21093 -0.42188,0 m -15.1875,0.42187 0.42188,0.42188 0,0.42187 -0.42188,-0.42187 0,-0.42188 m 5.90625,0.21094 -0.21094,1.05469 1.26563,2.95312 0,0.21094 0.21094,0 0,-0.42188 -1.05469,-2.53125 0,-0.21093 0.42187,-0.42188 0.63282,0 0,0.42188 0.21093,0 0,-0.42188 -0.21093,-0.63281 -1.26563,0 m 13.5,0 c -0.79691,1.40629 -1.35941,2.10941 -1.6875,2.10937 l 0.84375,3.16407 -0.21094,0.21093 0,0.21094 0.42188,0 0,0.84375 c -0.28129,3e-5 -0.42191,-0.2109 -0.42188,-0.63281 l -0.21093,0 0,0.63281 2.74218,1.47656 0,-0.21093 c -0.58597,3e-5 -1.2891,-0.91404 -2.10937,-2.74219 l 0.21094,-0.21094 0.21093,0 1.05469,2.10938 0.21094,0 0.21094,-0.21094 0.21093,0 c 0.46872,0.9844 1.03121,1.47659 1.6875,1.47656 l 0,0.21094 -0.63281,0 0,0.21094 c 3.14058,0.96096 5.53121,2.22659 7.17188,3.79687 l 0.63281,0 0,-0.63281 -1.6875,-1.6875 0,0.21094 0.63281,0.63281 -0.21094,0 -6.32812,-3.79688 0,0.21094 0.63281,0.63281 -0.21094,0 c -0.51566,-0.32809 -1.00785,-0.89059 -1.47656,-1.6875 l 0,-0.21093 0.42188,-2.95313 -0.21094,-0.63281 -0.84375,0.63281 -0.21094,0 c -4e-5,-0.56246 -0.14066,-0.84371 -0.42187,-0.84375 l 0.21093,-0.21094 -0.42187,-1.05468 0.21094,-0.21094 0.21093,0 0.21094,0.84375 0.21094,0 0,-0.21094 c -0.28129,-0.86715 -0.63285,-1.35934 -1.05469,-1.47656 m -26.36719,1.47656 -0.42187,0 0,-0.21094 0.42187,-0.84375 -0.21093,0 -1.05469,1.47657 -0.21094,-0.21094 -0.21094,0 -0.63281,0.42187 -0.21094,0 0,-0.21093 0.21094,-0.21094 0,-0.21094 -0.21094,0 c -1.26563,1.31254 -1.89844,2.29691 -1.89843,2.95313 l 0.42187,0 c 0.49218,3e-5 0.98437,-0.28122 1.47656,-0.84375 l 0.21094,0.21093 0.21094,0 -0.21094,1.05469 0,0.21094 0.84375,0 c -1e-5,-0.56247 0.49218,-1.05466 1.47656,-1.47656 -1e-5,-0.42184 0.14062,-0.63278 0.42188,-0.63282 l 0.21094,0 -0.21094,0.21094 0,0.21094 0.21094,0 0.21093,-0.21094 0,-1.47656 -0.21093,0 -0.63282,0.42187 0,-0.42187 0.84375,-1.26563 0,-0.21093 c -0.28126,3e-5 -0.56251,0.42191 -0.84375,1.26562 m 9.07032,-1.26562 0,0.84375 0.84375,0 c -0.21096,-0.56247 -0.4219,-0.84372 -0.63282,-0.84375 l -0.21093,0 m 2.32031,0 0,0.84375 0.21094,0 0.42187,-0.42188 0,-0.42187 -0.63281,0 m -12.86719,0.84375 -0.21094,0.21093 0,0.21094 0.21094,0 0.21094,-0.21094 0,-0.21093 -0.21094,0 m 12.02344,0 0,0.42187 0.21094,0 0,-0.42187 -0.21094,0 m 18.35156,0.21093 2.10938,0.42188 -0.42188,0.42187 c -1.12504,-0.16402 -1.68754,-0.44527 -1.6875,-0.84375 m -18.14062,0.42188 2.10937,2.32031 0.42188,1.26563 c -3e-5,1.80471 -1.47659,3.00003 -4.42969,3.58593 l -0.21094,0 c -1.68752,-0.11715 -2.53127,-0.32809 -2.53125,-0.63281 l 1.05469,-1.05469 0,-0.84375 -1.89844,1.26563 0,0.21094 0.21094,0.63281 -0.21094,0 c -4.19532,3e-5 -7.92188,1.82815 -11.17969,5.48437 l -0.21093,0.63282 0.21093,0 c 2.88281,-3.79685 6.32812,-5.69529 10.33594,-5.69532 l 1.26563,0 0,0.21094 -0.21094,0.21094 0,0.21094 1.6875,0.42187 c -2e-5,-0.35153 -0.28127,-0.56247 -0.84375,-0.63281 l 0.21094,-0.21094 0,-0.21094 2.10937,0.21094 c 3.37498,3e-5 5.06248,-1.40622 5.0625,-4.21875 -2e-5,-0.65622 -0.9844,-1.7109 -2.95312,-3.16406 m 23.41406,-0.21094 0.21094,0 0,0.21094 -0.84375,0.21094 -0.21094,0 0,-0.21094 0.84375,-0.21094 m -31.64063,5.90625 0.21094,0 5.0625,-4.21875 0.84375,0 c 0.84373,4e-5 1.26561,0.42191 1.26563,1.26563 -0.2344,0.70315 -0.7969,1.05472 -1.6875,1.05468 l 0.42187,0.42188 0.84375,0 c 0.70311,-0.35153 1.05467,-0.91403 1.05469,-1.6875 -2e-5,-1.05465 -0.56252,-1.68747 -1.6875,-1.89844 -0.91408,4e-5 -2.39064,1.19535 -4.42969,3.58594 l -1.89844,1.47656 m 2.32032,-4.85156 c -2e-5,2.06253 -2.39064,4.24222 -7.17188,6.53906 -1.96875,1.52347 -2.95313,2.50784 -2.95312,2.95313 l 0,0.21093 c 1.92186,-1.96872 5.01561,-4.1484 9.28125,-6.53906 0.98436,-1.35934 1.47654,-2.41403 1.47656,-3.16406 l -0.63281,0 m 16.66406,0.42187 -0.63281,1.6875 -0.21094,-0.21093 -0.21094,0 0.21094,0.21093 -0.42188,2.10938 c 0.42185,2.95315 1.8281,4.42971 4.21875,4.42969 l 1.26563,0 0,-0.42188 -1.05469,0.21094 c -2.34378,3e-5 -3.67972,-1.47654 -4.00781,-4.42969 -3e-5,-1.24215 0.42184,-2.36715 1.26562,-3.375 l -0.21093,-0.21094 -0.21094,0 m -20.46094,0.84375 c 0.84374,4e-5 1.26561,0.14066 1.26563,0.42188 l 0,0.63281 -2.10938,2.10938 0.21094,0 c 1.68749,-0.98435 2.53124,-1.89841 2.53125,-2.74219 l 0,-0.42188 -0.84375,-0.63281 c -0.70314,0.18754 -1.0547,0.39847 -1.05469,0.63281 m -0.84375,-0.21093 -0.21094,0.21093 0,0.21094 0.21094,0 0.21094,-0.21094 0,-0.21093 -0.21094,0 m 24.25781,0.84375 -0.21093,1.47656 c 0.28121,3e-5 0.42184,-0.21091 0.42187,-0.63281 l 0,-0.84375 -0.21094,0 m 5.69532,-0.21094 0.84375,0 -0.84375,0.84375 0,-0.84375 m 5.27343,0.84375 -0.21093,-0.21094 c -0.98442,1.1016 -1.47661,2.08597 -1.47657,2.95313 l 0.84375,2.10937 0.21094,0 0,-0.21094 -0.42187,-1.6875 c 0.18745,-1.40622 0.82026,-2.10934 1.89843,-2.10937 l 0.63282,0 c 0.98432,3e-5 1.47651,0.49222 1.47656,1.47656 l 0,0.21094 c -5e-5,0.4219 -0.2813,0.63284 -0.84375,0.63281 l -1.47656,-0.21094 -0.42188,1.05469 0.21094,0.63281 0.21094,0 c -5e-5,-0.70309 0.21089,-1.05465 0.63281,-1.05468 l 1.05469,0.63281 c 0.8437,3e-5 1.26557,-0.49216 1.26562,-1.47656 l 0,-0.42188 -0.42187,-1.26562 0.42187,0 0,-0.42188 c -5e-5,-0.46872 -0.70317,-0.82028 -2.10937,-1.05469 l -1.47657,0.42188 m -24.89062,0.84375 0.21094,-0.21094 0.63281,0 0.42187,0.42188 0,0.42187 c -0.56252,0.84378 -1.12502,1.26566 -1.6875,1.26563 l 0,0.21093 0.21094,0 c 1.2656,-0.18747 1.89842,-0.82028 1.89844,-1.89843 l 0,-0.42188 -0.63281,-0.63281 -0.42188,0 -0.63281,0.84375 m -16.45313,0.42187 0,0.84375 c 0,0.28128 0.21094,0.42191 0.63282,0.42188 0.18749,0.70315 0.39843,1.05472 0.63281,1.05469 l 0.21094,-0.21094 0,-0.63281 -1.05469,-0.42188 0,-0.84375 0.84375,-0.84375 0.63281,0 c 0.84374,3e-5 1.40624,0.42191 1.6875,1.26563 -0.21094,0.72659 -0.63282,1.42971 -1.26562,2.10937 0.8203,-0.28122 1.3828,-0.77341 1.6875,-1.47656 l 0,-0.63281 c -1e-5,-1.12497 -0.56251,-1.68747 -1.6875,-1.6875 l -0.63282,0 c -0.77344,3e-5 -1.33594,0.35159 -1.6875,1.05468 m 37.33594,0.21094 0,0.42188 c -4e-5,0.84378 0.49215,1.40628 1.47656,1.6875 l -0.84375,-1.26563 0,-0.63281 c -4e-5,-0.28122 0.2109,-0.42184 0.63282,-0.42188 l 0.21093,-0.21093 0,-0.42188 c -0.75004,3e-5 -1.24223,0.28128 -1.47656,0.84375 m -9.49219,-0.42187 -0.21093,1.05468 0,0.63282 0.42187,0.42187 0.21094,0 0,-0.21094 -0.21094,-0.84375 c 0.14059,-0.56247 0.42184,-0.84371 0.84375,-0.84375 0.70309,4e-5 1.54684,0.84378 2.53125,2.53125 l 0.42188,0 0,-0.21093 c -0.84379,-1.68747 -1.82816,-2.53122 -2.95313,-2.53125 l -1.05469,0 m -30.58593,0.21093 0.84375,4.21875 c -1.125,5.83596 -1.6875,9.70315 -1.6875,11.60157 0.46875,5.10938 1.31249,7.78125 2.53125,8.01562 0.58593,1.82813 1.71093,3.16407 3.375,4.00781 l 1.47656,0.42188 0.21094,0 0,-0.21094 c -0.0703,-0.32812 -0.63282,-0.67968 -1.6875,-1.05469 -1.40626,-0.98437 -2.10938,-2.10936 -2.10938,-3.375 0.84375,1e-5 1.26562,-0.49218 1.26563,-1.47656 l -1.26563,-4.85156 0,-1.26563 c 0.28125,-1.54685 0.98437,-2.32029 2.10938,-2.32031 l 0,-1.26562 c -0.82032,2e-5 -1.52345,0.28126 -2.10938,0.84375 l 0,-0.42188 0.42188,-1.26562 0,-0.42188 -0.21094,0 c -0.42188,2e-5 -0.63282,0.21096 -0.63281,0.63281 l -0.21094,-0.21093 -0.21094,0 0,0.21093 0.21094,0.21094 c -0.32813,0.0703 -0.67969,0.56252 -1.05469,1.47656 l 0.21094,0 0.42187,-0.42187 0,0.42187 -0.21093,1.05469 0,0.42188 0.21093,0 0,-0.84375 0.42188,0 0,1.05468 c -1e-5,0.28127 -0.21094,0.42189 -0.63281,0.42188 l 0,1.26562 -0.21094,0 -0.21094,-0.21093 -0.21094,0 0,0.21093 1.05469,4.21875 -0.63281,0 c -0.5625,-0.21092 -0.91407,-1.54686 -1.05469,-4.00781 l 0,-1.26562 c 0,-3.0703 0.91406,-6.93748 2.74219,-11.60157 l 0,-0.21093 -0.42188,-0.42188 -0.63281,0.63281 c 0,-2.0859 -0.63281,-3.49215 -1.89844,-4.21875 l -0.21093,0 m 30.79687,2.95313 0.21094,0 1.47656,-1.47656 0,-0.42188 -1.6875,1.89844 m -8.85937,-1.05469 0.63281,0 0.21094,0.21094 0.21093,0 -0.21093,-0.63281 -0.42188,0 -0.42187,0.42187 m -4.42969,-0.21094 0,0.21094 0.84375,0 0,-0.21094 -0.84375,0 m 2.53125,1.26563 0,0.42187 0.42187,0 0.42188,-0.42187 -0.21094,-0.21094 -0.63281,0.21094 m 11.8125,-0.21094 c 0.14059,0.56253 0.84371,0.84378 2.10937,0.84375 l 1.47657,-0.42187 0,-0.42188 -1.6875,0.42188 -0.42188,0 -1.47656,-0.42188 m -13.28906,0.63281 0.21093,0.21094 0,0.42188 -0.21093,0.21093 0,0.21094 0.63281,0 0,-0.63281 -0.42188,-0.42188 -0.21093,0 m 2.74218,0.21094 0,0.42188 0.21094,-0.21094 0.21094,0 c 0.7031,0.18753 1.05466,0.67971 1.05469,1.47656 -3e-5,0.70315 -0.63284,1.61721 -1.89844,2.74219 l 0.21094,0 c 1.2656,-0.93748 1.89841,-1.85154 1.89843,-2.74219 l 0,-0.84375 -0.21093,-0.21094 0,-0.21093 0.21093,-0.21094 -0.21093,0 -0.21094,0.21094 -0.42188,-0.42188 -0.84375,0 m -19.82812,8.01563 0.21094,0 c 2.6953,-4.49998 5.85936,-6.74998 9.49218,-6.75 l 1.26563,0 c 3.91404,2e-5 6.44529,1.89846 7.59375,5.69531 l 0.21094,0.63281 c -0.58596,2.67189 -1.57034,4.00783 -2.95313,4.00781 l -1.05469,0 0,0.84375 1.05469,0.21094 0.21094,0 0.63281,-0.42187 0.42188,0 0,0.42187 c 0.35154,2e-5 0.98435,-0.56248 1.89843,-1.6875 l 0,-1.26562 0.21094,0 0.63281,0.42187 0.42188,-1.89844 c -2e-5,-1.14841 -0.56252,-2.48435 -1.6875,-4.00781 l 0,-0.42187 c 0.56248,2e-5 0.84373,-0.1406 0.84375,-0.42188 -2.43752,-2.10935 -5.17971,-3.16403 -8.22656,-3.16406 -3.51564,3e-5 -6.6797,1.5469 -9.49219,4.64062 -1.125,1.42971 -1.6875,2.4844 -1.6875,3.16407 m 33.32812,-7.59375 c 0.14059,0.9844 0.35153,1.47658 0.63282,1.47656 l 0,-0.21094 -0.21094,-1.26562 -0.42188,0 m 0.84375,0.21093 0.42188,0.42188 2.10937,-0.21094 4.85157,1.05469 c -0.8438,-0.98435 -2.74223,-1.47654 -5.69532,-1.47656 l -1.6875,0.21093 m -15.82031,0.63282 0.42188,0.42187 0.21093,-0.21094 0.21094,0 -0.21094,-0.63281 -0.21093,0 -0.42188,0.42188 m 10.125,-0.42188 -0.42187,1.89844 c 0.51559,1.96877 1.35934,2.95315 2.53125,2.95312 l 0.42187,0 0,-0.21093 c -1.33597,2e-5 -2.17972,-1.05467 -2.53125,-3.16407 l 0.42188,-1.47656 -0.42188,0 m 16.03125,1.6875 0,0.84375 -0.84375,0.21094 c -5e-5,0.65627 0.63277,1.99221 1.89844,4.00781 l -0.21094,0.21094 -0.21094,0 c -0.28129,2e-5 -0.56254,-0.42186 -0.84375,-1.26563 -0.84379,0.18752 -1.26567,0.39846 -1.26562,0.63282 0.74995,1.12502 1.38276,1.68752 1.89844,1.6875 0.49214,2e-5 0.91401,-0.56248 1.26562,-1.6875 l -0.84375,-4.21875 0.63281,-2.10938 -0.42187,0 c -0.70317,0.35159 -1.05474,0.91409 -1.05469,1.6875 m -24.67969,-1.47656 0,0.63281 0.42188,0 0.42187,-0.42187 -0.21093,-0.21094 -0.63282,0 m -8.85937,0.63281 0,0.21094 0.42187,0 0,-0.21094 -0.42187,0 m 0.84375,0.21094 0,0.21094 0.63281,0 0,-0.21094 -0.63281,0 m 18.14062,0 -0.21093,0.21094 0,0.84375 0.84375,0 1.05468,-0.21094 0,-0.21094 -0.21093,0 -0.84375,0.21094 c -4e-5,-0.28123 -0.21097,-0.42185 -0.63282,-0.42188 l 0.21094,-0.21093 0,-0.21094 -0.21094,0 m -17.08593,0.21094 0,0.21093 0.42187,0 0,-0.21093 -0.42187,0 m 17.29687,2.74218 0.42188,0 c 2.06246,-1.54685 4.31246,-2.32028 6.75,-2.32031 l 2.10937,0.21094 0.21094,0 0,-0.42188 -1.05469,-0.21093 -3.16406,0 c -1.64066,0.25783 -3.39847,1.03127 -5.27344,2.32031 l 0,0.42187 M 172,176.19113 l 0,0.21094 c 1.40623,0.56253 2.10936,1.33596 2.10937,2.32031 l -0.84375,0.42188 0,0.42187 0.63282,0 0.63281,-0.63281 0,-0.42187 c -2e-5,-0.96092 -0.77346,-1.73435 -2.32031,-2.32032 l -0.21094,0 m 26.36719,0.84375 0,0.21094 0.84375,0 c -5e-5,0.28128 -0.2813,0.4219 -0.84375,0.42188 l 0,0.21093 0.63281,0 0,0.21094 -1.05469,0.63281 -0.21094,0 -0.42187,-0.42187 0.63281,-1.05469 -0.21094,0 c -0.70316,0.65628 -1.05472,1.14846 -1.05468,1.47656 l -0.42188,0 0,-0.42187 -0.21094,0 c -0.25785,2e-5 -0.67972,0.49221 -1.26562,1.47656 l 0,1.89844 0.42187,0.42187 0.21094,-0.21093 0.21094,0.84375 0.63281,-0.21094 -0.21094,0.21094 0,0.84375 c 0.23434,1e-5 0.5859,-0.84373 1.05469,-2.53125 l 0.42188,0 -0.63282,2.53125 0,0.21093 0.21094,0 0,-0.42187 0.42188,0 0,0.42187 0.21093,0 c 1.80465,2e-5 2.85933,-1.2656 3.16407,-3.79687 l -1.47657,0.42187 0,-0.21093 c 0.28121,-0.28123 0.49215,-1.26561 0.63282,-2.95313 l 0.42187,-0.42187 0,-0.21094 -2.10937,0.42187 m -32.27344,-0.21093 c -1e-5,1.19533 -0.77345,2.67189 -2.32031,4.42968 -0.56251,0.96096 -0.84376,1.80471 -0.84375,2.53125 l 0,0.21094 c 1.45311,-1.68748 2.78905,-2.53123 4.00781,-2.53125 l 1.89844,0 0.42187,0.42188 -0.21094,0.21093 -0.21093,-0.21093 -0.84375,0 c -3.23439,0.23439 -4.85157,1.71095 -4.85157,4.42968 l 0,0.21094 0.21094,0 c 0.28124,-1.54686 0.98437,-2.32029 2.10938,-2.32031 l 0.63281,0 c 1.26561,2e-5 1.89842,0.84377 1.89844,2.53125 l -1.05469,1.05469 0.63281,0.21093 c 0.72655,2e-5 1.28905,-0.35154 1.6875,-1.05468 l 0,-1.26563 0.63281,0 0,0.42188 0.42188,0 0,-1.47657 -0.84375,-1.05468 0,-0.21094 0.21094,0 c 1.07811,0.84377 2.13279,1.26564 3.16406,1.26562 l 0.21094,-0.21093 0,-0.21094 -0.42188,-0.63281 c 1.75779,1e-5 2.88279,-0.84373 3.375,-2.53125 -1.33596,2e-5 -2.81252,-0.42186 -4.42969,-1.26563 l -0.63281,0 0.42188,-1.6875 0,-0.21094 c -2.06252,0.58596 -3.53908,1.42971 -4.42969,2.53125 l -0.42188,-0.42187 0,-0.21094 c 0.67968,2e-5 1.10155,-0.63279 1.26563,-1.89844 l -0.21094,0.21094 -0.21094,0 c -0.23438,2e-5 -0.51563,-0.42185 -0.84375,-1.26562 l -0.42187,0 m 29.53125,0 0,0.21093 0.84375,0 0,-0.21093 -0.84375,0 m -2.74219,1.6875 c 0.14059,0.56252 0.56246,0.84377 1.26563,0.84375 l 0.21093,-0.21094 0,-0.21094 c -0.3516,2e-5 -0.56253,-0.28123 -0.63281,-0.84375 0.14059,-0.56247 0.56246,-0.84372 1.26563,-0.84375 l 0,-0.21094 -0.84375,0 c -0.84379,0.49222 -1.26567,0.9844 -1.26563,1.47657 m 7.59375,-1.05469 0,0.63281 1.47656,1.05469 0,-0.21094 c -4e-5,-0.53904 -0.42192,-1.03122 -1.26562,-1.47656 l -0.21094,0 m -10.33594,1.89844 0,0.21093 0.84375,0 1.26563,-1.47656 0,-0.42187 c -0.89066,1.12502 -1.59379,1.68752 -2.10938,1.6875 m -28.05468,-0.63282 1.05468,-0.42187 0.63282,0.21094 0,1.05468 -0.21094,0.21094 0,0.21094 0.21094,0 0.63281,-1.26563 c -0.0938,-0.42185 -0.37501,-0.7031 -0.84375,-0.84375 -0.98438,0.18753 -1.47657,0.46878 -1.47656,0.84375 m 16.45312,0 0.42188,0.42188 0.42187,0 0.42188,-0.42188 0,-0.42187 -0.21094,0 -1.05469,0.42187 m 0.42188,0.84375 0.21093,0.63282 0.63282,0 0,-0.42188 -0.84375,-0.21094 m 8.4375,0 0,0.42188 0.42187,0 0,-0.42188 -0.42187,0 m 4.42968,0 0,1.26563 -0.63281,0 c -0.51566,-0.42185 -1.00785,-0.63279 -1.47656,-0.63281 l -2.32031,0.42187 -0.42188,0 0,0.63281 c -3e-5,0.96096 0.70309,2.01565 2.10938,3.16407 l -0.84375,0.42187 c -4e-5,0.65627 0.98434,1.14845 2.95312,1.47656 l 0.42188,0 0.21093,-0.63281 0.63282,0.21094 -0.42188,-0.63281 1.05469,0.21093 0.42187,0 0,-0.21093 c -0.77347,1e-5 -1.4766,-0.49217 -2.10937,-1.47657 l 0.21094,-0.21093 0.21093,0 c 0.67965,0.98439 1.45309,1.47658 2.32032,1.47656 l 0,-0.21094 -0.84375,-0.63281 -0.21094,-0.21094 0,-0.42187 1.05469,0.63281 0,-0.42188 c -0.56254,2e-5 -0.84379,-0.21092 -0.84375,-0.63281 l 0,-0.21094 0.84375,0.63282 0.21093,0 0,-0.21094 -0.63281,-0.84375 0,-0.21094 0.63281,0.42188 -0.42187,-0.84375 0.42187,0 0,-0.21094 c -0.60941,-1.40623 -1.45316,-2.10935 -2.53125,-2.10938 m -25.73437,0.63282 0.42187,0.84375 0,0.21093 -0.63281,0 -0.21094,-0.84375 0.21094,-0.21093 0.21094,0 m 5.27344,0 0.21093,0 c 0.89061,2e-5 1.66405,0.35158 2.32032,1.05468 l -0.21094,0 c -1.54689,-0.37498 -2.32033,-0.72654 -2.32031,-1.05468 m -6.32813,0.42187 0.42188,0 0.42187,0.84375 -1.26562,0.42188 -0.21094,-0.84375 0.21094,0.21093 0.42187,0 0,-0.63281 m 14.13281,0.21094 -0.63281,7.38281 c -2e-5,4.28907 2.88279,7.52344 8.64844,9.70313 l 2.74219,0.42187 2.53125,0 0.63281,0.42188 0.63281,0 4.00781,-0.42188 0.84375,0 0.21094,0.21094 0.21094,0 0,-0.42188 -1.6875,-0.42187 -3.375,0.42187 -0.21094,-0.21093 0,-0.63282 c 1.26559,-0.23437 1.8984,-0.51562 1.89844,-0.84375 l 0,-0.84375 c -0.42192,0.32813 -1.40629,0.6797 -2.95313,1.05469 -3e-5,0.70313 -0.21097,1.05469 -0.63281,1.05469 l -1.47656,0 c -5.57816,0 -9.30471,-2.60156 -11.17969,-7.80469 -0.0938,-1.12499 -0.2344,-1.68749 -0.42187,-1.6875 l 0.42187,-4.64062 0,-2.74219 -0.21094,0 m 20.88282,0.21094 0.21093,0 0,0.84375 -0.84375,0.84375 -0.21093,0 0.84375,-1.6875 m -12.65625,0.42187 0.21093,0 c -3e-5,0.37502 0.42185,1.00783 1.26563,1.89844 l 0,0.21094 -0.63281,0 0.21093,-0.21094 0,-0.21094 c -0.70315,-0.18748 -1.05472,-0.67967 -1.05468,-1.47656 l 0,-0.21094 m -17.08594,0.21094 0.21094,0.21094 0.21093,0 -0.21093,0.63281 -0.21094,0 -0.42188,-0.42188 0.42188,-0.42187 m 17.50781,0 0.63281,0 0,0.42187 c 0.42185,2e-5 0.63278,0.14065 0.63282,0.42188 l 0,0.42187 c -0.46879,-0.11716 -0.89066,-0.53904 -1.26563,-1.26562 m 16.24219,0 0,0.63281 -0.63281,0 0,-0.42187 0.63281,-0.21094 m -17.71875,0.42187 0,2.53125 c 0.49215,2.81252 1.26559,4.21877 2.32031,4.21875 0.56247,0.84377 1.61715,1.26564 3.16406,1.26563 3.23434,-0.49218 4.85153,-1.61718 4.85157,-3.375 l 0,-0.21094 -0.63282,-0.63281 -0.21093,0 c -4e-5,0.42189 -0.14067,0.63283 -0.42188,0.63281 l -0.21094,0 0,-0.63281 c -4e-5,-0.28124 0.2109,-0.42186 0.63282,-0.42188 l 0.21093,-0.21093 0,-0.42188 -0.21093,0.21094 -0.21094,0 -0.42188,-0.42188 0,-0.63281 0.63282,0.42188 0,-0.21094 -0.42188,-1.05469 -0.42187,0 -0.21094,1.6875 0.42187,0.84375 -2.95312,0.84375 0,0.21094 1.47656,0.21094 1.05469,0 -0.21094,0.84375 0,0.21093 0.21094,0 c -4e-5,-0.42186 0.14058,-0.63279 0.42187,-0.63281 l 0.21094,0 c -4e-5,1.40626 -1.33597,2.10939 -4.00781,2.10938 -2.08597,1e-5 -3.63285,-1.68749 -4.64063,-5.0625 l 0,-1.89844 -0.42187,-0.42188 m -15.39844,0 0.63281,0 0,0.21094 -0.42187,0.42188 -0.21094,-0.21094 0,-0.42188 m -4.00781,0.42188 0.21094,0.21094 0,0.21093 0.84375,-0.42187 0,0.21094 -0.42188,0.84375 -0.21094,-0.21094 -0.21093,0 -0.63282,0.21094 0,-0.21094 -0.21093,-0.21094 0,-0.21094 0.63281,-0.42187 m 36.28125,0.63281 0,0.21094 0.63281,0 0.63281,-0.21094 0,-0.42187 -1.26562,0.42187 m -2.95313,1.26563 0,0.21093 c -0.70317,0.0938 -1.05473,0.30471 -1.05468,0.63282 l 0.42187,0 c -4e-5,0.28126 -0.21098,0.42189 -0.63281,0.42187 l -0.21094,0.21094 0,0.21094 0.21094,-0.21094 0.84375,0 0,0.42187 -0.84375,0 0,0.21094 1.05469,0 c -5e-5,0.42189 -0.63286,0.63283 -1.89844,0.63281 l 0,0.21094 c 0.56246,2e-5 0.84371,0.14064 0.84375,0.42188 l -0.42188,0 0,0.42187 0.63282,0 0,0.42188 -0.42188,0 c 0.49214,0.84376 1.12496,1.26563 1.89844,1.26562 1.24214,-0.32811 1.94526,-0.74999 2.10937,-1.26562 -4e-5,-0.28124 -0.21098,-0.42187 -0.63281,-0.42188 1.68745,-1.21873 2.5312,-2.20311 2.53125,-2.95312 l 0.21094,-0.21094 0,-0.21094 -2.53125,-0.42187 -0.21094,0.21093 0,-1.26562 -0.21094,0 c -1.54692,2e-5 -2.32035,0.35158 -2.32031,1.05469 l 0.63281,0 m 3.58594,-0.21094 0,0.21094 0.42188,0 0.42187,-0.42188 0,-0.21094 -0.42187,0 -0.42188,0.42188 m -7.38281,1.26562 0.21094,0.21094 1.05468,-0.63281 0.21094,0 0,0.21094 c -4e-5,0.42189 -0.28129,0.63282 -0.84375,0.63281 l 0,0.42187 0.21094,0 c 0.46871,2e-5 1.03121,-0.70311 1.6875,-2.10937 l -0.42188,0 c -1.40629,0.35158 -2.10941,0.77345 -2.10937,1.26562 m -18.5625,-0.63281 c -2e-5,1.64064 -1.47658,3.46876 -4.42969,5.48438 l -3.79687,0.42187 0.63281,0.63281 0.42187,0 c 3.09374,1e-5 5.48436,-1.7578 7.17188,-5.27343 l 0.21094,-0.84375 0,-0.42188 -0.21094,0 m -12.86719,0.21094 0,1.47656 c -1e-5,0.28127 -0.42188,0.56252 -1.26562,0.84375 l -1.26563,-0.21094 c -0.75,2e-5 -1.24219,0.28127 -1.47656,0.84375 l 0,1.05469 c 0.23437,0.56251 0.72656,0.84376 1.47656,0.84375 l 0.42188,0 0,-0.42187 -0.21094,0.21093 -0.21094,0 c -0.70313,-0.28123 -1.05469,-0.77342 -1.05469,-1.47656 l 0.63282,-0.63281 2.10937,0 c 0.98437,1e-5 1.47655,-0.49217 1.47656,-1.47656 l -0.21093,-1.05469 -0.42188,0 m 38.17969,-0.21094 0.63281,0.21094 0,0.21094 -0.63281,0 0,-0.42188 m -11.60156,0.21094 0.42187,0 0,0.21094 -0.42187,0 0,-0.21094 m -33.53907,0.42187 0,1.26563 0.21094,0 0,-1.26563 -0.21094,0 m 29.74219,0.42188 0,0.21094 0.63281,0.63281 0.42188,0 0,-0.21094 c -3e-5,-0.23436 -0.3516,-0.4453 -1.05469,-0.63281 m -24.04687,0.21094 0,0.63281 0.21093,0 0,-0.63281 -0.21093,0 m 6.75,1.89843 c 0.28123,0.84377 0.84373,1.26564 1.6875,1.26563 l 0.84375,0 c 1.17185,1e-5 2.29685,-0.84374 3.375,-2.53125 l -0.21094,0 c -0.86721,1.40626 -1.9219,2.10939 -3.16406,2.10937 l -1.47657,-1.05468 c 0.23436,-0.70311 0.65624,-1.05468 1.26563,-1.05469 l 0,-0.42188 -0.63281,0 c -1.12502,2e-5 -1.68752,0.56252 -1.6875,1.6875 m 23.41406,-1.89843 0.63281,0.63281 -0.84375,0 -0.42187,-0.42188 0.21093,-0.21093 0.42188,0 m -5.0625,1.47656 c 0.79684,0.98439 1.85153,1.47657 3.16406,1.47656 l 0.84375,-1.05469 c -0.42191,2e-5 -0.63285,0.21095 -0.63281,0.63282 l -0.42188,0 0,-0.21094 0.84375,-1.05469 -0.21093,0 -1.05469,0.63281 0,-0.42187 c 0.42184,1e-5 0.63277,-0.14061 0.63281,-0.42188 l 0,-0.21093 -0.21094,0 -1.26562,0.84375 -0.42188,0 c -3e-5,-0.35155 0.28122,-0.56249 0.84375,-0.63282 l 0,-0.21093 -0.21093,0 -1.89844,0.63281 m 8.22656,-0.42188 0,0.63282 0.42188,0 0,0.21093 -0.63282,0 0,0.63282 0.84375,0.42187 0.63282,0 c -0.42192,-1.26561 -0.8438,-1.89842 -1.26563,-1.89844 m 6.96094,0 c -0.63286,2.9297 -2.10942,5.60158 -4.42969,8.01563 l 0,0.42187 c 3.0937,-2.57811 4.64058,-5.3203 4.64063,-8.22656 l 0,-0.21094 -0.21094,0 m -40.28906,1.05469 c 0.35155,0.89064 1.47655,1.8047 3.375,2.74219 0.56248,-0.21093 0.84373,-0.42187 0.84375,-0.63281 -0.39845,1e-5 -1.52345,-0.70312 -3.375,-2.10938 l -0.84375,0 m 4.42968,0.63281 c -1e-5,0.98439 0.70312,1.47658 2.10938,1.47657 l 0.84375,0 0,-0.21094 c -1.54689,1e-5 -2.32033,-0.28124 -2.32031,-0.84375 l 0,-0.42188 0.42187,-0.63281 -0.42187,0 -0.63282,0.63281 m 18.35157,-0.63281 0,0.42188 0.21093,0 0,-0.42188 -0.21093,0 m 6.53906,0.42188 0.63281,0 0.42188,-0.42188 -0.63282,0 -0.42187,0.42188 m -19.40625,3.16406 0,1.26562 0.84375,0.84375 1.26562,0 c 0.51561,-0.2578 0.86717,-0.67968 1.05469,-1.26562 l -0.21094,0 c -2e-5,0.28126 -0.4922,0.49219 -1.47656,0.63281 l -0.63281,-1.05469 c -2e-5,-0.60936 0.91404,-1.87498 2.74219,-3.79687 l -0.21094,0 -3.375,3.375 m 12.65625,-2.95313 c -3e-5,0.56252 -0.35159,0.84377 -1.05469,0.84375 l 0.42188,0.42188 c 0.28122,-0.0703 0.56247,-0.42186 0.84375,-1.05469 l 0,-0.21094 -0.21094,0 m 1.26562,0 -0.42187,0.63282 c -3e-5,0.28126 0.35153,0.42188 1.05469,0.42187 l -0.42188,1.47656 0,0.21094 0.21094,0 c -3e-5,-0.42186 0.14059,-0.6328 0.42187,-0.63281 l 0.21094,0 0.42188,0.42187 -0.63282,1.05469 -0.21093,0 -0.21094,-0.21094 -0.21094,0 0,0.42188 0.63281,1.6875 0.21094,0 2.95313,-2.53125 0,0.84375 0.63281,0 c 1.12496,-0.79687 1.68746,-1.5703 1.6875,-2.32031 l -0.21094,0 c -0.28129,1e-5 -0.42191,0.28126 -0.42187,0.84375 l -0.42188,0 0,-0.63282 -0.63281,0 0,0.42188 -0.21094,0 -0.63281,-0.42188 -0.21094,0 0,0.63282 c -0.28128,1e-5 -0.42191,-0.21093 -0.42187,-0.63282 l -0.21094,0 -0.63281,0.42188 c -4e-5,-0.70311 -0.28129,-1.05468 -0.84375,-1.05469 l -1.47657,-1.05469 m 7.17188,1.05469 0.42187,0.42188 0.63282,-0.84375 0,-0.21094 -1.05469,0.63281 m 3.58594,-0.21094 0,0.21094 0.21093,0.63281 -0.21093,0 -0.63282,-0.42187 0,0.42187 c -0.42191,1e-5 -0.63285,-0.21092 -0.63281,-0.63281 l -0.21094,0 0,0.63281 0.42188,1.89844 -0.42188,0 -0.63281,-2.53125 -0.21094,0 0,1.47656 -0.42187,0 0,-0.84375 -0.21094,0 c -4e-5,0.70314 -0.14066,1.0547 -0.42187,1.05469 -4e-5,-0.70311 -0.14067,-1.05468 -0.42188,-1.05469 l -0.21094,0 -0.42187,1.89844 0.63281,1.47656 0.21094,0 c 0.28121,1e-5 0.42183,-0.21093 0.42187,-0.63281 l 0.42188,0 c 0.35152,1.68751 1.40621,2.53126 3.16406,2.53125 l 0.63281,-3.58594 -0.21093,-0.21093 0.21093,0 1.05469,0.21093 0,-0.42187 c -4e-5,-1.17187 -0.70317,-1.87499 -2.10937,-2.10938 m -36.28125,3.58594 c 0.23436,1.26563 0.51561,1.89845 0.84375,1.89844 l 0.42187,-0.42188 0.84375,0.84375 1.26563,0 0.42187,-0.42187 0,-0.21094 -1.26562,0 c -0.84376,-0.49218 -1.26564,-1.12499 -1.26563,-1.89844 l 0,-0.42187 c 0.44531,-0.84374 1.21874,-1.26562 2.32031,-1.26563 l 1.6875,0.42188 0,-0.42188 -2.32031,-0.63281 c -1.96876,0.39845 -2.95313,1.2422 -2.95312,2.53125 m 6.32812,-2.32031 0,0.21094 c 2.55467,2.10938 4.17186,3.16407 4.85156,3.16406 l 0.21094,0 0,-0.21094 -4.64062,-2.95312 -0.21094,-0.21094 -0.21094,0 m 17.50781,1.26562 -1.05468,-0.21093 -0.21094,0 c -0.4219,0.14063 -0.63284,0.56251 -0.63281,1.26562 l 0,0.21094 0.84375,-0.63281 c 0.74997,1e-5 1.24215,0.28125 1.47656,0.84375 l 0,0.84375 c -0.14066,0.42188 -0.56253,0.63282 -1.26563,0.63281 l -0.21093,0 c -1.82816,-0.46874 -2.74222,-1.10156 -2.74219,-1.89844 l -0.21094,0 0,0.42188 c 1.66404,1.54688 2.85935,2.32031 3.58594,2.32031 1.26559,-0.23437 1.8984,-0.86718 1.89844,-1.89844 l 0,-0.21094 -0.63282,-2.74218 c -0.28128,0.0703 -0.56253,0.42188 -0.84375,1.05468 m -17.92968,-0.84375 0,0.21094 c 1.35936,3.56251 2.34373,5.60157 2.95312,6.11719 3.42186,0 6.44529,-0.91406 9.07031,-2.74219 l 0.21094,-0.21094 0,-0.21093 -0.84375,-2.10938 -0.42187,0 c -3e-5,1.03126 -1.26565,1.87501 -3.79688,2.53125 l -0.42187,0 c -2.01565,1e-5 -3.98439,-1.05468 -5.90625,-3.16406 l -0.84375,-0.42188 m 36.07031,0 -1.26563,2.10938 c 1.12496,-0.58593 1.68745,-1.21874 1.6875,-1.89844 l -0.21093,-0.21094 -0.21094,0 m -44.71875,0.21094 0.21094,0 0,0.21094 -0.63282,0.84375 -0.42187,0 -0.42188,-0.42188 1.26563,-0.63281 m 0.42187,1.26563 0,0.21093 -0.42187,0.42188 -0.21094,0 -0.42187,-0.42188 1.05468,-0.21093 m 4.21875,0.42187 0,0.21094 c 0,0.28126 0.49218,0.42188 1.47657,0.42187 l 1.26562,1.26563 0,1.05469 c -0.44532,0 -0.8672,0.35156 -1.26562,1.05468 -1e-5,0.98438 0.49217,1.47657 1.47656,1.47657 l 0.21094,0 c 0.98436,0 1.47655,-0.42188 1.47656,-1.26563 l 0,-0.42187 -0.21094,0 c -1e-5,0.98437 -0.4922,1.47656 -1.47656,1.47656 -0.63282,-0.28125 -0.98439,-0.5625 -1.05469,-0.84375 l 0,-0.21094 c 0.98436,-1.07812 1.47655,-1.92187 1.47656,-2.53125 -0.70313,-1.12499 -1.82813,-1.68749 -3.375,-1.6875 m 2.95313,0 0,0.42188 1.05469,0.21093 0,-0.63281 -1.05469,0 m 21.9375,2.53125 -0.21094,-0.21094 0,0.42188 0.84375,0 1.6875,-1.47656 0.21094,-0.21094 c 0.56246,0.21094 0.84371,0.42188 0.84375,0.63281 l 0,0.42188 c -4e-5,0.86719 -1.26566,1.35938 -3.79688,1.47656 l 0,0.21094 1.89844,0 c 1.35934,0 2.34371,-0.70312 2.95313,-2.10938 -0.14067,-0.98437 -0.56254,-1.47655 -1.26563,-1.47656 -0.79691,1e-5 -1.57035,0.70313 -2.32031,2.10937 l -0.84375,0.21094 m 7.17187,-2.10937 1.26563,1.05468 0,0.21094 -0.21094,0 c -0.37504,-0.0937 -0.7266,-0.4453 -1.05469,-1.05469 l 0,-0.21093 m 2.74219,2.95312 0,0.21094 0.21094,0 3.375,-1.47656 c 0.86714,0 1.49995,0.35156 1.89844,1.05468 l 0,0.42188 -0.63282,0.84375 -2.53125,-0.42188 -0.42187,1.05469 1.05469,-0.63281 2.10937,0.42187 c 0.42183,1e-5 0.8437,-0.42187 1.26563,-1.26562 l -0.63282,-1.47656 0.21094,-0.63282 -0.21094,0 -1.26562,-0.42187 -4.42969,2.32031 m -37.125,-1.89844 0,1.26563 0.21094,0 0,-1.26563 -0.21094,0 m 19.19531,0 c 0.7031,0.93751 1.05466,1.64063 1.05469,2.10938 l 0,0.42187 -0.84375,0.84375 -2.32031,-0.42187 -0.84375,0 -0.21094,0.63281 0.21094,0.21094 0.21094,0 c -3e-5,-0.42187 0.1406,-0.63281 0.42187,-0.63281 l 2.74219,0.84375 c 0.58591,-0.1875 1.00778,-0.53906 1.26562,-1.05469 l 0,-0.63281 c -2e-5,-0.75 -0.56252,-1.52344 -1.6875,-2.32032 m -2.10937,1.6875 c 1.12497,-0.49218 1.68747,-0.84374 1.6875,-1.05468 l -0.21094,0 -1.47656,1.05468 m -22.35938,0.42188 c 0.21094,0.5625 0.42188,0.84375 0.63282,0.84375 l 0.21093,0 -0.42187,-0.63281 c 0.14062,-0.5625 0.5625,-0.84375 1.26562,-0.84375 l 2.10938,1.47656 0,-0.21094 c -1.125,-1.26562 -2.03907,-1.89843 -2.74219,-1.89844 l -0.21094,0 c -0.28125,1e-5 -0.5625,0.42188 -0.84375,1.26563 m 39.23438,0 0,0.42187 c 1.82808,-0.28124 2.74214,-0.6328 2.74219,-1.05468 l -0.63282,0 -2.10937,0.63281 m -22.78125,1.05469 0,0.21093 1.26562,0 c 0.58592,1e-5 1.92186,-0.42187 4.00782,-1.26562 l 0,-0.21094 -0.21094,0 c -2.06252,0.84376 -3.75002,1.26563 -5.0625,1.26563 m 22.14844,-0.63282 0,0.21094 0.42187,0 0,-0.21094 -0.42187,0 m -0.84375,0.21094 0,0.21094 0.42187,0 0,-0.21094 -0.42187,0"
         style="font-size:72px;font-variant:normal;font-stretch:normal;font-family:Goudy Initials;-inkscape-font-specification:Goudy Initials"
         id="path4277" />
    </g>
  </g>
</svg>
