<?xml version="1.0" encoding="UTF-8" standalone="no"?>
<!-- Created with Inkscape (http://www.inkscape.org/) -->

<svg
   xmlns:dc="http://purl.org/dc/elements/1.1/"
   xmlns:cc="http://creativecommons.org/ns#"
   xmlns:rdf="http://www.w3.org/1999/02/22-rdf-syntax-ns#"
   xmlns:svg="http://www.w3.org/2000/svg"
   xmlns="http://www.w3.org/2000/svg"
   xmlns:sodipodi="http://sodipodi.sourceforge.net/DTD/sodipodi-0.dtd"
   xmlns:inkscape="http://www.inkscape.org/namespaces/inkscape"
   width="56.734375"
   height="56.734375"
   id="svg2"
   version="1.1"
   inkscape:version="0.48.5 r10040"
   sodipodi:docname="j.svg">
  <defs
     id="defs4" />
  <sodipodi:namedview
     id="base"
     pagecolor="#ffffff"
     bordercolor="#666666"
     borderopacity="1.0"
     inkscape:pageopacity="0"
     inkscape:pageshadow="2"
     inkscape:zoom="3.959798"
     inkscape:cx="43.996764"
     inkscape:cy="-4.4843295"
     inkscape:document-units="px"
     inkscape:current-layer="layer1"
     showgrid="false"
     fit-margin-top="2"
     fit-margin-left="2"
     fit-margin-right="2"
     fit-margin-bottom="2"
     inkscape:window-width="1366"
     inkscape:window-height="733"
     inkscape:window-x="0"
     inkscape:window-y="0"
     inkscape:window-maximized="1"
     showborder="true"
     borderlayer="false" />
  <metadata
     id="metadata7">
    <rdf:RDF>
      <cc:Work
         rdf:about="">
        <dc:format>image/svg+xml</dc:format>
        <dc:type
           rdf:resource="http://purl.org/dc/dcmitype/StillImage" />
        <dc:title></dc:title>
      </cc:Work>
    </rdf:RDF>
  </metadata>
  <g
     inkscape:label="Layer 1"
     inkscape:groupmode="layer"
     id="layer1"
     transform="translate(-152.28125,-146.34738)">
    <g
       style="font-size:40px;font-style:normal;font-weight:normal;line-height:125%;letter-spacing:0px;word-spacing:0px;fill:#ffffff;fill-opacity:1;stroke:none;font-family:Sans"
       id="flowRoot2985">
      <path
         d="m 154.28125,148.34738 52.73437,0 0,52.73438 -52.73437,0 0,-52.73438 m 1.05469,1.05469 0,50.625 50.625,0 0,-50.625 -50.625,0 m 0.42187,0.63281 49.57031,0 0,49.57032 -49.57031,0 0,-49.57032 m 30.16406,1.89844 c -3e-5,0.79693 0.77341,1.28911 2.32032,1.47656 l 0.42187,0 c 0.60934,5e-5 1.94528,-0.49213 4.00781,-1.47656 l 0,-0.21094 -0.21093,0 c -2.0391,0.98443 -3.37504,1.47661 -4.00782,1.47657 -0.84378,-0.2812 -1.26565,-0.56245 -1.26562,-0.84375 l 0,-0.63282 0.63281,-0.63281 1.05469,0 0.21094,0.21094 0.21093,0 0,-0.42188 -2.10937,-0.42187 c -0.84378,0.32817 -1.26566,0.82036 -1.26563,1.47656 m -29.74218,0.42188 0,0.21093 c 0,0.98443 0.49218,1.47661 1.47656,1.47657 l -0.42188,1.05468 0.21094,0 c 0.46875,5e-5 1.24219,-0.49214 2.32031,-1.47656 l 0.21094,0 0.21094,0.21094 0.21094,0 0.21093,-0.21094 -0.21093,-0.21094 0,-0.42187 0.63281,0 -0.21094,0.21094 0,0.21093 0.63281,0 5.69532,-1.6875 1.05468,0 c 3.53905,5e-5 6.42186,1.12505 8.64844,3.375 l 0,-1.05468 c -3.02345,-2.13277 -6.04689,-3.25777 -9.07031,-3.375 -3.00001,5e-5 -5.95313,0.77348 -8.85938,2.32031 l -0.84375,0.21094 c -0.60937,-0.14058 -1.03125,-0.49214 -1.26562,-1.05469 l 0,-0.63281 0.42187,-0.42188 0.42188,0 1.47656,1.05469 0.84375,-0.63281 0,-0.42188 -1.05469,0.21094 -0.42187,0 -1.05469,-0.63281 c -0.84375,0.2813 -1.26562,0.8438 -1.26562,1.6875 m 18.98437,-1.26563 0,0.84375 1.05469,1.05469 0,-0.21094 -0.42188,-0.42187 0.21094,-0.21094 -0.21094,0 -0.21093,0.21094 0,-0.84375 0.63281,-0.84375 -0.63281,0 -0.42188,0.42187 m 2.53125,1.89844 0.21094,-0.21094 0.42187,0 -0.21093,0.21094 0.21093,1.05469 0,0.42187 -0.21093,0 0,-0.42187 -0.21094,0 0,0.21093 0.42187,1.6875 -0.42187,0 0,-0.42187 -0.21094,0 0,0.21094 1.05469,2.10937 -0.42188,0.42188 c -0.21096,4e-5 -0.63283,-0.70308 -1.26562,-2.10938 -0.96096,-0.70308 -1.87502,-1.05464 -2.74219,-1.05469 -1.12502,5e-5 -1.89845,0.70317 -2.32031,2.10938 -2e-5,0.86723 0.35154,1.50004 1.05469,1.89844 l 0.21093,0 c -1e-5,-1.26558 0.42186,-1.8984 1.26563,-1.89844 0.49217,0.0704 1.40623,0.84379 2.74219,2.32031 l 0.63281,0 c 0.86716,4e-5 1.49997,-0.56246 1.89844,-1.6875 -0.21097,5e-5 -0.49222,-0.63277 -0.84375,-1.89844 l 0.21093,0 0.21094,0.21094 0.21094,0 0,-0.21094 -0.21094,-1.6875 c 0.39841,-1.68745 1.17185,-2.5312 2.32031,-2.53125 l 0.84375,0 c 0.39841,5e-5 0.67966,0.56255 0.84375,1.6875 -1.40627,1.07818 -2.1094,1.99224 -2.10937,2.74219 l 0,0.42188 0.42187,0 0,-1.05469 c 1.54685,-1.05464 2.32029,-1.82808 2.32032,-2.32031 l 0.21093,-0.84375 c -0.46877,-1.12495 -1.38284,-1.68745 -2.74218,-1.6875 l -0.63282,0 c -1.10158,5e-5 -2.15627,0.77348 -3.16406,2.32031 m 22.99219,-2.10938 -0.21094,0.63282 0.21094,0.63281 0.21094,0 0.21093,-1.26563 -0.42187,0 m 0.63281,1.89844 0,0.63281 1.26563,1.6875 0,0.84375 -0.63282,0.21094 -1.89843,-1.89844 0.42187,0 0.63281,0.42188 0,-0.42188 -1.05468,-0.21093 -0.42188,0 c -4e-5,0.42192 -0.21098,0.63286 -0.63281,0.63281 -0.70317,5e-5 -1.05473,0.49223 -1.05469,1.47656 l 0,0.21094 0.63281,-0.84375 0.21094,-0.21094 0.84375,0 1.89844,1.6875 0.84375,-0.21094 c 0.56245,1.24223 0.8437,2.36723 0.84375,3.375 l -0.63281,2.95313 0.21093,0 c 0.56246,4e-5 0.91402,-1.19527 1.05469,-3.58594 -5e-5,-0.74996 -0.2813,-1.87495 -0.84375,-3.375 l 0.42188,-0.42187 0,-0.21094 -0.63282,-3.375 1.05469,-0.63281 0,-0.42188 -1.05469,0 -1.05468,1.6875 -0.42188,0 m -9.28125,0.21094 0,0.42187 0.42188,0 c 1.03121,-0.96088 2.43746,-1.52338 4.21875,-1.6875 1.24214,0.0938 2.57808,0.6563 4.00781,1.6875 l 0,-0.63281 c -1.14848,-0.98432 -2.34379,-1.47651 -3.58594,-1.47656 l -1.26562,0 c -0.91411,5e-5 -2.17973,0.56255 -3.79688,1.6875 m -29.53125,-1.26563 0.63281,0.21094 -0.42187,0.42188 -0.21094,0 0,-0.63282 m 0.84375,0 0.63281,0 -0.42187,0.42188 -0.21094,-0.21094 0,-0.21094 m -1.26562,0.42188 0.21093,0 0,0.42187 -0.63281,0 0.42188,-0.42187 m 8.85937,0.84375 0.42188,0.42187 0.21093,0 0.42188,-0.42187 0,-0.21094 0.21094,0.21094 0.63281,0 0,-0.21094 -1.47656,-0.21094 -0.42188,0.42188 m -9.91406,-0.42188 0.42187,0 0,0.42188 -0.42187,-0.42188 m 36.28125,1.26563 0.21094,0.21094 0.21093,0 c -4e-5,-0.42183 0.28121,-0.77339 0.84375,-1.05469 l 0.21094,0 0.21094,0.21094 0.21094,0 0,-0.21094 -0.21094,-0.21094 -0.42188,0 c -0.84379,5e-5 -1.26566,0.35161 -1.26562,1.05469 m -6.11719,-0.42188 0.21094,0 0.42187,-0.42187 -0.21093,0 -0.42188,0.42187 m -13.71094,-0.21093 0,0.42187 0.21094,0 0,-0.42187 -0.21094,0 m -11.39062,0.63281 -4.21875,0 -1.05469,0.21094 0,0.21093 c 0,0.35161 0.84375,0.63286 2.53125,0.84375 0.84374,0.56255 1.26562,2.46099 1.26563,5.69532 l 0,2.74218 0.21093,0 c 0.35156,4e-5 1.40624,-0.84371 3.16407,-2.53125 l 0,-1.26562 -0.42188,-1.26563 0.21094,-0.21093 -0.21094,0 -0.21094,0.21093 0,-1.6875 0.84375,-0.84375 0.21094,0.21094 0.21094,0 c -1e-5,-0.79683 0.91405,-1.42964 2.74219,-1.89844 l 0,-0.42187 -1.26563,-0.21094 -4.00781,0.21094 m 8.22656,-0.21094 0,0.21094 0.21094,0.21094 0.21094,0 0,-0.21094 -0.21094,-0.21094 -0.21094,0 m 11.8125,0.42188 c -3e-5,0.37504 0.91403,0.72661 2.74219,1.05468 l 0.42187,1.6875 c -3e-5,0.25786 -1.68753,1.87505 -5.0625,4.85157 -1.40627,1.26566 -2.1094,2.10941 -2.10937,2.53125 l -0.21094,2.10937 12.02344,-10.75781 2.53125,-0.84375 0,-0.84375 -2.32031,0 c -1.64067,5e-5 -2.76566,0.14067 -3.375,0.42187 -0.84379,-0.2812 -2.10941,-0.42182 -3.79688,-0.42187 l -0.84375,0.21094 m -26.15625,0 c -1.26563,1.10161 -1.89844,2.43754 -1.89844,4.00781 0,0.56254 0.35156,0.84379 1.05469,0.84375 0.0937,1.54691 0.72656,2.32035 1.89844,2.32031 l 0.21094,0 -0.21094,-0.21094 0,-0.42187 0.21094,0.21094 0.84375,0 c 1.12499,4e-5 1.68749,-0.70309 1.6875,-2.10938 -0.0469,-0.65621 -1.10157,-1.42964 -3.16407,-2.32031 l -0.21093,0 c -1e-5,0.42192 0.70312,0.84379 2.10937,1.26562 l 0.42188,0.84375 c -0.28126,0.63286 -0.56251,0.98442 -0.84375,1.05469 l -0.42188,0 c -1.125,4e-5 -1.82813,-0.77339 -2.10937,-2.32031 l 0.63281,-1.89844 -0.21094,-1.05469 0.21094,-0.21093 -0.21094,0 m 11.60156,0 0,0.42187 c -1.96876,0.63286 -2.95313,1.47661 -2.95312,2.53125 l 0,0.21094 c 0.58592,-1.05464 1.64061,-1.82808 3.16406,-2.32031 l 0,-0.84375 -0.21094,0 m 3.375,0 0,0.21093 0.21094,0.21094 0.21094,0 0,-0.21094 -0.21094,-0.21093 -0.21094,0 m 21.9375,0.21093 c -4e-5,0.56255 -0.9141,1.05474 -2.74218,1.47657 l -12.23438,11.17968 0,0.42188 c 8.29684,-7.73433 12.72652,-11.60152 13.28906,-11.60156 0.98434,4e-5 1.68746,-0.35152 2.10938,-1.05469 l -0.42188,-0.42188 m -35.85937,0.84375 0,0.21094 2.74219,1.05469 0,-0.21094 c -0.89064,-0.70308 -1.73439,-1.05464 -2.53125,-1.05469 l -0.21094,0 m 25.73437,0 1.89844,1.05469 0,-0.21094 c -0.18753,-0.56245 -0.82034,-0.8437 -1.89844,-0.84375 m -12.02343,0.21094 0.21093,0 0.42188,0.42188 -0.84375,0 0,0.21093 2.10937,0.63282 0,0.21093 -0.21093,0 -1.89844,-0.21093 -1.47656,0.42187 0,-0.21094 0.42187,-0.42187 -0.21094,-0.21094 0,-0.63281 1.47657,-0.21094 m 9.07031,2.32031 0.21094,0.21094 0.21093,0 0.21094,-0.21094 0.21094,0.21094 0,0.21094 -1.47656,0.21094 0,0.42187 1.05468,-0.21094 0,0.21094 -0.21093,0.21094 0,0.21094 0.21093,0.21093 0.21094,0 1.05469,-0.63281 0.21094,0.21094 0.63281,0 0,-0.42188 -0.63281,-0.63281 -0.84375,0.21094 0,-0.21094 0.42187,-1.26562 0,-1.05469 -1.47656,2.10937 m -27.63281,-1.26562 0.42187,0.42187 0.21094,0 0.84375,-0.84375 0,-0.21093 c -0.42188,0.42192 -0.91406,0.63285 -1.47656,0.63281 m 30.58593,0 c -3e-5,0.21098 0.28122,0.42192 0.84375,0.63281 l 0,0.42188 0.21094,0 0,-0.84375 -1.05469,-0.21094 m -27.63281,0 0.21094,0 -0.63281,0.84375 -0.21094,0 0,-0.21094 0.63281,-0.63281 m 21.72656,2.10937 0.42188,0 -0.42188,0.63282 0.21094,0.21093 0.84375,0 c 0.35154,5e-5 0.56247,-0.8437 0.63281,-2.53125 -0.46877,5e-5 -1.03127,0.56255 -1.6875,1.6875 m -23.41406,-1.47656 c -0.70312,2.17973 -1.05469,4.00785 -1.05469,5.48438 l 0.42188,2.53125 0.84375,-0.63282 c -0.42188,-0.93746 -0.63282,-1.92183 -0.63281,-2.95312 l 0,-0.42188 0.63281,-3.375 -0.21094,0 0.21094,-0.21093 0,-0.42188 -0.21094,0 m 37.75781,0 c -4e-5,1.26567 -0.77347,1.89848 -2.32031,1.89844 l 0,0.21094 0.42188,0 -0.42188,0.42187 -0.21094,0 -0.42187,-0.42187 0.21094,-0.21094 -0.21094,-0.21094 -0.21094,0 -1.05469,1.26563 0,0.21093 c 0.84372,1.12504 1.68747,1.68754 2.53125,1.6875 l 0,0.42188 c -1.40628,4e-5 -2.39066,-0.63277 -2.95312,-1.89844 l -1.05469,0.84375 1.6875,4.00781 0,0.84375 -0.42187,1.26563 0.21093,0 c 0.93747,3e-5 1.49997,-1.05465 1.6875,-3.16406 1.12497,0.23441 1.68746,0.44535 1.6875,0.63281 0.91403,-0.28121 2.17965,-1.3359 3.79688,-3.16406 l -1.6875,1.05468 0,-0.21093 c 0.58589,-0.98434 1.35933,-1.47653 2.32031,-1.47657 l 0.21094,0 0,0.21094 c -0.42192,4e-5 -0.63286,0.14067 -0.63281,0.42188 l 1.47656,-0.42188 0,-0.42187 c -5e-5,-0.32809 -0.56255,-0.67965 -1.6875,-1.05469 l 0,0.42187 -0.21094,0 -1.89844,0.21094 -0.21093,0 0,-0.21094 0.42187,0 0,-0.21093 -0.21094,0 -0.84375,0.21093 0,-0.21093 0.84375,-1.05469 0,-1.26563 -0.63281,-0.63281 -0.21094,0 m -27.21093,0.21094 0,0.42187 c -2e-5,1.4063 1.1953,2.32036 3.58593,2.74219 l 0,0.42188 c -1.40626,1.17191 -2.10939,2.29691 -2.10937,3.375 l 0,0.42187 0.42187,0 c 0.77343,-1.26559 1.47655,-1.8984 2.10938,-1.89844 l 0,-0.84375 -0.21094,-0.21093 0,-0.21094 0.84375,0 c 0.70311,0.3516 1.05467,1.05473 1.05469,2.10937 -2e-5,2.10941 -1.33596,3.79691 -4.00781,5.0625 l -0.21094,0 0,0.84375 c 3.23436,-1.47653 4.85154,-3.72652 4.85156,-6.75 -2e-5,-1.54683 -0.91408,-2.32027 -2.74219,-2.32031 l 0.21094,-0.21094 0,-0.63281 c -2e-5,-0.98433 -0.98439,-1.47652 -2.95312,-1.47656 l -0.84375,-0.84375 m 30.16406,0.84375 0,0.63281 0.42187,0.42188 c -4e-5,-0.84371 0.42184,-1.26558 1.26563,-1.26563 l 0.42187,0 c 1.26558,0.63286 1.89839,1.82817 1.89844,3.58594 l 0.21094,0 0,-1.26563 c -0.42192,-1.82808 -1.19536,-2.74214 -2.32031,-2.74218 l -0.63282,0 c -0.84379,0.0938 -1.26566,0.30473 -1.26562,0.63281 m -29.10938,0.21094 0.21094,0 1.6875,0.63281 0,-0.21094 0.63281,0.21094 0,0.42187 c -1.10157,5e-5 -1.94532,-0.35152 -2.53125,-1.05468 m 9.28125,0.21093 0.21094,0 0.42188,0.42188 -0.21094,0.21094 -0.21094,0 -0.21094,-0.21094 0,-0.42188 m 0.84375,1.26563 0.21094,0.21094 0.42188,0 0.21093,-0.84375 c -0.56252,0.21098 -0.84377,0.42191 -0.84375,0.63281 m -21.51562,0 0,0.42187 0.21094,0 0,-0.42187 -0.21094,0 m 22.78125,0 0,0.21094 0.21094,0.21093 0,0.21094 -0.63282,0 0.42188,0.63281 0,1.05469 c -0.37503,4e-5 -0.58596,-0.35152 -0.63281,-1.05469 l -0.21094,0 -0.21094,0.21094 -0.21094,0 -0.21093,-0.21094 -0.21094,1.05469 0,0.21094 c -2e-5,0.25785 0.63279,0.46879 1.89844,0.63281 l 1.26562,-1.47656 0,-0.84375 -0.84375,-0.84375 -0.63281,0 m -12.02344,0.21094 0,0.84375 0.42188,-0.42188 -0.42188,-0.42187 m 8.4375,0 0,0.42187 0.63281,0 0,-0.21094 -0.63281,-0.21093 m 1.47656,0 -0.21093,0.21093 0,0.42188 0.84375,0 0,-0.42188 -0.63282,-0.21093 m 13.71094,-0.21094 0.21094,0 2.53125,0.63281 0,0.21094 -0.42188,0 c -1.54691,-0.28121 -2.32035,-0.56246 -2.32031,-0.84375 m -34.38281,1.26562 0,0.63282 c 0.16406,1.12504 0.72656,1.68753 1.6875,1.6875 l 0.42187,0 0.63282,-0.63282 0,-0.42187 -0.42188,-0.42188 c 0,0.42192 -0.28125,0.63286 -0.84375,0.63282 -0.84375,-0.32809 -1.26563,-0.82028 -1.26562,-1.47657 l -0.21094,0 m 6.96094,3.375 -0.42188,0 -1.26562,-0.42187 0,0.63281 1.05468,0.21094 c 0.63281,4e-5 2.32031,-1.12496 5.0625,-3.375 l 1.26563,-0.21094 0,-0.21094 -0.21094,0 c -0.82033,4e-5 -2.29689,0.91411 -4.42969,2.74219 l -1.05468,0.63281 m 10.54687,-2.32031 2.95313,0 0,-0.63281 -0.42188,0 -0.21094,0.21094 -0.21093,0 0,-0.21094 0.21093,-0.21094 0,-0.21094 -0.63281,0 -0.21094,0.21094 -0.21093,-0.21094 -0.21094,0 c -0.37502,4e-5 -0.72658,0.35161 -1.05469,1.05469 m 24.67969,-0.21094 0,0.21094 c 0.8437,0.11723 1.26558,0.5391 1.26562,1.26563 l -0.21093,0.21093 0,0.42188 0.21093,0 0.21094,-1.05469 c -4e-5,-0.51558 -0.21098,-0.93746 -0.63281,-1.26562 l -0.84375,0.21093 m 2.10937,-0.21093 0,0.84375 0.21094,0 0,-0.84375 -0.21094,0 m -40.07812,0.21093 -0.21094,0.84375 0.21094,0.21094 0.63281,0 0.21094,-0.84375 -0.21094,-0.21094 -0.63281,0 m 32.90625,0.21094 0.63281,0.21094 0,0.21094 -0.63281,0.63281 -0.21094,0 0.21094,-1.05469 m -31.64063,0.84375 0,0.42188 0.42188,0 0.42187,-0.42188 -0.42187,-0.42187 -0.42188,0.42187 m 5.27344,-0.42187 0,1.6875 0.21094,0 0,-1.6875 -0.21094,0 m 1.6875,0 0.21094,0 0,0.21093 c -0.14064,0.84379 -0.35158,1.26567 -0.63281,1.26563 l 0,-0.21094 0.42187,-1.26562 m -5.48437,2.74218 0,15.60938 0.21093,-0.21094 1.26563,0 2.10937,0.21094 0,-1.6875 5.27344,-4.85156 9.91406,10.54687 c 0.67966,-1.26561 1.66404,-1.89842 2.95313,-1.89844 l -10.125,-10.96875 3.79687,-4.00781 0.21094,-2.53125 -11.60156,10.75781 -0.42188,0 -0.21093,-13.28906 c -1.75783,1.54691 -2.88283,2.32035 -3.375,2.32031 m 31.64062,-2.53125 0.21094,0 0,0.42188 -0.21094,0 0,-0.42188 m -15.60937,0.84375 0.21093,1.6875 c -2e-5,2.36723 -0.70315,4.75785 -2.10937,7.17188 l 0,0.42187 0.63281,0.21094 c 1.40623,-2.97653 2.10935,-6.14059 2.10938,-9.49219 l -0.21094,-0.21093 -0.63281,0.21093 m 15.60937,1.26563 0,0.42187 0.63281,-0.42187 0.84375,0 0.63282,0.63281 c -5e-5,2.13285 -2.60161,3.5391 -7.80469,4.21875 l -0.63281,0 0,0.63281 0.63281,0 0,-0.42187 2.32031,0 c 4.17183,3e-5 7.61714,-1.68747 10.33594,-5.0625 l 0.42187,0 0.63282,0.21094 0,-0.63282 c -5e-5,-0.28121 -0.21099,-0.42183 -0.63282,-0.42187 l -0.63281,0.21094 0,-0.42188 c -0.93755,4e-5 -1.99223,1.05473 -3.16406,3.16406 -1.07817,0.98441 -1.85161,1.4766 -2.32031,1.47657 l 0,-0.21094 c 1.54683,-1.1484 2.32026,-2.34372 2.32031,-3.58594 l -0.21094,-1.05469 -0.42187,0 0,0.42188 -1.6875,-0.42188 c -0.4688,0.11723 -0.89067,0.5391 -1.26563,1.26563 m -34.59375,-1.05469 0,0.84375 0.21094,0 0.42187,-0.42187 -0.42187,-0.42188 -0.21094,0 m 9.70313,5.27344 0.21093,0 c 2.29686,-2.67184 4.05467,-4.00778 5.27344,-4.00781 0.42185,0.51566 0.63279,1.00784 0.63281,1.47656 l -0.42187,0.63281 0.21094,0 c 0.63279,-0.28121 0.98435,-0.56246 1.05468,-0.84375 l 0,-0.84375 -0.84375,-0.84375 0.21094,-0.63281 -0.21094,-0.21094 -0.21093,0 c -1.52346,4e-5 -2.8594,1.12504 -4.00782,3.375 l -1.89843,1.89844 m 15.39843,-4.64063 0,0.21094 c 1.03122,4e-5 1.66403,0.56254 1.89844,1.6875 -0.21097,1.12504 -0.56253,1.68753 -1.05469,1.6875 l 0.21094,1.05469 0,0.42187 -0.42187,1.6875 0.21093,0 c 1.12497,3e-5 1.75778,-0.70309 1.89844,-2.10937 l -0.21094,0 -0.84375,0.21094 0,-0.21094 c 0.98434,-0.84372 1.47653,-1.61715 1.47657,-2.32031 -0.28129,-1.96872 -0.84379,-2.95309 -1.6875,-2.95313 l -0.42188,0 c -0.70316,0.0938 -1.05472,0.30473 -1.05469,0.63281 m 6.53907,-0.63281 0.63281,0 0.42187,0.42188 -1.05468,0 0,-0.42188 m -36.49219,3.58594 0,0.84375 c 0,2.13284 0.70312,3.89065 2.10937,5.27344 l 0,-0.42188 c -1.26562,-1.73434 -1.89844,-3.49215 -1.89843,-5.27344 0.42187,-2.10934 1.26562,-3.16402 2.53125,-3.16406 1.5703,4e-5 2.6953,1.26566 3.375,3.79688 l 0,0.42187 0.42187,0 0,-0.21094 c -0.79688,-2.95309 -2.20313,-4.42965 -4.21875,-4.42968 -1.54688,0.58597 -2.32031,1.64066 -2.32031,3.16406 m 11.8125,-2.53125 0,10.75781 0.21094,0 0,-10.75781 -0.21094,0 m 1.6875,0.63281 c -2e-5,0.28129 0.28123,0.42191 0.84375,0.42188 l -0.21094,0.21093 0.21094,0.21094 0,0.42188 -0.84375,1.05468 c 0.98436,-0.42184 1.47654,-1.05465 1.47656,-1.89843 l 0,-0.21094 -0.63281,-0.63281 -0.42188,0 -0.42187,0.42187 m -12.23438,0.84375 -0.21093,0.21094 0,0.21094 c 2.10937,2.39065 4.0078,3.58597 5.69531,3.58593 l 0.42187,0 0,-0.42187 c 0,-0.32809 -0.63282,-0.53903 -1.89843,-0.63281 -1.47657,-0.77341 -2.81251,-1.75778 -4.00782,-2.95313 m 0.84375,0 0,0.21094 0.63282,0.42187 0,-0.21093 -0.63282,-0.42188 m 34.38282,0 0,0.42188 0.63281,0.21093 c -0.0703,0.49223 -0.49223,1.05472 -1.26563,1.6875 l 0.42188,0 c 0.98434,-0.28121 1.47652,-0.84371 1.47656,-1.6875 l -0.63281,-0.63281 -0.63281,0 m -32.90625,0.84375 -0.21094,0 -0.21094,-0.21094 -0.21094,0 0,0.21094 1.26563,0.42188 0.42187,-0.42188 0,-0.63281 -0.21093,0 -0.84375,0.63281 m 22.99218,0.42188 0.21094,0 0.84375,-0.63282 0.42188,0 c 1.40622,0.28129 2.10934,0.98441 2.10937,2.10938 l 0,0.42187 -0.42187,1.6875 0.21093,0 0.42188,-1.6875 0,-0.42187 c -0.32816,-1.68747 -1.17191,-2.53122 -2.53125,-2.53125 -0.75003,0.28128 -1.1719,0.63285 -1.26563,1.05469 m 18.98438,-0.84375 0,0.63281 0.21094,0 0.42187,-0.42188 0,-0.21093 -0.63281,0 m 1.05469,0.84375 0.21093,1.05468 0.42188,0 0,-1.05468 -0.63281,0 m -21.09375,0.21093 -0.21094,0.21094 0,0.63281 0.21094,0 0.42187,-0.42187 -0.42187,-0.42188 m 19.82812,0.21094 -0.21094,0.84375 0.84375,0.42188 0.21094,-0.21094 0,-0.63281 -0.42187,-0.42188 -0.42188,0 m -18.35156,0.21094 0,0.84375 0.42187,0 0.42188,-0.42188 0,-0.42187 -0.84375,0 m 17.29687,0 0,0.42187 0.21094,0 0,-0.42187 -0.21094,0 m -4.42968,0 0.42187,0 0.42188,0.42187 -0.42188,0.42188 -0.42187,-0.84375 m -37.96875,0.42187 0,0.21094 0.21093,0.21094 0.21094,0 0,-0.21094 -0.21094,-0.21094 -0.21093,0 m 33.11718,0 0,0.21094 0.63282,0 0,-0.21094 -0.63282,0 m 7.80469,0.42188 0,0.21094 0.42188,0.42187 0.21093,0 0.42188,-0.42187 0,-0.63282 -0.63281,0 -0.42188,0.42188 m -16.875,1.6875 0,0.63281 0.42188,0 0,0.42188 c -0.96097,0.16409 -2.08597,0.65628 -3.375,1.47656 l 0,0.63281 0.42187,0 0,0.21094 c 1.2656,-0.84372 2.32029,-1.2656 3.16406,-1.26563 l 0.21094,0 0,0.21094 -0.21094,0.63281 0.63282,0.42188 0.63281,0 3.58594,-0.63281 c 0.84371,0.28127 1.26559,0.56252 1.26562,0.84375 l 0,0.21093 c -0.23441,0.56253 -0.65628,0.84378 -1.26562,0.84375 l 0,0.42188 0.42187,0 c 1.12497,2e-5 1.68747,-0.56247 1.6875,-1.6875 l -0.42187,-0.84375 0.21093,-0.63281 -1.6875,-0.84375 -0.84375,0 0,0.21093 c 0.84372,3e-5 1.2656,0.14066 1.26563,0.42188 l -1.89844,0.21094 0,-0.21094 0.21094,-0.21094 0,-0.21094 -0.42188,0 c -1.05471,0.70316 -2.03909,1.05472 -2.95312,1.05469 l -0.21094,-0.63281 0.21094,-0.63281 0.21094,0 0,0.63281 0.21093,0 c -2e-5,-0.56247 0.56247,-0.91403 1.6875,-1.05469 l 0.63282,-2.32031 -0.21094,-0.21094 c -2.32034,0.96097 -3.51565,1.59378 -3.58594,1.89844 m 13.5,-2.10938 0.21094,0 0.42187,0.42188 0,0.21094 -0.21093,0 -0.42188,-0.42188 0,-0.21094 m -26.78906,1.47657 c 0.77342,-0.23435 1.33592,-0.58591 1.6875,-1.05469 -1.12502,0.49222 -1.68752,0.84378 -1.6875,1.05469 m 12.86719,-0.63282 0,0.21094 0.21093,0 0.21094,-0.21094 0.21094,0 0.21094,0.21094 0,-0.21094 -0.42188,-0.42187 -0.42187,0.42187 m -22.78125,-0.21093 0,0.21093 0.84375,1.05469 c -1e-5,0.51566 -0.28126,1.07816 -0.84375,1.6875 l 0.21093,0.21094 0.21094,0 c 0.84375,3e-5 1.26562,-0.42185 1.26563,-1.26563 l 0,-0.42187 c -0.3047,-0.53903 -0.8672,-1.03122 -1.6875,-1.47656 m 17.29687,2.53125 0,0.21093 c 3.98435,4.59378 7.42966,8.32034 10.33594,11.17969 l 0.21094,0 0,-0.21094 -9.91407,-10.75781 0,-0.42187 2.10938,-2.53125 -0.21094,0 -2.53125,2.53125 m -6.75,-0.42188 0,0.42188 c 0.42186,3e-5 0.6328,0.21096 0.63281,0.63281 l 0.21094,0.21094 0.84375,0 0,-0.21094 -0.63281,-0.63281 c 0.2578,-1.2656 1.45311,-1.89841 3.58594,-1.89844 l 0,-0.21094 -1.47657,-0.21094 c -1.38283,4e-5 -2.43751,0.63285 -3.16406,1.89844 m 31.00781,-1.89844 -0.21093,0.63282 0.63281,0.42187 0.21094,0 0.42187,-0.42187 0,-0.21094 -0.42187,-0.42188 -0.63282,0 m 1.6875,0.63282 0.42188,0.63281 0.84375,-0.63281 0,-0.21094 -0.42188,-0.42188 -0.21093,0 -0.63282,0.63282 m -7.80468,0.21093 0,0.21094 0.63281,0 0,-0.21094 -0.63281,0 m 2.53125,0.42188 -0.63282,-0.21094 -0.84375,0 0,0.21094 2.74219,0.21094 1.6875,-0.21094 0,-0.42188 -2.95312,0.42188 m -40.5,6.32812 0,0.84375 0.21093,1.05469 0.21094,-0.21094 0.21094,0 -0.42188,-1.26562 c 0,-1.92185 1.26563,-3.25779 3.79688,-4.00781 0.79687,2e-5 1.49999,-0.84372 2.10937,-2.53125 l -0.21093,0 c -0.84376,1.40628 -1.54688,2.1094 -2.10938,2.10937 -2.53125,0.93753 -3.79688,2.27347 -3.79687,4.00781 m 32.27343,-6.11718 -0.21093,0.21093 0,0.42188 0.84375,0 c 5.67183,3e-5 9.67964,2.32034 12.02343,6.96094 0.70308,1.19533 1.05464,3.02345 1.05469,5.48437 l 0,1.05469 -0.21094,-0.21094 -0.21093,0 0.21093,0.63281 c -1.03129,3.23439 -2.57817,4.85158 -4.64062,4.85157 l -0.42188,0 c -1.54691,-0.23437 -2.32035,-1.0078 -2.32031,-2.32032 -4e-5,-0.56248 0.42184,-1.12498 1.26563,-1.6875 l 1.05468,0 0.63282,0.84375 c -0.42192,2e-5 -0.63286,0.14064 -0.63282,0.42188 l 0,0.84375 0.42188,0.42187 1.05469,0 0.42187,-0.42187 0,-0.21094 -1.05469,-0.42187 0.21094,-0.84375 c -4e-5,-0.74999 -0.70317,-1.17186 -2.10937,-1.26563 l -0.21094,0 c -0.70317,2e-5 -1.33598,0.91408 -1.89844,2.74219 l -0.42187,0 0,0.21094 c -4e-5,0.79688 0.63277,1.57032 1.89843,2.32031 l -0.21093,0.21094 0,0.21093 1.26562,0.84375 1.47656,0 1.05469,-0.63281 0,0.84375 c 1.14839,1e-5 2.06246,-0.84374 2.74219,-2.53125 l 0,-0.21094 0.84375,0 -1.47656,3.58594 0.84375,0.84375 0,0.21094 c -5e-5,0.98438 -0.56255,1.47657 -1.6875,1.47656 l 0,1.6875 0.21093,0 0,-0.42187 0.63282,0 c -5e-5,0.67969 0.42182,1.24219 1.26562,1.6875 0.8437,-0.28125 1.26558,-0.5625 1.26563,-0.84375 l 0,-0.21094 c -0.49224,0 -0.98443,-0.42187 -1.47657,-1.26563 l 0,-0.84375 1.26563,-5.69531 -0.21094,0 c -0.42192,1e-5 -0.63286,-0.21092 -0.63281,-0.63281 l -0.42188,0 0,-0.42188 0.42188,0 -0.21094,-0.21093 0,-0.21094 0.21094,-0.21094 0.21094,0 0.42187,0.42188 0,0.21093 -0.42187,0 0,0.21094 0.63281,0.63281 0.21094,0 0.21093,-1.47656 0,-2.32031 c -5e-5,-6.49217 -2.03911,-10.71091 -6.11718,-12.65625 -1.75786,-1.54685 -4.78129,-2.32028 -9.07032,-2.32031 m 11.17969,0.42187 0,0.21094 0.42188,0.42187 0.63281,0 0,-0.63281 -0.42188,-0.42187 -0.21093,0 -0.42188,0.42187 m 1.6875,-0.42187 0.42188,0.42187 0.21093,0 0,-0.42187 -0.63281,0 m -5.69531,0.42187 0,0.21094 0.63281,0.21094 0.21094,0 0,-0.21094 -0.63281,-0.21094 -0.21094,0 m -5.69531,0.63281 0,0.21094 0.84375,0 0,-0.21094 -0.84375,0 m 2.74218,0.42188 0,0.21094 c 0.67965,3e-5 1.38278,0.49221 2.10938,1.47656 l 0,0.63281 c -0.14067,0.4219 -0.56254,0.63284 -1.26563,0.63281 l -0.84375,-0.42187 0,0.21094 c 0.23434,0.56252 0.72653,0.84377 1.47657,0.84375 l 0.63281,0 c 0.70308,-0.3281 1.05465,-0.74998 1.05469,-1.26563 -4e-5,-0.84372 -0.98442,-1.61716 -2.95313,-2.32031 l -0.21094,0 m 9.49219,0 0,0.42187 c 0.42183,3e-5 0.63277,0.14066 0.63281,0.42188 l 0,0.42187 c -4e-5,0.32816 -0.35161,0.53909 -1.05468,0.63282 l -3.79688,-1.6875 0,0.21093 c 2.46089,1.54691 3.86714,2.32034 4.21875,2.32032 0.56245,2e-5 0.98433,-0.28123 1.26563,-0.84375 l 0,-1.05469 c -0.2813,-0.56247 -0.70318,-0.84372 -1.26563,-0.84375 m -43.24219,2.10937 c 1.82812,1.52347 2.74218,2.57815 2.74219,3.16407 l 0.21094,-0.21094 0.21094,0 c -0.42189,-0.96091 -1.26563,-1.94529 -2.53125,-2.95313 l -0.63282,0 m 21.72657,0.42188 0,0.21094 1.05468,-0.21094 1.26563,0 c 0.70309,0.28128 1.05466,0.77346 1.05469,1.47656 -3e-5,0.56253 -0.3516,0.84378 -1.05469,0.84375 l 0,0.21094 0.84375,0 c 0.42184,2e-5 0.84372,-0.42185 1.26562,-1.26563 -3e-5,-0.98434 -0.77346,-1.54684 -2.32031,-1.6875 l -0.21094,0 -1.89843,0.42188 m -12.86719,4.42969 0,1.89843 0.21094,-0.21093 0.21093,0 -0.21093,-1.05469 0,-0.42188 4.64062,-4.42968 0,-0.21094 c -0.28127,3e-5 -1.89845,1.47659 -4.85156,4.42969 m 29.32031,-4.00782 0,0.21094 0.84375,0.21094 0,1.05469 c -4e-5,0.4219 -0.56254,0.70315 -1.6875,0.84375 l -4.21875,-1.6875 -0.21094,0 0,0.21093 4.85157,2.10938 0.63281,0 c 0.98433,2e-5 1.47652,-0.56248 1.47656,-1.6875 -4e-5,-0.84373 -0.49223,-1.2656 -1.47656,-1.26563 l -0.21094,0 m -35.4375,0.21094 c 0.70312,0.6094 1.05468,1.1719 1.05469,1.6875 -0.21095,0.9844 -0.70313,1.47659 -1.47656,1.47656 l 0,0.42188 0.21093,0 c 1.125,-0.35154 1.6875,-1.05467 1.6875,-2.10938 l 0,-0.21093 c -0.32813,-0.84373 -0.82032,-1.2656 -1.47656,-1.26563 m -3.79687,1.6875 c -1e-5,0.82034 0.6328,1.45315 1.89843,1.89844 l 0,-0.21094 c -0.98438,-0.74998 -1.47656,-1.4531 -1.47656,-2.10937 0,-0.42185 0.21093,-0.63279 0.63281,-0.63282 l 0.21094,-0.21093 0,-0.21094 -0.42187,0 c -0.37501,2e-5 -0.65626,0.49221 -0.84375,1.47656 m 32.27343,-1.47656 0,0.21094 1.47657,0 0,-0.21094 -1.47657,0 m -31.21875,1.26562 0,0.42188 1.26563,-1.05469 0,-0.21094 -0.42188,0 -0.84375,0.84375 m 24.89063,1.05469 0.21094,0.84375 0.21093,0 c 1.73435,-1.2656 3.56247,-1.89841 5.48438,-1.89844 2.67184,3e-5 4.64058,1.12503 5.90625,3.375 l 0,1.26563 c -4e-5,0.77346 -0.3516,1.33595 -1.05469,1.6875 l -1.05469,0 0.42188,-0.84375 c -0.14067,-0.56248 -0.56254,-0.84373 -1.26563,-0.84375 l -1.47656,0 c -2.10941,2e-5 -3.16409,-0.84373 -3.16406,-2.53125 l -0.84375,0.84375 c -3e-5,0.72658 0.2109,1.35939 0.63281,1.89844 l 0,0.21093 -0.63281,0.21094 c -3e-5,0.53908 0.70309,0.96096 2.10937,1.26563 l 1.89844,0 0.21094,-0.21094 0.84375,0.63281 0,0.21094 -0.63281,0.63281 -0.42188,0 -2.74219,-0.63281 -0.21093,0 0,0.21094 1.89843,0.63281 0,0.63281 -2.10937,0 c -0.84378,0.75002 -1.26566,1.45314 -1.26563,2.10938 l 0,0.21093 c -3e-5,0.75002 0.28122,1.2422 0.84375,1.47657 l 0.42188,0 -0.21094,-0.21094 0,-1.26563 c -3e-5,-0.84373 1.75778,-1.33592 5.27344,-1.47656 l 0.21094,0 0.84375,-0.42187 0,-1.47657 c -0.56254,2e-5 -0.84379,-0.1406 -0.84375,-0.42187 l -0.21094,0 -0.21094,0.84375 -0.63281,0 0.42187,-1.26563 -0.42187,-0.42187 0,-0.21094 0.42187,0 c 0.5859,0.84377 1.07809,1.26564 1.47657,1.26563 1.54683,-0.21092 2.32027,-1.12499 2.32031,-2.74219 l 0,-0.42188 c -4e-5,-2.7656 -2.39067,-4.38278 -7.17188,-4.85156 l -0.21093,0 c -1.4766,3e-5 -3.23441,0.56253 -5.27344,1.6875 m -9.91406,-1.47656 -0.42188,1.05469 0.21094,0 0.42187,-0.84375 0,-0.21094 -0.21093,0 m 25.52343,0 0,0.21094 0.21094,0.21093 0.21094,0 0,-0.21093 -0.21094,-0.21094 -0.21094,0 m -39.23437,0.63281 0.21094,1.89844 0.21093,0 0.21094,-1.05469 -0.21094,-0.84375 -0.42187,0 m 14.34375,0 -1.05469,2.53125 0.63281,0.21094 c 0.28123,-1.2656 0.6328,-1.89842 1.05469,-1.89844 l -0.63281,-0.84375 m 13.07812,0.63281 0,0.21094 c 1.59372,2e-5 2.64841,0.35159 3.16407,1.05469 l 0,0.84375 -0.63282,0.84375 0.84375,0 c 0.28122,2e-5 0.42184,-0.35154 0.42188,-1.05469 l 0.84375,-0.21094 c -4e-5,-0.72654 -1.05473,-1.35935 -3.16406,-1.89843 l -1.47657,0.21093 m -14.34375,0 -0.21093,0.21094 0,0.63281 0.21093,0 0.21094,-0.84375 -0.21094,0 m -3.58593,1.05469 0,0.42188 c 0.42186,0.51564 0.63279,1.00783 0.63281,1.47656 l 0.42187,-0.42188 0,-0.42187 c -1e-5,-0.35154 -0.28126,-0.56248 -0.84375,-0.63281 l 0,-0.42188 c -1e-5,-0.28123 0.21093,-0.42185 0.63282,-0.42187 0.84373,2e-5 1.2656,0.77346 1.26562,2.32031 l -0.42187,1.26562 c 0.84373,0.6094 1.2656,1.1719 1.26562,1.6875 l 0.21094,0 c -2e-5,-0.42185 0.14061,-0.63279 0.42187,-0.63281 l -0.21093,-1.05469 0,-1.26562 0.42187,0 0,0.42187 0.21094,0 0,-0.21093 -0.21094,-0.63282 -0.21094,0 -0.21093,0.21094 -0.21094,0 c -0.28127,-1.68748 -0.91408,-2.53123 -1.89844,-2.53125 -0.56251,2e-5 -0.98439,0.28127 -1.26562,0.84375 m 17.29687,-0.84375 0,0.21094 0.42188,0 0,-0.21094 -0.42188,0 m 13.5,0.21094 0,0.21094 0.42188,1.6875 0,0.42187 c -5e-5,1.64065 -0.63286,2.62502 -1.89844,2.95313 l -0.42188,0 -0.63281,-0.63282 0,-0.21093 0.21094,-0.21094 0,-0.21094 -0.21094,0 -0.21094,0.21094 0,-0.84375 0.21094,-0.21094 0,-0.21094 -0.21094,0 c -0.3516,2e-5 -0.63285,0.63284 -0.84375,1.89844 -4e-5,0.98439 0.49215,1.47658 1.47657,1.47656 l 1.05468,-0.21093 0,0.84375 0.21094,0 c 1.12496,-0.8203 1.68745,-2.22655 1.6875,-4.21875 l -0.63281,-2.74219 -0.21094,0 m -44.50781,5.48437 0.21094,0.63282 0.21093,0 c 0,-2.39061 0.49219,-4.35936 1.47657,-5.90625 -1.26563,1.03127 -1.89844,2.78908 -1.89844,5.27343 m 29.74219,-5.27343 0,0.21093 0.42187,0 0,-0.21093 -0.42187,0 m -11.17969,2.53125 0,0.42187 0.21094,0 c -2e-5,-0.67967 0.42185,-1.59373 1.26562,-2.74219 l -0.21094,0 c -0.84377,0.7969 -1.26564,1.57034 -1.26562,2.32032 m 9.91406,-1.47657 0.42188,0 0,-0.42187 c 0.42184,2e-5 0.63278,-0.1406 0.63281,-0.42188 -0.63284,0.28128 -0.98441,0.56253 -1.05469,0.84375 m -26.57812,0.21094 0,0.42188 2.74218,0.63281 2.32032,-0.42188 0,-0.42187 -3.16407,0.42187 -1.89843,-0.63281 m 17.71875,1.05469 0.21093,0 0.42188,-0.42188 0.21094,0 1.05468,0.21094 -0.21093,-0.63281 -0.84375,0 -0.84375,0.84375 m -6.96094,0.21094 0,0.42187 c 0.67967,2e-5 1.66405,0.56252 2.95312,1.6875 l 0.21094,0 c -1.21876,-1.40623 -2.27345,-2.10935 -3.16406,-2.10937 m -11.17969,0.21093 0,0.63282 0.42188,0.42187 0.21093,0 1.89844,-0.42187 0,-0.21094 -1.05469,0.21094 -0.42187,0 -0.84375,-0.63282 -0.21094,0 m 4.85156,0 c 0,3.2344 -1.125,4.85158 -3.375,4.85157 l -0.42187,0 -1.05469,-0.21094 c 0,0.28126 0.49219,0.4922 1.47656,0.63281 2.53125,-0.46873 3.79687,-2.15623 3.79688,-5.0625 l 0,-0.21094 -0.42188,0 m 1.05469,0.42188 0,0.21094 1.05469,-0.21094 0.84375,0 c 2.34374,2e-5 4.73436,1.19533 7.17187,3.58594 l 0,-0.42188 c -1.96876,-2.3906 -4.71095,-3.58592 -8.22656,-3.58594 l -0.42187,0 -0.42188,0.42188 m -3.16406,-0.21094 0,0.21094 0.42187,0 0,-0.21094 -0.42187,0 m -4.21875,5.90625 0,1.26563 c 0.35156,2.53126 1.61718,3.79688 3.79687,3.79687 l 0.21094,0 c 2.10937,1e-5 3.16406,-1.12499 3.16406,-3.375 0,-1.54686 -0.98438,-2.3203 -2.95312,-2.32031 -0.84376,0.32814 -1.26563,0.60939 -1.26563,0.84375 l 0,0.21094 1.26563,0 0,0.42187 c -0.84376,1e-5 -1.26563,0.4922 -1.26563,1.47656 0,0.56252 0.28125,0.98439 0.84375,1.26563 l 1.05469,0 0,-0.42188 c -0.42188,1e-5 -0.63282,-0.35155 -0.63281,-1.05468 l 0,-0.21094 0.63281,-0.63281 0.21094,0 c 0.79687,1e-5 1.28905,0.35157 1.47656,1.05468 -1e-5,1.4297 -1.05469,2.20314 -3.16406,2.32032 -1.52344,1e-5 -2.57813,-1.33593 -3.16406,-4.00782 -1e-5,-2.48436 1.68749,-4.38279 5.0625,-5.69531 l 0.42187,0 0,-0.63281 c -3.79688,1.28908 -5.69531,3.18752 -5.69531,5.69531 m 19.19531,-4.21875 -0.21094,0 -0.63281,-0.42187 -1.47656,3.16406 0,0.21094 0.21094,0 0.63281,-1.6875 0.21094,0 0,0.21093 -0.63282,2.95313 0.84375,-0.42188 0,0.21094 c -0.18752,0.58595 -0.6797,1.00783 -1.47656,1.26563 l 1.26563,4.64062 -0.21094,0.21094 -0.42188,0 c -0.75001,1e-5 -1.17189,-2.24999 -1.26562,-6.75 l 0,-0.21094 -1.26563,-1.26562 -0.21093,0 -0.21094,4.85156 c -2e-5,2.08595 0.70311,3.28126 2.10937,3.58594 0.42186,0.51563 0.6328,1.00782 0.63282,1.47656 l -0.63282,0.63281 0,0.21094 c 0.84374,0 1.54686,0.70313 2.10938,2.10937 l 1.47656,0.42188 0.21094,-0.21094 0,-0.21094 c -0.9844,-0.42187 -1.47658,-1.12499 -1.47656,-2.10937 0.39841,0 0.74998,-0.63281 1.05468,-1.89844 -0.98439,-2.64843 -1.47658,-4.26561 -1.47656,-4.85156 l 0,-0.63281 c -2e-5,-2.83593 0.91404,-4.59374 2.74219,-5.27344 0.37498,2e-5 0.72654,0.35158 1.05469,1.05469 -1.5469,0.46876 -2.32034,0.89064 -2.32032,1.26562 l 0,0.21094 0.21094,1.05469 0.42188,0 -0.21094,-0.63282 c -2e-5,-0.51561 0.77341,-1.00779 2.32031,-1.47656 l 0.21094,-0.84375 0,-0.21094 c -3e-5,-0.28123 -0.21096,-0.42185 -0.63281,-0.42187 l -0.21094,-0.21094 0,-0.21094 0.42187,-0.63281 0,-0.21094 -0.84375,-0.21093 c -0.51564,2e-5 -1.28908,0.42189 -2.32031,1.26562 m 14.13281,-1.26562 3.79688,0 0,0.21093 c -0.84379,0.0938 -1.26566,0.2344 -1.26563,0.42188 l -2.53125,-0.42188 0,-0.21093 m -25.52343,0.42187 0,8.64844 c -1e-5,1.64063 -1.0547,2.62501 -3.16407,2.95312 l 0,0.63282 4.21875,-0.21094 4.64063,0 2.10937,0.21094 0.21094,-0.21094 0,-0.42188 c -2.95314,-0.39843 -4.4297,-1.52342 -4.42969,-3.375 l 0,-4.00781 c -1.33595,2e-5 -2.10938,-0.70311 -2.32031,-2.10937 l 0,-0.21094 c -1e-5,-0.51561 0.28124,-1.07811 0.84375,-1.6875 l -1.05469,-0.21094 -1.05468,0 m 1.89843,2.10938 c 0.21093,0.98439 0.70312,1.47657 1.47657,1.47656 l 0.21093,0 0,-0.21094 c -0.58595,2e-5 -0.93751,-0.49217 -1.05468,-1.47656 -2e-5,-0.46873 0.49217,-0.8203 1.47656,-1.05469 0.98436,2e-5 2.17967,0.56252 3.58594,1.6875 l 0,-0.21094 c -1.59377,-1.2656 -2.92971,-1.89841 -4.00782,-1.89843 -1.12501,0.0938 -1.68751,0.65626 -1.6875,1.6875 m -6.96093,0 0,0.42187 0.63281,0.63281 0.42187,-0.42187 -0.42187,-0.42188 0,-0.84375 c 0.42187,2e-5 0.84374,-0.28123 1.26562,-0.84375 -0.96094,0.39846 -1.59375,0.89065 -1.89843,1.47657 m 21.09375,-1.47657 0,0.42188 -0.21094,-0.21094 -0.21094,0 0.21094,0.21094 0,0.21094 -0.63281,3.79687 c -3e-5,2.43751 0.77341,4.6172 2.32031,6.53906 -0.9844,-3.0703 -1.47659,-5.39061 -1.47656,-6.96093 -3e-5,-1.26561 0.21091,-2.46092 0.63281,-3.58594 l -0.63281,-0.42188 m 2.74218,3.375 0.42188,0 c -3e-5,-1.52342 1.33591,-2.36717 4.00781,-2.53125 l 0,-0.21093 -1.47656,0 c -1.96878,0.39845 -2.95315,1.31251 -2.95313,2.74218 m -14.76562,-2.53125 -0.21094,1.26563 0.21094,0.21094 0.21094,0 0.21093,-0.21094 -0.21093,-1.26563 -0.21094,0 m -0.84375,0.42188 0,0.63281 0.21094,0 0,-0.63281 -0.21094,0 m 17.08594,1.26562 0.84375,0.63282 -0.21094,1.47656 1.6875,1.47656 -0.21094,-0.21094 0,-0.21093 0.21094,-1.6875 -0.21094,-1.47657 0.42188,-1.05468 -0.21094,0 c -1.54691,0.21095 -2.32034,0.56251 -2.32031,1.05468 m 3.58593,-1.05468 0,0.21093 0.42188,0 0,-0.21093 -0.42188,0 m -0.42187,0.21093 -0.63281,1.26563 0.63281,0 c 0.37497,-0.42186 1.00778,-0.6328 1.89844,-0.63281 l 0,-0.21094 -1.26563,0 -0.42187,0.42187 -0.42188,0 0,-0.21093 0.42188,-0.63282 -0.21094,0 m -15.60938,0.42188 0,0.21094 0.63282,0.42187 0,-0.21094 -0.63282,-0.42187 m 17.71875,0.21094 0,0.21093 0.42188,0 0,-0.21093 -0.42188,0 m -21.51562,1.26562 0,3.79688 c -1e-5,1.03126 0.21092,1.59376 0.63281,1.6875 -0.28126,-0.53906 -0.42189,-1.31249 -0.42187,-2.32032 l 0,-2.53125 0.21093,-1.05468 -0.42187,0.42187 m 15.82031,-0.42187 0,0.42187 0.42188,0.42188 0.21093,-0.21094 0,-0.63281 -0.63281,0 m -2.32031,0.63281 0.42187,0.42187 0.42188,-0.42187 -0.42188,-0.42188 -0.42187,0.42188 m -8.64844,-0.21094 0,1.89844 0.21094,0 0,-1.89844 -0.21094,0 m 10.33594,0.63281 0,0.63282 0.42187,0.42187 0.42188,-0.42187 0,-0.42188 -0.84375,-0.21094 m 7.17187,0 0,0.21094 c 2.90622,3.37501 4.66403,5.06251 5.27344,5.0625 l -5.0625,-5.27344 -0.21094,0 m -14.97656,1.89844 0,1.26563 0.84375,0.84375 1.05469,-0.21094 0.63281,0.21094 0,0.84375 -0.84375,1.05468 0.42188,0 0.63281,-0.63281 0,-1.47656 c -2e-5,-0.42187 -0.70315,-0.6328 -2.10938,-0.63281 l -0.42187,-0.63282 0,-0.63281 0.84375,-0.84375 0.63281,0 c 0.53904,1e-5 1.38279,1.54689 2.53125,4.64063 l 0.63281,0.42187 -2.32031,-5.27344 -1.05469,-0.63281 c -0.98439,0.35158 -1.47658,0.91408 -1.47656,1.6875 m 13.28906,-0.84375 0,0.84375 0.42188,0.63281 0,0.21094 -0.63281,0.21094 -1.26563,-0.42188 0,0.21094 4.21875,4.21875 0.84375,0 8.4375,0.21094 0,-0.63281 -0.21094,0 c -4.19535,0 -7.00785,-1.33593 -8.4375,-4.00782 -1.07816,-0.84373 -1.78128,-1.61717 -2.10937,-2.32031 -0.84379,0.32814 -1.26566,0.60939 -1.26563,0.84375 m 14.13282,-0.84375 0.63281,0 0.21094,0.84375 -0.21094,0.21094 -0.21094,0 -0.42187,-0.63281 0,-0.42188 m -21.72657,0.63281 -0.21093,1.05469 0,1.05469 0.21093,0 c -2e-5,-0.70311 0.21091,-1.33593 0.63282,-1.89844 l 1.05468,0.42188 0,-0.21094 -0.63281,-0.42188 -1.05469,0 m -23.20312,0.21094 -0.21094,0.84375 0.63281,0.42188 0.42188,-0.63282 -0.21094,-0.63281 -0.63281,0 m 25.3125,2.32031 -0.21094,0 -0.63281,-0.42187 -0.21094,0 -0.21094,1.47656 0,0.63281 c -2e-5,2.13282 1.2656,3.60938 3.79688,4.42969 l 0.21094,0 0,0.84375 -0.21094,0 c -1.17191,1e-5 -2.43753,-0.63281 -3.79688,-1.89844 l -0.21093,0 0,0.21094 c 0.44528,1e-5 0.86716,0.35157 1.26562,1.05469 l 0,0.21094 c -0.9844,-0.98437 -1.89846,-1.47656 -2.74219,-1.47657 l 0,-0.42187 0.63282,0 0,-0.21094 -1.47657,-0.21094 -0.42187,0 -0.42188,0.42188 0.63282,0.63281 c -0.56253,1e-5 -1.05471,0.35157 -1.47657,1.05469 l 0,0.84375 0.63282,0.63281 c 0.56247,-0.84374 1.33591,-1.26562 2.32031,-1.26562 3.72653,0.98437 6.32809,1.47656 7.80469,1.47656 l 1.05468,0 c -3e-5,-0.5625 0.14059,-0.84375 0.42188,-0.84375 l 0,0.42187 -0.21094,0.21094 0,0.21094 0.21094,0.21094 0.21094,0 c 3.98433,0 7.00777,-0.98437 9.07031,-2.95313 l -1.05469,0 c -2.55473,1.12501 -4.6641,1.68751 -6.32812,1.6875 l -1.6875,0 -3.16407,-0.63281 c -3e-5,0.70313 -0.14065,1.05469 -0.42187,1.05469 l -0.42188,0 0.42188,-0.63282 -0.21094,-0.21093 0,-0.21094 0.42188,0 0,-0.21094 c -1.96878,-0.60937 -2.95316,-2.01562 -2.95313,-4.21875 l -0.21094,0 0,1.05469 -0.42187,-0.42188 0,-1.05468 0.84375,-1.05469 0,0.42187 -0.21094,0.21094 0,0.42188 0.21094,0 c -3e-5,-0.51562 0.56247,-1.07812 1.6875,-1.6875 0.56247,1e-5 0.98434,0.35157 1.26562,1.05468 -0.9844,1.31251 -1.47659,2.22657 -1.47656,2.74219 -3e-5,0.84376 0.42185,1.40626 1.26563,1.6875 l 0,-0.21094 c -0.56254,-0.23436 -0.84378,-0.72655 -0.84375,-1.47656 l 0,-0.63281 c 0.98434,-0.96093 1.47653,-1.73437 1.47656,-2.32031 l 0,-0.21094 c -0.75003,-0.98436 -1.66409,-1.47655 -2.74219,-1.47656 l -1.47656,1.05468 m -26.36719,1.26563 0,0.21094 c 1.96875,1.5 2.95312,2.83594 2.95313,4.00781 -0.18751,1.26563 -0.82032,1.89844 -1.89844,1.89844 l -0.21094,0 -0.84375,-0.84375 0,-0.42188 c 0.44531,1e-5 0.9375,-0.42187 1.47656,-1.26562 l 0,-0.42188 c 0,-0.98437 -0.42187,-1.47655 -1.26562,-1.47656 l -0.63281,0.21094 0,0.21093 0.21093,0 0.21094,-0.21093 0.21094,0 c 0.5625,0.21094 0.84375,0.42188 0.84375,0.63281 l 0,1.05469 c -1.26563,0.23438 -1.89844,0.79688 -1.89844,1.6875 l 0,0.21093 1.05469,1.26563 1.47656,0 c 0.91406,0 1.54687,-0.63281 1.89844,-1.89844 -1e-5,-1.68749 -1.19532,-3.30468 -3.58594,-4.85156 m 30.79688,1.89844 0,0.63281 0.42187,0.42187 0.42188,-0.42187 -0.21094,-0.63281 -0.63281,0 m -12.44532,0 0,0.21093 -0.21093,0.21094 0,0.21094 0.42187,0 0,0.21094 -1.05469,0.63281 -0.63281,0 0,-0.42188 0.42188,0 0,-0.21093 -0.84375,0 0,-0.63282 1.89843,-0.21093 m 14.13282,0.21093 0,0.42188 0.42187,0.42187 0.42188,-0.42187 0,-0.42188 -0.84375,0 m 11.8125,0.21094 0,0.42188 -0.63282,0.42187 -2.53125,-0.21094 -5.48437,0 0,0.21094 1.05469,0.21094 3.58593,0 0.84375,-0.21094 0.84375,0.21094 1.47657,0 1.05468,-0.21094 0,-0.84375 -0.21093,0 m -29.10938,0.84375 -3.58594,-0.21094 -3.16406,0 -4.21875,0.21094 0,0.21094 1.6875,0 5.27344,-0.21094 4.21875,0.21094 0.21094,-0.21094 0,-0.42187 -0.42188,0.42187 m 15.82031,1.05469 0.42188,0 0.42187,-0.42188 -0.42187,0 -0.42188,0.42188 m 1.6875,0 0,0.21094 0.42188,0.42187 0.42187,-0.42187 0,-0.21094 -0.42187,-0.42188 -0.42188,0.42188 m -27.63281,-0.21094 c -0.56251,0.58594 -0.84375,1.14844 -0.84375,1.6875 0.28124,0.84375 0.84374,1.26563 1.6875,1.26563 l 0.63281,0 c 0.93749,0 1.71093,-0.5625 2.32032,-1.6875 l -0.21094,0 c -0.44532,0.84375 -1.35939,1.26562 -2.74219,1.26562 -0.63282,-0.28125 -0.98438,-0.56249 -1.05469,-0.84375 l 0,-0.63281 0.63282,-0.63281 0.42187,0 c 0.42187,0 0.63281,0.28125 0.63281,0.84375 l 0.21094,0 0,-0.42188 c -1e-5,-0.44531 -0.56251,-0.72656 -1.6875,-0.84375 m 4.21875,0.63281 0.42188,0 0,0.21094 -0.21094,0.84375 c 0.28124,0.84375 0.84374,1.26563 1.6875,1.26563 0.72655,0 1.14842,-0.21094 1.26562,-0.63282 l -1.05468,0.21094 -0.21094,0 -0.84375,-0.84375 0,-0.63281 0.63281,-0.63281 0.84375,0 c 0.77342,0 1.89842,0.42188 3.375,1.26562 l 0,-0.21094 c -1.57033,-0.98437 -2.76564,-1.47655 -3.58594,-1.47656 l -0.63281,0 c -1.03126,1e-5 -1.59376,0.21094 -1.6875,0.63281 m 26.15625,-0.63281 0,0.63281 0.42188,0.42188 0.84375,0 1.47656,-0.21094 0,-0.21094 -0.21094,0 -1.26562,0.21094 -0.21094,0 c -0.3516,1e-5 -0.56254,-0.28124 -0.63281,-0.84375 l -0.42188,0 m 2.95313,0.42188 0,0.21093 0.42187,0 0,-0.21093 -0.42187,0 m 3.58593,0.63281 -0.63281,0.84375 0,0.42187 0.63281,0.63282 0.42188,0 -0.63281,-1.05469 0.42187,-0.84375 -0.21094,0 m -11.39062,0.42187 0.42187,0.42188 0,0.42187 -0.63281,0.21094 0,-0.42187 0.21094,-0.63282 m 1.05469,0.21094 0.21093,0.21094 0,0.21094 -0.42187,0.42187 -0.21094,0 0,-0.42187 0.42188,-0.42188 m 0.84375,0.21094 0,0.21094 -0.42188,0.42187 -0.21094,0 0.63282,-0.63281 m -16.03125,0.42187 0,0.21094 0.63281,0.21094 0.21094,0 0,-0.21094 -0.63282,-0.21094 -0.21093,0"
         style="font-size:72px;font-variant:normal;font-stretch:normal;font-family:Goudy Initials;-inkscape-font-specification:Goudy Initials"
         id="path4306" />
    </g>
  </g>
</svg>
