<?xml version="1.0" encoding="UTF-8" standalone="no"?>
<!-- Created with Inkscape (http://www.inkscape.org/) -->

<svg
   xmlns:dc="http://purl.org/dc/elements/1.1/"
   xmlns:cc="http://creativecommons.org/ns#"
   xmlns:rdf="http://www.w3.org/1999/02/22-rdf-syntax-ns#"
   xmlns:svg="http://www.w3.org/2000/svg"
   xmlns="http://www.w3.org/2000/svg"
   xmlns:sodipodi="http://sodipodi.sourceforge.net/DTD/sodipodi-0.dtd"
   xmlns:inkscape="http://www.inkscape.org/namespaces/inkscape"
   width="56.734375"
   height="56.734375"
   id="svg2"
   version="1.1"
   inkscape:version="0.48.5 r10040"
   sodipodi:docname="k.svg">
  <defs
     id="defs4" />
  <sodipodi:namedview
     id="base"
     pagecolor="#ffffff"
     bordercolor="#666666"
     borderopacity="1.0"
     inkscape:pageopacity="0"
     inkscape:pageshadow="2"
     inkscape:zoom="3.959798"
     inkscape:cx="43.996764"
     inkscape:cy="-4.4843295"
     inkscape:document-units="px"
     inkscape:current-layer="layer1"
     showgrid="false"
     fit-margin-top="2"
     fit-margin-left="2"
     fit-margin-right="2"
     fit-margin-bottom="2"
     inkscape:window-width="1366"
     inkscape:window-height="733"
     inkscape:window-x="0"
     inkscape:window-y="0"
     inkscape:window-maximized="1"
     showborder="true"
     borderlayer="false" />
  <metadata
     id="metadata7">
    <rdf:RDF>
      <cc:Work
         rdf:about="">
        <dc:format>image/svg+xml</dc:format>
        <dc:type
           rdf:resource="http://purl.org/dc/dcmitype/StillImage" />
        <dc:title></dc:title>
      </cc:Work>
    </rdf:RDF>
  </metadata>
  <g
     inkscape:label="Layer 1"
     inkscape:groupmode="layer"
     id="layer1"
     transform="translate(-152.28125,-146.34738)">
    <g
       style="font-size:40px;font-style:normal;font-weight:normal;line-height:125%;letter-spacing:0px;word-spacing:0px;fill:#ffffff;fill-opacity:1;stroke:none;font-family:Sans"
       id="flowRoot2985">
      <path
         d="m 154.28125,148.34738 52.73437,0 0,52.73438 -52.73437,0 0,-52.73438 m 1.05469,1.05469 0,50.625 50.625,0 0,-50.625 -50.625,0 m 0.42187,0.63281 49.57031,0 0,49.57032 -49.57031,0 0,-49.57032 m 40.28906,1.05469 0,1.05469 0.42188,0.63281 0,0.42188 -0.63281,0.63281 -0.42188,0 c -0.51566,5e-5 -0.86723,-0.8437 -1.05469,-2.53125 l -1.05468,-0.21094 -0.21094,0 c -0.5391,5e-5 -1.17191,0.35161 -1.89844,1.05469 l -0.42187,0 -0.42188,-0.42188 0,-0.21093 0.21094,-0.21094 0,-0.21094 -0.84375,0 0,0.21094 c 0.0937,0.8438 0.30465,1.26567 0.63281,1.26562 l 0.84375,0 1.6875,-1.26562 c 0.84371,5e-5 1.26559,0.49224 1.26563,1.47656 -4e-5,0.98442 0.49214,1.47661 1.47656,1.47656 l 0.42187,0 0.63282,-0.63281 -0.21094,-2.10937 0.63281,-0.42188 0.42188,0 0.63281,0.42188 0.21094,0 c -5e-5,-0.4687 -0.49223,-0.82027 -1.47657,-1.05469 l -0.84375,0.63281 m -30.79687,0.84375 0.21094,0 c -1e-5,-0.23432 0.42186,-0.51557 1.26562,-0.84375 l 0.84375,0.63281 -0.21094,1.05469 0.21094,0.21094 1.05469,0 1.05469,-0.21094 0,-0.42187 -1.05469,0.21093 -0.63281,-0.63281 0,-0.21094 0.21093,-0.21093 -0.63281,-0.84375 -0.42187,0 c -0.91408,5e-5 -1.54689,0.42192 -1.89844,1.26562 m 4.00781,-0.21094 0.21094,0 1.26562,-0.63281 c 0.98436,5e-5 1.47655,0.56255 1.47657,1.6875 l 0.63281,-0.63281 c -2e-5,-0.98433 -0.84377,-1.47651 -2.53125,-1.47656 -0.37502,5e-5 -0.72658,0.35161 -1.05469,1.05468 m 4.85156,0.21094 0.63282,0.84375 0.21093,0 c -2e-5,-0.98432 0.21092,-1.47651 0.63282,-1.47656 l 0.84375,0 c 0.63279,5e-5 1.2656,0.42192 1.89843,1.26562 l 0,-0.21093 c -0.53908,-1.12495 -1.24221,-1.68745 -2.10937,-1.6875 l -0.42188,0 c -0.84377,5e-5 -1.40627,0.42192 -1.6875,1.26562 m 7.17188,0.21094 c 0.5156,0.42192 1.00778,0.63286 1.47656,0.63281 l 0.42188,0 c 1.5234,5e-5 2.78903,-0.63276 3.79687,-1.89844 l 0.63281,0 0.42188,0.63282 0,0.21093 c -3e-5,1.10162 -2.74222,1.73443 -8.22656,1.89844 l 0,0.63281 c -3e-5,0.51568 -0.28128,1.07818 -0.84375,1.6875 l 0.63281,0 c 4.0781,0.0235 6.32809,1.14849 6.75,3.375 -0.23441,0.70317 -0.65628,1.05473 -1.26563,1.05469 -0.75003,4e-5 -1.31252,-0.98433 -1.6875,-2.95312 l -0.21093,0 0,0.21093 c -3e-5,2.10942 0.77341,3.16411 2.32031,3.16407 l 1.47656,-1.05469 c 0.28122,4e-5 0.42184,0.21098 0.42188,0.63281 l 1.26562,0 0,-1.05469 c -0.28128,5e-5 -0.42191,0.21098 -0.42187,0.63282 l -0.21094,0 0,-1.6875 0.21094,0 0.21093,0.21093 0.21094,0 0,-0.42187 0.63281,-0.21094 c -0.58597,-1.12495 -1.21878,-1.68745 -1.89843,-1.6875 l -0.21094,0 0,0.21094 c 0.70309,0.0938 1.05465,0.30473 1.05469,0.63281 l 0,0.21094 -0.21094,0 c -1.54691,-0.84371 -2.60159,-1.26558 -3.16406,-1.26563 l 0,-0.21093 0.84375,0 1.26562,0.42187 0,-0.21094 c -0.77347,-0.42183 -1.5469,-0.63276 -2.32031,-0.63281 l -2.74219,0.21094 -0.42187,-0.63281 0.42187,-0.63282 c 0.8906,0.2813 2.22654,0.42193 4.00781,0.42188 l 1.89844,-0.42188 0,-0.21093 -0.21094,-0.21094 0,-0.21094 c 0.58591,-0.18745 1.00778,-0.53901 1.26563,-1.05469 l 0,-1.05468 c -0.23441,-0.56245 -0.7266,-0.8437 -1.47656,-0.84375 -0.46879,5e-5 -1.38285,0.56255 -2.74219,1.6875 l -1.26563,0.21093 -0.21093,0 c -0.84378,5e-5 -1.26566,-0.35151 -1.26563,-1.05468 l 1.05469,-0.42188 1.05469,0.42188 0.63281,0 0,-0.21094 -2.32031,-0.63281 c -0.70315,0.18755 -1.05472,0.67973 -1.05469,1.47656 m -23.41406,-1.05469 0.42187,0.42188 0,-0.42188 -0.42187,0 m 2.53125,0 c -0.42188,0.51568 -0.63282,1.00786 -0.63282,1.47656 l 0.42188,1.6875 0.21094,0 0,-0.21093 -0.21094,-1.26563 0,-0.42187 1.05469,-1.05469 -0.84375,-0.21094 m 18.35156,1.6875 0.21094,0.21094 0.21093,0 c -2e-5,-0.8437 0.28123,-1.26558 0.84375,-1.26563 l 0.42188,0 -0.63281,-0.63281 -0.21094,0 c -0.4219,5e-5 -0.70315,0.56255 -0.84375,1.6875 m 21.09375,-1.6875 0,0.42188 0.42187,0.42187 0.21094,0 0,-0.21094 -0.21094,-0.63281 -0.42187,0 m -43.03125,0.42188 0,0.42187 0.84375,0 -0.42188,-0.42187 -0.42187,0 m 44.71875,1.6875 0,1.05468 0.42187,0 -0.21093,-0.84375 c 0.23432,-0.70307 0.58589,-1.05463 1.05468,-1.05468 0.56246,0.21098 0.84371,0.42192 0.84375,0.63281 -4e-5,0.79692 -0.70317,1.42973 -2.10937,1.89844 l -0.84375,1.05468 0,0.63282 0.42187,0.42187 0.21094,0 0.42188,-0.42187 -0.63282,0 0,-0.63282 c 0.0703,-0.42183 1.05464,-0.98432 2.95313,-1.6875 l 0.21094,-1.26562 c -0.2813,-0.86714 -0.63286,-1.35933 -1.05469,-1.47656 -1.12505,5e-5 -1.68755,0.56255 -1.6875,1.6875 m -39.65625,-0.21094 0.21094,1.05469 c -0.44532,4e-5 -0.79688,0.14067 -1.05469,0.42187 l 1.05469,1.89844 0.21093,0 0,-1.05469 0.21094,0 0.21094,1.05469 -0.63281,0.42187 -0.21094,-0.21093 -0.21094,0.21093 -0.42187,0 -0.63282,-0.42187 -0.21093,0 c -1e-5,0.42192 -0.21095,0.63286 -0.63282,0.63281 -0.42188,5e-5 -0.63281,0.14067 -0.63281,0.42188 l 0,0.63281 0.21094,0 c -1e-5,-0.42183 0.14062,-0.63277 0.42187,-0.63281 0.58594,4e-5 1.14844,0.21098 1.6875,0.63281 0.5625,-0.14058 0.84375,-0.49214 0.84375,-1.05469 0.60937,5e-5 1.03125,0.98442 1.26563,2.95313 l -0.63281,1.6875 0,0.21093 0.21093,0 0.84375,-3.16406 -0.84375,-2.32031 0.21094,-0.84375 c -0.70313,-1.05464 -1.05469,-1.82808 -1.05469,-2.32031 0.1875,-0.70308 0.67968,-1.05464 1.47657,-1.05469 l -0.42188,-0.42188 c -0.98438,5e-5 -1.47657,0.42193 -1.47656,1.26563 m 36.91406,-1.05469 0,0.21094 0.42188,0.42187 0.21093,0 0,-0.63281 -0.63281,0 m -40.71094,0.63281 0,0.21094 0.84375,0 0,-0.63281 -0.42187,0 -0.42188,0.42187 m 39.44532,-0.42187 0,0.42187 0.84375,0.21094 0,-0.21094 -0.42188,-0.42187 -0.42187,0 m -40.92188,0.84375 0,0.21094 0.42188,0 0,-0.63282 -0.42188,0.42188 m 43.66406,-0.42188 0,0.21094 0.42188,0.42188 0.21094,0 0,-0.21094 -0.42188,-0.42188 -0.21094,0 m -42.60937,0.63282 -0.21094,0.21093 0,0.42188 0.84375,0.21094 0,-0.21094 -0.63281,-0.63281 m 40.28906,0.42187 0.63281,0.42188 0.21094,0 0,-0.84375 -0.42187,0 -0.42188,0.42187 m 1.47656,-0.42187 0,0.21093 0.42188,1.26563 c -5e-5,1.42973 -1.33598,2.27348 -4.00781,2.53125 l 0,0.21094 1.26562,0 c 1.96871,-0.60933 2.95308,-1.59371 2.95313,-2.95313 l 0,-0.84375 -0.42188,-0.42187 -0.21094,0 m -40.5,0.21093 0,0.42188 0.42188,0 0,-0.42188 -0.42188,0 m 5.48438,0.21094 0,0.42188 c 3.51561,0.60942 5.27342,1.87504 5.27344,3.79687 l 0,0.84375 2.74218,-0.42187 0.84375,0 c -1e-5,-1.78121 1.7578,-3.11714 5.27344,-4.00782 l 0.21094,-0.84375 -0.21094,0 -11.17969,0.21094 -2.32031,-0.21094 -0.63281,0.21094 m 14.55469,0.21094 c -3e-5,0.70317 -1.19534,1.33598 -3.58594,1.89844 -0.9844,0.70317 -1.47658,1.40629 -1.47656,2.10937 l 0,0.42188 0.21093,0 c -1e-5,-1.49996 1.61717,-2.62496 4.85157,-3.375 l 0.21093,-0.63282 0,-0.42187 -0.21093,0 m 9.91406,0 c -3e-5,0.70317 -0.3516,1.05473 -1.05469,1.05469 l 0,0.21093 c 2.15622,5e-5 4.75778,1.19536 7.80469,3.58594 l 0.84375,1.6875 0,0.84375 -0.84375,0.63281 c -0.42192,4e-5 -0.63285,-0.21089 -0.63281,-0.63281 l -0.21094,0 0,0.63281 0.84375,0.84375 0.42187,0 c 0.70309,4e-5 1.19527,-0.42183 1.47657,-1.26562 l -0.21094,-0.21094 0,-0.42187 0.63281,0 c -0.67973,-1.96871 -1.38285,-2.95308 -2.10937,-2.95313 -0.56254,5e-5 -0.98442,-0.2812 -1.26563,-0.84375 l 0,-0.42187 1.89844,0 1.05469,-0.21094 0,-0.21094 c -1.52348,-0.8437 -4.40629,-1.61714 -8.64844,-2.32031 m -31.85156,0.63281 0,0.21094 0.42187,0.42187 0.21094,-0.21093 0,-0.42188 -0.63281,0 m 1.47656,0 2.74219,1.6875 0,-0.42187 -2.74219,-1.26563 m 6.11719,0 0,0.42188 c 1.47655,0.30473 2.81248,0.79692 4.00781,1.47656 l 0,-0.21094 c -0.70314,-0.67964 -2.03907,-1.24214 -4.00781,-1.6875 m 15.60937,-0.21094 0.42188,0 0.21093,1.26563 -0.42187,0 c -0.28128,4e-5 -0.4219,-0.21089 -0.42188,-0.63281 l 0.21094,-0.63282 m 1.05469,0 0.42187,1.47657 -0.21093,0 -0.63282,-0.63282 0,-0.42187 0.42188,-0.42188 m 12.65625,0.84375 0.21094,0 0.42187,0.42188 -0.42187,0.63281 0.21093,0 0.42188,-0.42187 0.42187,0 c -0.0938,0.37504 -0.44535,0.7266 -1.05468,1.05468 l -0.21094,0 0,-0.42187 -0.21094,0.21094 -0.42187,0 0,-0.42188 c -4e-5,-0.2812 0.2109,-0.42183 0.63281,-0.42187 l 0,-0.21094 -0.63281,0 c -4e-5,0.56254 -0.21098,0.84379 -0.63282,0.84375 l 0,-0.63281 c 0.14059,-0.42183 0.56247,-0.63277 1.26563,-0.63282 m -36.28125,0.42188 0,0.21094 0.84375,0 0,-0.21094 -0.84375,0 m 45.35156,0 0,0.42187 c 0.56245,5e-5 0.8437,0.21099 0.84375,0.63282 l 0.42188,0 0,-0.84375 -1.05469,-0.21094 -0.21094,0 m -46.61719,0.84375 0,0.63281 0.42188,0.42188 0.42187,0 0.42188,-0.42188 -0.21094,0 -0.21094,0.21094 -0.21093,0 0,-0.42188 -0.21094,0 0.63281,-1.05468 -0.21094,0 -0.84375,0.63281 m 2.74219,-0.63281 0,0.21093 0.42188,0 0,-0.21093 -0.42188,0 m 42.82031,0.21093 1.26563,2.32032 -0.21094,0 -1.26562,0.42187 -2.53125,-1.47656 c -1.12505,0.25786 -1.68755,0.53911 -1.6875,0.84375 l 2.32031,1.6875 0,-0.42188 c 0.39839,0.2813 1.17183,0.42192 2.32031,0.42188 l 0,0.21094 -1.89844,0 -0.21093,-0.21094 0,0.21094 2.32031,0.63281 c -5e-5,-0.65621 0.42183,-1.1484 1.26562,-1.47656 l 0.21094,-0.63282 c -0.23442,-0.72651 -0.72661,-1.49995 -1.47656,-2.32031 l 0,-0.42187 -0.21094,0.21093 -0.21094,0 m -12.86718,0 0,0.21094 0.42187,0 0,-0.21094 -0.42187,0 m 0.63281,0.21094 0,0.21094 c 1.40621,0.42192 2.10934,1.12504 2.10937,2.10937 l 0,0.42188 c -3e-5,0.56254 -0.56253,0.84379 -1.6875,0.84375 l 0,0.21094 c 0.56247,0.0235 0.84372,0.1641 0.84375,0.42187 1.12497,-0.23433 1.68747,-0.86714 1.6875,-1.89844 -3e-5,-0.82026 -0.91409,-1.5937 -2.74218,-2.32031 l -0.21094,0 m -25.10156,1.47656 0,1.05469 0.21093,0 c -1e-5,-1.26558 0.49218,-1.89839 1.47657,-1.89844 l 0.21093,0.21094 0,-0.21094 -0.42187,-0.42187 c -0.98439,4e-5 -1.47657,0.42192 -1.47656,1.26562 m 10.75781,0.42188 -0.63281,0 0,0.42187 c 1.66404,5e-5 2.92966,-0.63276 3.79687,-1.89843 l 0,-0.21094 c -1.21877,1.12504 -2.27346,1.68754 -3.16406,1.6875 m 10.33594,-1.6875 1.6875,0.63281 0,0.42188 c -1.12503,-0.25777 -1.68753,-0.53902 -1.6875,-0.84375 l 0,-0.21094 m -4.85157,1.05469 0,0.21093 c -2e-5,0.77348 0.42185,1.4063 1.26563,1.89844 l 0,-0.21094 c -0.70315,-0.35152 -1.05471,-0.91402 -1.05469,-1.6875 l 1.05469,-0.42187 0,-0.42188 c -0.84378,0.0938 -1.26565,0.30474 -1.26563,0.63282 m -15.60937,2.10937 3.16406,-2.32031 0,-0.21094 -0.21094,0 c -1.52344,0.91411 -2.50782,1.75786 -2.95312,2.53125 m -4.42969,9.28125 0,0.42188 0.21094,0 c -1e-5,-2.27341 1.82812,-5.22653 5.48437,-8.85938 0.28124,4e-5 1.1953,-0.70308 2.74219,-2.10937 l -0.21094,-0.63282 c -3.72657,2.13286 -6.32813,5.15629 -7.80468,9.07032 l -0.42188,2.10937 m -3.16406,-10.75781 c 0,0.84379 -0.28125,1.26567 -0.84375,1.26562 l -0.21094,0.21094 0,0.63281 1.05469,0 -0.21094,1.05469 0.84375,-0.63281 1.05469,0 1.05469,0.84375 0,-0.21094 -0.84375,-1.05469 0.42187,0 0,-0.21093 -1.05469,-0.21094 0,-0.42188 0.42188,0 c -1e-5,-0.25777 -0.49219,-0.67964 -1.47656,-1.26562 l -0.21094,0 m 3.16406,1.26562 0,0.63282 0.21094,0 0,-0.42188 0.63281,0 c 0.42187,0.0938 0.63281,0.65629 0.63281,1.6875 l 0.21094,0 0,-1.26562 c -1e-5,-0.70309 -0.28126,-1.12496 -0.84375,-1.26563 -0.5625,0.21098 -0.84375,0.42192 -0.84375,0.63281 m 4.21875,3.375 c 2.10936,-1.82808 3.72655,-2.74214 4.85156,-2.74218 L 172,159.52707 c 3.23435,0.35161 4.85154,1.26567 4.85156,2.74219 l 0,0.42187 -0.63281,0.63282 -0.84375,0 c -0.28127,3e-5 -0.4219,-0.2109 -0.42188,-0.63282 l -0.21093,0 0,0.63282 c 0.28123,0.84378 0.84373,1.26566 1.6875,1.26562 0.98435,4e-5 1.47654,-0.56246 1.47656,-1.6875 l 1.26562,0 0,-0.42187 c -2e-5,-0.89059 -0.56252,-1.73434 -1.6875,-2.53125 l -0.21093,0 c 0.98435,0.77347 1.47654,1.54691 1.47656,2.32031 l 0,0.21094 -0.21094,0 c -2e-5,-0.98434 -0.9844,-1.8984 -2.95312,-2.74219 l 0,-0.21094 0.42187,0 0.21094,0.21094 0.42187,0 0,-0.21094 -3.375,-0.84375 c -2.97657,0.35161 -5.43751,1.33598 -7.38281,2.95313 l -0.84375,1.05468 m 13.5,-2.74218 0.84375,0.63281 -0.21094,-0.21094 0,-0.63281 0.42188,-0.42188 0.63281,0 0.84375,0.84375 0,0.21094 c -2e-5,1.03129 -0.49221,2.01567 -1.47656,2.95313 l 0.21094,0 c 1.12497,-0.84371 1.68747,-1.82809 1.6875,-2.95313 -0.21097,-1.12496 -0.77347,-1.68746 -1.6875,-1.6875 -0.84378,4e-5 -1.26565,0.42192 -1.26563,1.26563 m 19.40625,-0.42188 0,0.63281 0.21094,0 0,-0.63281 -0.21094,0 m 1.26563,0.21094 0,0.21094 3.58593,3.79687 0.84375,0 0.42188,-0.42187 0,-0.21094 c -0.75005,4e-5 -1.5938,-0.70309 -2.53125,-2.10938 -0.63286,4e-5 -1.4063,-0.42183 -2.32031,-1.26562 m -29.53125,1.05469 0.21093,2.32031 -0.21093,0.21094 0.21093,0.21093 0,16.45313 3.58594,0.63281 -0.21094,-9.91406 0,-10.54688 -0.84375,0 c -1.82814,5e-5 -2.7422,0.21098 -2.74218,0.63282 m 23.83593,-0.63282 0,0.63282 -0.21093,-0.21094 -0.21094,0 0,0.21094 0.21094,0.21093 -1.47657,0.42188 0,0.21094 1.89844,0 0.21094,-1.05469 -0.42188,-0.42188 m -19.82812,0.21094 0.21094,20.67188 0.42187,0 -0.21094,-6.75 0,-13.92188 -0.42187,0 m 25.3125,0 -0.42188,0.84375 c 0.2109,0.56254 0.42184,0.84379 0.63282,0.84375 l 0,-0.21094 -0.21094,-0.21093 0.42187,0 c 0.56246,0.93754 0.84371,1.71097 0.84375,2.32031 l 0,0.63281 -0.21093,-0.21094 -0.21094,0 c -5e-5,0.98442 -0.2813,1.96879 -0.84375,2.95313 l 0.21094,0 c 0.79683,3e-5 1.28901,-0.98434 1.47656,-2.95313 l 0.42187,0 c -4e-5,-1.26558 -0.70317,-2.60152 -2.10937,-4.00781 m 3.79687,0.84375 0,0.21094 0.84375,0.21094 0.63282,-0.21094 0,-0.63281 c -0.32818,0.28129 -0.82036,0.42191 -1.47657,0.42187 m -44.08593,-0.21094 0.21093,4.64063 0,0.63281 -1.89843,9.70313 0,0.21093 0.21093,0 0,-0.42187 0.42188,0 0,0.21094 -0.63281,1.6875 0.42187,0.63281 c -0.42188,0.14065 -0.63281,0.56252 -0.63281,1.26562 l 0,0.21094 0.21094,-0.21094 0.21093,0 0.21094,0.21094 -0.63281,1.6875 0.21094,-0.21094 0.21093,0 0.21094,0.21094 -0.42187,1.47656 0.21093,-0.21093 0.21094,0 0,0.42187 -0.21094,1.47656 0.63282,-0.42187 0,0.21094 -0.42188,1.89843 0.21094,-0.21093 0.21094,0 0.21093,0.21093 -0.21093,1.05469 0,0.84375 0.21093,0 0,-0.42187 0.42188,0 0,1.47656 0.63281,0 0,1.05469 -0.21094,0.21093 0,0.21094 1.89844,0 c 0,-0.86717 0.70312,-1.99217 2.10938,-3.375 l 0,-0.21094 -1.05469,1.05469 -0.21094,0 0,-0.63281 1.6875,-1.47656 -0.21094,-0.21094 0,-0.21094 c 0.5625,-1.07811 0.84375,-1.92186 0.84375,-2.53125 l 0,-1.89844 -0.21093,0 c -1.26564,0.28127 -1.89845,0.77346 -1.89844,1.47657 l -0.63281,0 0,-0.42188 c -1.40626,1.21877 -2.10938,2.41408 -2.10938,3.58594 l -0.42187,0 0,-1.6875 1.26562,-2.10938 -0.21094,0 -0.42187,0.42188 -0.21094,0 2.10938,-3.375 -0.63282,0 0,-0.42188 c 0.72656,3e-5 1.21875,-0.63279 1.47657,-1.89843 l 0,-1.05469 -0.21094,0 -1.47656,1.05469 -0.21094,0 c -1e-5,-0.42185 -0.14063,-0.63279 -0.42188,-0.63282 -0.98437,0.75003 -1.47656,1.52347 -1.47656,2.32032 l 0,0.21093 0.63281,-0.42187 0,0.21094 -0.84375,0.84375 -0.42187,-0.42188 0,-0.42187 0.21094,0.21093 0.21093,0 -0.42187,-0.63281 c 0,-0.93747 0.84375,-2.7656 2.53125,-5.48437 l 0,-0.21094 -0.21094,0 0,0.42187 -0.21094,0 0,-0.21093 0.21094,-1.89844 0.42188,0 -0.21094,-1.47656 -0.21094,0 c -0.0937,0.70315 -0.30469,1.05472 -0.63281,1.05468 l -0.21094,0 1.26563,-5.69531 -0.21094,0 -0.21094,0.63281 -0.42187,0 0.21093,-1.47656 -0.63281,-2.74219 -0.42187,0 m 31.42968,0 0,0.21094 0.42188,0 0,-0.21094 -0.42188,0 m -23.20312,0.63282 0,0.21093 0.21094,0 0.63281,-0.21093 c 0.56249,0.14066 0.84374,0.42191 0.84375,0.84375 l 0.42187,-0.42188 0,-0.21094 c -1e-5,-0.32808 -0.35157,-0.53902 -1.05468,-0.63281 l -1.05469,0.42188 m 19.61719,-0.42188 0,0.21094 c 1.40621,0.46879 2.10934,0.89066 2.10937,1.26562 l -0.21094,0 c -1.52347,-0.84371 -2.64846,-1.26558 -3.375,-1.26562 l -0.42187,0 0,0.21094 1.6875,0.42187 0,0.21094 -2.10938,-0.21094 c -1.78127,4e-5 -3.18752,0.56254 -4.21875,1.6875 -0.84377,0.28129 -1.68752,0.98441 -2.53125,2.10938 l 0.21094,0.21093 c -0.72658,0.37504 -1.14846,0.79691 -1.26562,1.26563 0.65622,-0.42184 1.92185,-0.84372 3.79687,-1.26563 l 0,0.42188 c -1.9219,3e-5 -3.46877,0.77347 -4.64062,2.32031 l 0,0.21094 c 0.96091,-0.70309 1.66404,-1.05466 2.10937,-1.05469 l 0,0.21094 c -1.82814,1.24222 -2.74221,2.36722 -2.74219,3.375 l 0,0.21094 c 1.35936,-1.96872 2.62498,-2.9531 3.79688,-2.95313 l 4.00781,1.05469 0.84375,0 0.21094,-0.21094 0.21094,0 -0.42188,-1.05469 c 1.12497,0.7266 2.46091,1.14847 4.00781,1.26563 l 0,-1.6875 c -0.2344,-1.82809 -0.86721,-2.74215 -1.89843,-2.74219 l 0,-0.21094 0.42187,-0.63281 0,-0.21094 -2.10937,-0.42187 -3.16407,0.42187 -0.21093,-0.21093 0,-0.21094 c 0.82028,-0.56246 2.01559,-0.98434 3.58593,-1.26563 l 3.58594,1.26563 0,-0.21094 -1.05469,-1.26562 0.63282,0 c 0.98434,1.31253 1.47653,2.7891 1.47656,4.42968 l 1.05469,1.6875 0.63281,-1.05468 0.63281,0 0,0.42187 -0.42187,2.32031 c -4e-5,0.56253 0.49215,1.4766 1.47656,2.74219 1.68746,-0.96091 2.53121,-1.94528 2.53125,-2.95312 l -0.63281,0.84375 -0.21094,0.21093 -0.21094,0 0,-0.21093 0.21094,-0.21094 0,-0.21094 -0.21094,0 -0.42187,0.42188 -0.21094,-0.21094 c 0.56246,-1.31247 1.12496,-2.15622 1.6875,-2.53125 l 0,0.21094 -0.84375,1.6875 0,0.21093 0.21094,0 c -4e-5,-0.5859 0.56246,-0.93746 1.6875,-1.05468 l 0,-1.6875 c -4e-5,-1.14841 -0.70317,-2.41403 -2.10938,-3.79688 l 0,-0.21094 c 0.93746,4e-5 1.99215,1.26567 3.16406,3.79688 l 0.21094,4.00781 0.21094,0 0.84375,-3.16406 c -1.59379,-3.16403 -3.77348,-5.20309 -6.53906,-6.11719 l 0,0.42188 -1.26563,-0.84375 -0.63281,0 0,0.21093 c 0.53903,4e-5 1.17184,0.56254 1.89844,1.6875 l 0,0.21094 -0.21094,0 c -1.71097,-1.68746 -3.25785,-2.53121 -4.64063,-2.53125 l -0.21093,0 m 4.42968,0 0,0.21094 0.42188,0 0,-0.21094 -0.42188,0 m -28.26562,0.84375 -0.21094,0.21094 0,0.21094 0.21094,0 0.21094,-0.21094 0,-0.21094 -0.21094,0 m -2.53125,0.21094 0,1.26562 0.42187,0.42188 0,-0.21094 -0.21093,-1.47656 -0.21094,0 m 2.10937,0.42187 -0.42187,0.84375 0.21094,0 0.42187,-0.84375 -0.21094,0 m 0,4.00782 0.21094,0 c 0.96093,-1.68747 2.29687,-2.53122 4.00781,-2.53125 0.98437,0.46878 1.47655,0.82035 1.47657,1.05468 l 0,0.21094 c -2e-5,0.84379 -0.42189,1.26566 -1.26563,1.26563 l -1.89844,-0.63282 -0.42187,0 -0.21094,0.63282 0.21094,0.21093 0.21094,0 c -1e-5,-0.42184 0.21092,-0.63277 0.63281,-0.63281 l 2.32031,1.05469 c 0.98436,-0.28122 1.47655,-0.84372 1.47656,-1.6875 l 0,-0.42188 -0.84375,-1.26562 c 0.42187,4e-5 0.6328,-0.14059 0.63282,-0.42188 l -2.10938,-0.63281 c -1.59376,4e-5 -3.07032,1.26566 -4.42969,3.79688 m 32.48438,-3.79688 0,0.21094 c 1.49996,1.54691 2.55464,2.32035 3.16406,2.32031 0.70308,4e-5 1.05465,-0.42184 1.05469,-1.26562 l -0.42188,-0.42188 -0.21093,0 -0.21094,1.05469 -0.42188,0 c -0.5391,4e-5 -1.52347,-0.63278 -2.95312,-1.89844 m 6.96094,1.05469 c 0.98432,2.4141 1.47651,4.52347 1.47656,6.32812 l 0,0.42188 c -5e-5,1.31253 -0.21099,2.8594 -0.63281,4.64062 l 1.26562,0.21094 0,-0.21094 0.21094,-2.95312 0,-0.63281 c -5e-5,-3.77341 -0.70317,-6.37497 -2.10938,-7.80469 l -0.21093,0 m -40.28907,0.21094 0,0.42187 0.21094,0 0,-0.42187 -0.21094,0 m 18.77344,-0.21094 c 0.42185,0.42191 0.91404,0.63285 1.47656,0.63281 l 0,0.21094 -1.05468,0.21094 -0.42188,-0.63282 0,-0.42187 m 11.60156,0 0.42188,0 0.42187,0.42187 -0.42187,0.42188 -0.42188,0 0,-0.84375 m 1.89844,0.42187 0.21094,0 0.42187,0.42188 0,0.21094 -0.63281,-0.63282 m 9.49219,0.21094 c 0.2812,0.63285 0.56245,0.98441 0.84375,1.05469 l 0.21094,0 0.42187,-0.42188 0,-0.21093 c -0.6563,3e-5 -1.14848,-0.14059 -1.47656,-0.42188 m -46.82813,1.47656 0,0.84375 0.21094,0 c 0,-0.84371 0.21094,-1.26559 0.63281,-1.26562 l 0.63282,0 0.21093,0.84375 -0.42187,2.74219 0,0.42187 0.21094,0 0.42187,-2.95312 0,-1.26563 -0.63281,-0.63281 -0.21094,0 c -0.70312,0.39847 -1.05469,0.82035 -1.05469,1.26562 m 36.07032,-1.26562 0.63281,0.21094 0,0.63281 -0.84375,-0.21094 0.21094,-0.63281 m -32.0625,0.42187 0,1.47657 0.21093,0 0,-1.47657 -0.21093,0 m 14.97656,0 -0.42188,0.63282 c 0.56248,3e-5 0.84373,0.14066 0.84375,0.42187 l -0.21093,1.26563 0,0.21093 0.21093,0 0.42188,-1.47656 0,-0.84375 -0.84375,-0.21094 m 14.13281,-0.21093 0,0.84375 0.21094,0 0,-0.63282 0.42187,0 0.21094,1.47657 0,0.42187 -0.42187,0 0,-0.42187 -0.21094,0 0,0.84375 -0.21094,0 -0.63281,-2.10938 0.63281,-0.42187 m 4.85156,0 c 0.84371,0.51566 1.26559,1.35941 1.26563,2.53125 l 0,0.21093 c -0.28129,4e-5 -0.70317,-0.91402 -1.26563,-2.74218 m 7.17188,0.42187 0,0.21094 0.42187,1.47656 0.21094,0 0,-0.42187 -0.42187,-1.26563 -0.21094,0 m -20.46094,0.42188 1.6875,0.42187 0.21094,-0.21094 0.21094,0 0.84375,0.63282 0,0.42187 -0.21094,0 -0.42188,-0.42187 -0.21093,0.21093 -0.42188,0 0,-0.42187 -0.63281,0.21094 c -0.9844,-0.14059 -1.47659,-0.35153 -1.47656,-0.63282 l 0.42187,0 0,-0.21093 m 5.0625,0.42187 0.63281,0 0.42188,1.26563 c -0.51566,-0.25778 -0.86722,-0.67966 -1.05469,-1.26563 m -1.89844,0.21094 0.63282,0.63281 -0.63282,0 0,-0.63281 m -22.14843,0.42187 -0.21094,0.21094 0,0.63281 0.21094,0 0.21093,-0.84375 -0.21093,0 m 23.83593,-0.21093 c 0.58591,0.37503 1.0781,1.00784 1.47657,1.89843 l 0,0.84375 -0.42188,0 -1.05469,-2.74218 m 2.32032,0.21093 0,0.42188 0.21093,0 0,-0.42188 -0.21093,0 m -25.3125,0.21094 -0.21094,0.21094 0,0.21094 0.84375,-0.21094 0,-0.21094 -0.63281,0 m -2.74219,0.21094 0,0.42187 0.21094,0 0,-0.42187 -0.21094,0 m 41.97656,0 c -5e-5,2.53128 -0.56254,3.7969 -1.6875,3.79687 -0.56254,-0.0937 -0.84379,-0.65622 -0.84375,-1.6875 l 0.42188,-0.42187 0.21093,0 1.05469,0.21094 0,-0.42188 c -4e-5,-0.28122 -0.21098,-0.42184 -0.63281,-0.42187 -0.98442,3e-5 -1.47661,0.63284 -1.47656,1.89843 -5e-5,0.98441 0.42183,1.4766 1.26562,1.47657 l 0,1.47656 0.42188,0 c 1.12495,-0.7031 1.68745,-1.61716 1.6875,-2.74219 l 0,-0.63281 -0.21094,-2.53125 -0.21094,0 m -38.60156,0.42187 0,0.21094 1.47656,0 0,-0.21094 -1.47656,0 m 23.625,-0.21093 0.21094,0 0,0.42187 -0.21094,0 0,-0.42187 m -25.52344,1.47656 1.6875,-0.84375 0,-0.21094 -0.21094,0 c -0.91407,0.37503 -1.40625,0.7266 -1.47656,1.05469 m 3.58594,-1.05469 0,0.21094 0.84375,0.42187 0,-0.21093 -0.63281,-0.42188 -0.21094,0 m 10.125,0 -0.21094,0.63281 0,0.21094 0.21094,0 0.21094,-0.63281 0,-0.21094 -0.21094,0 m 13.07812,0 0,0.42188 0.42188,0 0,-0.42188 -0.42188,0 m -28.47656,0.21094 -0.42187,0.84375 0.21093,0 0.42188,-0.84375 -0.21094,0 m 6.96094,0.42187 0,0.42188 0.84375,0 0,-0.84375 -0.42188,0 -0.42187,0.42187 m -4.00781,0.21094 0,0.42188 0.42187,-0.42188 -0.42187,0 m 2.32031,0.21094 0,0.21094 0.42187,0 0,-0.21094 -0.42187,0 m 22.99219,0.42187 0.42187,0.42188 0,-0.84375 -0.42187,0.42187 m -26.57813,0.63282 0.21094,0 c -1e-5,-0.28122 0.21093,-0.42185 0.63281,-0.42188 l 0,-0.42187 -0.84375,0.84375 m 4.42969,-0.63282 0,0.42188 0.42187,0.42187 0.21094,0 0.42188,-0.42187 -0.42188,-0.42188 -0.63281,0 m 23.625,0 0,0.42188 0.21094,0 0,-0.42188 -0.21094,0 m -31.21875,6.96094 0,0.21094 0.21094,0 c -1e-5,-0.37498 0.6328,-0.86716 1.89843,-1.47656 0,-1.14841 0.98437,-2.27341 2.95313,-3.375 l 0.84375,0 0.84375,0.63281 0.42187,0 0,-0.21094 c -1e-5,-0.84372 -0.28126,-1.26559 -0.84375,-1.26562 l -0.63281,0.21093 0,-0.21093 0.42188,-1.26563 -0.21094,0 c -1.87501,3e-5 -3.63282,1.96878 -5.27344,5.90625 L 158.5,176.40207 m 9.07031,-6.32812 0,0.21093 0.42188,-0.42187 0,-0.21094 -0.42188,0.42188 m 9.49219,-0.42188 c -0.14065,0.84378 -0.35158,1.26566 -0.63281,1.26563 l -0.21094,-0.21094 -0.21094,0 c -0.84377,1.71097 -1.26564,3.11721 -1.26562,4.21875 l 0.42187,2.74219 c 0.28123,2e-5 0.42186,-0.21092 0.42188,-0.63282 l 0.42187,0 -0.21094,1.05469 c 0.42186,2e-5 0.6328,0.14065 0.63282,0.42188 l 0.21093,0 c -2e-5,-0.67967 0.42186,-1.80467 1.26563,-3.375 l 0.63281,0 c -0.84377,1.47658 -1.26565,2.53127 -1.26562,3.16406 l 0.21093,0.21094 0,0.21093 -0.42187,1.6875 0,0.21094 0.21094,0 c -3e-5,-0.42185 0.1406,-0.63279 0.42187,-0.63281 l 0,0.42187 -0.21094,1.47657 0,0.42187 0.21094,0 0,-1.05469 0.42188,0 0,1.6875 0.21093,0 c -2e-5,-2.03904 0.63279,-3.5156 1.89844,-4.42968 l -0.21094,0 c -2e-5,0.21096 -0.28127,0.42189 -0.84375,0.63281 l 0,-0.21094 0.63282,-0.84375 -0.42188,0 c 0.1406,-0.35154 0.84373,-0.98435 2.10938,-1.89844 l 0,0.21094 -0.21094,0.21094 0,0.21094 0.42187,0 0.21094,-1.05469 0,-0.21094 -0.84375,0 0,-0.21094 c 1.54685,-1.66403 2.32029,-2.99997 2.32031,-4.00781 l -0.21093,0 -2.74219,-0.42187 -0.21094,0 c -2e-5,0.4219 -0.14065,0.63284 -0.42187,0.63281 l -0.21094,0 -0.21094,-1.26563 c -1.66408,1.24222 -2.50783,2.36722 -2.53125,3.375 l 0,0.21094 0.21094,0 c -2e-5,-0.91403 0.77341,-1.96872 2.32031,-3.16406 l 0,0.21094 -2.53125,3.58593 -0.21094,-0.21093 -0.21093,0.84375 0.42187,0.42187 -0.42187,0 0,0.21094 0.84375,0 0,0.21094 -1.26563,0.42187 -0.63281,-0.84375 0.63281,0 -0.42187,-0.63281 0.21093,0 0.21094,0.21094 0.21094,0 -0.21094,-0.21094 0,-0.21094 c -2e-5,-1.66403 0.56248,-3.35153 1.6875,-5.0625 l -0.63281,0 m 21.30469,0 c -0.35161,2.53128 -1.26567,3.7969 -2.74219,3.79688 l 0,0.21093 0.63281,0 0,0.21094 -1.47656,0.42188 -0.42188,-0.42188 0.84375,0 0,-0.21094 -2.32031,0 c -4e-5,0.56253 -0.14066,0.84378 -0.42187,0.84375 -0.51567,-0.42184 -1.00785,-0.63278 -1.47657,-0.63281 l -1.26562,0 c 0.35153,1.19534 1.05465,2.32034 2.10937,3.375 l 0,0.42188 -1.26562,0 0,0.42187 2.53125,0.84375 1.89844,-0.21094 c -4e-5,0.32815 -0.9141,0.67971 -2.74219,1.05469 l 0,0.21094 0.84375,0 c 1.38277,2e-5 2.71871,-0.84373 4.00781,-2.53125 l -0.21094,-0.21094 0,-0.21094 c -4e-5,-0.67966 0.35152,-1.24216 1.05469,-1.6875 l 0.21094,-0.21093 0,-0.21094 c -1.57035,1.12502 -2.69535,1.68752 -3.375,1.6875 l 0,-0.21094 c -4e-5,-0.25779 0.70308,-0.60935 2.10937,-1.05469 1.12496,-0.96091 1.68746,-1.59372 1.6875,-1.89843 l -0.21093,0 -0.63282,0.21093 0,-0.21093 c -4e-5,-0.21091 0.28121,-0.42185 0.84375,-0.63282 l 0.21094,-0.21093 0,-0.42188 -0.21094,0 0,0.42188 -0.21093,0 -0.42188,-0.42188 0.84375,-0.84375 0,-0.21094 -0.21094,-1.47656 -0.21093,0 m -40.92188,0.21094 0,0.84375 0.21094,0 0,-0.84375 -0.21094,0 m 7.80469,0.21094 0,0.42187 0.42187,0 0,-0.42187 -0.42187,0 m 18.98437,0 0,0.42187 0.84375,0 -0.42187,-0.42187 -0.42188,0 m 2.53125,0.21093 -0.21093,0.21094 0,0.21094 0.63281,0 -0.42188,-0.42188 m 2.32032,0 0,0.21094 0.63281,0.63281 0,-0.42187 -0.42188,-0.42188 -0.21093,0 m -6.11719,0.21094 0,0.21094 0.63281,0 0,-0.21094 -0.63281,0 m 4.85156,0 0,0.63281 0.63281,0 0,-0.21093 -0.42187,-0.42188 -0.21094,0 m 8.01563,0 0,0.63281 0.21093,0 0.42188,-0.42187 0,-0.21094 -0.63281,0 m -28.89844,0.21094 0,0.63281 0.21094,0 0,-0.63281 -0.21094,0 m 18.5625,0 0,0.63281 0.63281,0 0,-0.21094 -0.42187,-0.42187 -0.21094,0 m 16.875,-0.21094 0,0.21094 c -5e-5,0.86722 -0.49224,1.64065 -1.47656,2.32031 l 0,-0.21094 1.47656,-2.32031 m -45.14063,0.63281 0,0.84375 0.21094,0 0,-0.84375 -0.21094,0 m 6.11719,-0.21093 0.42188,0 0,0.42187 -0.21094,0 -0.21094,-0.21094 -0.21094,0 0,0.21094 0.21094,0.21094 -0.21094,0.21094 -0.42187,0 0.21094,-0.21094 0,-0.21094 -1.05469,0.42188 c 0.23437,-0.56247 0.72655,-0.84372 1.47656,-0.84375 m 20.88281,0.63281 0.42188,0.42187 0.42187,0 0,-0.42187 -0.42187,-0.42188 -0.42188,0.42188 m 9.49219,-0.42188 0,0.42188 -0.42187,0 0.42187,-0.42188 m 1.26563,0.21094 0,0.84375 0.21093,0 0.42188,-0.42187 0,-0.42188 -0.63281,0 m -27.42188,0.21094 -0.21094,1.26562 c 0.21093,0.56253 0.42187,0.84378 0.63282,0.84375 l 0.63281,0 0.42187,-0.42187 -0.21093,0 -0.21094,0.21094 -0.21094,0 -0.63281,-0.21094 0,-1.6875 -0.21094,0 m 19.19531,0 0,0.42187 0.42188,0 0,-0.42187 -0.42188,0 m 1.26563,0 0,0.42187 0.42187,0 -0.42187,-0.42187 m 2.10937,0 0,0.63281 0.42188,0 0,-0.63281 -0.42188,0 m 6.75,0 -0.21093,1.05469 c 0.2812,3e-5 0.42183,-0.21091 0.42187,-0.63282 l 0,-0.42187 -0.21094,0 m -34.59375,0.21094 0.42188,0 0,0.21093 -0.42188,0 0,-0.21093 m -5.27343,0.42187 0,0.84375 0.21093,0 0,-0.84375 -0.21093,0 m 2.32031,-0.21094 0.21094,0 c -1e-5,1.21878 -0.56251,2.55472 -1.6875,4.00782 l 0,-0.21094 c 0.77343,-2.53122 1.26562,-3.79685 1.47656,-3.79688 m 2.74219,0 0.21093,0 -0.63281,0.63282 0,-0.21094 0.42188,-0.42188 m 21.72656,0.21094 0,0.42188 0.21094,0 0,-0.42188 -0.21094,0 m 0,1.6875 0.21094,0.21094 0,0.21094 -0.84375,0.84375 0,0.63281 0.42187,0 -0.42187,1.05469 0,0.21093 0.21093,0 0,-0.42187 0.42188,0 -0.42188,1.6875 0.21094,0.21094 0.21094,0 c -3e-5,-1.73435 1.33591,-2.78904 4.00781,-3.16407 l 0.21094,-0.63281 -0.63281,-0.21094 0,-0.21093 c 1.12496,-0.3281 1.68746,-1.03123 1.6875,-2.10938 -1.26566,0.14066 -2.17972,0.42191 -2.74219,0.84375 l -0.21094,-0.84375 c -0.75003,3e-5 -1.52347,0.56253 -2.32031,1.6875 m 10.125,-0.84375 0.21094,0 0.42187,-0.42187 -0.21094,0 -0.42187,0.42187 m 1.26562,-0.42187 0.42188,0.42187 0,-0.42187 -0.42188,0 m -5.69531,0.21093 0,0.63282 0.42188,-0.42188 0,-0.21094 -0.42188,0 m 1.05469,0 0,0.42188 0.63281,0 0,-0.42188 -0.63281,0 m -27.63281,2.10938 c 0.32811,1.12502 0.60936,1.68752 0.84375,1.6875 l 0.21093,-0.21094 -0.63281,-1.6875 0.84375,-1.05469 0.63281,0 c 1.40624,3e-5 2.60155,1.26566 3.58594,3.79688 l 0.21094,0 0,-0.21094 c -0.77345,-2.67185 -2.10939,-4.00778 -4.00781,-4.00781 l -0.42188,0 c -0.84376,0.28128 -1.26563,0.84378 -1.26562,1.6875 m 20.25,-1.6875 0,0.21094 0.42187,0 0,-0.21094 -0.42187,0 m -2.95313,0 0.42188,0 0,0.21094 -0.63282,0.84375 -0.42187,0 0,-0.63282 c 0.42185,3e-5 0.63279,-0.14059 0.63281,-0.42187 m 6.96094,0 0.21094,0.21094 0,0.21093 -0.42188,0.42188 -0.21094,-0.21094 0,-0.21094 0.42188,-0.42187 m -0.84375,0.21094 0,0.84375 -0.63281,-0.21094 0.63281,-0.63281 m -1.26563,0.42187 0.63282,0.21094 0,0.63281 -0.63282,0 0,-0.84375 m 3.58594,0.42188 0,0.21093 0.42188,0.42188 0.21093,0 0,-0.63281 -0.63281,0 m -9.49219,0 0.42188,0 -0.21094,0.63281 -0.63281,0 0,-0.21094 0.42187,-0.42187 m 2.95313,0.84375 0.21094,0.21093 0.21093,0 0,-0.63281 -0.42187,0.42188 m 6.32812,0 0,0.63281 0.21094,0 0,-0.63281 -0.21094,0 m 1.05469,0.21093 0,0.63282 0.42188,0 0,-0.21094 -0.42188,-0.42188 m 9.07031,0 -0.21093,1.47657 0,0.42187 c -5e-5,0.2344 0.35152,0.44534 1.05468,0.63281 0.84371,-0.28122 1.26558,-0.84372 1.26563,-1.6875 l -0.84375,0.63282 -0.42188,0 c -0.28129,2e-5 -0.49223,-0.49217 -0.63281,-1.47657 l -0.21094,0 m -6.32812,0.21094 0.63281,0 0,0.21094 -0.42187,0.42187 -0.21094,-0.21093 0,-0.42188 m 9.49219,0.63281 c 0.86714,3e-5 1.57026,0.28128 2.10937,0.84375 -0.2813,-0.84372 -0.8438,-1.2656 -1.6875,-1.26562 l -0.42187,0.42187 m -14.55469,0 0,0.63282 0.21094,0 0.42187,-0.42188 0,-0.42187 -0.63281,0.21093 m 6.11719,-0.42187 0.21093,0 0,0.63281 -0.63281,0 0,-0.21094 0.42188,-0.42187 m 0.63281,0 0.42187,0.42187 0,0.42188 -0.63281,0 0.21094,-0.84375 m -31.21875,2.95312 c 0.21093,0.84378 0.70312,1.26565 1.47656,1.26563 l 2.74219,-0.42188 0,-0.21093 -0.42188,-0.42188 -2.32031,0.63281 c -0.70313,-0.18747 -1.05469,-0.39841 -1.05469,-0.63281 l 0,-0.42187 c 0.75,-1.2656 2.15624,-1.89842 4.21875,-1.89844 l 0,-0.42188 c -2.53126,3e-5 -4.07813,0.84378 -4.64062,2.53125 m 23.625,-2.53125 -0.21094,0.21094 0,0.42188 0.63281,0 0,-0.21094 -0.42187,-0.42188 m -17.29688,0.21094 0,0.42188 0.21094,0 0,-0.42188 -0.21094,0 m 19.61719,0 0,0.63281 0.63281,0 0,-0.63281 -0.63281,0 m 1.47656,0.21094 0,0.63281 0.42188,0 0,-0.63281 -0.42188,0 m -5.0625,0.21094 0,0.84375 0.42188,-0.42188 0,-0.42187 -0.42188,0 m 15.39844,2.10937 0.63281,-0.42187 0.21094,0 -0.63281,1.6875 -0.42188,0 0.21094,-0.84375 0,-0.21094 -0.21094,0 c -0.32817,1.54689 -1.03129,2.32033 -2.10937,2.32031 -0.70317,-0.18748 -1.05473,-0.67967 -1.05469,-1.47656 l 0,-0.21094 0.42188,-0.63281 0,-0.21094 -0.21094,0 c -0.56254,0.2344 -0.84379,0.72659 -0.84375,1.47656 -4e-5,0.9844 0.49214,1.47659 1.47656,1.47657 l 1.47656,-0.21094 0,0.42187 0.21094,0 c 0.74996,-0.3281 1.59371,-1.59373 2.53125,-3.79687 l -0.21094,-0.21094 0.21094,-0.21094 0.63281,0 0.63282,0.63282 0,0.21093 -0.84375,-0.42187 0,0.21094 0.42187,0.42187 -0.21094,1.05469 -0.21093,-0.21094 -0.21094,0 0,0.21094 0.21094,0.21094 -1.47657,1.47656 0.21094,0 0.63281,-0.63281 0.21094,0 -0.63281,1.05468 0.21094,0 0.21093,-0.21093 0,0.42187 -0.63281,0.84375 -0.21094,0 -0.63281,-0.42187 0,0.42187 -0.21094,0.21094 0.21094,0.21094 0.63281,0 -0.63281,1.89843 c -4e-5,1.40627 0.77339,2.10939 2.32031,2.10938 0.98433,-0.42186 1.47652,-1.05467 1.47657,-1.89844 l -0.84375,-2.10937 0,-0.42188 0.63281,0 0.21094,0.21094 0.21093,0 0,-0.42188 -1.05468,-0.21093 -0.42188,0.84375 0.63281,2.74218 -0.63281,0.42188 c -0.8438,-0.28124 -1.26567,-0.56249 -1.26562,-0.84375 l 0,-1.26563 1.6875,-3.375 c 0.2812,-0.53904 0.42182,-1.31247 0.42187,-2.32031 l 0,-0.21094 c -5e-5,-0.77341 -0.2813,-1.33591 -0.84375,-1.6875 l 0.42188,0.84375 -0.21094,0 c -0.60942,-0.1406 -1.0313,-0.49216 -1.26563,-1.05468 -0.98442,0.46877 -1.4766,1.17189 -1.47656,2.10937 m 1.89844,-2.10937 0,0.21093 0.42187,0 0,-0.21093 -0.42187,0 m -41.34375,0.21093 0,0.21094 -0.63281,0.63281 0,-0.63281 0.63281,-0.21094 m 3.79687,0.42188 0,0.42187 2.10938,0.63282 c 1.54686,-0.11717 2.3203,-0.32811 2.32031,-0.63282 l 0,-0.21093 -0.21094,0 -1.26562,0.42187 -0.42188,0 -2.53125,-0.63281 m 15.1875,0.21094 0,0.21093 0.42188,0 0.21094,-0.21093 0,-0.21094 -0.63282,0.21094 m 7.17188,-0.21094 0,0.21094 0.42187,1.26562 -0.42187,0 c -0.51566,-0.46873 -1.42972,-0.82029 -2.74219,-1.05469 l 0,0.84375 0.42188,0.63282 c -3e-5,0.28127 -0.28128,0.42189 -0.84375,0.42187 l -0.21094,0.21094 0,0.21094 3.79687,1.05468 0,-0.21093 1.47657,0.42187 0.21093,0 0,-0.21094 c -0.72659,2e-5 -1.42972,-0.35154 -2.10937,-1.05468 l 0,-0.21094 0.21094,0 c 1.24215,0.72658 2.57809,1.14846 4.00781,1.26562 l 0.21094,0 0,-0.21093 -1.26563,-0.42188 0,-0.42187 2.32031,0.42187 0.63282,0 0,-0.21094 c -1.64066,3e-5 -3.39848,-0.98435 -5.27344,-2.95312 l -0.84375,0 m 2.10937,0 0,0.42187 0.42188,0 0,-0.42187 -0.42188,0 m 6.75,-0.21094 0.63282,0 0,0.21094 -0.42188,0.42187 -0.21094,-0.21093 0,-0.42188 m -0.42187,0.21094 0.63281,0.63281 -0.63281,0 0,-0.63281 m -35.64844,0.21094 0.21094,0 0,0.42187 -0.21094,0 0,-0.42187 m 35.4375,0.21093 0.21094,0.63282 -0.84375,0 0.63281,-0.63282 m -35.64844,0.21094 0.21094,0 0,0.42188 c -0.70313,1.14846 -1.19531,2.69533 -1.47656,4.64062 l -0.21094,0 -0.21094,-0.84375 0.63282,-2.53125 -0.42188,0.42188 -0.84375,-0.63282 0,-0.42187 0.63281,0.42187 0.21094,0 0.21094,-0.21093 0.21094,0 0.21093,0.21093 0.84375,-1.47656 m 15.82032,0.21094 0,0.63281 0.21093,0 0,-0.63281 -0.21093,0 m -6.75,0.42187 c -0.44533,1.57034 -1.35939,3.32815 -2.74219,5.27344 l 0,0.21094 0.21094,0 c 1.66405,-2.17967 2.57811,-4.00779 2.74218,-5.48438 l -0.21093,0 m 7.38281,0.63282 0,1.05468 0.21094,0 0,-1.05468 -0.21094,0 m 10.33594,-0.21094 0.21093,0 0.21094,0.84375 -0.42187,0 0,-0.84375 m -6.32813,1.26562 0,1.26563 c -0.4219,2e-5 -0.63284,0.21096 -0.63281,0.63281 -3e-5,1.31252 0.98435,2.64846 2.95312,4.00781 l 0.21094,0 -1.26562,-1.47656 0.21093,0 c 0.98435,0.46877 1.47654,0.96095 1.47657,1.47656 l 1.89843,-0.21093 1.05469,1.05468 0,0.21094 -0.42187,0.42188 -2.10938,-0.21094 c -0.63284,0.28126 -0.9844,0.56251 -1.05469,0.84375 l 4.64063,0.42187 c 3.5859,2e-5 7.45308,-1.33592 11.60156,-4.00781 l 0.84375,-2.10937 c -2.90629,2.53126 -5.85941,3.79689 -8.85937,3.79687 l -1.47657,0 c -3.21096,2e-5 -5.81252,-1.33592 -7.80468,-4.00781 l 0,-0.84375 0.63281,-0.63281 0.63281,0 0.63281,0.42187 0,-0.84375 -1.05468,-1.05469 -0.63282,0 c -0.75002,3e-5 -1.24221,0.28128 -1.47656,0.84375 m -19.19531,-0.63281 0,0.42188 0.21094,0 0,-0.42188 -0.21094,0 m 14.13281,0.21094 -0.21094,1.05469 1.05469,1.05468 0.21094,0 c -0.56252,-0.72654 -0.84377,-1.42966 -0.84375,-2.10937 l -0.21094,0 m -14.97656,0 0,0.21094 c -0.18751,0.58595 -0.53907,1.00783 -1.05469,1.26562 l 0,-0.21094 1.05469,-1.26562 m 9.07031,0.42187 0,0.42188 0.42188,0 c 2.50779,2e-5 5.67185,1.47658 9.49218,4.42969 l 0.21094,0 c -3.65627,-3.23436 -7.03127,-4.85154 -10.125,-4.85157 m -4.42969,2.74219 0,0.42188 c -1e-5,0.77345 0.35156,1.33595 1.05469,1.6875 l 2.10938,0 c 0.70311,0.28126 1.05467,0.77345 1.05468,1.47656 l 0,0.21094 c -0.18751,1.40626 -0.82032,2.10938 -1.89843,2.10937 -0.58595,-0.0469 -1.14845,-0.74999 -1.6875,-2.10937 l 0.21093,-1.05469 0,-0.21094 -0.21093,0 -0.21094,1.05469 c 0.42186,1.82814 0.98436,2.7422 1.6875,2.74219 1.54686,-0.23437 2.3203,-1.0078 2.32031,-2.32032 l 0,-0.63281 c -0.0938,-1.40623 -0.51564,-2.10936 -1.26562,-2.10937 l -1.89844,0.42187 c -0.70314,-0.18748 -1.0547,-0.67967 -1.05469,-1.47656 -1e-5,-1.03123 0.84374,-1.87498 2.53125,-2.53125 l 0,-0.21094 -0.42187,0 c -1.54689,0.53908 -2.32033,1.38283 -2.32032,2.53125 m 14.13282,-2.10937 -0.21094,1.05468 c 0.21091,1.5469 0.56247,2.32033 1.05469,2.32032 -0.4219,-0.49217 -0.63284,-1.61717 -0.63282,-3.375 l -0.21093,0 m 15.60937,0.84375 0,0.21093 c -4e-5,0.84377 0.42184,1.26565 1.26563,1.26563 l 0.21093,0 c 1.03121,2e-5 1.59371,-0.21092 1.6875,-0.63281 l -1.89843,0.42187 c -0.56254,-0.14061 -0.84379,-0.49217 -0.84375,-1.05469 l 0.63281,-0.63281 0,-0.21094 -0.42188,0 -0.63281,0.63282 m -24.67969,-0.42188 0,9.49219 c -1e-5,1.35938 -1.47657,2.55469 -4.42968,3.58594 l 0,0.21093 1.26562,0.21094 1.47656,-0.21094 14.97657,0 c -0.42191,-0.51561 -0.63284,-1.0078 -0.63282,-1.47656 l 0.42188,-0.42187 -1.05469,0.21093 -5.0625,0 c -2.25002,-0.4453 -3.37502,-1.5703 -3.375,-3.375 l 0,-7.17187 c -2e-5,-0.37498 -1.19533,-0.72654 -3.58594,-1.05469 m -9.49218,0.84375 0.42187,0 0,-0.42187 -0.42187,0.42187 m 24.04687,1.26563 c 0.28122,1.26564 0.98435,1.89845 2.10938,1.89843 0.56246,2e-5 0.98434,-0.28123 1.26562,-0.84375 l -0.21094,0.21094 -0.63281,0 c -0.7969,2e-5 -1.28909,-0.35154 -1.47656,-1.05469 -3e-5,-1.12498 1.40622,-1.68748 4.21875,-1.6875 l 0,-0.21093 -3.79688,0 c -0.65628,0.35158 -1.14846,0.91408 -1.47656,1.6875 m 5.27344,0.21093 c 0.53903,1.26565 1.5234,1.89846 2.95312,1.89844 l 2.74219,-0.63281 0,-0.21094 -1.05469,0.21094 -0.21093,0 c -1.96879,2e-5 -2.95316,-0.6328 -2.95313,-1.89844 l 0.84375,-0.84375 0.63281,0 0.21094,0.21094 0.21094,0 0,-0.21094 -1.26563,-0.42187 c -0.84378,2e-5 -1.26566,0.56252 -1.26562,1.6875 l -0.84375,0.21093 m -15.82031,-1.26562 0,7.38281 0.21093,0 0.21094,-3.16406 0,-3.79688 -0.42187,-0.42187 m -11.60157,0.42187 0.42188,0 0,0.84375 -0.84375,0 0.42187,-0.84375 m -0.63281,1.05469 0.42188,0.42188 0,0.42187 -0.63282,0.21094 -0.21093,-0.21094 0,-0.42187 0.42187,-0.42188 m 13.28906,0.63281 0,0.63282 0.42188,0.42187 c 0.0469,-0.70311 0.25779,-1.05467 0.63281,-1.05469 l 1.26563,0.42188 0.21093,0 0,-0.21094 -1.6875,-0.63281 -0.42187,0 -0.42188,0.42187 m 19.61719,6.53907 c 0.25777,1e-5 0.60934,-0.70312 1.05469,-2.10938 1.24214,-1.47655 2.43746,-2.60155 3.58594,-3.375 l 0.84375,-1.47656 -0.21094,0 c -3.51567,3.1172 -5.27348,5.43751 -5.27344,6.96094 m -12.44531,-6.53907 0.21094,0 1.47656,0.84375 0,0.63282 -1.6875,-1.05469 0,-0.42188 m -20.67188,0.42188 0,0.42187 c -0.72656,0.96096 -1.28906,2.36721 -1.6875,4.21875 l 0,0.21094 0.21094,0 0.21094,-0.84375 0.21094,0 0,1.26563 -1.05469,0.21093 0,-0.42187 c -1e-5,-2.01561 0.70312,-3.70311 2.10937,-5.0625 m 14.76563,1.89844 1.05469,0.21093 0,0.42188 c -0.86721,1e-5 -1.3594,0.56251 -1.47657,1.6875 0.21092,0.98439 0.70311,1.47657 1.47657,1.47656 l 0,-1.47656 c 0.65622,-1.12499 1.85154,-1.68749 3.58593,-1.6875 -2e-5,-0.21092 0.28123,-0.42186 0.84375,-0.63281 l 0.21094,-0.21094 0,-0.21094 -2.74219,-0.84375 c -1.96877,0.28127 -2.95314,0.70314 -2.95312,1.26563 m -17.92969,-1.05469 0.84375,0.21094 0.63281,-0.21094 0,0.21094 c 0,0.28126 -0.21094,0.42189 -0.63281,0.42187 l 0,0.21094 0.42188,0 0,0.42187 -0.42188,0 0,0.21094 0.42188,0 0,0.42188 -0.42188,0 0,0.21093 c -0.5625,-0.21092 -0.84375,-0.42186 -0.84375,-0.63281 l 0.42188,0 -0.42188,-0.63281 0.42188,0 -0.42188,-0.63281 0,-0.21094 m 20.88281,0 c 0.7031,0.18751 1.05467,0.39845 1.05469,0.63281 l -0.42187,0 -1.26563,-0.21094 -0.63281,0.21094 c -2e-5,-0.23436 0.42185,-0.4453 1.26562,-0.63281 m -17.08593,0.63281 0.21093,0 -1.05468,1.05469 -0.21094,0 1.05469,-1.05469 m 16.875,5.69531 0.21093,0.21094 0.21094,0 c -2e-5,-1.78124 0.56248,-3.04686 1.6875,-3.79687 l 0,0.21093 -0.84375,2.10938 c 0.28123,1e-5 0.42185,0.21095 0.42188,0.63281 l 0.21093,0.21094 1.05469,0 0.63281,-0.63281 0,-0.84375 -0.21093,0 c -3e-5,0.56251 -0.21097,0.84376 -0.63282,0.84375 l -0.21093,0 -0.63282,-0.63282 0,-0.21093 c -2e-5,-0.60937 0.35154,-1.31249 1.05469,-2.10938 l -0.21094,0 -0.42187,0.42188 0,-0.21094 c 0.56247,-0.84374 1.89841,-1.26561 4.00781,-1.26563 l -0.42187,-0.42187 -0.63282,0 c -2.2969,1e-5 -3.9844,1.40626 -5.0625,4.21875 l -0.21093,1.26562 m 7.59375,-5.48437 0.63281,0.21094 0,0.63281 -0.63281,0.63281 -0.21094,0 0.21094,-1.47656 m 0.84375,0 0.42187,0 c -3e-5,0.28126 0.35153,0.42189 1.05469,0.42187 l 0,0.21094 -0.21094,0.63281 -0.63281,0 0,-0.42187 c -0.28128,1e-5 -0.42191,0.21095 -0.42188,0.63281 l -0.21093,0 0,-1.47656 m 2.53125,3.79687 c -4e-5,0.70314 0.42184,1.0547 1.26562,1.05469 l 0.63281,0 c -0.70316,-0.56249 -1.05472,-1.05468 -1.05468,-1.47656 -4e-5,-0.58593 1.61715,-1.42968 4.85156,-2.53125 l 0.21094,-0.21094 0,-0.21094 c -3.84379,1.35939 -5.81254,2.27345 -5.90625,2.74219 l 0,0.63281 m 7.59375,-1.05468 -0.21094,-0.21094 -0.21094,0 0,0.21094 0.21094,0.21093 c -1.96879,2.10939 -4.42973,3.16408 -7.38281,3.16407 l -0.84375,0 0,1.89843 6.53906,0 c 0.30465,-0.11718 0.86715,-1.24218 1.6875,-3.375 1.12496,-1.85155 1.68746,-3.11717 1.6875,-3.79687 l -0.21094,0 c -0.21098,1e-5 -0.63285,0.63282 -1.26562,1.89844 m 2.74218,2.53125 -0.21093,-0.21094 -0.42188,0 c -0.56254,0.28126 -0.84379,0.70313 -0.84375,1.26562 l 0.21094,0 c 0.91402,1e-5 1.47652,0.63282 1.6875,1.89844 l 0,0.63281 -0.21094,0.21094 0,0.21094 0.21094,-0.21094 0.21094,0 0.21093,0.21094 0.21094,0 c -4e-5,-0.70312 0.14058,-1.05468 0.42188,-1.05469 l 0.21093,0 0,0.84375 0.21094,0 0,-1.47656 -0.42187,-1.89844 0.21093,0 c 0.42183,0.14064 0.63277,0.56251 0.63282,1.26563 l 0.84375,0 0,-0.21094 -0.21094,-1.05469 c 0.42183,1e-5 0.63276,-0.14061 0.63281,-0.42187 l -0.21094,-1.26563 0.42188,-1.26562 -0.42188,0 c -0.35161,1e-5 -0.56254,0.28126 -0.63281,0.84375 l -0.21094,0 c -0.98442,-0.89062 -1.4766,-1.59374 -1.47656,-2.10938 -0.70317,1e-5 -1.05473,1.26564 -1.05469,3.79688 m -23.20312,-3.79688 0.21094,0 c -3e-5,0.42189 -0.28128,0.63283 -0.84375,0.63281 l -0.21094,0 0,-0.21093 0.84375,-0.42188 m 22.14844,0.21094 c -1.68755,4.12501 -2.74223,6.37501 -3.16407,6.75 l -6.96093,0 -0.42188,0.42187 7.38281,0 c 0.32809,1e-5 1.5234,-2.39061 3.58594,-7.17187 l -0.42187,0 m -37.75782,1.6875 0.84375,2.10937 -0.42187,0.63282 -1.05469,-0.63282 -1.05469,0 c 0.65625,1.54689 1.57031,2.32032 2.74219,2.32032 l 0,-0.21094 -0.21094,-0.21094 0,-0.21094 0.21094,0 0.21094,0.21094 0.21094,0 0.84375,-2.10937 c -0.56251,-0.70312 -0.84376,-1.26562 -0.84375,-1.6875 l 0,-0.84375 0.21093,0.21093 0.21094,0 0,-0.21093 -0.21094,-0.84375 -0.21093,0 -1.47657,1.47656 m 15.39844,1.47656 -0.63281,-0.42187 -0.21094,0 c 0.14061,0.56251 0.56248,0.84376 1.26563,0.84375 0.7031,1e-5 1.40622,-0.84374 2.10937,-2.53125 l 0,-0.21094 c -0.93752,1.54688 -1.64065,2.32032 -2.10937,2.32031 l -0.42188,0 m 6.96094,-2.32031 -0.42188,1.26562 0.84375,2.10938 0,0.42187 c -0.70315,0.0469 -1.05471,0.25782 -1.05468,0.63282 -3e-5,0.375 0.84372,0.9375 2.53125,1.6875 l 0.21093,1.05468 0,0.21094 -0.21093,0.21094 0,0.21094 0.21093,0 c 0.28122,-0.84375 0.56247,-1.26562 0.84375,-1.26563 l 0,0.63281 0.21094,0 0.21094,-1.05468 -0.42188,-1.47657 0.21094,-0.21093 0.21094,0 0.42187,2.10937 0.21094,0 c -3e-5,-0.58593 0.21091,-1.21874 0.63281,-1.89844 l -0.21093,0 -0.21094,0.21094 0,-0.42187 0.42187,0 0,-0.21094 c -3e-5,-0.51562 -0.49222,-1.42968 -1.47656,-2.74219 l 0,-0.42187 -0.21094,0 c -0.28128,1e-5 -0.4219,0.35157 -0.42187,1.05468 l -0.21094,0.21094 -0.21094,0 c -3e-5,-0.56249 -0.63284,-1.33592 -1.89843,-2.32031 l -0.21094,0 m -20.46094,0.63281 0,0.42188 0.21094,0 0,-0.42188 -0.21094,0 m 10.75781,0.21094 0,0.63281 0.21094,0 0,-0.63281 -0.21094,0 m -9.49218,2.95312 0.21093,1.05469 0.21094,0 0,-1.05469 -0.21094,0 c 0.32812,-0.98436 0.60937,-1.47655 0.84375,-1.47656 l 1.89844,0.84375 0.21094,0 0,-1.26562 c -0.23439,-0.56249 -0.72658,-0.84374 -1.47656,-0.84375 -0.79689,1e-5 -1.35939,0.91407 -1.6875,2.74218 m -7.38282,0.42188 c 0,0.77344 0.42188,1.40626 1.26563,1.89844 l 0.42187,0 0,-0.42188 c -0.72656,1e-5 -1.14844,-0.49218 -1.26562,-1.47656 l 0,-0.63281 c 0.65625,-0.84374 1.35937,-1.26562 2.10937,-1.26563 l 1.6875,0.21094 0,-0.42188 -1.6875,0 c -1.6875,0.14064 -2.53125,0.84376 -2.53125,2.10938 m 5.48438,-1.6875 0.21094,0 0.21093,0.84375 c -0.0937,0.70313 -0.51563,1.05469 -1.26562,1.05469 l -0.21094,0 -0.42187,-0.42188 0,-0.21094 1.26562,0 0.21094,-1.26562 m 38.60156,0 0.21094,0 0.42187,0.42187 -0.63281,0 0,-0.42187 m 1.47656,2.10937 0,1.05469 0.21094,0 0,-1.05469 -0.21094,0 m -43.24218,0.21094 0,0.42188 -0.21094,0 0.21094,0.63281 0.21093,0 0.42188,-0.42188 0,-0.63281 -0.63281,0 m 4.00781,0.21094 0,0.21094 0.42187,0 0,-0.21094 -0.42187,0 m -0.84375,0.63281 0.42187,0.42188 0.21094,-0.21094 0,-0.21094 -0.63281,0 m -0.63281,0.21094 0,0.42187 0.21093,0 0,-0.42187 -0.21093,0 m 1.89843,0 c 0,0.42188 -0.35157,0.63282 -1.05468,0.63281 l 0,0.21094 c 1.33593,1.54688 3.02342,2.32031 5.0625,2.32031 l 1.47656,0 0.42187,-0.42187 0,-0.42188 -1.05468,0 c -1.87502,1e-5 -3.4922,-0.77343 -4.85157,-2.32031 m 1.89844,0.21094 0,0.21093 18.77344,0 0,-0.21093 -1.05469,-0.21094 -17.71875,0.21094 m -8.4375,0.84375 0.42188,0.42187 0.42187,0 0,-0.42187 -0.42187,-0.42188 -0.42188,0.42188 m 1.89844,-0.42188 0,0.63281 0.42187,-0.42187 0,-0.21094 -0.42187,0 m 39.44531,0.63281 -1.89844,-0.21093 -0.42187,0 0,0.21093 1.6875,0.42188 c 0.91402,0 1.54683,-0.35156 1.89844,-1.05469 l -1.26563,0.63281 m -17.92969,-0.42187 0,0.21094 c -2e-5,0.46875 0.84373,0.82031 2.53125,1.05468 l 1.26563,0 0.84375,-0.84375 c -0.67972,0.42188 -1.45315,0.63282 -2.32031,0.63282 l -2.32032,-1.05469 M 172,196.86301 l 0,0.84375 0.21094,0 c -2e-5,-0.60937 0.28123,-1.03125 0.84375,-1.26563 l 0.63281,0 c 0.65623,1e-5 1.49998,0.63282 2.53125,1.89844 l 1.05469,0.21094 c 1.12497,-0.53906 1.68747,-1.24218 1.6875,-2.10938 l 0,-0.21093 -0.21094,0 c -0.35159,1.40625 -0.9844,2.10937 -1.89844,2.10937 -0.28127,0 -0.98439,-0.70312 -2.10937,-2.10937 l -1.05469,0 c -1.03127,0 -1.59377,0.21094 -1.6875,0.63281 m 14.76562,0.42187 0,0.21094 0.21094,0 3.16406,-0.84375 c 0.84372,1e-5 1.26559,0.49219 1.26563,1.47656 l -0.21094,0.21094 0.21094,0 0.21094,-0.21094 0.21093,-0.63281 0.21094,0 c -4e-5,-0.84374 -0.49222,-1.26562 -1.47656,-1.26562 l -0.84375,0 -2.95313,1.05468 m -26.57812,-0.42187 0.42187,0 0,-0.42188 -0.42187,0.42188 m 6.75,-0.42188 0,0.21094 1.05469,0.21094 0.42187,0 0,-0.21094 -1.26562,-0.21094 -0.21094,0 m 35.01562,0.21094 0,0.21094 c 1.00777,0 1.78121,0.35157 2.32032,1.05469 l 0,-0.84375 c -0.14068,-0.42187 -0.56255,-0.63281 -1.26563,-0.63282 l -1.05469,0.21094 m -21.72656,0 0,0.21094 c 0.42185,0 0.63279,0.28125 0.63281,0.84375 l -0.21093,0.63281 -0.42188,0 -0.21094,-0.21094 -0.21093,0 0.21093,0.63282 0.63282,0 0.63281,-0.84375 c -0.18753,-0.58594 -0.53909,-1.00781 -1.05469,-1.26563 m 13.71094,0 -0.21094,1.05469 0.84375,0.84375 0.42188,0 0.84375,-0.63281 0.21093,0.21093 0.21094,0 0,-0.42187 -0.21094,-1.05469 -0.21093,0 c -4e-5,0.84376 -0.28129,1.26563 -0.84375,1.26563 -0.56254,0 -0.84379,-0.42187 -0.84375,-1.26563 l -0.21094,0 m -35.22656,0.63281 0,0.21094 0.42187,0 0,-0.63281 -0.42187,0.42187 m 42.60937,-0.42187 0,0.21094 0.42188,0 0,-0.21094 -0.42188,0 m -40.71094,1.05469 0,0.21093 0.42188,0.42188 c -1e-5,-0.70312 0.35156,-1.05468 1.05469,-1.05469 l 2.32031,0.84375 0.21094,0 0,-0.21094 -2.32032,-0.84375 -1.05468,0 -0.63282,0.63282 m 12.86719,-0.42188 0,0.21094 0.42188,0 0,-0.21094 -0.42188,0 m -16.03125,0.21094 0,0.21094 0.42188,0.42187 0.42187,0 0,-0.63281 -0.84375,0 m 1.89844,0.21094 -0.21094,0.21093 0,0.42188 0.63281,0 0,-0.21094 -0.42187,-0.42187 m 15.1875,0.63281 0,0.21094 0.42187,0 0,-0.21094 -0.42187,0"
         style="font-size:72px;font-variant:normal;font-stretch:normal;font-family:Goudy Initials;-inkscape-font-specification:Goudy Initials"
         id="path4334" />
    </g>
  </g>
</svg>
