<?xml version="1.0" encoding="UTF-8" standalone="no"?>
<!-- Created with Inkscape (http://www.inkscape.org/) -->

<svg
   xmlns:dc="http://purl.org/dc/elements/1.1/"
   xmlns:cc="http://creativecommons.org/ns#"
   xmlns:rdf="http://www.w3.org/1999/02/22-rdf-syntax-ns#"
   xmlns:svg="http://www.w3.org/2000/svg"
   xmlns="http://www.w3.org/2000/svg"
   xmlns:sodipodi="http://sodipodi.sourceforge.net/DTD/sodipodi-0.dtd"
   xmlns:inkscape="http://www.inkscape.org/namespaces/inkscape"
   width="56.734375"
   height="56.734375"
   id="svg2"
   version="1.1"
   inkscape:version="0.48.5 r10040"
   sodipodi:docname="l.svg">
  <defs
     id="defs4" />
  <sodipodi:namedview
     id="base"
     pagecolor="#ffffff"
     bordercolor="#666666"
     borderopacity="1.0"
     inkscape:pageopacity="0"
     inkscape:pageshadow="2"
     inkscape:zoom="3.959798"
     inkscape:cx="43.996764"
     inkscape:cy="5.617196"
     inkscape:document-units="px"
     inkscape:current-layer="layer1"
     showgrid="false"
     fit-margin-top="2"
     fit-margin-left="2"
     fit-margin-right="2"
     fit-margin-bottom="2"
     inkscape:window-width="1366"
     inkscape:window-height="733"
     inkscape:window-x="0"
     inkscape:window-y="0"
     inkscape:window-maximized="1"
     showborder="true"
     borderlayer="false" />
  <metadata
     id="metadata7">
    <rdf:RDF>
      <cc:Work
         rdf:about="">
        <dc:format>image/svg+xml</dc:format>
        <dc:type
           rdf:resource="http://purl.org/dc/dcmitype/StillImage" />
        <dc:title></dc:title>
      </cc:Work>
    </rdf:RDF>
  </metadata>
  <g
     inkscape:label="Layer 1"
     inkscape:groupmode="layer"
     id="layer1"
     transform="translate(-152.28125,-146.34738)">
    <g
       style="font-size:40px;font-style:normal;font-weight:normal;line-height:125%;letter-spacing:0px;word-spacing:0px;fill:#ffffff;fill-opacity:1;stroke:none;font-family:Sans"
       id="flowRoot2985">
      <path
         d="m 154.28125,148.34738 52.73437,0 0,52.73438 -52.73437,0 0,-52.73438 m 1.05469,1.05469 0,50.625 50.625,0 0,-50.625 -50.625,0 m 0.42187,0.63281 49.57031,0 0,49.57032 -49.57031,0 0,-49.57032 m 4.00781,3.375 0.63282,0 c 2.43749,-1.54682 4.05467,-2.32026 4.85156,-2.32031 l 2.10937,0 c 1.87499,5e-5 4.1953,0.70318 6.96094,2.10938 l 0.42188,0 c -1.94533,-1.82808 -4.61721,-2.74214 -8.01563,-2.74219 -4.64063,0.89067 -6.96094,1.87505 -6.96094,2.95312 m 14.34375,-2.95312 -0.42187,0.42187 c 0.21092,0.56255 0.42186,0.8438 0.63281,0.84375 l -0.21094,-0.21093 0,-0.42188 c -1e-5,-0.2812 0.28123,-0.42182 0.84375,-0.42187 l 0,-0.21094 -0.84375,0 m 2.74219,0.84375 0,1.47656 -1.47656,-0.21094 -0.21094,0.21094 0,0.21094 c -2e-5,0.98442 0.49217,1.47661 1.47656,1.47656 -2e-5,-0.21089 0.28123,-0.42183 0.84375,-0.63281 l 0.21094,-0.21094 0,-0.21094 -0.42187,-1.26562 c 0.0703,-0.2812 0.42185,-0.56245 1.05468,-0.84375 0.30467,0.0235 0.93748,0.6563 1.89844,1.89844 l 0.63281,0 0.63282,-0.63282 0,-0.21093 -1.26563,0.42187 c -0.72659,-1.4062 -1.28908,-2.10932 -1.6875,-2.10937 l -0.21094,-0.21094 -0.21093,0 c -0.84378,0.2813 -1.26565,0.56255 -1.26563,0.84375 m -20.46094,0 0,0.21094 c 0,0.79692 0.35157,1.28911 1.05469,1.47656 l 2.53125,-0.84375 0,-0.21094 -0.21094,0 -1.6875,0.42188 -1.05468,-0.21094 0,-0.84375 0.42187,-0.42188 1.6875,0.42188 0.21094,0 0,-0.21094 -1.89844,-0.42187 -0.42187,0 -0.63282,0.63281 m 34.80469,0.42187 0.21094,0 c 1.61715,-0.56245 3.0234,-0.8437 4.21875,-0.84375 1.78121,5e-5 3.74995,0.91412 5.90625,2.74219 l 0.42187,0 c -1.6641,-1.9687 -3.70316,-2.95307 -6.11718,-2.95312 l -1.26563,0 c -2.08597,0.14067 -3.21097,0.49223 -3.375,1.05468 m 10.33594,-0.21093 c -5e-5,0.72661 0.42183,1.35942 1.26562,1.89843 l 0,-0.21093 -0.84375,-1.26563 0.21094,-0.63281 0.84375,0 c 0.2812,5e-5 0.42183,0.49224 0.42188,1.47656 l 0.21093,0 0,-1.6875 -1.26562,-0.42187 -0.21094,0 c -0.35161,5e-5 -0.56254,0.2813 -0.63281,0.84375 m -18.98438,0.42187 0,0.42188 c -2e-5,1.40629 0.91404,2.10942 2.74219,2.10937 l -0.42187,0.63281 0.63281,0 c 0.74997,5e-5 1.5234,-0.63276 2.32031,-1.89843 l 0.63281,0 -0.21093,-0.21094 0,-0.42188 0.21093,0 c 0.7031,0.23443 1.05466,0.6563 1.05469,1.26563 -0.42191,5e-5 -0.63284,-0.21089 -0.63281,-0.63281 l -0.21094,0 c -3e-5,0.63286 -0.42191,1.05473 -1.26562,1.26562 l 0,0.21094 c 0.23434,0.70317 0.5859,1.05473 1.05468,1.05469 l 0.63282,-0.21094 -1.05469,0.84375 -0.63281,-0.42188 c 0.2109,0.56255 0.42184,0.8438 0.63281,0.84375 l 0.63281,-0.42187 0.21094,0 c 0.0937,0.70317 0.30465,1.05473 0.63281,1.05469 l 0.21094,0 0.42187,-0.42188 0,-0.21094 c -0.53909,5e-5 -0.89065,-0.49214 -1.05468,-1.47656 l -0.21094,0 c 0.32809,-0.8437 0.60934,-1.26558 0.84375,-1.26562 l 0.21094,0.21093 0.21093,0 0.42188,-0.84375 c -0.28129,-0.8437 -0.56254,-1.26557 -0.84375,-1.26562 l -0.21094,0 0.21094,0.21094 0,1.05468 -0.21094,0 -0.63281,-1.05468 0.42187,-0.42188 -0.42187,0 c -0.51566,5e-5 -1.64066,0.63286 -3.375,1.89844 l -1.05469,0 c -0.9844,-0.2812 -1.47659,-0.8437 -1.47656,-1.6875 l 0.63281,-0.42188 0.21094,0 c 0.58591,0.56255 1.14841,0.8438 1.6875,0.84375 l 0.63281,0 0.21094,-0.84375 -0.21094,0.21094 -0.21094,0 -2.53125,-0.84375 -0.84375,0.84375 m 7.17188,-0.63281 1.05469,1.05469 0,0.21093 0.21093,0 0,-0.21093 c -0.0938,-0.37495 -0.44534,-0.72652 -1.05468,-1.05469 l -0.21094,0 m -22.78125,0.21094 0,0.21093 1.47656,0 0,-0.21093 -1.47656,0 m 25.3125,1.89843 c 0.0937,0.70318 0.51559,1.05474 1.26562,1.05469 l 0.21094,0 c 0.70309,5e-5 1.61715,-0.63276 2.74219,-1.89844 l -0.21094,0 c -0.89066,0.98443 -1.6641,1.47661 -2.32031,1.47657 l -0.42188,-0.63282 c -3e-5,-1.12495 0.91403,-1.68745 2.74219,-1.6875 l 0,-0.21093 -1.6875,0 c -0.89066,5e-5 -1.6641,0.63286 -2.32031,1.89843 m -28.6875,-0.63281 0.21094,0.63281 1.26562,0 1.47656,-0.42187 0,-0.21094 -0.21093,0 -1.26563,0.42188 -0.42187,0 0,-0.63282 c -1e-5,-0.35151 0.28124,-0.56245 0.84375,-0.63281 l 0,-0.21094 -0.21094,0 c -0.72657,5e-5 -1.28907,0.35162 -1.6875,1.05469 m 35.22656,-0.42187 0,0.21093 0.84375,0.42188 0,-0.21094 -0.84375,-0.42187 m -31.21875,2.10937 0.42188,0 c -2e-5,-0.8437 0.77342,-1.4062 2.32031,-1.6875 l 1.26562,0.21094 0.42188,0 0,-0.21094 -1.6875,-0.21094 c -1.82814,0.23443 -2.7422,0.86724 -2.74219,1.89844 m 32.27344,-1.47656 0,0.21094 0.63281,0.42187 0,-0.21094 -0.63281,-0.42187 m -25.52344,0.84375 0.42188,0.42187 0.21093,0 -0.42187,-0.42187 -0.21094,0 m 4.42969,0 0,0.21094 c 0.8906,4e-5 1.38279,0.21098 1.47656,0.63281 l -0.21094,0.21094 0,0.21093 c 0.3281,0.8438 0.60935,1.26567 0.84375,1.26563 l 0.21094,-0.21094 -0.21094,-0.21094 0,-1.05468 1.6875,0 0,-0.42188 -1.26562,-0.42187 -0.84375,0.21093 -1.05469,-0.42187 -0.63281,0 m -21.09375,0.21094 0,0.42187 c 2.67187,0.58599 4.00781,1.35942 4.00781,2.32031 0.30468,5e-5 0.58593,0.56255 0.84375,1.6875 l -0.21094,15.39844 0,1.6875 0.21094,0 c 0.98437,-0.18747 1.47656,-0.67966 1.47656,-1.47656 l 0.21094,-0.21094 -0.21094,-0.21094 0,-10.54687 0.84375,0 1.26563,2.74219 0.21094,0 c -1e-5,-0.56247 0.56248,-1.96872 1.6875,-4.21875 l -4.00782,-7.59375 -0.21093,0.21093 -2.53125,0 -3.58594,-0.21093 m 20.46094,0 0,0.21093 0.42187,0 0,-0.21093 -0.42187,0 m -11.60157,0.21093 0,0.63282 0.42188,0 0,-0.21094 -0.42188,-0.42188 m 2.10938,0 0,0.63282 0.63281,-0.21094 -0.42187,-0.42188 -0.21094,0 m 3.375,1.47657 1.47656,-0.21094 c 1.33592,0.77348 2.24998,1.68754 2.74219,2.74219 l 1.05469,0.21093 c 0.7031,-0.18745 1.05466,-0.39839 1.05468,-0.63281 l -0.21093,0 -0.63282,0.21094 0,-0.21094 -0.63281,-0.63281 0.42188,0 0,-0.21094 c -0.65627,5e-5 -1.14846,-0.49214 -1.47657,-1.47656 -0.56252,4e-5 -0.84377,-0.2812 -0.84375,-0.84375 -0.98439,5e-5 -1.47658,-0.14058 -1.47656,-0.42188 -0.98439,0.11724 -1.47658,0.60943 -1.47656,1.47657 m 4.64062,0.21093 1.26563,-1.6875 c -0.84377,0.2813 -1.26565,0.8438 -1.26563,1.6875 m 18.77344,-1.26562 c -4.35941,8.57816 -6.82034,13.64066 -7.38281,15.1875 l 0.21094,0 c 1.68746,3e-5 2.53121,-0.56247 2.53125,-1.6875 l 2.95312,-5.69531 0.21094,-0.21094 0.21094,0 0.21093,0.21094 0,2.32031 c 2.39059,-0.23434 3.5859,-0.65621 3.58594,-1.26563 l -0.21094,-3.79687 c 0.44527,-3.37496 2.06246,-5.06245 4.85157,-5.0625 l 0,-0.21094 -0.84375,-0.21094 c -4.2188,0.0938 -6.32817,0.23443 -6.32813,0.42188 m -30.58594,-0.21094 c 0.21093,0.56255 0.42187,0.8438 0.63282,0.84375 l -0.63282,-0.84375 m 4.42969,1.89844 0,0.42187 0.42188,1.47657 -0.21094,0 -0.84375,0.21093 0.63281,1.05469 0.63281,-0.21094 c -1e-5,0.2813 0.21093,0.42192 0.63282,0.42188 l 0.21093,0.21094 0,0.42187 -0.21093,0.21094 0,0.21094 0.84375,0.63281 -1.05469,0.21094 0.84375,2.53125 0,0.42187 c -0.37502,1.54691 -0.93752,2.32035 -1.6875,2.32031 l 0.21094,0.21094 0,0.42188 -0.21094,0 -0.42188,-0.42188 0.63282,-1.89844 0,-0.42187 -0.42188,0 c -1e-5,-1.12496 -0.35157,-1.82809 -1.05469,-2.10938 l -0.21093,0.21094 0.21093,0.21094 0,1.26562 -0.21093,0 -0.21094,-0.21093 -0.21094,0 0,1.26562 c -0.42189,4e-5 -0.63282,0.28129 -0.63281,0.84375 -0.70314,0.84379 -1.19532,1.26566 -1.47656,1.26563 l 0,2.74218 1.26562,0 c 1.52343,-0.46871 2.92967,-1.59371 4.21875,-3.375 0.56249,-1.10152 0.84373,-2.01558 0.84375,-2.74218 l 0,-2.74219 1.05469,0 c -0.60939,4.50003 -1.38283,6.75003 -2.32031,6.75 l -0.21094,0.21094 0,0.21093 0.21094,0 c 1.40623,-0.60934 2.67185,-1.94527 3.79687,-4.00781 0.23436,-0.63277 0.65623,-1.12496 1.26563,-1.47656 l 0.21093,0.21094 0,0.21093 -2.32031,3.375 2.32031,-2.32031 0,0.63281 -0.84375,1.26563 0.21094,0 c 0.70311,-0.91403 1.05467,-1.61715 1.05469,-2.10938 l -0.21094,-0.21093 -0.21094,0 0.42188,-1.26563 -0.21094,0.21094 -0.21094,0 -0.42187,-0.42188 0.21094,-0.21093 0.42187,0 0.21094,0.21093 0.21094,0 0,-0.63281 0.42187,0.42188 -0.42187,1.26562 0.21093,0 c 0.56248,-0.53902 0.84373,-1.45308 0.84375,-2.74219 l 0,-0.21093 -0.21093,0 -1.6875,0.42187 0,-0.63281 c -0.28127,0.0703 -0.77346,1.12504 -1.47657,3.16406 l -0.21093,-0.21094 -0.21094,-0.63281 -0.21094,0 0.84375,-2.53125 c -0.3047,4e-5 -0.51564,-0.63277 -0.63281,-1.89844 l 0.21094,-0.21093 0.21093,0 -0.42187,-1.05469 -0.42188,0 0,0.63281 -0.63281,0 c -2e-5,-0.44527 -0.56252,-1.14839 -1.6875,-2.10937 l -0.21094,-1.26563 -0.42187,0 c -0.42189,5e-5 -0.77345,0.63286 -1.05469,1.89844 m 8.4375,-0.84375 1.05469,1.05469 -0.21094,0.21093 0,0.21094 0.63281,-0.21094 0,-0.63281 c -2e-5,-0.72652 -0.21096,-1.14839 -0.63281,-1.26562 -0.56252,0.21098 -0.84377,0.42192 -0.84375,0.63281 m 20.67188,3.79687 0,3.79688 0.21093,0 c -4e-5,-4.78121 0.84371,-7.17183 2.53125,-7.17188 -4e-5,-0.18745 0.56246,-0.39839 1.6875,-0.63281 l 0,-0.42187 c -2.95317,0.79692 -4.42973,2.27348 -4.42968,4.42968 m -40.5,-4.21875 0,0.21094 1.89843,0.42188 0.21094,0 0,-0.21094 -1.6875,-0.42188 -0.42187,0 m 35.01562,1.05469 -1.6875,-0.63281 -0.42187,0 0,0.42187 2.10937,0.42188 -0.84375,2.32031 0.42188,0.42188 c 0.37496,-0.35152 0.65621,-1.3359 0.84375,-2.95313 l 0.84375,-0.42187 0,-0.42188 -0.21094,0 c -0.63285,0.2813 -0.98441,0.56255 -1.05469,0.84375 m -27.42187,-0.63281 0,0.21094 c 0.21092,0.56254 0.42186,0.84379 0.63281,0.84375 l -0.42188,-1.05469 -0.21093,0 m 2.10937,0 0,0.84375 0.21094,0 0.42187,-0.42188 0,-0.42187 -0.63281,0 m 13.92188,0.42187 0.63281,0 0,-0.42187 -0.21094,0 -0.42187,0.42187 m 4.42968,1.6875 0,2.95313 -0.21093,1.05469 0.63281,0 c 0.21091,4e-5 0.42184,-0.28121 0.63281,-0.84375 l -0.42187,-2.95313 0.63281,0 0,0.84375 c -3e-5,0.75004 0.42184,1.45317 1.26562,2.10938 l 0.84375,-0.63282 c -0.35159,5e-5 -0.56253,-0.2812 -0.63281,-0.84375 l -0.21094,0 0,0.84375 c -0.32815,5e-5 -0.53909,-0.49214 -0.63281,-1.47656 l 0.63281,0.42188 0,-1.6875 -0.63281,0 0.21094,1.05468 -0.21094,0.21094 -0.21094,0 0,-1.26562 -0.21093,0 -1.05469,0.21093 0,-0.21093 0.84375,-0.63282 -0.42188,-1.26562 c -0.39846,4e-5 -0.67971,0.70317 -0.84375,2.10937 m -28.26562,-1.89843 c -0.84375,1.59379 -1.26563,3.42191 -1.26563,5.48437 l 0.21094,0 -0.21094,0.63281 c 0,1.00786 0.49219,2.90629 1.47657,5.69532 -0.16407,1.07815 -0.44532,1.85159 -0.84375,2.32031 l 1.05468,0 c 0.70313,-0.39841 1.05469,-0.96091 1.05469,-1.6875 l -0.63281,-1.6875 0.21094,-0.21094 0.21093,0 0.63282,0.21094 0,-0.42188 c -0.42188,-0.42184 -0.63282,-0.91402 -0.63282,-1.47656 l -0.21093,0 0.21093,-0.63281 0.21094,0.21094 0.21094,0 0,-0.21094 c -1.40625,-0.70309 -2.10938,-1.47652 -2.10938,-2.32031 l 0.21094,-0.21094 0.42188,0 1.26562,1.6875 1.26563,0.42187 0,-0.21093 -0.21094,-0.21094 0,-0.21094 c 1.12499,4e-5 1.68749,-0.28121 1.6875,-0.84375 l -0.21094,-0.84375 -0.84375,0.63281 -1.05469,0 c -0.5625,4e-5 -1.125,-0.91402 -1.6875,-2.74218 l 0,-0.84375 0.42188,-2.10938 -0.84375,-0.42187 m 45.14062,0.21093 c 0.42183,0.98442 0.70308,2.25005 0.84375,3.79688 l -0.63281,3.375 c 0.42183,-0.0234 0.77339,-1.21871 1.05469,-3.58594 l -0.84375,-3.79687 -0.21094,0.21093 -0.21094,0 m -19.19531,0.21094 0.42188,0.42188 0.21093,0 0,-0.42188 -0.63281,0 m -6.11719,0.84375 0.21094,0 0.63281,-0.63281 -0.21093,0 -0.63282,0.63281 m 5.0625,-0.63281 0,0.84375 0.42188,0 0.21094,-0.63281 -0.21094,-0.21094 -0.42188,0 m 2.32032,0.21094 0,0.42187 0.21093,0 0,-0.42187 -0.21093,0 m -18.77344,0.21093 c 1.66405,3.63286 2.92967,5.88286 3.79687,6.75 l -3.79687,-6.75 m 24.89062,0 0,0.63282 0.42188,-0.42188 0,-0.21094 -0.42188,0 m 0.84375,0 0,0.63282 0.21094,0 0,-0.63282 -0.21094,0 m -13.07812,0.63282 -0.21094,0.21093 0,0.21094 0.21094,0 0.21094,-0.21094 0,-0.21093 -0.21094,0 m 22.35937,0.42187 0,0.21094 c 0.98433,4e-5 1.47652,0.49223 1.47657,1.47656 l 0.21093,0 0,-0.21094 c -4e-5,-0.86714 -0.35161,-1.49995 -1.05468,-1.89843 l -0.21094,0 -0.42188,0.42187 m -29.95312,-0.42187 0,0.42187 0.21094,0.21094 -0.42188,0.42187 -0.21094,0 -0.21093,-0.21093 0,-0.63282 0.63281,-0.21093 m 10.33594,0.63281 0,0.42187 0.42187,0 0.42188,-0.42187 0,-0.42188 -0.42188,0 -0.42187,0.42188 m 18.14062,-0.42188 0,0.63282 0.42188,2.10937 c -0.11724,2.46098 -1.66411,4.14848 -4.64063,5.0625 l -1.6875,0 0,0.42188 0.21094,0 c 3.11714,-0.28122 4.94527,-1.19528 5.48437,-2.74219 l 0.21094,0.21094 0.21094,0 -0.21094,-0.21094 0,-0.21094 0.84375,-3.16406 -0.63281,-2.10938 -0.21094,0 m -40.92187,0.21094 0,0.42188 0.21093,0 0,-0.42188 -0.21093,0 m 18.77343,1.47656 0.42188,0 c 0.98435,5e-5 1.47654,-0.49214 1.47656,-1.47656 l -1.89844,1.47656 m 12.44532,-0.84375 0,0.42188 0.63281,0 0.21094,-0.84375 -0.42188,0 -0.42187,0.42187 m 1.26562,-0.42187 0,0.84375 0.42188,0 0,-0.84375 -0.42188,0 m -30.16406,0.21094 c -1e-5,0.70316 -0.35157,1.05473 -1.05469,1.05468 -0.5625,-0.14058 -0.84375,-0.42183 -0.84375,-0.84375 l -0.21094,0 0,0.42188 c 0.1875,0.70317 0.67969,1.05473 1.47657,1.05469 l 0.42187,0 0.63281,-0.63282 -0.21093,-1.05468 -0.21094,0 m 10.125,0.21093 0.63281,0 0,0.84375 -0.21094,0 -0.42187,-0.42187 0,-0.42188 m 12.23437,0.21094 -0.42187,2.32031 1.05469,2.74219 -0.63282,0 c -2e-5,-1.28902 -0.91409,-2.41402 -2.74218,-3.375 l 0,0.21094 2.10937,3.79687 0.63281,0.42188 0.21094,0 c -3e-5,-0.28121 -0.21096,-0.42184 -0.63281,-0.42188 l -0.21094,-0.21093 0,-0.21094 0.21094,0 0.84375,0.21094 0.63281,-0.63282 0,0.21094 -0.63281,1.05469 0.42187,0 c 0.42185,-0.14059 0.63279,-0.56246 0.63282,-1.26563 l 0,-0.21093 -1.26563,-4.00782 0,-0.63281 -0.21094,0 m -9.07031,0.21094 0,1.26562 0.21094,0 0,-1.26562 -0.21094,0 m -17.08594,0 0.63282,1.6875 0,0.63281 -0.63282,0.21094 -0.42187,-1.47656 0.42187,-0.42188 -0.42187,-0.42187 0.21094,-0.21094 0.21093,0 m 24.25782,0.21094 0,0.84375 0.84375,0 0,-0.42188 -0.42188,-0.42187 -0.42187,0 m 9.49218,0.21093 0,0.42188 0.63282,0 0,-0.63281 -0.63282,0.21093 m -1.26562,0 0.42187,0.42188 0.42188,-0.42188 -0.84375,0 m -17.71875,0 0.42187,0 0,0.42188 -0.84375,0 L 172,159.31613 m 29.10937,0.21094 -0.42187,1.47656 0,0.42188 0.21094,0 c -5e-5,-0.89059 0.21089,-1.38277 0.63281,-1.47656 l 0.63281,0.42187 0,-0.42187 -0.42187,-0.42188 -0.63282,0 m -22.78125,0.63281 c 0.56248,0.84379 0.84373,2.03911 0.84375,3.58594 l 0,0.21094 c -2e-5,3.37503 -1.12502,6.32816 -3.375,8.85937 l 0,0.63282 c 2.67186,-2.78904 4.00779,-6.02341 4.00782,-9.70313 l -0.63282,-4.00781 -0.42187,0 -0.42188,0.42187 m 24.46875,-0.21093 0,0.42187 0.21094,0 0,-0.42187 -0.21094,0 m -31.00781,0.42187 0.84375,0 0,0.63281 -0.42187,0 -0.42188,-0.42187 0,-0.21094 m 15.82031,0.63281 0,0.42188 c 0.44528,1.24223 1.21872,2.2266 2.32032,2.95312 l 0.42187,-0.63281 c -0.86722,4e-5 -1.71097,-0.84371 -2.53125,-2.53125 l -0.21094,-0.21094 m 2.53125,0 0.42188,0.63282 0,0.21093 -0.42188,0.42188 c -0.84378,-0.18746 -1.26565,-0.53902 -1.26562,-1.05469 l -0.21094,0 0,0.21094 c -3e-5,0.42191 0.49216,0.9141 1.47656,1.47656 0.56247,4e-5 0.84372,-0.35152 0.84375,-1.05469 l 0.21094,0 -0.21094,-0.84375 -0.84375,0 m 11.60157,0.84375 c -5e-5,0.51567 -0.49224,1.42973 -1.47657,2.74219 l 0,0.63281 c -4e-5,0.98441 0.42183,1.4766 1.26563,1.47657 0.35151,3e-5 1.26558,-0.84372 2.74219,-2.53125 l -0.42188,-0.42188 c -0.8438,4e-5 -1.26567,0.49223 -1.26562,1.47656 l -0.63282,0.42188 -0.21093,-0.21094 -0.21094,0 0,0.21094 0.21094,0 -0.63282,0.84375 -0.21093,-0.21094 0,-0.21094 1.47656,-2.95312 0,-0.63281 c -0.2813,4e-5 -0.42192,-0.2109 -0.42188,-0.63282 l -0.21093,0 m -16.24219,2.10938 0,0.42187 0.63281,-0.42187 0.21094,0 -0.21094,1.05469 0,0.21093 0.42188,0 0.42187,-0.42187 0,-1.47656 -0.42187,-0.42188 -1.05469,1.05469 m 2.10937,-0.84375 1.05469,2.53125 c -3e-5,0.84378 -0.56253,1.33597 -1.6875,1.47656 l -0.84375,-0.21094 0,0.42188 c 0.1406,0.42191 0.56247,0.63284 1.26563,0.63281 0.98434,-0.32809 1.47653,-0.9609 1.47656,-1.89844 l 0,-0.63281 c -3e-5,-0.74996 -0.42191,-1.5234 -1.26563,-2.32031 m 5.90625,0.42187 c -3e-5,0.42192 -0.9141,2.39066 -2.74218,5.90625 l 0.21093,0 1.89844,-3.79687 1.05469,-1.47656 -0.21094,-0.63282 -0.21094,0 m -34.80468,0.21094 0,0.42188 -0.42188,0.42187 -0.21094,0 -0.21093,-0.63281 0.21093,-0.21094 0.63282,0 m 5.90625,0.42188 0,5.27343 0.21093,0 0,-5.27343 -0.21093,0 m -3.79688,0.21093 0,0.42188 0.21094,0 0,-0.42188 -0.21094,0 m 7.59375,-0.21093 0.63281,0.63281 -0.63281,0.63281 -0.42187,0 0,-0.63281 0.63281,0 -0.21094,-0.21094 0,-0.42187 m 4.42969,0 0.63281,0 0,0.63281 -0.42187,0 0.21093,0.21094 0,0.42187 -0.42187,0 -0.42188,-0.42187 0.42188,-0.84375 m 7.59375,0.42187 0.21094,0.21094 0,1.89844 1.05468,-0.21094 0,-1.05469 -0.42187,0 c -3e-5,-0.35152 0.28122,-0.56246 0.84375,-0.63281 l 0,-0.21094 -1.6875,0 m -3.375,0.21094 -0.21094,0.63281 0.42188,0 0,-0.63281 -0.21094,0 m 21.30469,0.42187 0.21093,4.21875 0,1.89844 0.21094,0 0,-0.42187 0.21094,0 -0.21094,-1.05469 0,-4.85156 -0.21094,0.21093 -0.21093,0 m -37.96875,0 0,0.21094 0.21093,0.21094 0.21094,0 0,-0.21094 -0.21094,-0.21094 -0.21093,0 m 22.14843,1.47657 c 0.0234,0.30472 0.44529,0.72659 1.26563,1.26562 l 0.21094,0 1.26562,-1.26562 0,-0.21094 -0.21094,-1.05469 -0.63281,0 -0.21094,1.05469 -0.21093,0 c -3e-5,-0.56247 -0.14066,-0.84372 -0.42188,-0.84375 l -0.21094,0.21094 0,-0.42188 -0.21093,0 c -0.42191,0.14066 -0.63284,0.56254 -0.63282,1.26563 m -4.85156,-0.63282 0.21094,0.21094 0.42187,0 0,-0.63281 -0.21093,0 -0.42188,0.42187 m 17.50781,0.21094 -0.63281,0 0,5.0625 3.58594,0 -0.21094,-2.53125 0,-3.16406 -0.21094,0 -2.53125,0.63281 m -27.21093,-0.42187 0.21093,0.63281 c -0.37501,1.40628 -1.14845,2.10941 -2.32031,2.10937 l 0,-0.42187 c 0.46874,3e-5 1.17186,-0.7734 2.10938,-2.32031 m 8.22656,0.63281 0,0.42187 0.42187,0 0,-0.42187 -0.42187,0 m 23.625,0 0,0.21094 0.63281,0.63281 0.63281,0 -1.26562,-0.84375 m 3.58594,0 c -5e-5,0.84378 -1.12505,2.03909 -3.375,3.58594 l 0,0.42187 c -5e-5,0.28128 0.21089,0.42191 0.63281,0.42188 l 0,0.21093 c -5e-5,0.32816 -1.05473,0.60941 -3.16406,0.84375 l -6.11719,-0.21093 -0.84375,0 0,0.21093 2.10937,0.21094 5.48438,0 2.53125,-0.21094 0.21094,0.21094 0,0.21094 -0.42188,0.42187 c -4e-5,0.46878 0.84371,1.03128 2.53125,1.6875 l 0.21094,0.63282 -0.21094,0.63281 0.21094,0 0.42187,-0.42188 0,-0.63281 c -4e-5,-0.28122 -0.21098,-0.42185 -0.63281,-0.42187 l 0,-0.42188 0.84375,0 0,-0.42187 -0.42187,-0.42188 -1.89844,0 0,-0.63281 0.21094,0 2.10937,-0.21094 0,-0.21094 c -0.42192,3e-5 -0.63286,-0.14059 -0.63281,-0.42187 0.37495,-0.0937 0.72651,-0.44528 1.05469,-1.05469 l 0,-0.21094 -1.47657,-0.21093 -1.26562,0.42187 0,-0.42187 c -5e-5,-0.3281 0.49214,-0.53903 1.47656,-0.63282 l 0.63281,-0.84375 -0.42187,-0.42187 c -5e-5,-0.28122 0.21089,-0.42184 0.63281,-0.42188 l 0.21094,-0.21093 0,-0.21094 -0.21094,-0.84375 -0.42187,0 m -42.1875,0.21094 0,0.21093 0.42187,0 0,-0.21093 -0.42187,0 m 13.28906,0 -0.21094,0.21093 -0.42187,0.42188 -0.21094,-0.21094 -0.21094,0 -2.53125,2.10938 -0.21094,-0.21094 -0.21093,0 -2.53125,0.84375 0,0.21094 0.21093,0 c 1.66405,3e-5 3.84374,-1.05466 6.53907,-3.16407 l 0,-0.21093 -0.21094,0 m 2.74219,0 0,0.63281 0.21093,1.05469 0.21094,0 0,-1.26563 -0.42187,-0.42187 m -17.08594,0.21093 0,0.42188 -0.21094,0 c 0,0.30472 0.5625,0.86722 1.6875,1.6875 l 0.21094,-0.21094 0,-0.84375 -1.6875,-1.05469 m 32.69531,0.42188 0,0.21094 0.42188,0.63281 c -4e-5,0.91409 -0.63285,1.47659 -1.89844,1.6875 l 0,0.21094 0.21094,0 c 1.40621,-0.18747 2.10933,-0.82028 2.10937,-1.89844 -0.21097,-0.56247 -0.42191,-0.84372 -0.63281,-0.84375 l -0.21094,0 m 6.53906,0 0,0.84375 0.42188,-0.42188 -0.42188,-0.42187 m -30.58593,0 0.63281,0.63281 -0.84375,0.42188 -0.21094,0 -0.42187,-0.42188 0.63281,-0.21094 0.21094,0.21094 0,-0.63281 m 5.27343,1.89844 0.21094,0.21093 0.21094,0 c 0.0703,-0.56246 0.28123,-0.84371 0.63281,-0.84375 0.84373,4e-5 1.26561,0.63285 1.26563,1.89844 l -0.21094,0.21094 0,0.42187 0.21094,0 0.42187,-1.47656 0,-0.42187 c -2e-5,-0.98435 -0.49221,-1.47653 -1.47656,-1.47657 -0.77346,4e-5 -1.19533,0.49222 -1.26563,1.47657 m 4.64063,1.05468 0.21094,0 c 0.49216,-0.84371 1.12497,-1.26559 1.89843,-1.26562 l 0.21094,0 0.63281,0.42187 0.21094,0 0,-0.21093 c -0.2344,-0.56247 -0.72659,-0.84372 -1.47656,-0.84375 -1.12503,0.91409 -1.68752,1.5469 -1.6875,1.89843 m -18.77344,-1.6875 0.63281,1.05469 0,0.63281 -0.63281,0.63282 -0.63281,-0.63282 0,0.42188 0.42187,0.42187 0.84375,0 c 0.32812,3e-5 0.53906,-0.35153 0.63282,-1.05468 -0.37501,-0.91403 -0.72657,-1.40622 -1.05469,-1.47657 l -0.21094,0 m 7.59375,-0.21093 0.42188,0 0.42187,0.42187 -0.21094,0.21094 -0.21093,0 -0.42188,-0.63281 m 17.50781,0.21093 0,0.21094 0.21094,0.21094 0,0.21094 c -3e-5,1.1719 -2.25003,2.78909 -6.75,4.85156 -0.9844,0.9844 -1.47658,1.61721 -1.47656,1.89844 l 0.63281,1.47656 2.32031,-0.42188 1.26563,0 c 0.84372,0.51565 1.2656,1.14846 1.26562,1.89844 l 0.42188,-0.42187 0,-1.05469 -0.21094,-0.21094 0,-0.21094 0.42188,-0.42187 0,-0.21094 -1.47657,-0.63281 -1.6875,0.21094 0,-0.42188 1.47657,-0.21094 2.10937,0.21094 -0.21094,-0.21094 0,-0.42187 c 1.12497,3e-5 1.68747,-0.42185 1.6875,-1.26563 l -0.21093,0 -0.84375,-0.42187 -0.42188,0.42187 -0.21094,0 -0.21093,-0.84375 c -0.63284,3e-5 -1.33597,0.35159 -2.10938,1.05469 l -0.21094,-0.21094 0,-0.21093 c 0.65623,-0.7031 1.71091,-1.05466 3.16407,-1.05469 1.26559,-0.98435 1.8984,-1.8281 1.89843,-2.53125 l 0,-0.63281 -0.63281,-0.63282 -0.21094,0 m -8.4375,5.90625 0,0.63282 c 3.46873,-2.55466 5.71873,-4.4531 6.75,-5.69532 l 0.21094,-0.63281 c -2.27346,2.48441 -4.59377,4.38284 -6.96094,5.69531 m -4.21875,-5.0625 c 0.79686,0.98441 2.6953,4.57034 5.69532,10.75782 l 2.10937,3.58593 0,-0.21093 -7.38281,-14.55469 -0.42188,0.42187 m -3.58593,1.26563 10.33593,20.25 0.42188,0 8.01562,-16.66406 -1.6875,0 c -0.84378,1.28908 -2.32034,4.31252 -4.42968,9.07031 l -1.26563,1.47656 c -0.2344,-0.0234 -1.9219,-3.18748 -5.0625,-9.49219 l 0.21094,-0.21093 -0.21094,0 -0.21094,0.21093 -2.74218,-5.90625 -0.42188,0 -2.95312,1.26563 m -4.42969,-0.84375 0,1.6875 0.21094,0 0,-1.6875 -0.21094,0 m 15.82031,0 -0.21094,0.21094 0,0.21093 0.42188,0 0,0.42188 -1.26563,1.26562 0.21094,0 1.47656,-1.47656 0,-0.42187 -0.63281,-0.21094 m 9.07031,0.21094 0,0.21093 1.6875,0 0,-0.21093 -1.6875,0 m -3.58593,1.26562 0,0.42188 8.22656,-1.26563 0,-0.42187 -0.42188,0 -7.80468,1.26562 m 2.53125,-1.05469 0,0.21094 0.84375,0 0,-0.21094 -0.84375,0 m -9.70313,0.21094 -0.21094,0.21094 0,0.21094 0.21094,0 0.21094,-0.21094 0,-0.21094 -0.21094,0 m 24.89063,-0.21094 0.42187,0.42188 0,0.21094 -0.42187,0 0,-0.63282 m -36.70313,0.63282 0,0.21093 0.42188,0 0,-0.21093 -0.42188,0 m -10.125,1.47656 0,0.84375 c 0.42187,0.72659 1.125,1.28909 2.10938,1.6875 l 0.21093,0 0,-0.21094 c -1.40625,-0.60935 -2.10937,-1.4531 -2.10937,-2.53125 l 0.21094,-0.63281 0.42187,0 1.89844,0.42187 0,-0.42187 -1.47656,-0.42188 c -0.84376,3e-5 -1.26563,0.42191 -1.26563,1.26563 m 10.75781,-1.26563 0,0.21094 c 0.53905,3e-5 0.96093,0.56253 1.26563,1.6875 l -0.84375,0.63281 -0.63281,0 -0.21094,-0.84375 -0.21094,0 0,0.63282 c -1e-5,0.70315 0.56249,1.05471 1.6875,1.05468 l 0.63281,0.42188 0.21094,0 0.21094,-1.05469 c -0.51564,-1.82809 -1.14845,-2.74216 -1.89844,-2.74219 l -0.21094,0 m 35.01563,-0.21093 0,0.21093 -0.63281,0.63282 -0.63282,0 0,-0.21094 c -4e-5,-0.28122 0.42183,-0.49216 1.26563,-0.63281 m -43.875,2.95312 0.63281,0 c 0,-0.44528 0.91406,-1.28903 2.74219,-2.53125 l -0.42188,0 c -1.64063,0.77347 -2.625,1.61722 -2.95312,2.53125 m 17.50781,-2.53125 -0.21094,0.21094 0,0.21094 0.21094,0 0.21094,-0.21094 0,-0.21094 -0.21094,0 m 13.71094,0.21094 -0.42188,0.63281 0,0.21094 0.42188,0 0.21094,-0.84375 -0.21094,0 m -3.16406,0.84375 0,0.21094 1.89843,0 0.42188,-0.42188 0,-0.42187 c -1.54691,0.11721 -2.32034,0.32815 -2.32031,0.63281 m -21.09375,-0.42188 0,0.21094 0.21093,1.26563 c -1e-5,1.07815 -1.19532,2.06252 -3.58593,2.95312 l 0,0.42188 c 2.53124,-0.8906 3.79686,-2.0156 3.79687,-3.375 l 0,-1.05469 -0.42187,-0.42188 m 11.8125,0.42188 -0.21094,0.21094 0,0.21093 0.21094,0 0.21093,-0.21093 0,-0.21094 -0.21093,0 m 7.17187,0.21094 0,0.21093 0.21094,0 1.26562,-0.21093 0,-0.21094 -0.84375,0 -0.63281,0.21094 m 10.125,0.21093 0.42188,17.50782 c -4e-5,2.03907 -1.26567,3.23438 -3.79688,3.58593 l -0.21094,0.21094 0,0.21094 1.26563,0.21094 2.10937,-0.21094 0.42188,0 7.59375,0.21094 0.63281,-0.21094 0,-0.21094 c -5e-5,-0.23437 -0.91411,-0.51562 -2.74219,-0.84375 -0.98442,-1.0078 -1.4766,-1.71093 -1.47656,-2.10937 L 199,190.95676 l -0.21094,0 -0.21094,0.21094 -0.21093,-1.26563 -0.21094,-13.28906 0,-3.58594 -2.10938,-0.21094 -1.47656,0 m 4.21875,0 0,10.75782 c -4e-5,5.48438 0.35152,8.22657 1.05469,8.22656 l 0,-0.21094 -0.63281,-1.6875 L 199,172.81613 l -0.21094,0 m -21.9375,0.21094 -0.42187,0.63281 0,0.21094 0.21093,0 0.42188,-0.84375 -0.21094,0 m 8.85938,0.21094 0.21093,0.21094 0,0.21093 3.79688,-0.21093 c 1.17184,2e-5 2.57809,0.21096 4.21875,0.63281 l 0,-0.42188 c -4e-5,-0.42184 -0.77348,-0.63278 -2.32031,-0.63281 l -1.6875,0 -4.21875,0.21094 m -25.52344,0 0.42187,1.05469 0.21094,0 0,-0.42188 -0.21094,-0.63281 -0.42187,0 m 1.05469,0.21094 0.21093,0.84375 0.21094,0 0,-0.84375 -0.42187,0 m 21.09375,0.21093 0,0.21094 c -0.0938,0.28128 -1.07815,0.84378 -2.95313,1.6875 l 0,1.26563 -0.42187,0 -0.42188,-1.26563 c 0.65623,-0.67966 1.92185,-1.31247 3.79688,-1.89844 m 1.05468,0.21094 0.21094,0.21094 0.21094,-0.21094 0.42187,0 0,0.84375 -0.42187,0 0,-0.42187 -0.63281,0.42187 -0.42188,-0.63281 0.21094,-0.21094 0.42187,0 m -23.625,0.42188 -0.21093,0.84375 0,1.05468 0.21093,0 0.21094,-1.6875 0,-0.21093 -0.21094,0 m 28.47657,0 c -4.85159,10.19533 -7.7344,15.89063 -8.64844,17.08593 l 0,0.21094 0.21094,0 c 0.28122,-0.14061 3.23434,-5.90623 8.85937,-17.29687 l -0.42187,0 m 1.47656,1.6875 c 0.67965,-0.84373 1.31246,-1.2656 1.89844,-1.26563 1.12496,0.58597 1.68746,1.21878 1.6875,1.89844 l 0.21093,0 0,-0.42188 c -0.37503,-1.12497 -1.07816,-1.68747 -2.10937,-1.6875 l -0.63281,0 c -0.70316,0.42191 -1.05473,0.91409 -1.05469,1.47657 m 11.8125,-1.26563 c -5e-5,0.56253 -0.21098,0.84378 -0.63281,0.84375 l -0.21094,0 -0.84375,-0.21094 -0.21094,0 0,0.21094 c 0.98433,0.0938 1.47652,0.2344 1.47656,0.42188 0.56246,-0.1406 0.84371,-0.49217 0.84375,-1.05469 l -0.21093,-0.21094 -0.21094,0 m -41.13281,0.42188 0,0.21093 0.63281,0 0.21094,-0.21093 0,-0.21094 -0.84375,0.21094 m -2.95313,0 -0.42187,2.10937 0,1.26563 0.42187,0.42187 0,-1.05469 -0.21094,-0.84375 0.63282,-1.89843 -0.42188,0 m 8.01563,1.47656 c -1e-5,0.82034 0.77342,1.7344 2.32031,2.74219 l 0,-0.21094 -1.6875,-1.89844 0,-0.63281 c 0.14061,-0.42185 0.56249,-0.63279 1.26562,-0.63281 1.12499,0.46877 1.68749,1.38283 1.6875,2.74218 l -0.63281,6.32813 1.26563,0.84375 0,-0.84375 -0.21094,0.21094 -0.42188,0 -0.42187,-0.84375 0.21094,0 0.63281,0.42187 0.21094,0 c -2e-5,-0.28123 -0.21096,-0.42186 -0.63282,-0.42187 l -0.21093,-0.63282 0.42187,0 0,-1.26562 c -1e-5,-0.51561 0.49217,-1.57029 1.47656,-3.16406 l 0,-0.21094 -0.21093,0 c -2e-5,0.4219 -0.14064,0.63283 -0.42188,0.63281 l 0.21094,-1.89844 c 0.28123,3e-5 0.42186,0.28128 0.42187,0.84375 l 0.21094,0 0,-1.05468 -0.42187,-1.47657 -0.42188,0 c -1e-5,0.56253 -0.21095,0.84378 -0.63281,0.84375 -0.46876,-1.12497 -1.38283,-1.68747 -2.74219,-1.6875 -0.42188,3e-5 -0.84376,0.4219 -1.26562,1.26563 m -4.21875,-1.05469 0,2.10938 0.21093,0.21093 -1.26562,4.21875 0,0.21094 0.21094,0 c 0.84374,-1.87498 1.26562,-3.77341 1.26562,-5.69531 l -0.21094,-1.05469 -0.21093,0 m 3.16406,1.26563 0,11.8125 0.21094,0 0,-9.49219 0.21093,-2.95313 c -0.28126,3e-5 -0.42188,0.21097 -0.42187,0.63282 m 27.42187,-0.42188 -0.63281,1.6875 0.21094,0 c 0.42184,-0.1406 0.63277,-0.56247 0.63281,-1.26562 l 0,-0.42188 -0.21094,0 m 7.80469,0 0,0.42188 2.10938,2.10937 0.21093,0 0,-0.21094 c -4e-5,-0.46872 -0.77348,-1.24216 -2.32031,-2.32031 m -12.02344,1.6875 0,0.84375 0.63282,0.63281 0.63281,0 c 0.72653,3e-5 1.1484,-0.21091 1.26562,-0.63281 l -0.42187,0 -1.26563,0.42188 -0.63281,-0.63282 0,-0.42187 c 0.39841,-0.98435 1.5234,-1.47654 3.375,-1.47656 l 0,-0.21094 -1.47656,0 c -1.40628,0.4219 -2.10941,0.91409 -2.10938,1.47656 m -25.3125,-0.84375 -0.21093,4.21875 0,7.38281 0.21093,-0.21093 1.47657,0 0,-7.17188 0.21093,-4.64062 -1.6875,0.42187 m -5.90625,5.27344 c 0.375,1.12502 0.72656,1.68752 1.05469,1.6875 l 0.42188,0 c 0.74999,2e-5 1.24218,-0.28123 1.47656,-0.84375 l -0.21094,0 -1.26562,0.42187 -0.21094,0 -0.84375,-0.84375 0,-0.84375 c 0,-1.35935 1.26562,-2.90622 3.79687,-4.64062 l 0.21094,-0.21094 0,-0.21094 -0.21094,0 c -2.8125,1.89846 -4.21875,3.72659 -4.21875,5.48438 m 36.28125,-5.48438 0,0.21094 c -3e-5,0.4219 0.28122,0.63284 0.84375,0.63281 l 0.21094,0.21094 0,0.21094 c -4e-5,0.84377 -0.3516,1.26565 -1.05469,1.26562 l 0,0.21094 0.84375,0 0.42188,-0.63281 0,-1.05469 c -0.25785,-0.5156 -0.67973,-0.86716 -1.26563,-1.05469 m 9.28125,0.42188 0,0.42187 1.05469,0.42188 0,0.63281 c -0.18755,0.56252 -0.82036,0.84377 -1.89844,0.84375 l -0.21093,0 0,-0.21094 0.21093,-0.21093 c -0.28129,-0.63279 -0.56254,-0.98436 -0.84375,-1.05469 l -0.42187,1.26562 c 0.2812,0.63284 0.56245,0.9844 0.84375,1.05469 l 0.84375,0 c 0.89058,2e-5 1.73433,-0.56248 2.53125,-1.6875 l 0,-1.26562 c -0.0938,-0.42185 -0.6563,-0.63279 -1.6875,-0.63282 l -0.42188,0.42188 m -11.8125,0 0,0.42187 c 0.18747,0.58596 0.53903,1.00784 1.05469,1.26563 l 0.21094,-0.21094 0,-0.21094 -1.26563,-1.26562 m 2.53125,0.84375 0,0.42187 0.42188,-0.42187 -0.42188,0 m -13.71093,1.05469 0,0.21093 c 1.14841,0.0938 1.78122,0.37503 1.89843,0.84375 l 0,0.84375 -0.42187,0.63282 0,0.63281 0.21094,0 c -3e-5,-0.28123 0.28122,-0.63279 0.84375,-1.05469 l 0,-1.05469 -0.42188,-0.63281 0.21094,-0.63281 -0.21094,-0.21094 -1.6875,0 -0.42187,0.42188 m 9.91406,1.26562 0,0.21094 0.42187,0 c 1.03122,2e-5 2.15622,-0.63279 3.375,-1.89844 l -0.21093,0 c -1.64066,1.12502 -2.83598,1.68752 -3.58594,1.6875 m -23.41406,-0.63281 0.21093,0.21094 0.21094,0 0.42188,-0.42188 -0.21094,-0.21094 -0.21094,0 -0.42187,0.42188 m 38.39062,-0.21094 c -5e-5,0.70315 -1.12505,1.12502 -3.375,1.26563 l 0,0.21093 1.26563,0 c 0.86714,2e-5 1.64057,-0.49216 2.32031,-1.47656 l -0.21094,0 m -36.28125,0.21094 c -1e-5,0.4219 -0.21095,0.63283 -0.63281,0.63281 l 0,0.21094 0.21094,0 0.63281,-0.21094 0,-0.63281 -0.21094,0 m 2.74219,1.89844 -0.21094,-0.21094 0,1.26562 0.84375,0 0,0.63282 -1.05469,-0.21094 0,0.21094 -0.21093,0.21093 0,0.21094 0.21093,0.63281 0.21094,-0.21093 0.21094,0 0,0.21093 -0.21094,2.10938 0.84375,0.63281 0.84375,-2.10937 0,-0.63282 -0.21094,0.21094 -0.21093,0 -0.21094,-0.21094 0,-0.21093 0.63281,-2.95313 -0.21094,-1.47656 -0.21093,0 c -0.30471,2e-5 -0.58596,0.63283 -0.84375,1.89844 l -0.21094,0 m 23.41406,-1.47657 0.21094,0.21094 0,0.21094 -0.63281,0.42187 -0.84375,-0.21093 -0.21094,0 0,0.21093 1.47656,0.42188 0.42188,-0.42188 0,-0.84375 -0.42188,0 m -35.64844,0.21094 0,0.63281 c 1.5,1.82815 2.625,2.74221 3.375,2.74219 l 0,-0.21094 c -1.28906,-0.84373 -2.41406,-1.89841 -3.375,-3.16406 m 14.97657,0 c -0.56252,1.31252 -0.84377,2.43752 -0.84375,3.375 l 0.21093,0.21094 0.21094,0 0.84375,-2.95313 0,-0.21093 -0.42187,-0.42188 m 26.78906,0 0,0.21094 0.21094,0.21094 0.21093,0 0,-0.21094 -0.21093,-0.21094 -0.21094,0 m -11.60156,0.21094 0,0.21094 0.42187,0 0,-0.21094 -0.42187,0 m -22.78125,0.42187 0,0.63282 0.63281,0 0,-0.63282 -0.63281,0 m 37.54687,0 1.05469,5.69532 c -5e-5,1.89845 -0.56255,3.93751 -1.6875,6.11718 l 0.21094,0.21094 0.42187,0 c 0.98433,-2.24999 1.47651,-4.42967 1.47656,-6.53906 -0.18755,-3.4453 -0.60942,-5.27342 -1.26562,-5.48438 l -0.21094,0 m -19.19531,4.21875 0.21094,0 c 1.99215,-2.3906 3.60934,-3.58591 4.85156,-3.58593 l 1.26562,0 c 1.35934,2e-5 2.20309,0.77345 2.53125,2.32031 -3e-5,0.51564 -0.3516,0.93752 -1.05468,1.26562 -0.25785,2e-5 -0.46879,-0.63279 -0.63282,-1.89843 l -1.47656,-0.42188 c -0.91409,2e-5 -2.39066,0.70314 -4.42969,2.10938 l 0,0.21093 0.42188,0 0.63281,-0.21093 0.42188,0.63281 c 1.54684,-0.60936 2.32028,-1.03123 2.32031,-1.26563 l 0.21094,0 0.63281,0.21094 0.42187,-0.42187 0.42188,0.42187 0,0.84375 -0.63281,-0.42187 0,0.84375 c -0.28129,1e-5 -0.42191,-0.21093 -0.42188,-0.63282 l -0.21094,0 c -3e-5,0.56252 -0.21097,0.84377 -0.63281,0.84375 l -1.26562,0 -0.21094,1.05469 0.63281,0 -0.21094,1.47656 0.42188,1.26563 -0.21094,0.63281 0.42188,0 1.6875,-1.26562 0.21093,0 0.21094,0.21093 0.21094,0 c 0.28121,-1.54686 0.63278,-2.32029 1.05469,-2.32031 l 0.42187,0 0.42188,0.42188 0,0.21093 c -4e-5,0.46877 -0.21098,0.96095 -0.63282,1.47657 l 0.63282,0 c -0.28129,0.53907 -0.42192,1.31251 -0.42188,2.32031 l 0,0.42187 0.21094,0 c -4e-5,-0.60936 0.49215,-1.45311 1.47656,-2.53125 l -0.21094,0 -0.21093,0.21094 0,-0.42187 0.84375,-2.53125 0,-0.21094 -1.05469,-0.21094 0,-0.21094 c 0.42184,-0.51561 0.63277,-1.00779 0.63281,-1.47656 l 0,-1.05469 c -0.93754,-1.54685 -2.06253,-2.32029 -3.375,-2.32031 -2.81253,2e-5 -4.99222,1.33596 -6.53906,4.00781 m -17.08594,-2.95312 0,0.63281 0.21094,0 0.42187,-0.42187 0,-0.63282 -0.21093,0 -0.42188,0.42188 m 3.79688,-0.21094 0.63281,0 0,0.42188 -0.21094,0 -0.42187,-0.42188 m 3.375,0.21094 -0.42188,0.84375 0,0.21094 0.21094,0 0.42187,-0.84375 0,-0.21094 -0.21093,0 m 28.6875,0 0,0.84375 0.21093,0 0,-0.84375 -0.21093,0 m -2.10938,0.42187 0.63281,0.84375 0,0.84375 -1.26562,1.26563 0,0.21094 c -5e-5,0.98439 0.42183,1.47657 1.26562,1.47656 l -0.42187,1.26562 c 1.68745,-0.39842 2.5312,-1.66404 2.53125,-3.79687 l 0,-0.63281 -0.21094,0 c -5e-5,1.96876 -0.70317,2.95314 -2.10937,2.95312 l -0.63282,-1.05469 c 0.0703,-0.44529 0.56246,-1.0781 1.47657,-1.89843 l 0,-0.84375 -0.63282,-0.63282 -0.63281,0 m -35.22656,0.63282 0,0.42187 c -1e-5,0.63283 0.56249,1.12502 1.6875,1.47656 l 0.21094,0.21094 0,0.21094 c -1.26564,1e-5 -1.89845,0.4922 -1.89844,1.47656 l 0,0.63281 0.21094,0 c -1e-5,-0.63279 0.35155,-1.12498 1.05468,-1.47656 l 1.05469,0 c 0.74999,2e-5 1.66405,0.70314 2.74219,2.10938 -0.75002,-1.82811 -1.87501,-3.09374 -3.375,-3.79688 -0.46876,2e-5 -1.03126,-0.42186 -1.6875,-1.26562 m 37.54687,0 0,0.63281 0.21094,0 0,-0.63281 -0.21094,0 m -32.48437,0.21093 0.42187,0 0,0.63282 -0.84375,-0.21094 0.42188,-0.42188 m -13.71094,1.6875 0,0.84375 c 0,0.28127 0.21094,0.42189 0.63281,0.42188 1.125,-0.2578 1.6875,-0.53905 1.6875,-0.84375 l -1.26562,0.42187 -0.21094,0 c -0.35156,2e-5 -0.5625,-0.28123 -0.63281,-0.84375 l -0.21094,0 m -0.21094,7.17188 c 0,2.78907 1.61719,4.82813 4.85157,6.11719 l 1.89843,0 c 1.82812,0 3.23437,-0.98437 4.21875,-2.95313 l -0.42187,0 c -1e-5,1.05469 -1.40626,1.96876 -4.21875,2.74219 -3.16407,0 -5.13282,-1.75781 -5.90625,-5.27344 l 0,-1.05469 c 0,-2.74217 1.26562,-4.71092 3.79687,-5.90625 l 0.84375,-0.21093 0,-0.42188 c -1.54688,2e-5 -3.02344,1.26564 -4.42968,3.79688 -0.42188,0.93751 -0.63282,1.99219 -0.63282,3.16406 m 16.66407,-5.69531 -0.63282,-0.63282 -0.84375,1.05469 0.21094,0 0.21094,-0.21094 0.21094,0.21094 0,0.42188 -0.42188,0.63281 0,1.05469 -0.42187,0 0.63281,2.95312 0,0.63281 0.42187,0 0,0.21094 -0.21093,0.21094 0.21093,0.21094 0,0.21093 -0.63281,0.63282 -0.42187,0 -0.42188,-0.42188 0.21094,-0.21094 c -0.42189,1e-5 -0.63283,-0.14061 -0.63281,-0.42187 l 0.21093,-0.21094 c -0.46876,1e-5 -0.75001,-0.91405 -0.84375,-2.74219 l 0,-0.21093 0.21094,-0.21094 -0.21094,-0.63281 -0.42187,0 -0.21094,0.21093 -0.21094,0 c -1e-5,-1.40623 -0.21095,-2.10936 -0.63281,-2.10937 l 0,0.21094 c -1e-5,3.56251 0.84374,5.95313 2.53125,7.17187 l 1.05469,0 c 0.72654,1e-5 1.14842,-0.21093 1.26562,-0.63281 l 0,-0.21094 -0.42187,0 0,-0.63281 0.21094,-0.21094 -0.21094,-0.21094 0,-1.6875 0.21094,0.21094 0.21093,0 0,-0.42187 -0.21093,-1.05469 c 0.23435,-2.10936 0.65623,-3.16405 1.26562,-3.16406 l 0.63281,0 c 0.51561,1e-5 0.93748,0.21095 1.26563,0.63281 -2e-5,0.60939 -0.70315,1.17189 -2.10938,1.6875 l -0.21093,1.26562 c -2e-5,0.72658 0.35154,1.28908 1.05468,1.6875 l 0.84375,0 0,-0.42187 c -0.98439,1e-5 -1.47658,-0.21093 -1.47656,-0.63281 l 0,-0.42188 c -2e-5,-0.79686 0.70311,-1.49999 2.10938,-2.10937 l 0.21093,-1.05469 c -0.23439,-1.26561 -0.8672,-1.89842 -1.89843,-1.89844 l -0.42188,0 -1.26562,1.26563 m 11.39062,-1.26563 -0.21094,0.21094 0,0.21094 1.26563,1.26562 0.63281,-0.42187 0,0.63281 0.21094,0 0.21094,-1.05469 c -0.67972,2e-5 -1.38285,-0.28123 -2.10938,-0.84375 m -1.05469,0.21094 -0.84375,3.16406 0,0.21094 c -2e-5,1.50001 0.42185,3.1172 1.26563,4.85156 l 0.21094,0 0,-0.21094 c -0.70316,-2.06249 -1.05472,-3.67967 -1.05469,-4.85156 -3e-5,-1.0078 0.28122,-1.99217 0.84375,-2.95312 l -0.21094,-0.21094 -0.21094,0 m 6.96094,0.42187 0.21094,0.21094 0.21094,0 0.21093,-0.21094 0.21094,0 0,0.63282 c -1.05472,1e-5 -1.68753,0.63282 -1.89844,1.89843 l -0.21093,0 -0.42188,-0.42187 c -3e-5,-0.72655 0.56247,-1.42967 1.6875,-2.10938 m -29.32031,0.42188 0,0.21094 0.42187,0 0,-0.21094 -0.42187,0 m 31.42969,-0.21094 0.84375,0.21094 0,0.42187 -0.42188,0 0.21094,0.21094 0,0.21094 -0.21094,0 -1.26562,-0.42188 0,-0.42187 0.84375,-0.21094 m -34.80469,4.00781 0,1.05469 0.42187,0.42188 0.63282,0 c 0.28124,-0.0703 0.56249,-0.42187 0.84375,-1.05469 l -1.05469,0.42187 -0.63281,-0.21093 0,-0.63282 c -1e-5,-0.72655 0.70312,-1.78123 2.10937,-3.16406 -1.54688,1.10158 -2.32031,2.15626 -2.32031,3.16406 m 8.64844,-2.95312 -0.21094,1.26562 c 0.51561,1.03127 0.93749,1.59376 1.26562,1.6875 l 0,-0.21093 -0.84375,-1.05469 0,-0.63281 c -1e-5,-0.28124 0.35155,-0.42187 1.05469,-0.42188 l 0,-0.21094 -0.42187,-0.42187 -0.84375,0 m -6.53907,2.10937 0,0.21094 0.21094,0 c 0,-0.51561 0.28125,-1.07811 0.84375,-1.6875 l -0.21094,0 c -0.375,1e-5 -0.65625,0.4922 -0.84375,1.47656 m 11.39063,-1.47656 0,1.05469 0.21094,0 0,-1.05469 -0.21094,0 m 14.76562,0.21094 0,0.42187 0.21094,0 0,-0.42187 -0.21094,0 m -2.10937,1.26562 0,1.6875 0.21094,0 c -3e-5,-1.12498 0.14059,-1.68748 0.42187,-1.6875 0.42185,2e-5 0.63278,0.21095 0.63281,0.63282 l 0.42188,-0.42188 0,-0.42187 -0.63281,-0.63282 -0.42188,0 c -0.35159,2e-5 -0.56253,0.28127 -0.63281,0.84375 m 18.98437,-0.84375 -1.05468,1.26563 0,0.21094 0.21093,0 c 0.32808,-0.0703 0.67964,-0.56249 1.05469,-1.47657 l -0.21094,0 m -16.66406,0.21094 0,0.42188 0.21094,1.05468 -0.63281,1.47657 0,0.21093 0.42187,0 c 0.42185,1e-5 0.63278,-0.77342 0.63281,-2.32031 -0.28128,1e-5 -0.4219,-0.28124 -0.42187,-0.84375 l -0.21094,0 m -26.15625,3.375 0.21094,0 0.21094,-0.21094 c 0.53905,-1.82811 1.45311,-2.74217 2.74218,-2.74218 l 0.42188,0 c 2.53124,0.4922 3.79686,1.75782 3.79687,3.79687 l 0.42188,0 c -0.72658,-2.67186 -2.06251,-4.0078 -4.00781,-4.00781 l -0.84375,0 c -1.68751,1e-5 -2.67188,1.0547 -2.95313,3.16406 m 27.21094,-2.95312 0,0.63281 0.21094,0 0,-0.63281 -0.21094,0 m 13.28906,0.42187 0.21094,0.21094 0.21094,0 0.42187,-0.63281 -0.42187,0 -0.42188,0.42187 m -24.04687,0 -0.21094,0.21094 0,0.21094 0.42187,0.42187 0.42188,-0.42187 -0.63281,-0.42188 m 14.55468,0 -0.21093,0.63281 0.63281,0 -0.21094,-0.63281 -0.21094,0 m -32.69531,4.00781 0,0.42188 3.375,-0.21094 5.27344,0.21094 0.63281,0.21094 0.84375,-0.21094 0,-0.42188 c -2.81251,1e-5 -4.35938,-1.26561 -4.64062,-3.79687 l -0.21094,0 c -1.19532,1e-5 -1.89844,0.56251 -2.10938,1.6875 0,0.84376 -1.05469,1.54688 -3.16406,2.10937 m 12.44531,-3.79687 0,0.42187 0.21094,0 0,-0.42187 -0.21094,0 m -6.32812,0.42187 0,0.42188 0.21094,0 0,-0.42188 -0.21094,0 m 24.46875,0.42188 0.21094,0.84375 0.21093,0 0.63282,-0.63281 -0.42188,0 0,-0.21094 0.21094,-0.21094 0,-0.21094 -0.21094,0 -0.63281,0.42188 m 2.32031,-0.21094 0,1.47656 0.21094,0 0,-1.47656 -0.21094,0 m 9.49219,0.21094 0,0.42187 0.42187,0 0,-0.42187 -0.42187,0 m 1.26562,0 0,0.63281 0.21094,0 0.42188,-0.42187 -0.21094,-0.21094 -0.42188,0 m -14.55468,0.63281 0,0.21094 0.21093,0 1.05469,-0.42188 0,-0.21093 -0.84375,0 -0.42187,0.42187 m -21.72657,-0.21094 0,0.42188 0.84375,0.21094 -0.63281,-0.63282 -0.21094,0 m 11.39063,0 -0.21094,0.21094 0,0.63281 0.42188,0 0.42187,-0.42187 -0.63281,-0.42188 m 3.58594,0.21094 0,0.42188 1.05468,-0.21094 0.42188,0.84375 0.21094,0 0,-0.21094 -0.63282,-0.84375 -1.05468,0 m 3.58593,0.84375 0,0.42188 0.21094,0 0,-0.42188 -0.21094,0 m -5.27343,0.21094 0.42187,0.63281 c -2.39065,1e-5 -3.58596,0.77345 -3.58594,2.32031 l 1.89844,-1.26562 0.63281,0 c 0.91404,1e-5 2.17967,0.56251 3.79688,1.6875 l 0,-0.21094 -0.42188,-0.42187 0.42188,0 1.89844,1.89843 c 1.3359,0.56251 3.16403,1.05469 5.48437,1.47657 l -0.21094,-0.21094 0,-0.42188 0.42188,0 0.42187,0.42188 -0.21093,0.21094 1.47656,0.21093 1.05469,0 4.00781,-0.63281 0,-0.42187 -3.375,0.42187 c -3.93753,-0.77343 -5.90628,-1.96874 -5.90625,-3.58594 l -0.21094,0 0,0.42188 0.21094,0.21094 -0.42188,0 -0.42187,-1.47657 0.21094,-0.21093 0.21093,0 0.21094,0.21093 0.21094,0 c 0.0468,-0.56249 0.32809,-0.84374 0.84375,-0.84375 0.63278,0.28126 0.98434,0.56251 1.05469,0.84375 l -0.21094,1.47657 0.63281,0.42187 0.42188,0 c -0.28129,-0.18749 -0.42191,-1.03124 -0.42188,-2.53125 -0.53909,-0.42186 -1.17191,-0.6328 -1.89844,-0.63281 l -0.42187,0 c -0.70316,0.42188 -1.05472,0.91407 -1.05469,1.47656 l -0.63281,0 c -3e-5,-0.56249 -0.21097,-0.84374 -0.63281,-0.84375 l -0.21094,0 0,1.05469 c 1.10153,1.42969 2.08591,2.34375 2.95312,2.74219 -3e-5,0.28125 0.21091,0.42188 0.63282,0.42187 l 0,0.63281 -0.42188,0 -0.21094,-0.21093 -0.21093,0.21093 -0.21094,0 -1.05469,-0.84375 0.42188,-0.42187 -1.05469,0.42187 -0.21094,-0.21093 0,-0.42188 0.42188,0 0,-0.21094 c -1.1016,1e-5 -2.22659,-0.91405 -3.375,-2.74218 l -0.42188,0 0,0.42187 -0.42187,0 -1.89844,-1.47656 -0.63281,0 m -3.375,0.21094 0,0.42187 0.21093,0 0.42188,-0.42187 -0.63281,0 m -17.50782,1.89843 0,0.21094 1.26563,0.21094 0.42187,0 0,-0.21094 -1.47656,-0.21094 -0.21094,0 m 2.10938,0 0,0.21094 5.48437,0 0,-0.21094 -5.48437,0 m 30.58594,0 0.21093,0.21094 0.63282,0.21094 0,0.21094 0.21093,-0.21094 11.39063,0 0,-0.42188 -0.63281,0.21094 -5.48438,-0.21094 -5.27344,0.21094 0,0.21094 -1.05468,-0.42188 m -19.40625,1.05469 -0.63282,-0.21094 0.63282,0.63282 0.63281,0 c 0.77342,0 1.33592,-0.28125 1.6875,-0.84375 l 0,-0.42188 c -0.77346,0.56251 -1.54689,0.84376 -2.32031,0.84375 m -10.54688,-0.21094 0.42188,0.63282 0,0.21093 -0.42188,0.63282 0.63281,0 0.42188,-0.42188 0,-0.42187 c -1e-5,-0.32812 -0.35157,-0.53906 -1.05469,-0.63282 m 38.60156,0.84375 -0.21093,0 0,-0.42187 -3.16407,0.84375 -0.84375,-0.63281 0,0.42187 c 0.14059,0.42188 0.56246,0.63282 1.26563,0.63281 l 0.84375,0 c -4e-5,0.56251 0.14058,0.84376 0.42187,0.84375 l 0.42188,0 -0.42188,-0.63281 1.47657,-0.63281 0.21093,0.21094 0.21094,-0.63282 0.63281,0.21094 0,0.42188 -0.42187,0.63281 0,0.42187 0.42187,0.42188 0.63282,0 0,-0.42188 0.21093,0 1.05469,0.63282 1.26563,0 0.63281,-0.63282 -0.63281,-1.47656 0.63281,-0.21094 -0.42188,-0.42187 -0.42187,0.42187 0,0.21094 0.21094,1.47656 -0.63282,0.42188 c -0.84379,0 -1.26567,-0.35156 -1.26562,-1.05469 l 0.21094,-1.05469 -1.26563,0 0,-0.63281 -0.21094,0 -0.84375,0.63281 m -35.4375,-0.42187 0,0.42187 0.42188,0 0,-0.42187 -0.42188,0 m 11.17969,0.84375 0,0.21094 c 0.84373,-0.5625 1.47654,-0.84375 1.89844,-0.84375 0.46873,0 0.96091,0.21094 1.47656,0.63281 l 0.21094,0 0,-0.42188 -1.89844,-0.42187 -0.21094,0 c -0.75002,0 -1.2422,0.28125 -1.47656,0.84375 m 16.45313,-0.42188 0,0.21094 0.42187,0.84375 0.84375,0 0,-0.21094 -0.42187,0 0,-0.63281 c -4e-5,-0.28124 0.2109,-0.42187 0.63281,-0.42187 l 0,-0.21094 -1.05469,0 -0.42187,0.42187 m -24.89063,1.47657 c 0.84374,-0.5625 1.47655,-0.84375 1.89844,-0.84375 l 0.63281,0 0.63281,0.63281 0,0.42187 c -1e-5,0.28126 -0.21095,0.42188 -0.63281,0.42188 l 0.42188,0.42187 c 0.70311,-0.42187 1.05467,-0.91406 1.05468,-1.47656 -0.35157,-0.84374 -0.84376,-1.26562 -1.47656,-1.26562 -1.54689,0.60938 -2.39064,1.17188 -2.53125,1.6875 m -4.21875,-1.47657 0,0.21094 0.63281,0 0,-0.21094 -0.63281,0 m 9.28125,0.42188 c 0.18748,0.58594 0.53905,1.00782 1.05469,1.26562 l 1.05469,0 0,-1.05468 -0.42188,-0.63282 -1.6875,0.42188 m -12.23437,-0.21094 0,0.21094 0.21093,0.21094 0.42188,0 0,-0.21094 -0.63281,-0.21094 m 5.0625,0 0,0.42188 0.63281,0 0,-0.42188 -0.63281,0 m 12.86718,1.47656 -1.05468,-0.84375 -0.42188,0 0,0.21094 c 0.60936,0.84375 1.24217,1.26563 1.89844,1.26563 0.46873,0 1.59372,-0.63281 3.375,-1.89844 l 1.26562,0.42187 0,0.21094 c -2e-5,0.84375 -0.4219,1.26563 -1.26562,1.26563 l -1.05469,-0.42188 c 0.0937,0.42188 0.65623,0.63282 1.6875,0.63281 l 1.05469,-0.21093 0,-1.05469 c -0.35159,-0.70312 -0.91409,-1.05468 -1.6875,-1.05469 l -0.42188,0 c -0.4219,1e-5 -1.5469,0.49219 -3.375,1.47656 m -20.03906,-1.05468 0,0.21093 0.21094,0.21094 0.21094,0 0,-0.21094 -0.21094,-0.21093 -0.21094,0 m 5.69531,0.21093 0,0.21094 0.63282,0 0,-0.42187 -0.63282,0.21093 m 11.8125,0 0,0.42188 0.21094,0 0,-0.42188 -0.21094,0 m 18.14063,0.21094 0,0.21094 0.42187,0 0,-0.21094 -0.42187,0 m -35.22656,0.21094 c -1e-5,0.5625 -0.28126,0.84375 -0.84375,0.84375 l -0.21094,-0.21094 0,0.21094 0.21094,0.21094 1.05468,0 0,-1.05469 -0.21093,0 m 31.00781,0 0.21094,0.21094 0,0.63281 -0.63282,-0.21094 0,-0.21094 0.42188,-0.42187"
         style="font-size:72px;font-variant:normal;font-stretch:normal;font-family:Goudy Initials;-inkscape-font-specification:Goudy Initials"
         id="path4356" />
    </g>
  </g>
</svg>
