<?xml version="1.0" encoding="UTF-8" standalone="no"?>
<!-- Created with Inkscape (http://www.inkscape.org/) -->

<svg
   xmlns:dc="http://purl.org/dc/elements/1.1/"
   xmlns:cc="http://creativecommons.org/ns#"
   xmlns:rdf="http://www.w3.org/1999/02/22-rdf-syntax-ns#"
   xmlns:svg="http://www.w3.org/2000/svg"
   xmlns="http://www.w3.org/2000/svg"
   xmlns:sodipodi="http://sodipodi.sourceforge.net/DTD/sodipodi-0.dtd"
   xmlns:inkscape="http://www.inkscape.org/namespaces/inkscape"
   width="56.734375"
   height="56.734375"
   id="svg2"
   version="1.1"
   inkscape:version="0.48.5 r10040"
   sodipodi:docname="m.svg">
  <defs
     id="defs4" />
  <sodipodi:namedview
     id="base"
     pagecolor="#ffffff"
     bordercolor="#666666"
     borderopacity="1.0"
     inkscape:pageopacity="0"
     inkscape:pageshadow="2"
     inkscape:zoom="3.959798"
     inkscape:cx="43.996764"
     inkscape:cy="5.617196"
     inkscape:document-units="px"
     inkscape:current-layer="layer1"
     showgrid="false"
     fit-margin-top="2"
     fit-margin-left="2"
     fit-margin-right="2"
     fit-margin-bottom="2"
     inkscape:window-width="1366"
     inkscape:window-height="733"
     inkscape:window-x="0"
     inkscape:window-y="0"
     inkscape:window-maximized="1"
     showborder="true"
     borderlayer="false" />
  <metadata
     id="metadata7">
    <rdf:RDF>
      <cc:Work
         rdf:about="">
        <dc:format>image/svg+xml</dc:format>
        <dc:type
           rdf:resource="http://purl.org/dc/dcmitype/StillImage" />
        <dc:title></dc:title>
      </cc:Work>
    </rdf:RDF>
  </metadata>
  <g
     inkscape:label="Layer 1"
     inkscape:groupmode="layer"
     id="layer1"
     transform="translate(-152.28125,-146.34738)">
    <g
       style="font-size:40px;font-style:normal;font-weight:normal;line-height:125%;letter-spacing:0px;word-spacing:0px;fill:#ffffff;fill-opacity:1;stroke:none;font-family:Sans"
       id="flowRoot2985">
      <path
         d="m 154.28125,148.34738 52.73437,0 0,52.73438 -52.73437,0 0,-52.73438 m 1.05469,1.05469 0,50.625 50.625,0 0,-50.625 -50.625,0 m 0.42187,0.63281 49.57031,0 0,49.57032 -49.57031,0 0,-49.57032 m 4.42969,2.74219 0,0.21094 0.42187,0 c 1.71093,-1.12495 3.60937,-1.68745 5.69532,-1.6875 l 0,-0.21094 -0.84375,0 c -1.14845,5e-5 -2.90626,0.56255 -5.27344,1.6875 m 11.17969,-1.05469 0.21093,0.63282 0.42188,0 -0.21094,-0.63282 0.21094,-0.63281 -0.21094,0 c -0.28126,5e-5 -0.42189,0.21099 -0.42187,0.63281 m 1.89843,1.05469 0,-0.42187 -0.42187,0 0,0.84375 c -2e-5,0.28129 0.42186,0.56254 1.26562,0.84375 l 0,0.21093 -0.42187,0.42188 c -1.10158,-1.12495 -2.08595,-1.68745 -2.95313,-1.6875 l -0.42187,0.84375 -0.63281,-0.63281 0,-0.21094 0.63281,0 0,-0.21094 -0.63281,0 c -0.58595,0.18755 -1.00783,0.53911 -1.26563,1.05469 l 0,0.21094 0.42188,0 -0.42188,1.6875 0,0.21093 0.84375,0.84375 0.21094,0 -0.42188,-0.63281 0,-0.84375 c 0.35155,-0.70308 0.91405,-1.05464 1.6875,-1.05469 l 0.21094,0 c 2.39061,5e-5 4.07811,1.75786 5.0625,5.27344 l 0,2.53125 0.42188,0 0.21093,-1.6875 c -2e-5,-1.61714 -0.70314,-4.00777 -2.10937,-7.17187 l 0.21094,0 -0.21094,-0.21094 0,-0.63281 1.05469,-1.26563 -0.21094,0 c -1.12502,0.18755 -1.68752,0.75005 -1.6875,1.6875 l -0.42188,0 m 4.85157,-1.47656 0,0.84375 c 0.39841,5e-5 0.74997,0.21099 1.05468,0.63281 l 0,0.21094 0.42188,0 0,-1.05469 -0.84375,-0.84375 -0.63281,0.21094 m 6.75,-0.21094 -0.42188,0.63281 c 0.56247,5e-5 0.84372,0.14068 0.84375,0.42188 l 0,0.42187 c -0.9844,0.89068 -1.47659,1.52349 -1.47656,1.89844 l -0.21094,0 c 0.35154,0.8438 0.77341,1.26567 1.26563,1.26563 l 2.95312,-0.42188 0.63281,0.63281 0,0.21094 0.21094,0 0,-0.63281 -0.42187,-0.63281 0.21093,-0.21094 0,-0.21094 -1.26562,-0.63281 -1.47656,0.84375 -0.63282,0 0,-0.63281 c 1.2656,-0.25777 1.89841,-0.67964 1.89844,-1.26563 -0.70315,-0.11714 -1.05472,-0.60932 -1.05469,-1.47656 l -1.05468,-0.21094 m -18.14063,0.21094 0,0.21094 3.16406,0.63281 0.21094,0 0,-0.21094 -2.95312,-0.63281 -0.42188,0 m 13.5,0.63281 0,1.26563 0.42188,0 0.63281,-0.42188 0.21094,0.21094 0,0.21094 -0.63282,0.21093 0,0.42188 1.05469,0 -0.21094,-0.21094 0,-0.21094 0.42188,0 0,0.42188 0.42187,0 0,-0.42188 0.21094,0 -0.21094,-0.63281 -0.63281,0 -0.21094,0.21094 -0.21093,0 -0.21094,-0.21094 0.21094,-0.21094 0,-0.84375 -0.42188,-0.42187 -0.21094,0 -0.63281,0.63281 m 7.80469,-0.63281 -0.21094,0.84375 c 0.28122,5e-5 0.42184,-0.21089 0.42188,-0.63281 l 0,-0.21094 -0.21094,0 m -0.63281,1.47656 0,0.21094 0.21093,0 c 1.82809,-0.70308 4.28903,-1.05464 7.38282,-1.05469 l 5.27343,1.47656 0.42188,0 0,-0.21093 c -1.57036,-0.70308 -3.67973,-1.26558 -6.32813,-1.6875 -3.53909,0.2813 -5.8594,0.70317 -6.96093,1.26562 m 10.125,-1.26562 0,0.21093 0.42187,0 0,-0.21093 -0.42187,0 m 2.53125,0 0,0.63281 0.63281,0.42187 0.21094,0 -0.63282,-1.05468 -0.21093,0 m 2.10937,0 -0.84375,1.05468 0.42188,0 0.63281,-1.05468 -0.21094,0 m 0.84375,0 0,0.21093 c 0.42183,5e-5 0.63277,0.14068 0.63281,0.42188 l 0,0.42187 c -4e-5,0.42193 -0.28129,0.63286 -0.84375,0.63282 l -0.21093,0.21093 0,0.21094 0.21093,0 c 0.84371,-0.14058 1.26558,-0.35151 1.26563,-0.63281 l 0,-0.84375 c -5e-5,-0.35151 -0.2813,-0.56245 -0.84375,-0.63281 l -0.21094,0 m -45.98437,0.21093 0,0.42188 c 0.0703,0.2813 0.42187,0.56255 1.05468,0.84375 l 2.32032,-0.84375 0,-0.21094 -0.21094,0 -1.26563,0.42188 -1.05468,0 -0.84375,-0.63282 m 41.13281,0 0,0.21094 0.42187,0 0,-0.21094 -0.42187,0 m 0.63281,0.21094 0,0.21094 0.63281,0.21094 0.42188,0 0,-0.21094 -0.84375,-0.21094 -0.21094,0 m -33.11719,0.84375 0,0.42188 0.42188,0 c -1e-5,-0.56245 0.21093,-0.8437 0.63281,-0.84375 l 0,-0.21094 -0.21094,0 c -0.56251,0.21099 -0.84376,0.42192 -0.84375,0.63281 m 11.39063,-0.42187 -0.21094,0.63281 1.05469,0.63281 1.05469,-0.21094 0.21093,0.21094 0,-0.21094 c -0.63283,-0.70307 -1.26564,-1.05463 -1.89843,-1.05468 l -0.21094,0 m 12.65625,0.42187 c -4e-5,0.23442 0.35153,0.44536 1.05469,0.63281 l 0,-0.21093 -0.42188,-0.42188 -0.63281,0 m 8.22656,0.21094 0,0.21094 0.63281,0.21093 0.21094,0 0,-0.21093 -0.63281,-0.21094 -0.21094,0 m -40.71094,0.84375 0,0.42187 c 3.04687,5e-5 5.15625,1.75786 6.32813,5.27344 l 0.21094,7.80469 0.21093,0 1.47657,-0.21094 0,-6.11719 0.84375,0 6.32812,6.96094 c 0.42186,-1.68746 0.6328,-3.23434 0.63281,-4.64062 l -8.4375,-9.28125 -5.27343,-0.42188 -2.32032,0.21094 m 22.35938,0 0.42187,1.26562 c -2e-5,0.58599 -0.91408,2.48442 -2.74218,5.69532 1.96872,-2.36715 2.9531,-4.47652 2.95312,-6.32813 l 0,-0.21094 -0.42187,-0.42187 -0.21094,0 m 9.49219,0.21094 c -4e-5,0.32817 1.26559,0.60942 3.79687,0.84375 1.54684,0.84379 2.32027,2.17973 2.32031,4.00781 l -0.21093,2.95312 0,4.64063 c 0.0937,0.42191 0.65621,0.63285 1.6875,0.63281 l 0,-5.48437 c -4e-5,-4.35933 0.70308,-6.53902 2.10937,-6.53907 2.10933,-0.37495 3.16402,-0.72651 3.16406,-1.05468 l -0.63281,-0.21094 -6.32812,0.42187 -5.0625,-0.42187 -0.84375,0.21094 m -23.41407,0 c 0.93749,1.35942 3.39843,4.17191 7.38282,8.4375 l 0,-0.21094 -5.90625,-6.96094 0.21093,-0.21094 -0.21093,0 -0.21094,0.21094 c -1e-5,-0.44526 -0.35157,-0.86714 -1.05469,-1.26562 l -0.21094,0 m 11.60157,0 -0.21094,1.05468 1.47656,0 0,-0.21093 -0.42187,0 0,-0.42188 0.42187,0 0,-0.21094 -1.26562,-0.21093 m 3.58593,0.21093 0,0.21094 0.42188,1.05469 0.63281,0 0.42188,-0.42188 c -0.23441,-0.56245 -0.72659,-0.8437 -1.47657,-0.84375 m 16.45313,3.16407 -0.21094,9.70312 0.42188,-0.42187 0,-8.22657 c -5e-5,-1.80464 1.19527,-2.85933 3.58593,-3.16406 0.84371,5e-5 1.33589,-0.2812 1.47657,-0.84375 l -0.42188,0 -3.79687,1.26563 c -0.70317,0.75004 -1.05473,1.31254 -1.05469,1.6875 m -39.86719,-2.74219 0,0.21094 c 1.26562,0.28129 2.53125,0.77348 3.79688,1.47656 l 0,-0.21094 c -0.75001,-0.67964 -2.01563,-1.17183 -3.79688,-1.47656 m 26.78906,-0.21094 0.21094,0 0.42188,0.42188 0,0.21093 -0.63282,-0.63281 m 18.98438,0.21094 0,0.21094 0.63281,0.42187 0.63281,0 0,-0.42187 -1.26562,-0.21094 m -20.25,0.21094 0,0.21093 c 0.28122,0.63286 0.56247,0.98442 0.84375,1.05469 l 0.42187,0 -1.05468,-1.26562 -0.21094,0 m 6.32812,0 0,0.21093 c 2.39059,0.2813 4.00778,0.77349 4.85157,1.47657 l 0,-0.21094 c -1.2891,-0.98433 -2.83598,-1.47652 -4.64063,-1.47656 l -0.21094,0 m -10.96875,1.05468 0,0.42188 0.63282,0 c 0.23435,4e-5 0.44528,-0.42183 0.63281,-1.26563 l -0.21094,0 c -0.63283,0.2813 -0.9844,0.56255 -1.05469,0.84375 m 2.32032,-0.84375 -0.21094,0.84375 0.42187,0 0,-0.84375 -0.21093,0 m 22.14843,0.21094 -0.21093,0.21094 c 0.8437,1.64067 1.26557,2.90629 1.26562,3.79687 l 0,0.63282 -0.42187,1.89843 0.21093,0.21094 c -0.96098,1.54691 -1.94535,2.32035 -2.95312,2.32031 l -1.26563,-0.63281 -0.21093,0 c -5e-5,0.79691 0.2812,1.42973 0.84375,1.89844 l -0.21094,0.21094 0,0.21093 0.84375,0.21094 c 1.26558,-0.46871 1.89839,-1.17184 1.89844,-2.10937 l 0.42187,0 0,0.21093 c -5e-5,0.60942 -0.77348,1.6641 -2.32031,3.16407 l -0.63281,1.89843 0.84375,0 -0.21094,0.21094 0,1.26563 c 0.32808,1.5469 1.0312,2.32034 2.10937,2.32031 l 1.05469,-0.21094 0,-1.47656 c -0.8438,-1.00778 -1.26567,-1.78122 -1.26562,-2.32031 l -0.21094,0 0,0.84375 c 0.2812,3e-5 0.70308,0.63284 1.26562,1.89843 l -0.63281,0.84375 -0.63281,0 c -0.42192,3e-5 -0.77348,-0.63278 -1.05469,-1.89843 l 0,-0.21094 c 2.24995,-5.41403 3.37495,-9.07027 3.375,-10.96875 -0.58598,-2.95308 -1.2188,-4.42964 -1.89844,-4.42969 m -31.21875,0.84375 0,0.21094 0.42188,0.42187 c 0.28123,-0.56245 0.63279,-0.8437 1.05469,-0.84375 l 0.21093,0.21094 0.42188,0 0,-0.21094 -0.84375,-0.42187 -0.63281,0 -0.63282,0.63281 m -14.13281,-0.42187 -0.63281,3.58593 0,1.6875 0.42187,0 0,-1.05468 -0.21093,-0.84375 0.84375,-3.375 -0.42188,0 m 19.40625,7.17187 0,0.21094 0.42188,0 c 0.37497,-1.28902 2.2031,-3.53902 5.48437,-6.75 l 0.21094,0 -0.21094,-0.63281 c -3.11721,2.83598 -5.08596,5.2266 -5.90625,7.17187 M 158.5,155.94113 l -0.21094,1.05469 0,1.26563 0.63281,0.63281 0.84375,0 0.21094,-0.21094 -0.84375,0 c -0.32813,4e-5 -0.53906,-0.35152 -0.63281,-1.05469 l 0.21094,-1.47656 0,-0.21094 -0.21094,0 m 43.45312,0 0.21094,1.05469 -0.84375,0.84375 c -0.42192,5e-5 -0.63286,-0.2812 -0.63281,-0.84375 l -0.42188,0.42188 c 0.14058,0.56254 0.56246,0.84379 1.26563,0.84375 l 0.63281,0 c -5e-5,-0.70308 0.14058,-1.05465 0.42188,-1.05469 -0.18755,-0.84371 -0.39849,-1.26558 -0.63282,-1.26563 m -11.39062,0.63282 c 0.98434,4e-5 1.47652,0.21098 1.47656,0.63281 l 0,0.21094 -0.42187,1.26562 0.21093,0 c 0.42184,-0.51558 0.63278,-1.00777 0.63282,-1.47656 l 0,-0.21094 c -0.23442,-0.56245 -0.7266,-0.8437 -1.47657,-0.84375 l -0.42187,0.42188 M 172,158.68332 l 0,0.42188 1.26562,-1.47657 0.21094,0 0.84375,0.63282 0.21094,0 0,-0.21094 c -0.14065,-0.56246 -0.56252,-0.84371 -1.26563,-0.84375 -0.84376,4e-5 -1.26564,0.49223 -1.26562,1.47656 m -2.10938,-1.26562 1.89844,2.10937 c -0.39845,-1.12496 -0.89064,-1.82808 -1.47656,-2.10937 l -0.42188,0 m 14.76563,0.63281 c 1.40622,1.1016 2.10934,2.15629 2.10937,3.16406 l -0.84375,0 c -3e-5,1.00785 0.98435,1.92191 2.95313,2.74219 l 0,0.63281 -2.53125,-0.42187 c -0.98441,0.18753 -1.47659,0.46878 -1.47656,0.84375 0.70309,0.18753 1.05465,0.39847 1.05468,0.63281 l 0,0.42187 c -0.9844,4e-5 -1.47659,0.42191 -1.47656,1.26563 l 0,1.05469 1.26563,0 c 0.51559,3e-5 1.07809,-0.28122 1.6875,-0.84375 l 0.63281,0 -0.42188,0.84375 2.10938,-0.42188 6.96094,0.63281 c 2.24995,-0.23434 3.37495,-0.5859 3.375,-1.05468 l -0.21094,0 -2.53125,0.42187 c -3.23441,-0.65621 -4.8516,-1.85153 -4.85156,-3.58594 l 0,-0.42187 c -4e-5,-0.98434 0.42183,-1.47652 1.26562,-1.47656 l 0.63281,0.21093 0,-0.42187 -1.05468,-0.84375 c -4e-5,-0.42184 -0.21098,-0.63277 -0.63282,-0.63281 -0.42191,4e-5 -0.63285,0.21097 -0.63281,0.63281 l -0.21094,-0.21094 -0.21093,0 -0.21094,0.21094 0,0.21094 0.21094,0 c -0.28129,0.84379 -0.56254,1.26566 -0.84375,1.26562 l -0.21094,-0.21094 0,-0.21093 0.21094,-1.05469 c -0.42191,4e-5 -0.63285,-0.28121 -0.63282,-0.84375 l -0.42187,0 0,-0.63281 0.21094,0.21093 0.21093,0 0,-0.63281 0.42188,0 0,0.63281 0.21094,0 0,-0.63281 c -0.23441,-0.63277 -0.7266,-1.19527 -1.47657,-1.6875 l -0.63281,0.42188 c -0.72659,-0.56246 -1.50003,-0.84371 -2.32031,-0.84375 -1.12503,0.0938 -1.68753,0.30473 -1.6875,0.63281 m 13.5,-0.63281 1.6875,1.89843 0,1.26563 c -0.0938,1.12504 -0.58598,1.68754 -1.47656,1.6875 l 0.42187,0.42187 0.42188,0 0.84375,-0.21093 0.84375,0.21093 0.42187,-0.63281 0,-1.6875 c -4e-5,-1.28902 -1.05473,-2.27339 -3.16406,-2.95312 m -38.17969,0.21093 0.21094,0.63282 0.21094,0 0,-0.42188 -0.21094,-0.21094 -0.21094,0 m 1.47656,0 c -0.70313,0.77348 -1.05469,1.61723 -1.05468,2.53125 l 0,0.63282 c -1e-5,0.75004 0.28124,1.24222 0.84375,1.47656 l 0.21093,0 0,-0.21094 -0.21093,-1.05469 0.42187,0 c 0.0703,0.56254 0.28124,0.84379 0.63281,0.84375 l 0.63282,0 0,-0.42187 c -0.70314,-0.72652 -1.0547,-1.35933 -1.05469,-1.89844 l 0.21094,-1.47656 -0.63282,-0.42188 m 29.95313,2.32032 0,0.63281 c 1.21871,-1.68746 2.13277,-2.53121 2.74219,-2.53125 l 0,-0.42188 -0.42188,0 c -1.54691,1.12505 -2.32035,1.89848 -2.32031,2.32032 m -13.28906,2.53125 0,0.21093 c 1.31247,-2.10933 2.64841,-3.16402 4.00781,-3.16406 1.12497,4e-5 1.68747,0.56254 1.6875,1.6875 -0.14065,0.56254 -0.56253,0.84379 -1.26563,0.84375 l -0.21093,0 -0.84375,-0.63281 c -3e-5,0.84379 0.49216,1.26566 1.47656,1.26562 l 0.63281,0 c 0.42185,-0.11714 0.77341,-0.60933 1.05469,-1.47656 l -0.21094,-0.63281 0.42188,-0.42188 c -0.44535,-0.8437 -1.21878,-1.26558 -2.32032,-1.26562 l -0.63281,0 c -1.10159,4e-5 -2.36721,1.19535 -3.79687,3.58594 m 14.97656,-3.375 0,0.21093 1.26562,0.21094 0,-0.21094 c -4e-5,-0.2812 -0.21097,-0.42183 -0.63281,-0.42187 l -0.63281,0.21094 m -5.69531,-0.21094 0,0.42187 -0.42188,0 0.42188,-0.42187 m 0.42187,0.21094 0.21094,0.63281 -0.21094,0 -0.42187,-0.42188 0.21093,-0.21093 0.21094,0 m 0.21094,0.84375 0.21094,0 c 0.32809,0.14066 1.38277,1.96879 3.16406,5.48437 l 1.6875,2.10938 -0.42188,0 c -1.00784,-0.58591 -2.27347,-1.07809 -3.79687,-1.47657 l -0.84375,0.21094 0,-0.21094 0.42187,-0.42187 0.63282,0 0.21093,0.21094 0.21094,0 0.21094,-0.21094 -0.21094,-0.21094 0,-0.21094 0.42188,-0.42187 0.21093,0 0,0.21094 -0.21093,0.21093 0,0.21094 0.21093,0 0.42188,-0.42187 c -4e-5,0.98441 0.42184,1.47659 1.26562,1.47656 l 0,-0.21094 c -1.00784,-0.89059 -2.27347,-2.99996 -3.79687,-6.32812 m -14.97656,0.84375 c 0.56248,0.96097 0.84373,1.80472 0.84375,2.53125 l 0,1.47656 -1.26563,7.59375 1.6875,0 1.05469,0.21094 c -2e-5,-1.35935 0.7031,-3.18747 2.10937,-5.48438 l -0.42187,0 0,-0.21094 c 0.49216,-0.74996 1.05466,-1.24215 1.6875,-1.47656 l 0,0.42188 1.26562,-0.42188 c 1.12498,4e-5 1.68748,0.63285 1.6875,1.89844 l -0.63281,0.42187 -0.21094,-0.21093 -0.84375,0 -0.63281,0.63281 0,0.21094 c 0.21091,-0.23435 1.12498,-0.44528 2.74219,-0.63282 l 0.42187,-1.05468 -0.21093,-1.05469 0.84375,-0.63281 0,-0.21094 c -0.39847,4e-5 -1.31253,-0.42184 -2.74219,-1.26563 l -0.84375,0 0,-0.63281 c -2.25002,0.67973 -3.37502,1.94535 -3.375,3.79688 l -0.21094,-0.21094 -0.21094,0 0.21094,0.21094 0,0.21093 c -0.84377,1.40629 -1.40627,2.88285 -1.6875,4.42969 l -0.42187,0 0,-0.21094 c -2e-5,-1.05465 0.49216,-2.4609 1.47656,-4.21875 l -0.21094,-0.63281 0.63281,-1.89844 0.21094,0 0,0.42188 0.21094,0 0.21094,-1.05469 -0.21094,-1.05469 -1.26563,0.63282 0,-0.21094 c -0.28127,-1.54684 -0.91408,-2.32027 -1.89843,-2.32031 m -7.17188,0.63281 0,5.69531 0.21094,0 0.21094,-5.69531 -0.42188,0 m -8.64844,0.21094 -0.21093,0.21093 0,0.21094 0.21093,0 0.63282,-0.21094 0,-0.21093 -0.63282,0 m -0.21093,1.6875 1.05468,2.53125 -0.21093,0.84375 0.63281,-0.63282 0,-1.05468 -1.05469,-1.47657 0.42188,-0.42187 c 0.18749,0.58597 0.53906,1.00785 1.05468,1.26562 l 0.84375,0 0.63282,-0.63281 c -0.63282,4e-5 -1.33594,-0.42184 -2.10938,-1.26562 l -0.63281,0 -0.63281,0.84375 m 5.0625,-0.84375 0,0.42187 0.42187,0 0,-0.42187 -0.42187,0 m 24.46875,-0.21094 0.42187,0 0.84375,0.63281 0,0.21094 -1.26562,-0.63281 0,-0.21094 m 4.21875,0.84375 0.42187,0 0,0.21094 -0.42187,0.42187 -0.21094,0 0.21094,-0.63281 m 0.21093,0.63281 0.42188,0 0,0.42188 -0.42188,0 0,-0.42188 m -30.16406,0.84375 0,0.21094 0.21094,0 0.84375,-0.21094 0,-0.21094 -0.42188,0 -0.63281,0.21094 m 7.38281,-0.21094 0.42188,1.26563 0.21094,0 0,-1.05469 -0.21094,-0.21094 -0.42188,0 m 21.30469,0 0,0.21094 -0.42187,0.42188 -0.21094,-0.21094 0,-0.21094 0.21094,-0.21094 0.42187,0 m -29.10937,0.42188 -1.26563,1.6875 0,0.21094 0.21094,0 c -1e-5,-0.39841 0.42187,-1.03122 1.26562,-1.89844 l -0.21093,0 m 30.79687,-0.21094 0.42188,0 0,0.21094 -0.42188,0 0,-0.21094 m 9.28125,0 1.05469,0 -0.42188,0.42188 -0.63281,0 0,-0.42188 m -41.76562,0.42188 0.42187,0.42187 0,-0.42187 -0.42187,0 m 19.40625,0 0,0.42187 -0.42188,0.42188 -0.21094,0 0,-0.21094 0.63282,-0.63281 m -15.39844,0.84375 c -1e-5,0.42191 -0.14063,0.63284 -0.42188,0.63281 l 0,0.21094 0.63282,0 0,-0.84375 -0.21094,0 m 5.48437,0 -0.42187,0.63281 0.21094,0 0.42187,-0.63281 -0.21094,0 m -0.21093,1.47656 0.42187,0 c 0.98436,-0.5859 1.47655,-1.00778 1.47656,-1.26563 l 0,-0.21093 -0.42187,0 -1.47656,1.47656 m 10.125,-1.26563 -0.42188,0.63282 0.21094,0 0.42187,-0.63282 -0.21093,0 m -18.14063,0.21094 0,0.21094 c 1.3125,1.12503 2.57812,1.68753 3.79688,1.6875 l 2.53125,0 0.42187,-0.42188 0,-0.21093 -1.6875,0.42187 c -1.82813,3e-5 -3.44532,-0.56246 -4.85156,-1.6875 l -0.21094,0 m 27.42188,-0.21094 0,0.42188 -0.42188,0 0.42188,-0.42188 m -28.47657,0.84375 0,1.47657 0.21094,0 0,-1.47657 -0.21094,0 m 43.03125,-0.21093 0.42188,0 0,0.21093 -0.84375,0.84375 0,-0.21093 0.42187,-0.84375 m -34.80468,0.63281 0.42187,1.05469 0.21094,0 0,-0.21094 c -0.21095,-0.56247 -0.42189,-0.84372 -0.63281,-0.84375 m 1.47656,0.42187 0,0.21094 0.63281,0 0.84375,-0.21094 c 1.12499,0.46879 1.68748,1.1016 1.6875,1.89844 -0.23439,0.70316 -0.58595,1.05472 -1.05469,1.05469 l 0,0.21094 0.42188,0 c 0.84373,-0.28122 1.26561,-0.84372 1.26562,-1.6875 -0.37501,-1.12497 -1.07814,-1.68747 -2.10937,-1.6875 l -0.21094,0 -1.47656,0.21093 m 9.07031,-0.21093 0,0.42187 2.95313,3.375 -0.21094,0.21094 -0.21094,0 c -2e-5,-0.35153 -0.91409,-1.40622 -2.74219,-3.16406 l -0.21093,0 -1.26563,3.58593 8.01563,8.85938 1.89843,-2.95313 -5.48437,-6.32812 0.21094,-0.21094 0.21093,0 c 2.53123,3.09378 4.35935,5.13284 5.48438,6.11719 l 0.21094,0 0,-0.21094 -8.85938,-9.70312 m 23.83594,0.21093 0,0.42188 -0.42188,0 0.42188,-0.42188 m 2.53125,0.42188 0.21094,0.21094 0,0.63281 -0.63282,0.84375 0.42188,0 c 0.42182,-0.14059 0.63276,-0.56247 0.63281,-1.26563 l -0.63281,-0.42187 m -36.28125,0.42187 0,0.42188 0.21094,0 0,-0.42188 -0.21094,0 m 11.8125,0 0,0.21094 0.63281,0.42188 0.21094,0 0,-0.21094 -0.84375,-0.42188 m -16.03125,0.63282 0,12.44531 1.6875,0 0,-1.89844 0.21094,-10.96875 -1.47657,0 -0.42187,0.42188 m 2.32031,-0.42188 0,12.86719 0.21094,0 0.21094,-10.54688 -0.21094,-2.32031 -0.21094,0 m 15.82031,0 0,0.21094 c 0.84373,3e-5 1.2656,0.28128 1.26563,0.84375 l 0.21094,0 0,-0.63281 -1.05469,-0.42188 -0.42188,0 m -21.51562,0.21094 -0.21094,0.21094 0,0.21093 0.21094,0 0.21094,-0.21093 0,-0.21094 -0.21094,0 m 1.89844,0 0,0.21094 0.21093,0.21093 0.21094,0 0,-0.21093 -0.21094,-0.21094 -0.21093,0 m 18.5625,0 0,0.21094 0.84375,0 0,-0.21094 -0.84375,0 m 8.4375,0 -0.63282,1.05469 0.42188,0 c 0.2109,3e-5 0.42184,-0.28122 0.63281,-0.84375 l -0.21094,-0.21094 -0.21093,0 m 5.90625,0.63281 -0.21094,15.60938 0,0.84375 -0.42188,0.42187 -0.42187,0 c -1.96879,-1.94529 -2.95316,-3.07029 -2.95313,-3.375 l -0.21093,0 c -4e-5,1.96877 -0.63285,2.95314 -1.89844,2.95313 4.12496,4.96876 6.65621,7.85157 7.59375,8.64843 l 0,-0.21093 0.21094,-25.3125 -1.26563,0 -0.42187,0.42187 m -27,-0.21094 0,0.42188 0.21093,0 0,-0.42188 -0.21093,0 m -8.4375,0.21094 -0.42188,0.63281 0,0.21094 c 0.21093,3e-5 0.42187,-0.28122 0.63281,-0.84375 l -0.21093,0 m 2.95312,0 0,1.05469 0.21094,0 0,-1.05469 -0.21094,0 m 23.41406,0 c -3e-5,0.84378 -0.91409,1.68753 -2.74218,2.53125 l 0,0.42188 0.63281,0.63281 c 1.38278,-0.56247 2.57809,-0.84372 3.58594,-0.84375 1.54684,0.4219 2.32027,1.05471 2.32031,1.89844 l -0.42188,0.84375 0.84375,0 0.63282,-0.63282 0,-0.21093 -0.42188,-1.26563 c 0.42184,3e-5 0.63278,-0.14059 0.63281,-0.42187 l -1.05468,-0.84375 0,0.42187 -1.6875,-0.42187 -0.21094,0 -0.21094,0.21093 -0.21094,0 0,-0.42187 -0.42187,0 c -0.56253,3e-5 -1.68753,0.49222 -3.375,1.47656 l -0.21094,-0.21094 0,-0.21093 2.74219,-1.26563 -0.21094,-1.6875 -0.21094,0 m 11.17969,0.21094 0,21.30469 -0.21094,4.42968 c 0.28121,1e-5 0.42184,-0.21093 0.42188,-0.63281 l 0,-25.10156 -0.21094,0 m -36.49219,0.21094 0,0.21093 0.21094,0.21094 0.21094,0 0,-0.21094 -0.21094,-0.21093 -0.21094,0 m 28.26563,0.42187 0,0.42188 2.74219,-0.21094 2.74218,0.42187 0,-0.42187 -1.05468,-0.21094 -4.42969,0 m -27.42188,0.21094 0,0.21094 c 0.35156,3e-5 0.70312,0.56253 1.05469,1.6875 l 0.21094,0 0,-0.42188 c -0.23438,-0.63278 -0.65626,-1.12497 -1.26563,-1.47656 m -4.00781,1.05469 0,1.05468 0.63281,0.63282 0.21094,0 -0.42187,-1.26563 c -1e-5,-0.46872 0.49218,-0.74997 1.47656,-0.84375 l 0,-0.21094 -1.05469,0 c -0.5625,0.21097 -0.84375,0.42191 -0.84375,0.63282 m 2.10938,-0.42188 0,0.21094 1.05468,0.63281 0,-0.21094 -1.05468,-0.63281 m 7.38281,0 -0.21094,0.21094 0,0.21094 0.63281,0 -0.42187,-0.42188 m 24.67969,0 0,0.21094 0.42187,0 0,-0.21094 -0.42187,0 m 0.63281,0.21094 0,0.21094 c 1.12496,0.2344 1.68746,0.86721 1.6875,1.89843 l 0.21094,0 0,-0.63281 c -0.1641,-0.63278 -0.7266,-1.12497 -1.6875,-1.47656 l -0.21094,0 m 5.69531,0.21094 0,0.21093 0.21094,0.21094 0.21094,0 0,-0.21094 -0.21094,-0.21093 -0.21094,0 m -36.28125,0.21093 c -0.77344,0.84378 -1.33594,1.26566 -1.6875,1.26563 l 0,0.21094 0.42188,0 1.47656,-1.47657 -0.21094,0 m 6.75,1.47657 0,0.21093 0.21094,0 c -1e-5,-0.42184 0.28124,-0.84372 0.84375,-1.26562 0.56248,0.21097 0.84373,0.4219 0.84375,0.63281 l -0.63281,0.84375 0.21093,0 0.63282,-0.63281 0,-0.63281 -0.63282,-0.63282 c -0.79688,3e-5 -1.28907,0.49222 -1.47656,1.47657 m 30.79688,-1.47657 c 2.01558,2.10941 3.42182,3.16409 4.21875,3.16407 l 0.63281,-0.63282 0,-0.21093 -1.26563,0.42187 -0.21093,0 -3.16407,-2.74219 -0.21093,0 m -31.21875,0.21094 0,0.63281 0.21093,0 0,-0.63281 -0.21093,0 m -9.07032,0.42188 0,0.42187 c 0.375,0.91409 0.72656,1.40628 1.05469,1.47656 l 0,-0.21093 c -0.375,2e-5 -0.65625,-0.56248 -0.84375,-1.6875 l -0.21094,0 m 40.28907,0 0.42187,1.6875 0,0.42187 -0.63281,2.53125 0,0.84375 c -4e-5,0.28127 0.21089,0.4219 0.63281,0.42188 l -0.21094,1.47656 0,0.63281 c 0.70308,2e-5 1.3359,-0.35154 1.89844,-1.05469 l 0.63281,0.21094 0,-0.21094 c 0.18746,-0.7031 0.39839,-1.05466 0.63282,-1.05468 l 0.42187,0 0.21094,1.05468 c -5e-5,0.91409 -0.98442,1.96877 -2.95313,3.16407 l -0.84375,1.6875 0.21094,0 0.42188,0.42187 -0.84375,2.32031 0.21093,0 c 0.46871,2e-5 1.10152,-0.28123 1.89844,-0.84375 l 0.42188,0 0,0.63282 c 0.56245,-0.28124 0.8437,-0.70311 0.84375,-1.26563 l 0.42187,0 c -5e-5,1.07814 -0.98442,2.27345 -2.95312,3.58594 -1.12505,0.70314 -1.68755,1.6172 -1.6875,2.74219 l 0,0.42187 0.63281,0 -0.84375,2.32031 0,0.63282 0.21094,0 0.21093,-0.21094 0.21094,0 0.84375,1.89844 0.42188,0 -0.63282,-1.89844 0,-1.05469 c 1.1484,-2.8828 2.2734,-4.99217 3.375,-6.32812 l 1.26563,-3.58594 0,-2.10938 -0.21094,0 c -0.2813,1.26565 -0.63286,1.89846 -1.05469,1.89844 l -0.21093,-0.21094 0,-0.21093 c 0.23432,1e-5 0.6562,-0.77342 1.26562,-2.32032 -5e-5,-1.87497 -0.35161,-3.28122 -1.05469,-4.21875 l 0,-0.63281 -0.21093,0.21094 -0.42188,0 -0.21094,-1.47656 -0.21093,0 c -5e-5,1.40627 -0.14067,2.1094 -0.42188,2.10937 l -0.21094,0 0.21094,-1.05469 0,-0.42187 c -4e-5,-1.03122 -0.21098,-1.59372 -0.63281,-1.6875 l 0,0.21094 0.21094,0.21093 -0.63282,0.42188 c -4e-5,-1.2656 -0.3516,-2.03903 -1.05468,-2.32031 m -36.49219,0.21093 0,0.63282 0.21094,0 0,-0.63282 -0.21094,0 m 35.64844,0 0,0.21094 0.63281,0.42188 0,-0.21094 -0.63281,-0.42188 m -30.58594,0.21094 0,0.42188 0.21094,0 0,-0.42188 -0.21094,0 m 2.95312,1.26563 0.21094,0 c 0.53905,-0.28123 1.31248,-0.42185 2.32031,-0.42188 l 1.26563,0 0.21094,-0.21094 1.89843,0.63282 0,-0.21094 c -0.32814,-0.7031 -1.38283,-1.05466 -3.16406,-1.05469 -1.82814,3e-5 -2.7422,0.4219 -2.74219,1.26563 m -9.70312,-0.21094 0,0.21094 0.42187,-0.42188 0,-0.21094 -0.42187,0.42188 m 7.17187,-0.21094 c -1e-5,0.35159 -0.28126,0.84378 -0.84375,1.47656 l 0.21094,0 0.84375,-1.26562 0,-0.21094 -0.21094,0 m 25.73438,0.21094 c -0.0703,0.70315 -0.63285,1.05471 -1.6875,1.05469 l 0,0.21093 0.63281,0 c 0.56246,3e-5 0.98434,-0.35153 1.26563,-1.05468 l 0,-0.21094 -0.21094,0 m -35.22656,0.21094 -0.42188,0.63281 0,0.21094 0.63281,-0.84375 -0.21093,0 m 12.65625,0.21093 0,0.21094 0.21093,0 1.6875,-0.21094 0,-0.21093 -1.26562,0 -0.63281,0.21093 m 2.53125,-0.21093 0,0.21093 0.84375,0 0,-0.21093 -0.84375,0 m -13.71094,0.21093 0,0.21094 0.63281,0 0,-0.21094 -0.63281,0 m 26.15625,0.84375 c 0.98434,3e-5 1.47653,0.35159 1.47656,1.05469 l -3.79687,5.27344 -0.42188,2.53125 0,1.26562 -0.42187,0 c -0.37503,-1.40623 -1.28909,-2.10935 -2.74219,-2.10937 l -0.63281,0.21094 0.42187,0.63281 c -0.56252,0.0703 -0.84377,0.28127 -0.84375,0.63281 l 0,0.84375 c -2e-5,0.70314 0.28123,1.12502 0.84375,1.26563 l -0.42187,-1.47657 1.05468,-0.84375 c 1.14841,2e-5 2.62498,1.96877 4.42969,5.90625 2.24997,1.96876 4.7109,2.95314 7.38281,2.95313 l 1.47657,0 0,-0.42188 -0.21094,0 c -5.10941,1e-5 -8.06253,-2.24999 -8.85938,-6.75 l 0,-0.21093 c 0.30466,-2.10936 1.14841,-3.16405 2.53125,-3.16407 0.65622,2e-5 1.21872,0.4219 1.6875,1.26563 l 0,0.21094 -0.21093,1.05468 c 0.84371,-0.49217 1.26559,-1.12498 1.26562,-1.89843 l -0.84375,-1.6875 0.63281,-0.63282 c -0.14066,-0.42185 -0.56253,-0.63279 -1.26562,-0.63281 -0.98441,2e-5 -2.10941,0.63283 -3.375,1.89844 l -0.42188,0 0,-0.42188 c 0.18747,-0.53904 1.17185,-1.17185 2.95313,-1.89843 l 0,-0.63282 0.21094,0.21094 0.21093,0 c 0.42185,-0.5156 0.63278,-1.00779 0.63282,-1.47656 l 0,-0.42188 -0.42188,0 -0.21094,0.21094 -0.21093,0 0,-0.42187 0.63281,-1.47657 c -0.28128,-0.86716 -0.63285,-1.35934 -1.05469,-1.47656 l -0.84375,0 -0.63281,0.63281 m -13.92188,-0.42187 0,0.21094 1.05469,0.21093 1.26563,0 0,-0.21093 -0.84375,-0.21094 0,0.21094 -0.21094,-0.21094 -1.26563,0 m -12.23437,0.63281 0,0.21094 1.47656,0 0,-0.21094 -1.47656,0 m -1.47656,0.84375 0.21093,0 0.63282,-0.63281 c -0.56251,0.21096 -0.84376,0.4219 -0.84375,0.63281 m 3.79687,-0.63281 0,0.21094 0.42188,0 0,-0.21094 -0.42188,0 m 9.91406,0.42187 0,0.63282 1.6875,-0.21094 0.84375,0.42187 0.21094,-0.21093 c -0.0938,-0.56248 -0.65627,-0.84373 -1.6875,-0.84375 l -1.05469,0.21093 m 3.79688,0.21094 c 0.98435,3e-5 1.47654,0.28128 1.47656,0.84375 l -0.42187,2.10938 0,0.42187 0.21093,0 0.42188,-2.32031 0,-0.21094 c -2e-5,-0.72654 -0.21096,-1.14841 -0.63281,-1.26562 l -0.63282,0 -0.42187,0.42187 m 14.76562,0.42188 0.21094,0 0.42188,-0.42188 1.05468,0 0.84375,0.84375 0,0.21094 c -3e-5,0.9844 -0.42191,1.47658 -1.26562,1.47656 l 0,0.21094 0.42187,0 c 0.5859,-0.18748 1.00778,-0.53904 1.26563,-1.05469 l 0,-0.42187 c -4e-5,-1.12498 -0.56254,-1.68748 -1.6875,-1.6875 -0.70316,2e-5 -1.12504,0.28127 -1.26563,0.84375 m -12.02343,-0.21094 c -1.26565,3.14065 -1.89846,5.60158 -1.89844,7.38281 l 0.42187,4.21875 0.21094,0 -0.21094,-2.10937 0,-1.6875 c -2e-5,-2.8828 0.70311,-5.34373 2.10938,-7.38282 l -0.42188,-0.42187 -0.21093,0 M 158.5,177.6677 l 0,0.21093 0.21094,0.21094 0.21093,0 0,-0.21094 -0.21093,-0.21093 -0.21094,0 m 10.96875,0 -0.42188,1.26562 0,1.05469 0.42188,0.42187 0.21094,0 c -2e-5,-0.98435 0.21092,-1.47654 0.63281,-1.47656 l 0.84375,0 c 0.82029,2e-5 1.52342,1.40627 2.10937,4.21875 l 0.21094,0 0,-0.21094 c -0.58595,-3.5156 -1.92189,-5.27341 -4.00781,-5.27343 m -8.4375,0.21093 -0.21094,0.21094 0,0.21094 0.21094,0 0.21094,-0.21094 0,-0.21094 -0.21094,0 m 5.90625,1.47657 0.63281,1.6875 0,0.42187 -0.42187,0 0,0.42188 c -2e-5,0.39845 1.12498,0.89064 3.375,1.47656 l -0.42188,0.42187 -1.6875,-0.63281 c -0.98439,0.35158 -1.47657,0.84377 -1.47656,1.47656 0.28124,0.63283 0.56249,0.98439 0.84375,1.05469 -1e-5,-0.98436 0.49217,-1.47654 1.47656,-1.47656 2.24999,2e-5 4.49998,2.25001 6.75,6.75 l 0,0.21094 0.42188,0 c -0.96096,-2.78905 -2.64846,-5.39061 -5.0625,-7.80469 -2.53127,-1.89842 -3.79689,-3.44529 -3.79688,-4.64063 l 0.42188,-0.84375 -0.21094,0 c -0.23439,3e-5 -0.51564,0.49221 -0.84375,1.47657 m 6.32812,-1.05469 c -1e-5,3.02346 1.05467,6.96095 3.16407,11.8125 l 0.21093,0 0,-0.42188 c -1.68752,-3.23436 -2.53126,-7.10154 -2.53125,-11.60156 l -0.21093,-0.21094 -0.63282,0.42188 m -15.60937,-0.21094 0,1.05469 0.21094,0 0,-1.05469 -0.21094,0 m 2.10937,0.21094 0,0.21094 0.63282,0 0,-0.21094 -0.63282,0 m 1.26563,1.05469 0,0.84375 0.63281,0.63281 0.21094,0 -0.42188,-0.63281 0,-0.84375 c 0,-0.28123 0.21094,-0.42186 0.63282,-0.42188 l 0,-0.21094 -0.21094,0 c -0.56251,0.21096 -0.84376,0.4219 -0.84375,0.63282 m 27.21094,-0.42188 0.42187,0.42188 -0.21094,0.21093 -0.21093,0 0,-0.63281 m 2.10937,0.21094 0,0.21094 1.05469,0 0,-0.21094 -1.05469,0 m -1.05469,0.21094 0,0.21093 0.42188,0 0,-0.21093 -0.42188,0 m -13.92187,0.21093 -0.42188,1.89844 0,1.89844 0.21094,0 c -2e-5,-2.24998 0.42186,-3.37498 1.26563,-3.375 l 0,-0.42188 -1.05469,0 m 3.58594,0.63282 -0.21094,-0.21094 0,0.21094 0.21094,0.21093 c -0.37503,3e-5 -0.72659,0.91409 -1.05469,2.74219 l 0,0.42188 0.21094,0 c 0.37497,-2.10936 1.14841,-3.16404 2.32031,-3.16407 0.7031,3e-5 1.05466,0.56252 1.05469,1.6875 l 0.21093,0 0.21094,-1.05468 0,-0.42188 c -0.4219,-0.7031 -0.91409,-1.05466 -1.47656,-1.05469 l -1.47656,0.63282 m 11.39062,-0.42188 0,0.21094 0.63281,0 0,-0.21094 -0.63281,0 m 2.32031,0 0,0.42188 0.63282,0 0,-0.42188 -0.63282,0 m -15.60937,0.21094 0,0.42187 0.21094,0 0,-0.42187 -0.21094,0 m -18.77344,0.21094 0,0.21093 0.63281,0.42188 0,-0.21094 -0.63281,-0.42187 m 33.75,0 0,0.21093 0.84375,0.63282 0,-0.21094 -0.84375,-0.63281 m 9.91406,0 -1.05468,1.26562 0.21093,0 1.05469,-1.26562 -0.21094,0 m -42.82031,0.63281 0,0.21094 0.21094,0.21093 0.21094,0 0,-0.21093 -0.21094,-0.21094 -0.21094,0 m 34.38281,0 0,0.21094 0.42188,0.42187 0,-0.63281 -0.42188,0 m -1.89843,0.21094 0,0.42187 0.42187,0.42188 0.21094,-0.21094 0,-0.21094 -0.42188,-0.42187 -0.21093,0 m 8.22656,0 0,0.21093 0.42187,0 0,-0.21093 -0.42187,0 m -39.44531,0.42187 0,0.21094 1.05468,0 0,-0.21094 -1.05468,0 m 38.39062,0.42188 0.42188,0 0,-0.42188 -0.42188,0.42188 m 1.26563,-0.21094 0,0.21094 0.42187,0 0.21094,-0.21094 0,-0.21094 -0.63281,0.21094 m -9.70313,0.21094 0,0.21093 3.58594,3.79688 0.21094,0 c -1.12504,-1.54686 -2.32035,-2.8828 -3.58594,-4.00781 l -0.21094,0 m 2.32031,0.21093 0,0.21094 0.42188,0.42188 0.42187,-0.42188 -0.21093,-0.21094 -0.63282,0 m -35.22656,5.0625 -0.21094,-0.21093 -0.21093,0 0.21093,0.21093 0,0.21094 -0.42187,1.6875 0,2.10938 c 0.28125,1.82813 0.63281,2.74219 1.05469,2.74218 l 0.21093,0 c -0.70312,-1.5703 -1.05469,-2.76561 -1.05468,-3.58593 -1e-5,-3.91405 2.17968,-6.4453 6.53906,-7.59375 l 1.26562,-0.21094 2.10938,0.21094 -0.42188,-0.42188 -1.47656,0 c -3.51563,2e-5 -6.04688,1.54689 -7.59375,4.64063 l 0,0.21093 m -0.84375,-4.00781 c 0.14063,0.84377 0.35156,1.26564 0.63281,1.26563 l 0.42188,0 c 0.77343,1e-5 1.40625,-0.42186 1.89844,-1.26563 l -1.6875,0.63281 -0.42188,0 c -0.28125,2e-5 -0.42188,-0.35154 -0.42187,-1.05468 l -0.42188,0.42187 m 42.60938,-0.42187 -0.21094,0.21093 0,0.21094 0.21094,0 0.21093,-0.21094 0,-0.21093 -0.21093,0 m -35.64844,0.63281 0,5.69531 c -0.32813,3.09376 -1.31251,4.64063 -2.95313,4.64063 -1.40625,0 -2.10937,0.21094 -2.10937,0.63281 l 0.21094,0.21094 0.21093,0 5.69532,-0.42188 6.11718,0.63281 0.21094,-0.21093 0,-0.42188 -0.21094,0 c -3.51563,1e-5 -5.27344,-1.1953 -5.27343,-3.58594 l 0,-4.21875 -0.21094,-3.16406 -0.63281,0 -1.05469,0.21094 m 2.32031,-0.21094 0,8.01563 0.21094,0 0,-8.01563 -0.21094,0 m 7.59375,0.21094 0,0.42187 0.21094,0 0,-0.42187 -0.21094,0 m 13.28906,0.42187 c 0.25778,0.63283 0.74997,1.19533 1.47657,1.6875 l 0.42187,-0.63281 0,-0.42187 c -0.28128,-0.56249 -0.70316,-0.84374 -1.26562,-0.84375 l -0.63282,0.21093 m -11.60156,0 0,0.63282 0.21094,0 0,-0.63282 -0.21094,0 m -13.92187,0.21094 -1.6875,1.89844 0,0.84375 c -1e-5,0.84376 0.42187,1.26564 1.26562,1.26562 l 0.21094,0 0.42187,-0.42187 c -0.98438,1e-5 -1.47656,-0.35155 -1.47656,-1.05469 0,-0.6328 0.49218,-1.47654 1.47656,-2.53125 l -0.21093,0 m 16.45312,0.21094 0.21094,2.74219 0.21094,0 0,-2.74219 -0.42188,0 m -1.05469,1.6875 0,0.63281 0.21094,0 0,-0.63281 -0.21094,0 m -10.125,0.63281 c -1e-5,0.21095 0.70312,0.56252 2.10938,1.05469 1.12498,1.28907 1.68748,2.27345 1.6875,2.95312 l 0,2.95313 0.42187,-0.42188 0,-1.05468 c -1e-5,-3.16405 -1.40626,-4.99218 -4.21875,-5.48438 m -8.01562,0.21094 -0.21094,0.63281 0,0.42188 0.21094,0 0.21094,-0.84375 0,-0.21094 -0.21094,0 m 20.46094,0.21094 c -0.56253,2.10938 -1.05471,3.16407 -1.47657,3.16406 l -0.42187,0.42187 0,0.42188 c -2e-5,0.77345 0.35154,1.33595 1.05469,1.6875 l 0,-0.21094 -0.42188,-0.42187 0,-0.21094 1.05469,1.05469 0,0.21093 -0.21094,-0.21093 -0.42187,0 0,0.21093 c 0.44529,1e-5 0.86716,0.35157 1.26562,1.05469 l 0,1.05469 -0.21094,0 -1.6875,-0.21094 c -1.12502,0.37501 -1.68752,0.72657 -1.6875,1.05469 l 1.26563,1.26562 0,-0.21093 -0.63281,-0.63282 0.21093,0 1.47657,0.63282 -0.42188,0.63281 1.05469,0.21094 1.47656,-0.84375 c 0.8906,0.98437 1.87497,1.47656 2.95313,1.47656 l 0.42187,-0.42188 c -0.51565,1e-5 -0.93753,-0.42187 -1.26562,-1.26562 l 0.21093,-0.21094 1.05469,0.21094 c 0.98435,0 1.75778,-0.98437 2.32031,-2.95313 0.37497,-0.42186 1.00778,-0.6328 1.89844,-0.63281 -0.28128,-0.56249 -0.70316,-0.84374 -1.26562,-0.84375 l -1.05469,0.21094 0,-1.26563 -0.21094,0 -1.05469,0.21094 0,0.42188 0.42188,0 -0.63281,0.63281 -0.21094,0 0,-0.21094 0.21094,-0.21094 0,-0.21093 -0.21094,0 -0.21094,0.21093 0,1.89844 -0.84375,0 0,-0.21094 0.21094,-3.16406 -0.21094,-0.63281 -0.21094,0 0,0.21094 0.21094,1.05468 0,0.21094 -0.21094,0 c -2e-5,-0.42186 -0.21096,-0.6328 -0.63281,-0.63281 l 0,-0.42188 0.42188,0 -0.21094,-0.21093 0,-0.42188 0.42187,0 c -0.18752,-0.58592 -0.53909,-1.0078 -1.05468,-1.26562 l -0.63282,0.63281 -0.21093,0 c -3e-5,-0.98436 -0.56253,-1.7578 -1.6875,-2.32031 m -17.50782,2.32031 0,0.21094 c 0.16406,1.05469 0.44531,1.61719 0.84375,1.6875 l 0.42188,-0.42188 0,-0.42187 -0.63281,-1.47657 0.84375,-1.47656 0,-0.21094 -0.21094,0 c -0.84376,0.56252 -1.26563,1.26564 -1.26563,2.10938 m 9.28125,-0.84375 c 0.28124,0.53907 0.42186,1.31251 0.42188,2.32031 l 0.21094,0 0,-2.10937 1.05468,-0.84375 c 0.56249,1e-5 0.84374,0.35157 0.84375,1.05468 l 0.42188,-0.42187 c -2e-5,-0.84374 -0.49221,-1.26561 -1.47656,-1.26563 l -0.63282,0 c -0.28126,2e-5 -0.56251,0.42189 -0.84375,1.26563 m 6.11719,-1.05469 0,0.42188 0.21094,0 0,-0.42188 -0.21094,0 m 10.75781,1.26563 0,0.63281 c -3e-5,1.12501 0.91403,2.03907 2.74219,2.74219 l 0.21094,0 0,-0.21094 c -0.37504,1e-5 -0.86722,-0.35155 -1.47656,-1.05469 l 0.21093,-0.21094 -0.21093,0 -0.21094,0.21094 -0.42188,-0.84375 0,-0.42187 c -3e-5,-0.84374 0.35153,-1.26562 1.05469,-1.26563 l 0,-0.21094 -1.26562,0 -0.63282,0.63282 m 10.75782,-0.63282 -0.42188,0.63282 0,0.63281 0.42188,0.42187 0.42187,0 -0.42187,-0.63281 0,-0.63281 0.21093,-0.21094 0,-0.21094 -0.21093,0 m -40.28907,0.21094 0,0.84375 c 0.14063,0.84376 0.35156,1.26564 0.63282,1.26563 l 0.21093,0 0,-0.42188 c -0.42187,-0.51561 -0.63281,-1.07811 -0.63281,-1.6875 l -0.21094,0 m 1.47657,1.05469 0,0.63281 0.63281,0 0,-0.42187 -0.63281,-0.21094 m 7.38281,1.47656 0,0.42188 1.26562,-1.05469 1.47657,0.84375 0,-0.21094 c -0.28127,-0.84374 -0.84377,-1.26561 -1.6875,-1.26562 l -0.42188,0 c -0.42189,0.14063 -0.63282,0.56251 -0.63281,1.26562 m 5.90625,-0.63281 0,0.84375 c 0.37498,-0.56249 0.93748,-0.84374 1.6875,-0.84375 l 0,-0.21094 -1.05469,0 -0.63281,0.21094 m 31.00781,0 0.42188,0.42187 0,-0.42187 -0.42188,0 m -1.26562,0.21094 -0.21094,0.21093 0,0.21094 0.21094,0 0.21093,-0.21094 0,-0.21093 -0.21093,0 m -42.82032,0.21093 0,0.84375 0.21094,0 0.42188,-0.42187 -0.42188,-0.42188 -0.21094,0 m -1.05468,0.42188 0,0.42187 0.42187,0 0,-0.42187 -0.42187,0 m 43.45312,0 -0.63281,2.32031 c 0.98433,0.60938 1.54683,1.38282 1.6875,2.32031 l -1.05469,1.47657 c 0.98433,-0.42187 1.47652,-1.125 1.47656,-2.10938 l -1.6875,-1.89844 0,-0.42187 0.42188,-1.6875 -0.21094,0 m -36.07031,0.42187 0,0.42188 0.21094,0.21094 0.21093,0 -0.21093,-0.63282 -0.21094,0 m 8.4375,0.84375 -1.47656,-0.21093 -0.21094,0 c -0.32814,1e-5 -0.53908,0.35157 -0.63281,1.05468 l 0.63281,0 c 0.96092,1e-5 1.66404,0.56251 2.10937,1.6875 0.84373,-0.70311 1.82811,-1.12499 2.95313,-1.26562 -0.16409,-0.6328 -0.72659,-1.12499 -1.6875,-1.47656 l 0,0.21093 0.21094,0.21094 -0.42188,0 c -2e-5,-0.56249 -0.28127,-0.84374 -0.84375,-0.84375 l 0,-0.21094 c -0.42189,1e-5 -0.63283,0.28126 -0.63281,0.84375 m 1.89844,0.21094 0.21093,0 0.42188,0.42188 -0.21094,0 -0.42187,-0.42188 m 4.64062,0 0.84375,4.21875 -0.42187,0 -0.84375,-4.00781 0.21093,-0.21094 0.21094,0 m 9.07031,1.47656 0,0.21094 0.63282,0 0,-0.21094 -0.63282,0 m 3.58594,0 0,0.21094 0.84375,0 0,-0.21094 -0.84375,0 m -16.24219,0.21094 0,0.21094 0.63282,0 0,-0.21094 -0.63282,0 m 11.60157,0.21094 0,0.21094 0.21093,0 0.63282,-0.21094 0,-0.21094 -0.21094,0 -0.63281,0.21094 m 1.05468,3.16406 0.63282,0.21094 0.63281,-0.21094 c 0.28121,0.84375 0.84371,1.26563 1.6875,1.26563 1.10152,0 1.73433,-0.49219 1.89844,-1.47657 l 0,-0.21093 -0.21094,0 c -4e-5,0.42188 -0.28129,0.77344 -0.84375,1.05468 l -0.42188,0 c -0.98441,1e-5 -1.4766,-0.49218 -1.47656,-1.47656 l 0,-1.05469 c 0.53903,-0.84374 1.03121,-1.26561 1.47656,-1.26562 l 0,-0.21094 -0.21093,0 c -1.68754,1e-5 -2.74223,1.12501 -3.16407,3.375 m -13.5,-3.16406 0,0.21094 0.42188,0 0,-0.21094 -0.42188,0 m 6.96094,0 0,0.63281 -0.63281,0 0.63281,-0.63281 m 2.74219,1.47656 1.26562,0 0.21094,-0.21094 0.21094,0 0,1.47657 0.42187,0 0.42188,-1.05469 -0.21094,-1.26563 0.21094,-0.21093 c -0.98441,0 -1.82816,0.42188 -2.53125,1.26562 m -27.63281,-1.05469 0,0.42188 0.84375,0.21094 4.21875,-0.42188 6.53906,0.63281 c 0.70311,-0.18749 1.05467,-0.39843 1.05469,-0.63281 l 0,-0.21094 -0.84375,0.42188 -4.21875,-0.42188 -2.10938,0 -5.27344,0.21094 -0.21093,-0.21094 m 15.82031,1.47657 0.21094,0 0.63281,-0.84375 0,-0.21094 -0.84375,1.05469 m 5.0625,-1.26563 0.42187,0 0,0.42188 c -2e-5,0.32813 -0.35158,0.53906 -1.05468,0.63281 l 0.63281,-1.05469 m -21.72656,0.42188 c 0.42187,0.72656 0.63281,1.42969 0.63281,2.10937 0,0.42188 -0.28125,0.63282 -0.84375,0.63281 l 0,0.21094 0.84375,0 0.42187,-0.42187 0,-0.63282 c -0.28125,-1.26562 -0.63281,-1.89843 -1.05468,-1.89843 m 43.03125,0 -0.21094,1.05468 0,1.26563 c -5e-5,0.28125 0.42183,0.5625 1.26562,0.84375 l 0,-0.21094 c -0.70317,-0.51562 -1.05473,-1.28906 -1.05468,-2.32031 l 0.21093,-0.21094 0,-0.42187 -0.21093,0 m -20.67188,0.21093 0,0.21094 -0.21094,0.63281 -0.42187,0 0.63281,-0.84375 m 13.71094,0.21094 0,0.21094 1.05469,0.42187 0,-0.21093 c -4e-5,-0.28125 -0.21098,-0.42187 -0.63282,-0.42188 l -0.42187,0 m -34.38281,0.21094 0,0.21094 c 1.64062,1.125 2.97655,1.6875 4.00781,1.6875 l 0.42187,0 c 2.39062,0 4.0078,-0.63281 4.85157,-1.89844 l -0.42188,0 c -0.98439,0.86719 -2.39063,1.42969 -4.21875,1.6875 -1.85157,-0.21093 -3.32813,-0.77343 -4.42969,-1.6875 l -0.21093,0 m 4.64062,0.63281 0,0.21094 0.63281,0 0.63282,-0.21094 0,-0.63281 -0.21094,0 -1.05469,0.63281 m 8.01563,0.21094 0.21093,0.21094 1.47657,0 0.21093,1.47656 0.21094,0 0.42188,-1.47656 c -0.46877,-0.5625 -0.89065,-0.84375 -1.26563,-0.84375 -0.84377,0.14063 -1.26564,0.35156 -1.26562,0.63281 m 5.0625,-0.63281 0.21093,0 0.63282,0.21093 0,0.21094 -0.84375,0 0,-0.42187 m 9.70312,0.21093 0,0.42188 0.42188,0 0,-0.42188 -0.42188,0 m -17.92969,0.63282 0,0.42187 0.42188,0 0,-0.42187 -0.42188,0 m 1.26563,0 0,0.21093 0.42187,0 0,-0.21093 -0.42187,0 m 25.52344,1.26562 1.6875,-0.63281 0.21093,0 0.63282,0.42187 -0.21094,0.21094 0,0.42188 0.42187,0 0,-0.84375 -0.42187,-0.42188 -1.26563,0 -1.05468,0.84375 m -23.20313,-0.42187 -0.21094,0.21093 0,0.21094 0.21094,0 0.21094,-0.21094 0,-0.21093 -0.21094,0 m -3.58594,0.21093 0.42188,0.42188 0.21094,0 -0.42188,-0.42188 -0.21094,0 m 1.47657,0 0,0.21094 1.05468,0 0,-0.21094 -1.05468,0 m -4.00782,0.21094 0,0.21094 0.21094,0.21094 0.21094,0 0,-0.21094 -0.21094,-0.21094 -0.21094,0"
         style="font-size:72px;font-variant:normal;font-stretch:normal;font-family:Goudy Initials;-inkscape-font-specification:Goudy Initials"
         id="path4378" />
    </g>
  </g>
</svg>
