<?xml version="1.0" encoding="UTF-8" standalone="no"?>
<!-- Created with Inkscape (http://www.inkscape.org/) -->

<svg
   xmlns:dc="http://purl.org/dc/elements/1.1/"
   xmlns:cc="http://creativecommons.org/ns#"
   xmlns:rdf="http://www.w3.org/1999/02/22-rdf-syntax-ns#"
   xmlns:svg="http://www.w3.org/2000/svg"
   xmlns="http://www.w3.org/2000/svg"
   xmlns:sodipodi="http://sodipodi.sourceforge.net/DTD/sodipodi-0.dtd"
   xmlns:inkscape="http://www.inkscape.org/namespaces/inkscape"
   width="56.734375"
   height="56.734375"
   id="svg2"
   version="1.1"
   inkscape:version="0.48.5 r10040"
   sodipodi:docname="o.svg">
  <defs
     id="defs4" />
  <sodipodi:namedview
     id="base"
     pagecolor="#ffffff"
     bordercolor="#666666"
     borderopacity="1.0"
     inkscape:pageopacity="0"
     inkscape:pageshadow="2"
     inkscape:zoom="3.959798"
     inkscape:cx="43.996764"
     inkscape:cy="5.617196"
     inkscape:document-units="px"
     inkscape:current-layer="layer1"
     showgrid="false"
     fit-margin-top="2"
     fit-margin-left="2"
     fit-margin-right="2"
     fit-margin-bottom="2"
     inkscape:window-width="1366"
     inkscape:window-height="733"
     inkscape:window-x="0"
     inkscape:window-y="0"
     inkscape:window-maximized="1"
     showborder="true"
     borderlayer="false" />
  <metadata
     id="metadata7">
    <rdf:RDF>
      <cc:Work
         rdf:about="">
        <dc:format>image/svg+xml</dc:format>
        <dc:type
           rdf:resource="http://purl.org/dc/dcmitype/StillImage" />
        <dc:title></dc:title>
      </cc:Work>
    </rdf:RDF>
  </metadata>
  <g
     inkscape:label="Layer 1"
     inkscape:groupmode="layer"
     id="layer1"
     transform="translate(-152.28125,-146.34738)">
    <g
       style="font-size:40px;font-style:normal;font-weight:normal;line-height:125%;letter-spacing:0px;word-spacing:0px;fill:#ffffff;fill-opacity:1;stroke:none;font-family:Sans"
       id="flowRoot2985">
      <path
         d="m 154.28125,148.34738 52.73437,0 0,52.73438 -52.73437,0 0,-52.73438 m 1.05469,1.05469 0,50.625 50.625,0 0,-50.625 -50.625,0 m 0.42187,0.63281 49.57031,0 0,49.57032 -49.57031,0 0,-49.57032 m 4.21875,0.42188 0,0.21094 c 0.5625,5e-5 0.84375,0.49223 0.84375,1.47656 l 0.21094,0 0,-1.47656 -0.21094,-0.21094 -0.84375,0 m 0.21094,3.58594 0.21094,0 c 2.83593,-2.10933 5.29686,-3.16402 7.38281,-3.16407 l 0.42187,0 c 1.42968,5e-5 3.2578,0.63287 5.48438,1.89844 l 0.42187,0 c -1.73439,-1.54682 -3.84376,-2.32026 -6.32812,-2.32031 l -0.42188,0 c -2.41407,5e-5 -4.80469,1.12505 -7.17187,3.375 l 0,0.21094 m 17.08594,-3.375 0.21093,0.21093 0,0.63282 -0.42187,0.42187 -0.42188,0 c -0.70314,5e-5 -1.82814,-0.35151 -3.375,-1.05469 l -0.21093,0 0,0.21094 3.79687,1.26563 c 1.12498,-0.0937 1.68748,-0.30464 1.6875,-0.63282 l 0,-0.63281 -0.63281,-0.63281 -0.21094,0 -0.21094,0.21094 -0.21093,0 m 4.42968,0.63281 c -2e-5,0.58599 0.7031,1.07817 2.10938,1.47656 l 0.21094,0 0,-0.21094 c -0.56253,5e-5 -0.98441,-0.2812 -1.26563,-0.84375 l 0,-0.42187 c -3e-5,-0.2812 0.21091,-0.42183 0.63281,-0.42188 l -0.42187,-0.42187 -0.63281,0 c -0.21097,5e-5 -0.42191,0.2813 -0.63282,0.84375 m 17.71875,-0.84375 -0.21093,1.05469 c 0.2812,0.63286 0.56245,0.98442 0.84375,1.05468 l 0,-0.21093 -0.42188,-0.63282 0,-0.42187 0.42188,-0.42188 0.21093,0 0.21094,0.21094 0.21094,0 0,-0.42187 -1.05469,-0.21094 -0.21094,0 m 2.10938,1.89844 -0.84375,-0.42188 0,1.05469 c -5e-5,0.70317 0.49214,1.4063 1.47656,2.10937 l 0.21094,0.21094 0,0.63281 -0.42188,0.42188 -0.21093,0 c -0.23442,4e-5 -0.72661,-0.84371 -1.47657,-2.53125 L 199,153.40988 l -1.05469,0 -0.42187,0.42188 0.63281,0.21094 0,0.21093 c -0.77348,5e-5 -1.19536,0.49224 -1.26563,1.47657 l 0.63282,0.84375 0.21093,0 c -4e-5,-0.84371 0.2109,-1.26558 0.63282,-1.26563 l 0.84375,0 2.53125,2.53125 0.84375,0 c 0.70307,-0.2812 1.05464,-0.77339 1.05468,-1.47656 -4e-5,-0.77339 -0.56254,-1.9687 -1.6875,-3.58594 l 0,-0.63281 c -4e-5,-0.25776 0.35152,-0.67964 1.05469,-1.26563 0.70308,0.14068 1.05464,0.42193 1.05469,0.84375 l -1.05469,1.47657 0,0.21093 0.84375,0.21094 -0.42187,-0.63281 0,-0.21094 c 0.56245,5e-5 0.8437,-0.21089 0.84375,-0.63281 l 0,-0.84375 c -0.23443,-0.56245 -0.72661,-0.8437 -1.47657,-0.84375 l -0.21093,0 c -0.2813,5e-5 -0.63286,0.63286 -1.05469,1.89844 m -45.14063,-0.42188 0.63282,1.47656 -0.21094,0.63282 0.21094,0 0.42187,-0.42188 c 0,-0.51558 -0.28125,-1.07807 -0.84375,-1.6875 l 0,-0.21094 c 0,-0.2812 0.21094,-0.42182 0.63281,-0.42187 0.75,5e-5 1.17188,0.70317 1.26563,2.10937 l -1.05469,3.16407 0.21094,0 0.42187,-0.42188 0,0.84375 -0.63281,0 0,0.21094 0.63281,0 -0.42187,0.42187 -0.21094,-0.21093 -0.21094,0 -0.21093,1.26562 c 1.26562,-1.26558 2.10937,-1.89839 2.53125,-1.89844 l 0,0.21094 c -1.68751,1.40629 -2.53126,2.32036 -2.53125,2.74219 l 0.21093,0 c 0.49219,-0.84371 1.125,-1.26558 1.89844,-1.26563 -1.21875,1.07817 -1.99219,1.92192 -2.32031,2.53125 l 0.21094,0 c 0.63281,-0.89058 1.82812,-1.73433 3.58593,-2.53125 l 0,-0.21093 -0.63281,-0.84375 c 1.26562,-0.18746 1.89843,-0.82027 1.89844,-1.89844 l -0.21094,-0.21094 -1.6875,0 0,-0.63281 -1.47656,0.84375 -0.21094,0 0,-0.42188 c 1.125,-0.8437 1.6875,-1.61714 1.6875,-2.32031 l 0,-0.21094 -0.21094,0.21094 -0.42187,0 c -0.1875,5e-5 -0.46875,-0.56245 -0.84375,-1.6875 l -1.26563,-0.42187 c -0.5625,0.14067 -0.84375,0.56255 -0.84375,1.26562 m 16.03125,-1.26562 0,0.21093 0.42188,0 0,-0.21093 -0.42188,0 m 13.07813,0 0,0.63281 c -3e-5,0.56255 0.56247,0.8438 1.6875,0.84375 l -0.21094,0.21094 0,0.42187 0.84375,0.21094 3.58594,-1.05469 0,0.42188 c -0.44535,5e-5 -0.86722,0.35161 -1.26563,1.05468 l 0,1.05469 0.84375,0.21094 0,-1.05469 c 0.91403,-1.26557 2.39059,-1.89839 4.42969,-1.89844 l 4.21875,1.26563 0,-0.21094 c -1.61723,-1.26557 -3.30473,-1.89839 -5.0625,-1.89844 l -1.89844,0 -4.85156,0.84375 -0.42187,0 c -0.7266,5e-5 -1.14847,-0.21088 -1.26563,-0.63281 l 0.21094,-0.21094 0,-0.21093 -0.84375,0 m -17.92969,1.05468 0.84375,0.84375 0,-0.63281 -0.84375,-0.21094 m 1.47656,0.21094 0,0.63281 0.63282,0 0,-0.63281 -0.63282,0 m -4.64062,0.21094 0,0.21094 c 1.12499,5e-5 1.68749,0.2813 1.6875,0.84375 l 0,0.42187 0.21094,0 0.63281,-0.21094 0,-0.63281 -0.63281,-0.63281 -1.89844,0 m 6.96094,0 0.21093,0.21094 0,0.21093 -0.42187,0.84375 0.63281,0 0,-0.42187 0.21094,0 -0.63281,-0.84375 m 23.83593,0.21094 c -4e-5,0.2813 -0.21097,0.42192 -0.63281,0.42187 l -0.21094,0.21094 0,1.26562 c -4e-5,0.32818 0.35153,0.53911 1.05469,0.63282 l 0.21094,-0.21094 0,-0.21094 -0.63281,-0.63281 0,-0.42188 c -4e-5,-0.56245 0.70308,-0.8437 2.10937,-0.84375 l 0,-0.21093 -1.89844,0 m -27.63281,4.42968 0.21094,0 0.63281,-0.42187 0.21094,0 c 0.0234,0.56254 0.16405,0.84379 0.42187,0.84375 2.90624,-2.10933 6.0703,-3.16402 9.49219,-3.16406 l 0.84375,0 c 3.63279,4e-5 6.86716,1.05473 9.70313,3.16406 l 2.32031,-0.42188 0,-0.21093 c -1.05472,-1.28902 -3.44535,-2.34371 -7.17188,-3.16407 -1.7344,-0.42182 -3.35158,-0.63276 -4.85156,-0.63281 -4.71096,5e-5 -8.64845,1.33599 -11.8125,4.00781 m 17.08594,-4.00781 0,0.21094 0.63281,0 0,-0.21094 -0.63281,0 m -17.08594,0.21094 0,0.42187 0.63281,0 0,-0.42187 -0.63281,0 m 1.47656,0.21094 0,0.42187 0.42188,0 0,-0.42187 -0.42188,0 m 18.98438,0.63281 0.21094,0.21094 0.42187,0 c -3e-5,-0.42183 0.21091,-0.63277 0.63281,-0.63282 l 0,-0.21093 -0.42187,0 c -0.56253,0.21098 -0.84378,0.42192 -0.84375,0.63281 m 4.42969,0 0,0.63281 0.21093,1.05469 -1.05468,-0.21094 0,0.21094 c 0.2109,1.26567 0.84371,1.89848 1.89843,1.89844 l 0,0.63281 -2.32031,-0.42188 -1.05469,0 -0.42187,0.42188 0.63281,0.21094 c -3e-5,0.28129 -0.3516,0.42191 -1.05469,0.42187 l -1.05468,1.89844 c 0.53903,0.42191 1.17184,0.63285 1.89843,0.63281 l 1.6875,-0.63281 0,0.21094 -0.42187,1.05468 0.84375,0 c 0.51559,4e-5 1.07809,-0.28121 1.6875,-0.84375 0.28121,4e-5 0.42183,0.35161 0.42187,1.05469 l 0.84375,0.42188 0.21094,-0.21094 0,-0.21094 -0.21094,-0.84375 c -4e-5,-0.51558 0.49215,-1.00777 1.47657,-1.47656 l 1.26562,0.63281 0,-0.21094 -0.63281,-0.63281 0,-0.21094 0.21094,0 c 0.44527,5e-5 0.86714,0.70317 1.26562,2.10938 l -0.21094,0.63281 0,0.21094 0.21094,0 L 199,160.7927 c -0.60942,-1.54684 -1.45317,-2.32027 -2.53125,-2.32032 l -1.47656,0.21094 c 0.23433,-1.26558 0.51558,-1.89839 0.84375,-1.89844 l 0,0.63282 -0.42188,0.63281 c 1.92183,4e-5 3.11715,0.56254 3.58594,1.6875 l 0.21094,0.84375 0.21093,0 0,-0.42188 c -0.63285,-1.68745 -1.68754,-2.5312 -3.16406,-2.53125 l 0,-0.21093 0.21094,-0.21094 0.21094,0 1.05468,0.42187 0,-0.21093 c -2.50785,-1.10152 -3.9141,-1.94527 -4.21875,-2.53125 l -0.21093,-1.6875 c -0.56254,0.21098 -0.84379,0.42192 -0.84375,0.63281 m -29.74219,-0.21094 0,0.21094 c 0.42187,5e-5 0.6328,0.21098 0.63281,0.63281 l 0.21094,0 0,-0.63281 -0.63281,-0.21094 -0.21094,0 m -1.6875,6.96094 0.42187,2.32031 0.21094,0 0.21094,-0.63281 -0.42188,-2.10938 c 0.86718,-3.6562 2.625,-5.48432 5.27344,-5.48437 l 0.42188,0 c 0.98436,0.0469 1.47655,0.18755 1.47656,0.42187 l 0.63281,-0.21093 c -1e-5,-0.28121 -0.56251,-0.56246 -1.6875,-0.84375 -4.35938,0.56254 -6.53907,2.74223 -6.53906,6.53906 m 37.75781,-6.75 0.21094,0 c 0.98433,0.18755 1.47652,0.4688 1.47656,0.84375 l 0,0.21094 -0.21094,0 c -0.51567,-0.42183 -1.00785,-0.63277 -1.47656,-0.63282 l 0,-0.42187 m -29.32031,3.79687 0.21094,0 c 2.67185,-1.9687 6.3281,-2.95307 10.96875,-2.95312 l 0,-0.21094 -2.53125,0 c -3.16409,5e-5 -6.0469,1.05473 -8.64844,3.16406 m 11.39062,-2.95312 0,0.21094 1.6875,0 0,-0.21094 -1.6875,0 m 1.89844,0.21094 0,0.21093 0.84375,0 0,-0.21093 -0.84375,0 m 1.05469,0.21093 0,0.21094 0.42187,0 0,-0.21094 -0.42187,0 m -4.64063,0.21094 0,0.21094 1.05469,0.21094 0,1.05468 -0.84375,0.21094 0,0.21094 0.63281,0 0.63282,-0.63281 c -3e-5,-0.84371 -0.35159,-1.26558 -1.05469,-1.26563 l -0.42188,0 m 5.27344,0 0,0.21094 0.42188,0 0,-0.21094 -0.42188,0 m -8.85937,0.42188 c 0.28123,0.5391 0.42185,1.38285 0.42187,2.53125 l 0.63281,-0.21094 -0.42187,-2.32031 -0.63281,0 m -0.42188,0.21093 c -2e-5,1.26567 -0.21096,1.89849 -0.63281,1.89844 l -0.21094,0 -0.63281,-0.42187 0,0.42187 0.63281,0.63281 c 0.70311,-0.23433 1.05467,-0.6562 1.05469,-1.26562 l 0,-1.26563 -0.21094,0 m 1.47656,0 0,0.42188 0.21094,0 0,-0.42188 -0.21094,0 m -16.24218,0 0.21093,0 -0.21093,0.84375 -0.63282,0 0,-0.21093 0.63282,-0.63282 m 21.51562,0.63282 0,0.21093 0.42188,0.42188 0.42187,0 0,-0.42188 -0.21094,-0.21093 0,-0.21094 -0.63281,0.21094 m 2.95313,0.21093 -0.21094,0 -0.21094,-0.21093 -0.21094,0 0,0.21093 0.42188,0.42188 0.21094,0 0.63281,-0.63281 0,-0.21094 -0.63281,0.42187 m 17.71875,-0.63281 0.63281,0.21094 -0.84375,0.84375 -0.42188,0 0,-0.42188 c 0.42183,5e-5 0.63277,-0.21089 0.63282,-0.63281 m -16.66407,0.42188 -0.42187,2.74218 c 0.25778,2.39067 0.74997,3.58598 1.47656,3.58594 l -0.21094,1.05469 0,0.21094 1.05469,-1.47657 -0.21094,0 -0.63281,0.21094 0,-0.21094 -0.84375,-3.58593 0.42188,-2.32032 -0.63282,-0.21093 m 8.85938,0 0.21094,0.21093 0.21093,0 -0.21093,1.26563 -0.63282,0 0.42188,-1.47656 m -17.92969,0.42187 0,1.05469 0.21094,0 0,-1.05469 -0.21094,0 m -5.0625,0.42188 c -2e-5,0.30473 -0.42189,0.93754 -1.26562,1.89843 l -0.63282,-0.42187 0,2.74219 -0.42187,0.63281 0.42187,0 0,0.21094 -0.84375,0.21093 -0.42187,-1.05468 0.84375,-2.53125 c -0.37501,-1.12496 -0.72658,-1.68746 -1.05469,-1.6875 l -0.21094,0 0,0.42187 -1.26562,-0.42187 -0.63281,0.21093 0,0.42188 c 0.58592,4e-5 1.14842,0.3516 1.6875,1.05469 l -0.21094,0.21093 0,2.10938 c -1e-5,1.14848 1.1953,1.92191 3.58594,2.32031 l 1.26562,0 0,-0.21094 -1.47656,0 0,-0.21093 c 0.28123,3e-5 0.42186,-0.2109 0.42187,-0.63282 l 0.21094,-0.21093 0.21094,0 0.21094,0.21093 0.21093,0 0.63282,-0.21093 c -2e-5,0.28129 -0.21096,0.42191 -0.63282,0.42187 l 0,0.21094 0.84375,0 -0.21093,0.21094 0,0.21093 c 0.35154,4e-5 1.61716,-1.05464 3.79687,-3.16406 l 2.10938,-0.42187 0.63281,0.21093 c -0.2344,-0.70308 -0.58596,-1.05464 -1.05469,-1.05468 l -1.6875,0.21093 0,-0.63281 c -1.40627,4e-5 -2.39064,0.91411 -2.95312,2.74219 l -1.26563,0.63281 c -2e-5,-1.49996 -0.28127,-2.69527 -0.84375,-3.58594 l 0.21094,0 c 0.70311,5e-5 1.05467,-0.14058 1.05469,-0.42187 -2e-5,-0.42183 -0.28127,-0.63277 -0.84375,-0.63281 L 172,157.20676 l -0.21094,0.21094 m 6.32813,-0.21094 0,0.21094 c 0.1406,0.56254 0.49216,0.84379 1.05468,0.84375 l 0.84375,0 0,-0.21094 c -0.84377,4e-5 -1.26564,-0.28121 -1.26562,-0.84375 l -0.63281,0 m 2.53125,0.42187 0,0.21094 0.84375,0 0,-0.21094 -0.42188,-0.42187 -0.42187,0.42187 m 2.74218,-0.21093 0,0.42187 0.42188,0.42188 0.21094,0 0,-0.84375 -0.63282,0 m 3.375,0 0,1.26562 0.63282,0.63281 0.63281,0 0.63281,-0.63281 -0.21094,0 -0.63281,0.21094 c -0.56253,-0.63277 -0.84378,-1.12496 -0.84375,-1.47656 l -0.21094,0 m 16.875,0 c -4e-5,0.56254 -0.49223,0.84379 -1.47656,0.84375 l 0.42188,0.42187 0.21093,0 1.05469,-0.21094 0,-1.05468 -0.21094,0 m -41.34375,1.26562 0.21094,0 0.42188,-0.42187 0.63281,0 0.21094,0.21093 0.21093,0 0,-0.42187 c 0,-0.28121 -0.21094,-0.42183 -0.63281,-0.42188 -0.37501,5e-5 -0.72657,0.35161 -1.05469,1.05469 m 19.61719,-0.84375 0,0.42188 0.42188,0.42187 0.42187,-0.42187 -0.42187,-0.42188 -0.42188,0 m -16.45312,0.63281 c -4.07813,4.6641 -6.1172,10.00785 -6.11719,16.03125 -1e-5,3.37503 0.35156,5.06253 1.05469,5.0625 l 1.26562,0.21094 1.26563,-0.21094 0.63281,0 0,-0.21093 c -0.42188,-2.27342 -0.63282,-4.31248 -0.63281,-6.11719 l 0,-1.05469 c -1e-5,-5.0859 1.40624,-9.37496 4.21875,-12.86719 l 0,-0.21093 c -2e-5,-0.32809 -0.56251,-0.53902 -1.6875,-0.63282 m 15.39843,0 -0.21093,0.21094 0,0.63281 0.84375,0 0,-0.63281 -0.63282,-0.21094 m 18.98438,1.89844 0,1.47656 0.21094,0 0.42187,-2.74218 1.26563,0 0,-0.21094 -0.42188,-0.42188 -0.84375,0 c -0.42192,5e-5 -0.63286,0.63286 -0.63281,1.89844 m -27,-1.6875 -0.21094,0.21094 c -2e-5,0.42192 0.35155,0.63285 1.05469,0.63281 l 0,0.42188 0.21094,0 0,-0.21094 -0.21094,-0.63281 0.21094,-0.21094 -1.05469,-0.21094 m 10.125,0 0,0.21094 c 1.12497,1.33598 1.68747,2.6016 1.6875,3.79687 l -0.63281,2.74219 0,0.21094 0.21093,0 c 0.42185,-1.07809 0.63279,-2.06246 0.63282,-2.95313 l 0,-1.05468 c -3e-5,-1.59371 -0.63284,-2.57809 -1.89844,-2.95313 m -14.34375,0 0.42187,0.42188 0,0.42187 c -1e-5,0.72661 -0.21095,1.14848 -0.63281,1.26563 l 0,-0.42188 0.21094,-1.6875 m 25.10156,0.21094 0,0.63281 -0.84375,0 0,-0.42187 0.84375,-0.21094 m 9.49219,0.63281 1.05469,4.42969 c -5e-5,1.4766 -0.49224,3.7266 -1.47657,6.75 l 0,0.42187 c 0.98433,-0.60934 1.61714,-3.35152 1.89844,-8.22656 -0.14067,-2.53121 -0.49223,-3.79683 -1.05469,-3.79687 l -0.42187,0.42187 m -27,-0.42187 0.42187,0 -1.6875,1.89843 -0.21093,0 0,-0.42187 c 0.0469,-0.35152 0.53904,-0.84371 1.47656,-1.47656 m 16.24219,0 0.21093,0.63281 -0.63281,0 0,-0.21094 0.42188,-0.42187 m -21.09375,0.21093 0.42187,0 0.21094,1.89844 -0.21094,0.21094 -0.21094,0 -0.21093,-0.63281 0.42187,0 0,-0.21094 -0.42187,0 0,-0.21094 0.21093,-0.21094 0,-0.21093 -0.42187,0 0.21094,-0.63282 m 10.33593,0.21094 0,0.42188 0.63282,0.63281 0.42187,-0.42188 0,-0.63281 -1.05469,0 m 9.70313,-0.21094 0.42187,0 0,0.63282 -0.42187,0 0,-0.63282 m -32.48438,0.63282 0,0.63281 1.05469,-0.21094 0.42188,0.42188 c -0.28126,-0.63277 -0.56251,-0.98434 -0.84375,-1.05469 l -0.63282,0.21094 m 32.0625,-0.42188 0.21094,0.21094 0,0.21094 -0.21094,0.21093 -0.21093,0 -0.21094,-0.21093 0,-0.21094 0.21094,-0.21094 0.21093,0 m -27.63281,14.76563 0.84375,5.27343 0.21094,0 -0.42188,-6.53906 0,-1.05469 c 0,-4.87496 1.05468,-8.67183 3.16407,-11.39062 l 0,-0.42188 c -2.53126,3.00004 -3.79689,7.71098 -3.79688,14.13282 m 9.91406,-13.92188 0,0.63281 0.21094,0 0,-0.63281 -0.21094,0 m 22.99219,0.21094 -0.42187,1.26562 0.63281,0.63282 -0.84375,0.63281 -0.21094,0 c -0.5391,4e-5 -1.17191,-0.35152 -1.89844,-1.05469 l 0,0.21094 c 2.24996,3.23441 3.37496,6.96097 3.375,11.17969 l 0,1.6875 c 0.98434,-0.42185 2.17965,-1.2656 3.58594,-2.53125 l 0,-0.21094 c -4e-5,-3.60934 -1.26567,-7.47653 -3.79687,-11.60156 l -0.21094,-0.21094 -0.21094,0 m 1.6875,0 0,0.63281 0.21094,0 0,-0.63281 -0.21094,0 m -20.88281,0.42187 0,1.05469 c -2e-5,0.84379 0.42185,1.26566 1.26562,1.26563 l 0.63282,-0.21094 0,-0.63281 -0.21094,0.21093 -0.63281,0 c -0.56253,-0.18746 -0.84378,-0.74996 -0.84375,-1.6875 l -0.21094,0 m 24.46875,0.21094 0,0.63281 0.21094,0.63282 -0.21094,0 c -0.70317,4e-5 -1.05473,0.42191 -1.05469,1.26562 0.0937,0.70316 0.30464,1.05473 0.63281,1.05469 l 0.21094,0 0,-0.42188 -0.21094,-0.21093 c 0.2109,-0.56247 0.42183,-0.84372 0.63282,-0.84375 1.12495,3e-5 1.68745,0.56253 1.6875,1.6875 l 0.21093,0 0.21094,-1.05469 c -5e-5,-1.03121 -0.77348,-1.94527 -2.32031,-2.74219 m -43.875,0.21094 -0.21094,1.6875 0.21094,-0.21094 0.21094,0 -0.21094,1.05469 0,0.21094 0.42187,0 c 0.0703,-0.56247 0.28125,-0.84372 0.63282,-0.84375 l 0.21093,0.21093 c -0.70312,1.12504 -1.26562,2.39066 -1.6875,3.79688 l 0,0.21094 0.21094,0 c 0.28125,-0.98434 0.5625,-1.47653 0.84375,-1.47657 l 0,0.21094 1.26563,-0.63281 0,0.42187 -0.63282,0.63282 -0.63281,-0.21094 0,0.21094 -0.63281,1.6875 0,0.21093 0.21094,0 c -1e-5,-0.32809 0.63281,-1.17184 1.89843,-2.53125 l 0.21094,-1.26562 c -0.5625,4e-5 -0.84375,-0.14059 -0.84375,-0.42188 0.5625,4e-5 0.84375,-0.70308 0.84375,-2.10937 l -0.21094,0 0.21094,-0.21094 0,-0.21094 -0.42187,-0.42187 -0.21094,0 -1.05469,0.84375 -0.42187,0 0,-0.84375 -0.21094,0 m 18.5625,0 c -2e-5,0.49223 -0.35158,1.19535 -1.05469,2.10937 l 0,0.42188 0.42188,0 c 0.37498,4e-5 0.65623,-0.56246 0.84375,-1.6875 l 0,-0.84375 -0.21094,0 m -4.64063,0 0,0.63281 -0.84375,1.47656 -0.21093,-0.21093 0,-0.21094 c 0.49217,-1.12496 0.84373,-1.68746 1.05468,-1.6875 m 9.28125,1.26562 0.21094,0.63282 0.21094,0 c 0.0937,-0.70309 0.30466,-1.05465 0.63281,-1.05469 l 1.05469,0 c 0.56247,0.0938 0.84372,0.79691 0.84375,2.10937 l 0.21094,0 0,-1.47656 c -0.35159,-0.84371 -0.98441,-1.26558 -1.89844,-1.26562 l -0.42188,0 -0.84375,1.05468 m 11.39063,0 c -4e-5,0.28129 0.2109,0.42192 0.63281,0.42188 l 0.21094,0.21094 0,0.63281 c -4e-5,0.70316 -0.84379,1.05472 -2.53125,1.05469 l 0,0.21093 1.26562,0.21094 c 1.12497,-0.2109 1.68747,-0.7734 1.6875,-1.6875 l -0.21093,-1.05469 -1.05469,0 m -4.00781,0.21094 c -0.56254,0.58598 -0.84379,1.14848 -0.84375,1.6875 -4e-5,0.3516 1.05465,1.54691 3.16406,3.58594 l 0.21094,0.63281 -0.63282,0 0,0.21094 0.63282,0 0.21093,-0.21094 0,-1.26562 c -3e-5,-0.28122 -0.35159,-0.42184 -1.05468,-0.42188 l -0.21094,-0.63281 0.21094,0 0.84375,0.21094 0,-0.42188 c -4e-5,-0.42184 -0.84379,-0.91402 -2.53125,-1.47656 l -0.21094,-0.21094 0,-0.21094 0.42187,-0.42187 0.63282,0.21094 -0.21094,-0.21094 0,-0.21094 1.47656,0 0,0.21094 -1.05469,0 0,0.21094 1.26563,0 c -4e-5,-0.28122 0.2109,-0.42184 0.63281,-0.42188 l 0,-0.42187 -2.95312,-0.42188 m -31.85157,0.42188 0,0.21093 0.42188,3.16407 0.21094,0 c -1e-5,-0.67966 0.21093,-1.38278 0.63281,-2.10938 l -0.21094,0 -0.21094,0.21094 c 0,-0.28121 -0.21094,-0.42184 -0.63281,-0.42188 l 0,-0.42187 0.21094,-0.21094 0,-0.21094 -0.21094,-0.21093 -0.21094,0 m 10.75782,0.84375 0.42187,0 0,0.21093 0.21094,-0.21093 0.63281,0 c -1e-5,0.70316 -0.14064,1.05472 -0.42187,1.05468 l 0.21093,0.63282 0.84375,0 0.84375,-0.63282 0.21094,0 c 0.0703,0.56254 0.28124,0.84379 0.63281,0.84375 l 0.42188,0 c -0.28127,-1.40621 -0.56252,-2.10933 -0.84375,-2.10937 l -0.63281,0 c -2e-5,0.42191 -0.14064,0.63285 -0.42188,0.63281 l -0.21094,0 0.21094,-1.05469 -1.05469,-0.21093 c -0.63282,0.28128 -0.98438,0.56253 -1.05468,0.84375 m 18.14062,-0.21094 0,0.21094 0.21094,-0.21094 0.21094,0 0.42187,0.42187 -0.21094,-0.84375 -0.21093,0 -0.42188,0.42188 m -28.47656,0 0,0.21094 0.63281,0.21093 0,-0.42187 -0.63281,0 m 15.60937,1.05469 c -1e-5,0.28128 0.21092,0.42191 0.63282,0.42187 l 1.05468,-0.63281 0.42188,0.42187 -0.21094,1.89844 0.21094,0.21094 0.63281,0 -0.21094,-1.05469 0.42188,-1.26562 -0.63281,-0.84375 -0.21094,0 -2.10938,0.84375 m 5.27344,-0.84375 0,0.21093 c 0.58592,4e-5 1.35935,0.42192 2.32031,1.26563 l 0.21094,-0.21094 0,-0.21094 -0.21094,-1.05468 -0.42187,0.42187 -1.26563,-0.42187 -0.63281,0 m 21.72656,0.63281 0,0.21094 c 0.98433,2.46097 1.47652,4.78128 1.47657,6.96093 l 0.42187,0 c -4e-5,-1.40622 -0.56254,-3.79684 -1.6875,-7.17187 l -0.21094,0 m -21.72656,0.21094 0.63281,1.47656 c -0.56252,1.05472 -0.84377,2.32034 -0.84375,3.79687 0.49217,2.67191 2.24998,4.00784 5.27344,4.00782 2.53122,-0.37498 3.79685,-0.86716 3.79688,-1.47657 l -0.21094,0.21094 -0.42188,0 1.26563,-1.6875 0,0.42188 c 1.12497,-1.40622 1.96872,-2.10935 2.53125,-2.10938 l 0,-0.42187 -0.63281,-0.21094 -1.89844,1.05469 0,-0.42188 0.21094,-0.63281 c -0.65628,3e-5 -1.71097,1.19534 -3.16407,3.58594 l -0.42187,0 -0.42188,-0.42188 1.89844,-2.10937 -0.21094,0 -1.26562,1.26562 -0.21094,0 0,-0.21094 1.6875,-2.32031 0,0.63281 0.21094,0 0,-1.05468 -0.21094,0 -0.63281,0.42187 -0.21094,0 0,-0.42187 0.42188,-0.63282 0,-1.26562 -0.42188,-0.42188 c -3e-5,0.21098 -0.77346,0.63285 -2.32031,1.26563 l -0.21094,0.84375 -0.63281,0 0,-0.42188 c -0.53909,4e-5 -1.03128,1.19535 -1.47656,3.58594 l -0.42188,0 -0.42187,-0.42187 1.05468,-2.95313 0,-0.42187 -0.63281,0 0.21094,-1.05469 c -3e-5,-0.98434 -0.63284,-1.47653 -1.89844,-1.47656 m 5.90625,0 c -3e-5,0.28128 -0.21096,0.42191 -0.63281,0.42187 l -1.05469,0.21094 0,0.42187 -0.21094,0 c -0.28127,4e-5 -0.4219,-0.2109 -0.42187,-0.63281 -0.84378,0.28129 -1.26565,0.63285 -1.26563,1.05469 l 0,0.21094 0.21094,0 0,-0.42188 0.63281,0 -0.21093,1.05469 1.26562,-1.05469 0.42188,0 0,0.42188 c 0.98434,-0.32809 1.47653,-0.89059 1.47656,-1.6875 l -0.21094,0 m 1.26563,0 -0.21094,0.63281 c 0.42184,3e-5 0.63278,0.42191 0.63281,1.26562 l 0.21094,0 0,-1.05468 -0.63281,-0.84375 m -15.60938,2.32031 -2.10937,-0.21094 -0.21094,0.21094 0,0.21094 2.32031,0 c 2.17967,3e-5 3.72655,-0.63278 4.64063,-1.89844 l 0,-0.21094 c -1.3594,1.26566 -2.90627,1.89847 -4.64063,1.89844 m 22.14844,-1.26563 0,0.42188 1.26562,0.21094 2.10938,-0.42188 0,-0.42187 c -4e-5,-0.28122 -0.21098,-0.42184 -0.63281,-0.42188 -0.67973,0.42191 -1.59379,0.63285 -2.74219,0.63281 m -26.15625,0.42188 0,0.21094 0.63281,0.63281 0.21094,0 0,-0.63281 -0.84375,-0.21094 m 13.71094,-0.21094 c -0.28128,1.59379 -0.63284,2.7891 -1.05469,3.58594 l -0.21094,0 0,-0.42188 c 0.46873,-2.10934 0.8906,-3.16402 1.26563,-3.16406 m -12.23438,0.42188 -0.42187,0.84375 0,0.21093 0.21093,0 0.42188,-1.05468 -0.21094,0 m 15.1875,0 -0.21094,0.21093 0,0.42188 0.21094,0 0.21094,-0.63281 -0.21094,0 m 4.21875,0 -0.21094,1.05468 0,0.21094 0.42188,0 -0.42188,1.05469 0,0.21094 0.21094,0 0.42188,-1.47657 0,-1.05468 -0.42188,0 m 5.48438,0.42187 0,0.21094 c 2.10933,0.1641 3.16402,0.93753 3.16406,2.32031 l 0,0.42188 c -4e-5,1.12503 -0.56254,1.68753 -1.6875,1.6875 l -1.26563,-0.63282 0,0.21094 c 0.25778,0.70316 0.82028,1.05472 1.6875,1.05469 1.12496,3e-5 1.82809,-0.77341 2.10938,-2.32031 -4e-5,-1.68747 -1.05473,-2.67184 -3.16406,-2.95313 l -0.84375,0 m -6.53907,0.21094 0,0.21094 0.21094,0.21093 0.21094,0 0,-0.21093 -0.21094,-0.21094 -0.21094,0 m -16.45312,2.10937 0.63281,0.84375 0.63281,0 -0.63281,-1.05468 c -1e-5,-0.42185 0.49217,-0.84372 1.47656,-1.26563 l 0,-0.21094 -0.21093,0 c -1.26564,0.46879 -1.89845,1.03129 -1.89844,1.6875 m 15.1875,-1.89843 0.21094,0.21093 0,0.21094 -0.42188,0.42188 -0.42187,0 0.63281,-0.84375 m 3.16406,0.63281 0,0.42187 0.21094,-0.21093 0.63281,0 0,0.63281 1.26563,-0.21094 0,-0.42187 c -0.70316,3e-5 -1.05472,-0.21091 -1.05469,-0.63282 l -0.63281,0 -0.42188,0.42188 m -20.88281,-0.21094 0,1.05469 0.21094,0.63281 0.42187,0 -0.42187,-1.6875 -0.21094,0 m 1.26562,0.21094 -0.21093,0.21094 0,0.21093 0.42187,0.42188 0.42188,-0.42188 -0.63282,-0.42187 m 3.79688,0.42187 c 0.42186,4e-5 0.63279,0.84379 0.63281,2.53125 0.42186,0.32816 0.6328,0.82035 0.63281,1.47657 l -0.21093,-0.21094 -0.42188,0 0,0.42187 c -2e-5,1.07816 0.77342,1.78128 2.32031,2.10938 l 2.10938,-0.84375 -0.21094,-0.21094 0,-0.42187 1.05469,0 0,-0.21094 -1.26563,0 0,-0.63281 0.42188,0 0,-0.21094 -1.26563,0 0,-0.21094 0.42188,-0.42187 1.05469,0.42187 0,-0.42187 c -1.40627,-0.25779 -2.1094,-0.60935 -2.10938,-1.05469 l 0.21094,0 0.63281,0.21094 0,-1.05469 0.21094,-1.05469 0.21094,0 c 0.42185,3e-5 0.7031,0.63285 0.84375,1.89844 l 0.42187,0 c -2e-5,-1.68747 -0.77346,-2.53122 -2.32031,-2.53125 l 0,0.21094 0.21094,0.63281 -0.21094,0 c -0.75002,-0.56247 -1.38283,-0.84372 -1.89844,-0.84375 l -1.05469,0 -0.42187,0.42187 m 30.58594,1.05469 0,0.42188 c -5e-5,1.19534 0.42182,2.03909 1.26562,2.53125 l 0,-0.21094 c -0.70317,-0.86716 -1.05473,-1.78122 -1.05469,-2.74219 l 0.63282,-1.47656 c -0.56255,0.23441 -0.8438,0.72659 -0.84375,1.47656 m -42.82032,-1.26562 -0.21093,0.21093 0,0.21094 0.63281,-0.21094 0,-0.21093 -0.42188,0 m 24.46875,0.21093 0.21094,0 0,0.63282 -0.42187,0 0.21093,0.21093 0,0.42188 -0.63281,0 c 0.1406,-0.84372 0.35154,-1.26559 0.63281,-1.26563 m -16.03125,1.05469 0,0.84375 0.84375,0 0,-0.42187 -0.42187,-0.42188 -0.42188,0 m 36.91407,0 c -5e-5,1.64066 -0.56255,3.25784 -1.6875,4.85156 -0.2813,0.46878 -0.49224,1.59378 -0.63282,3.375 l 0.42188,0 0,-1.26562 c -5e-5,-0.79685 0.77339,-2.69529 2.32031,-5.69531 l 0,-0.21094 -0.21094,-1.05469 -0.21093,0 m -38.39063,0.42188 0,0.63281 0.63281,0 0,-0.21094 -0.42187,-0.42187 -0.21094,0 m 16.875,0 0.21094,0 0,0.63281 -0.63281,0 0,-0.21094 0.42187,-0.42187 m 4.42969,0.21093 0.21094,0 c -0.79691,1.42972 -1.57035,2.4141 -2.32032,2.95313 l -0.21093,0 c 1.12497,-1.75778 1.8984,-2.74216 2.32031,-2.95313 m -29.10938,0.42188 0,0.42187 0.21094,0 0,-0.42187 -0.21094,0 m 17.92969,0.21094 0,0.42187 1.05469,0.21094 c -2e-5,-0.3281 -0.35158,-0.53903 -1.05469,-0.63281 m 6.11719,0 0.21094,0 0.42187,0.42187 -1.6875,2.10938 -0.21094,-0.21094 0,-0.21094 c 0.28123,3e-5 0.7031,-0.70309 1.26563,-2.10937 m 5.0625,0 0.21094,0 0,0.42187 -0.21094,0 0,-0.42187 m -18.98438,0.63281 0,0.21094 0.21094,0.21093 0.21094,0 0,-0.21093 -0.21094,-0.21094 -0.21094,0 m 10.54688,-0.21094 1.6875,0.42188 0,0.21093 -0.84375,0 0,0.21094 0.84375,0 0,0.21094 -1.05469,0.21094 -0.63281,-0.21094 0,-0.21094 0.21094,-0.21094 -0.21094,-0.21093 0,-0.42188 m -12.86719,2.74219 c 0.0703,1.07815 0.84374,2.20315 2.32031,3.375 -0.98438,2e-5 -1.47657,0.14065 -1.47656,0.42187 1.73436,1.5469 3.98436,2.32034 6.75,2.32032 l 1.26563,1.26562 0,0.21094 -1.47657,1.26562 c 1.59373,0.44533 2.78905,1.21877 3.58594,2.32032 1.2656,2.20314 1.89842,4.03126 1.89844,5.48437 l 0.21094,0 -0.21094,-0.21094 0,-0.84375 c -2e-5,-5.99998 -3.16408,-10.42966 -9.49219,-13.28906 -1.54689,-1.00778 -2.32032,-1.92185 -2.32031,-2.74219 l 0,-0.84375 c -1e-5,-0.32809 0.35155,-0.53903 1.05469,-0.63281 l -0.42188,-0.42187 -0.42187,0 c -0.84376,0.53909 -1.26564,1.31252 -1.26563,2.32031 m -9.28125,-2.10938 0,0.42188 1.26563,0.42187 -0.63282,-0.84375 -0.63281,0 m 1.47656,0.21094 c 0.21094,0.56253 0.42188,0.84378 0.63282,0.84375 l 0,-1.05469 -0.63282,0.21094 m 35.4375,5.48438 0.42188,0 c 2.50777,-0.5156 4.96871,-1.85154 7.38281,-4.00782 l 0.84375,-0.84375 -0.21094,-0.63281 c -2.69535,2.4844 -5.43754,4.1719 -8.22656,5.0625 l -0.21094,0.21094 0,0.21094 m -24.67968,-5.27344 -0.21094,2.10937 0.21094,0.21094 0.21093,0 0.63282,-0.21094 0,0.21094 0.63281,0.84375 0.42187,0 0,-1.05469 -0.42187,-1.26562 0.84375,0 c -2e-5,-0.23435 -0.35158,-0.44528 -1.05469,-0.63281 l 0,0.42187 -0.21094,0 c -0.28126,3e-5 -0.42189,-0.21091 -0.42187,-0.63281 l -0.63281,0 m 18.77343,0.42187 0.63282,0 0,0.42188 -1.05469,0 0,0.21094 c 0.84372,2e-5 1.26559,0.21096 1.26562,0.63281 l -0.21093,0 -1.6875,-0.42188 -0.21094,0 0,0.21094 1.89844,0.42188 0.84375,0 0,0.21093 c -4e-5,0.28128 -0.21097,0.42191 -0.63282,0.42188 l -1.6875,-0.21094 0.21094,0.21094 0,0.21094 -0.42187,0 -1.05469,-0.21094 0.42187,0.63281 -0.42187,0 0,0.21094 -0.21094,-0.21094 -0.84375,0 c -3e-5,0.28128 0.28122,0.4219 0.84375,0.42188 l 0,0.42187 -0.42187,0 0,0.21094 c 0.23434,0.56252 0.72653,0.84377 1.47656,0.84375 l -0.21094,-1.05469 0.21094,0.21094 0.42187,0 1.05469,-0.21094 0,0.21094 c -3e-5,0.28127 -0.35159,0.4219 -1.05469,0.42187 l 0,0.21094 0.63282,0 c 0.7734,-0.23435 1.3359,-0.58591 1.6875,-1.05469 l -0.63282,-0.21093 0,-0.42188 1.05469,0 c 0.7734,3e-5 1.47653,-0.49216 2.10938,-1.47656 l -1.6875,-0.42188 -0.63282,0.21094 0.42188,-1.26562 -1.47656,-0.21094 -0.21094,0 -0.42188,0.42187 m -10.96875,-0.21093 0,0.21093 0.63282,0 0,-0.21093 -0.63282,0 m 6.11719,-0.21094 c 0.67966,0.4219 1.31247,0.63284 1.89844,0.63281 l 0,0.42188 -0.84375,0 0,0.21093 0.42187,0 0,0.21094 -1.47656,0.21094 0,-0.63281 0.63281,0 0,-0.21094 c -0.4219,3e-5 -0.63284,-0.28122 -0.63281,-0.84375 m 11.60156,1.26562 c 0.84371,3e-5 1.26559,0.28128 1.26563,0.84375 -4e-5,0.49222 -0.77348,1.26565 -2.32031,2.32032 1.82808,-0.53904 2.74214,-1.4531 2.74218,-2.74219 l 0,-0.21094 -0.84375,-0.84375 -0.84375,0.63281 m -21.09375,-0.63281 0.21094,0 1.89844,0.42188 0,0.21093 -1.6875,0 -0.42188,-0.42187 0,-0.21094 m 2.53125,3.58594 0.84375,2.32031 c 0.42186,2e-5 0.63279,-0.21091 0.63282,-0.63281 l 0.63281,0 0,1.05469 c -2e-5,0.77346 0.49216,1.47658 1.47656,2.10937 1.35935,-0.91404 2.34373,-1.8281 2.95313,-2.74219 0.0937,0.70315 0.30466,1.05471 0.63281,1.05469 l 0.63281,-1.26562 -0.21094,0 -0.63281,0.63281 0,-0.21094 1.26563,-1.89844 0,0.21094 -0.21094,0.21094 0,0.63281 0.21094,0 0.21093,-1.47656 -0.63281,-1.6875 -0.42187,0 c -3e-5,0.4219 -0.14066,0.63284 -0.42188,0.63281 l -0.21094,0 0,-0.63281 -0.21093,0 c -3e-5,0.72659 -0.21097,1.14846 -0.63282,1.26562 l -0.21093,-0.21093 -0.21094,0 c -3e-5,0.4219 -0.35159,0.63283 -1.05469,0.63281 -2e-5,0.70315 -0.14065,1.05471 -0.42187,1.05469 l -0.42188,0 c 0.28123,-1.49998 0.63279,-2.48435 1.05469,-2.95313 l 0,-0.21094 -0.21094,0 c -0.30471,3e-5 -0.58596,0.56253 -0.84375,1.6875 l -0.63281,0 0,-0.42187 c 0.56247,-0.63279 0.84372,-1.12497 0.84375,-1.47656 -0.56252,0.28127 -0.84377,0.70315 -0.84375,1.26562 l -0.21094,0 -0.21094,-0.21094 -0.21093,0 0.84375,-1.26562 0,-0.21094 c -0.4219,3e-5 -0.63284,0.21097 -0.63282,0.63281 l -0.21093,0.21094 -0.42188,0 0,-0.42187 c -2e-5,-0.28123 0.21092,-0.42185 0.63281,-0.42188 l 0.21094,-0.21094 0,-0.21093 -0.21094,-0.21094 c -1.68752,0.70315 -2.53127,1.82815 -2.53125,3.375 m -3.16406,-3.16406 1.47656,0.42187 0,0.42188 -1.05468,0 -0.42188,-0.42188 0,-0.42187 m -2.95312,0.21093 0.21093,0 0.42188,0.42188 -0.63281,0 0,-0.42188 m 22.99218,0.21094 c -3e-5,1.80471 -2.60159,3.35159 -7.80468,4.64063 -1.12503,0.86721 -1.68753,1.64064 -1.6875,2.32031 l 0.21093,1.05469 c -2.25002,1.78126 -3.37502,4.17189 -3.375,7.17187 l 0,1.26563 0.21094,0 c -2e-5,-2.6953 0.84373,-4.9453 2.53125,-6.75 0.74997,-0.70311 1.31247,-1.05467 1.6875,-1.05469 l 0,0.21094 c -3e-5,0.56251 0.21091,0.84376 0.63281,0.84375 2.64841,-0.84373 4.40622,-1.26561 5.27344,-1.26563 l 0.21094,0 0.63281,0.63281 0,0.42188 -0.84375,0.63281 -2.10937,-0.84375 c -0.63285,0.28127 -0.98441,0.56252 -1.05469,0.84375 l 1.05469,-0.21094 1.47656,0.84375 1.05469,-0.42187 0,0.21094 -0.21094,0.84375 c 1.68746,-0.46874 2.53121,-1.17186 2.53125,-2.10938 -4e-5,-0.5156 -0.28129,-1.0781 -0.84375,-1.6875 l 0.84375,-0.21094 c -0.49223,-0.98435 -1.19535,-1.47654 -2.10938,-1.47656 -2.03909,2e-5 -3.7969,0.63284 -5.27343,1.89844 l -0.42188,-0.63281 c 0.60935,-0.98436 1.52341,-1.47654 2.74219,-1.47657 l 0.84375,0 0,-0.21093 -0.21094,-0.21094 0,-0.21094 1.26563,-0.21094 0,-0.21093 -0.63282,0 0,-0.21094 c 0.53903,2e-5 1.24216,-0.49216 2.10938,-1.47656 l 0,0.21093 c -0.18754,0.84378 -0.5391,1.26565 -1.05469,1.26563 l 0,0.21094 0.21094,0 1.47656,-0.84375 0,0.21093 c -0.51566,0.84378 -1.35941,1.26565 -2.53125,1.26563 l 0,0.21094 0.42188,0 c 1.82809,2e-5 2.74215,-0.70311 2.74218,-2.10938 l -0.63281,0 c 0.84371,-0.96091 1.26559,-1.73435 1.26563,-2.32031 l -0.42188,-1.05469 -0.21094,0 m 11.17969,0 0,0.21094 0.42188,1.89844 0,0.21093 c -5e-5,1.28909 -0.8438,2.06253 -2.53125,2.32032 l 0,0.42187 c 1.82807,-0.3281 2.74213,-1.10154 2.74218,-2.32031 l 0,-1.6875 -0.21093,-1.05469 -0.42188,0 m -33.75,0.42188 0.42188,0 0,0.63281 -0.42188,-0.42188 0,-0.21093 m 30.79688,0.63281 0,0.63281 c -5e-5,4.21877 -1.26567,8.36721 -3.79688,12.44531 l 0,0.21094 0.21094,0 c 2.67183,-4.12498 4.00777,-8.48435 4.00781,-13.07812 l 0,-0.63282 -0.42187,0.42188 m -44.50782,-0.21094 0,0.42188 0.63282,0 0,-0.42188 -0.63282,0 m 1.26563,0 0,0.63281 0.21094,0 0.42187,-0.42187 0,-0.21094 -0.63281,0 m 19.40625,0 0.21094,0 -0.42188,1.05469 0,0.21094 0.21094,0 0.21094,-0.84375 0.21093,0 0,0.42187 0.21094,0 -0.21094,1.05469 -0.63281,0 0,-0.42188 -0.21094,0 -0.21093,1.05469 -0.21094,0 0,-1.47656 0.84375,-1.05469 m 4.64062,0.21094 -0.21093,0.63281 0.21093,0 0.21094,-0.21094 0,-0.42187 -0.21094,0 m -16.875,0.84375 0,0.63281 c -1e-5,0.9844 0.49218,1.47659 1.47657,1.47656 l -1.26563,-1.47656 0,-0.21094 0.84375,-0.21093 -0.21094,-0.63282 -0.42187,0 -0.42188,0.42188 m 29.95313,10.96875 2.10937,0.84375 c 2.39058,-4.40623 3.5859,-8.41404 3.58594,-12.02344 l 0,-0.21094 c -2.39067,1.40628 -3.58598,2.25003 -3.58594,2.53125 -4e-5,2.08596 -0.70316,5.03909 -2.10937,8.85938 m -14.13281,-11.17969 -0.21094,0.63281 0,0.21094 0.21094,0 0.21093,-0.63281 0,-0.21094 -0.21093,0 m -24.04688,0.63281 0,1.05469 c 0.0937,0.84377 0.30469,1.26565 0.63281,1.26563 l 0,-0.21094 -0.42187,-1.05469 0.42187,-1.47656 -0.21093,0 -0.42188,0.42187 m 16.875,0.63282 c -2e-5,0.75002 1.26561,2.43752 3.79688,5.0625 l -2.74219,-4.00782 -0.21094,-0.84375 0.63281,-1.05468 0,-0.21094 -0.63281,0 c -0.28127,0.0703 -0.56252,0.4219 -0.84375,1.05469 m -15.60937,-0.84375 -0.21094,0.21093 0,0.42188 0.63281,0 0,-0.21094 -0.42187,-0.42187 m 29.74218,-0.21094 -0.21093,0.63281 -0.21094,-0.21094 -0.21094,0.21094 -0.42187,0 -0.42188,-0.42187 0.21094,-0.21094 1.26562,0 m -29.95312,2.32031 c 0.51562,1.03127 0.9375,1.59377 1.26562,1.6875 l 0.21094,0 c 0,-0.28123 -0.21094,-0.42185 -0.63281,-0.42187 l 0,-0.21094 0.42187,-0.63281 -0.63281,-1.26563 c -0.21094,3e-5 -0.42188,0.28128 -0.63281,0.84375 m 7.38281,0 0,0.21094 c -1e-5,0.32815 0.6328,0.53908 1.89844,0.63281 -1e-5,-0.28123 -0.63282,-0.56248 -1.89844,-0.84375 m 5.69531,-0.21094 0,0.84375 c -1.12501,-0.0937 -1.68751,-0.30466 -1.6875,-0.63281 l 1.6875,-0.21094 m -2.32031,0.42188 2.74219,0.84375 0,0.21094 -0.84375,0 c -1.26564,-0.28123 -1.89845,-0.56248 -1.89844,-0.84375 l 0,-0.21094 m 18.35156,0 0.63282,0 0,0.21094 c -0.84378,0.18752 -1.75785,0.60939 -2.74219,1.26562 l -0.42188,0 c 0.8906,-0.98435 1.73435,-1.47654 2.53125,-1.47656 m 7.17188,0.21094 0,0.21093 2.10937,0 0,-0.21093 -2.10937,0 m -1.26563,0.21093 0,0.21094 1.05469,0 0,-0.21094 -1.05469,0 m 11.17969,0.42188 0.42188,0 c -5e-5,0.4219 0.14057,0.63283 0.42187,0.63281 l 0,-0.21094 -0.63281,-0.63281 -0.21094,0.21094 m -47.03906,0.84375 0,0.42187 0.21094,-0.21093 0.63281,0 0.21094,0.21093 0.21093,0 0.21094,-0.21093 0,-0.63282 -1.05469,0 -0.42187,0.42188 m 10.125,-0.42188 0,0.21094 1.05469,0 0,-0.21094 -1.05469,0 m 35.4375,0 0,0.84375 0.21094,0.21094 0.21093,0 0,-0.21094 -0.21093,-0.84375 -0.21094,0 m -43.03125,0.21094 0,0.21094 0.42187,0 0,-0.21094 -0.42187,0 m 5.27344,0 0,0.21094 0.84375,0 0,-0.21094 -0.84375,0 m 28.05468,0 0,0.21094 3.16407,0.63281 0,-0.42187 -0.42188,-0.42188 -2.74219,0 m 10.54688,0 0,0.21094 c 0.70308,0.32815 1.05464,0.67971 1.05469,1.05469 l 0.21093,0 0,-0.42188 -1.26562,-0.84375 m -43.03125,0.21094 0,0.21094 0.42187,0 0,-0.21094 -0.42187,0 m 5.48437,0.42187 0,0.21094 0.21094,0 2.32031,-0.21094 0,-0.21093 -1.89843,0 -0.63282,0.21093 m 1.6875,1.6875 0,0.21094 1.05469,0 0,0.21094 c -0.70314,0.72658 -1.0547,1.4297 -1.05469,2.10937 0.32812,0.98439 0.89062,1.47658 1.6875,1.47657 l 1.89844,-0.42188 0.21094,0.21094 0,-0.42188 c -1.54689,2e-5 -2.32033,-0.42185 -2.32031,-1.26562 -2e-5,-0.89061 1.05467,-1.45311 3.16406,-1.6875 l 1.05469,-1.26563 c -0.84377,-0.7031 -1.75783,-1.05466 -2.74219,-1.05468 -0.8672,2e-5 -1.85158,0.63283 -2.95313,1.89843 m 34.17188,-1.89843 -0.21094,0.63281 c 0.14058,0.46877 0.42183,0.75002 0.84375,0.84375 l 0.21094,-0.21094 0,-0.21094 -0.84375,-0.42187 0.21094,-0.21094 0,-0.42187 -0.21094,0 m -37.125,0.21093 0,0.21094 c -1e-5,0.75002 0.77343,2.85939 2.32031,6.32813 l 0.21094,0 0,-0.63282 c -0.60939,-0.49217 -1.38282,-2.46092 -2.32031,-5.90625 l -0.21094,0 m -4.21875,0.21094 c 0.86718,3.46877 2.06249,6.14064 3.58594,8.01563 0.32811,-0.70312 1.17186,-1.26561 2.53125,-1.6875 l 0,-0.21094 c -0.32814,1e-5 -0.82033,-0.98436 -1.47657,-2.95313 l 0.21094,-0.21093 -0.21094,0 -0.21093,0.21093 c -0.42189,-2.10935 -0.77345,-3.16404 -1.05469,-3.16406 l -3.375,0 m 20.46094,0.63281 0,0.21094 c 0.42185,2e-5 0.63278,0.21096 0.63281,0.63281 l -0.63281,1.6875 0,0.21094 0.21093,0 0.84375,-2.10937 -0.21093,-1.05469 -0.42188,0 -0.42187,0.42187 m 13.28906,-0.42187 0,0.21094 c 0.84371,2e-5 1.26558,0.4922 1.26562,1.47656 l -0.21093,0.21094 0.42187,0 0,-0.42188 c -4e-5,-0.79685 -0.3516,-1.28904 -1.05469,-1.47656 l -0.42187,0 m -9.49219,0 0.42188,0 c -3e-5,0.56252 0.2109,0.84377 0.63281,0.84375 l 0,0.21094 -0.42188,0 -0.63281,-0.21094 0,-0.84375 m 18.14063,0.42187 0,0.21094 0.21093,0 0.63282,-0.21094 0,-0.21093 -0.21094,0 -0.63281,0.21093 m 1.89843,0 c -5e-5,0.56252 -0.14067,0.84377 -0.42187,0.84375 l -0.63281,-0.21093 0.84375,0.63281 0.42187,-0.84375 0,-0.42188 -0.21094,0 m -47.88281,0.21094 -0.21094,1.05469 0,0.63281 c 0,0.28127 0.21094,0.42189 0.63282,0.42188 l 0.21093,0.21093 0,0.21094 -0.63281,0.63281 0.63281,0.21094 2.53125,-1.6875 0.21094,0 c -0.70313,0.91408 -1.05469,1.61721 -1.05469,2.10938 l 0,0.42187 0.42188,0.42188 c -1e-5,-0.96092 0.42187,-1.66405 1.26562,-2.10938 -0.0703,-0.56248 -0.28125,-0.84373 -0.63281,-0.84375 l 0.21094,-0.21094 -0.21094,-0.84375 -2.10937,1.26563 c -0.25782,2e-5 -0.67969,-0.35155 -1.26563,-1.05469 l 0.21094,-0.63281 0,-0.21094 -0.21094,0 m 17.08594,0 -1.6875,1.89844 0,0.84375 c -2e-5,0.75002 0.28123,1.2422 0.84375,1.47656 l 0.42187,0 c -0.70314,-0.72654 -1.0547,-1.35936 -1.05468,-1.89844 -2e-5,-0.74998 0.63279,-1.4531 1.89843,-2.10937 l 0,-0.21094 -0.42187,0 m 16.66406,0 -0.21094,0.63281 -0.42187,0 -0.21094,-0.21093 -1.47656,0.42187 -0.21094,-0.21094 0,-0.21093 2.53125,-0.63282 0,0.21094 m -6.32812,0 0.63281,0.63281 -0.63281,0 0,-0.63281 m -14.55469,0.42188 1.26562,0 0.42188,0.42187 -1.89844,0.84375 -0.21094,-0.21094 0.42188,-1.05468 m 5.69531,0 0.42188,0 0,0.42187 -0.63282,0.63281 -0.21093,-0.21093 0,-0.21094 c 0.28123,2e-5 0.42185,-0.21092 0.42187,-0.63281 m 3.79688,0.21093 0,3.375 0.42187,5.48438 0.21094,0 0,-8.64844 -0.63281,-0.21094 m -2.53125,0.42188 -0.63282,0.63281 -0.42187,-0.42187 1.05469,-0.21094 m 24.25781,0.21094 0,0.42187 c 1.82808,1.92189 2.74214,3.96095 2.74219,6.11719 -5e-5,0.75001 -0.35161,1.94532 -1.05469,3.58594 l 0.42187,0 c -0.42192,1.07813 -0.84379,1.71094 -1.26562,1.89843 l -0.42188,0 0,-0.42187 c 0.56246,1e-5 0.84371,-0.21093 0.84375,-0.63281 l -1.05468,0.42187 0,-0.21094 c -0.8438,-0.28124 -1.26567,-0.77343 -1.26563,-1.47656 -4e-5,-0.32811 0.63277,-0.53905 1.89844,-0.63281 l 0.42187,-1.26563 c -0.28129,-0.6328 -0.56254,-0.98436 -0.84375,-1.05468 l -1.26562,0 -0.42188,0.42187 0,0.21094 0.84375,-0.42188 c 0.63277,0.28127 0.98433,0.56252 1.05469,0.84375 l 0,0.63282 c -4e-5,0.28126 -0.56254,0.56251 -1.6875,0.84375 l -0.21094,0.21093 0,1.6875 c 0.56246,0.0703 0.84371,0.28126 0.84375,0.63282 l 0,0.21093 -0.63281,0 0,0.42188 1.05469,0 c 1.0312,1e-5 1.87495,-0.84374 2.53125,-2.53125 l 0.42187,0 0,0.21094 -1.89843,3.58593 0,0.42188 -0.21094,0 0.21094,0.63281 0.84375,-0.42187 c -5e-5,1.10156 0.2812,1.73437 0.84375,1.89843 l 0.21093,0 0.63282,-0.63281 c -0.70318,0 -1.05474,-0.21093 -1.05469,-0.63281 l 1.26562,-6.75 0,-1.26563 c -5e-5,-3.14061 -1.19536,-5.46092 -3.58593,-6.96093 l -0.21094,0 m -24.25781,0.21093 0.42187,0 0,0.21094 -0.42187,0.42188 -0.42188,0 0,-0.21094 0.42188,-0.42188 m 26.57812,0.63282 0,0.21093 0.63281,0.42188 0.63282,0 0,-0.42188 -0.21094,0.21094 -0.21094,0 -0.84375,-0.42187 m -26.15625,0 0.21094,0.21093 0,0.42188 -0.21094,0 -0.63281,-0.21094 0,-0.21094 0.63281,-0.21093 m 4.42969,4.00781 c 0.25779,1e-5 0.60935,-0.6328 1.05469,-1.89844 0.58591,-0.56248 1.14841,-0.84373 1.6875,-0.84375 l 1.05468,0 1.05469,1.05469 0,0.42187 c -0.2344,0.56252 -0.51565,0.84377 -0.84375,0.84375 l 0,0.21094 0.84375,0 0.84375,-0.84375 0,-0.63281 c -3e-5,-1.26561 -0.91409,-1.89842 -2.74219,-1.89844 -1.40627,2e-5 -2.39065,1.19533 -2.95312,3.58594 m 6.32812,3.58594 0,1.6875 c 0.3281,1e-5 0.53903,-0.91406 0.63282,-2.74219 0.74996,-1.26561 1.45309,-1.89843 2.10937,-1.89844 l 0,0.21094 -0.21094,0.21094 0,0.21093 1.47657,0 0.21093,-0.21093 0.84375,0.42187 0,-0.42187 c -3e-5,-0.32812 -0.56253,-0.67968 -1.6875,-1.05469 l 0,-0.63281 c 1.82809,-0.53905 2.74215,-1.45311 2.74219,-2.74219 -2.25003,1.17189 -3.37503,2.08595 -3.375,2.74219 -1.82816,1.73438 -2.74222,3.14063 -2.74219,4.21875 m 13.5,-6.75 0.42188,1.26562 c -5e-5,0.84377 -0.49223,1.47658 -1.47656,1.89844 -0.42192,-0.0937 -0.70317,-0.37499 -0.84375,-0.84375 l 1.05468,-0.63281 0,-0.42188 c -0.44535,2e-5 -0.93754,0.4922 -1.47656,1.47656 l 0.21094,0.84375 1.47656,0 0,0.21094 -0.21094,0.21094 0,0.21094 c 1.07808,1e-5 1.71089,-0.70312 1.89844,-2.10938 -5e-5,-0.70311 -0.35161,-1.40623 -1.05469,-2.10937 m -27.63281,0.21093 0,0.42188 0.63281,0 0,-0.42188 -0.63281,0 m -16.875,5.69532 c 0,3.30469 1.75781,5.90625 5.27344,7.80468 l 1.47656,0.21094 1.26563,0 1.26562,0.63281 2.95313,-0.42187 0.21093,0.21094 0,-0.21094 -0.21093,-0.21094 -1.89844,0 -1.05469,0.21094 0,-0.21094 0.21094,-0.21094 c 1.24217,-0.46874 1.87499,-0.89062 1.89844,-1.26562 -1.96876,0.51563 -3.09376,0.9375 -3.375,1.26562 -3.70313,1e-5 -6.09376,-1.82812 -7.17188,-5.48437 l -0.42187,-2.74219 c -1e-5,-1.26561 0.42187,-2.81248 1.26562,-4.64062 l 0,-0.42188 c -1.125,1.66408 -1.6875,3.4922 -1.6875,5.48438 m 18.14063,-5.48438 0,0.42188 0.42187,0 -0.42187,-0.42188 m 0.84375,0.42188 0,0.42187 0.42187,0 0,-0.42187 -0.42187,0 m 12.23437,0.21093 c 0.56247,0.46877 0.84372,0.89064 0.84375,1.26563 l -0.63281,1.89844 0,0.21093 0.21094,0 1.05468,-2.53125 0,-0.21093 -0.63281,-0.63282 -0.84375,0 m 5.0625,-0.21093 0.21094,0.21093 0,0.21094 -1.89844,0.84375 -0.21094,0 0,-0.21094 1.89844,-1.05468 m -17.92969,0.63281 -0.21093,0.21094 0,0.21093 0.21093,0.21094 0.21094,0 0.21094,-0.21094 0,-0.21093 -0.21094,-0.21094 -0.21094,0 m -1.26562,0.21094 -0.21094,0.21093 0,0.63282 0.42188,0 0.42187,-0.42188 0,-0.21094 -0.63281,-0.21093 m 2.10937,0.21093 -0.21093,0.84375 0,0.21094 0.21093,0 c -2e-5,-0.42186 0.21092,-0.6328 0.63282,-0.63281 l 1.26562,1.05469 c -0.28127,-0.98436 -0.84377,-1.47655 -1.6875,-1.47657 l -0.21094,0 m -15.82031,0.21094 0,0.84375 1.26563,0 0.42187,0.42188 0,0.21093 c -0.35157,0.60939 -0.84375,1.03127 -1.47656,1.26563 -1.26563,1e-5 -1.89844,-0.84374 -1.89844,-2.53125 l -0.21094,0 0,0.84375 c 0,1.12501 0.77344,1.82814 2.32032,2.10937 1.12499,-0.21092 1.68749,-0.77342 1.6875,-1.6875 l 0,-0.84375 -1.05469,-0.21093 -0.84375,0 0,-0.42188 -0.21094,0 M 172,186.94895 l -0.21094,0.84375 0,0.84375 0.21094,0 c -2e-5,-0.84374 0.14061,-1.26561 0.42187,-1.26563 l 0.42188,0 0.63281,0.42188 c -0.14064,-0.56249 -0.56252,-0.84374 -1.26562,-0.84375 l -0.21094,0 m 20.25,0 0,0.21093 1.47656,0 0,-0.21093 -1.47656,0 m 1.89844,0.21093 0,0.21094 0.63281,0 0,-0.21094 -0.63281,0 m -30.79688,3.375 -0.21094,0 c 0,-0.56248 -0.21094,-0.84373 -0.63281,-0.84375 -0.56251,2e-5 -1.33594,0.56252 -2.32031,1.6875 l -0.84375,-0.21093 0,-0.21094 0.21094,-0.21094 0,-0.21094 -0.21094,0 -0.21094,0.21094 0,-0.42187 -0.63281,0.63281 c 0.23437,0.70313 0.65625,1.0547 1.26562,1.05469 l -0.42187,0.63281 0,0.21094 0.63281,0 c 0.5625,1e-5 1.125,-0.42187 1.6875,-1.26563 l 0.21094,0 0,0.63281 -0.84375,1.47657 c -1e-5,0.70313 0.28124,1.05469 0.84375,1.05468 l 0,1.47657 0.42187,0.84375 0.42188,0 0.63281,-0.63282 0,-1.26562 1.05469,0.21094 0,-0.21094 c -0.25782,-1.26562 -0.60938,-2.10937 -1.05469,-2.53125 l 0.21094,-0.21094 0,-0.42187 -0.21094,0 c -0.14063,1.125 -0.35157,1.6875 -0.63281,1.6875 l -0.21094,-0.21094 0,-0.21094 0.63281,-2.32031 0.42188,0.42187 -0.21094,0.21094 0,0.21094 c 0.56249,-0.0703 0.84374,-0.28124 0.84375,-0.63281 l 0.21094,0 0,0.63281 -0.21094,0.21094 0.42188,0 -0.21094,0.63281 0.42187,2.95312 -0.21093,0.63282 0.21093,0.21093 0.21094,0 c -1e-5,-0.42187 0.14062,-0.6328 0.42188,-0.63281 0.49217,0.56251 0.98436,0.84376 1.47656,0.84375 0.84374,1e-5 1.26561,-0.35156 1.26562,-1.05469 -0.70313,-0.96093 -1.0547,-1.66405 -1.05468,-2.10937 l 0.84375,-0.21094 0,-0.21094 -0.84375,0 -0.63282,0.63282 c -1e-5,0.5625 0.42187,1.19532 1.26563,1.89843 l -0.63281,0.63282 -0.84375,-0.63282 0.21093,-0.21093 -0.21093,0 -0.21094,0.21093 c -0.28126,-0.72655 -0.4922,-2.1328 -0.63281,-4.21875 l -1.26563,-0.42187 c 0.2578,-2.10936 1.31249,-3.16405 3.16406,-3.16406 l 0.42188,0 c 2.1328,1e-5 3.67967,1.47657 4.64062,4.42968 l 0.21094,0 c -0.77345,-3.23436 -2.39064,-4.85154 -4.85156,-4.85156 l -0.63281,0 c -1.87501,2e-5 -3.14064,1.0547 -3.79688,3.16406 m 32.0625,-2.95312 0,0.21094 c 1.40621,0.51563 2.10933,1.50001 2.10938,2.95312 l -0.21094,1.6875 0.63281,-0.63281 0,-1.26563 c -4e-5,-1.12498 -0.77348,-2.10936 -2.32031,-2.95312 l -0.21094,0 m -15.82031,4.00781 c -1.1719,1e-5 -2.08596,-1.1953 -2.74219,-3.58594 l -0.63281,0 -0.21094,1.05469 -1.6875,-0.63281 -0.84375,0.84375 0,0.21094 c 1.03123,1e-5 1.87498,0.91407 2.53125,2.74218 0.74998,0.98439 1.38279,1.47657 1.89844,1.47657 l 1.26562,-0.42188 c -2e-5,0.56251 0.1406,0.84376 0.42188,0.84375 l 1.05469,0 0,-0.63281 -0.21094,-0.21094 0,-0.21094 1.05469,0.21094 0.63281,0 c 0.60935,-0.0937 1.38278,-1.21874 2.32031,-3.375 l 1.26563,-0.84375 1.26562,0.42188 0,-0.63282 c -3e-5,-0.42186 -0.56253,-0.70311 -1.6875,-0.84375 -0.30472,2e-5 -0.93753,0.42189 -1.89844,1.26563 l -0.21093,-0.21094 0,-0.21094 0.21093,-0.21093 0,-0.21094 -0.21093,-0.63281 c -1.40628,1e-5 -2.1094,0.84376 -2.10938,2.53125 -2e-5,0.72657 -0.49221,1.14844 -1.47656,1.26562 m 14.34375,-3.79687 c -3.23441,4.64063 -6.75003,6.96094 -10.54688,6.96093 l -0.63281,0 0,1.05469 c 4.87497,1e-5 9.30465,-2.39062 13.28906,-7.17187 l 0,-0.21094 -2.10937,-0.63281 m -16.24219,0.21093 0,0.42188 0.21094,0 0,-0.42188 -0.21094,0 m -12.65625,2.10938 c 4.35936,3.93751 9.91404,5.90625 16.66406,5.90625 l -0.21093,-1.05469 -0.21094,0 c -5.71877,1e-5 -10.28908,-2.10936 -13.71094,-6.32812 l 0.21094,-0.21094 -0.21094,0 0,0.21094 -0.21094,-0.21094 -0.42187,0 c -1.26564,0.21095 -1.89845,0.77345 -1.89844,1.6875 m 2.95313,-1.6875 c 0.28123,0.63282 0.56248,0.98439 0.84375,1.05469 l 0,-0.21094 c -0.28127,1e-5 -0.42189,-0.21093 -0.42188,-0.63281 l -0.21094,-0.21094 -0.21093,0 m 14.13281,0 -0.21094,1.05469 0,0.63281 -0.42187,0 0,-1.47656 0.63281,-0.21094 m 14.13281,0.42187 c -1.8516,2.9297 -4.6641,5.03907 -8.4375,6.32813 -1.9219,0.70313 -3.53909,1.05469 -4.85156,1.05469 l 0,0.21093 1.05469,0 c 4.61715,-0.91405 8.13277,-2.53124 10.54687,-4.85156 l 1.89844,-2.53125 0,-0.21094 -0.21094,0 m -7.38281,1.47657 0,0.21093 0.63281,-0.42187 0.21094,0 0.84375,0.63281 0.21094,-0.21094 0,-0.42187 -0.63282,-0.63281 c -0.84378,0.28126 -1.26565,0.56251 -1.26562,0.84375 m -31.21875,-0.63282 0,0.42188 0.63281,0.21094 0,-0.42188 -0.63281,-0.21094 m 4.42969,0.63282 0.42187,0 0.42188,0.42187 0,0.21094 -0.21094,0 -0.63281,-0.63281 m 22.57031,1.47656 0,0.21094 0.21094,0 c 0.0703,-0.56249 0.28122,-0.84374 0.63281,-0.84375 l 0.42187,0 c 0.56247,0.28126 0.84372,0.63282 0.84375,1.05468 l 0.21094,0 0,-0.63281 c -0.18753,-0.70311 -0.67972,-1.05468 -1.47656,-1.05469 l -0.21094,0 c -0.4219,0.14064 -0.63284,0.56251 -0.63281,1.26563 M 161.875,190.74582 c 0.46874,0.14064 0.74999,0.42189 0.84375,0.84375 l -0.42188,0 -0.42187,-0.42187 0,-0.42188 m 34.17187,0.63281 0.21094,0.21094 0.42188,0 0,-0.63281 -0.21094,0 -0.42188,0.42187 m -20.25,-0.42187 0.63282,0 c -2e-5,0.42188 0.42185,1.12501 1.26562,2.10937 l -0.42187,0 c -0.67971,-0.46874 -1.1719,-1.17186 -1.47657,-2.10937 m 1.05469,0.21094 0.84375,0.84375 0,0.42187 -0.84375,-0.84375 0,-0.42187 m 27.21094,0 0,0.21093 -0.21094,0.63282 -0.21094,0 -0.21093,-0.63282 0.21093,-0.21093 0.42188,0 m -25.52344,0.42187 0.84375,0.21094 1.05469,-0.21094 c -0.14065,0.84376 -0.35159,1.26564 -0.63281,1.26563 l -1.26563,-1.05469 0,-0.21094 m 16.66406,0.21094 0,0.21094 0.42188,0 0,-0.21094 -0.42188,0 m 0.63282,0.63281 0,0.42188 0.63281,0 0,-0.42188 -0.63281,0 m 6.11718,0.42188 -0.42187,0.63281 0.21094,0 0.42187,-0.63281 -0.21094,0 m -19.82812,1.89843 0,1.05469 c -3e-5,0.82032 0.63278,1.80469 1.89844,2.95313 l 0.21093,0 0,-0.21094 c -1.26565,-0.91406 -1.89846,-1.96875 -1.89843,-3.16406 l 0,-0.21094 c -3e-5,-0.77343 0.35153,-1.33593 1.05468,-1.6875 l 0.84375,0 0.21094,0.21094 0.21094,0 0,-0.63282 -1.47656,0 c -0.70316,0.35157 -1.05472,0.91407 -1.05469,1.6875 m 15.39844,-1.6875 0,0.42188 0.42187,0 0,-0.42188 -0.42187,0 m -2.53125,0.21094 0.42187,0.42188 0,-0.42188 -0.42187,0 m 1.47656,0.21094 0,0.42187 0.42187,0 -0.42187,-0.42187 m -36.49219,0.42187 0,0.42188 0.42188,0 0,-0.42188 -0.42188,0 m 33.75,0 -0.63281,1.05469 0,0.42188 0.21094,0 c -4e-5,-0.84375 0.28121,-1.26562 0.84375,-1.26563 l 0,-0.21094 -0.42188,0 m -24.89062,0.63282 0,0.42187 1.05468,-0.21094 c 0.28124,1e-5 0.42186,0.35157 0.42188,1.05469 l 0.21094,0 0,-0.63281 c -0.14064,-0.56249 -0.49221,-0.84374 -1.05469,-0.84375 l -0.63281,0.21094 m 27.42187,1.26562 c -4e-5,0.98438 0.49215,1.47657 1.47656,1.47656 l 1.05469,-0.21093 0,-0.21094 c -1.12504,0 -1.68754,-0.28125 -1.6875,-0.84375 l 0,-0.63281 c -4e-5,-0.42187 0.42183,-0.63281 1.26563,-0.63282 l -0.42188,-0.42187 c -1.12504,0.0938 -1.68754,0.58594 -1.6875,1.47656 m 7.17188,-1.6875 0,0.21094 c -5e-5,0.58594 -0.35161,1.28907 -1.05469,2.10937 l -0.21094,0 c -5e-5,-0.65624 0.42183,-1.42968 1.26563,-2.32031 m -43.24219,1.05469 0.42187,0 0,-0.42188 -0.42187,0.42188 m 30.79687,-0.42188 -0.21093,0.21094 0,0.21094 0.21093,0 0.21094,-0.21094 0,-0.21094 -0.21094,0 m 0.84375,0 0,0.21094 0.63282,0.21094 0,-0.21094 -0.21094,-0.21094 -0.42188,0 m -34.38281,0.42188 0,0.21094 0.63281,2.53125 -1.05468,0.42187 0,0.42188 0.63281,0 c 0.39843,0 0.67968,-0.70313 0.84375,-2.10938 l -0.21094,0 -0.21094,0.21094 -0.42187,-1.6875 -0.21094,0 m 35.22656,0 -0.21093,0.21094 0,0.21093 c 0.32808,0.98438 0.60933,1.47657 0.84375,1.47657 l 0,-0.21094 -0.63282,-1.47656 0.21094,-0.21094 -0.21094,0 m -23.83593,2.74219 0.21093,0 c 1.0078,-0.46875 1.92186,-1.24219 2.74219,-2.32032 l 0,-0.21093 -0.21094,0 -2.74218,2.53125 m 4.85156,-2.53125 0,0.21093 2.95312,0.63282 0.63282,0 0,-0.21094 -3.375,-0.63281 -0.21094,0 m 19.82812,0 -0.21093,0.21093 0,0.21094 0.21093,0.21094 0.42188,0 0,-0.21094 -0.42188,0 0.21094,-0.21094 0,-0.21093 -0.21094,0 m -33.75,0.42187 0,0.21094 0.21094,0.21094 0.84375,0 0,-0.21094 -1.05469,-0.21094 m 29.10938,0 c 1.7109,1.96876 3.82027,2.95313 6.32812,2.95313 l 1.05469,0 0,-0.21094 c -3.04691,0 -5.43753,-0.91406 -7.17187,-2.74219 l -0.21094,0 m 7.59375,2.53125 0,0.21094 0.63281,0 c 1.49996,-0.375 2.90621,-1.21875 4.21875,-2.53125 l 0,-0.21094 c -2.20317,1.68751 -3.82035,2.53125 -4.85156,2.53125 m -2.10938,-2.32031 0,0.21094 c 0.42184,0 0.63278,0.14063 0.63282,0.42187 l 0.21093,0 0,-0.63281 -0.84375,0 m -30.375,0.21094 0,0.42187 0.21094,0 0,-0.42187 -0.21094,0 m 7.17188,1.05468 2.32031,-0.63281 0.42188,0 c 0.56248,1e-5 0.84373,0.56251 0.84375,1.6875 l 0.42187,-0.42187 0,-0.21094 c -2e-5,-0.98437 -0.56252,-1.47656 -1.6875,-1.47656 l -0.42187,0 c -1.26565,0.28125 -1.89846,0.63281 -1.89844,1.05468 m 6.53906,-1.05468 0,0.21093 1.47656,0.21094 0,-0.21094 -0.21093,-0.21093 -1.26563,0 m 2.10938,0.21093 0,0.21094 1.89843,0 0,-0.21094 -1.89843,0 m 5.0625,1.6875 0.42187,0.42188 c -3e-5,-0.98437 0.21091,-1.47656 0.63281,-1.47656 l 5.48438,1.6875 0.84375,0 0,-0.21094 c -1.00785,0 -2.90629,-0.63281 -5.69531,-1.89844 l -0.21094,0 c -0.98441,1e-5 -1.47659,0.49219 -1.47656,1.47656 m -21.30469,-1.05468 0,0.42187 0.42187,0 -0.42187,-0.42187 m 13.92187,0.63281 0,0.63281 0.21094,0 c -2e-5,-0.70312 0.42185,-1.05468 1.26563,-1.05469 l 0,-0.21093 -0.84375,0 -0.63282,0.63281 m 1.6875,-0.42188 0,0.21094 0.42188,0 0,-0.21094 -0.42188,0 m 1.6875,0 c 0.60935,0.98438 1.24216,1.47657 1.89844,1.47657 l 0.42188,0 -1.47657,-1.47657 -0.84375,0 m 19.61719,0.21094 0,1.26563 0.42188,0 -0.21094,-1.26563 -0.21094,0 m -20.25,0.21094 0,0.21094 0.21094,0.21093 0.21094,0 0,-0.21093 -0.21094,-0.21094 -0.21094,0 m 0.63281,0.42187 0,0.21094 0.21094,0.21094 0.21094,0 0,-0.21094 -0.21094,-0.21094 -0.21094,0"
         style="font-size:72px;font-variant:normal;font-stretch:normal;font-family:Goudy Initials;-inkscape-font-specification:Goudy Initials"
         id="path4444" />
    </g>
  </g>
</svg>
