<?xml version="1.0" encoding="UTF-8" standalone="no"?>
<!-- Created with Inkscape (http://www.inkscape.org/) -->

<svg
   xmlns:dc="http://purl.org/dc/elements/1.1/"
   xmlns:cc="http://creativecommons.org/ns#"
   xmlns:rdf="http://www.w3.org/1999/02/22-rdf-syntax-ns#"
   xmlns:svg="http://www.w3.org/2000/svg"
   xmlns="http://www.w3.org/2000/svg"
   xmlns:sodipodi="http://sodipodi.sourceforge.net/DTD/sodipodi-0.dtd"
   xmlns:inkscape="http://www.inkscape.org/namespaces/inkscape"
   width="56.734375"
   height="56.734375"
   id="svg2"
   version="1.1"
   inkscape:version="0.48.5 r10040"
   sodipodi:docname="o.svg">
  <defs
     id="defs4" />
  <sodipodi:namedview
     id="base"
     pagecolor="#ffffff"
     bordercolor="#666666"
     borderopacity="1.0"
     inkscape:pageopacity="0"
     inkscape:pageshadow="2"
     inkscape:zoom="3.959798"
     inkscape:cx="43.996764"
     inkscape:cy="5.617196"
     inkscape:document-units="px"
     inkscape:current-layer="layer1"
     showgrid="false"
     fit-margin-top="2"
     fit-margin-left="2"
     fit-margin-right="2"
     fit-margin-bottom="2"
     inkscape:window-width="1366"
     inkscape:window-height="733"
     inkscape:window-x="0"
     inkscape:window-y="0"
     inkscape:window-maximized="1"
     showborder="true"
     borderlayer="false" />
  <metadata
     id="metadata7">
    <rdf:RDF>
      <cc:Work
         rdf:about="">
        <dc:format>image/svg+xml</dc:format>
        <dc:type
           rdf:resource="http://purl.org/dc/dcmitype/StillImage" />
        <dc:title></dc:title>
      </cc:Work>
    </rdf:RDF>
  </metadata>
  <g
     inkscape:label="Layer 1"
     inkscape:groupmode="layer"
     id="layer1"
     transform="translate(-152.28125,-146.34738)">
    <g
       style="font-size:40px;font-style:normal;font-weight:normal;line-height:125%;letter-spacing:0px;word-spacing:0px;fill:#ffffff;fill-opacity:1;stroke:none;font-family:Sans"
       id="flowRoot2985">
      <path
         d="m 154.28125,148.34738 52.73437,0 0,52.73438 -52.73437,0 0,-52.73438 m 1.05469,1.05469 0,50.625 50.625,0 0,-50.625 -50.625,0 m 0.42187,0.63281 49.57031,0 0,49.57032 -49.57031,0 0,-49.57032 m 4.64063,1.89844 -0.21094,-0.21094 0,0.21094 0.21094,0.21094 0.63281,0 1.26562,-0.84375 0.63282,0.63281 c -1e-5,0.4688 -0.21095,0.96099 -0.63282,1.47656 l 0,0.21094 1.05469,-1.05469 0,-1.05468 c -0.14063,-0.42183 -0.56251,-0.63277 -1.26562,-0.63282 l -1.6875,1.05469 m 42.60937,-1.05469 0,0.21094 0.42188,0 0,-0.21094 -0.42188,0 m -24.25781,0.21094 0,0.21094 0.42187,0 0,0.84375 c -2e-5,0.23442 -0.35158,0.44536 -1.05468,0.63281 l -5.27344,-1.26562 -0.21094,0 0,0.21093 4.85156,1.26563 1.26563,0 c 0.84372,5e-5 1.2656,-0.35151 1.26562,-1.05469 -0.21096,-0.56245 -0.4219,-0.8437 -0.63281,-0.84375 l -0.63281,0 m 11.60156,0 0.21094,0.21094 0,0.63281 -0.42188,0.63281 0.21094,0 c 0.23434,5e-5 0.44528,-0.35151 0.63281,-1.05468 l -0.63281,-0.42188 m 0.42188,1.6875 4.21875,-1.26562 0.84375,0 c 3.02339,5e-5 5.13276,1.19536 6.32812,3.58593 l 0.42188,0 0,-0.63281 c -1.7813,-2.24995 -4.10161,-3.37495 -6.96094,-3.375 -3.23441,0.51568 -4.8516,1.07818 -4.85156,1.6875 m 10.96875,-1.26562 0,0.42187 0.42187,0 0.42188,-0.42187 -0.42188,-0.42188 -0.42187,0.42188 m -18.98438,0 0,0.21093 1.26563,0 -0.42188,1.26563 1.26563,0.42187 1.26562,0 c 0.42185,5e-5 0.63278,-0.56245 0.63281,-1.6875 0.42185,5e-5 0.63278,-0.14057 0.63282,-0.42187 l -0.21094,0 c -0.37503,5e-5 -0.72659,0.35161 -1.05469,1.05469 l 0.21094,0.63281 -0.21094,0 -1.05469,0.21094 -0.84375,-0.21094 0.21094,-1.47656 -0.21094,-0.21094 -0.42187,0 -1.05469,0.21094 m 16.66406,-0.21094 0,0.21094 0.42188,0 0,-0.21094 -0.42188,0 m -35.22656,1.47656 c -1e-5,0.2813 0.21093,0.42192 0.63281,0.42188 l 3.79688,-0.63282 0.21094,0 c 3.63279,5e-5 6.23435,1.89849 7.80468,5.69532 l 0.21094,1.05468 c -2e-5,2.03911 -0.91408,3.16411 -2.74219,3.375 -0.44533,4e-5 -0.72658,-0.49214 -0.84375,-1.47656 l -0.21093,0 0,0.84375 c -2e-5,0.7266 0.35154,1.2891 1.05468,1.6875 l 0.42188,0 c 1.12498,-0.11715 1.68748,-0.60934 1.6875,-1.47656 l 0.21094,0 0.63281,0.42187 0.84375,-2.74218 0,-0.42188 c -2e-5,-1.14839 -0.4219,-2.06245 -1.26563,-2.74219 l 0.42188,-0.42187 0.42187,0 c 0.65623,2.25004 1.57029,3.37504 2.74219,3.375 l 0,-0.21094 -0.21094,-0.21094 0,-0.21093 c 1.54685,4e-5 2.32029,-0.2109 2.32032,-0.63282 l 0,-0.63281 -0.21094,0 c -3e-5,0.42192 -0.14065,0.63286 -0.42188,0.63281 l -0.42187,0 c -0.93753,5e-5 -2.55471,-1.47651 -4.85156,-4.42968 l -0.21094,0 -0.84375,0.63281 -0.21094,-0.21094 0,-0.21094 c -2e-5,-0.2812 0.28123,-0.42182 0.84375,-0.42187 -2e-5,-0.30464 -0.77346,-0.79683 -2.32031,-1.47656 l -0.21094,0 0,0.21093 0.42188,0 -0.42188,0.42188 -0.21094,0 -0.42187,-0.42188 0.42187,0 0,-0.42187 -4.00781,-0.63281 c -1.66407,5e-5 -3.35157,0.42192 -5.0625,1.26562 m 23.625,-1.26562 0,0.21093 c 0.42184,5e-5 0.63278,0.14068 0.63281,0.42188 l 0,0.42187 -0.42187,1.6875 0,0.21094 0.63281,0.21094 c 0.70309,-0.96089 1.05465,-1.66402 1.05469,-2.10938 l 0,-0.42187 -0.21094,0 -0.21094,0.21094 -0.21093,0 -0.21094,-0.84375 -1.05469,0 m 15.60938,0.21093 -0.21094,0.21094 0,0.21094 c 0.37495,5e-5 0.6562,0.56255 0.84375,1.6875 l 0.21094,0 0,-0.42188 c -0.16411,-1.12495 -0.44536,-1.68745 -0.84375,-1.6875 m -9.91407,0.42188 0,0.21094 c 0.70309,5e-5 1.05465,0.42192 1.05469,1.26562 l 0.42188,-0.42187 0,-0.63282 -0.42188,-0.42187 -1.05469,0 m 1.89844,1.6875 0.84375,0.63281 -0.42187,-1.05469 0.21093,-0.21093 0.21094,0 0.21094,0.84375 c 0.32808,4e-5 0.53902,-0.35152 0.63281,-1.05469 l -0.21094,0 c -0.42191,5e-5 -0.63285,-0.21089 -0.63281,-0.63281 -0.37504,5e-5 -0.65629,0.49223 -0.84375,1.47656 m 7.17188,-1.47656 -0.21094,0.21093 0,0.21094 0.42187,0.42188 0.21094,0 0,-0.42188 -0.42187,-0.42187 m -44.08594,0.21093 0.42187,1.26563 -0.21093,4.64062 1.26562,0.84375 0,0.21094 -1.05469,0 -0.21093,-0.21094 -0.21094,0 -0.42188,1.05469 c 0,1.73442 1.54687,3.00004 4.64063,3.79688 l 0,0.63281 -0.63281,0 c -0.75001,-0.56246 -1.38282,-0.84371 -1.89844,-0.84375 l -0.42188,0 -0.63281,0.63281 0.84375,0.42188 0,0.42187 -1.26562,0 c -0.67969,0.32816 -1.31251,0.89066 -1.89844,1.6875 l 0,1.47656 c 0.58593,-0.56246 1.28906,-0.84371 2.10937,-0.84375 l 1.47657,0.21094 0.84375,-0.21094 0,0.42188 -0.42188,0.63281 0,0.21094 1.47656,0.21094 c 0.72656,3e-5 1.85156,-0.42185 3.375,-1.26563 l 0,0.63281 c -0.42188,4e-5 -0.63282,0.14066 -0.63281,0.42188 l 0,0.21094 2.32031,0 0,-4.00782 -0.21093,-1.05468 0.21093,-0.21094 -0.21093,0 -0.21094,0.21094 0,-0.21094 c 0.0234,-1.68746 0.16405,-2.53121 0.42187,-2.53125 -0.18751,-0.84371 -0.39845,-1.26558 -0.63281,-1.26563 l -1.05469,0.84375 -0.42187,-0.42187 0.42187,-1.26563 0,-0.63281 c -1e-5,-0.46871 -0.21094,-0.96089 -0.63281,-1.47656 -0.60938,4e-5 -1.10157,0.70317 -1.47656,2.10937 l -0.63281,0 0.21093,-0.21093 0,-1.6875 c -0.28125,4e-5 -0.42188,-0.35152 -0.42187,-1.05469 l -0.21094,0 0,1.47656 c -0.32813,5e-5 -0.53907,-0.91402 -0.63281,-2.74219 l 0,-0.21093 0.21094,0 0.21093,1.26562 0.21094,0 0.21094,-1.05469 c -0.18751,-0.58589 -0.53907,-1.00776 -1.05469,-1.26562 l -0.21094,0 -0.21093,0.84375 -0.42188,0 c -0.1875,-1.4062 -0.82032,-2.10933 -1.89844,-2.10938 l -0.42187,0 m 15.39844,0.21094 0.21093,0 0.63282,0.21094 -0.42188,0.42187 -0.42187,-0.42187 0,-0.21094 m 15.1875,1.89844 0,0.42187 0.84375,0.21094 c 0.23434,-0.56245 0.72652,-0.8437 1.47656,-0.84375 l 0.63281,0 0.84375,0.84375 0,0.63281 c -4e-5,0.42192 -0.28129,0.63286 -0.84375,0.63282 l 0,0.21093 0.63281,0 0.84375,-0.84375 0,-0.63281 c -3e-5,-0.8437 -0.3516,-1.26558 -1.05468,-1.26562 l 0,-0.42188 0.42187,0 0,-0.21094 -1.05469,-0.21093 -0.42187,0 c -0.86722,4e-5 -1.64066,0.49223 -2.32031,1.47656 m -25.73438,-1.05469 -0.21094,0.21094 0,0.21094 c 0,0.18754 0.98437,0.60942 2.95313,1.26562 1.40624,0.72661 2.10936,2.83598 2.10937,6.32813 l 0,26.78906 -0.21093,1.05469 c 0.6328,0.28126 1.54686,0.42188 2.74218,0.42187 l 0.63282,0 0.21093,-8.4375 0,-3.375 c 0.0937,-0.84372 0.30467,-1.2656 0.63282,-1.26562 l 8.22656,0.21093 c 4.47653,3e-5 8.06247,-1.82809 10.75781,-5.48437 l -3.16406,-0.42188 c -1.66409,3.09378 -4.89847,4.64065 -9.70313,4.64063 l -2.95312,0 c -2.53127,2e-5 -3.79689,-0.7031 -3.79688,-2.10938 l 0,-16.03125 c -1e-5,-1.54683 0.84374,-2.32026 2.53125,-2.32031 -0.4922,-0.8437 -1.12501,-1.26558 -1.89843,-1.26562 l -3.16407,0 c -2.43751,4e-5 -4.33594,-0.14058 -5.69531,-0.42188 m 11.17969,-0.21094 0.84375,0 -0.42188,0.84375 -0.42187,-0.42187 0,-0.42188 m 2.53125,0.42188 c 0.23435,0.8438 1.00779,1.26567 2.32031,1.26562 4.57029,5e-5 7.80466,1.89849 9.70313,5.69532 0.42184,0.84379 0.63277,1.89847 0.63281,3.16406 l -0.42188,4.85156 0.42188,0 2.74219,0.63281 1.05468,-4.64062 c -3e-5,-5.85933 -3.02347,-9.51558 -9.07031,-10.96875 l -3.375,-0.21094 -1.89844,0 -2.10937,0.21094 m 20.03906,0.42187 0,0.42188 1.05469,-0.42188 0,0.42188 c -0.42192,5e-5 -0.63286,0.14067 -0.63281,0.42187 l 0,0.21094 0.21093,0 1.05469,-0.42187 0,0.42187 c -0.42192,5e-5 -0.63285,0.14067 -0.63281,0.42188 l 0.42187,0 1.05469,-0.42188 0,0.21094 -1.47656,1.26562 0.21094,-0.21093 1.05468,0 c -0.14067,0.42192 -0.56254,0.63285 -1.26562,0.63281 l 0,0.21094 1.05469,0.21093 0,0.42188 -0.84375,0 -0.21094,-0.21094 -0.21094,0 -0.21094,0.21094 0,0.21094 1.26563,0.63281 c 1.12495,-0.18746 1.68745,-0.67965 1.6875,-1.47656 l -0.21094,0 c -0.56254,4e-5 -0.84379,-0.14058 -0.84375,-0.42188 0.98433,5e-5 1.47652,-0.77339 1.47656,-2.32031 L 200.05469,154.25363 199,154.46457 c -4e-5,-0.56245 -0.14067,-0.8437 -0.42188,-0.84375 l -0.21093,0 c -0.8438,0.0938 -1.26567,0.30474 -1.26563,0.63281 m 6.53906,-0.21093 0,0.21093 0.21094,0 -0.63281,1.05469 0.21094,0 0.63281,-1.05469 -0.21094,-0.21093 -0.21094,0 m -9.28125,0.42187 -0.21093,0.84375 1.26562,0.63281 0.21094,-0.21093 0,-0.21094 -0.63281,-0.21094 0,-0.42187 0.42187,0 0.21094,0.21093 0.21094,0 0,-0.21093 -0.42188,-0.42188 -1.05469,0 m -31.00781,0.21094 0,0.21094 2.53125,1.05468 0,-0.21093 -2.53125,-1.05469 m 12.44531,0 1.05469,0 c -2e-5,0.42192 0.1406,0.63286 0.42188,0.63281 -0.0469,0.37505 -0.39846,0.6563 -1.05469,0.84375 l 0,-0.84375 -0.21094,0.21094 -0.21094,0 0,-0.84375 m 20.25,0.42187 0,0.42188 -0.21093,0.21094 0.21093,0.21093 0.63282,0.21094 0,0.42188 -1.6875,-0.42188 c -1.54692,0.53911 -2.32035,1.31255 -2.32032,2.32031 0.79684,-1.26558 1.64059,-1.89839 2.53125,-1.89843 0.84371,0.14067 1.26559,0.3516 1.26563,0.63281 l -0.21094,0.63281 0.21094,-0.21094 0.21094,0.21094 0.42187,0 0,-1.89844 -0.63281,0 0,-0.63281 0.42187,0 0,-0.21094 -0.84375,0 m -39.44531,1.05469 0,0.21094 c 0.70312,4e-5 1.05469,0.35161 1.05469,1.05469 l 0,0.63281 0.21094,0 0.21093,-1.05469 0,-0.63281 -0.63281,-0.84375 c -0.5625,0.21098 -0.84375,0.42192 -0.84375,0.63281 m 22.14844,-0.63281 0,0.21094 1.05469,0.21093 2.10937,0 0,-0.21093 -2.95312,-0.21094 -0.21094,0 m -6.75,1.89844 0.21094,4.64062 -0.21094,7.38281 0,1.26563 0.21094,0 0.21093,-6.32813 0,-6.75 c -1e-5,-0.98433 0.6328,-1.47651 1.89844,-1.47656 l 0.42188,0 -0.42188,-0.42187 -0.42187,0 c -1.03127,4e-5 -1.66408,0.56254 -1.89844,1.6875 m -12.02344,-1.6875 0.63281,0 0,0.84375 0.21094,-0.21094 0.21094,0 0,0.42187 0.21094,0 -0.21094,0.21094 0,0.21094 0.21094,0.63281 -0.21094,0 -0.21094,0.21094 -0.21094,0 0,-0.42188 0.21094,-0.21093 0,-0.21094 c -0.28125,4e-5 -0.42188,-0.28121 -0.42187,-0.84375 l -0.63282,0 0.21094,-0.63281 m 2.95313,0.21093 0,0.63282 0.21093,0 0,-0.63282 -0.21093,0 m 19.19531,0 0,0.21094 0.84375,0 0,-0.21094 -0.84375,0 m 20.88281,0.42188 0,0.42187 0.21094,0 0,-0.42187 -0.21094,0 m -0.42187,0.21094 0,1.05468 0.21093,0 0,-1.05468 -0.21093,0 m -19.19532,1.6875 1.05469,-0.63282 c 0.98435,5e-5 1.47653,0.98442 1.47656,2.95313 l 0.21094,0 0,-2.10938 c -0.49222,-0.98433 -1.05472,-1.47651 -1.6875,-1.47656 -0.70315,0.0938 -1.05471,0.51567 -1.05469,1.26563 m 19.82813,-1.26563 0,1.6875 0.21094,0 0,-1.6875 -0.21094,0 m -29.32031,1.26563 0.21093,0 0.42188,-0.42188 0.21094,0 0.63281,0.63281 c -2e-5,0.75005 -0.63283,1.38286 -1.89844,1.89844 l -0.21094,0.21094 0,0.42187 0.21094,0 c 1.68748,-0.82027 2.53123,-1.87495 2.53125,-3.16406 l -0.21094,0 -0.21093,0.21094 c -2e-5,-0.42183 -0.14065,-0.63277 -0.42188,-0.63281 l -0.63281,0 c -0.21096,4e-5 -0.42189,0.28129 -0.63281,0.84375 m 21.51562,0 0,1.26562 0.84375,0 0.42188,-0.42187 0,-0.21094 -0.21094,0.21094 -0.21094,0 -0.63281,-0.21094 0.21094,-1.05469 -0.42188,0.42188 m 8.4375,-0.42188 0,0.42188 0.21094,0 0,-0.42188 -0.21094,0 m -46.19531,0.42188 0,0.63281 0.21094,0 0,-0.63281 -0.21094,0 m 3.16406,-0.21094 0.21094,0 0.42187,0.42187 0,0.42188 -0.21093,-0.21094 -0.21094,0 -0.21094,0.21094 0,-0.84375 m 25.94531,0.42187 -0.21093,1.47657 0,1.05468 c -3e-5,2.48442 0.7734,4.38285 2.32031,5.69532 l 0.21094,-0.21094 0,-0.21094 c -1.26566,-1.57027 -1.89847,-3.25777 -1.89844,-5.0625 l 0,-0.84375 0.21094,-1.47656 -0.63282,-0.42188 m 15.60938,0.21094 0,0.63281 0.21094,0 0,-0.63281 -0.21094,0 m -4.64063,0.21094 0,0.21094 0.63282,0.63281 -0.42188,0 -0.63281,-0.42188 0,0.21094 c 0.18746,0.46879 0.74996,0.89067 1.6875,1.26563 l 0.42187,0.42187 0.21094,-0.21094 0.21094,0 -0.63281,-1.05468 0.84375,0 0,-0.42188 -2.32032,-0.63281 m 5.27344,0 c -5e-5,1.75785 -1.26567,3.09379 -3.79687,4.00781 l -1.05469,0.21094 -0.84375,0 -2.53125,-0.42188 0,0.42188 c -4e-5,0.28129 0.2109,0.42191 0.63281,0.42187 l 3.375,0.21094 c 2.95308,-1.21871 4.42964,-2.76558 4.42969,-4.64062 l 0,-0.21094 -0.21094,0 m -21.51562,1.6875 0,1.26562 c -3e-5,0.28129 0.21091,0.42192 0.63281,0.42188 l 1.26562,0 0,-0.21094 c -1.12502,4e-5 -1.68752,-0.2109 -1.6875,-0.63281 l 0,-0.63281 0.42188,-0.84375 0.42187,0 -0.21093,1.05468 0.63281,0.63282 0.42187,-0.42188 c -0.4219,4e-5 -0.63284,-0.2109 -0.63281,-0.63281 l 0.63281,-0.42188 0.42188,0 0.63281,0.42188 0.42188,0 0,-0.42188 -1.26563,-0.42187 -1.05469,0.21094 c -2e-5,-0.28121 0.42185,-0.49215 1.26563,-0.63282 0.56247,0.0704 0.84372,0.2813 0.84375,0.63282 l 0.21094,0 0,-0.42188 -1.26563,-0.42187 c -0.67971,4e-5 -1.38284,0.49223 -2.10937,1.47656 m 22.14843,-1.47656 c -4e-5,0.56254 -0.49223,1.75785 -1.47656,3.58593 l -0.21094,-0.21093 -0.21093,0 0,0.21093 0.21093,0.21094 c -0.21098,4e-5 -0.42192,0.28129 -0.63281,0.84375 -4e-5,1.00785 0.56245,1.71097 1.6875,2.10938 l 0.84375,-0.21094 0,-0.42188 -0.21094,0.21094 -0.63281,0 -0.84375,-0.84375 0,-0.63281 1.6875,-4.64063 0,-0.21093 -0.21094,0 m -42.1875,0 0.42188,0.42187 -0.84375,0.21094 0,-0.21094 0.42187,-0.42187 m 2.95313,0.21093 0.42187,0.42188 0,0.42187 -0.63281,0 0,-0.21093 0.21094,-0.63282 M 199,162.05832 l -0.21094,0 c -0.86723,4e-5 -1.42973,-0.49215 -1.6875,-1.47656 l -0.63281,0.21094 0,0.84375 c -4e-5,0.42191 0.63277,0.70316 1.89844,0.84375 1.94526,4e-5 3.2812,-0.98434 4.00781,-2.95313 -1.2188,1.68754 -2.3438,2.53129 -3.375,2.53125 m -25.73438,4.64063 0,1.89843 0.21094,0 c 3.5156,-1.5234 5.27342,-3.91402 5.27344,-7.17187 l 0,-1.47656 c -0.35159,4e-5 -0.56252,0.70316 -0.63281,2.10937 -1.40627,3.09379 -3.02346,4.64066 -4.85157,4.64063 m -11.8125,-6.53907 c 0.32812,5e-5 1.10156,1.12504 2.32032,3.375 1.28905,1.26567 2.1328,1.89848 2.53125,1.89844 l 0.42187,0.63281 -0.21094,0.21094 -0.21093,0 c -3.23439,-2.67184 -4.85157,-4.7109 -4.85157,-6.11719 m 1.26563,0.21094 1.05469,0 -0.42188,0.42188 -0.63281,0 0,-0.42188 m 2.10937,0 -0.63281,0.63281 -0.21094,-0.21093 0,-0.21094 0.21094,-0.21094 0.63281,0 m -5.90625,0.63281 1.6875,1.89844 -0.42187,0 -1.6875,-1.6875 0.21094,-0.21094 0.21093,0 m 0.21094,0 0.42188,0 1.05468,1.05469 0,0.21094 c -0.63281,-0.23434 -1.125,-0.65621 -1.47656,-1.26563 m 4.42969,0 0.21094,0.21094 -0.21094,0.21094 0,0.42187 1.05469,-0.84375 0,0.42188 c -1e-5,0.28129 -0.21095,0.42191 -0.63282,0.42187 l -0.21093,0.21094 0,0.21094 0.42187,0 0.21094,-0.21094 0.21094,0 c 0.32811,0.89066 1.10155,2.01566 2.32031,3.375 l -0.21094,0 c -0.63282,4e-5 -1.40626,-0.98434 -2.32031,-2.95312 l -0.63281,0.42187 -0.84375,-1.6875 0.63281,-0.21094 m 29.95312,0.21094 0,0.21094 c 0.28122,0.5391 0.42184,1.31254 0.42188,2.32031 l 0,0.84375 -0.84375,5.0625 0.42187,0 0.63282,-2.95312 0,-3.58594 -0.42188,-1.89844 -0.21094,0 m -14.34375,0.42188 0,1.47656 0.42188,2.74219 c -0.63284,0.28128 -0.9844,0.56253 -1.05469,0.84375 l 0.42188,1.89843 0,0.42188 c -3e-5,0.28128 -0.28128,0.42191 -0.84375,0.42187 l 0.21093,0.21094 0,0.21094 c 1.12498,-0.37497 1.68748,-0.93747 1.6875,-1.6875 l -0.21093,-1.89844 c 1.54685,4e-5 2.32028,-0.42184 2.32031,-1.26562 l -0.21094,0.21093 -0.63281,0 -0.63281,-0.42187 -1.05469,0.21094 0,-0.21094 -0.21094,-3.16406 -0.21094,0 m 8.64844,1.26562 0.21094,1.05469 0.21094,0 c -4e-5,-1.03121 0.14059,-1.73434 0.42187,-2.10938 l -0.21094,0 c -0.32815,4e-5 -0.53909,0.35161 -0.63281,1.05469 m -29.95312,-0.84375 -0.21094,2.10938 0.21094,0.84375 c 0.30468,3e-5 0.51562,-0.7734 0.63281,-2.32032 -0.28125,4e-5 -0.42188,-0.21089 -0.42188,-0.63281 l -0.21093,0 m 26.36718,1.05469 0,0.84375 0.63282,0.21094 0.21093,-0.21094 0,-0.42188 -0.42187,-0.42187 -0.42188,0 m -1.26562,1.05469 0,0.42187 0.42187,0.42188 0.21094,0 0.42188,-0.42188 0,-0.42187 -1.05469,0 m 2.95312,0 0,0.63281 0.42188,0 0,-0.63281 -0.42188,0 m 8.85938,2.53125 c 0.46871,1.96878 0.89058,2.95315 1.26562,2.95312 l 0.21094,0 c -0.70316,-0.82028 -1.05473,-1.66403 -1.05469,-2.53125 0.42184,-1.40621 1.12496,-2.10934 2.10938,-2.10937 l 0.84375,0.63281 0,0.63281 -0.21094,0.21094 0,0.21094 0.84375,-0.63282 0,-0.84375 c -4e-5,-0.35152 -0.56254,-0.70308 -1.6875,-1.05468 -1.54691,0.65628 -2.32035,1.50003 -2.32031,2.53125 m -21.51563,-1.89844 0,0.84375 0.84375,0.21094 1.89844,-0.84375 0,-0.21094 -0.21094,0 -1.26562,0.42187 -0.42188,0 c -0.28126,4e-5 -0.42189,-0.28121 -0.42187,-0.84375 l -0.42188,0.42188 m -10.125,-0.42188 0.42188,0 c -1e-5,0.42192 0.21093,0.63285 0.63281,0.63282 l 0.21094,0 0,0.21093 c -1e-5,0.42191 -0.28126,0.63285 -0.84375,0.63282 l 0,0.42187 c 0.8203,4e-5 1.87499,0.28129 3.16406,0.84375 l 0,0.21094 -0.21094,0 -4.00781,-0.84375 1.26563,-1.26563 -0.21094,0 -0.42188,0.42188 -0.42187,0 0,-0.42188 c 0.28124,4e-5 0.42187,-0.28121 0.42187,-0.84375 m 21.30469,0.63282 0,0.63281 1.05469,-0.21094 c -0.21097,-0.56246 -0.42191,-0.84371 -0.63281,-0.84375 l -0.42188,0.42188 m -20.03906,0.42187 0.63281,0 0,0.63281 -0.84375,0 0.21094,-0.63281 m 18.77344,0.21094 0,0.63281 0.63281,0.21094 0.21094,-0.21094 0,-0.63281 -0.84375,0 m 2.32031,0.63281 0.42187,0.42188 0.63282,0 0,-0.84375 -0.63282,0 -0.42187,0.42187 m 12.86719,2.32031 0.21093,0.84375 -0.21093,0.21094 -0.21094,0 c -0.28129,3e-5 -0.42192,-0.2109 -0.42188,-0.63281 l -0.21093,-0.21094 -0.21094,0 -0.42188,2.53125 c -4e-5,0.67972 0.98434,2.36722 2.95313,5.0625 l 0,0.21094 0.21094,0 0.63281,-1.26563 -1.05469,-4.42968 0,-0.63282 c -4e-5,-1.75778 0.84371,-2.95309 2.53125,-3.58593 l 0,0.21093 0.21094,-0.21093 0.21094,0 c 0.63276,0.28128 0.98432,0.56253 1.05468,0.84375 l 0,1.05468 c -0.0469,0.3516 -1.03129,0.98441 -2.95312,1.89844 l 0,1.47656 1.26562,1.05469 c 0.98433,-0.30466 1.47652,-0.65622 1.47657,-1.05469 l -0.21094,0 c -5e-5,0.28128 -0.42192,0.49222 -1.26563,0.63282 l -0.63281,-0.84375 0,-0.63282 2.32031,-1.26562 0.63282,-1.6875 0,-0.21094 c -5e-5,-1.12496 -0.70318,-1.75778 -2.10938,-1.89844 l -1.26562,0.42188 0,-0.63281 c -1.68755,0.70316 -2.5313,1.61722 -2.53125,2.74218 m -37.125,-2.74218 0,0.21093 -0.42188,0.42188 -0.42187,0 0,-0.42188 0.84375,-0.21093 m 0.84375,0 0.21093,0.21093 -0.21093,0.63282 -0.21094,0 -0.42188,-0.42188 0.63282,-0.42187 m 19.40625,1.05468 0,0.21094 0.84375,0 0.42187,-0.42187 0,-0.42188 c -0.46878,0.42191 -0.89065,0.63285 -1.26562,0.63281 m 1.47656,0.63282 -0.21094,0 c -0.67971,3e-5 -1.38284,-0.21091 -2.10937,-0.63282 l 0,0.21094 1.6875,0.63281 1.47656,0 1.05469,-1.05468 0,-0.42188 c -0.63284,0.84379 -1.26566,1.26566 -1.89844,1.26563 m -2.53125,-0.21094 0,0.21094 c 0.98435,0.56253 1.47653,1.12503 1.47656,1.6875 l -0.21094,0.21093 0.84375,0 0,-0.63281 c -0.30471,-0.51559 -1.00783,-1.00778 -2.10937,-1.47656 m 4.21875,0.63281 c 0.21091,0.56253 0.42184,0.84378 0.63281,0.84375 l 2.10938,0 0,-0.21094 c -1.40628,4e-5 -2.10941,-0.35153 -2.10938,-1.05468 l -0.21094,0 -0.42187,0.42187 m -10.75781,1.6875 0,1.05469 c -2e-5,0.9844 0.56248,1.47659 1.6875,1.47656 l -0.42188,0.63281 c 0.14061,0.42191 0.56248,0.63284 1.26563,0.63282 l 1.05468,-0.21094 0,-0.21094 -1.26562,0 c -2e-5,-0.28122 0.84373,-0.56247 2.53125,-0.84375 l 0.21094,0 0,0.21094 -0.84375,0.21094 0,0.21093 0.21093,0 1.89844,-0.84375 0,0.63282 -0.21094,-0.21094 c -2.53127,0.9844 -3.79689,1.89846 -3.79687,2.74219 l 1.89844,0 1.26562,-1.26563 0.21094,0 -0.84375,1.26563 0.63281,0 c -2e-5,-1.17185 1.96873,-2.5781 5.90625,-4.21875 l 2.95313,-0.42188 0.21093,0 c 2.29684,3e-5 5.10934,0.84378 8.4375,2.53125 -4e-5,-1.71091 -3.09378,-2.97653 -9.28125,-3.79687 -2.36721,0.25784 -5.95315,0.96097 -10.75781,2.10937 l -0.84375,0 c -0.86721,3e-5 -1.42971,-0.49216 -1.6875,-1.47656 0.28123,-0.63278 0.56248,-0.98434 0.84375,-1.05469 l 0.63281,0 0,0.42188 0.21094,0 -0.21094,0.21093 0,1.05469 1.26563,0 0,-0.21094 c -2e-5,-0.42184 -0.21096,-0.63278 -0.63281,-0.63281 l 0,-1.05469 c -2e-5,-0.28121 -0.21096,-0.42184 -0.63282,-0.42187 -0.96095,0.39847 -1.59376,0.89066 -1.89843,1.47656 m -15.60938,-0.84375 c 0.89062,1.96878 1.45312,2.95316 1.6875,2.95313 l 0.42188,-0.63282 -1.47657,-2.74218 -0.63281,0.42187 m 35.85938,0.42188 0,0.84375 c 0.53902,3e-5 1.24214,0.35159 2.10937,1.05468 l 0,-0.63281 c -0.75004,-0.79684 -1.45316,-1.21872 -2.10937,-1.26562 m -31.42969,1.89843 c 0.8203,1.96878 2.01561,2.95316 3.58594,2.95313 l 0,-0.21094 c -1.96876,-0.60935 -2.95314,-1.52341 -2.95313,-2.74219 l 0,-0.42187 c -1e-5,-0.35153 0.28124,-0.56247 0.84375,-0.63281 l 0,-0.42188 -0.63281,0 c -0.56251,0.23441 -0.84376,0.7266 -0.84375,1.47656 m 1.47656,-0.21093 0,0.21093 c 1.82812,0.23441 2.74218,1.2891 2.74219,3.16407 l 0.21094,0 0,-0.42188 c -0.37501,-1.96872 -1.14845,-2.95309 -2.32032,-2.95312 l -0.63281,0 m 32.90625,-0.21094 0.63281,0 0,1.26562 0.21094,0.21094 0,0.21094 -0.21094,0 c -0.42191,-0.0937 -0.63285,-0.65622 -0.63281,-1.6875 m -40.71094,1.89844 0.21094,1.05468 0.42188,0 -0.21094,-0.63281 c 0.1875,-0.70309 0.67968,-1.05466 1.47656,-1.05469 l 1.05469,0.42188 0.21094,-0.21094 0,-0.21094 -1.26563,-0.84375 -0.42187,0 c -0.98438,3e-5 -1.47657,0.49222 -1.47657,1.47657 m 1.26563,5.69531 0.21094,0 c -1e-5,-2.50779 1.40624,-4.8281 4.21875,-6.96094 l 0,-0.21094 -0.21094,0 c -1.82813,0.98441 -3.23438,3.02347 -4.21875,6.11719 l 0,1.05469 m 26.78906,-1.47656 0,0.21093 0.42188,0 c 3.65621,-1.17185 6.04684,-2.92966 7.17187,-5.27343 l -0.21094,0 c -2.78909,3.37502 -5.25003,5.06252 -7.38281,5.0625 M 172,172.39426 l 0,0.84375 0.21094,0 0,-0.84375 -0.21094,0 m -10.96875,0.84375 c 2.15624,1.5469 4.26561,2.32034 6.32812,2.32031 l 0.21094,-0.21094 0,-0.21093 c -1.87501,2e-5 -3.84376,-0.84373 -5.90625,-2.53125 l -0.63281,0.63281 m 31.00781,0.21094 0,1.47656 0.42188,0 c -4e-5,-1.12497 0.56246,-1.68747 1.6875,-1.6875 l 0.42187,0 c 1.21871,3e-5 2.69527,0.91409 4.42969,2.74219 -1.47661,-2.24998 -3.44535,-3.37497 -5.90625,-3.375 -0.63285,0.28128 -0.98441,0.56252 -1.05469,0.84375 m -18.77344,0.21093 0,0.42188 1.26563,-0.42188 0,-0.42187 -1.26563,0.42187 m -1.05468,-0.21093 0,0.63281 c 0.21092,0.56253 0.42185,0.84378 0.63281,0.84375 l -0.42188,-1.47656 -0.21093,0 m 30.375,0 0,0.63281 0.63281,0 0,-0.63281 -0.63281,0 m -29.10938,0.84375 0,0.42187 0.21094,0 1.89844,-0.63281 0,-0.21094 -0.63282,0 -1.47656,0.42188 m 9.70313,0 0.21093,0 0.42188,-0.42188 -0.21094,0 -0.42187,0.42188 m -2.95313,0.42187 0,0.21094 2.32031,-0.42188 0,-0.21093 -0.84375,-0.21094 c -0.9844,0.14065 -1.47658,0.35159 -1.47656,0.63281 m 20.67188,1.05469 0,0.21094 1.89843,-1.26563 -0.42187,0 0,-0.21094 c -0.63286,0.23441 -1.12505,0.65628 -1.47656,1.26563 m 2.74218,-1.26563 -0.21093,0.21094 0,0.63281 0.63281,0 0,-0.42187 -0.42188,-0.42188 m -44.71875,1.89844 0.21094,0 c 0.1875,-0.7031 0.67968,-1.05466 1.47656,-1.05469 0.42187,3e-5 0.63281,0.35159 0.63282,1.05469 l 0.21093,0 0.21094,-1.05469 -0.42187,-0.42187 -0.42188,0 c -0.84375,3e-5 -1.47657,0.49221 -1.89844,1.47656 m 27.63282,2.53125 0,0.21094 0.21093,0 c 0.49216,-1.2656 1.40622,-1.89841 2.74219,-1.89844 l 2.10938,0.21094 0.21093,-0.21094 0,-0.21094 -0.21093,-0.63281 1.05468,0 c 0.86715,3e-5 1.64059,-0.35154 2.32032,-1.05469 l 0.21093,0 0,0.21094 c -4e-5,0.51565 -0.9141,1.00784 -2.74218,1.47656 l 0,0.84375 -0.84375,0 -1.26563,0.21094 -0.63281,-0.21094 c -1.00785,0.56253 -1.78128,0.84378 -2.32031,0.84375 l 0,0.21094 0.42187,0 c -0.14066,0.4219 -0.56253,0.63284 -1.26562,0.63281 l 0,1.05469 0.42187,0.42188 0.42188,-1.26563 0.63281,0 0,0.21094 -0.42188,1.05469 c 0.3281,2e-5 0.60935,-0.63279 0.84375,-1.89844 l 0.42188,0 -0.21094,1.47656 0.21094,0 1.6875,-1.26562 0.63281,0 0,0.21093 c -1.68753,1.14846 -2.53128,1.85159 -2.53125,2.10938 l 0.21094,0 c 0.28122,-0.56248 0.70309,-0.84373 1.26562,-0.84375 l 0,0.63281 c -0.79691,2e-5 -1.28909,0.35158 -1.47656,1.05469 l 0.21094,0 c 0.0703,-0.28123 0.42184,-0.56248 1.05469,-0.84375 l 0,0.21094 -0.84375,1.05468 1.05468,0.21094 2.32032,0 c 0.7734,2e-5 1.40621,-0.42185 1.89843,-1.26562 l -1.89843,1.05468 -0.63282,0 0,-0.21093 c 2.24997,-1.05467 3.37496,-2.03905 3.375,-2.95313 l 0,-0.21094 -0.21093,0.21094 -0.42188,0 0,-0.21094 c 0.84371,-1.10154 1.26559,-1.94528 1.26563,-2.53125 l -0.42188,-2.10937 c -1.38285,0.56252 -3.42191,0.91409 -6.11719,1.05469 -1.82815,1.07815 -2.74221,2.06252 -2.74218,2.95312 m 15.82031,-3.375 0,0.21094 0.21094,0.21094 -0.21094,0.21093 0.21094,0.21094 0.21093,0 0.42188,-0.42187 0,-0.21094 -0.84375,-0.21094 m -35.64844,0.63281 0,0.42188 0.21094,0 0,-0.42188 -0.21094,0 m 33.96094,1.6875 c 0.39839,0.25784 0.89058,1.10159 1.47656,2.53125 l 0,0.42188 -0.42187,0.42187 -1.26563,-3.16406 -2.32031,-1.05469 -0.21094,0.63282 0.42188,0.84375 -0.21094,0.21093 -0.21094,0 -0.21094,-0.21093 -0.21093,0 c -0.98442,2e-5 -1.47661,0.70314 -1.47657,2.10937 l 0,0.21094 0.63282,0.63281 c -4e-5,-0.8906 0.56245,-1.38279 1.6875,-1.47656 2.39058,0.93752 3.58589,2.90627 3.58593,5.90625 l 0.21094,1.26562 -0.63281,4.00782 0.84375,0 c 0.70308,-2.74218 1.05464,-4.64061 1.05469,-5.69532 l 0,-2.74218 c -0.2813,2e-5 -0.42193,0.21095 -0.42188,0.63281 l -0.21094,0 c -0.21098,2e-5 -0.42192,-0.28123 -0.63281,-0.84375 l 0.21094,-0.21094 0.42187,0 0.21094,0.21094 0.21094,0 0,-0.21094 c -5e-5,-1.17185 -0.56255,-3.21091 -1.6875,-6.11719 -0.30473,3e-5 -0.58598,0.56253 -0.84375,1.6875 m -40.28906,1.47657 0,1.26562 0.63281,2.53125 0.21094,0 0,-0.21094 -0.63282,-2.53125 0,-0.63281 c 0,-1.68748 0.70312,-2.53122 2.10938,-2.53125 l 0.42187,0 1.47657,1.26563 0,-0.21094 c -0.28126,-0.98435 -0.98439,-1.47654 -2.10938,-1.47656 -1.07813,2e-5 -1.78125,0.84377 -2.10937,2.53125 m -1.89844,-2.32032 0,0.42188 0.21094,0 0,-0.42188 -0.21094,0 m 20.88281,0.42188 -6.96094,-0.21094 -0.42187,2.32031 0.21094,10.33594 0.21093,0 0,-11.17969 0.42188,-1.26562 6.53906,0.21094 4.64063,-0.42188 0,-0.21094 -0.42188,0 -4.21875,0.42188 m 1.26563,0.84375 c 0.65622,1.3594 1.71091,2.34377 3.16406,2.95312 l 0.21094,0 0,-0.21093 -0.42188,0 0,-0.42188 0.21094,0.21094 0.21094,0 0,-0.42188 0.42187,0 0.63281,0.42188 0.21094,0 0,-0.21094 c -0.4219,2e-5 -0.9844,-0.49216 -1.6875,-1.47656 l 0,-0.21094 0.21094,0 c 0.84372,0.46877 1.26559,0.89065 1.26562,1.26563 l 0.42188,0 -1.05469,-1.26563 0.21094,0 1.26562,0.84375 0,-0.21094 c -0.32815,3e-5 -0.53909,-0.35154 -0.63281,-1.05468 l 0.63281,0.42187 0,-0.21094 -0.21093,-0.21093 0,-0.21094 0.84375,-0.42188 -0.21094,-0.63281 -5.69531,1.05469 m 14.13281,-1.26563 0.42187,0 0,0.21094 c -4e-5,0.72659 -0.3516,1.28909 -1.05468,1.6875 l 0,-0.42187 0.63281,-1.47657 m -28.89844,1.05469 -2.74219,2.53125 c 0.96093,-0.42185 1.94531,-1.2656 2.95313,-2.53125 l -0.21094,0 m 8.85938,0 c -0.9844,2.43752 -1.47658,4.61721 -1.47657,6.53906 -1e-5,3.72658 0.70311,6.32814 2.10938,7.80469 -2e-5,-0.42186 0.1406,-0.6328 0.42187,-0.63281 0.74998,1.12501 1.87498,1.68751 3.375,1.6875 l 0.84375,1.05469 0,0.42187 -0.21093,0.21094 0,0.21094 c 0.82028,0.42188 1.80466,0.63281 2.95312,0.63281 l 0,-0.21094 -0.42187,-0.63281 0,-0.21094 0.42187,0 1.26563,0.21094 c 1.19528,1e-5 2.17965,-0.91406 2.95312,-2.74219 l -0.21094,0.21094 -0.42187,0 c -3e-5,-1.26562 -0.63284,-1.89843 -1.89844,-1.89844 -1.40628,0.21095 -2.1094,0.63282 -2.10937,1.26563 l 0.21093,0.84375 -1.26562,0 -0.84375,-0.84375 0,-0.42188 c 0.56247,1e-5 0.84372,-0.21093 0.84375,-0.63281 l 0,-0.21094 -1.05469,1.05469 0,0.84375 c 0.1406,0.42188 0.56248,0.63282 1.26563,0.63281 l 1.05468,0 0.84375,-0.63281 -0.21093,-0.21094 0,-0.42187 c -3e-5,-0.32812 0.56247,-0.53906 1.6875,-0.63282 -3e-5,0.28126 0.2109,0.42189 0.63281,0.42188 l 0.21094,0.63281 c -0.46878,1.12501 -1.38285,1.68751 -2.74219,1.6875 l -0.21094,0 c -2.78909,1e-5 -5.1094,-1.40624 -6.96094,-4.21875 -0.84377,-1.26561 -1.26564,-2.67186 -1.26562,-4.21875 0.28123,-4.0781 0.56248,-6.11716 0.84375,-6.11719 l -0.21094,-1.47656 -0.42187,0 m 1.05468,0 0,0.63281 0.21094,1.05469 0.42188,0 0.63281,-0.42187 0.21094,0 0,0.84375 c -3e-5,0.75002 0.28122,1.2422 0.84375,1.47656 l 0.63281,0 0.42187,-0.42188 c -0.42189,-0.5156 -0.63283,-1.00779 -0.63281,-1.47656 l 0,-1.47656 -0.21094,0 -2.53125,-0.21094 m 17.08594,-0.21094 0.63281,0 -0.21093,0.84375 -0.84375,0 0,-0.42187 0.42187,-0.42188 m -18.98437,0.42188 c -2e-5,0.28127 -0.28127,0.4219 -0.84375,0.42187 l 0.42187,0.42188 0.63281,-0.63281 0,-0.21094 -0.21093,0 m 7.80468,0.84375 0.21094,0 0.63281,0.63281 0,0.21094 -0.42187,0 -0.42188,-0.84375 m -24.04687,0.84375 0,0.84375 0.21094,0 0,-0.84375 -0.21094,0 m 7.80469,0 0,0.63281 0.42187,1.6875 0,0.42188 0.42188,0 -0.63282,-2.74219 -0.21093,0 m 14.76562,1.26562 0.84375,0 -1.47656,1.26563 c 0.58591,0.70314 1.42966,1.0547 2.53125,1.05469 l 0.42187,-0.42188 0,-0.21094 -0.63281,0 c -3e-5,-0.28123 0.35154,-0.42185 1.05469,-0.42187 l 0,-0.21094 -1.47656,0 0,-0.21094 2.10937,-0.42187 0,-0.21094 -0.21094,0 -1.26562,0.21094 c -3e-5,-0.28123 0.21091,-0.42186 0.63281,-0.42188 l 0,-0.21093 -1.26562,0 0,-0.21094 0.21093,-0.21094 0,-0.21094 -0.21093,-0.21093 -0.21094,0 c -0.37503,2e-5 -0.72659,0.35158 -1.05469,1.05468 m -18.77344,-0.21093 0,0.42187 0.63282,-0.21094 0,-0.21093 -0.63282,0 m -3.58593,0.21093 0,0.21094 0.21093,0.84375 0.21094,0 0,-0.42187 -0.21094,-0.63282 -0.21093,0 m 20.25,5.48438 c -1.26565,-0.30467 -1.89846,-0.86717 -1.89844,-1.6875 -2e-5,-0.58592 0.56248,-1.14842 1.6875,-1.6875 l 1.47656,0.63281 0,-0.21094 c -0.14065,-0.42185 -0.56252,-0.63279 -1.26562,-0.63281 l -0.42188,0 c -1.14846,2e-5 -1.92189,0.77346 -2.32031,2.32031 l 0,1.05469 c 0.42185,0.70314 0.98435,1.0547 1.6875,1.05469 l 0,0.21094 -0.42188,0.42187 1.89844,0.63281 c 2.2031,-0.32811 4.10154,-1.31248 5.69531,-2.95312 0.37497,-0.72655 0.79685,-1.14842 1.26563,-1.26563 l 0.21094,0.21094 0,0.21094 c -1.47659,1.92189 -3.44534,3.32814 -5.90625,4.21875 -1.26565,0.46876 -1.89846,1.17188 -1.89844,2.10937 l 0.63281,0.42188 c -2e-5,-1.17187 1.8281,-2.08593 5.48438,-2.74219 2.81246,-1.78123 4.21871,-3.32811 4.21875,-4.64062 l 0,-0.21094 -0.21094,0 -0.42188,1.05469 -0.21093,0 0,-0.21094 0.21093,-1.6875 0.42188,0 0,0.42187 0.21094,0 0,-0.63281 c -4e-5,-1.12498 -0.9141,-1.75779 -2.74219,-1.89844 -1.07816,0.35159 -2.06253,1.40627 -2.95313,3.16407 -1.45315,1.50001 -2.92971,2.27345 -4.42968,2.32031 m 15.39843,-5.69531 0.21094,0.21093 0,0.21094 -1.89844,0.63281 0,-0.42187 1.6875,-0.63281 m 8.64844,0 0.63281,0.21093 0,0.63282 -0.63281,0.21093 -0.21094,-0.21093 0,-0.42188 0.21094,-0.21094 0,-0.21093 m -6.96094,0.42187 0,0.42188 c 1.54684,1.6172 2.32027,3.3047 2.32032,5.0625 -0.4688,2.62501 -1.38286,4.66407 -2.74219,6.11718 l -0.63281,0.84375 c 1.17183,-0.58593 2.29683,-2.34374 3.375,-5.27343 l 0.21093,-2.53125 0,-0.42188 c -4e-5,-1.45311 -0.77348,-2.85935 -2.32031,-4.21875 l -0.21094,0 m -31.42968,0.21094 c 0.56249,0.56252 0.84374,1.05471 0.84375,1.47656 l 0.21093,0 0,-0.84375 -0.63281,-0.63281 -0.42187,0 m 11.60156,0 0,0.63281 0.63281,0.63281 1.05469,-0.21093 0,-0.63282 -0.21094,0 -0.63281,0.42188 c -0.35158,2e-5 -0.56252,-0.28123 -0.63281,-0.84375 l -0.21094,0 m -18.77344,0.21094 1.26563,1.05468 0,-0.21093 c -0.21094,-0.56248 -0.42188,-0.84373 -0.63282,-0.84375 l -0.63281,0 m 1.47656,2.10937 0.21094,0 c 0,-0.53904 0.5625,-1.10154 1.6875,-1.6875 l 0,-0.42187 c -1.00781,0.70314 -1.64063,1.40626 -1.89844,2.10937 m 28.26563,-2.32031 0.42187,0 0.63282,0.63281 0,0.21094 -0.42188,0 c -3e-5,-0.28123 -0.21097,-0.42186 -0.63281,-0.42188 l 0,-0.42187 m 12.23437,2.10937 0,0.42188 0.84375,-0.63281 c 1.26558,1e-5 1.8984,0.77345 1.89844,2.32031 l 0.21094,0 0,-0.42188 c -0.4688,-1.96873 -1.0313,-2.9531 -1.6875,-2.95312 l -0.63281,0 c -0.42192,0.14064 -0.63286,0.56252 -0.63282,1.26562 m -36.28125,-0.42187 0,0.21094 0.21094,0 0.84375,-0.21094 0,-0.21094 -0.42187,0 -0.63282,0.21094 m 3.375,-0.21094 0,0.42188 c 1.12499,0.0938 1.68749,0.65626 1.6875,1.6875 l 0,0.21093 -0.42187,0.63282 0.21094,0 0.42187,-0.63282 0,-0.21093 c -0.3047,-1.40624 -0.93751,-2.10936 -1.89844,-2.10938 m 23.83594,0.42188 0,0.21093 c -3e-5,0.4219 0.2109,0.63283 0.63281,0.63282 l 0,0.63281 -0.21093,-0.21094 -0.42188,0 0,0.84375 0.21094,0.21094 0,0.21094 -0.21094,0.21093 -0.42187,0 0,-0.42187 -0.21094,0 0,0.21094 0.21094,0.84375 -0.21094,0 -0.21094,-0.21094 -0.21094,0 0,0.21094 c 0.7031,1.73438 1.05466,3.21095 1.05469,4.42968 1.26559,-0.74999 1.8984,-1.52342 1.89844,-2.32031 l 0,-1.05469 0.42187,0 0.84375,0.63282 0.21094,0 0.84375,-3.375 c -0.42191,1e-5 -0.70316,0.91407 -0.84375,2.74218 l -0.21094,0 -0.21093,-1.05468 0.21093,-0.21094 0,-0.42188 -0.21093,0 c -0.0938,0.70314 -0.30473,1.05471 -0.63282,1.05469 l 0,-0.21094 0.42188,-1.6875 -0.21094,-0.21093 0.21094,0 0.63281,0.42187 0,-0.21094 -0.21094,-1.05468 c 0.42184,1e-5 0.63278,0.21095 0.63282,0.63281 l 0.21093,0 0,-0.42188 c -0.42191,-0.37498 -1.75784,-0.72654 -4.00781,-1.05468 m -27.84375,0.21093 -0.21094,0.21094 0,0.21094 0.21094,0 0.21094,-0.21094 0,-0.21094 -0.21094,0 m 41.13281,-0.21093 0.42188,0.42187 0,0.21094 -0.42188,0.42187 -0.21093,-0.21093 0,-0.21094 0.21093,-0.63281 m -43.66406,0.42187 0,0.21094 c 0,1.26564 1.61718,2.95314 4.85156,5.0625 2.43749,1.12501 4.89843,1.68751 7.38282,1.6875 l 2.10937,-0.21094 0,-0.21094 c -5.67189,1e-5 -9.39844,-0.98436 -11.17969,-2.95312 -0.9375,-0.58592 -1.99219,-1.78124 -3.16406,-3.58594 m -1.26562,0.21094 0,0.42187 0.21093,0 0,-0.42187 -0.21093,0 m 3.375,0.21094 0,0.84375 0.63281,0.21093 0.21094,0 0,-0.21093 c -0.42188,1e-5 -0.63282,-0.28124 -0.63282,-0.84375 l -0.21093,0 m 1.26562,0.21093 0,0.42188 0.21094,0 0,-0.42188 -0.21094,0 m 0.42188,0.42188 0,0.21094 1.47656,0.84375 0.42187,0 0,-0.21094 -1.89843,-0.84375 m -5.48438,0.42187 0,0.63282 0.21094,0 0,-0.63282 -0.21094,0 m 8.4375,0.42188 0,0.63281 0.21094,0 0,-0.63281 -0.21094,0 m 32.0625,2.95312 0,0.21094 0.21094,0 c 0.53902,-1.54686 1.03121,-2.3203 1.47656,-2.32031 l 1.05469,0 0,-0.42188 -0.42188,-0.42187 c -1.00785,1e-5 -1.78129,0.98439 -2.32031,2.95312 m -3.58594,-1.89843 0,0.21093 0.21094,0 0.21094,-0.21093 0.21094,0 c 0.84371,1e-5 1.26558,0.77345 1.26562,2.32031 l 0.21094,0 0,-2.32031 -0.84375,-0.84375 -0.42188,0 -0.84375,0.84375 m -31.64062,-0.21094 c -1e-5,0.63283 0.42187,1.12501 1.26562,1.47656 l 0,-0.21094 c -0.5625,-0.18748 -0.84375,-0.74998 -0.84375,-1.6875 l -0.42187,0.42188 m -5.48438,-0.21094 0,0.42188 c 0.23438,1.82813 0.51563,2.7422 0.84375,2.74218 l -0.63281,-3.16406 -0.21094,0 m 8.4375,0.42188 0,0.63281 0.21094,0 0,-0.63281 -0.21094,0 m 35.85938,0 0,0.42187 0.21094,0 0,-0.42187 -0.21094,0 m -40.92188,0.21093 0,0.21094 0.63282,0.42188 0,-0.21094 -0.63282,-0.42188 m 18.5625,0 0.84375,0.21094 0,0.21094 -1.26562,0.21094 0.42187,-0.63282 m -13.71093,0.63282 0,0.42187 0.21093,0 0,-0.42187 -0.21093,0 m 14.97656,0 0,0.42187 -1.47656,0.21094 -0.63282,0 0,-0.42188 0.63282,0 1.47656,-0.21093 m 5.27344,1.6875 0.42187,1.05468 1.26563,-0.63281 0,0.42188 0.21093,0 0.42188,-1.47657 0,-0.42187 -0.42188,0 -0.84375,0.63281 -0.21093,-0.21094 0,-0.21093 0.21093,-0.21094 0,-0.21094 -0.21093,0 c -0.28128,1e-5 -0.56253,0.42189 -0.84375,1.26563 m -26.78907,-0.21094 -0.42187,1.05469 0.21094,0 0.42187,-0.84375 0,-0.21094 -0.21094,0 m 17.71875,0.84375 0,0.21094 0.21094,0 1.05469,-0.84375 -0.21094,0 c -0.70315,0.18751 -1.05471,0.39845 -1.05469,0.63281 m 19.40625,-0.63281 0,0.42187 0.21094,0 0,-0.42187 -0.21094,0 m 6.96094,1.05468 1.05469,-0.42187 -0.21094,-0.21094 0,-0.21094 c -0.4688,0.14064 -0.75005,0.42189 -0.84375,0.84375 m -44.71875,0.84375 0.21094,0 c 0.75,-0.84374 1.66406,-1.26561 2.74219,-1.26562 l 2.10937,0.84375 c -0.56251,-0.70311 -1.19532,-1.05468 -1.89844,-1.05469 l -0.84375,0 c -0.79688,1e-5 -1.57031,0.4922 -2.32031,1.47656 m 40.07813,-1.26562 0,0.42187 c 0.56245,1e-5 0.8437,0.35158 0.84375,1.05469 l 0.21093,0 c -1.26566,2.25001 -1.89848,3.58595 -1.89843,4.00781 0.2812,0.77345 0.70308,1.26563 1.26562,1.47657 l 0.21094,0 c 0.72652,0 1.99214,-0.98437 3.79687,-2.95313 l 0.63282,0 0.42187,0.42188 0,0.84375 c -1.26567,0.49219 -1.89848,0.84375 -1.89844,1.05468 l 0.21094,0 c 1.4062,1e-5 2.10933,-0.56249 2.10938,-1.6875 l 0,-0.21093 c -5e-5,-0.79687 -0.42193,-1.28906 -1.26563,-1.47657 l 0,-0.21093 -0.63281,0 c -1.54692,1.82813 -2.46098,2.74219 -2.74219,2.74218 l -0.42187,0 0,0.21094 0.42187,0 0,0.21094 -1.05469,0 0,0.21094 0.42188,0 -0.42188,0.42187 -0.42187,-0.63281 0,-0.21094 0.42187,0 -0.21093,-0.21094 0,-0.21093 2.10937,-1.6875 -0.42187,0 c 0.23433,-0.70312 0.58589,-1.05468 1.05468,-1.05469 l 0,-0.84375 -0.21093,0 -0.63282,0.21094 0,-0.21094 c -4e-5,-0.93749 -0.28129,-1.49999 -0.84375,-1.6875 l -1.05468,0 m -37.75782,0.42187 0,0.21094 c 0.5625,1e-5 0.84375,0.28126 0.84375,0.84375 l 0.21094,-0.21094 0.21094,0 c -0.14063,-0.56249 -0.42188,-0.84374 -0.84375,-0.84375 l -0.42188,0 m 30.58594,0.63282 0.84375,0 0.63281,0.63281 0,0.21094 c -0.89066,2.53125 -2.78909,3.79688 -5.69531,3.79687 l -3.79687,-0.21094 0.21093,0.21094 0,0.42188 -0.63281,0.21093 -1.47656,-0.21093 -0.21094,0 0,0.21093 c 2.3906,0.98438 4.57028,1.47657 6.53906,1.47657 3.74997,-0.5625 5.85934,-1.05469 6.32813,-1.47657 l 0.63281,0.21094 0,1.05469 -0.84375,0.21094 0.42188,0.42187 0.84375,0 c 0.56246,-0.23437 0.84371,-0.72656 0.84375,-1.47656 -4e-5,-0.98437 -0.42192,-1.47656 -1.26563,-1.47656 l 0.21094,-1.05469 -0.21094,0 c -1.21879,0.11719 -2.4141,0.67969 -3.58594,1.6875 -0.72659,0.42188 -1.71097,0.70313 -2.95312,0.84375 -3e-5,-0.28125 0.70309,-0.5625 2.10937,-0.84375 l 3.58594,-2.53125 0,-0.21094 -0.42187,0 0.42187,-1.6875 0,-0.21094 -0.84375,-0.84375 -1.05469,0 -0.63281,0.63282 m -29.74219,1.26562 -0.21093,0 c -0.51563,1e-5 -1.14845,-0.28124 -1.89844,-0.84375 l -0.21094,0.21094 0,0.21094 1.6875,0.63281 0.63281,0 c 1.33593,1e-5 2.32031,-0.56249 2.95313,-1.6875 l 0,-0.21094 c -1.21876,1.12501 -2.20313,1.68751 -2.95313,1.6875 m 6.11719,-1.26562 c -1e-5,0.79688 -1.75782,1.71094 -5.27344,2.74218 l 0,0.21094 0.42188,0.42188 4.21875,0 c 4.0078,0 7.31248,0.14063 9.91406,0.42187 l 0.21094,-0.21094 0.21094,0 0.84375,0.21094 1.05468,-0.21094 0,-0.21093 c -2e-5,-0.42187 -1.61721,-0.84375 -4.85156,-1.26563 -1.03127,-0.46874 -1.87502,-1.03124 -2.53125,-1.6875 l -0.21094,0 -4.00781,-0.42187 m 27.63281,0.21093 -0.21093,0.21094 0,0.21094 0.21093,0 0.21094,-0.21094 0,-0.21094 -0.21094,0 m -37.125,0.21094 -0.42187,1.05469 0,0.42187 0.21094,0 0.42187,-1.47656 -0.21094,0 m 5.90625,0.63281 0,0.42188 0.42188,0 0,-0.42188 -0.42188,0 m 11.60157,0.21094 0,0.42188 0.21093,0 0,-0.42188 -0.21093,0 m 12.86718,0.21094 0,0.21094 0.42188,0.42187 0,-0.63281 -0.42188,0 m -1.05468,1.05469 0,0.21093 0.42187,0 0,-0.63281 -0.42187,0.42188 m -29.74219,-0.21094 0,0.84375 c 0,1.80469 1.89843,3.14063 5.69531,4.00781 l 0.63281,0 0,-0.21094 c -4.07813,-0.6328 -6.11719,-2.17968 -6.11718,-4.64062 l -0.21094,0 m 31.64062,0 0,0.42187 0.42188,0.42188 0.21094,-0.21094 0,-0.63281 -0.63282,0 m -29.95312,1.26562 c -1e-5,0.72657 0.42187,1.35938 1.26562,1.89844 l 1.26563,0 c 0.74999,1e-5 1.24218,-0.28124 1.47656,-0.84375 l -0.63281,0 -0.84375,0.21094 c -0.84376,-0.28125 -1.26563,-0.5625 -1.26563,-0.84375 l 0,-0.84375 c 0,-0.28124 0.21094,-0.42187 0.63282,-0.42188 l 0,-0.21093 -0.63282,0 c -0.84375,0 -1.26563,0.35157 -1.26562,1.05468 m 28.05469,0.42188 c 0.63278,-0.28124 0.98434,-0.56249 1.05468,-0.84375 l 0,-0.21094 -1.05468,1.05469 m -24.46875,-0.21094 0,0.21094 0.42187,0 0,-0.21094 -0.42187,0 m 1.6875,0 0,0.21094 2.95312,0 0,-0.21094 -2.95312,0 m -1.05469,0.21094 0,0.21094 0.42187,0 0,-0.21094 -0.42187,0 m 8.85937,0 0,0.21094 4.00782,0.21093 0.84375,-0.21093 0.21093,0.21093 0.21094,0 1.05469,-0.21093 0,-0.21094 -6.32813,0 m 7.80469,-0.21094 0.42188,0 c 0.84372,0.14063 1.26559,0.35157 1.26562,0.63281 l -0.42187,0 c -0.72659,1e-5 -1.14847,-0.21093 -1.26563,-0.63281 m 13.28906,0 0,0.42188 -1.47656,0.42187 0,-0.42187 1.47656,-0.42188 m -27.84375,1.47656 0,0.42188 c 0.18749,0.5625 0.82031,0.84375 1.89844,0.84375 l 3.16406,-0.42188 0,-0.21093 -0.21093,0 -2.32032,0.42187 c -1.26563,-0.23437 -1.89844,-0.51562 -1.89843,-0.84375 l 0,-0.42187 0.84375,-0.21094 0,-0.21094 -0.84375,0 -0.63282,0.63281 m 12.44532,-0.42187 0,0.21094 c 0.42185,0.51563 0.63279,1.00781 0.63281,1.47656 l 0,0.42187 -0.42188,0 0,0.42188 1.05469,0 0.21094,-1.47656 0.21094,0.21093 0.21093,0 0,-0.84375 -0.42187,-0.63281 -1.47656,0.21094 m 18.77343,0 0,0.84375 c -4e-5,0.35157 0.56246,0.70313 1.6875,1.05469 l 0.21094,-0.21094 0,-0.21094 c -1.12504,-0.46874 -1.68754,-0.96093 -1.6875,-1.47656 l -0.21094,0 m -20.67187,0.42187 0.21094,0 0.84375,0.63282 0,-0.21094 -0.63282,-0.63281 -0.21093,0 -0.21094,0.21093 m 25.3125,0 -0.21094,0.21094 0,1.05469 0.21094,0.21094 0.63281,0.21093 0,0.21094 0.84375,-0.21094 0,-0.21093 c -0.98442,0 -1.47661,-0.42187 -1.47656,-1.26563 l 0.21094,-0.21094 -0.21094,0 m -37.125,1.89844 0,0.21094 3.58594,0 c 1.49998,0 3.11717,-0.63281 4.85156,-1.89844 -1.38283,1.12501 -4.19533,1.6875 -8.4375,1.6875 m 22.35937,-1.89844 1.26563,0.63282 0,0.21093 -1.26563,0 0,-0.42187 -0.21093,-0.21094 0.21093,-0.21094 m -30.16406,1.26563 0,0.21094 0.21094,0 c 0,-0.42187 0.28125,-0.63281 0.84375,-0.63282 l 2.74219,0.84375 0.21093,0 0,-0.21093 -2.74218,-1.05469 -0.63282,0 c -0.21094,0 -0.42187,0.28125 -0.63281,0.84375 m 19.19531,-0.84375 -0.21093,1.47656 -0.84375,0.21094 -0.42188,0 -1.05469,-1.05469 0,0.21094 c 0.28124,0.63281 0.56249,0.98438 0.84375,1.05469 l 0.63282,0 c 0.72654,0 1.14841,-0.21094 1.26562,-0.63282 l 0,-1.26562 -0.21094,0 m 5.69532,0.21094 0,0.21093 c 0.23435,1e-5 0.44528,0.35157 0.63281,1.05469 l -0.21094,0.21094 0.63281,0 0,-0.42188 -1.05468,-1.05468 m 14.97656,0.42187 -0.42188,1.05469 -0.21093,-0.21094 -0.21094,0 0,0.21094 1.26562,0.42187 0.42188,-0.63281 -0.84375,-0.84375 m -35.64844,0.63281 0,0.21094 0.42188,0 0,-0.21094 -0.42188,0"
         style="font-size:72px;font-variant:normal;font-stretch:normal;font-family:Goudy Initials;-inkscape-font-specification:Goudy Initials"
         id="path4473" />
    </g>
  </g>
</svg>
