<?xml version="1.0" encoding="UTF-8" standalone="no"?>
<!-- Created with Inkscape (http://www.inkscape.org/) -->

<svg
   xmlns:dc="http://purl.org/dc/elements/1.1/"
   xmlns:cc="http://creativecommons.org/ns#"
   xmlns:rdf="http://www.w3.org/1999/02/22-rdf-syntax-ns#"
   xmlns:svg="http://www.w3.org/2000/svg"
   xmlns="http://www.w3.org/2000/svg"
   xmlns:sodipodi="http://sodipodi.sourceforge.net/DTD/sodipodi-0.dtd"
   xmlns:inkscape="http://www.inkscape.org/namespaces/inkscape"
   width="56.734375"
   height="56.734375"
   id="svg2"
   version="1.1"
   inkscape:version="0.48.5 r10040"
   sodipodi:docname="p.svg">
  <defs
     id="defs4" />
  <sodipodi:namedview
     id="base"
     pagecolor="#ffffff"
     bordercolor="#666666"
     borderopacity="1.0"
     inkscape:pageopacity="0"
     inkscape:pageshadow="2"
     inkscape:zoom="3.959798"
     inkscape:cx="43.996764"
     inkscape:cy="5.617196"
     inkscape:document-units="px"
     inkscape:current-layer="layer1"
     showgrid="false"
     fit-margin-top="2"
     fit-margin-left="2"
     fit-margin-right="2"
     fit-margin-bottom="2"
     inkscape:window-width="1366"
     inkscape:window-height="733"
     inkscape:window-x="0"
     inkscape:window-y="0"
     inkscape:window-maximized="1"
     showborder="true"
     borderlayer="false" />
  <metadata
     id="metadata7">
    <rdf:RDF>
      <cc:Work
         rdf:about="">
        <dc:format>image/svg+xml</dc:format>
        <dc:type
           rdf:resource="http://purl.org/dc/dcmitype/StillImage" />
        <dc:title></dc:title>
      </cc:Work>
    </rdf:RDF>
  </metadata>
  <g
     inkscape:label="Layer 1"
     inkscape:groupmode="layer"
     id="layer1"
     transform="translate(-152.28125,-146.34738)">
    <g
       style="font-size:40px;font-style:normal;font-weight:normal;line-height:125%;letter-spacing:0px;word-spacing:0px;fill:#ffffff;fill-opacity:1;stroke:none;font-family:Sans"
       id="flowRoot2985">
      <path
         d="m 154.28125,148.34738 52.73437,0 0,52.73438 -52.73437,0 0,-52.73438 m 1.05469,1.05469 0,50.625 50.625,0 0,-50.625 -50.625,0 m 0.42187,0.63281 49.57031,0 0,49.57032 -49.57031,0 0,-49.57032 m 2.10938,0.63282 -0.84375,1.89843 -0.21094,-0.21093 -0.42188,0 0,0.21093 c 0,1.54693 0.63281,2.32036 1.89844,2.32032 l 0,0.21093 -0.42187,0.63282 0,0.42187 2.32031,-1.05469 0.21094,0 c -0.35157,0.70317 -0.91407,1.05474 -1.6875,1.05469 l 0,0.21094 0.84375,0 1.26562,-1.26563 0.63281,0.63282 0,0.21093 -1.26562,1.05469 0.21094,0.21094 0,0.21094 -0.84375,1.05468 -0.21094,-0.21093 0,0.84375 0.63281,0.21093 -0.21094,1.47657 0.63282,0.63281 c 1.07812,4e-5 1.85155,-0.63277 2.32031,-1.89844 l -0.21094,0 -0.84375,0.84375 -0.42187,0 c -0.28126,-0.0703 -0.56251,-0.42183 -0.84375,-1.05469 0.0703,-0.82027 1.54686,-2.22651 4.42968,-4.21875 l 0.21094,-1.05468 c -0.18751,-0.98433 -0.46876,-1.47652 -0.84375,-1.47657 l -0.21094,0 c -0.51563,5e-5 -1.92188,0.56255 -4.21875,1.6875 l -0.84375,0 c -0.84375,-0.2812 -1.26562,-0.8437 -1.26562,-1.6875 l 0,-0.42187 c 0.0703,-0.2812 0.42187,-0.56245 1.05469,-0.84375 l 1.6875,1.47656 0.21093,0 c 0.77344,5e-5 1.33593,-0.35151 1.6875,-1.05469 l -0.21093,0 c -0.28126,0.56255 -0.70313,0.8438 -1.26563,0.84375 -0.35157,5e-5 -0.91407,-0.56245 -1.6875,-1.6875 l -1.26562,-0.21093 m 24.25781,1.26562 -0.42188,-0.42187 -0.42187,1.26562 0,0.42188 c -3e-5,0.70317 0.63278,1.54692 1.89844,2.53125 l -1.05469,0.42187 c -3e-5,1.0313 0.7031,1.80473 2.10937,2.32031 l 0,0.63282 -0.84375,0 c -2e-5,0.23441 1.12497,1.07816 3.375,2.53125 1.68747,2.15628 2.53122,4.33597 2.53125,6.53906 l 0,0.63281 c -0.39847,3e-5 -0.82034,-1.47653 -1.26562,-4.42969 -0.56253,-1.47652 -2.25003,-3.02339 -5.0625,-4.64062 l -0.21094,0 c -3e-5,0.42192 -0.35159,0.63285 -1.05469,0.63281 l -0.42187,0 c -3e-5,-0.28121 -0.21096,-0.42183 -0.63281,-0.42187 l 0.21093,-0.21094 0,-0.21094 c -0.9844,0.32817 -1.47658,0.60942 -1.47656,0.84375 -2e-5,0.28129 0.21091,0.42192 0.63281,0.42188 l 0,2.32031 c 0.23435,0.56254 0.72654,0.84379 1.47657,0.84375 l 0.21093,-0.21094 0,-0.21094 c -0.56252,4e-5 -0.84377,-0.2109 -0.84375,-0.63281 l 0,-0.21094 c -2e-5,-0.70308 0.35154,-1.19527 1.05469,-1.47656 l 0.42188,0 c 1.54684,4e-5 3.16403,1.19535 4.85156,3.58594 1.40622,3.09378 2.10934,5.41409 2.10937,6.96094 l 0.21094,0.21093 0.21094,0 0,-0.21093 -0.42188,-0.63282 0,-0.21093 0.42188,0 0,-0.21094 c -0.42191,3e-5 -0.63285,-0.56247 -0.63281,-1.6875 l 0.63281,0.42187 0,-0.21093 c -4e-5,-3.28122 -0.98441,-6.5859 -2.95313,-9.91407 l -0.21093,0 0,0.63282 -0.21094,0 -1.26563,-1.89844 0,-0.21094 0.21094,0 0.63281,0.42188 0,-0.21094 c -1.96877,-2.34371 -2.95315,-3.89058 -2.95312,-4.64063 l 0,-0.42187 c -3e-5,-0.98433 0.49216,-1.47651 1.47656,-1.47656 l 0.21094,0 1.47656,1.47656 0.84375,0 1.47656,-1.26563 0.63282,0 c 0.42184,5e-5 0.63277,0.42193 0.63281,1.26563 l 0.21094,0 0,-1.05469 -1.26563,-0.63281 -1.6875,1.05469 -0.42187,0 c -0.79691,-0.98433 -1.50003,-1.47652 -2.10938,-1.47657 l -0.63281,-0.21093 -1.6875,1.26562 m -3.58594,-0.42187 0.21094,0.63281 0.21094,0 c -3e-5,-0.56245 0.1406,-0.8437 0.42187,-0.84375 l 0.42188,0 0.21093,0.21094 0.21094,0 0,-0.21094 -0.42187,-0.42188 -0.63282,0 -0.63281,0.63282 m 15.1875,1.26562 0.21094,0 c 0.51558,5e-5 1.1484,-0.2812 1.89844,-0.84375 l 1.47656,0 c 1.40621,0.18755 2.10933,0.89068 2.10937,2.10938 L 199,154.46457 l 0.21094,0.21094 0.63281,0 c 0.2812,5e-5 0.49214,-0.42183 0.63281,-1.26563 l 1.26563,0.42188 0,-0.63281 0.21093,0 c 0.79683,0.60942 1.28902,1.31254 1.47657,2.10937 l 0.21093,0 0,-0.63281 c -4e-5,-0.51558 -0.28129,-1.14839 -0.84375,-1.89844 0.65621,-0.56245 1.00777,-1.05464 1.05469,-1.47656 l -1.89844,0.42187 -4.42968,-0.63281 c -1.21879,5e-5 -2.48442,0.56255 -3.79688,1.6875 m -27.42187,-0.42187 0.21093,0.63281 4.21875,-0.84375 2.95313,0 c 2.62498,5e-5 5.22654,1.12505 7.80469,3.375 l 0,-0.42188 c -2.41409,-2.5312 -5.64846,-3.79682 -9.70313,-3.79687 -3.39845,0.16411 -5.22657,0.51567 -5.48437,1.05469 m 25.73437,-0.84375 c -4e-5,0.30473 -0.42191,0.93755 -1.26562,1.89843 l 0,0.42188 c 0.42184,5e-5 0.63277,0.14067 0.63281,0.42187 l -0.63281,0.84375 0,0.21094 0.21093,0 1.05469,-0.84375 0.42188,0 0,0.42188 c 0.53902,4e-5 1.17183,-0.35152 1.89843,-1.05469 l 0.63282,0 0.21093,0.21094 0.21094,0 0,-0.21094 c -0.58598,-0.42183 -1.14847,-0.63277 -1.6875,-0.63281 l -1.47656,1.05468 -0.42188,0 0.63282,-2.10937 0,-0.21094 -0.42188,-0.42187 m -26.78906,0.84375 0.42187,1.47656 0.42188,-0.42188 -0.42188,-1.05468 -0.42187,0 m 2.32031,2.10937 0.84375,0 -0.21094,-0.21094 0,-0.21093 c 0.23437,-0.70308 0.65624,-1.05464 1.26563,-1.05469 l 0,-0.21094 -0.21094,0 c -1.12501,0.2813 -1.68751,0.8438 -1.6875,1.6875 m -4.00781,6.11719 -0.21094,-0.21094 -0.21094,0 0,0.21094 0.21094,0 c -2.53125,3.82035 -3.79688,7.82816 -3.79687,12.02344 -1e-5,9.98439 4.07811,16.66407 12.23437,20.03906 l 0.84375,0.21094 2.32031,-0.84375 0,-0.42188 c -3.23439,-0.65624 -6.1172,-2.6953 -8.64843,-6.11719 -2.25001,-4.05466 -3.37501,-7.85153 -3.375,-11.39062 l 0,-0.84375 -0.21094,-0.21094 0.21094,-0.21094 0,-1.05468 c -1e-5,-7.00778 2.81249,-12.28121 8.4375,-15.82032 1.99217,-1.12495 4.4531,-1.68745 7.38281,-1.6875 l 0,-0.21093 c -1.28909,-0.56246 -2.34377,-0.84371 -3.16406,-0.84375 -4.28908,4e-5 -8.29689,2.39067 -12.02344,7.17187 l 0,0.21094 m 20.03906,-7.17188 c -3e-5,1.05474 1.12497,1.82818 3.375,2.32032 4.31247,2.25004 7.47652,6.18754 9.49219,11.8125 l 0.63281,2.95312 0.63281,0 c 1.31246,3e-5 2.36715,-0.28122 3.16407,-0.84375 l -0.42188,-1.47656 0.21094,-0.21094 -0.21094,0 -0.21094,0.21094 c -0.77348,-3.72653 -2.74223,-6.9609 -5.90625,-9.70313 -4.57034,-3.37495 -8.15628,-5.06245 -10.75781,-5.0625 m 13.71094,0.21094 c -4e-5,0.44536 -0.28129,1.00786 -0.84375,1.6875 l 0,1.05469 -1.6875,-0.42188 -0.21094,0 0,0.21094 c 1.21871,2.53129 2.55465,3.79692 4.00781,3.79688 -4e-5,0.28129 0.42184,0.42191 1.26563,0.42187 l 0.42187,0 0,-0.21094 c -0.84379,5e-5 -1.68754,-0.56245 -2.53125,-1.6875 l 0.84375,-0.21093 c -4e-5,0.75004 0.84371,1.31254 2.53125,1.6875 l 0.42188,0 0,-0.21094 c -0.8438,4e-5 -1.26567,-0.2109 -1.26563,-0.63281 1.78121,4e-5 2.83589,-0.49215 3.16407,-1.47657 l 0.21093,0.21094 0.42188,0 0.21094,-1.89844 0,-0.63281 -0.21094,0 -0.21094,1.47656 -0.21094,-0.21093 -0.21093,0 0,0.21093 0.21093,0 c -0.60942,1.4063 -1.45317,2.10942 -2.53125,2.10938 -0.56254,4e-5 -0.98442,-0.28121 -1.26562,-0.84375 l 0,-0.84375 c -5e-5,-0.42183 0.42183,-0.63277 1.26562,-0.63281 l -0.63281,-0.63282 -0.63281,0 L 199,156.57395 c -4e-5,-1.42964 -0.56254,-2.41402 -1.6875,-2.95313 m -34.59375,0.42188 0.63281,0 0,0.63281 -0.42187,0 0.21093,0.21094 0,0.21093 -0.63281,0.42188 -0.21094,-1.05469 0.63282,0 -0.21094,-0.21094 0,-0.21093 m 14.76562,0.63281 0,0.21094 2.32032,0.21093 c -3e-5,-0.2812 -0.21097,-0.42182 -0.63282,-0.42187 l -1.6875,0 m -15.82031,0 c 0.42187,0.14067 0.63281,0.56255 0.63281,1.26562 l 0,0.21094 -0.42187,0 c -1e-5,-0.37495 -0.21094,-0.79683 -0.63281,-1.26562 l 0.21093,-0.21094 0.21094,0 m 14.13281,0.21094 0,0.21093 1.26563,0 0,-0.21093 -1.26563,0 m -0.84375,0.21093 0,0.21094 0.63282,0 0,-0.21094 -0.63282,0 m -0.63281,0.21094 0,0.21094 0.42188,0 0,-0.21094 -0.42188,0 m -0.63281,0.21094 0,0.21094 0.42187,0 0,-0.21094 -0.42187,0 m -10.33594,17.50781 0.21094,2.53125 0.21094,0 0,-0.84375 -0.21094,-1.6875 c -1e-5,-8.41402 3.30467,-14.10933 9.91406,-17.08594 l 0,-0.21093 -0.21094,0 c -6.60938,2.64848 -9.91407,8.4141 -9.91406,17.29687 m 11.17969,-15.82031 c 0.7031,4e-5 1.05467,0.56254 1.05469,1.6875 l 0.63281,0.42187 1.26562,0 c 0.82029,-0.8437 1.45311,-1.26558 1.89844,-1.26562 l 0,-0.42188 -0.21094,0 -1.26562,1.05469 -0.63281,0 -0.84375,-0.84375 c -2e-5,-0.77339 0.35154,-1.33589 1.05468,-1.6875 l 1.26563,0 c 0.67966,5e-5 1.38279,0.21098 2.10937,0.63281 l 0,-0.21093 c -0.84377,-0.56246 -1.68752,-0.84371 -2.53125,-0.84375 l -1.47656,0 c -0.86721,4e-5 -1.64064,0.49223 -2.32031,1.47656 m 22.35937,-1.47656 0.42188,0 0.42187,0.42187 -0.21093,0.21094 -0.21094,0 -0.42188,-0.63281 m -32.90625,0.84375 c -0.51563,0.5391 -0.9375,1.38285 -1.26562,2.53125 l 0,0.21093 0.21094,0 1.26562,-2.74218 -0.21094,0 m 17.08594,0.21093 0,0.21094 0.63281,0.42188 0,-0.21094 -0.63281,-0.42188 m 15.82031,-0.21093 0.84375,0 -0.21093,0.21093 0,0.21094 0.21093,0.84375 -0.21093,0.21094 -0.42188,0 -0.21094,-1.47656 m -40.5,0.84375 0,0.42187 -0.21093,0 0.63281,1.47656 0.21094,0 c -1e-5,-0.37495 0.35156,-0.72652 1.05468,-1.05468 l 0,-0.42188 -0.21093,0 c -1e-5,0.42192 -0.14063,0.63286 -0.42188,0.63281 l -0.42187,0 c -0.28125,5e-5 -0.42188,-0.35152 -0.42188,-1.05468 l -0.21094,0 m 12.86719,2.10937 0.21094,1.05469 0,0.42187 -0.63281,0 c 0.0703,0.28129 0.42186,0.56254 1.05468,0.84375 l 1.26563,-0.21093 0.42187,0 0.21094,0.21093 0.21094,0 0,-0.42187 0.21094,0 0.42187,0.42187 0,0.21094 -0.42187,0.42188 -0.21094,-0.21094 -0.21094,0 c -1.54689,0.0938 -2.32033,0.44535 -2.32031,1.05469 l 0.21094,0.21093 0,0.21094 -0.63282,1.05469 0,0.21094 0.21094,0 c -1e-5,-0.44528 0.35155,-0.86715 1.05469,-1.26563 l 0,0.21094 c -0.63283,1.40629 -1.0547,2.10941 -1.26563,2.10937 l 0,-0.84375 -0.21093,0 0,1.05469 0.21093,0.21094 0.21094,0 1.89844,-1.26563 0.21094,0 c -2e-5,0.42191 0.14061,0.63285 0.42187,0.63282 -2e-5,-0.84372 0.42186,-1.54684 1.26563,-2.10938 l 1.05468,0 0,-0.42187 0.84375,0.21093 0,0.42188 c -2e-5,0.28129 -0.4922,0.42191 -1.47656,0.42187 l -1.05469,1.47657 0.63282,0 0,0.63281 c -2e-5,0.77347 0.35154,1.33597 1.05468,1.6875 l 0.42188,0 0.63281,-0.63281 0,-0.21094 -0.63281,0.21094 c -0.30471,3e-5 -0.65627,-0.42184 -1.05469,-1.26563 0.46873,-1.12496 1.10154,-1.68746 1.89844,-1.6875 l 1.26562,0.21094 0,-0.21094 1.26563,-0.84375 0,0.21094 -0.42188,0.63281 0.21094,0 0.63281,-0.84375 0,-0.42187 c -2e-5,-0.74996 -0.28127,-1.24215 -0.84375,-1.47657 l 0.21094,0.63282 0,0.21093 -0.21094,0 -0.63281,-1.05468 0.21094,-0.21094 0,-0.21094 -1.47656,-0.63281 -4.21875,0.42187 c -0.84377,-0.32808 -1.26564,-0.82027 -1.26563,-1.47656 0.28124,-0.84371 0.84374,-1.26558 1.6875,-1.26562 0.6328,0.98441 1.1953,1.4766 1.6875,1.47656 l 0.63281,-0.21094 0,-0.42187 -0.21093,0.21093 -0.84375,0 c -0.28127,5e-5 -0.56252,-0.42183 -0.84375,-1.26562 l -0.63282,0 c -0.82032,4e-5 -1.59376,0.49223 -2.32031,1.47656 m 20.25,-1.26562 -0.21094,1.05468 0,0.63282 c 0.84372,5.08597 1.26559,8.32034 1.26563,9.70312 l -0.21094,4.42969 0.42188,-0.42188 0,-4.64062 -1.05469,-9.07031 0.21094,-1.47657 -0.21094,-0.21093 -0.21094,0 m -32.90625,9.07031 c 0.0703,1.33597 0.77344,3.30472 2.10938,5.90625 l 0.21093,0 0,-0.63281 c -1.125,-2.69528 -1.6875,-4.87497 -1.6875,-6.53907 l 0,-0.21093 c 0,-2.53122 0.49219,-4.92184 1.47657,-7.17188 l 0,-0.21094 c -1.40626,1.31255 -2.10938,4.26567 -2.10938,8.85938 m 31.42969,-8.85938 0,0.63282 0.21094,0.84375 0.21093,0 0,-0.63282 -0.21093,-0.84375 -0.21094,0 m 15.39844,0 -0.21094,0.21094 0,0.21094 0.21094,0 0.21093,-0.21094 0,-0.21094 -0.21093,0 m -0.42188,0.63282 -0.42187,0.63281 0.21093,0 0.42188,-0.63281 -0.21094,0 m -21.09375,0.21093 0,0.21094 0.42188,0 0,-0.21094 -0.42188,0 m 20.25,0.42188 c -1.26567,1.03129 -1.89848,2.08598 -1.89844,3.16406 -4e-5,0.84379 0.56246,1.33598 1.6875,1.47656 l 0.21094,0 c 0.77339,4e-5 1.33589,-0.42183 1.6875,-1.26562 l 0,-0.63281 -0.21094,-1.05469 -0.21093,0 c -5e-5,1.2891 -0.35161,2.06254 -1.05469,2.32031 l -0.63281,0 c -0.51567,-0.25777 -0.86724,-0.67965 -1.05469,-1.26562 -5e-5,-0.70309 0.56245,-1.61715 1.6875,-2.74219 l -0.21094,0 m -15.60937,0.21094 0.42187,0.42187 -0.42187,0 0,-0.42187 m 10.96875,1.26562 0,0.21094 c 2.08589,2.69535 3.2812,5.36722 3.58593,8.01562 l 0.42188,0 c -1.05473,-4.19527 -2.39067,-6.93746 -4.00781,-8.22656 m -24.67969,0 0.21094,0 0.21093,0.21094 0.21094,0 0.63281,-0.21094 0.21094,0.21094 0,0.42187 -0.21094,0 -0.21093,-0.21093 -0.21094,0 -0.42188,0.42187 -0.42187,-0.42187 0,-0.42188 m 1.6875,0 0.84375,0.21094 0,0.21094 -0.84375,0.21093 0,-0.63281 m -16.24219,0.42188 0,1.89843 c 0,0.56254 0.28125,0.98442 0.84375,1.26563 l 0.63281,0 c 0.5625,-0.28121 0.84375,-0.70309 0.84375,-1.26563 l 0,-0.42187 -0.21093,0 c -1e-5,0.70316 -0.35157,1.05472 -1.05469,1.05469 -0.5625,-0.49215 -0.84375,-1.3359 -0.84375,-2.53125 l -0.21094,0 m 32.90625,0.21093 -0.42187,0.84375 0,1.6875 0.21093,0 c -3e-5,-1.03121 0.21091,-1.59371 0.63282,-1.6875 l 0.42187,0 c 0.42184,4e-5 0.63278,0.42192 0.63281,1.26563 l 0.21094,0 0,-1.26563 c -0.23441,-0.56246 -0.7266,-0.84371 -1.47656,-0.84375 l -0.21094,0 m -15.60937,0.21094 0.21093,0.21094 0,0.42187 c -1.71095,4e-5 -3.1172,0.49223 -4.21875,1.47657 l -0.21093,0 0,-0.42188 c 1.21873,-1.12496 2.62498,-1.68746 4.21875,-1.6875 m 3.375,0.63281 c -3e-5,1.24223 -0.28128,2.08598 -0.84375,2.53125 l 0.63281,0 c 0.42185,-0.14058 0.63279,-0.56246 0.63281,-1.26562 l 0,-0.21094 -0.21094,-1.05469 -0.21093,0 m -13.5,6.32813 0.42187,3.79687 -0.42187,1.89844 c 0.4453,3e-5 0.86717,-0.7031 1.26562,-2.10937 l 0.21094,0 0.21094,0.21093 0,-0.21093 -1.05469,-3.375 0.42187,-1.26563 -0.42187,0 c -1e-5,-0.37496 0.35155,-0.5859 1.05469,-0.63281 l 0,-0.21094 -0.84375,0 0.42187,-0.42187 1.05469,0.21093 -0.42188,0.63282 0.42188,0.42187 0,0.21094 -0.42188,0 0.21094,0.21094 -0.42187,0.84375 c 0.28123,3e-5 0.42186,0.21097 0.42187,0.63281 l 0.21094,-0.21094 0.21094,0 0.63281,1.26563 -0.63281,0.21093 0.21093,0.63282 -0.42187,0 c 0.21092,0.56253 0.42186,0.84378 0.63281,0.84375 l 0,-0.42188 0.21094,0 c 0.74998,0.56253 1.3828,0.84378 1.89844,0.84375 l 1.6875,0 0,-0.63281 c -2e-5,-0.28122 -0.28127,-0.42185 -0.84375,-0.42188 l 0,-0.84375 c 0.56248,3e-5 0.84373,-0.14059 0.84375,-0.42187 -1.54689,-0.63278 -2.32033,-1.61716 -2.32032,-2.95313 l 0.21094,-0.21093 0.21094,0 -0.21094,-0.21094 0,-0.21094 0.21094,-0.21094 0,-0.21093 c -0.70314,0.21097 -1.0547,0.91409 -1.05469,2.10937 l 0.42188,1.6875 -0.63282,0 c -0.32813,-1.99215 -0.6797,-3.25778 -1.05468,-3.79687 0.18748,-1.82809 0.46873,-2.74215 0.84375,-2.74219 l -0.42188,-1.05469 c -1.96876,1.24223 -2.95313,3.28129 -2.95312,6.11719 m 2.53125,-5.48438 0.21093,0 c -0.18751,0.58598 -0.53907,1.00785 -1.05468,1.26563 l -0.21094,0 0,-0.21094 1.05469,-1.05469 m 7.17187,0 0.42188,0 -0.21094,0.63282 -0.21094,0 0,-0.63282 m 0.63281,0 0.42188,0 0,0.63282 -0.42188,0 0,-0.63282 m 6.32813,2.53125 0,1.05469 0.21094,0 c -3e-5,-1.68746 0.63278,-2.53121 1.89843,-2.53125 l 0.42188,0 0.84375,1.05469 -0.21094,0.21094 0,0.63281 c 0.42185,-0.14059 0.63278,-0.56247 0.63281,-1.26563 -3e-5,-0.98433 -0.70315,-1.47652 -2.10937,-1.47656 -1.12503,0.42191 -1.68753,1.19535 -1.6875,2.32031 m -2.32031,-1.26562 0,0.21094 1.05468,2.53125 -0.42187,3.79687 c 0.42185,3e-5 0.7031,-1.05465 0.84375,-3.16406 -0.28128,-2.24997 -0.70315,-3.37496 -1.26563,-3.375 l -0.21093,0 m 22.99218,0.42187 0,0.21094 c 0.84371,4e-5 1.26558,0.42191 1.26563,1.26563 l -1.05469,2.53125 c 0.8437,-0.56247 1.26558,-1.2656 1.26563,-2.10938 l 0,-0.84375 -0.21094,-1.05469 -1.26563,0 m -27.63281,0.42188 0,0.21094 c 0.42186,3e-5 0.63279,0.56253 0.63281,1.6875 l 0.42188,-0.42188 0,-0.84375 c -2e-5,-0.35153 -0.28127,-0.56246 -0.84375,-0.63281 l -0.21094,0 m 16.66406,1.26562 0,0.63282 c 0.60934,1.96878 1.31247,2.95315 2.10938,2.95312 l 0,-0.63281 c -0.93754,3e-5 -1.57035,-1.05466 -1.89844,-3.16406 -4e-5,-0.35153 0.28121,-0.56247 0.84375,-0.63282 l 0.63281,0.21094 0,-0.42187 -1.05468,-0.21094 c -0.42192,0.14066 -0.63285,0.56253 -0.63282,1.26562 m 9.28125,-1.26562 2.10938,1.47656 0,-0.21094 c -0.6563,-0.84371 -1.35942,-1.26559 -2.10938,-1.26562 m -8.22656,2.53125 0.42188,0 c -4e-5,-0.32809 0.63277,-1.03122 1.89843,-2.10938 l 0,-0.21093 -0.21093,0 c -1.35942,1.17191 -2.06254,1.94534 -2.10938,2.32031 m -35.01562,-2.10938 0,0.63282 c 0.14062,0.84378 0.35156,1.26565 0.63281,1.26562 l 0.63281,0 0.21094,-0.63281 c -0.84375,3e-5 -1.26563,-0.42184 -1.26563,-1.26563 l -0.21093,0 m 13.07812,0.42188 0,0.21094 0.21094,0.21093 0,0.21094 -0.21094,0 0.21094,0.21094 0,0.42187 -0.63281,0 0,0.21094 c 0.28123,3e-5 0.70311,0.63285 1.26562,1.89844 l 1.89844,1.26562 c -2e-5,-0.25778 0.63279,-0.46872 1.89844,-0.63281 l 0,-1.05469 -0.63282,0.42188 -1.26562,0 c -0.84377,-0.44528 -1.26564,-1.00778 -1.26563,-1.6875 l -0.21093,0 0,0.42187 -0.21094,0 -0.21094,-1.47656 0.42188,0 0,-0.42187 -1.26563,-0.21094 m 6.32813,1.89844 0.42187,0.42187 c -2e-5,-0.84372 0.28123,-1.26559 0.84375,-1.26562 0.84373,0.28128 1.2656,0.77347 1.26563,1.47656 l 0.21093,0 0,-0.84375 c -0.28127,-0.84372 -0.84377,-1.26559 -1.6875,-1.26563 -0.70314,0.18754 -1.05471,0.67973 -1.05468,1.47657 m 24.46875,-1.47657 0,1.05469 c 0.4687,1.78128 0.89057,2.69534 1.26562,2.74219 l 0.21094,0 c -0.82036,-1.38278 -1.24224,-2.64841 -1.26563,-3.79688 l -0.21093,0 m -17.71875,0.63282 0,0.42187 0.21093,0.63281 c -0.84377,0.3516 -1.26565,0.84379 -1.26562,1.47657 0.28122,0.86721 0.63278,1.3594 1.05469,1.47656 l 0.84375,0 0.42187,-0.42188 c -0.70315,3e-5 -1.05471,-0.42184 -1.05469,-1.26562 l 0,-0.21094 c 0.23435,-0.56247 0.72654,-0.84372 1.47657,-0.84375 1.1484,3e-5 1.99215,0.9141 2.53125,2.74219 l 0.21093,0 0,-0.84375 c -3e-5,-1.73434 -1.47659,-2.78903 -4.42968,-3.16406 m 10.33593,0.21093 0,0.21094 0.42188,2.32031 c -0.23442,1.40628 -0.86723,2.10941 -1.89844,2.10938 l 0.42188,0.42187 c 1.12496,-0.14059 1.68746,-0.91403 1.6875,-2.32031 l 0,-0.84375 -0.42188,-1.89844 -0.21094,0 m -12.44531,0.42188 0,0.63281 0.21094,0 0,-0.63281 -0.21094,0 m 22.35938,0.42187 0,0.42188 0.21093,0 0,-0.42188 -0.21093,0 m -12.44532,1.05469 -0.21093,1.47656 0,0.42188 0.21093,0 0.21094,-1.47656 0,-0.42188 -0.21094,0 m 12.23438,0.21094 c -5e-5,0.75003 -0.49224,1.59378 -1.47656,2.53125 l 0.21093,0 c 0.49214,3e-5 0.98433,-0.7031 1.47657,-2.10938 l 0,-0.42187 -0.21094,0 m -28.26563,2.53125 -0.63281,0 0,-0.42188 -0.42187,0 0,1.05469 c -2e-5,2.76565 -1.12502,4.52346 -3.375,5.27344 l -0.21094,0 -0.42188,-0.42188 0,-0.21093 1.47657,-0.42188 -0.21094,-0.21094 0,-0.21093 0.63281,-1.05469 0,-0.42188 -0.42187,0 0.21093,0.21094 0,0.42188 -0.63281,0.21093 0,-0.63281 -1.26562,0.84375 c -0.28127,3e-5 -0.42189,-0.21091 -0.42188,-0.63281 -1.12501,1.26565 -2.10939,1.96877 -2.95312,2.10937 l 0,0.21094 0.21093,0 2.95313,-1.05469 0,0.21094 c -2e-5,0.32815 -0.84377,0.75002 -2.53125,1.26563 l 0,0.21093 0.63281,0 1.26563,-0.42187 0.21093,0.21094 0,0.42187 -0.42187,0 0,0.21094 0.84375,0 0.63281,-0.42188 0.63281,0.42188 3.79688,-0.21094 0.63281,0.84375 c -2e-5,0.70315 -0.35158,1.05471 -1.05469,1.05469 l 0,0.42187 0.84375,0 0.84375,-0.84375 0,-1.47656 0.42188,0 0,-0.21094 c -0.14065,-0.42185 -0.56252,-0.63279 -1.26563,-0.63281 -0.75002,0.4219 -1.8047,0.63284 -3.16406,0.63281 l 0,-0.42187 c 3.93748,-0.56248 5.90623,-1.47654 5.90625,-2.74219 0.39842,3e-5 0.8906,-0.42185 1.47656,-1.26562 l 0.42188,0 -0.42188,0.63281 0.21094,0 c 0.7031,-0.98435 1.54685,-1.47654 2.53125,-1.47656 l 1.05469,0.42187 0,-0.21094 c -3e-5,-0.56247 -0.28128,-0.98434 -0.84375,-1.26562 l -0.84375,0 -0.84375,0.63281 -0.21094,0 -0.21094,-1.05469 -0.21093,0 c -0.58597,0.3516 -1.50003,1.61722 -2.74219,3.79688 l -0.84375,0.42187 -0.21094,0 -0.42187,-0.42187 0,-0.21094 0.63281,-0.84375 -0.21094,-0.21094 c 0.28123,3e-5 0.49217,-0.42184 0.63281,-1.26562 l 0.21094,0 0.21094,0.21094 0.21094,0 0,-1.05469 -0.63282,0 0,-1.89844 0.21094,-0.21094 0,-0.21093 -0.21094,0 c -1.12502,0.6094 -1.68752,1.38284 -1.6875,2.32031 m 21.9375,-1.26563 -1.05468,0 -1.05469,-0.21093 0,0.42187 2.10937,0 c 1.31246,3e-5 2.6484,-0.28122 4.00782,-0.84375 l 0,-0.42187 -0.21094,0 c -1.2188,0.70315 -2.48442,1.05471 -3.79688,1.05468 m -17.92968,-0.63281 0,0.63281 0.21093,0 0,-0.63281 -0.21093,0 m 21.72656,0.63281 0.21094,1.47657 0,1.05468 -0.21094,2.53125 0.42187,-0.42187 0,-3.58594 -0.21093,-1.05469 -0.21094,0 m -21.9375,0.21094 -0.21094,0.63281 0.21094,0 0.21094,-0.21093 0,-0.42188 -0.21094,0 m -6.96094,0.21094 0,0.42187 0.42188,-0.42187 -0.42188,0 m 24.89063,0.84375 0.21093,1.6875 -0.21093,2.32031 0.63281,0.42188 1.26562,0 c 1.03121,2e-5 1.59371,-0.21092 1.6875,-0.63282 l 0,-4.64062 c -2.39066,0.32815 -3.58598,0.6094 -3.58593,0.84375 m -20.46094,-0.84375 0,0.21094 -0.21094,0.21093 0,0.21094 -0.63281,-0.21094 0,-0.21093 0.84375,-0.21094 m 11.17969,0.21094 0,0.21093 0.42187,0 0,-0.21093 -0.42187,0 m 3.16406,0 0,1.47656 0.21094,0 0,-1.47656 -0.21094,0 m 2.95312,2.53125 0,0.42187 0.21094,0 c -4e-5,-1.12497 0.7734,-1.89841 2.32031,-2.32031 l 0,-0.21094 -0.42187,0 c -1.40629,0.51566 -2.10942,1.21878 -2.10938,2.10938 m -9.70312,-1.47657 c 0.70309,3e-5 1.19528,0.42191 1.47656,1.26563 l -0.21094,3.58594 c 0.42185,1.40627 1.19528,2.10939 2.32032,2.10937 l 0.21093,0 c 1.64059,2e-5 2.90622,-1.12498 3.79688,-3.375 0.56246,3e-5 0.84371,-0.1406 0.84375,-0.42187 l 1.05469,0.63281 0,-0.84375 -0.84375,-0.84375 -1.26563,0 0,-0.63281 0.21094,-0.21094 0,-0.21094 -0.42188,0 c -1.40628,0.56253 -2.10941,1.96878 -2.10937,4.21875 l -0.63281,0.42188 -0.84375,0 c -0.37504,2e-5 -0.65629,-0.49217 -0.84375,-1.47657 l 1.05468,-2.32031 -0.42187,-0.84375 -0.21094,0.21094 -0.42187,0 -0.21094,-0.21094 c -0.44534,-0.98434 -0.79691,-1.47653 -1.05469,-1.47656 l -1.05469,0 -0.42187,0.42187 m 19.19531,-0.42187 c -5e-5,3.93752 -1.68755,5.90627 -5.0625,5.90625 -1.42973,2e-5 -2.76566,-0.63279 -4.00781,-1.89844 l 0,0.21094 c 1.1484,1.40627 2.48433,2.1094 4.00781,2.10937 2.43746,3e-5 4.19527,-1.33591 5.27344,-4.00781 l 0,-2.32031 -0.21094,0 m -46.19531,0.21094 0,0.21093 0.42187,1.05469 0.21094,0 0,-0.21094 -0.42187,-1.05468 -0.21094,0 m 15.1875,0 0,0.21093 0.42187,0.42188 0.42188,0 0,-0.63281 -0.84375,0 m 3.16406,-0.21094 0.63281,0 0.21094,0.21094 0.21094,0 -0.21094,0.63281 -0.84375,-0.63281 0,-0.21094 m 13.28906,0.21094 c -0.14065,1.47659 -0.49222,3.02346 -1.05468,4.64062 l 0.21093,0.21094 0.21094,0 c 0.56247,2e-5 0.91403,-1.54685 1.05469,-4.64063 l 0,-0.21093 -0.42188,0 m -32.27343,0.84375 -0.63282,2.74218 c 0.0937,0.84378 0.30469,1.26565 0.63282,1.26563 l 0.84375,0 c 0.70312,-0.39841 1.05468,-0.96091 1.05468,-1.6875 l -0.42187,-1.6875 -0.21094,0 0.21094,1.05469 c 0,1.26565 -0.35157,1.89846 -1.05469,1.89843 l -0.63281,-0.21093 0,-0.63282 0.42187,-1.89843 0,-0.84375 -0.21093,0 m 19.61718,-0.21094 0.21094,0.21094 0,0.42187 -0.42187,0 -0.42188,-0.42187 0.63281,-0.21094 m -9.70312,0.42187 0,0.63282 0.42187,-0.42188 0,-0.21094 -0.42187,0 m 1.05469,0.42188 0.63281,0.63281 0.21094,-0.21094 0,-0.84375 -0.42188,0 -0.42187,0.42188 m 1.6875,0 0.21093,0.21094 0.63282,0 0,-0.21094 -0.42188,-0.42188 -0.42187,0.42188 m 1.47656,0 0.21094,0.21094 0.42187,0 0.42188,-0.42188 -0.21094,-0.21094 -0.42188,0 -0.42187,0.42188 m 5.69531,0 0,0.21094 c -0.51564,2e-5 -1.50002,1.19533 -2.95312,3.58593 l -0.42188,0 c 1.35936,-2.53122 2.34373,-3.79684 2.95313,-3.79687 l 0.42187,0 m 18.77344,0.84375 0,1.05469 c -4e-5,0.65627 0.98433,1.21877 2.95312,1.6875 l 1.47657,0 0,-0.21094 c -2.27348,2e-5 -3.60942,-0.49216 -4.00782,-1.47656 l 0,-0.63282 0.42188,-0.63281 0,-0.21094 -0.42188,0 -0.42187,0.42188 m -14.55469,0.42187 c 0.35154,0.9844 0.84372,1.47659 1.47656,1.47657 l 0,0.21093 c -2e-5,0.4219 -0.35159,0.63284 -1.05468,0.63282 l 0,0.21093 c 0.49216,0.84378 1.12497,1.26565 1.89843,1.26563 l 1.26563,-0.21094 c -3e-5,-0.28123 -0.21097,-0.42185 -0.63281,-0.42187 l -0.21094,-0.21094 0,-0.21094 0.42187,0 0.21094,0.21094 0.21094,0 0,-0.21094 -0.63281,-0.21094 0,-0.63281 0.21093,0.21094 0.42188,0 0.42187,-0.42188 c -1.19534,-1.12497 -2.39065,-1.68747 -3.58593,-1.6875 l -0.42188,0 m -13.5,0.42188 c -1e-5,0.65627 -0.56251,1.07815 -1.6875,1.26562 -1e-5,0.56253 -0.14063,0.84378 -0.42187,0.84375 l -0.21094,0 -0.21094,-0.21093 -0.21094,0 0,0.42187 c 0.70312,2e-5 1.05468,0.35159 1.05469,1.05469 0.56249,0.53908 0.84374,1.10158 0.84375,1.6875 0.23436,2e-5 0.4453,-0.35154 0.63281,-1.05469 l -1.05468,-1.47656 0,-0.21094 1.47656,-1.47656 0,-0.84375 -0.21094,0 m 8.22656,0 0.21094,0 c 0.21092,2e-5 0.42186,0.28127 0.63281,0.84375 l -0.84375,0 0,-0.84375 m -4.64062,0.21094 0.63281,0.21093 0,0.21094 -0.63281,0 0,-0.42187 m -7.38281,0.42187 0,1.05469 0.21093,0 0,-1.05469 -0.21093,0 m 11.8125,0 c -2e-5,0.28128 0.28123,0.4219 0.84375,0.42188 l 0,0.21093 -0.63282,0.21094 -0.63281,-0.21094 0,-0.21093 0.42188,-0.42188 m -5.0625,0.21094 0.63281,0 0,0.42187 -0.63281,0 0,-0.42187 m 32.69531,0.63281 -0.21094,0.21094 0,0.21094 0.21094,0 0.21094,-0.21094 0,-0.21094 -0.21094,0 m -0.63281,0.42188 0,0.21093 0.21093,0 -0.63281,1.6875 0,0.21094 c -5e-5,0.58596 0.2812,1.07815 0.84375,1.47656 0.8437,2e-5 1.33589,-0.56248 1.47656,-1.6875 l -0.42187,-0.42187 -0.42188,0 -0.42187,0.42187 0,0.21094 0.21094,-0.21094 0.21093,0 0.42188,0.42188 0,0.21094 -0.63281,0.63281 c -0.56255,-0.14061 -0.8438,-0.56248 -0.84375,-1.26563 l 0,-0.21093 0.42187,-1.47657 -0.21094,-0.21093 -0.21093,0 m -44.29688,0.21093 c -0.98438,1.00784 -1.47656,1.85159 -1.47656,2.53125 0.28125,0.63284 0.5625,0.9844 0.84375,1.05469 l 0.84375,0 0.63281,-0.63281 0,-0.42188 -0.84375,0.63282 c -0.70313,-0.18748 -1.05469,-0.67967 -1.05469,-1.47657 0.25781,-0.0468 0.67969,-0.60935 1.26563,-1.6875 l -0.21094,0 m 20.88281,0.84375 0.42188,0 0,0.42188 -0.21094,0.21094 0.21094,0.21093 0,0.84375 -0.21094,-0.21093 -0.21094,0 c -2e-5,0.28127 -0.28127,0.42189 -0.84375,0.42187 -0.42189,1.12502 -0.84377,1.68752 -1.26562,1.6875 l 0,0.21094 c -2e-5,0.63283 0.84373,1.75783 2.53125,3.375 l 0,1.05469 -0.21094,0.21093 0,0.21094 0.21094,0 0.42187,-1.26562 -2.10937,-2.95313 0,-0.42187 1.05469,-0.84375 0,-0.21094 c 1.28903,2e-5 2.06247,0.91408 2.32031,2.74219 l 0,0.63281 c -3e-5,1.40626 -0.91409,3.16407 -2.74219,5.27344 l 0.21094,0 c 2.24997,-1.99218 3.37497,-4.17186 3.375,-6.53907 -3e-5,-1.05466 -0.70315,-2.74216 -2.10938,-5.0625 l 0,-0.84375 -0.84375,0.84375 m -15.1875,-0.63281 0,0.42188 0.21094,0 0,-0.42188 -0.21094,0 m 20.88282,0.21094 0,0.42187 0.21093,0 0,-0.42187 -0.21093,0 m 2.53125,-0.21094 1.05468,0.84375 0.21094,-0.21094 0.84375,0 -0.42187,0.84375 -0.42188,0 c -0.84378,3e-5 -1.40628,-0.42185 -1.6875,-1.26562 l 0.21094,-0.21094 0.21094,0 m 13.71093,0.63281 c -4e-5,2.83596 -1.54692,6.35158 -4.64062,10.54688 -2.39066,2.15626 -4.14848,3.35157 -5.27344,3.58594 l 0,0.21093 0.42188,0 c 3.72652,-1.61717 6.4687,-4.49998 8.22656,-8.64843 l 1.6875,-5.69532 -0.42188,0 m -8.85937,0.21094 c -4e-5,0.28127 -0.3516,0.4219 -1.05469,0.42188 l 0,0.21093 0.84375,0 0,0.42188 c -0.70316,2e-5 -1.05472,0.14065 -1.05469,0.42187 l -0.21093,-0.21093 -0.21094,0 c 0.49215,0.98439 1.12496,1.47658 1.89844,1.47656 l 0.84375,0 1.05468,-0.21094 -0.42187,-0.63281 0,-0.21094 c 1.40621,-0.0937 2.10933,-0.5156 2.10937,-1.26562 l -3.16406,-0.42188 -0.63281,0 m 6.32812,0.42188 -1.47656,-0.21094 c -0.1641,2.60158 -1.35941,5.62502 -3.58594,9.07031 -3.39847,3.37501 -6.9844,5.06251 -10.75781,5.0625 l -2.74219,0 -2.10937,0.84375 0,0.21094 15.1875,3.16406 2.32031,0.42188 c 5.48433,-0.91406 8.22652,-2.8125 8.22656,-5.69532 l 0,-0.42187 -0.21093,0 c -5e-5,1.54688 -1.54693,2.67188 -4.64063,3.375 l -1.26562,0 c -3.07036,1e-5 -5.46098,-0.70312 -7.17188,-2.10938 l 0,-0.42187 c 2.43746,-0.58593 4.61715,-2.1328 6.53906,-4.64063 2.39058,-4.33592 3.65621,-7.35935 3.79688,-9.07031 l -0.21094,0 -1.89844,0.42188 m -34.38281,-0.21094 0,0.42187 0.21094,0 0,-0.42187 -0.21094,0 m 20.03906,0.84375 -0.21093,-0.21094 0,0.21094 0.21093,0.21094 c -0.32815,2e-5 -0.53909,0.35158 -0.63281,1.05468 l 0.21094,0.21094 0.21094,0 1.47656,-0.42187 0,0.21093 -0.42188,0.84375 0.84375,1.26563 c 1.03122,2e-5 1.87497,-0.42186 2.53125,-1.26563 l 0.84375,0.63282 0.63282,-1.47657 0,-1.05468 -0.21094,0 c -4e-5,0.56252 -0.28129,0.84377 -0.84375,0.84375 l -0.21094,-0.21094 c -3e-5,0.28127 -0.35159,0.42189 -1.05469,0.42187 l 0,0.63282 -0.63281,0 c -3e-5,-0.56248 -0.14066,-0.84373 -0.42187,-0.84375 l 0,-0.21094 0.21093,-0.21094 0,-0.21094 -0.21093,0.21094 -0.42188,0 0,-0.21094 0.21094,-0.21093 0,-0.21094 -0.21094,0.21094 -0.42187,0 0,-0.21094 0.21093,-0.21094 0,-0.21094 -0.63281,-0.21093 -1.05469,0.63281 m -19.82812,0 0,0.42187 0.21094,0 0,-0.42187 -0.21094,0 m 3.79687,0.21094 -0.21093,0.21093 0,0.42188 0.63281,0 0,-0.21094 -0.42188,-0.42187 m 1.26563,0 0,0.42187 0.63281,0 0,-0.42187 -0.63281,0 m -4.85156,0.42187 0,0.21094 0.63281,1.89844 0.21094,0 0,-0.21094 -0.63282,-1.89844 -0.21093,0 m 12.86718,0.21094 -0.21093,0.21094 0,0.21093 0.21093,0 0.21094,-0.21093 0,-0.21094 -0.21094,0 m -8.64843,0.42187 0,0.42188 0.42187,0.42187 0.42188,-0.42187 -0.42188,-0.42188 -0.42187,0 m 1.6875,0 -0.21094,0.21094 0,0.21094 0.21094,0.21094 0.21093,0 0.21094,-0.21094 0,-0.21094 -0.21094,-0.21094 -0.21093,0 m -3.16407,0.42188 0,0.84375 0.42188,0 0.42187,-0.42188 -0.42187,-0.42187 -0.42188,0 m 5.90625,0 0,0.42187 c -1e-5,0.46877 0.98436,1.1719 2.95313,2.10938 0.44529,2e-5 0.93748,0.4922 1.47656,1.47656 l 0,0.84375 c -2e-5,1.00783 -0.14065,1.78126 -0.42187,2.32031 l 0,0.21094 0.21093,0 0.42188,-1.89844 0,-1.05468 c -2e-5,-1.28905 -0.9844,-2.20311 -2.95313,-2.74219 -2e-5,-0.56248 -0.14064,-0.84373 -0.42187,-0.84375 l -1.26563,-0.84375 m 17.29688,0.21094 c -4e-5,0.28127 0.2109,0.42189 0.63281,0.42187 l 0.21094,0.21094 0,0.42187 c -0.21097,1.26565 -0.77347,1.89846 -1.6875,1.89844 l 0,0.21094 0.42187,0 c 1.40622,-0.46873 2.10934,-1.17186 2.10938,-2.10938 l 0,-0.21093 c -0.23441,-0.56248 -0.7266,-0.84373 -1.47656,-0.84375 l -0.21094,0 m -31.21875,0.21093 0,0.84375 0.42187,0 0.42188,-0.42187 0,-0.42188 -0.84375,0 m 34.80469,0.42188 0,0.21094 0.42187,0 0,0.42187 -0.42187,0.63281 0.21093,0 0.63282,-0.63281 0,-0.63281 -0.84375,0 m -24.67969,0.21094 0,0.84375 0.42187,0 0.42188,-0.42188 -0.63281,-0.42187 -0.21094,0 m 13.5,0.63281 c 0.56247,0.21095 0.84372,0.42189 0.84375,0.63281 l 0,0.21094 -0.42188,1.26562 0.21094,0 c 0.42185,-0.5156 0.63279,-1.00779 0.63281,-1.47656 l 0,-0.42187 -0.63281,-0.63282 -0.21094,0 -0.42187,0.42188 m 18.14062,-0.42188 0,0.63282 0.42188,0.42187 0.42187,0 c 0.21089,2e-5 0.42183,-0.28123 0.63282,-0.84375 l -0.21094,0.21094 -0.63281,0 -0.63282,-0.42188 m -44.50781,2.32032 c 0.375,1.40626 1.07812,2.10939 2.10938,2.10937 l 1.6875,-0.21094 c 0.56249,0.14064 0.84374,0.56252 0.84375,1.26563 l -0.84375,0.84375 -1.47657,0 c -0.77344,1e-5 -1.40625,0.42189 -1.89843,1.26562 l 0,1.26563 c 0.49218,0.98438 1.19531,1.47657 2.10937,1.47656 1.21875,1e-5 2.20312,-0.98436 2.95313,-2.95312 l 1.05468,-0.21094 0.21094,0 c 0.79687,1e-5 1.28905,0.4922 1.47656,1.47656 -1e-5,0.96095 -1.33594,1.59376 -4.00781,1.89844 l -0.21094,-0.21094 0,0.21094 0.21094,0.21094 -0.63281,0.63281 0,0.21094 0.42187,0.63281 0,0.21094 -0.42187,0 -3.16406,-1.05469 0,0.21094 c 0.77343,1.125 1.82812,1.6875 3.16406,1.6875 l 0.63281,-1.05469 0,-0.21094 0.42188,0 0,0.42188 0.63281,-0.63282 1.47656,0.21094 1.05469,0 2.10937,-2.10937 0,-0.42188 -1.05468,0.21094 -0.21094,-0.21094 0,-0.21094 0.42187,-1.6875 0,-0.42187 -0.21093,0.21094 -0.63282,0 0,-0.84375 -0.21093,0 -0.21094,0.21093 -1.26563,-0.42187 0,-0.21094 0.42188,0 0,-0.21094 -0.63281,0 c -0.53907,0.39845 -1.38282,1.59376 -2.53125,3.58594 l -1.26563,0.21094 c -0.84375,-0.28124 -1.26563,-0.56249 -1.26562,-0.84375 l 0,-0.42188 c -1e-5,-1.14842 1.19531,-1.85155 3.58593,-2.10937 l 0.63282,-0.84375 0,-0.84375 -0.84375,-0.84375 -2.95313,0.21094 c -0.70313,-0.35155 -1.05469,-0.91405 -1.05469,-1.6875 l 0,-0.42188 c 0,-0.84373 0.49219,-1.26561 1.47657,-1.26562 l 0.21093,0 0,-0.21094 -0.42187,0 0,-0.21094 c -0.84375,2e-5 -1.47657,0.70314 -1.89844,2.10938 m 11.60156,-2.10938 0,0.84375 c 0.35155,0.84377 0.98437,1.26564 1.89844,1.26563 1.12499,-0.2578 1.68748,-0.53905 1.6875,-0.84375 l -1.6875,0.63281 c -1.12501,-0.30467 -1.68751,-0.93748 -1.6875,-1.89844 l -0.21094,0 m 32.0625,3.16406 0,0.21094 1.6875,0.21094 c 0.14058,-0.56249 0.56246,-0.84374 1.26563,-0.84375 l 0.21094,0.21094 0.21093,-0.21094 0,-0.42188 -0.63281,0 0,-0.21093 c 0.42183,-0.42186 0.63277,-0.91405 0.63281,-1.47657 l 0.63282,-0.21093 -0.42188,-0.42188 -2.32031,2.74219 -1.26563,0.42187 m -40.5,-2.53125 0.63282,0.63282 0.21093,-0.21094 0,-0.42188 -0.42187,-0.42187 -0.42188,0.42187 m 26.57813,1.47657 0.21094,0 c 0.32809,-0.84374 1.24215,-1.26561 2.74218,-1.26563 l -0.42187,-0.42187 -0.42188,0 c -0.7969,1e-5 -1.50003,0.56251 -2.10937,1.6875 m -14.13281,-1.26563 -0.21094,0.21094 0,0.21094 0.21094,0 0.21093,-0.21094 0,-0.21094 -0.21093,0 m 1.26562,0.63281 0,0.21094 1.47656,-0.21094 0,-0.63281 -0.21093,0 c -0.84377,0.0938 -1.26565,0.30471 -1.26563,0.63281 m 11.60156,-0.63281 c -0.9844,2.97658 -4.50002,6.21095 -10.54687,9.70313 -3.25783,1.26563 -5.29689,1.89844 -6.11719,1.89843 l 0,0.21094 1.6875,0.21094 c 7.54685,-2.39062 12.96091,-6.32811 16.24219,-11.8125 l -0.21094,0 -0.63281,0.21094 0,-0.42188 -0.42188,0 m -26.78906,0.63281 0.42188,0.42188 0.21093,0 0.42188,-0.42188 -0.42188,-0.42187 -0.21093,0 -0.42188,0.42187 m 34.59375,0 0,0.21094 1.6875,0.21094 0.21094,0 0,-0.21094 -1.05469,-0.21094 -0.84375,0 m -32.0625,0.21094 0,0.42188 0.63281,0 -0.42187,-0.42188 -0.21094,0 m 29.95313,0.21094 0,0.21094 0.21093,0 1.26563,-0.21094 0,-0.21094 -0.63281,0 -0.84375,0.21094 m -2.10938,0.21094 0,0.21093 0.42188,0 0.21093,-0.21093 0,-0.21094 -0.63281,0.21094 m -29.10937,0 0,0.63281 0.21093,0 0.42188,-0.42188 0,-0.21093 -0.63281,0 m 27.84375,0.84375 1.05468,-0.42188 0,-0.21094 -0.21093,0 c -0.56254,0.21096 -0.84379,0.42189 -0.84375,0.63282 m -14.55469,-0.42188 0.21094,0.21094 0,0.21094 -0.21094,0.21093 -1.05469,0 0,-0.42187 -0.21094,0 -0.42187,0.42187 0.42187,0.42188 c -0.42189,0.51564 -0.63282,1.00783 -0.63281,1.47656 l 0.63281,0.84375 0.42188,0 -0.21094,-0.21094 0,-1.26562 c -2e-5,-0.35155 0.56248,-0.70311 1.6875,-1.05469 1.40623,0.32814 2.10936,1.17189 2.10938,2.53125 l -0.84375,1.89844 0.21093,0 c 0.56248,-0.74999 0.84373,-1.52343 0.84375,-2.32031 l 0,-0.63282 c -2e-5,-1.54686 -0.98439,-2.32029 -2.95312,-2.32031 m 13.07812,0 -0.21093,0.21094 0,0.21094 0.21093,0 0.21094,-0.21094 0,-0.21094 -0.21094,0 m -12.65625,9.70313 0,0.21093 0.21094,0 c 2.60154,-0.91405 6.11716,-2.8828 10.54688,-5.90625 2.06247,-2.01561 3.82028,-3.28123 5.27343,-3.79687 l 0,-0.21094 c -2.06253,1.12502 -5.36721,3.37501 -9.91406,6.75 -3.60939,1.96876 -5.64845,2.95313 -6.11719,2.95313 m 18.14063,-9.70313 0,0.42188 1.05469,0.21093 0,0.84375 -0.42188,0.42188 -0.42187,0 -0.21094,-0.21094 -0.21094,0 0,0.21094 0.42188,0.42187 c 0.72652,2e-5 1.1484,-0.21092 1.26562,-0.63281 l 0,-0.84375 c -0.23441,-0.56248 -0.7266,-0.84373 -1.47656,-0.84375 m -0.84375,0.21094 0,0.21094 0.63281,0 0,-0.21094 -0.63281,0 m -0.63281,0.21094 0,0.21093 0.42187,0 0,-0.21093 -0.42187,0 m 9.28125,0.63281 0,0.21094 0.84375,1.05468 0,0.42188 -0.42188,0 0,0.42187 c 0.56246,0.75002 0.84371,1.38283 0.84375,1.89844 l 0,0.84375 c -4e-5,0.63282 -0.42192,1.40626 -1.26562,2.32031 1.4062,-0.39843 2.10933,-0.8203 2.10937,-1.26562 l 0,-0.21094 -0.42187,0 0.21093,-1.05469 -0.42187,-1.05468 0.63281,0 -1.05469,-1.47657 0,-0.21093 0.42188,-0.42188 c 0.63277,1e-5 1.19526,0.28126 1.6875,0.84375 1.26558,1e-5 1.89839,-0.49217 1.89844,-1.47656 -0.51568,0.42189 -1.00786,0.63282 -1.47657,0.63281 -0.72661,-0.70311 -1.35942,-1.05467 -1.89843,-1.05469 l -0.21094,0 0,0.42188 -0.21094,0 c -0.42192,1e-5 -0.63286,-0.21092 -0.63281,-0.63281 l -0.21094,-0.21094 -0.42187,0 m -12.86719,2.10937 0.21094,0 1.6875,-0.42187 1.26562,0 0.63281,0.63281 0,0.42188 c -3e-5,0.70313 -0.9844,1.05469 -2.95312,1.05468 l 0,0.21094 1.89844,0 c 1.12496,-0.4453 1.68746,-1.07811 1.6875,-1.89844 -4e-5,-0.70311 -0.42191,-1.05467 -1.26563,-1.05468 -2.10941,0.28126 -3.16409,0.63282 -3.16406,1.05468 m 12.23437,-0.42187 0.21094,0.21094 0,1.05468 c -0.3516,0.98439 -1.40629,1.68751 -3.16406,2.10938 -0.42192,0.35157 -0.63285,0.77345 -0.63281,1.26562 l 0,0.42188 0.42187,0.42187 0.42188,0 -0.42188,-0.84375 c 0.14059,-0.56249 0.56246,-0.84374 1.26563,-0.84375 l 0.63281,0.42188 c 0.21089,-0.56249 0.42183,-0.84374 0.63281,-0.84375 l 0.21094,0 0,0.84375 0.21094,0 c 0.70308,-0.53905 1.05464,-1.45312 1.05468,-2.74219 -0.32816,-0.98436 -0.60941,-1.47655 -0.84375,-1.47656 m -25.73437,0.42187 0,0.21094 c 0.56248,1e-5 0.84373,0.14064 0.84375,0.42188 l 0.42187,0 -0.63281,-0.63282 0,-0.21093 -0.63281,0.21093 m -9.07031,0 c -1e-5,0.28127 0.21093,0.42189 0.63281,0.42188 l 0.21094,0 0,-0.21094 -0.84375,-0.21094 m 22.14843,0 -0.21093,0.21094 0,0.21094 0.21093,0 0.21094,-0.21094 0,-0.21094 -0.21094,0 m -0.63281,0.42188 -0.21094,0.21094 0,0.21093 0.21094,0 0.21094,-0.21093 0,-0.21094 -0.21094,0 m 18.5625,0 -0.21094,0.21094 0,0.42187 0.63282,0 0,-0.21094 -0.42188,-0.42187 m -19.19531,0.42187 -0.21094,0.21094 0,0.21094 0.21094,0 0.21094,-0.21094 0,-0.21094 -0.21094,0 m 17.50781,0 0,0.42188 0.63281,0 0,-0.42188 -0.63281,0 m -25.52344,0.42188 -1.05468,1.26562 0.21093,0 1.05469,-1.26562 -0.21094,0 m 8.4375,1.05469 0,0.63281 0.63282,0 -0.21094,-0.21094 0,-0.21094 c -3e-5,-0.42186 0.21091,-0.6328 0.63281,-0.63281 l 0,-0.21094 -0.21094,0 -0.84375,0.63282 m -1.89843,-0.42188 -0.21094,0.21094 0,0.21094 0.21094,0 0.21093,-0.21094 0,-0.21094 -0.21093,0 m 18.14062,0 0,0.42188 0.21094,0 0,-0.42188 -0.21094,0 m 1.05469,0 0,0.84375 0.42187,0 0,-0.42187 -0.42187,-0.42188 m -20.25,0.63281 0,0.21094 0.42187,0 0.21094,-0.21094 0,-0.21093 -0.63281,0.21093 m -14.13281,0.84375 0.63281,1.05469 -0.42188,0.84375 0.21094,0 0.63281,-0.63281 0,-0.63281 -0.63281,-0.63282 -0.42187,0 m 35.85937,0.84375 c -5e-5,1.21876 -1.33598,2.69532 -4.00781,4.42969 -1.14848,0.5625 -2.48442,0.84375 -4.00781,0.84375 -1.82817,0 -6.96097,-1.05468 -15.39844,-3.16406 l -2.32031,-0.42188 -0.21094,0 0,0.21094 c 9.7734,2.39063 15.74996,3.58594 17.92969,3.58594 l 0.42187,0 c 3.56246,0 6.16402,-1.6875 7.80469,-5.0625 l 0,-0.42188 -0.21094,0 m -37.75781,0.42188 0,0.42187 0.21094,0 0,-0.42187 -0.21094,0 m 3.375,0.63281 0,0.21094 0.21094,0 0.63281,-0.21094 0,-0.21094 -0.21094,0 -0.63281,0.21094 m 7.59375,0.42188 0,0.21093 0.42187,0 0,-0.21093 -0.42187,0 m -15.1875,1.6875 -0.63281,-0.42188 0.42187,1.26563 -0.21094,0 -0.84375,-0.63282 -0.21093,0.21094 c 0.46874,1.12501 1.3828,1.6875 2.74218,1.6875 0,-0.28125 0.28125,-0.42187 0.84375,-0.42187 l 0,-0.21094 -0.42187,0 0,-0.42188 0.84375,-0.21093 0.63281,0.21093 -0.21094,0.21094 0,0.21094 0.42188,0 0.84375,-0.21094 0.84375,0.21094 2.10937,-0.63281 c 0.6328,0.28125 0.98436,0.5625 1.05469,0.84375 l 0,0.21093 -0.42187,0.63282 0,0.21093 0.84375,-0.63281 0,-0.42187 c -2e-5,-0.98437 -0.56252,-1.47656 -1.6875,-1.47657 l -2.10938,0.21094 0.63281,-1.05469 -0.21093,-0.21093 -0.42188,0 -4.85156,0.84375 m 13.92187,-0.84375 0,0.21093 c 1.26561,1e-5 1.89842,0.56251 1.89844,1.6875 -0.28127,0.63282 -0.56252,0.98438 -0.84375,1.05469 l -1.05469,0 -2.10937,-1.47656 c -0.84377,0.1875 -1.26564,0.39844 -1.26563,0.63281 l 0,0.63281 0.21094,0 0.21094,-0.84375 1.05469,0 c 1.00779,0.98438 1.85154,1.47657 2.53125,1.47657 l 0.21093,0 c 1.12498,-0.0703 1.68748,-0.63281 1.6875,-1.6875 -2e-5,-0.53906 -0.42189,-1.10156 -1.26562,-1.6875 l -1.26563,0 m -3.58593,0.42187 0,0.21094 0.42187,0 0,-0.21094 -0.42187,0 m -14.55469,0.21094 0,0.21094 c 0.98437,0.58594 1.47656,1.00781 1.47656,1.26562 l 0,0.21094 -0.63281,0.63281 -1.47656,-1.05469 -0.21094,0.21094 0,0.21094 1.6875,1.05469 c 0.5625,-0.21094 0.84374,-0.42188 0.84375,-0.63282 l 0,-0.84375 c -0.0937,-0.32812 -0.65625,-0.74999 -1.6875,-1.26562 m 45.98437,0.63281 c -4e-5,0.98438 -0.21098,1.47657 -0.63281,1.47656 l -0.42187,0 0,0.21094 0.84375,0 0.42187,-0.63281 0,-1.05469 -0.21094,0 m -24.46875,0.21094 c 0.37498,1.125 1.00779,1.6875 1.89844,1.6875 l 0.63281,0 0.21094,-0.63281 0,-0.21094 -0.21094,0 c -2e-5,0.42188 -0.21096,0.63281 -0.63281,0.63281 l -1.89844,-1.47656 m 2.95313,0.42187 1.05469,0 1.05468,0.84375 0.21094,0 c -0.35159,-0.70312 -0.91409,-1.05468 -1.6875,-1.05468 l -0.42187,0 -0.21094,0.21093 m 3.58594,1.05469 0.63281,0.42188 0.42187,-0.63282 0,-0.21093 -0.63281,0 -0.42187,0.42187"
         style="font-size:72px;font-variant:normal;font-stretch:normal;font-family:Goudy Initials;-inkscape-font-specification:Goudy Initials"
         id="path4495" />
    </g>
  </g>
</svg>
