<?xml version="1.0" encoding="UTF-8" standalone="no"?>
<!-- Created with Inkscape (http://www.inkscape.org/) -->

<svg
   xmlns:dc="http://purl.org/dc/elements/1.1/"
   xmlns:cc="http://creativecommons.org/ns#"
   xmlns:rdf="http://www.w3.org/1999/02/22-rdf-syntax-ns#"
   xmlns:svg="http://www.w3.org/2000/svg"
   xmlns="http://www.w3.org/2000/svg"
   xmlns:sodipodi="http://sodipodi.sourceforge.net/DTD/sodipodi-0.dtd"
   xmlns:inkscape="http://www.inkscape.org/namespaces/inkscape"
   width="56.734375"
   height="56.734375"
   id="svg2"
   version="1.1"
   inkscape:version="0.48.5 r10040"
   sodipodi:docname="q.svg">
  <defs
     id="defs4" />
  <sodipodi:namedview
     id="base"
     pagecolor="#ffffff"
     bordercolor="#666666"
     borderopacity="1.0"
     inkscape:pageopacity="0"
     inkscape:pageshadow="2"
     inkscape:zoom="3.959798"
     inkscape:cx="43.996764"
     inkscape:cy="5.617196"
     inkscape:document-units="px"
     inkscape:current-layer="layer1"
     showgrid="false"
     fit-margin-top="2"
     fit-margin-left="2"
     fit-margin-right="2"
     fit-margin-bottom="2"
     inkscape:window-width="1366"
     inkscape:window-height="733"
     inkscape:window-x="0"
     inkscape:window-y="0"
     inkscape:window-maximized="1"
     showborder="true"
     borderlayer="false" />
  <metadata
     id="metadata7">
    <rdf:RDF>
      <cc:Work
         rdf:about="">
        <dc:format>image/svg+xml</dc:format>
        <dc:type
           rdf:resource="http://purl.org/dc/dcmitype/StillImage" />
        <dc:title></dc:title>
      </cc:Work>
    </rdf:RDF>
  </metadata>
  <g
     inkscape:label="Layer 1"
     inkscape:groupmode="layer"
     id="layer1"
     transform="translate(-152.28125,-146.34738)">
    <g
       style="font-size:40px;font-style:normal;font-weight:normal;line-height:125%;letter-spacing:0px;word-spacing:0px;fill:#ffffff;fill-opacity:1;stroke:none;font-family:Sans"
       id="flowRoot2985">
      <path
         d="m 154.28125,148.34738 52.73437,0 0,52.73438 -52.73437,0 0,-52.73438 m 1.05469,1.05469 0,50.625 50.625,0 0,-50.625 -50.625,0 m 0.42187,0.63281 49.57031,0 0,49.35938 -49.57031,0 0,-49.35938 m 1.05469,1.05469 c 0.82031,5e-5 1.38281,0.35161 1.6875,1.05469 l 0,0.63281 c -0.98438,2.41411 -1.47657,4.5938 -1.47656,6.53906 l 0,0.84375 0.42187,3.16407 0.42188,0 c -1e-5,-0.42184 0.21093,-0.63278 0.63281,-0.63282 l 0,-1.6875 c 0,-1.94527 0.63281,-3.14058 1.89844,-3.58593 0.84374,0.14067 1.26562,0.3516 1.26562,0.63281 l 0,1.05469 c -1.40625,0.14066 -2.10938,0.42191 -2.10937,0.84375 l 0.63281,0.63281 0.21094,0 c -1e-5,-0.65621 0.56249,-1.07808 1.6875,-1.26563 l 0.21093,-0.21093 0,-0.63282 c 0,-0.8437 -0.35157,-1.26558 -1.05468,-1.26562 l 0,-0.21094 0.42187,-0.63281 0,-0.21094 -1.05469,-0.21094 c -1.40625,5e-5 -2.32031,1.4063 -2.74218,4.21875 l -0.42188,0 0,-1.05468 1.6875,-3.79688 0.21094,-0.63281 -0.21094,-0.84375 0.42188,-0.42188 0,-0.21093 -0.21094,-1.05469 -0.21094,0.21094 -0.42187,0 0,-1.05469 -0.63282,-0.63281 -0.84375,0 -0.42187,0.42187 m 3.375,-0.42187 0,0.21093 0.42187,0 c 0,0.42193 0.14062,0.63287 0.42188,0.63282 l 0,-0.21094 -0.21094,-0.63281 -0.63281,0 m 0.21094,2.53125 0.63281,0 4.00781,-1.6875 2.53125,0 c 1.17186,5e-5 2.43749,0.56255 3.79688,1.6875 L 172,152.77707 l 0,0.42188 0.42187,0 0,-0.42188 c -1.57032,-1.4062 -3.46876,-2.10932 -5.69531,-2.10937 -2.48438,5e-5 -4.59376,0.8438 -6.32812,2.53125 m 16.24218,-1.26563 0.42188,0.84375 1.47656,-0.21094 0.21094,0 1.26562,0.42188 0,-0.42188 -0.42187,-0.42187 -2.32031,0.21094 0,-0.21094 -0.21094,-0.63281 1.47656,-0.63282 3.79688,1.6875 0.63281,-0.21093 0,-0.21094 c -1.05472,5e-5 -1.89846,-0.21089 -2.53125,-0.63281 -3e-5,-0.37495 -0.56253,-0.6562 -1.6875,-0.84375 l -0.42188,0 c -0.84377,5e-5 -1.40627,0.42192 -1.6875,1.26562 m 10.96875,-1.26562 0,1.26562 0.42188,0 0,-0.84375 -0.42188,-0.42187 m 6.75,0 -0.42187,1.6875 0.42187,0 0,-1.47657 0.63282,0 0,-0.21093 -0.63282,0 m 0.84375,0 0,0.21093 0.42188,0 0,-0.21093 -0.42188,0 m 2.53125,0 c -4e-5,0.4688 -0.21098,0.89067 -0.63281,1.26562 l 0.63281,0 0.42188,-0.42187 0,-0.84375 -0.42188,0 m -5.27343,0.21093 0,0.21094 0.84375,0 0,-0.21094 -0.84375,0 m -17.29688,0.21094 c -2e-5,0.8438 -0.42189,1.26568 -1.26562,1.26563 l -1.26563,-0.42188 c -2e-5,0.39849 0.70311,0.67974 2.10938,0.84375 l 0.42187,0 c 0.28123,-0.0703 0.56248,-0.42182 0.84375,-1.05469 l -0.21094,-0.63281 -0.63281,0 m 13.71094,0.21094 0.21094,0.21094 0,0.42187 -0.21094,0.21094 0,0.21094 0.21094,0 0.84375,-1.26563 -0.63282,0 -0.21093,0.21094 -0.21094,0 m 3.16406,-0.21094 -0.21094,0.21094 0,0.63281 0.63282,0.63281 0,-0.21093 -0.42188,-0.42188 0,-0.42187 0.21094,-0.21094 0,-0.21094 -0.21094,0 m -5.90625,0.21094 0.21094,1.05469 0.42187,0 -0.21093,-0.21094 0,-0.21094 0.42187,0 0,-0.21094 -0.42187,-0.42187 -0.42188,0 m -14.55469,0.21094 0,0.21093 0.42188,0 0,-0.21093 -0.42188,0 m 24.67969,0.42187 0,0.21094 0.42188,0 0,-0.21094 -0.42188,0 m -31.85156,0.21094 0,0.21094 c 0.84374,5e-5 1.40624,0.14067 1.6875,0.42187 l -0.21094,0.21094 0,0.42187 0.42188,0 0.42187,-0.42187 0,-0.42188 -0.42187,-0.42187 -1.89844,0 m 24.89062,0.21094 -0.21093,0.63281 0.21093,0 1.05469,-0.21094 0,-0.42187 -1.05469,0 m -3.58593,0.21093 0,0.42188 0.63281,0 0,-0.42188 -0.63281,0 m 7.17187,0 0,0.21094 0.63281,0 0,-0.21094 -0.63281,0 m 8.4375,0.63282 -0.21094,-0.21094 -0.21093,0 -1.6875,0.21094 0,0.21093 0.42187,0 0,0.21094 -1.26562,0.42188 0.21093,-0.21094 0,-0.42188 c -0.3516,5e-5 -0.56254,0.2813 -0.63281,0.84375 l -0.63281,0 0,-0.63281 -0.42188,0 -1.47656,1.6875 -0.21094,1.6875 0.21094,1.89844 -0.21094,1.47656 -0.63281,-0.21094 0,-0.42187 0.42188,0 c -4e-5,-0.28121 -0.21098,-0.42183 -0.63282,-0.42188 l 0,-3.16406 -0.42187,-0.42187 -0.63281,0.21093 c -0.21098,-0.56245 -0.42192,-0.8437 -0.63282,-0.84375 l -0.42187,0 0,0.21094 0.21094,0.21094 -0.21094,0.21094 0,1.05468 c -4e-5,0.70317 0.28121,1.54692 0.84375,2.53125 l -0.21094,0 -1.26562,-0.42187 0,0.84375 c -4e-5,1.38285 0.7734,2.64848 2.32031,3.79687 l -0.21094,0.21094 -0.21094,0 -0.21093,-0.21094 -0.21094,0 0,0.42188 c 1.73433,2.2266 3.2109,3.84378 4.42969,4.85156 l -0.42188,-1.26562 0,-1.47657 c 0.32808,-1.68746 1.17183,-2.53121 2.53125,-2.53125 l 0.21094,0.21094 0.21094,0 c 1.12495,-0.16402 1.68745,-0.44527 1.6875,-0.84375 l -1.05469,-0.21094 0,-0.21093 c 1.57026,4e-5 2.62495,-0.49215 3.16406,-1.47657 -0.51567,4e-5 -1.28911,-0.28121 -2.32031,-0.84375 l -0.84375,0 0,-0.21093 c -5e-5,-0.28121 0.21089,-0.42184 0.63281,-0.42188 l 0,-0.21094 -1.26562,0 c -0.51567,5e-5 -1.14848,0.2813 -1.89844,0.84375 l -0.63281,0 -0.63282,-0.42187 0,0.21094 1.05469,0.42187 0,0.42188 -0.84375,0 -0.42187,-0.42188 0,-0.63281 c 0.39839,-0.84371 1.10152,-1.26558 2.10937,-1.26563 l 0.84375,0.21094 c 2.39058,4e-5 3.58589,-0.8437 3.58594,-2.53125 l 0,-0.42187 -0.63281,0.42187 -0.42188,-0.42187 c 0.56245,4e-5 1.05464,-0.70308 1.47656,-2.10938 l -0.21093,-1.05469 -2.10938,0.63282 m -6.11719,-0.21094 -0.42187,0.63281 0.21094,0 0.42187,-0.63281 -0.21094,0 m -6.11718,0.42187 -0.21094,0.21094 0,0.21094 1.26562,0.42187 0,-0.63281 -1.05468,-0.21094 m -25.10157,0.63282 -4.21875,-0.21094 c 0,0.18755 1.19531,0.75005 3.58594,1.6875 1.40624,1.50004 2.10937,2.9766 2.10938,4.42969 l -0.21094,1.6875 c 0.65624,0.56254 1.64061,0.84379 2.95312,0.84375 l 0.63282,0 0,-5.69532 c -2e-5,-1.0312 2.10936,-1.73432 6.32812,-2.10937 2.3906,5e-5 4.85154,0.49223 7.38281,1.47656 l 1.26563,-1.89844 0,-0.21093 -4.85156,-0.42188 -0.21094,0 -14.76563,0.42188 m 27.84375,-0.42188 0,0.21094 0.42188,0 0,-0.21094 -0.42188,0 m -5.48437,0.21094 0,0.42187 0.42187,0 0,-0.42187 -0.42187,0 m 6.32812,0 0,0.21094 1.26563,0 0,-0.21094 -1.26563,0 m -8.01562,0.21094 c -1.5469,1.61723 -2.32034,3.09379 -2.32031,4.42968 l 0,0.21094 0.21093,0 c -2e-5,-1.45308 0.77341,-2.99995 2.32032,-4.64062 l -0.21094,0 m 2.53125,0.21093 0,0.21094 0.42187,0.42188 0,-0.21094 -0.42187,-0.42188 m 0.84375,0 c 0.2109,0.56255 0.42184,0.8438 0.63281,0.84375 l 0,-0.63281 -0.63281,-0.21094 m -28.05469,0.42188 0,0.21094 0.21094,0.21093 0.42187,0 0,-0.21093 -0.63281,-0.21094 m 23.41406,2.10937 c 2.53122,1.52348 3.79685,4.05473 3.79688,7.59375 l 0.21094,0 3.375,0.21094 0,-1.05469 c -4e-5,-4.12495 -1.89847,-7.07808 -5.69532,-8.85937 l -0.21093,0 c -0.44535,0.14067 -0.93753,0.84379 -1.47657,2.10937 m -22.57031,-1.6875 0,0.21094 1.47656,0.42188 0.21094,0 0,-0.21094 -1.47656,-0.42188 -0.21094,0 m 16.66406,0.21094 0,0.21094 0.84375,0 0,-0.21094 -0.84375,0 m 1.47657,0.21094 0,0.21094 0.42187,0 0,-0.21094 -0.42187,0 m 20.67187,-0.21094 0.84375,0 0,0.63281 c -0.35161,5e-5 -0.84379,0.2813 -1.47656,0.84375 l 0,-0.42187 -0.21094,-0.21094 L 199,155.94113 c 0.42183,5e-5 0.63277,-0.21089 0.63281,-0.63281 m -29.74219,0.84375 -0.21093,0.21094 0,0.21094 0.21093,0 0.21094,-0.21094 0,-0.21094 -0.21094,0 m 2.74219,0 c -2e-5,0.72661 -0.35158,1.28911 -1.05469,1.6875 l -1.26562,0 0,0.21094 0.42187,0.42187 1.26563,0 0,0.42188 c 0.84373,-0.28121 1.26561,-0.84371 1.26562,-1.6875 l 0,-1.05469 -0.63281,0 m 1.26563,0 0,1.26563 c -2e-5,0.84379 0.56248,1.33598 1.6875,1.47656 l 0,0.21094 -0.42188,0 0,0.21093 1.6875,0 -0.21094,-0.21093 0,-0.63282 0.21094,0 1.6875,0.21094 c 0.84373,-0.28121 1.2656,-0.70308 1.26563,-1.26562 l -0.42188,0 0,-0.42188 0.21094,-0.21094 0,-0.21093 -0.21094,-0.21094 -0.21094,0 -1.6875,1.26562 -0.42187,0 c -1.26565,-0.25776 -1.89846,-0.74995 -1.89844,-1.47656 l -1.26562,0 m 29.10937,0 0,0.21094 c -0.53911,1.26567 -1.17192,1.89848 -1.89844,1.89844 l 0,-0.42188 c 0.32808,5e-5 0.96089,-0.56245 1.89844,-1.6875 m -4.85156,0.21094 0.42187,0 0.21094,0.84375 -0.63281,0 0,-0.84375 m 3.58594,0.42187 0.21093,0 c -0.42192,0.70317 -0.9141,1.05474 -1.47656,1.05469 l 1.26563,-1.05469 m -21.30469,1.05469 0,0.63281 1.05469,-0.21093 0.42187,0.42187 0,-0.42187 c -3e-5,-0.35152 -0.28127,-0.56246 -0.84375,-0.63282 l -0.63281,0.21094 m 16.03125,0.42188 0,0.21093 c -0.56254,1.5938 -0.84379,3.07036 -0.84375,4.42969 -4e-5,0.77348 0.35152,2.10941 1.05469,4.00781 -0.98442,-0.74996 -1.47661,-2.01558 -1.47657,-3.79687 l 0,-2.32031 -0.21093,0 0,0.42187 -0.42188,0 0,-0.84375 0.21094,0.21094 0.63281,0 c 0.0703,-1.07808 0.42184,-1.85152 1.05469,-2.32031 m -32.27344,0.42187 -0.42187,0.84375 0,0.21094 0.21093,0 0.42188,-1.05469 -0.21094,0 m 9.28125,0.21094 c -0.65627,2.67191 -2.41408,4.00785 -5.27344,4.00781 l 0,0.21094 1.47657,0 c 1.35936,-0.30465 2.62498,-1.28902 3.79687,-2.95313 l 0.21094,-1.05468 0,-0.21094 -0.21094,0 m 9.07031,0 0,0.42187 c -2e-5,1.85161 1.19529,3.39848 3.58594,4.64063 l 0.21094,0 0,-0.21094 c -2.39065,-1.07808 -3.58597,-2.69527 -3.58594,-4.85156 l -0.21094,0 m -2.95312,0.42187 -0.21094,0.63282 0.42188,0 0,-0.63282 -0.21094,0 m 4.21875,0.63282 0,0.63281 c -3e-5,0.75004 0.28122,1.24223 0.84375,1.47656 l -0.42188,-1.26562 0,-0.42188 0.63282,-0.84375 -0.63282,0 -0.42187,0.42188 m -6.32813,-0.21094 0,0.21094 0.42188,0 0,-0.21094 -0.42188,0 m 14.76563,-0.21094 0.21094,0 0.42187,2.10938 c -0.28129,4e-5 -0.56254,-0.49215 -0.84375,-1.47657 l 0.21094,-0.63281 m -11.60156,0.84375 0,0.84375 c 0.42185,0.51567 0.63278,1.00785 0.63281,1.47656 l -0.21094,0.21094 -0.21094,0 -1.6875,-0.42187 -0.42187,0 -0.63281,0.63281 0,0.63281 1.05468,-0.63281 1.6875,0.63281 0.63282,-0.63281 0.84375,0.42187 0,-0.21093 -0.42188,-0.42188 c 0.28122,4e-5 0.42185,-0.2109 0.42188,-0.63281 -0.70315,-1.03121 -1.05472,-1.80465 -1.05469,-2.32031 l -0.21094,0 -0.42187,0.42187 m -16.875,0 0,0.42188 0.21093,0 0,-0.42188 -0.21093,0 m 7.17187,0.63281 -0.63281,-0.21093 0.21094,0.63281 0.84375,0 0.84375,-0.84375 -1.26563,0.42187 m 7.38281,-0.42187 0,0.21094 1.26563,0.84375 0,-0.21094 -1.05469,-0.84375 -0.21094,0 m 18.14063,0 0.84375,0.42187 0,0.21094 -0.84375,0 0,-0.63281 m -32.48438,0.42187 c 0,0.42192 0.56249,0.98442 1.6875,1.6875 l 0.21094,0 0,-0.21093 c -0.42188,4e-5 -0.84376,-0.28121 -1.26562,-0.84375 l 0.21093,-0.21094 -0.21093,0 -0.21094,0.21094 c -1e-5,-0.42184 -0.14063,-0.63278 -0.42188,-0.63282 m 27,0 0,0.42188 0.21094,0 0,-0.42188 -0.21094,0 m -33.11718,3.58594 0,0.63281 0.21093,0 c 0,-1.59371 0.98438,-2.71871 2.95313,-3.375 l 0.42187,0 c 1.6875,0.32817 2.53125,1.17192 2.53125,2.53125 l 0,0.84375 c 0,0.46879 -0.21094,0.96098 -0.63281,1.47657 l 0.21094,0 c 0.42187,-0.51559 0.6328,-1.00778 0.63281,-1.47657 l 0,-1.05468 c -0.46876,-1.82809 -1.38282,-2.74215 -2.74219,-2.74219 -1.45313,4e-5 -2.64844,1.05473 -3.58593,3.16406 m 16.24218,-1.6875 0,0.42188 c -1e-5,0.65628 0.56248,1.57035 1.6875,2.74218 l -0.63281,0 0,0.42188 c 0.60936,0.98441 1.52342,1.47659 2.74219,1.47656 l 0.21094,0 c 1.17185,-0.91403 2.71872,-1.54684 4.64062,-1.89844 l 0.21094,-0.21093 1.26562,0 0.21094,0.21093 0.21094,0 0.21094,-0.21093 0.21093,0.21093 0,0.21094 -1.26562,0.84375 0,-0.21094 0.21094,-0.21093 0,-0.63282 -0.21094,0 c -3e-5,0.56254 -0.14065,0.84379 -0.42188,0.84375 l -1.6875,0 c -1.40627,0.1641 -2.1094,0.44535 -2.10937,0.84375 l 1.26562,-0.42187 0,0.42187 c -0.53908,4e-5 -1.1719,0.49222 -1.89843,1.47657 l -0.42188,0 0.84375,-1.47657 -0.21094,0 c -0.84377,0.84379 -1.26564,1.54691 -1.26562,2.10938 l 0.84375,0 0.21094,-0.21094 0.21093,0 0,0.21094 -0.21093,1.26562 0.84375,0.84375 0.21093,0 c 1.2656,3e-5 2.10935,-0.98434 2.53125,-2.95312 l -1.47656,1.6875 c -0.4219,-0.0937 -0.70315,-0.37497 -0.84375,-0.84375 1.17185,-1.96872 3.63279,-2.95309 7.38281,-2.95313 4.59372,4e-5 8.03903,1.4766 10.33594,4.42969 l 0.21094,0 0.42187,-0.42187 0,-0.21094 c -2.9766,-3.11715 -5.64847,-4.80465 -8.01562,-5.0625 -4e-5,-0.2109 -0.77347,-0.35153 -2.32031,-0.42188 l -10.125,0.42188 c -2.39065,-0.28121 -3.58596,-1.12496 -3.58594,-2.53125 l 0,-0.63281 0.63281,-0.63282 0.42188,0 0.63281,0.63282 -0.21094,0.21093 0,1.26563 0.63281,0 -0.21093,-0.84375 0.21093,-0.84375 0,-0.21094 -0.63281,-0.63281 -0.42187,0 c -0.9844,4e-5 -1.47658,0.49223 -1.47657,1.47656 m 21.9375,-1.6875 0.63282,0.63281 -0.63282,0.42188 0,-1.05469 m 2.74219,0 -1.47656,1.47656 c -0.56254,0.70317 -0.84379,1.40629 -0.84375,2.10938 l -0.42188,0 0,-0.42188 c -4e-5,-1.24215 0.91402,-2.29683 2.74219,-3.16406 m -7.59375,0.42188 0,1.47656 0.21094,0 0,-1.47656 -0.21094,0 m 2.95313,-0.21094 0.21093,0 0.63282,0.63281 -0.84375,0 0.21093,-0.21094 0,-0.21093 -0.21093,-0.21094 m -24.67969,0.42187 0,0.42188 0.21094,0 0,-0.42188 -0.21094,0 m 3.16406,0.63282 0,0.42187 0.21094,0 0,-0.42187 -0.21094,0 m -12.65625,2.32031 c 0.39843,0.98441 0.96093,1.68753 1.6875,2.10937 l 0,-0.21093 c -0.5625,-0.23434 -0.84375,-0.72653 -0.84375,-1.47657 l 0,-0.21093 c 0,-0.98434 0.35156,-1.47653 1.05469,-1.47657 l 0.63281,0.21094 0,-0.21094 c -1e-5,-0.32808 -0.49219,-0.53902 -1.47656,-0.63281 -0.70313,0.23441 -1.05469,0.86723 -1.05469,1.89844 m 6.75,-1.89844 0,0.21094 0.42188,0 0,-0.21094 -0.42188,0 m -1.47656,0.42188 0.21094,3.16406 0,16.24219 c 1.03124,2e-5 2.15623,0.56251 3.375,1.6875 l 0,-3.375 0.21093,-1.05469 -0.21093,-1.26563 0,-3.375 c -2e-5,-0.28122 0.21092,-0.42184 0.63281,-0.42187 l 9.70312,-0.21094 1.6875,2.95313 0.21094,0 c 0.84372,-0.98435 1.40622,-1.47654 1.6875,-1.47657 l 0.42188,1.89844 c 0.74997,-0.7031 1.38278,-1.05466 1.89843,-1.05469 l 0,-0.21093 c -1.26565,-1.57029 -1.89846,-2.62498 -1.89843,-3.16407 l 4.64062,-3.16406 1.89844,-2.53125 0,-0.42187 -0.21094,0.21093 -1.47656,-0.21093 -1.47656,0 c -1.94535,4.07815 -5.53128,6.11721 -10.75782,6.11718 l -4.64062,-0.21093 -2.10938,0 -0.21093,-1.05469 0,-8.64844 -1.26563,0 -2.32031,-0.42187 m 25.94531,0 -0.21094,1.47656 0.21094,0.21094 0.21094,0 0.21094,-1.6875 -0.42188,0 m -8.64844,0.21093 0,0.21094 0.63282,0.21094 0,-0.21094 -0.21094,-0.21094 -0.42188,0 m 16.03125,3.375 0,1.26563 0.21094,0 c -4e-5,-1.64059 0.42183,-2.62497 1.26563,-2.95313 l 0.84375,0.21094 -0.21094,0.21094 0,0.42187 0.42187,1.6875 -0.21093,0.21094 0,0.21094 0.42187,0 c 0.28121,3e-5 0.42183,-0.21091 0.42188,-0.63281 l -0.21094,-1.89844 c 1.12495,-0.60934 1.68745,-1.03121 1.6875,-1.26563 l 0,-0.63281 c -0.37505,0.56254 -1.07817,0.84379 -2.10938,0.84375 -4e-5,0.28129 -0.56254,0.49223 -1.6875,0.63281 l -0.84375,1.6875 M 158.5,165.01145 c 1.59374,2.95315 3.6328,4.42972 6.11719,4.42968 l 0,-0.84375 c -1.40626,4e-5 -2.88282,-0.84371 -4.42969,-2.53125 l -1.05469,-2.10937 c -0.28125,4e-5 -0.42188,0.3516 -0.42187,1.05469 l -0.21094,0 m 13.07812,-0.63282 -0.21093,-0.21093 -0.42188,0 c -0.42189,3e-5 -0.63283,0.42191 -0.63281,1.26562 l -0.21094,0 c -1e-5,1.17191 0.56249,2.01566 1.6875,2.53125 l 0.21094,0 0,-0.21094 c -0.6797,4e-5 -1.10158,-0.56246 -1.26563,-1.6875 0.32811,-0.84371 0.8203,-1.26558 1.47657,-1.26562 l 1.26562,0.84375 0,-0.42188 c -2e-5,-0.72652 -0.21095,-1.1484 -0.63281,-1.26562 l -0.84375,0 -0.42188,0.42187 m 12.44532,-0.21093 0,0.21093 0.42187,0 0,-0.21093 -0.42187,0 m -27.42188,0.84375 -0.21094,1.05468 0,0.21094 0.63282,-0.63281 0,-0.63281 -0.42188,0 m 1.05469,0.42187 0,1.47656 0.21094,0 0,-1.47656 -0.21094,0 m 34.38281,0 0,0.21094 0.42188,0 0,-0.21094 -0.42188,0 m 10.96875,0.84375 0.63281,1.26563 0.21094,0 0,-0.21094 c -0.18755,-0.70309 -0.39848,-1.05465 -0.63281,-1.05469 l -0.21094,0 m -45.14062,1.05469 0,0.42187 0.21093,0 0,-0.42187 -0.21093,0 m 16.66406,0 -0.21094,0.21094 0,0.21093 0.63281,-0.21093 0,-0.21094 -0.42187,0 m -1.05469,0.42187 0,0.21094 0.63281,0 0,-0.21094 -0.63281,0 m -2.53125,1.47657 -0.63281,0 0,0.63281 0.21094,0 c 2.24998,-0.42184 3.93748,-1.05466 5.0625,-1.89844 l 0,-0.21094 c -2.25002,0.98441 -3.7969,1.4766 -4.64063,1.47657 m 12.86719,4.21875 0,0.84375 2.53125,3.375 0.21094,0 c -1.68753,-2.22654 -2.53128,-3.56248 -2.53125,-4.00782 l 0.21093,0 c 3.35153,-1.54684 5.46091,-3.51559 6.32813,-5.90625 -1.57035,2.43754 -3.32816,4.05472 -5.27344,4.85157 l -1.47656,0.84375 m 18.77344,-5.69532 0,0.42188 0.42187,0 0,-0.42188 -0.42187,0 m -44.50782,0.21094 0,0.42188 0.21094,0 0,-0.42188 -0.21094,0 m 39.65625,0.21094 c 0.44527,1.26566 0.79684,1.89847 1.05469,1.89844 l 0,-0.21094 c -0.49223,-1.12497 -0.84379,-1.68747 -1.05469,-1.6875 m -21.9375,0.21094 c -2e-5,0.28128 -0.21095,0.4219 -0.63281,0.42187 l -0.21094,0.21094 0,0.21094 1.47657,-0.63282 0,-0.21093 -0.63282,0 m 27.63282,0 0,0.63281 0.42187,0 0,-0.21094 -0.42187,-0.42187 m -20.46094,0.21093 0,0.21094 1.05469,0 0,-0.21094 -1.05469,0 m -22.78125,0.21094 0,0.21094 0.42187,0 0,-0.21094 -0.42187,0 m 13.07812,3.79688 0,0.21093 1.05469,0 c 1.61717,-1.82809 2.60154,-2.74215 2.95313,-2.74218 l 0,-1.26563 c -2.01565,1.19535 -3.35158,2.46097 -4.00782,3.79688 m -16.03125,-1.05469 0.21094,0 c 0,-0.60935 0.77344,-1.45309 2.32031,-2.53125 -1.19531,0.42191 -2.03906,1.12503 -2.53125,2.10937 l 0,0.42188 M 199,169.01926 l 0,0.21094 0.21094,0.21093 0.21093,0 0,-0.21093 -0.21093,-0.21094 -0.21094,0 m -24.46875,0.21094 -4.00781,3.375 0,0.21093 4.21875,-3.58593 -0.21094,0 m 16.24219,0 -0.42188,0.84375 0,0.84375 c -3e-5,0.93753 0.70309,1.85159 2.10938,2.74218 l 0,-0.21093 c -0.84379,-0.65622 -1.26566,-1.35935 -1.26563,-2.10938 l 0,-0.21094 0.84375,-1.05468 1.05469,0.21093 0,-0.21093 -0.84375,-0.63282 -1.26563,0.42188 0,-0.63281 -0.21093,0 m -28.47657,0.21093 -0.21093,0.21094 0,0.21094 0.21093,0 0.21094,-0.21094 0,-0.21094 -0.21094,0 m 31.85157,0.42188 0,0.63281 0.84375,-0.63281 1.05468,0.21094 -0.63281,-0.63282 -0.84375,0 -0.42187,0.42188 m 6.32812,1.05469 -0.21094,0 -1.05468,-0.21094 0,1.05469 0.21093,-0.21094 0.21094,0 0.42188,1.05469 -0.21094,0.21093 0,0.21094 1.89844,1.89844 -0.63282,0.84375 -0.63281,0 c -0.49223,-1.54685 -0.84379,-2.32029 -1.05469,-2.32031 l 0,0.63281 -0.42187,0 c -4e-5,-0.46872 -0.35161,-1.03122 -1.05469,-1.6875 l 0.42188,0 1.05468,0.84375 0,-0.21094 c -0.82035,-0.84372 -1.94535,-1.26559 -3.375,-1.26562 l -0.21093,0.21093 0,0.21094 0.21093,0.63281 -0.21093,0 c -0.84379,3e-5 -1.26567,0.49222 -1.26563,1.47657 0.2109,0.56252 0.42184,0.84377 0.63281,0.84375 l 0.21094,0 c 0.0468,-0.7031 0.25777,-1.05466 0.63281,-1.05469 l 0.63282,0 c 0.77339,3e-5 1.75777,0.91409 2.95312,2.74219 l 1.05469,0.21093 0.42187,0 0,-0.21093 -0.21093,-0.21094 0,-0.21094 1.26562,-0.63281 0,-0.84375 -1.47656,-3.16406 0,-0.21094 c -5e-5,-0.74997 0.2812,-1.24216 0.84375,-1.47656 l 0.84375,0 0.84375,0.84375 0,0.63281 -0.63281,2.10937 c 0.18745,0.84378 0.60932,1.26566 1.26562,1.26563 l 0.63281,-0.21094 0,-0.42187 -1.05468,-0.84375 0.21093,-2.10938 c -4e-5,-0.89059 -0.56254,-1.38278 -1.6875,-1.47656 l -0.84375,0 c -0.37504,3e-5 -0.58598,0.35159 -0.63281,1.05469 m -41.13281,-0.63282 0,0.21094 0.63281,0.42188 0,-0.21094 -0.63281,-0.42188 m 17.71875,0.21094 -0.21094,0.21094 0,0.21094 0.21094,0 0.21094,-0.21094 0,-0.21094 -0.21094,0 m -16.875,0.42188 0,0.21093 0.63281,0.42188 0,-0.21094 -0.63281,-0.42187 m 1.05469,0.84375 0,0.21093 1.26562,1.47657 0.21094,0 0,-0.21094 c -0.14063,-0.42185 -0.63282,-0.91403 -1.47656,-1.47656 m 1.47656,0.21093 0,0.21094 c 0.70312,3e-5 1.05468,0.35159 1.05469,1.05469 l 0.21093,0 c -0.65625,0.9844 -1.42969,1.47659 -2.32031,1.47656 l 0,0.21094 0.42188,0 c 1.40624,-0.42185 2.10936,-1.05466 2.10937,-1.89844 l 0,-0.42187 c -1e-5,-0.3281 -0.35157,-0.53904 -1.05469,-0.63282 l -0.42187,0 m 12.86719,0 -0.21094,0.21094 0,0.21094 0.21094,0 0.21093,-0.21094 0,-0.21094 -0.21093,0 m -18.5625,0.21094 -0.42188,0.63281 c 0.375,-0.28122 1.00781,-0.42184 1.89844,-0.42187 l 0,-0.21094 -1.47656,0 m 1.6875,0.21094 0,0.21094 0.84375,0.42187 0,-0.42187 -0.63282,-0.21094 -0.21093,0 m 38.60156,-0.21094 0.63281,0 0,0.21094 -0.63281,0 0,-0.21094 m -36.70313,0.63281 -1.05468,1.47657 0.21093,0 1.26563,-1.47657 -0.42188,0 m 25.3125,0.63282 0,0.21093 1.26563,-0.21093 c 5.62496,2e-5 8.43746,3.2344 8.4375,9.70312 -0.30473,2e-5 -0.58598,0.63283 -0.84375,1.89844 l -0.63281,1.05469 0.63281,0.42187 c 0.98433,-1.89842 1.47652,-3.72654 1.47656,-5.48437 -4e-5,-3.60935 -1.82816,-6.1406 -5.48437,-7.59375 -0.5391,-0.28123 -1.31254,-0.42185 -2.32032,-0.42188 l -1.05468,0 -1.47657,0.42188 m -28.89843,0.21093 0,0.84375 c 0.32812,0.84378 0.60937,1.26565 0.84375,1.26563 l 0,-0.21094 c -0.42188,-0.67966 -0.63282,-1.31247 -0.63282,-1.89844 l -0.21093,0 m 29.53125,1.47657 0,0.63281 0.84375,0.84375 0.42187,0 -0.42187,-1.26563 c 0.23434,-0.70309 0.65621,-1.05466 1.26562,-1.05468 l 0,-0.42188 c -1.40628,0.28128 -2.1094,0.70315 -2.10937,1.26563 m -25.94532,-0.84375 0.21094,1.05468 0.21094,0 0,-1.05468 -0.42188,0 m -2.32031,0.63281 0,0.21094 0.42188,0 0,-0.21094 -0.42188,0 m 0.63281,0.21094 0,0.21093 1.05469,0 0,-0.21093 -1.05469,0 m 4.64063,0 0,0.21093 0.21094,1.05469 0.21093,0 0,-0.63281 -0.21093,-0.63281 -0.21094,0 m 12.65625,0 0,0.21093 1.6875,0 0,-0.21093 -1.6875,0 m -6.75,0.21093 0,0.84375 0.21094,0 0,-0.84375 -0.21094,0 M 158.5,175.76926 c -0.98438,2.1094 -1.47657,3.72658 -1.47656,4.85156 l 0,0.63281 0.21093,0 c 0,-1.47654 0.49219,-3.23435 1.47657,-5.27343 l 0,-0.21094 -0.21094,0 m 13.07812,0.42187 c -0.42189,1.94534 -0.63282,3.63284 -0.63281,5.0625 l 1.47656,7.38282 c -0.21095,1.40626 -0.70314,2.10938 -1.47656,2.10937 l 0,0.42188 0.42188,0 c 0.8906,1e-5 1.4531,-0.77343 1.6875,-2.32032 l 0.63281,0.21094 0,-0.21094 0.21094,-0.84375 0,-0.42187 -0.21094,0.21094 -0.42188,0 -0.21093,-1.89844 0.21093,-0.63281 c -0.84376,-0.46874 -1.26564,-1.59374 -1.26562,-3.375 l -0.42188,-0.42188 0,-0.21094 0.42188,0 0,-0.21093 c -0.42189,2e-5 -0.63283,-0.14061 -0.63281,-0.42188 l 0.42187,0 0,-0.21094 -0.42187,0 0,-0.42187 0.42187,-0.42188 0.42188,0 0,0.42188 -0.21094,0.21094 0,0.21093 0.42187,0 0,0.21094 -0.21093,0.21094 0,0.21094 0.42187,0 0,0.63281 -0.21094,0.21094 0,0.21093 c 0.46874,2e-5 0.74999,0.91408 0.84375,2.74219 0.35155,2e-5 0.70311,0.70314 1.05469,2.10938 l 0.42188,0 0,-0.42188 c 0.7031,2e-5 1.05466,0.21095 1.05468,0.63281 l 1.26563,-0.21093 -0.42188,-1.26563 c 1.12498,2e-5 1.68748,-0.56248 1.6875,-1.6875 l 0,-0.42187 c -2e-5,-0.74998 -0.28127,-1.24217 -0.84375,-1.47657 l 0,0.21094 0.42188,0.63281 c -0.14065,1.12502 -0.70315,1.68752 -1.6875,1.6875 -2.25002,-0.8906 -3.37502,-2.50779 -3.375,-4.85156 l 0,-2.10937 0.21094,-1.47657 -1.47657,0 m 2.10938,0 c -2e-5,1.85159 0.56248,3.11721 1.6875,3.79688 l 0.63281,0 0,-0.63281 1.05469,0 c 0.84373,2e-5 1.2656,-0.42186 1.26562,-1.26563 l 0,-0.84375 -0.42187,0 c -2e-5,0.84377 -0.4219,1.26565 -1.26563,1.26563 l -0.21093,0 c -1.12502,2e-5 -1.82815,-0.77342 -2.10938,-2.32032 l -0.63281,0 m 22.14844,0.63282 0,0.21093 1.47656,0 c 0.56246,-0.21091 0.84371,-0.42185 0.84375,-0.63281 l 0,-0.21094 -0.21094,0 c -0.32817,0.4219 -1.03129,0.63284 -2.10937,0.63282 m -26.36719,-0.42188 0,9.07031 0.21094,0 0,-9.07031 -0.21094,0 m -10.33594,0.21094 0,0.21094 c 0,0.35158 0.84375,0.63283 2.53125,0.84375 1.96874,-0.18748 2.95312,-0.46873 2.95313,-0.84375 l -0.21094,0 -1.26563,0.42187 -2.10937,0 c -0.72657,3e-5 -1.35938,-0.21091 -1.89844,-0.63281 m 23.83594,5.48437 0,1.47657 c 0.49216,0.98439 1.19528,1.47658 2.10937,1.47656 l 0.84375,0 c 0.79685,2e-5 2.13278,-1.12498 4.00782,-3.375 l 1.6875,-0.84375 c 0.67965,2e-5 1.38277,0.42189 2.10937,1.26562 l 0,-1.05468 c -0.1641,-0.46873 -0.79691,-0.89061 -1.89844,-1.26563 -3e-5,-0.56248 -0.14066,-0.84373 -0.42187,-0.84375 l -1.47656,0 c -1.12504,2e-5 -2.17972,0.9844 -3.16407,2.95313 -0.37503,0.56252 -0.86721,0.84377 -1.47656,0.84375 l -0.63281,-0.63282 2.10937,-1.26562 c 0.49216,-1.10154 1.61716,-2.0156 3.375,-2.74219 l 0.63282,-1.47656 -0.42188,0 c -0.21097,0.28127 -1.68753,0.91409 -4.42969,1.89844 -1.96877,1.64064 -2.95315,2.83595 -2.95312,3.58593 m 19.40625,-5.48437 c -5e-5,0.37502 -0.35161,0.72659 -1.05469,1.05469 l -1.47656,0 0,0.42187 1.26562,0 c 1.12496,-0.11716 1.68746,-0.60935 1.6875,-1.47656 l -0.42187,0 m -10.96875,1.05469 0.84375,-0.63282 0,-0.21093 -0.84375,0.84375 m -10.125,1.26562 0,0.42188 0.21094,0.21093 0,0.21094 -0.21094,0.21094 -0.21094,0 -0.63281,-0.21094 0,1.05469 c -3e-5,0.75002 0.28122,1.24221 0.84375,1.47656 l 0.21094,0 c -3e-5,-0.84373 0.49216,-1.47654 1.47656,-1.89844 l 0.21094,-0.84375 -0.84375,-2.32031 c -0.70315,0.35159 -1.05472,0.91409 -1.05469,1.6875 m -1.6875,-1.47656 -0.63281,2.10937 0,1.26563 c 0.49216,0.98439 0.84372,1.47658 1.05468,1.47656 l 0.21094,0 0,-0.21094 -0.84375,-2.10937 0,-0.63281 0.63281,-1.89844 -0.42187,0 m 13.28906,0 0,0.21094 0.84375,0 0,-0.21094 -0.84375,0 m 4.00781,0 0,0.21094 c 1.96871,0.32814 2.95308,1.24221 2.95313,2.74218 l 0,0.42188 c -0.32817,0.98439 -1.03129,1.47658 -2.10938,1.47656 l 0,0.21094 c -4e-5,0.28127 0.2109,0.42189 0.63282,0.42187 1.26558,-0.16404 1.89839,-0.79685 1.89843,-1.89843 l 0,-0.63282 c -0.56254,-1.96872 -1.54691,-2.9531 -2.95312,-2.95312 l -0.42188,0 m -13.07812,1.47656 0.63281,0.21094 c -3e-5,-0.28123 0.21091,-0.42185 0.63281,-0.42188 l 0,-1.05468 c -0.9844,2e-5 -1.47659,0.42189 -1.47656,1.26562 l 0.21094,0 m -19.61719,-0.84375 0,1.26563 c -1e-5,3.25783 -1.19532,5.50783 -3.58594,6.75 l -1.05468,0 0,0.21093 1.26562,0 c 2.10937,-0.98435 3.16406,-2.32029 3.16406,-4.00781 0.28125,2e-5 0.49218,-1.40623 0.63282,-4.21875 l -0.42188,0 m 28.47656,0.21094 0,0.21094 0.84375,0.21093 0,-0.21093 -0.21093,-0.21094 -0.63282,0 m 4.85157,0 0.21093,0.21094 0,0.21093 -0.21093,1.05469 0.42187,0 0.21094,-1.05469 -0.63281,-0.42187 m 3.375,0.63281 0.63281,3.16406 -0.21094,0.21094 0,1.26563 -0.84375,5.0625 0.21094,0 c 1.26558,-1.87499 1.89839,-4.54686 1.89844,-8.01563 l -0.21094,-1.89844 0,-0.21093 -1.47656,0.42187 m -42.1875,1.05469 0.21093,0.21094 0.21094,0 0.63281,-0.63282 0.84375,0 0.84375,0.84375 0,0.21094 c 0,0.77346 -0.91406,2.03908 -2.74218,3.79688 l 0.21093,0 2.95313,-2.53125 0.63281,-1.05469 -0.63281,-1.6875 -0.63281,0.42187 -0.84375,-0.63281 -1.05469,0 c -0.32813,2e-5 -0.53907,0.35159 -0.63281,1.05469 m 30.79687,-0.63281 -1.6875,1.89843 0,-0.42187 c 0.53903,-0.98435 1.10153,-1.47654 1.6875,-1.47656 m 0,0.63281 0.21094,0 0,0.21094 -1.26563,1.26562 0,-0.42187 1.05469,-1.05469 m 13.5,2.10937 c 0.2812,2e-5 0.42183,-0.21091 0.42188,-0.63281 l 0.21093,-0.21094 1.26563,0 0,-0.42187 -0.42188,-0.42188 -0.21093,0 c -0.8438,3e-5 -1.26568,0.56252 -1.26563,1.6875 m -28.6875,-0.42187 0,0.21094 0.63281,0.84375 0.84375,0 0.84375,-0.84375 -1.6875,0.42187 -0.63281,-0.63281 m -17.08594,0.42187 0,0.84375 0.42188,1.47657 0.21094,0 0,-0.21094 -0.42188,-2.10938 -0.21094,0 m 27,0 1.47657,1.47657 -0.21094,0 c -0.84378,1e-5 -1.26565,-0.49217 -1.26563,-1.47657 m 5.90625,0.21094 0,0.21094 2.95313,3.375 0,-0.21094 -2.95313,-3.375 m -0.63281,0.21094 -0.42187,0.84375 1.26562,0.21094 c -3e-5,1.54689 -0.56253,2.32032 -1.6875,2.32031 l 0,0.42187 c 0.28122,2e-5 0.42184,0.21096 0.42188,0.63282 l 1.26562,0.42187 c -0.0704,0.56251 -0.28128,0.84376 -0.63281,0.84375 l 0,0.21094 c 3.32809,4.21876 5.57808,6.32813 6.75,6.32812 0.53902,0.42189 1.87496,0.63282 4.00781,0.63282 l 0.21094,0 c 0.77339,0 1.33589,-0.28125 1.6875,-0.84375 -2.7188,0 -6.93754,-4.00781 -12.65625,-12.02344 l -0.21094,0 m -9.28125,0.63281 0.84375,0 c -2e-5,0.28127 -0.21096,0.42189 -0.63281,0.42188 -0.49221,1.12501 -0.84378,1.68751 -1.05469,1.6875 l 0,-0.21094 0.63281,-1.89844 -0.21093,0 c -0.4219,0.51564 -0.77346,1.42971 -1.05469,2.74219 l 0.63281,0 -0.21094,1.47656 0,0.84375 0.84375,0 1.6875,-0.42187 0,0.21093 -0.21093,0.21094 0,0.21094 0.21093,0 c 1.68748,-0.14061 2.53123,-0.91405 2.53125,-2.32031 l 0,-0.42188 -0.21093,0.21094 -0.21094,0 -0.63281,-0.63281 0,-0.21094 -1.26563,0.42187 0,-0.21093 c -3e-5,-0.28124 0.28122,-0.42186 0.84375,-0.42188 l 0,-0.42187 -0.42187,0 c -3e-5,-0.42186 -0.14066,-0.6328 -0.42188,-0.63282 l 0.21094,-0.21093 0,-0.21094 -0.63281,0 0,-0.42188 0.42187,0 0,-0.21093 -1.26562,0 -0.42188,0.42187 m -23.20312,6.11719 0,0.42187 0.21093,2.10938 0.21094,0 0.21094,-0.21094 0.21094,0 -0.21094,-1.05469 0,-1.05468 c 0,-2.92968 1.54687,-4.89842 4.64062,-5.90625 l 0.42188,-0.42188 0,-0.21094 c -2.78907,2e-5 -4.6875,2.1094 -5.69531,6.32813 m 7.59375,-6.11719 -0.21094,0.21094 0,0.21094 c 1.78124,1e-5 2.90624,1.19533 3.375,3.58593 l 0,0.63282 c -0.42189,1.68751 -1.26564,2.53126 -2.53125,2.53125 l -0.42188,0 c -0.58594,1e-5 -1.28907,-0.35155 -2.10937,-1.05469 l 0,0.21094 c -1e-5,0.65626 0.77343,1.07813 2.32031,1.26562 2.24999,-0.30468 3.37499,-1.42967 3.375,-3.375 l 0,-0.42187 c -1e-5,-1.71092 -1.12501,-2.97655 -3.375,-3.79688 l -0.42187,0 m 31.42968,1.6875 0.21094,0 c -4e-5,-0.23436 0.42184,-0.51561 1.26563,-0.84375 0.70308,0.0938 1.05464,0.44533 1.05468,1.05469 l 0.21094,0 0,-0.84375 c -0.14067,-0.42186 -0.56254,-0.6328 -1.26562,-0.63281 -0.6563,1e-5 -1.14848,0.42189 -1.47657,1.26562 m -7.80468,-0.84375 0,0.21094 0.63281,0 0,0.21094 c -3e-5,0.28126 -0.42191,0.42189 -1.26563,0.42187 l 0.21094,0.21094 0,0.21094 -0.63281,0.42187 -0.42188,0 -0.21093,-0.21094 -0.21094,0 0,0.21094 0.42187,0.42188 0,0.42187 -0.21093,0 -0.84375,-0.63281 -0.21094,0 0,0.42187 -0.84375,-0.63281 0,0.21094 c -3e-5,1.45314 0.49216,2.43751 1.47656,2.95312 l 1.26563,0 -0.21094,-0.21093 0,-0.42188 1.05469,0.21094 c 0.84371,-0.14061 1.26559,-0.35155 1.26562,-0.63281 l -1.89844,-2.32032 0.21094,-0.21093 0.21094,0.21093 0.84375,0 c 0.56246,-0.23435 0.84371,-0.72654 0.84375,-1.47656 l 0,-0.21094 -1.47656,0.21094 m 4.85156,-0.21094 0,0.42188 c 0.56246,2e-5 0.84371,0.14064 0.84375,0.42187 l 0,0.21094 0.42187,0 0,-0.63281 -0.42187,-0.42188 -0.84375,0 m 6.75,0.21094 0,0.21094 c 0.42183,0.44533 0.63277,1.07814 0.63281,1.89844 l 0.21094,0 0,-1.89844 -0.84375,-0.21094 m -35.85938,0.42188 0,0.42187 0.21094,0.63281 -0.42187,0.42188 0,0.21094 0.21093,0 0.63282,-0.21094 0,-0.84375 -0.63282,-0.63281 m 1.47657,0 0,1.89843 c 0.70311,2e-5 1.05467,0.14064 1.05468,0.42188 l 0,0.21094 c -1e-5,0.28126 -0.28126,0.42189 -0.84375,0.42187 l 0,0.63281 1.05469,0 0.21094,-1.05468 0,-1.26563 -0.42188,0 0,-0.21094 0.21094,-0.21093 0,-0.21094 -0.21094,0 -0.21093,0.21094 c -1e-5,-0.56249 -0.28126,-0.84374 -0.84375,-0.84375 m 2.53125,0 0,0.21093 1.47656,2.32032 0.21094,0.21093 1.05468,0 0.42188,-0.42187 0,-0.84375 -0.21094,0 c -1e-5,0.42189 -0.14064,0.63283 -0.42187,0.63281 -0.65627,2e-5 -1.50002,-0.70311 -2.53125,-2.10937 m 34.80468,0.84375 -0.21093,0.63281 0.63281,0 0,-0.63281 -0.42188,0 m 1.05469,0.63281 0,0.63281 0.21094,0 0.42187,-0.42187 -0.21093,-0.21094 -0.42188,0 m -10.75781,0.21094 0,0.21093 c 2.22652,2.69533 3.70308,4.31251 4.42969,4.85157 l 0,-0.21094 -4.42969,-4.85156 m 2.95312,0.21093 0,0.42188 c 0.9609,1e-5 1.5234,0.63283 1.6875,1.89844 l -0.21093,1.26562 2.74218,2.74219 c -4e-5,-0.70312 0.7734,-1.26562 2.32032,-1.6875 0.77339,1e-5 1.33589,0.42188 1.6875,1.26562 l -0.42188,0.84375 0.21094,0 c 0.56245,-0.14061 0.8437,-0.56249 0.84375,-1.26562 -5e-5,-0.51562 -0.56255,-1.14843 -1.6875,-1.89844 l 0.63281,-0.63281 -2.10937,-0.42188 c -5e-5,0.28127 -0.2813,0.42189 -0.84375,0.42188 l 0,0.21094 0.42187,0 c -1.12504,0.89063 -1.68754,1.52344 -1.6875,1.89843 l -0.21094,0 -0.42187,-0.42187 0,-0.21094 0.63281,-1.05469 0,-0.21093 -0.21094,0 0,0.42187 -0.21093,0 0,-0.63281 0.63281,-1.26563 -0.21094,-0.21093 -0.42187,0 0,0.42187 -0.63282,0 0,-0.84375 c -4e-5,-0.84373 -0.42191,-1.26561 -1.26562,-1.26562 l -1.26563,0.21093 m -31.64062,0.84375 0,0.42188 c -1e-5,0.84376 0.42186,1.26564 1.26562,1.26562 0.74999,2e-5 1.24218,-0.28123 1.47657,-0.84375 l -0.21094,0 -0.84375,0.63282 c -0.63282,-0.28124 -0.98439,-0.56249 -1.05469,-0.84375 l 0,-0.21094 0.63281,-0.84375 -0.21093,-0.21094 -0.21094,0 -0.84375,0.63281 m -2.53125,-0.42187 0,0.42187 0.21094,0 0.42187,-0.42187 -0.63281,0 m 40.07812,1.05469 0.21094,0 c -5e-5,-0.37499 0.35152,-0.58593 1.05469,-0.63282 l -0.42188,-0.42187 c -0.28129,0.0703 -0.56254,0.42189 -0.84375,1.05469 m -38.60156,-0.63282 0,0.42188 0.21094,0 0,-0.42188 -0.21094,0 m 40.28906,0 0,0.63282 0.63282,0 0,-0.42188 -0.63282,-0.21094 m -43.03125,0.21094 0,0.63281 0.42188,0 0,-0.21093 -0.42188,-0.42188 m 8.85938,0.21094 0,2.10937 0.21094,1.05469 0.21093,0 0,-0.21094 -0.21093,-2.95312 -0.21094,0 m 5.0625,0.21094 0,0.63281 c 2.67185,2.67188 5.62497,4.00782 8.85937,4.00781 l 1.47657,0 c 1.49997,1e-5 3.32809,-0.56249 5.48437,-1.6875 l 0,-0.21094 -0.21094,-0.21093 0,-0.21094 c -1.68753,1.12501 -4.07815,1.68751 -7.17187,1.6875 -2.57815,1e-5 -5.39065,-1.33593 -8.4375,-4.00781 m -12.65625,0.63281 0,0.21094 1.05469,-0.21094 0,-0.42188 -0.63282,0 -0.42187,0.42188 m -3.79688,1.26562 0.21094,0 0.63281,-0.63281 0.21094,0 1.05469,0.84375 0,-0.84375 -0.42188,-0.42187 -0.84375,0 c -0.28125,0.0703 -0.5625,0.42188 -0.84375,1.05468 m 5.69532,-1.05468 0,0.63281 0.42187,0 0,-0.21094 -0.42187,-0.42187 m 19.61718,0 0.42188,0.63281 0,0.42187 c -3e-5,0.32814 -0.56253,0.6797 -1.6875,1.05469 l -2.53125,-0.42187 -0.21094,0 0,0.21093 2.74219,0.63282 0.21094,0 c 1.54684,-0.18749 2.32028,-0.67968 2.32031,-1.47657 -0.0938,-0.70311 -0.51565,-1.05467 -1.26563,-1.05468 m -14.76562,0.42187 c -0.96095,1.68751 -2.08595,2.53126 -3.375,2.53125 -1e-5,1.59376 -1.47657,2.50782 -4.42969,2.74219 l 0,0.21094 0.42188,0.42187 0.21093,-0.21094 2.53125,0 5.0625,-0.21093 5.69532,0.42187 1.05468,-0.21094 0,-0.42187 c -3.39845,1e-5 -5.64845,-1.19531 -6.75,-3.58594 l -0.21093,-1.6875 -0.21094,0 m -7.59375,0.21094 0.42187,0.42187 0.21094,0 -0.42187,-0.42187 -0.21094,0 m 4.42969,0.21094 0,0.42187 0.84375,-0.63281 -0.21094,0 -0.63281,0.21094 m 9.07031,0.21093 0,0.21094 1.6875,1.89844 0.21094,0 -1.89844,-2.10938 m -0.84375,0.42188 0,1.05469 0.21094,0.21093 0,0.21094 -0.63282,1.6875 0.42188,0 0.42187,-2.10937 -0.21093,-1.05469 -0.21094,0 m -12.65625,2.32031 1.05469,0.63281 0.21093,0 0,-0.21093 c -0.42188,1e-5 -0.63281,-0.14062 -0.63281,-0.42188 l 0,-0.63281 c 0,-0.32812 0.63281,-0.53905 1.89844,-0.63281 l 0,-0.21094 -0.84375,-0.21094 c -1.12501,0.21095 -1.68751,0.77345 -1.6875,1.6875 m 2.95312,-1.26562 0,0.21093 0.84375,0 0,-0.21093 -0.84375,0 m 33.75,0.21093 0,0.21094 0.84375,0.63281 0,-0.21093 -0.84375,-0.63282 m -24.89062,0.63282 c -2e-5,0.42188 -0.35158,0.63282 -1.05469,0.63281 l -0.21094,-0.21094 0,0.21094 0.21094,0.21094 0.84375,0 c 0.28123,1e-5 0.42186,-0.21093 0.42188,-0.63282 l 0,-0.21093 -0.21094,0 m -16.45313,2.53125 0,0.63281 0.42188,0 -0.21094,-0.21094 0,-0.21094 c 0.23437,-1.40624 0.9375,-2.10936 2.10938,-2.10937 l 0.84375,0 0.21093,0.21094 0.21094,0 0,-0.21094 -0.42187,-0.42188 -0.63282,0 c -1.6875,0.25783 -2.53125,1.03126 -2.53125,2.32032 m 20.25,-2.32032 0,0.21094 c 0.35154,1e-5 0.98436,0.4922 1.89844,1.47656 l -0.42187,0.63282 2.10937,1.6875 0,-0.42188 -1.05469,-1.47656 c -2e-5,-0.70312 0.63279,-1.05468 1.89844,-1.05469 l 0,-0.21094 -1.6875,-0.42187 -0.21094,0.84375 c -0.51564,1e-5 -1.28908,-0.42187 -2.32031,-1.26563 l -0.21094,0 m 13.28907,1.47657 0.84375,-0.42188 c 0.42184,1e-5 0.84371,0.42188 1.26562,1.26563 -0.14066,0.51563 -0.77347,1.21875 -1.89844,2.10937 1.96872,-0.42187 2.95309,-1.26562 2.95313,-2.53125 -4e-5,-0.84374 -0.56254,-1.33593 -1.6875,-1.47656 l -0.63281,0 c -0.28129,0.0703 -0.56254,0.42188 -0.84375,1.05469 m -3.375,-0.84375 0,0.21093 0.63281,0 0,-0.21093 -0.63281,0 m -29.32032,1.26562 0,0.84375 0.42188,0.42188 0.42187,0 0,-0.42188 -0.42187,-0.63281 0.84375,-0.84375 0.84375,0 0,0.63281 0.42187,0 0,-1.05469 -0.84375,0 c -0.77344,1e-5 -1.33594,0.35157 -1.6875,1.05469 m 16.875,-1.05469 0,0.42188 0.21094,0 0,-0.42188 -0.21094,0 m 27.21094,0 0,0.42188 0.21094,0 0.63281,-0.21094 0,-0.21094 -0.84375,0 m -18.14062,0.21094 c -3e-5,0.42188 -0.28128,0.84376 -0.84375,1.26563 0.84372,-0.1875 1.26559,-0.39843 1.26562,-0.63282 l 0,-0.21093 -0.42187,-0.42188 m 1.89843,0 0,0.42188 0.42188,0 0,-0.42188 -0.42188,0 m 2.74219,0.42188 0.63281,0 0,-0.42188 -0.21093,0 -0.42188,0.42188 m -1.47656,0.21093 0.21094,0.21094 0,0.21094 0.63281,-0.21094 -0.21094,-0.21094 0,-0.21093 -0.63281,0.21093 m -27.84375,0.42188 0,0.42187 c 1.59374,2.25001 3.84374,3.37501 6.75,3.375 l 1.05469,0 c 2.03905,1e-5 3.72654,-0.6328 5.0625,-1.89843 l -1.05469,0 c -1.52345,0.84375 -3.00001,1.26563 -4.42969,1.26562 l -1.05469,0 c -2.29688,1e-5 -4.26563,-1.05468 -5.90625,-3.16406 l -0.42187,0 m 23.83594,0.63281 -2.10938,-0.42187 0,0.21093 c 0.53904,0.28126 1.31248,0.42189 2.32031,0.42188 l 3.16407,-0.63281 0,-0.21094 -0.63282,0 -2.74218,0.63281 m 5.0625,-0.42187 0,0.42187 0.63281,0 0,-0.42187 -0.63281,0 m 6.96093,0 c -1.03128,1.6875 -3.00003,2.53125 -5.90625,2.53125 l -0.21093,0.21093 0,0.42188 1.05468,0.21094 c 2.71872,0 4.82809,-0.84375 6.32813,-2.53125 l -1.26563,-0.84375 m 8.22657,0.21093 c -5e-5,0.56251 -0.2813,0.84376 -0.84375,0.84375 l 0,0.21094 0.63281,0 0.63281,-0.84375 0,-0.21094 -0.42187,0 m -27.42188,0.63282 -8.64844,-0.21094 -4.85156,0.42187 -0.63281,-0.21093 -0.21094,0 0,0.21093 1.26563,0.21094 3.375,-0.42187 8.22656,0.21093 2.10937,0 0.42188,-0.42187 0,-0.21094 -1.05469,0.42188 m 10.75781,0 0,0.21093 0.63282,0 -0.21094,-0.63281 -0.42188,0.42188 m -3.58593,0.21093 0,0.21094 c 1.45309,1e-5 2.29684,0.49219 2.53125,1.47656 l -0.42188,0.84375 0.42188,0 0.42187,-0.42187 0,-1.05469 c -3e-5,-0.49218 -0.84378,-0.84374 -2.53125,-1.05469 l -0.42187,0 m 16.45312,0.21094 0,0.21094 2.74219,0 0,-0.21094 -2.74219,0 m -33.96094,0.21094 0,0.42187 0.42188,0.42188 0,-0.84375 -0.42188,0 m 8.22657,0.42187 -0.21094,0.84375 1.05469,1.26563 0,-0.63281 0.42187,0 0.84375,0.63281 0.42188,0 c 0.65623,0 1.35935,-0.42187 2.10937,-1.26563 l -1.6875,0.63282 -1.05469,0 -1.26562,-1.47657 -0.63281,-0.21093 0,0.21093 m 29.53125,1.05469 1.05468,-0.63281 1.05469,0.42187 0,-0.63281 -1.05469,-0.21094 -1.05468,1.05469 m -45.98438,0 0,0.63281 0.42188,0.42188 0.21093,0 -0.21093,-0.21094 0,-0.42187 c -1e-5,-0.5625 0.84374,-0.84375 2.53125,-0.84375 l 0,-0.21094 -1.47657,-0.21094 c -0.75,1e-5 -1.24219,0.28126 -1.47656,0.84375 m 36.49219,0 0,0.21094 0.21094,0 3.375,-0.63281 0.42187,0 0.63281,0.63281 0,0.21094 -0.21093,0.21093 0,0.21094 0.21093,0.21094 -0.21093,0.21094 0.42187,0 0.63281,-0.63282 0,-0.84375 c -0.14066,-0.42187 -0.56254,-0.6328 -1.26562,-0.63281 l -0.63281,0 c -0.84379,1e-5 -2.03911,0.28126 -3.58594,0.84375 m -14.76563,-0.63281 0,0.21094 c 0.42186,0 0.91404,0.28125 1.47657,0.84375 l 0,-0.21094 c -0.21097,-0.5625 -0.4219,-0.84375 -0.63282,-0.84375 l -0.84375,0 m 22.35938,0.42187 0,0.42188 c -5e-5,0.32813 0.35152,0.53906 1.05469,0.63281 l 0.63281,-0.21094 -1.6875,-0.84375 m -31.21875,0.63282 0,0.84375 0.21094,0 0,-0.84375 -0.21094,0"
         style="font-size:72px;font-variant:normal;font-stretch:normal;font-family:Goudy Initials;-inkscape-font-specification:Goudy Initials"
         id="path4517" />
    </g>
  </g>
</svg>
