<?xml version="1.0" encoding="UTF-8" standalone="no"?>
<!-- Created with Inkscape (http://www.inkscape.org/) -->

<svg
   xmlns:dc="http://purl.org/dc/elements/1.1/"
   xmlns:cc="http://creativecommons.org/ns#"
   xmlns:rdf="http://www.w3.org/1999/02/22-rdf-syntax-ns#"
   xmlns:svg="http://www.w3.org/2000/svg"
   xmlns="http://www.w3.org/2000/svg"
   xmlns:sodipodi="http://sodipodi.sourceforge.net/DTD/sodipodi-0.dtd"
   xmlns:inkscape="http://www.inkscape.org/namespaces/inkscape"
   width="56.734375"
   height="56.734375"
   id="svg2"
   version="1.1"
   inkscape:version="0.48.5 r10040"
   sodipodi:docname="r.svg">
  <defs
     id="defs4" />
  <sodipodi:namedview
     id="base"
     pagecolor="#ffffff"
     bordercolor="#666666"
     borderopacity="1.0"
     inkscape:pageopacity="0"
     inkscape:pageshadow="2"
     inkscape:zoom="3.959798"
     inkscape:cx="43.996764"
     inkscape:cy="5.617196"
     inkscape:document-units="px"
     inkscape:current-layer="layer1"
     showgrid="false"
     fit-margin-top="2"
     fit-margin-left="2"
     fit-margin-right="2"
     fit-margin-bottom="2"
     inkscape:window-width="1366"
     inkscape:window-height="733"
     inkscape:window-x="0"
     inkscape:window-y="0"
     inkscape:window-maximized="1"
     showborder="true"
     borderlayer="false" />
  <metadata
     id="metadata7">
    <rdf:RDF>
      <cc:Work
         rdf:about="">
        <dc:format>image/svg+xml</dc:format>
        <dc:type
           rdf:resource="http://purl.org/dc/dcmitype/StillImage" />
        <dc:title></dc:title>
      </cc:Work>
    </rdf:RDF>
  </metadata>
  <g
     inkscape:label="Layer 1"
     inkscape:groupmode="layer"
     id="layer1"
     transform="translate(-152.28125,-146.34738)">
    <g
       style="font-size:40px;font-style:normal;font-weight:normal;line-height:125%;letter-spacing:0px;word-spacing:0px;fill:#ffffff;fill-opacity:1;stroke:none;font-family:Sans"
       id="flowRoot2985">
      <path
         d="m 154.28125,148.34738 52.73437,0 0,52.73438 -52.73437,0 0,-52.73438 m 1.05469,1.05469 0,50.625 50.625,0 0,-50.625 -50.625,0 m 0.42187,0.63281 49.57031,0 0,49.57032 -49.57031,0 0,-49.57032 m 4.42969,4.00782 0,0.42187 c 2.95312,-1.54682 4.78124,-2.32026 5.48437,-2.32031 2.24999,0.23442 3.37499,1.00786 3.375,2.32031 l -0.21093,0.63281 c 0.84373,5e-5 1.26561,-0.56245 1.26562,-1.6875 l 0.21094,0.21094 0.42187,0 c -1e-5,-1.12495 -0.70314,-1.75776 -2.10937,-1.89844 l -0.21094,-0.21093 0,-0.42188 0.63281,0 c 2.53124,1.4063 4.0078,2.10942 4.42969,2.10938 l 1.26563,0 0,-0.84375 0.42187,0 1.47656,0.21093 c 0.56248,-0.63276 0.84373,-1.26557 0.84375,-1.89843 -0.72658,0.70317 -1.35939,1.05473 -1.89843,1.05468 l -7.80469,-1.26562 c -4.57032,0.2813 -7.10157,1.47661 -7.59375,3.58594 m 21.09375,-2.95313 c 0.0469,0.35161 0.53903,0.8438 1.47656,1.47656 l 0.21094,-0.21093 0,-0.21094 -0.84375,-0.84375 0,-0.21094 c -3e-5,-0.2812 0.21091,-0.42182 0.63281,-0.42187 0.30466,5e-5 0.93747,0.70317 1.89844,2.10937 l 0.21094,0 c -0.79691,-1.54682 -1.57034,-2.32026 -2.32032,-2.32031 -0.51565,5e-5 -0.93752,0.21099 -1.26562,0.63281 m -20.88281,-0.42187 0.21093,0.21093 0,0.42188 c 0,0.42192 -0.28125,1.05474 -0.84375,1.89844 l 0.21094,0 c 0.70312,-0.72652 1.05468,-1.35933 1.05469,-1.89844 l 0,-0.21094 -0.42188,-0.42187 -0.21093,0 m 34.38281,0.63281 0,0.84375 0.21094,0 c 0.0937,-0.70308 0.30464,-1.05464 0.63281,-1.05469 0.70308,0.0235 1.05465,0.93755 1.05469,2.74219 l 0.21093,0 0.42188,-1.6875 0,-0.42188 -1.05469,-1.05468 -0.84375,0 -0.63281,0.63281 m -37.54688,-0.42188 0.63282,1.26563 -0.21094,0.63281 0.21094,1.26563 c -0.56251,2.20317 -0.84376,4.17191 -0.84375,5.90625 l 0,0.42187 c 0.28124,3.96098 0.84374,6.07035 1.6875,6.32813 0.56249,-0.21091 0.84374,-0.42184 0.84375,-0.63282 l 0,-0.84375 -0.21094,-1.05468 -1.05469,0.21093 -0.42187,-0.42187 c 1.26562,-0.0937 1.89843,-0.72653 1.89843,-1.89844 0.58594,-0.56246 1.14844,-0.84371 1.6875,-0.84375 l 0,-0.42187 -0.63281,-0.63282 -1.05469,0.21094 0,-1.05469 c -0.42188,5e-5 -0.91406,0.91411 -1.47656,2.74219 l 0.21094,0.21094 0,1.05469 -0.42188,0 -0.21093,-1.05469 0,-0.63281 c -1e-5,-1.3359 0.21093,-2.4609 0.63281,-3.375 l -0.21094,0 -0.21094,0.21093 c 0.65625,-2.5312 1.14844,-3.79682 1.47657,-3.79687 l 0,0.84375 0.21093,0 0,-1.6875 -0.84375,0 0.21094,-1.05469 0,-0.21094 c 0,-1.12495 -0.63281,-1.68745 -1.89844,-1.6875 m 10.75782,-0.21093 0.21093,0.21093 -0.21093,1.05469 -0.21094,0 -0.63281,-0.42187 -0.21094,0.21093 0,-0.84375 0.21094,0 0.21093,0.21094 0.21094,0 0.42188,-0.42187 m 19.61718,0.63281 0,0.42187 0.42188,0 0.42187,-0.42187 0,-0.42188 -0.42187,0 -0.42188,0.42188 m -20.88281,-0.42188 0,0.84375 -1.05469,0 0,-0.63281 1.05469,-0.21094 m 11.60156,0.21094 0,0.21094 0.42188,0.63281 0,0.21094 c -0.28127,0.56255 -0.63284,0.8438 -1.05469,0.84375 l 0,0.21094 0.21094,0 c 0.84373,-0.32808 1.2656,-0.82027 1.26562,-1.47657 l -0.21093,-0.63281 -0.63282,0 m 18.5625,4.00781 c -4e-5,1.73442 1.05465,3.21098 3.16407,4.42969 l 0.21093,0 0,-0.21094 c -1.96879,-0.8437 -2.95316,-2.32026 -2.95312,-4.42968 0.46871,-1.82808 1.59371,-2.74214 3.375,-2.74219 1.54683,0.4688 2.32026,1.31255 2.32031,2.53125 l 0,0.21094 c -0.14067,0.56254 -0.56255,0.84379 -1.26562,0.84375 -0.23442,4e-5 -0.51567,-0.49214 -0.84375,-1.47657 l -0.21094,0 -0.21094,1.89844 1.47656,0.84375 0.21094,0 c 1.4062,-0.18745 2.10933,-0.89058 2.10938,-2.10937 l 0,-0.42188 c -5e-5,-0.98433 -0.49224,-1.47651 -1.47657,-1.47656 l 0,-0.21094 1.47657,-0.21094 0,-0.63281 -3.16407,-0.84375 c -2.81254,0.4688 -4.21879,1.80474 -4.21875,4.00781 m -25.3125,-3.79687 c 1.26561,5e-5 2.24999,0.49224 2.95313,1.47656 l -0.42188,0 c -0.77345,-0.70307 -1.6172,-1.05464 -2.53125,-1.05469 l 0,-0.42187 m 14.55469,0.63281 0.42188,0.42188 0.21093,0 0.42188,-0.42188 -0.63281,-0.42187 -0.42188,0.42187 m 2.74219,-0.21094 0,0.42188 0.21094,0 1.6875,-0.42188 c 0.51559,5e-5 1.1484,0.2813 1.89843,0.84375 l 0,-0.21093 c -0.75003,-0.56245 -1.38284,-0.8437 -1.89843,-0.84375 l -0.42188,0 -1.47656,0.21093 m -1.47656,0.84375 0,0.63282 0.21093,0 0.42188,-0.42188 -0.21094,-0.21094 -0.42187,0 m 6.11718,1.47657 -0.21093,0 c -0.28129,4e-5 -0.42192,-0.21089 -0.42188,-0.63282 l -0.84375,0 0,0.21094 0.42188,1.05469 0.21093,-0.21094 0.63282,0 0,2.10938 0.21093,0 0.21094,-2.32032 0.42188,-0.42187 0,-1.26563 c -0.42192,0.0938 -0.63285,0.58599 -0.63282,1.47657 m -8.4375,-1.26563 0,0.21094 0.84375,0 0,-0.21094 -0.84375,0 m 3.375,0.42188 0,0.21093 0.84375,0 0,-0.63281 -0.42187,0 -0.42188,0.42188 m -15.82031,0.42187 0,0.63281 -0.63281,0.63282 -0.42188,0 c -0.28126,4e-5 -0.42189,-0.21089 -0.42187,-0.63282 l -0.21094,0 0,0.63282 0.63281,0.63281 0.21094,0 c 0.84373,4e-5 1.26561,-0.42183 1.26563,-1.26563 l 0,-0.21093 -0.42188,-0.42188 m 3.58594,0.42188 0,0.42187 0.63281,1.05469 3.79688,-0.42188 c 3.63278,5e-5 6.72653,1.54692 9.28125,4.64063 1.05465,2.50785 1.82809,4.05472 2.32031,4.64062 l 0.21094,0 0,-0.21093 -1.6875,-10.75782 -1.6875,1.05469 c -3.25785,-0.70308 -6.42191,-1.05464 -9.49219,-1.05469 l -3.375,0.63282 m -1.47656,-0.42188 0,0.21094 c 0.7031,0.44536 1.33591,1.64067 1.89843,3.58594 l 0.21094,0.21093 0.21094,0 c -0.18752,-1.2187 -0.6094,-2.27339 -1.26563,-3.16406 l 0.21094,-0.21094 -0.21094,0 -0.21093,0.21094 c -2e-5,-0.56245 -0.28127,-0.8437 -0.84375,-0.84375 m 22.99218,1.6875 0,0.63281 0.21094,0 c -4e-5,-1.12495 0.56246,-1.68745 1.6875,-1.6875 l 0,-0.21093 c -4e-5,-0.28121 -0.21098,-0.42183 -0.63281,-0.42188 -0.84379,0.2813 -1.26567,0.8438 -1.26563,1.6875 m -32.27343,0.42188 -0.42188,0 c -1e-5,-0.56246 -0.14063,-0.84371 -0.42187,-0.84375 l -0.63282,1.05468 0.21094,0.84375 -0.21094,0.63282 0,0.21093 0.21094,0 0.21094,-1.47656 0.42187,0 0,0.63281 0.21094,0 0.21094,-0.84375 0.42187,0 c 0.63281,5e-5 1.26562,0.42192 1.89844,1.26563 l -1.47656,-1.89844 0,-0.42187 c 0.56249,4e-5 0.84374,-0.14058 0.84375,-0.42188 l 0,-0.42187 c -0.91407,4e-5 -1.40626,0.56254 -1.47656,1.6875 m 1.89843,-1.6875 -0.21093,1.05468 0.21093,0.21094 -0.63281,0 1.26563,1.89844 0.42187,0 -0.84375,-3.16406 -0.21094,0 m 3.16407,5.27343 c 0.56248,5e-5 0.98436,0.2813 1.26562,0.84375 -2e-5,0.70317 -0.4922,1.19536 -1.47656,1.47657 l -0.63281,0.63281 0,0.42187 c -2e-5,3.77348 2.32029,7.00785 6.96093,9.70313 l 0.21094,0 -0.21094,-1.6875 0.42188,-2.74219 c -3.23439,-2.13278 -4.85158,-4.17184 -4.85156,-6.11719 l 0,-1.05468 c -2e-5,-1.96871 1.12498,-3.5859 3.375,-4.85157 -0.28127,-0.8437 -0.56252,-1.26557 -0.84375,-1.26562 l -0.21094,0 c -2.67189,1.59379 -4.00783,3.14067 -4.00781,4.64062 m 21.09375,-4.64062 0,0.63281 1.47656,8.4375 -0.63281,1.05469 0.63281,0 0.21094,-0.84375 -1.47657,-9.28125 -0.21093,0 m -29.10938,0.42187 -1.47656,3.16407 0,0.63281 c -1e-5,1.26567 0.56249,1.89848 1.6875,1.89844 l 0.63281,0 0,0.63281 -0.42187,0.63281 0,0.21094 c -1e-5,2.46097 1.82811,4.00785 5.48437,4.64062 l 1.26563,0 0,-0.21093 c -3.21095,3e-5 -5.10939,-1.19528 -5.69532,-3.58594 l 0,-0.21094 c 0.21093,-0.56246 0.42187,-0.84371 0.63282,-0.84375 l 1.05468,0.84375 1.26563,0 c 0.84374,4e-5 2.10936,-0.7734 3.79687,-2.32031 l -0.63281,-0.42188 -0.21094,0.21094 -0.21093,0 -0.21094,-0.21094 -0.42188,0.42188 -0.42187,0 0,-0.42188 -0.42188,0 c -0.28126,5e-5 -0.42188,0.21098 -0.42187,0.63282 l -0.63281,0 0,-0.21094 c 0.56248,-0.5859 0.84373,-1.1484 0.84375,-1.6875 l 0,-0.63281 -0.42188,-0.42188 -0.21094,0.21094 c -0.35157,-0.96089 -0.84376,-1.52339 -1.47656,-1.6875 l -0.84375,1.6875 -0.63281,-0.21094 0,1.89844 -0.42188,0.42187 -0.63281,0 -0.42187,-1.89843 -0.84375,0.63281 -0.21094,0 -0.21094,-1.47656 0.63281,-0.84375 0.21094,0 0,0.21093 -0.21094,0.21094 0,0.42188 0.21094,0 0,-0.42188 c 0.28124,5e-5 0.42187,0.21098 0.42188,0.63281 0.32811,5e-5 0.53905,-0.35151 0.63281,-1.05468 l -0.63281,0 0,-1.05469 -0.42188,-0.42188 m 14.55469,0.84375 0,0.21094 0.21094,0 4.00781,-0.21094 0,-0.21093 -0.63281,-0.21094 -3.58594,0.42187 m -17.71875,-0.21093 0,0.42187 0.21094,0 0,-0.42187 -0.21094,0 m 8.01562,-0.21094 c 0.28124,4e-5 0.42187,0.21098 0.42188,0.63281 l 0,0.21094 -0.21094,0 -0.21094,-0.84375 m 14.13282,0.21094 0,0.21093 0.84375,0 0,-0.21093 -0.84375,0 m 12.23437,2.10937 c -4e-5,0.65629 0.98434,1.07817 2.95313,1.26563 l 0.42187,0 0,-0.21094 c -1.59379,4e-5 -2.50785,-0.56246 -2.74219,-1.6875 l 0.63282,-1.05469 -0.21094,0 c -0.70316,0.16411 -1.05473,0.72661 -1.05469,1.6875 m 4.21875,-1.6875 0,0.42188 0.21094,0 0,-0.42188 -0.21094,0 m -24.89062,2.95313 0,0.21093 0.21093,0 c -1e-5,-0.4687 0.84374,-1.45308 2.53125,-2.95312 l -0.21093,0 c -1.68752,1.17192 -2.53127,2.08598 -2.53125,2.74219 m -13.92188,-0.84375 0,0.21093 0.21094,0 c -1e-5,-0.60933 0.49218,-1.0312 1.47656,-1.26562 l 0,-0.21094 -0.21094,-0.21094 0,-0.21093 c -0.51563,0.0938 -1.00781,0.65629 -1.47656,1.6875 m -0.21094,-1.47657 -0.21093,0.63282 0,0.21093 0.21093,0 0.21094,-0.63281 0,-0.21094 -0.21094,0 m 34.17188,0 0,0.63282 0.21094,0 0,-0.63282 -0.21094,0 m -15.39844,0.63282 0,0.21093 c 0.60935,1.26567 1.31248,1.89848 2.10938,1.89844 0.7031,-0.0937 1.05466,-0.30464 1.05468,-0.63281 l 0,-0.63281 -0.21093,0 c -3e-5,0.42191 -0.14065,0.63285 -0.42188,0.63281 l -0.21094,0 c -1.26564,-0.25777 -1.89846,-0.74996 -1.89843,-1.47656 l -0.42188,0 m 22.78125,0 0,1.26562 0.21094,0.21094 0,-0.63281 c -5e-5,-0.28121 0.2812,-0.42183 0.84375,-0.42188 l 0,-0.42187 -1.05469,0 m -24.25781,0.42187 c -2e-5,0.28129 0.42185,0.49223 1.26562,0.63281 -2e-5,-0.2812 -0.42189,-0.49214 -1.26562,-0.63281 m 22.57031,0 0,0.21094 0.63281,0.42187 0,-0.21093 -0.63281,-0.42188 m -35.4375,0.21094 0,0.42187 0.42188,0 0,-0.42187 -0.42188,0 m 2.32031,-0.21094 0.84375,0 0,0.21094 -0.42187,0.42187 -0.42188,0 0,-0.63281 m 2.74219,0.63281 0,0.21094 0.42188,0.42188 0,-0.42188 0.21093,0 0,0.42188 0.21094,0 0.21094,-0.21094 0.21094,0 0.21093,0.21094 0,-0.63282 -1.47656,0 m 13.92188,0 0.21093,0.21094 -0.21093,0.84375 0.21093,1.05469 -0.21093,-0.21094 -0.42188,0 0,0.21094 c 0.46872,0.98441 1.03122,1.4766 1.6875,1.47656 l 0,-0.21094 -0.21094,-0.21093 0,-0.21094 0.63282,0 c -3e-5,0.42191 0.14059,0.63285 0.42187,0.63281 l 0,-0.21094 c -0.28128,-0.98433 -0.63284,-1.47652 -1.05469,-1.47656 l 0,-0.42187 0.42188,-0.42188 0.84375,1.89844 0.21094,0 0,-0.21094 -0.21094,-1.05469 0.84375,0.63282 c -0.58597,-1.54684 -1.64065,-2.32027 -3.16406,-2.32032 m 18.98437,1.6875 0,-0.42187 -0.42187,0 0,0.21094 c -5e-5,0.5391 0.8437,1.59379 2.53125,3.16406 l 0.63281,2.10937 0,0.63282 c -0.2813,3e-5 -0.77349,-1.05465 -1.47656,-3.16407 -0.79693,-0.84371 -1.7813,-1.26558 -2.95313,-1.26562 -0.58598,0.18754 -1.00785,0.5391 -1.26562,1.05469 l 0.63281,0 0,0.42187 c -0.56254,4e-5 -0.84379,0.3516 -0.84375,1.05469 l 0.63281,0.63281 0.63281,0 0.21094,-1.05469 0.84375,0 c 1.38277,4e-5 2.36714,1.40629 2.95313,4.21875 l 0,1.89844 c -5e-5,1.33597 -0.8438,2.95316 -2.53125,4.85156 l 0,0.42188 c 2.39057,-1.68747 3.58588,-3.93747 3.58593,-6.75 l 0,-0.84375 -0.21093,0.21094 -0.21094,0 0.21094,0.21093 0,1.47657 -0.63282,-0.21094 0,-0.21094 0.42188,-0.63281 -0.21094,-0.21094 -0.21094,0 0.21094,-1.26562 0.63281,0.42187 0,-1.89844 c -5e-5,-1.00777 -0.49223,-2.62496 -1.47656,-4.85156 l 0,-0.63281 c -5e-5,-0.35152 0.2812,-0.56246 0.84375,-0.63281 l 0,-0.21094 -0.42187,-0.42188 -0.84375,0 c -0.32818,5e-5 -0.60943,0.56255 -0.84375,1.6875 l -0.42188,0 m -27.63281,1.89844 0,0.42188 1.05469,0 0,0.21093 -0.21094,0.21094 0,0.21094 c 0.79685,4e-5 1.35935,-0.98434 1.6875,-2.95313 l 0.21094,-0.21093 0.21093,0 0.42188,0.63281 c -1.12502,1.82816 -1.68752,3.02347 -1.6875,3.58594 l 0.21094,0 0.21093,-0.21094 0.21094,0 0,0.21094 -0.42187,0.63281 0,0.42187 0.21093,1.05469 0.42188,0 -0.21094,-0.84375 0.63281,-1.6875 -0.21093,0.21094 -0.42188,0 0.84375,-2.74219 0.42188,0 0,0.63281 0.21093,0 0.21094,-2.10937 0,-0.21094 -0.63281,-0.63281 0,0.21094 0.21094,0.21093 -0.21094,0 0.21094,0.21094 0,0.84375 c -0.46878,-0.42183 -0.89065,-0.63277 -1.26563,-0.63281 -2e-5,-0.28121 0.21092,-0.42183 0.63281,-0.42188 l 0,-0.21093 -0.42187,0 0.21094,-0.21094 0,-0.21094 -0.42188,0 -1.6875,3.375 -0.63281,0 m 13.71094,-3.375 0.21093,0.21094 0,0.42187 c -3e-5,0.60942 -0.84378,1.59379 -2.53125,2.95313 l 0,1.26562 c -3e-5,0.3516 0.56247,0.70317 1.6875,1.05469 -0.70315,-0.72652 -1.05471,-1.35934 -1.05468,-1.89844 l 1.05468,1.05469 -0.21093,0.21094 0.84375,0 1.05468,-0.21094 0,0.42188 0.21094,0 1.47656,-1.89844 0,-0.21094 -1.47656,0 -1.26562,0.63281 0,-0.21093 c 0.84371,-0.84371 1.26559,-1.54684 1.26562,-2.10938 -3e-5,-0.77339 -0.35159,-1.33589 -1.05469,-1.6875 l -0.21093,0 m -21.72657,0 0.42188,0 0.21094,0.63281 c -0.37501,1.12504 -0.72658,1.68754 -1.05469,1.6875 l -0.21094,0 c 0.42187,-0.77339 0.6328,-1.54683 0.63281,-2.32031 m 1.89844,0 0,0.21094 -0.42187,1.47656 -0.63282,-0.21094 1.05469,-1.47656 m 30.16406,0.42188 0,0.21093 0.42188,0 0,-0.21093 -0.42188,0 m -28.26562,0.21093 -0.21094,0.21094 0,0.42188 0.21094,-0.21094 0.21094,0 1.47656,0.42187 c -2e-5,-0.23433 -0.56252,-0.51558 -1.6875,-0.84375 m 3.375,0.21094 0,0.84375 0.21094,0 0,-0.84375 -0.21094,0 m 20.67187,0.84375 0,0.42188 c 1.49996,-0.56246 2.69528,-0.84371 3.58594,-0.84375 l 0.42188,0 c 0.60933,4e-5 1.66402,0.3516 3.16406,1.05468 l 0,-0.21093 c -1.31255,-0.84371 -2.64848,-1.26559 -4.00781,-1.26563 l -0.84375,0 c -1.54692,0.21098 -2.32035,0.49223 -2.32032,0.84375 m -15.1875,-0.21094 0,0.42188 c 0.46873,4e-5 0.82029,0.3516 1.05469,1.05469 l -1.89844,4.64062 0,0.21094 0.21094,0 2.10938,-5.0625 c -0.14065,-0.84371 -0.35159,-1.26558 -0.63282,-1.26563 l -0.84375,0 m 9.70313,0 0.42187,0 0,0.21094 c -0.0938,1.12504 -0.58597,1.68754 -1.47656,1.6875 0.70309,-0.56246 1.05466,-1.19527 1.05469,-1.89844 m 6.32812,2.53125 c -4e-5,0.56254 0.28121,0.98442 0.84375,1.26563 l 1.05469,0 0.84375,-0.84375 0,-0.21094 -0.63281,0.42188 -0.42188,0 -0.63281,-0.63282 0,-0.84375 c 0.44527,-0.84371 1.21871,-1.26558 2.32031,-1.26562 l 1.47657,0.42187 0.21093,0 0,-0.21093 -2.10937,-0.42188 -0.42188,0 c -1.68754,0.14067 -2.53129,0.9141 -2.53125,2.32031 m -30.16406,-2.32031 0,0.63281 -0.42187,0 -0.42188,-0.42187 0.21094,-0.21094 0.63281,0 m 8.4375,0.21094 0,1.47656 0.21094,0 0,-1.47656 -0.21094,0 m -4.00781,0 0,0.63281 -0.21094,0.21094 0,0.21094 1.05469,-0.42188 c -2e-5,0.46879 -0.84376,0.96098 -2.53125,1.47656 l 0,-0.21093 c 0.0937,-0.56246 0.4453,-0.91403 1.05469,-1.05469 0.0703,-0.56246 0.28123,-0.84371 0.63281,-0.84375 m 20.25,1.05469 0.21094,0 0.63281,-0.63282 -0.21094,0 -0.63281,0.63282 m -23.625,-0.42188 1.47656,0.21094 0,0.21094 -0.42187,0.63281 0.21093,0.21094 -0.84375,0.21093 -0.42187,-0.63281 0.21094,-0.21094 0,-0.21093 -0.42188,0 0.21094,-0.21094 0,-0.21094 m 11.8125,0.84375 0,0.42188 0.21094,0 0,-0.42188 -0.21094,0 m -4.21875,0.21094 0,0.84375 0.21094,0 0,-0.84375 -0.21094,0 m 9.07031,0.21094 0,0.21093 0.42188,0 0.21093,-0.21093 0,0.42187 -1.26562,0.63281 -0.21094,-0.21093 0,-0.21094 0.63281,-0.21094 0,-0.21094 -0.21093,0 c -0.70315,0.18754 -1.05472,0.39848 -1.05469,0.63282 l 0,0.21093 0.84375,0 0,0.42188 c -0.7969,4e-5 -1.42971,0.42191 -1.89844,1.26562 l 0,0.63282 1.05469,0 1.47656,1.05468 0.63281,0 0,-0.21093 c -0.9844,-0.18747 -1.47658,-0.46872 -1.47656,-0.84375 l 0.21094,0 2.10937,0.63281 -0.63281,1.05469 0.42188,0 1.47656,-0.21094 0,-0.21094 -0.42188,0 -0.63281,0.21094 -0.21094,0 0,-0.21094 1.26563,-0.42187 0,-0.21094 -1.05469,0 0,-0.21094 1.05469,-0.21094 1.05469,0.21094 0,-0.84375 -0.84375,0 0.21093,-0.21094 0,-0.21093 -1.05468,0.21093 -0.21094,0 0,-0.21093 1.26562,-0.42188 0,-0.21094 -0.84375,0 -1.6875,0.42188 -0.21093,0 0.84375,-0.63281 0.21093,-0.21094 0,-0.21094 -0.42187,0 c -3e-5,-0.28121 0.28122,-0.42184 0.84375,-0.42187 l 0,-0.21094 -0.63281,0 0,-0.42188 0.63281,0 0,-0.21093 -1.05469,-0.21094 -0.84375,0.21094 m 4.42969,-0.42188 0.42187,0 0.84375,1.26563 -0.63281,0 -0.84375,-0.63282 0.21094,-0.63281 m -9.49219,0.63281 0,0.42188 0.21094,0 0,-0.42188 -0.21094,0 m 13.5,0.42188 -0.42187,1.89844 0,2.95312 c -4e-5,1.82816 1.40621,3.93753 4.21875,6.32813 l 0,0.42187 0.21093,0 0.63282,-0.42187 c -4e-5,0.65627 0.56246,1.14846 1.6875,1.47656 l 0.21093,0.84375 c 0.42184,-0.1406 0.63277,-0.56248 0.63282,-1.26563 l -0.42188,-0.84375 0.21094,-0.21093 0.21094,0 0.42187,0.42187 0,-0.63281 c -4e-5,-0.23435 -0.49223,-0.5156 -1.47656,-0.84375 l -0.84375,0.21094 0,-0.84375 1.05469,-0.21094 -0.42188,0.63281 0.21094,-0.21094 2.32031,0.42188 c 1.26558,-0.42185 1.89839,-0.77341 1.89844,-1.05469 l -0.63281,-0.84375 c 1.26558,3e-5 2.10932,-0.56247 2.53125,-1.6875 l -0.84375,-0.84375 -1.6875,0.42188 0,-1.05469 -0.42188,0 c -1.31254,1.54691 -2.36723,2.32034 -3.16406,2.32031 l 0.21094,0.21094 0,0.21094 -1.05469,0.21093 -0.21094,-0.21093 -0.21094,0 -0.63281,0.21093 -0.63281,-0.21093 0,-0.21094 0.42187,-0.63281 -2.53125,-1.6875 c -0.70316,-1.24216 -1.05472,-2.22653 -1.05468,-2.95313 l 0,-0.84375 0.21093,-0.84375 -0.21093,-0.63281 -0.42188,0 m -24.25781,1.26562 c 0.37499,1.26566 1.07811,1.89848 2.10937,1.89844 l 0.21094,0 0,-0.21094 c -0.98439,-0.37496 -1.47657,-0.72652 -1.47656,-1.05468 l 0,-0.63282 0.63281,-0.63281 0.42188,0 c 0.28123,4e-5 0.42186,0.21098 0.42187,0.63281 l 0.21094,0.21094 0.21094,0 0.21093,-0.21094 0,-0.42187 c -0.14063,-0.42184 -0.56251,-0.63278 -1.26562,-0.63281 l -0.21094,0 c -0.79688,3e-5 -1.28907,0.3516 -1.47656,1.05468 m -5.90625,1.47657 0.21094,-0.21094 c 0.4453,-0.98434 0.79687,-1.47653 1.05468,-1.47656 0.49218,3e-5 0.98437,0.28128 1.47657,0.84375 l 0,-0.21094 c -1e-5,-0.72653 -0.21095,-1.1484 -0.63282,-1.26563 l -1.05468,0 c -0.51563,4e-5 -0.8672,0.77348 -1.05469,2.32032 m 23.41406,-2.32032 0,0.21094 0.63281,0 0,-0.21094 -0.63281,0 m -9.07031,0.84375 -0.21094,0.21094 0,0.21094 0.42188,0.42187 0.21093,-0.21093 0,-0.21094 -0.42187,-0.42188 m 20.46094,0.84375 0,0.84375 1.26562,1.47657 -0.84375,0.63281 -0.84375,0 c -4e-5,-1.54684 -0.49222,-2.32028 -1.47656,-2.32031 l -0.63281,0.63281 0.21093,0 0.42188,-0.42188 c 0.44527,4e-5 0.79684,0.77348 1.05469,2.32032 l 1.05468,0.21093 0.21094,0 c 0.70309,-0.28121 1.05465,-0.7734 1.05469,-1.47656 l 0,-0.42187 c -0.70317,-0.0937 -1.05473,-0.30466 -1.05469,-0.63282 l 0,-0.42187 0.42188,-0.42188 0.21093,0 c 0.91402,4e-5 1.54684,0.63285 1.89844,1.89844 -4e-5,1.17191 -1.12504,2.15628 -3.375,2.95313 l 0.21094,0.63281 0.21094,0 0,-0.84375 0.21093,0.21094 0.21094,0 0.21094,-0.21094 0,0.84375 0.21094,0 c -4e-5,-0.56247 0.14058,-0.84372 0.42187,-0.84375 l 0,0.42187 0.21094,0 c -4e-5,-0.35153 0.63277,-0.7734 1.89844,-1.26562 l 1.26562,-1.89844 -0.21094,-1.05469 0,-0.84375 -0.21093,0 -0.84375,0.63282 c -0.42192,-0.98434 -1.05473,-1.47653 -1.89844,-1.47657 -0.98442,0.28129 -1.4766,0.56254 -1.47656,0.84375 m -35.85938,-0.63281 0.21094,0 0,0.42188 -1.26563,0.21093 0,-0.42187 1.05469,-0.21094 m 21.51563,0.21094 0.63281,0 0.21094,0.63281 -0.84375,0 0,-0.63281 m 19.40625,1.47656 0.63281,0.84375 c 0.0703,-0.56246 0.2812,-0.84371 0.63281,-0.84375 l 0.42188,0 c 0.70307,4e-5 1.05464,0.9141 1.05468,2.74219 l 0.21094,0 0,-1.89844 c -0.37505,-0.93746 -0.79692,-1.49996 -1.26562,-1.6875 l -0.84375,0 -0.84375,0.84375 M 158.5,165.43332 l 0.84375,0 -0.63281,0.63281 -0.21094,-0.21093 0,-0.42188 m 28.89844,0.21094 0,0.21094 0.21093,0.63281 -0.21093,0.21094 -0.21094,0 0,-0.21094 -0.21094,0.21094 -0.42187,0 0,-0.84375 -0.42188,0 -0.42187,1.6875 c 0.32809,0.84378 0.82028,1.26565 1.47656,1.26562 l 0.21094,-0.63281 0.42187,0 c 0.0468,0.70316 0.25778,1.05472 0.63281,1.05469 l 0.42188,0 c -3e-5,-0.84372 -0.42191,-1.2656 -1.26563,-1.26563 l -0.21093,-0.63281 0.63281,-0.21094 0.63281,0.21094 0,-0.21094 c -3e-5,-0.70309 -0.42191,-1.19528 -1.26562,-1.47656 m -29.10938,2.53125 -0.21094,-0.21094 -0.21093,0 0,0.21094 0.21093,0 c -0.42187,0.79691 -0.63281,1.64066 -0.63281,2.53125 0.23437,1.82815 0.58594,2.74221 1.05469,2.74219 l 0,-0.21094 c -0.5625,-0.96091 -0.84375,-1.94528 -0.84375,-2.95313 0.75,-2.67184 2.01562,-4.00777 3.79687,-4.00781 l 0,-0.21094 -0.42187,0 c -1.82813,0.7266 -2.74219,1.42973 -2.74219,2.10938 m 20.25,-2.10938 c -0.84377,1.42973 -1.26565,2.76566 -1.26562,4.00782 l 0,1.6875 c -3e-5,2.15627 1.12497,4.40627 3.375,6.75 l 0,-0.21094 c -2.1094,-2.60154 -3.16409,-4.85154 -3.16407,-6.75 -2e-5,-2.34372 0.49217,-3.9609 1.47657,-4.85156 l 0,-0.63282 -0.42188,0 m -21.51562,0.21094 -0.42188,0.84375 0.42188,0 0.21093,-0.21094 1.05469,0.42188 0,-0.21094 c -0.28125,-0.56246 -0.70313,-0.84371 -1.26562,-0.84375 m 4.64062,0 c 0.70312,0.56254 1.05468,1.4766 1.05469,2.74219 l 0.21094,0 0.21093,-1.47656 c -0.21094,-0.84372 -0.70313,-1.26559 -1.47656,-1.26563 m 7.38281,0 0,0.21094 0.63282,0 0,-0.21094 -0.63282,0 m -5.27343,1.05469 0,0.84375 0.42187,0.42187 c -1e-5,-0.98434 0.6328,-1.47652 1.89844,-1.47656 l 0.84375,0 0,-0.21094 c -1.12501,-0.0937 -1.68751,-0.23434 -1.6875,-0.42187 -0.98438,0.23441 -1.47657,0.51566 -1.47656,0.84375 m 3.375,-0.21094 0,0.21094 0.42187,0 0,-0.21094 -0.42187,0 m 11.60156,1.05469 0.42187,0 0.84375,-0.63281 1.26563,0 c 0.42185,0.14066 0.63278,0.56253 0.63281,1.26562 l -0.21094,0.21094 0,0.21094 0.42188,0 0.21094,-0.84375 c -3e-5,-0.84372 -0.77347,-1.26559 -2.32032,-1.26563 -0.58596,0.18754 -1.00783,0.5391 -1.26562,1.05469 m -19.40625,-0.21094 0,0.21094 c 1.00781,1.85159 3.53905,3.32815 7.59375,4.42969 l 2.32031,0.42187 c -0.14064,-0.25778 -1.89845,-0.96091 -5.27344,-2.10937 -1.875,-1.0781 -3.14063,-2.27341 -3.79687,-3.58594 -0.56251,0.21097 -0.84376,0.42191 -0.84375,0.63281 m 6.75,0.21094 0,0.21094 0.21094,0 0.63281,-0.21094 0,-0.42188 -0.42188,0 -0.42187,0.42188 m 1.6875,0.21094 0,0.42187 0.63281,0 0,-0.42187 -0.63281,0 m 3.375,0 0,0.21093 0.21094,0.21094 0.21093,0 0,-0.21094 -0.21093,-0.21093 -0.21094,0 m -4.42969,0.21093 -0.21094,0.21094 0,0.63281 0.84375,0 0,-0.21093 -0.63281,-0.63282 m -1.47656,0.21094 0,0.63281 0.63281,0 0,-0.63281 -0.63281,0 m 4.00781,1.26563 0.21094,1.26562 -0.42188,0 c -1e-5,0.75003 0.91405,1.66409 2.74219,2.74219 l 0.42188,0 0,-0.21094 c -0.70314,-0.0937 -1.05471,-0.30466 -1.05469,-0.63281 l 0.21094,0 1.26562,0.42187 0,0.21094 -0.21094,0.21094 0,0.21094 c 1.54686,0.28127 2.67186,0.70315 3.375,1.26562 l -0.21093,0.63281 -3.16407,-1.47656 -0.84375,0 -1.47656,0.21094 0,0.42187 0.42188,0 0,0.42188 -0.21094,-0.21094 -0.21094,0 0,0.21094 0.21094,0.21094 -0.42188,0 c -0.0938,0.84377 -0.23439,1.26565 -0.42187,1.26562 0.28123,0.86721 0.6328,1.3594 1.05469,1.47656 l 0.63281,0 -0.42188,-0.63281 c -1e-5,-1.12497 0.77343,-1.68747 2.32032,-1.6875 2.08591,3e-5 4.47654,1.40628 7.17187,4.21875 l 0.21094,-0.21094 0,-0.84375 c -0.30471,-1.6406 -2.83596,-4.03122 -7.59375,-7.17187 -1.82814,-0.65622 -2.7422,-1.49997 -2.74219,-2.53125 l 0.42188,-0.84375 -0.21094,-0.21094 -0.21094,0 c -0.56251,0.28128 -0.84376,0.70316 -0.84375,1.26563 m 9.07031,-1.26563 -0.42187,2.95313 c -2e-5,1.10159 1.05466,2.01565 3.16406,2.74218 7.17184,3.25784 10.75778,6.35159 10.75781,9.28125 l 0.21094,1.6875 2.53125,-0.21093 0,-0.42188 0.21094,-1.05469 c -4e-5,-4.59372 -1.82816,-7.68747 -5.48438,-9.28125 l -10.96875,-5.69531 m 11.17969,0 c -3e-5,1.64066 -0.63284,2.62503 -1.89844,2.95313 l -0.63281,0 c -0.56253,-0.23435 -0.84378,-0.72654 -0.84375,-1.47657 l 0.84375,-0.42187 0,-0.21094 -0.63281,-0.21094 c -0.37503,0.0469 -0.65628,0.39847 -0.84375,1.05469 0.23434,1.26566 0.86716,1.89847 1.89844,1.89844 l 1.05468,0 c 0.84372,-0.39841 1.26559,-1.24216 1.26563,-2.53125 l 0,-1.05469 -0.21094,0 m -17.92969,0.21094 0,0.21094 c 1.9453,2.03909 3.70311,3.37503 5.27344,4.00781 l 0,-0.42188 c -0.72658,3e-5 -2.48439,-1.26559 -5.27344,-3.79687 m -3.58593,0.42187 0,0.42188 0.42187,0.42187 0,-0.84375 -0.42187,0 m -2.32032,1.05469 0,0.21094 0.63282,0.21094 0,-0.84375 -0.21094,0 -0.42188,0.42187 m 1.26563,-0.21094 0,0.21094 c -1e-5,0.42191 0.42186,0.84378 1.26562,1.26563 l 0,-0.21094 -1.26562,-1.26563 m 35.64844,0 0,0.42188 0.21093,0 0,-0.42188 -0.21093,0 m -10.54688,0 2.95313,1.26563 0.21093,-0.21094 1.26563,0 0.42187,0.42188 -1.05468,0.21093 -0.63282,0 c -0.56254,3e-5 -1.61722,-0.35153 -3.16406,-1.05468 l 0,-0.63282 m -33.75,4.64063 0.21094,0 c 1.45312,-2.24997 2.50781,-3.37497 3.16406,-3.375 l 0,-0.42188 -0.21094,0 c -1.99219,1.52347 -3.04687,2.78909 -3.16406,3.79688 m 39.44531,-3.79688 0.21094,0.84375 -0.84375,0 0,-0.21093 0.63281,-0.63282 m 0.42188,0 0.84375,0 -0.42188,0.42188 -0.42187,0 0,-0.42188 m -7.59375,0.42188 0,1.26562 0.42187,-0.42187 -0.21093,-0.84375 -0.21094,0 m 11.39062,0.42187 -0.42187,1.05469 0.21094,0 0.42187,-0.84375 0,-0.21094 -0.21094,0 m -38.39062,1.47657 0.21094,0.21093 0.21093,0 0,-0.84375 1.6875,0 0,-0.21093 -1.05468,-0.21094 c -0.70314,0.14065 -1.0547,0.49222 -1.05469,1.05469 m 25.94531,-1.05469 -0.21094,0.21094 0,0.42187 0.63282,0 0,-0.21094 -0.42188,-0.42187 m 5.69531,0 0.21094,0.21094 0,0.42187 -0.21094,0.21094 0,0.21094 c -0.70316,-0.18748 -1.05472,-0.39841 -1.05468,-0.63282 l 0,-0.21093 1.05468,-0.21094 m -29.32031,0.42187 0,0.21094 0.42188,0 0,-0.21094 -0.42188,0 m 5.48438,-0.21093 0.21093,0 1.6875,0.63281 0,0.21094 -0.84375,0 -1.05468,-0.84375 m 20.03906,0.21093 0,0.63282 0.42187,0 0,-0.21094 -0.42187,-0.42188 m -29.95313,0.84375 0.21094,0 0.84375,-0.21093 0.21094,0.21093 0,-0.42187 -0.42188,0 0,-0.21094 c -0.5625,0.21097 -0.84375,0.4219 -0.84375,0.63281 m 28.6875,-0.21093 0,0.63281 0.63282,0 0,-0.63281 -0.63282,0 m 10.96875,0 -0.21093,0.21093 0,0.21094 0.21093,0 0.21094,-0.21094 0,-0.21093 -0.21094,0 m -22.78125,0.21093 0,0.42188 c 2.34373,0.9844 5.85935,2.81252 10.54688,5.48437 l 0,-0.21093 c -4.31253,-2.62498 -7.82815,-4.52341 -10.54688,-5.69532 m 20.46094,0.21094 0,0.63281 1.05469,0.21094 c -5e-5,1.31253 -1.82817,2.36721 -5.48438,3.16406 l 0.21094,0.63282 c 2.22652,2e-5 4.89839,-1.12498 8.01563,-3.375 l 0.21093,0 c 0.70308,2e-5 1.12496,0.28127 1.26563,0.84375 l -0.21094,0.63281 0.63281,-0.63281 0,-0.63282 c -5e-5,-0.25778 -0.42192,-0.60934 -1.26562,-1.05468 -0.93755,0.0938 -1.85161,0.58596 -2.74219,1.47656 l -0.21094,0 0,-1.05469 -0.21093,-1.05469 -0.21094,0 -1.05469,0.21094 m -36.07031,0 0,0.63281 0.21094,0 0,-0.63281 -0.21094,0 m 0.84375,0.42188 0,0.21093 0.21094,0 5.0625,-0.42187 0,-0.21094 -1.47657,0 -3.79687,0.42188 m -3.79688,-0.21094 0,0.21094 0.42188,0 0,-0.21094 -0.42188,0 m 10.33594,0 0,0.21094 0.42188,0 0,-0.21094 -0.42188,0 m -9.70312,0.21094 0,0.21093 1.6875,0 0,-0.21093 -1.6875,0 m 2.10937,0.42187 0,0.42188 0.21094,0 0,-0.42188 -0.21094,0 m 0.42188,1.26563 -0.63282,0 -0.63281,-0.42188 0,0.21094 0.63281,0.42187 0.21094,0 c 0.74999,3e-5 1.24218,-0.28122 1.47656,-0.84375 l -0.21093,0 -0.84375,0.63282 m 0.21093,1.05468 0.21094,0 c 1.89843,-0.98435 3.58593,-1.47653 5.0625,-1.47656 l 0,-0.21094 -1.05469,0 c -2.81251,0.51565 -4.21875,1.07815 -4.21875,1.6875 m 5.90625,-1.6875 0,0.21094 0.63282,0 0,-0.21094 -0.63282,0 m -12.23437,1.6875 0.42187,0.42188 0,-0.21094 -0.21093,-0.63281 c 0.58593,-0.56248 1.14843,-0.84373 1.6875,-0.84375 l 1.6875,0.42187 0.21093,0 0,-0.21093 -2.10937,-0.42188 c -1.125,3e-5 -1.6875,0.49221 -1.6875,1.47656 m 19.82812,-1.6875 0,1.05469 0.21094,0 0,-0.42187 c 0.28123,2e-5 0.42185,0.21096 0.42188,0.63281 l 0.21093,-0.21094 0.21094,0 0.21094,0.21094 -0.21094,0.63281 -0.42187,0 0,-0.42187 -0.21094,0.21093 -0.42188,0 c -2e-5,-0.28122 -0.28127,-0.42185 -0.84375,-0.42187 l 0.84375,-1.26563 m 17.08594,0.21094 c -4e-5,0.28128 0.2109,0.4219 0.63281,0.42188 l 0,0.84375 -0.42187,0.63281 c 0.56246,-0.1406 0.84371,-0.56248 0.84375,-1.26563 l 0,-0.21093 -0.42188,-0.42188 -0.63281,0 m -29.32031,3.79688 0,1.26562 0.42187,0 0.21094,-0.21094 0.21094,0 c 0.28124,0.84377 0.84374,1.26565 1.6875,1.26563 0.67967,2e-5 1.24217,-0.49217 1.6875,-1.47656 l 0,-0.42188 -0.21094,0 c -1e-5,0.70315 -0.42189,1.05471 -1.26562,1.05469 l -0.42188,0 c -0.84376,-0.49217 -1.26563,-1.12498 -1.26562,-1.89844 -1e-5,-1.40622 1.26561,-2.32029 3.79687,-2.74219 l 0,-0.21093 -0.42187,0 c -2.64845,2e-5 -4.12501,1.12502 -4.42969,3.375 m 8.01562,-3.58594 0,0.42187 c -0.79689,3e-5 -1.50001,0.4219 -2.10937,1.26563 l -0.21094,0 c -1e-5,-0.98435 0.77342,-1.54685 2.32031,-1.6875 m 8.4375,1.26562 0,0.84375 0.21094,0 c -2e-5,-0.84372 0.35154,-1.2656 1.05469,-1.26562 l -0.42188,-0.42188 -0.21093,0 c -0.35159,3e-5 -0.56253,0.28128 -0.63282,0.84375 m 21.30469,-0.63281 -0.21094,0.84375 0.42188,1.05469 0.63281,0 0,-0.63281 c -0.42192,-0.46873 -0.63286,-0.8906 -0.63281,-1.26563 l -0.21094,0 m -44.29687,0.63281 c 0.11718,1.40628 0.32812,2.1094 0.63281,2.10938 -0.0937,-0.98435 -0.23438,-1.47654 -0.42188,-1.47656 l 0.21094,-0.21094 0,-0.84375 -0.42187,0.42187 m 3.375,-0.42187 -0.21094,0.21094 0,0.21093 0.21094,0 0.21093,-0.21093 0,-0.21094 -0.21093,0 m 6.96093,0 0,0.21094 0.42188,0 0,-0.21094 -0.42188,0 m -0.42187,0.21094 c -0.42189,0.51565 -0.63283,1.00783 -0.63281,1.47656 l 0.21093,0.21094 0.63282,0 -0.21094,-0.21094 0,-1.05469 0.21094,-0.21094 0,-0.21093 -0.21094,0 m -5.90625,0.21093 1.26562,2.10938 0.21094,0 0,-0.21094 c -0.51563,-1.24216 -0.93751,-1.87497 -1.26562,-1.89844 l -0.21094,0 m -2.95313,0.63282 0,0.21093 0.63282,0 0.63281,-0.21093 0,-0.21094 -0.21094,0 -1.05469,0.21094 m 13.5,1.26562 c 0.0937,1.5469 0.72655,2.32033 1.89844,2.32031 l 0.63281,-0.21093 0,-0.21094 c -1.12501,2e-5 -1.68751,-0.28123 -1.6875,-0.84375 l 0,-0.63281 c 0.49217,-0.84373 1.12498,-1.26561 1.89844,-1.26563 l 0.63281,0 1.26563,0.42188 0,-0.21094 -2.53125,-0.84375 c -0.96096,0.32815 -1.66408,0.82033 -2.10938,1.47656 m 9.70313,0.21094 -1.05469,-0.21094 -0.21094,1.26563 c 0.42185,2e-5 0.63279,0.14064 0.63282,0.42187 l 0.21093,-0.21094 0.21094,0 0.42188,1.6875 -0.42188,0 0,-0.42187 -0.21094,0 0,0.42187 c -0.4219,2e-5 -0.63283,-0.42185 -0.63281,-1.26562 l -0.21094,0 0,0.84375 1.6875,2.53125 c 0.7031,-0.56248 1.05466,-1.1953 1.05469,-1.89844 l -0.42187,-2.10937 c -3e-5,-0.84373 0.63278,-1.33592 1.89843,-1.47657 -0.0938,-0.37497 -0.44534,-0.72654 -1.05468,-1.05468 l -0.63282,0 c -0.84377,0.53908 -1.26565,1.03127 -1.26562,1.47656 m -25.52344,9.49219 0,0.42187 c 0,1.94532 0.5625,4.75782 1.6875,8.4375 l -0.21094,0.63281 -0.21093,-0.21093 -0.21094,0 0,0.21093 0.21094,0.21094 -0.63282,0 -0.21093,-0.21094 -0.21094,0 0.63281,-1.05468 0,-0.63282 -0.42187,-0.42187 -0.63282,2.32031 0.63282,0.42188 1.26562,0 c 0.44531,0 0.79687,-0.77344 1.05469,-2.32032 l 0.42187,0 0,-1.05468 -0.21093,-0.21094 0,-0.21094 0.21093,-0.21094 -0.21093,0 -0.21094,0.21094 -1.26563,-2.10937 0,-0.21094 0.84375,0 -0.21093,0.21094 c 0.93749,1.19532 1.5703,2.32032 1.89843,3.375 l 0.63282,0.21093 c -1e-5,-0.28124 0.28124,-0.42187 0.84375,-0.42187 l 0,-0.21094 -0.42188,0 0,-0.21094 2.10938,0 c -1e-5,0.28126 -0.4922,0.42188 -1.47657,0.42188 l 0,0.21094 1.26563,0 0,0.21093 -1.05469,0.21094 0,0.21094 0.63281,0 1.47657,-0.63281 0,-0.63282 -0.42188,0 0,-0.42187 c 1.26562,1e-5 1.89843,-0.77343 1.89844,-2.32031 -0.18751,-1.26562 -0.82032,-1.89843 -1.89844,-1.89844 -0.56251,1e-5 -0.98438,0.28126 -1.26562,0.84375 l 0.42187,1.26562 -0.63281,0.42188 c -0.51563,1e-5 -1.14844,-0.35156 -1.89844,-1.05469 l 0,0.42188 c 0.28125,0.84375 0.84375,1.26563 1.6875,1.26562 l 0.84375,0 c 0.42187,1e-5 0.63281,-0.70312 0.63281,-2.10937 l 0.21094,-0.21094 0.63281,0 0.42188,0.42187 0,1.05469 c -1e-5,0.51563 -0.84376,1.00782 -2.53125,1.47656 -2.25001,1e-5 -3.79688,-2.17967 -4.64063,-6.53906 l 0,-1.6875 c 0,-3.25779 1.26562,-6.07029 3.79688,-8.4375 l 0,-0.21094 -0.42188,0 c -3.23437,2.92971 -4.85156,6.51565 -4.85156,10.75782 m 43.45313,-10.125 0.21093,0 1.47657,-0.21094 0.21093,0.21094 0,-0.21094 -0.21093,-0.21094 -1.26563,0 -0.42187,0.42188 m -1.26563,-0.21094 0,0.63281 0.42188,0 0,-0.63281 -0.42188,0 m -36.70312,0.21094 -0.42188,0.63281 0.21094,0 0.42187,-0.63281 -0.21093,0 m 15.1875,0 0,0.21093 0.21093,0.21094 0.21094,0 0,-0.21094 -0.21094,-0.21093 -0.21093,0 m 25.94531,0 c -5e-5,2.25002 -0.56255,3.37502 -1.6875,3.375 -0.70317,0.18752 -1.05473,0.39845 -1.05469,0.63281 l 0.21094,0 c 1.9687,-0.65623 2.95308,-1.64061 2.95312,-2.95313 l -0.21093,-1.05468 -0.21094,0 m -1.47656,0.21093 -0.21094,0.84375 0.21094,-0.21093 0.21093,0.21093 0.21094,0 0.63281,-0.63281 -0.21093,-0.21094 -0.84375,0 m -23.83594,0.21094 0,0.21094 1.05469,0.84375 0,-0.21094 -1.05469,-0.84375 m 8.22656,0 0.21094,0.21094 0,0.21094 c -3e-5,0.72658 -0.70316,1.85158 -2.10938,3.375 l 0,0.21093 0.21094,0 0,-0.42187 0.42188,0 0.42187,0.42187 -0.63281,0.21094 0.42187,0.42188 c 0.93747,-0.84373 1.85153,-1.26561 2.74219,-1.26563 0.72653,2e-5 1.28903,0.35158 1.6875,1.05469 l 0,0.63281 -0.42187,0.63281 0.42187,0 c 0.51559,-0.25779 0.86715,-0.67967 1.05469,-1.26562 l -0.84375,-1.26563 0.42187,0 0,-0.42187 c -3e-5,-0.42186 -0.56253,-0.70311 -1.6875,-0.84375 -0.53909,2e-5 -1.52347,0.56252 -2.95312,1.6875 l -0.21094,0 0,-0.63281 c 0.91403,2e-5 1.47653,-0.6328 1.6875,-1.89844 l 0,-0.42188 -0.84375,-0.63281 m 13.28906,0.21094 0,0.21094 0.42188,0.42187 0.21094,0 0,-0.63281 -0.63282,0 m -41.34375,1.05469 -1.26562,-0.63282 -0.21094,0 c 0,0.84378 0.42187,1.26565 1.26563,1.26563 l 1.47656,-1.47656 -1.26563,0.84375 m 5.27344,-0.84375 0,0.84375 0.21094,0 0,-0.84375 -0.21094,0 m -2.53125,0.42187 -0.84375,1.26563 0.21094,0 0.84375,-1.26563 -0.21094,0 m 28.47656,0 0,0.21094 0.21094,0.21094 0.21094,0 0,-0.21094 -0.21094,-0.21094 -0.21094,0 m 6.32813,0 -0.21094,0.21094 c -4e-5,0.44533 0.56246,0.72658 1.6875,0.84375 l 0.42188,-0.84375 -1.89844,-0.21094 m -8.01563,0.21094 0,0.21094 0.42188,0 0,-0.21094 -0.42188,0 m 10.33594,0 -0.63281,1.6875 0,0.21094 0.42187,0 c -4e-5,-0.70311 0.42184,-1.33592 1.26563,-1.89844 l -1.05469,0 m -29.10937,2.53125 c 2.17967,1.82814 3.44529,2.7422 3.79687,2.74219 l 0,0.42187 -0.21094,0 -1.47656,-1.05469 -0.42187,0 0,0.63282 2.74218,2.10937 c 0.42186,0.93751 0.70311,2.13283 0.84375,3.58594 l 0.21094,0.21094 0.21094,0 0.21094,-1.05469 c -2e-5,-2.64842 -1.19533,-4.89842 -3.58594,-6.75 l -0.63281,0.21094 0,-0.21094 -0.84375,-1.05469 0.21093,-0.21094 0.21094,0 c 0.0703,0.56252 0.28124,0.84377 0.63281,0.84375 l 0.21094,0 -0.21094,-0.21093 0,-0.21094 c -1e-5,-0.98436 0.49218,-1.47654 1.47657,-1.47656 -0.0703,-0.28123 -0.4219,-0.56248 -1.05469,-0.84375 -0.42189,0.0469 -0.91408,0.39845 -1.47656,1.05468 -0.56252,2e-5 -0.84377,0.28127 -0.84375,0.84375 l -0.21094,0.21094 0.21094,0.21094 m 7.38281,-2.10938 0.42187,0.63282 0,0.42187 -0.63281,0 -0.21094,-0.21094 c -1.40627,0.53909 -2.10939,1.45315 -2.10937,2.74219 l -0.21094,0 c 0.37498,1.96877 1.14842,2.95314 2.32031,2.95313 l 0.42188,0 c 0.84373,-0.84374 1.54685,-1.26561 2.10937,-1.26563 l 0.42188,0 0.84375,0.42188 0,1.26562 -0.42188,0.63281 c 0.63279,-0.28123 0.98435,-0.56248 1.05469,-0.84375 l 0,-1.05468 c -0.49221,-0.98436 -1.19533,-1.47655 -2.10937,-1.47657 l -1.89844,1.89844 -1.05469,0 c -0.70314,-0.35155 -1.0547,-0.91405 -1.05469,-1.6875 l 0,-0.21094 c 0.60936,-1.12498 1.66405,-1.68748 3.16407,-1.6875 2.67185,0.75002 4.00778,2.43752 4.00781,5.0625 0.42185,2e-5 0.63278,0.21095 0.63281,0.63282 l 0,0.21093 0.42188,0 -0.21094,-0.21093 0,-0.21094 0.21094,-0.21094 0,-0.21094 -0.42188,-0.63281 0.42188,-2.53125 c -1.64065,-3.09373 -3.0469,-4.6406 -4.21875,-4.64062 l -0.84375,0 -1.05469,0.21093 m 12.02344,-0.21093 0,0.21093 0.42187,0 0,-0.21093 -0.42187,0 m 6.53906,0 0,0.21093 0.42187,3.375 -0.21093,1.47657 0,0.21093 0.21093,0 0.21094,-1.47656 0,-1.05469 -0.42187,-2.74218 -0.21094,0 m -31.42969,0.42187 c -1e-5,1.5469 -0.56251,2.32033 -1.6875,2.32031 l -0.42187,0 -0.84375,-0.63281 0,0.21094 c -1e-5,0.23439 0.49218,0.51564 1.47656,0.84375 1.12499,-0.37498 1.68749,-1.00779 1.6875,-1.89844 l 0,-0.84375 -0.21094,0 m 35.22656,0.42188 0.84375,0.21093 -0.42187,1.05469 -0.42188,0 -0.21093,-0.84375 -0.21094,0 -0.21094,1.05469 c 0.25777,1.10158 1.10152,2.29689 2.53125,3.58594 l 0.63281,-0.42188 0,0.63281 -0.42187,0 0,0.21094 c 0.70308,1.40626 1.05464,2.46095 1.05469,3.16406 l -0.42188,2.10938 0.21094,-0.21094 0.21094,0 0.84375,1.47656 0.21093,0 0.63282,-1.6875 0.21093,0 0,0.42188 -0.21093,1.05469 0.21093,0.21093 0.63282,0 0,-1.26562 c -5e-5,-0.46874 -0.21099,-0.96093 -0.63282,-1.47656 -4e-5,-0.28124 0.21089,-0.42187 0.63282,-0.42188 -5e-5,-1.28905 -0.8438,-2.1328 -2.53125,-2.53125 l 0,-0.63281 0.84375,0 0.21093,0.21094 0.21094,0 0,-0.42188 -0.21094,-0.21094 0,-0.21093 c 0.70308,1e-5 1.26558,-0.35155 1.6875,-1.05469 -5e-5,-0.39842 -0.70317,-0.74998 -2.10937,-1.05469 l 0,-0.21094 0.42187,0 0,-0.42187 -1.47656,-0.42188 -1.6875,0 -0.42187,-0.42187 0,-0.42188 0.42187,-0.42187 1.6875,0 0,-0.42188 -1.6875,-0.63281 -0.63281,0 -0.42188,0.42188 m -17.08593,0 0,0.42187 0.21093,0 0,-0.42187 -0.21093,0 m -21.72657,0.21093 c -0.70312,1.68752 -1.05469,3.2344 -1.05468,4.64063 l 0,0.21094 c 0.39843,1.68751 1.17187,2.53126 2.32031,2.53125 l 0,-0.21094 -0.21094,-0.84375 c 0.84375,1e-5 1.26562,-0.14061 1.26563,-0.42188 l 0,-0.21093 -0.63282,0 c -1.17188,1e-5 -1.875,-0.84374 -2.10937,-2.53125 0.14062,-1.47655 0.35156,-2.46092 0.63281,-2.95313 l 0,-0.21094 -0.21094,0 m 28.05469,0 0.84375,0 1.05469,0.21094 -0.42188,0.42188 -1.47656,-0.42188 0,-0.21094 m -23.625,1.89844 -0.63281,-0.21094 0,0.21094 0.21094,1.47656 c -0.56251,2e-5 -0.91407,0.4219 -1.05469,1.26563 l 0.21094,2.32031 -0.42188,1.6875 1.26563,0 c 1.26561,-0.18749 1.89842,-0.8203 1.89843,-1.89844 0.28124,2e-5 0.42187,0.21095 0.42188,0.63282 l 0.21094,0.21093 0.84375,0 0.42187,-0.42187 -0.42187,-0.63281 0,-0.84375 0.42187,-0.63282 0,-1.6875 c -0.63282,2e-5 -1.47657,0.4219 -2.53125,1.26563 l -0.21094,0 0,-0.63281 c 1.82812,-0.74999 2.74218,-1.31249 2.74219,-1.6875 l 0.42188,-0.84375 -0.84375,-0.21094 -2.95313,0.63281 m 37.96875,-0.63281 0,0.21094 0.84375,0.42187 0,-0.21094 -0.63281,-0.42187 -0.21094,0 m -23.625,0.21094 0.42188,0 c 1.68747,0.96095 2.53122,2.01564 2.53125,3.16406 l -2.95313,-3.16406 m 5.27344,0.42187 c -0.84378,1.54689 -1.26565,2.88283 -1.26563,4.00781 l 0.21094,0.21094 0.21094,0 c 0.0937,-0.98436 0.5156,-2.03904 1.26562,-3.16406 l 0,-0.21094 -0.21093,0 -0.21094,0.21094 -0.21094,0 0,-0.21094 0.42188,-0.84375 -0.21094,0 m 14.97656,-0.21094 c 1.14839,0.7969 2.27339,1.28908 3.375,1.47657 l 0,0.21093 -1.26562,0 -0.21094,-0.21093 -0.21094,0.21093 -0.21094,0 c -0.77348,2e-5 -1.33598,-0.35154 -1.6875,-1.05468 l 0,-0.21094 0.21094,0.21094 0.21094,0 -0.21094,-0.21094 0,-0.42188 m -30.58594,0.42188 0.63282,10.54687 0.63281,0.21094 1.89844,-0.42187 6.11718,1.05468 0.63282,-1.6875 c -2.25002,1e-5 -4.78127,-1.47655 -7.59375,-4.42968 -0.98439,-1.73436 -1.54689,-3.49217 -1.6875,-5.27344 l -0.63282,0 m 16.03125,0.21094 0,0.21093 0.42188,0 0,-0.21093 -0.42188,0 m 14.97657,0 0,0.21093 0.63281,0.42188 0,-0.21094 -0.63281,-0.42187 m -1.89844,0.42187 -0.21094,0.21094 0,0.42187 0.21094,0 0.21094,-0.21093 0.63281,0.21093 0,0.63282 c -4e-5,0.42189 -0.56254,0.63282 -1.6875,0.63281 -4e-5,0.42189 0.28121,0.63283 0.84375,0.63281 0.58589,-0.18748 1.00777,-0.53905 1.26562,-1.05469 l 0,-0.63281 c -0.28129,-0.56248 -0.70316,-0.84373 -1.26562,-0.84375 m -27.84375,0.21094 0,0.42187 0.21094,0 0,-0.42187 -0.21094,0 m 15.39844,1.6875 0,0.21094 0.21093,0 c -3e-5,-0.84374 0.56247,-1.26561 1.6875,-1.26563 l 0,-0.21094 -0.42187,-0.42187 -0.63281,0 c -0.42191,2e-5 -0.70316,0.56252 -0.84375,1.6875 m -15.1875,-1.05469 0,0.63281 0.21093,0 0,-0.63281 -0.21093,0 m 18.35156,0.42188 0,0.42187 0.63281,-0.21094 0.63281,0.21094 0,0.84375 -0.42187,1.26563 0.21094,0 0.84375,-1.6875 c -0.28129,-0.6328 -0.56254,-0.98436 -0.84375,-1.05469 l -1.05469,0.21094 m -4.00781,0 -0.21094,1.05468 0.42187,0 0,-1.05468 -0.21093,0 m 4.21875,5.69531 c 0.23434,1e-5 0.72653,-0.91405 1.47656,-2.74219 1.40621,-1.26561 2.60152,-1.89842 3.58594,-1.89844 0.63277,2e-5 1.68746,0.49221 3.16406,1.47657 l 1.26562,0.21093 -1.05468,0.84375 0,0.21094 -0.42188,0 0,-0.21094 0.21094,-0.63281 -0.21094,0 c -0.86723,0.28126 -1.35941,0.63283 -1.47656,1.05469 l 0,2.10937 -0.21094,-0.21093 -0.21094,0 0.21094,0.63281 -0.84375,1.26562 0,0.21094 0.21094,0 c 1.12496,1e-5 1.68746,-0.70311 1.6875,-2.10937 l 0.42187,0 c -4e-5,0.56251 0.14059,0.84376 0.42188,0.84375 l 0.21094,0 0.84375,-1.05469 0,-0.21094 c -0.56255,-0.58592 -0.84379,-1.14842 -0.84375,-1.6875 l 0.63281,-0.42187 c 0.89058,0.89063 1.66402,1.38282 2.32031,1.47656 l 0,-0.84375 1.05469,0.21094 0.21094,-0.21094 0,-0.63281 c -0.6563,1e-5 -1.2188,-0.42187 -1.6875,-1.26563 l -1.26563,-0.42187 -0.21094,0.84375 c -1.52347,-1.26561 -2.71879,-1.89843 -3.58593,-1.89844 l -0.63282,0 c -2.67191,1e-5 -4.42972,1.47658 -5.27343,4.42969 l 0,0.63281 m -21.72657,-5.0625 0.84375,0.63281 -0.21093,0.21094 -0.63282,-0.21094 -0.21093,0 0,0.21094 c 0.42186,1e-5 0.6328,0.14064 0.63281,0.42187 l -1.26563,0 0,-0.63281 0.42188,0 -0.21094,-0.21094 0,-0.21093 0.63281,-0.21094 m 37.54688,0.42187 0.21094,0.21094 0,0.84375 -0.42188,0 0,-0.63281 -0.21094,0 0,0.84375 0.63282,1.05469 0.21093,0 0.21094,-1.6875 -0.21094,-0.84375 -0.21093,0.21093 -0.21094,0 m -39.65625,-0.21093 0.63281,0.21093 0,0.21094 -0.42187,0.42188 -0.21094,0 -0.42188,-0.42188 0.42188,-0.42187 m 37.75781,0 -1.05469,1.05468 0,-0.84375 1.05469,-0.21093 m -18.5625,0.42187 c -3e-5,0.77345 -0.28128,1.54689 -0.84375,2.32031 l 0.21094,0 c -3e-5,-0.35155 0.28122,-0.56248 0.84375,-0.63281 l 0,-1.6875 -0.21094,0 m 0.63281,0.21094 0,0.63281 0.21094,0 0,-0.63281 -0.21094,0 m -20.25,0.21094 0.42188,0.42187 0,0.21094 -0.63281,0 0,0.21094 0.42187,0 0,0.21093 -0.42187,0.42188 -0.21094,-0.21094 0,-0.84375 0.42187,-0.42187 m 21.72657,5.90625 0,0.63281 -0.42188,1.26562 c 2.48434,-0.42186 4.45309,-1.33593 5.90625,-2.74218 1.64059,-2.06249 2.55465,-3.67968 2.74219,-4.85157 l -1.89844,0 c -1.24222,2.08595 -2.29691,3.56251 -3.16406,4.42969 l -3.16406,1.26563 m 8.64843,-5.69532 c -0.28128,1.94533 -1.4766,3.84376 -3.58593,5.69532 -2.25004,1.54688 -4.14847,2.32032 -5.69532,2.32031 l 0,0.42187 c 4.03122,1e-5 7.19528,-2.67186 9.49219,-8.01562 l 0,-0.42188 -0.21094,0 m -28.89843,0 1.05468,0.21094 0,0.63281 -0.21093,0 -1.05469,-0.21093 0,-0.21094 0.21094,-0.21094 0,-0.21094 m 6.53906,1.05469 0,0.21094 0.21094,-0.21094 0.21093,0 0.21094,0.21094 0.21094,0 0,-0.21094 -0.42188,-0.42187 L 172,188.21457 m 13.28906,1.05469 -0.63281,0 c -3e-5,-0.56249 -0.14066,-0.84374 -0.42188,-0.84375 l -0.21093,0 c -0.25784,1e-5 -0.60941,0.4922 -1.05469,1.47656 l 0.21094,0.21094 0,1.26562 c -3e-5,0.65626 -0.35159,1.57032 -1.05469,2.74219 -3e-5,0.84376 -0.14065,1.26563 -0.42188,1.26563 l -0.63281,0 0,-0.42188 c -2e-5,-0.46874 0.42185,-1.24218 1.26563,-2.32031 l 0.21093,-1.26563 0,-0.42187 c -2e-5,-1.03124 -0.21096,-1.59374 -0.63281,-1.6875 l -1.05469,1.26562 c -2e-5,-0.86717 -0.70315,-1.42967 -2.10937,-1.6875 l 0.42187,0.84375 -0.21093,0.21094 -0.21094,-0.21094 -1.26563,0 -0.63281,0.63282 0,0.84375 0.21094,0 c -2e-5,-0.42187 0.1406,-0.63281 0.42187,-0.63282 1.05467,0.16408 1.61717,0.44533 1.6875,0.84375 l 0,1.47657 -1.47656,2.95312 c 0.28123,1e-5 0.56248,-0.56249 0.84375,-1.6875 l 0.63281,-0.42187 0.21094,0 c 0.0234,0.5625 0.16404,0.84375 0.42188,0.84375 l -0.63282,1.47656 -0.42187,0 0,-0.63281 -0.21094,0 0,0.84375 -0.21094,0 -0.21093,-0.21094 -0.21094,0 0,0.42187 c -2e-5,0.28126 0.28123,0.42188 0.84375,0.42188 l 0.21094,0.21094 0,0.21093 -1.05469,1.26563 1.47656,0.21094 1.47656,-1.05469 0.63282,0 0.21093,0.21094 c 1.96873,-0.84375 2.9531,-2.10937 2.95313,-3.79688 l 1.47656,-4.64062 1.6875,-1.26563 -1.26562,-0.42187 c -0.84378,0.28126 -1.26566,0.77345 -1.26563,1.47656 m -9.70312,-0.84375 -0.63282,2.95312 0.21094,0 c 0.39842,-1.68748 0.82029,-2.53123 1.26563,-2.53125 l 0.21093,0.21094 0.21094,0 0,-0.21094 -0.42187,-0.42187 -0.84375,0 m -12.23438,0 0.21094,0 0.42187,0.42187 0,0.21094 -0.63281,0.21094 0,-0.84375 m 34.59375,0.42187 0.42188,0 1.05468,0.21094 -0.63281,0.63281 -0.84375,-0.84375 m 4.00781,0 0.42188,0 c 0.21089,1.26564 0.63276,1.89845 1.26562,1.89844 l -0.42187,0.42188 -0.63281,0 -0.63282,-2.32032 m -44.71875,1.05469 c 0.21094,1e-5 0.42188,0.28126 0.63282,0.84375 l 0.42187,0 -0.21094,0.21094 0,0.21094 0.42188,0 0,0.42187 c -0.375,1e-5 -0.79688,0.21095 -1.26563,0.63281 l 0,-0.63281 0.21094,-0.21094 -0.21094,-0.21093 0,-0.21094 0.21094,-0.21094 -0.21094,-0.21094 0,-0.63281 m 39.02344,0.21094 0.63281,0 0.21094,1.05469 -0.21094,0.21093 -0.42187,0 -0.21094,-1.26562 m 8.22656,0.21094 0,0.42187 0.21094,0 0,-0.42187 -0.21094,0 m -22.78125,0.21093 0.42188,0 0.21094,1.05469 c -0.21097,0.56251 -0.42191,0.84376 -0.63282,0.84375 l -0.21093,0 0.21093,-1.05469 0,-0.84375 m 16.03125,1.26563 c -0.42191,1.54688 -0.98441,2.32032 -1.6875,2.32031 l 0,0.42188 0.21094,0 c 1.12496,-0.91406 1.68746,-1.68749 1.6875,-2.32032 l 0,-0.42187 -0.21094,0 m 1.26563,0 -0.63281,0.84375 0,0.84375 0.21093,1.05469 0.84375,0 1.05469,-0.21094 0,0.84375 c 0.77339,1e-5 1.33589,-0.35156 1.6875,-1.05469 -5e-5,-0.74999 -0.35161,-1.45311 -1.05469,-2.10937 -4e-5,0.72657 -0.63285,1.21875 -1.89843,1.47656 l -0.42188,-0.42188 0,-0.63281 c -4e-5,-0.28124 0.35152,-0.42186 1.05469,-0.42187 l 0,-0.21094 -0.84375,0 m -41.13281,0 0.42187,0 0.42188,0.42187 0,0.21094 -0.21094,-0.21094 -0.21094,0.21094 -0.63281,0 0.21094,-0.63281 m 45.77343,0.63281 0.42188,0 0,0.42188 -0.42188,0 0,-0.42188 m -8.22656,1.05469 0,0.21094 0.42188,0 0,-0.63282 -0.42188,0.42188 m 7.80469,-0.21094 0,0.42188 c -0.56255,0 -0.8438,0.35157 -0.84375,1.05468 l -0.21094,0 0.21094,0.21094 0,0.21094 -0.21094,1.6875 c -0.2813,0 -0.42192,-0.42187 -0.42187,-1.26563 l -0.42188,0 0,1.05469 0.42188,0.84375 c 0.2812,1e-5 0.42182,-0.21093 0.42187,-0.63281 l 0.42188,0 -0.21094,1.47656 0.63281,0.42188 0.63281,0 0.42188,-0.42188 c -0.30474,0 -0.6563,-0.49218 -1.05469,-1.47656 l 0.84375,-3.16406 -0.42187,-0.42188 -0.21094,0 m -12.44531,1.89844 c -4e-5,0.5625 0.84371,1.19532 2.53125,1.89844 l 0.21093,0 0,-0.21094 c -0.89066,0 -1.59378,-0.63281 -2.10937,-1.89844 -4e-5,-0.42187 0.42184,-0.6328 1.26562,-0.63281 l 0,-0.84375 -1.05468,0 c -0.42191,1e-5 -0.70316,0.56251 -0.84375,1.6875 m 10.75781,-1.89844 0.21094,0.21094 0.21093,0 c -0.32817,0.84376 -0.60942,1.26563 -0.84375,1.26562 l -0.42187,0 0.84375,-1.47656 m -35.22656,1.26563 0,0.21093 0.21093,0 c -1e-5,-0.42186 0.21093,-0.6328 0.63282,-0.63281 0.6328,0.28126 0.98436,0.56251 1.05468,0.84375 l 0,0.63281 c -1e-5,0.84376 -1.19532,1.26563 -3.58593,1.26563 l 0,0.21094 2.32031,0 c 0.74999,0 1.3828,-0.42187 1.89844,-1.26563 l 0,-0.42187 c -2e-5,-1.125 -0.4922,-1.6875 -1.47657,-1.6875 l -0.42187,0 c -0.21095,0 -0.42189,0.28125 -0.63281,0.84375 m 18.14062,-1.05469 0.21094,0 0,0.21094 c -0.44534,1.66407 -0.86722,2.50781 -1.26563,2.53125 l -0.21093,0 0,-0.42188 1.26562,-2.32031 m 9.91406,0.63281 0.42188,0 0,-0.42187 -0.42188,0.42187 m -0.84375,-0.21094 0,0.63282 0.42188,0 0,-0.21094 -0.42188,-0.42188 m -24.04687,0.63282 0.42187,0.42187 1.6875,-0.42187 5.48438,1.26562 0,-0.63281 -0.21094,0 -5.69531,-1.05469 -1.6875,0.42188 m 25.73437,-0.21094 -0.21093,0.21094 0,0.42187 0.63281,0 0,-0.21094 -0.42188,-0.42187 m -16.24218,0.21094 -0.21094,0.21093 0,0.42188 0.21094,0 0.21093,-0.63281 -0.21093,0 m 18.5625,0 -0.42188,1.6875 0.84375,0.63281 0.63281,0 1.6875,-0.63281 -0.42187,-0.42188 -0.42188,0.42188 -1.05468,0 -0.21094,-0.21094 -0.21094,-0.63281 -0.21094,0 0.21094,-0.21094 0,-0.21094 -0.42187,-0.42187 m -8.4375,0.42187 0,0.21094 c 1.64059,2.10938 3.82027,3.16406 6.53906,3.16406 l 0.42187,0 c 1.96871,0 3.5859,-0.63281 4.85157,-1.89844 l 0,-0.21093 c -1.33599,1.125 -3.23442,1.6875 -5.69532,1.6875 -3.51566,-0.84375 -5.27347,-1.82812 -5.27343,-2.95313 l -0.84375,0 m 5.0625,0 0,0.63281 0.42187,-0.42187 -0.21094,-0.21094 -0.21093,0 m -22.35938,0.21094 c -1.38283,1.54688 -3.07032,2.32032 -5.0625,2.32031 l -1.05469,0 -2.10937,-0.21094 c -1e-5,0.35157 0.77343,0.63282 2.32031,0.84375 2.97655,1e-5 5.22655,-0.91405 6.75,-2.74218 l -0.84375,-0.21094 m 24.46875,0 0,0.42187 0.42188,0 0,-0.42187 -0.42188,0 m -3.16406,0.21094 0,0.42187 0.42187,0 0,-0.42187 -0.42187,0 m -12.44531,0 0.21093,0.63281 0.42188,0 0.21094,-0.21094 0.21093,0 0,0.63281 -0.84375,0 c -0.21096,1e-5 -0.4219,-0.28124 -0.63281,-0.84375 l 0.21094,-0.21093 0.21094,0 m 14.55468,0.21093 -0.21093,0.21094 0,0.42188 0.63281,0 0,-0.21094 -0.42188,-0.42188 m -23.625,1.47657 2.53125,-0.84375 c 1.12498,0.25781 1.68748,0.53906 1.6875,0.84375 l 0,0.21093 c -2e-5,0.84376 -0.42189,1.26563 -1.26562,1.26563 l -0.21094,-0.21094 -0.21094,0 0,0.21094 0.21094,0.21094 0.84375,0 c 0.74998,0 1.24217,-0.28125 1.47656,-0.84375 l 0,-0.42188 c -2e-5,-1.12499 -0.91408,-1.68749 -2.74218,-1.6875 -1.5469,0.46876 -2.32033,0.89063 -2.32032,1.26563 M 185.5,197.70676 c -3e-5,0.70313 0.35153,1.05469 1.05469,1.05469 l -0.42188,-1.26563 c 0.5156,-0.42187 1.00778,-0.63281 1.47656,-0.63281 l 4.85157,1.47656 0.21093,0 0,-0.21094 -4.85156,-1.89843 -0.84375,0 c -0.9844,0 -1.47659,0.49219 -1.47656,1.47656 m -24.04688,-1.26563 0,0.21094 0.84375,0 0,-0.21094 -0.84375,0 m 18.5625,0 1.05469,0.21094 0,0.42188 -1.05469,0 0,-0.63282 m -18.98437,0.63282 0,0.21093 0.21094,0.63282 -0.21094,0.63281 0.21094,0 0.42187,-0.42188 0,-0.42187 -0.63281,-0.63281 m 39.02344,1.05468 0.42187,0.42188 c -4e-5,-0.375 0.21089,-0.79687 0.63281,-1.26563 l 0,-0.21093 -1.05468,1.05468 m -20.25,-1.05468 c 0.56247,0.21094 0.84372,0.42188 0.84375,0.63281 l -0.42188,0 -0.42187,-0.42188 0,-0.21093"
         style="font-size:72px;font-variant:normal;font-stretch:normal;font-family:Goudy Initials;-inkscape-font-specification:Goudy Initials"
         id="path4539" />
    </g>
  </g>
</svg>
