<?xml version="1.0" encoding="UTF-8" standalone="no"?>
<!-- Created with Inkscape (http://www.inkscape.org/) -->

<svg
   xmlns:dc="http://purl.org/dc/elements/1.1/"
   xmlns:cc="http://creativecommons.org/ns#"
   xmlns:rdf="http://www.w3.org/1999/02/22-rdf-syntax-ns#"
   xmlns:svg="http://www.w3.org/2000/svg"
   xmlns="http://www.w3.org/2000/svg"
   xmlns:sodipodi="http://sodipodi.sourceforge.net/DTD/sodipodi-0.dtd"
   xmlns:inkscape="http://www.inkscape.org/namespaces/inkscape"
   width="56.734375"
   height="56.734375"
   id="svg2"
   version="1.1"
   inkscape:version="0.48.5 r10040"
   sodipodi:docname="s.svg">
  <defs
     id="defs4" />
  <sodipodi:namedview
     id="base"
     pagecolor="#ffffff"
     bordercolor="#666666"
     borderopacity="1.0"
     inkscape:pageopacity="0"
     inkscape:pageshadow="2"
     inkscape:zoom="3.959798"
     inkscape:cx="43.996764"
     inkscape:cy="5.617196"
     inkscape:document-units="px"
     inkscape:current-layer="layer1"
     showgrid="false"
     fit-margin-top="2"
     fit-margin-left="2"
     fit-margin-right="2"
     fit-margin-bottom="2"
     inkscape:window-width="1366"
     inkscape:window-height="733"
     inkscape:window-x="0"
     inkscape:window-y="0"
     inkscape:window-maximized="1"
     showborder="true"
     borderlayer="false" />
  <metadata
     id="metadata7">
    <rdf:RDF>
      <cc:Work
         rdf:about="">
        <dc:format>image/svg+xml</dc:format>
        <dc:type
           rdf:resource="http://purl.org/dc/dcmitype/StillImage" />
        <dc:title></dc:title>
      </cc:Work>
    </rdf:RDF>
  </metadata>
  <g
     inkscape:label="Layer 1"
     inkscape:groupmode="layer"
     id="layer1"
     transform="translate(-152.28125,-146.34738)">
    <g
       style="font-size:40px;font-style:normal;font-weight:normal;line-height:125%;letter-spacing:0px;word-spacing:0px;fill:#ffffff;fill-opacity:1;stroke:none;font-family:Sans"
       id="flowRoot2985">
      <path
         d="m 154.28125,148.34738 52.73437,0 0,52.73438 -52.73437,0 0,-52.73438 m 1.05469,1.05469 0,50.625 50.625,0 0,-50.625 -50.625,0 m 0.42187,0.63281 49.57031,0 0,49.57032 -49.57031,0 0,-49.57032 m 4.85156,2.74219 0.42188,0 c 1.59374,-0.98432 3.56249,-1.61714 5.90625,-1.89844 4.24217,5e-5 7.47654,1.9688 9.70312,5.90625 l 0.21094,0 0,-0.63281 c -2.60158,-3.6562 -5.90626,-5.48432 -9.91406,-5.48437 -2.48439,5e-5 -4.59376,0.70317 -6.32813,2.10937 m 15.39844,-0.42187 0,0.21093 0.21094,0 c 0.16404,-0.98432 0.79685,-1.47651 1.89844,-1.47656 0.98435,5e-5 1.47653,0.42193 1.47656,1.26563 l 0.42187,0 c -2e-5,-1.12495 -0.63283,-1.68745 -1.89843,-1.6875 -1.40627,0.37505 -2.1094,0.93755 -2.10938,1.6875 m 18.14063,-1.6875 0,0.21093 0.42187,0 0,-0.21093 -0.42187,0 m -8.64844,0.21093 1.05469,1.89844 c -0.3516,-1.26557 -0.70316,-1.89839 -1.05469,-1.89844 m 7.17187,0 0,0.21094 0.84375,0 0,-0.21094 -0.84375,0 m 2.32032,0 0,0.21094 0.84375,0 0,-0.21094 -0.84375,0 m -6.53907,0.21094 -0.21093,0.21094 0,0.21094 0.21093,0 0.21094,-0.21094 0,-0.21094 -0.21094,0 m 3.375,0 0,0.21094 0.63282,0 0,-0.21094 -0.63282,0 m 4.21875,0 0,0.21094 0.63282,0 0,-0.21094 -0.63282,0 m -4.85156,0.21094 0,0.21094 0.42188,0 0,-0.21094 -0.42188,0 m 5.69531,0 0,0.21094 0.42188,0 0,-0.21094 -0.42188,0 m -23.625,0.21094 0,0.42187 0.21094,0 0,-0.42187 -0.21094,0 m 0.84375,0 0,0.42187 0.63282,0.84375 0.21093,0 c -0.28127,-0.8437 -0.56252,-1.26557 -0.84375,-1.26562 m 16.03125,0.21093 0,0.21094 0.21094,0 0.63281,-0.21094 0,-0.21093 -0.21093,0 -0.63282,0.21093 m 7.38282,-0.21093 0,0.21093 0.42187,0 0,-0.21093 -0.42187,0 m 0.63281,0.21093 0,0.21094 0.63281,0.21094 0.21094,0 0,-0.21094 -0.63281,-0.21094 -0.21094,0 m 5.90625,0 -0.42188,0.84375 0.21094,0 c 0.2812,5e-5 0.42183,-0.21088 0.42188,-0.63281 l 0,-0.21094 -0.21094,0 m -46.82813,0.21094 0,0.42188 0.63282,0.21093 0.42187,0 0,-0.21093 -1.05469,-0.42188 m 9.70313,0.42188 0,0.21093 0.42187,0 0,-0.63281 -0.42187,0.42188 m 22.14844,-0.21094 0,0.21094 0.21093,0 0.63282,-0.21094 0,-0.21094 -0.21094,0 -0.63281,0.21094 m 6.11718,-0.21094 0.21094,0.84375 0.42188,-0.42187 0,-0.21094 -0.63282,-0.21094 m 4.00782,0.21094 0,0.21094 1.05468,0.42187 0.21094,0 0,-0.21094 -1.05469,-0.42187 -0.21093,0 m 3.375,0.42187 0,0.21094 0.84375,0 0,-0.21094 -0.84375,0 m -13.07813,1.05469 -12.65625,0 c 0.25779,1.12505 0.67967,1.68755 1.26563,1.6875 0.37497,5e-5 0.65622,1.05473 0.84375,3.16406 l 0,21.9375 3.16406,0.21094 0.21094,-0.21094 0,-22.14843 c -3e-5,-2.10933 0.56247,-3.16402 1.6875,-3.16407 l 2.32031,0 c 9.98433,5e-5 14.97652,0.77349 14.97656,2.32032 0.51558,2.01566 0.93745,3.07035 1.26563,3.16406 l 0,-0.42188 c -5e-5,-1.73433 -0.35161,-3.56245 -1.05469,-5.48437 l 0,-1.26563 -12.02344,0.21094 m -30.16406,0 0,0.21094 -1.05469,5.90625 0.21094,0.84375 0.21094,0 c -1e-5,-3.14058 2.03905,-4.89839 6.11718,-5.27344 l 10.125,0 c -0.65627,-1.12495 -1.4297,-1.68745 -2.32031,-1.6875 l -13.28906,0 m 42.82031,0.21094 0,0.84375 0.63281,2.53125 0.21094,0 0,-0.63281 c -0.42192,-0.84371 -0.63286,-1.75777 -0.63281,-2.74219 l -0.21094,0 m -45.5625,0.42187 0.42188,0.42188 0.21093,0 0.42188,-0.42188 -0.21094,0 0,0.21094 -0.21094,-0.21094 -0.63281,0 m 1.6875,0.84375 c -1.125,1.71099 -1.6875,3.53911 -1.6875,5.48438 0,3.00004 1.40625,5.74222 4.21875,8.22656 l 0.21094,1.05469 c -1e-5,0.77347 -0.35157,1.33597 -1.05469,1.6875 l -0.21094,0 c -0.70312,-0.21091 -1.05469,-1.12497 -1.05468,-2.74219 l 0,-0.84375 c -1e-5,-0.35153 -0.28126,-0.56246 -0.84375,-0.63281 l -0.21094,0 0,0.21094 c 0.42187,3e-5 0.63281,1.12503 0.63281,3.375 0.39844,0.56253 0.96094,0.84378 1.6875,0.84375 1.26562,3e-5 1.89843,-0.84372 1.89844,-2.53125 l 0,-0.63282 0.63281,0 c -1e-5,-0.67965 -0.98438,-1.45309 -2.95312,-2.32031 l 0,-0.63281 0.42187,0 c 1.6875,1.26566 2.81249,1.89847 3.375,1.89844 l 0.21094,0 0,-0.21094 -0.42188,0 0,-0.21094 2.10938,-0.42187 c -1e-5,0.32816 -0.35157,0.53909 -1.05469,0.63281 l 0,0.21094 0.21094,0 1.47656,-0.63282 -0.21094,-0.21093 0,-0.42188 c 0.70312,-0.82028 1.05468,-1.5234 1.05469,-2.10937 -1e-5,-0.56247 -0.28126,-0.98434 -0.84375,-1.26563 l 0.21094,1.05469 c -0.70314,1.40629 -1.75782,2.10941 -3.16406,2.10937 -2.39063,4e-5 -4.21876,-1.68746 -5.48438,-5.0625 l -0.21094,-1.6875 0,-0.84375 c 0,-0.77339 0.42188,-1.89839 1.26563,-3.375 l -0.21094,0 m 44.92969,0.42188 0,0.21094 1.05469,3.58593 c -5e-5,3.11723 -1.68755,5.64848 -5.0625,7.59375 l -1.47657,0.42188 -1.47656,0 c -1.40629,3e-5 -2.10941,-0.70309 -2.10937,-2.10938 l -0.21094,0 -0.63281,2.10938 c 0.86715,0.56253 1.57027,0.84378 2.10937,0.84375 l 2.32031,-0.63281 0.63282,0 0.42187,0.42187 c -3.23441,0.42191 -4.8516,0.77347 -4.85156,1.05469 l 0.21094,0.21094 -1.05469,0.42187 0,1.05469 0.21094,0 c 0.53902,-0.65622 2.50777,-1.42966 5.90625,-2.32031 l 0.21093,-0.21094 c -4e-5,-0.86715 0.91402,-1.57028 2.74219,-2.10938 l -0.21094,0.21094 0,0.21094 0.21094,0 c 1.54683,-2.01559 2.32026,-3.98434 2.32031,-5.90625 l 0,-1.89844 c -5e-5,-0.56246 -0.35161,-1.61714 -1.05468,-3.16406 l -0.21094,0 m -37.96875,0.21094 0,0.21093 10.125,0 0,-0.21093 -10.125,0 m 18.14062,0 -0.42187,1.89843 0,22.57032 0.21094,0 0,-22.35938 c 0.14059,-1.26558 0.42184,-1.89839 0.84375,-1.89844 l 11.39062,0 0,-0.21093 -12.02344,0 m -19.82812,0.21093 0,0.21094 0.84375,0 0,-0.21094 -0.84375,0 m 33.32812,0 0,0.21094 0.63282,0 0,-0.21094 -0.63282,0 m -34.38281,0.21094 0,0.21094 0.63281,0 0,-0.21094 -0.63281,0 m -1.05469,0.42188 c -1.05469,0.7266 -1.82813,2.06254 -2.32031,4.00781 l -0.42187,0.63281 0,0.21094 c 0.37499,4e-5 0.86718,-1.05465 1.47656,-3.16406 0.74999,-0.98433 1.31249,-1.47652 1.6875,-1.47657 l 0,-0.21093 -0.42188,0 m 4.64063,0.63281 0.21094,0.21094 0,0.42187 c -1.26564,5e-5 -1.89845,1.26567 -1.89844,3.79688 l -0.21094,0.21093 0.84375,0 1.05469,-0.63281 0.42187,0.63281 c 0.37499,4e-5 1.07812,-0.77339 2.10938,-2.32031 l 0.63281,-0.21094 0,0.21094 -0.42187,0.63281 0,0.63282 0.21093,-0.21094 0.21094,0 c 1.14842,4e-5 1.99217,0.77348 2.53125,2.32031 l 0,0.84375 0.21094,0 0,-1.26562 c -2e-5,-0.46871 -0.35158,-1.17184 -1.05469,-2.10938 l 0.21094,0 0.63281,0.42188 c -0.53908,-1.54684 -1.38283,-2.32027 -2.53125,-2.32032 l -0.42187,0 -2.10938,0.42188 0,-0.21094 c 0.18749,-0.56246 0.8203,-0.8437 1.89844,-0.84375 l 0.63281,0 c 1.14842,5e-5 2.06249,0.77348 2.74219,2.32031 l 0.21094,0 0,-0.21093 -0.42188,-1.05469 0.21094,-0.21094 0,-0.21094 c -0.25783,-1.12495 -0.53908,-1.68745 -0.84375,-1.6875 l -0.21094,0 c -1e-5,0.42192 -0.14064,0.63286 -0.42187,0.63282 l -2.74219,-0.84375 -1.6875,0.63281 m 7.59375,0.21094 0.21094,0.21093 0.21093,0 0.42188,-0.42187 0.84375,0 c 0.84373,0.44536 1.2656,1.21879 1.26562,2.32031 l 0,1.6875 0.42188,0 0,-0.84375 c -2e-5,-2.5312 -0.77346,-3.79683 -2.32031,-3.79687 -0.56252,4e-5 -0.91408,0.28129 -1.05469,0.84375 m 10.125,3.58593 0,0.42188 c -3e-5,1.94535 0.77341,3.84379 2.32031,5.69531 l 0.21094,-0.21094 0,-0.21093 c -1.40628,-1.85153 -2.1094,-3.82028 -2.10938,-5.90625 -2e-5,-1.1484 0.28122,-2.55465 0.84375,-4.21875 -0.46878,4e-5 -0.89065,1.4766 -1.26562,4.42968 m -6.53906,-3.58593 0.21093,3.16406 0,1.05469 c -2e-5,1.17191 -0.56252,3.07035 -1.6875,5.69531 1.54686,-1.40622 2.32029,-3.65621 2.32032,-6.75 l -0.42188,-3.16406 0.21094,-0.63282 -0.63281,0.63282 m 11.39062,-0.63282 0,0.21094 c 0.37497,5e-5 0.79684,0.21098 1.26563,0.63281 l 0,-0.21093 c -4e-5,-0.35152 -0.28129,-0.56246 -0.84375,-0.63282 l -0.42188,0 m 3.58594,0 0,0.84375 c 0.42184,5e-5 0.63277,0.63286 0.63281,1.89844 l 0,0.21094 -0.21094,0 -0.42187,-1.89844 -0.21094,0 0,1.6875 c 0.28121,0.56254 0.70309,0.84379 1.26563,0.84375 l 0,-0.42187 0.63281,0.42187 0,-0.84375 0.21094,0.21094 0.21093,0 0,-0.42188 -0.42187,-0.63281 0,-0.21094 0.21094,0 c 0.28121,5e-5 0.42183,0.21098 0.42187,0.63282 l 0.21094,0 0.21094,-0.21094 0.21093,0 0.42188,0.42187 0,-0.42187 0.21094,0 c -0.37504,-1.40621 -1.14848,-2.10933 -2.32032,-2.10938 l -1.26562,0 m 10.75781,0.63282 0,0.63281 0.21094,2.32031 c -5e-5,0.42192 -0.21099,0.63285 -0.63281,0.63281 l 0,0.21094 0.63281,0 0.21094,-1.05469 -0.21094,-2.74218 -0.21094,0 m -6.53906,1.26562 0.63281,0.42188 0.42188,-0.42188 0.42187,0.42188 0.63281,-0.21094 0,0.63281 -0.42187,0 0,0.21094 0.21094,0 c 1.26558,-0.60933 1.89839,-1.10152 1.89843,-1.47656 l -2.10937,-0.63282 c -0.77348,5e-5 -1.33598,0.35161 -1.6875,1.05469 m -6.96094,-0.84375 0,0.42188 0.21094,0 0,-0.42188 -0.21094,0 m -27.63281,0.21094 0,0.63281 0.42187,0 0,-0.63281 -0.42187,0 m 23.41406,1.26562 0,0.21094 1.05469,-0.84375 0.63281,0 c 0.56247,4e-5 0.84372,0.56254 0.84375,1.6875 l 0.42188,-0.42187 0,-0.42188 c -4e-5,-0.98433 -0.49222,-1.47652 -1.47657,-1.47656 l -0.21093,0 c -0.56253,0.28129 -0.98441,0.70317 -1.26563,1.26562 m -22.14844,-1.05468 0,0.42187 0.42188,0 -0.42188,-0.42187 m 25.73438,3.58593 0,0.63282 c -3e-5,1.94535 1.19528,3.42191 3.58594,4.42968 l 0,-0.21093 c -2.10941,-1.07809 -3.1641,-2.41403 -3.16407,-4.00782 l 0,-1.47656 c -3e-5,-0.74996 0.70309,-1.66402 2.10938,-2.74219 l 0,-0.21093 -0.21094,0 c -1.54691,0.77348 -2.32034,1.96879 -2.32031,3.58593 m -22.35938,-2.95312 0.21094,0 -1.6875,2.53125 -0.21094,0 0,-0.42188 c 0.39843,-0.98433 0.96093,-1.68745 1.6875,-2.10937 m -4.85156,0.42187 0.42188,0.42188 0.21093,0 -0.42187,-0.42188 -0.21094,0 m 12.02344,0.21094 -0.84375,1.89844 0,0.21094 c -2e-5,0.37504 0.70311,0.79691 2.10937,1.26562 l 0,-0.21094 -1.47656,-1.26562 0,-0.42188 0.63281,-0.63281 0.21094,0 c 1.12498,4e-5 1.68748,0.63285 1.6875,1.89844 l 0,1.26562 c -2e-5,1.19535 -0.70314,2.6016 -2.10937,4.21875 1.2656,4e-5 2.17966,-1.54684 2.74218,-4.64062 l 0,-0.42188 c -0.3047,-2.10933 -1.21877,-3.16402 -2.74218,-3.16406 l -0.21094,0 m 11.39062,0.21094 0,0.42187 0.21094,0 0,-0.42187 -0.21094,0 m 9.07032,2.10937 0,0.42188 c -4e-5,0.60941 0.63277,1.6641 1.89843,3.16406 l 0,0.21094 -0.21093,0.21094 0,0.21093 0.21093,0 c 0.37496,4e-5 0.65621,-0.56246 0.84375,-1.6875 -1.40629,-0.74996 -2.17972,-1.38277 -2.32031,-1.89843 l 0,-0.42188 0.63281,0 c -4e-5,0.75004 0.42184,1.24223 1.26563,1.47656 l 0,-0.42187 c -0.56254,4e-5 -0.98442,-0.70309 -1.26563,-2.10938 l 0,-0.63281 0.42188,0 -0.21094,0.21094 0.63281,2.10937 0.42188,0 0,-2.10937 -0.42188,0 0,-0.42188 1.05469,0 -0.21094,0.21094 0.21094,0.84375 -0.21094,1.6875 c 0.0937,1.12504 0.65621,1.68754 1.6875,1.6875 l 0.21094,0 0,-0.63281 1.47656,0 0.42188,-0.42188 c -1.12505,4e-5 -1.68754,-0.2109 -1.6875,-0.63281 l 0.21094,-0.21094 c -0.51567,-0.42183 -1.00786,-1.26558 -1.47657,-2.53125 l -0.21093,-0.21093 -2.10938,0 c -0.84379,0.49222 -1.26566,1.12504 -1.26562,1.89843 m -4.21875,-0.63281 c 0.28121,4e-5 0.42184,-0.2109 0.42187,-0.63281 l 0.42188,0 0.63281,0.42187 0,-0.42187 c -4e-5,-0.28121 -0.21097,-0.42183 -0.63281,-0.42188 -0.56254,0.14067 -0.84379,0.49223 -0.84375,1.05469 m 8.4375,-1.05469 0,0.21094 0.63281,0 0,0.21094 -0.21094,0.21094 0,0.21093 0.42188,0 0,-0.42187 -0.42188,-0.42188 -0.42187,0 m -37.125,0.84375 -0.42188,1.47657 0.63281,0 0,1.47656 0.21094,0 c 0,-0.84371 0.35156,-1.26559 1.05469,-1.26563 l 0.42187,-1.05468 -1.26562,0.42187 0,-0.21094 c -1e-5,-0.56246 -0.21094,-0.84371 -0.63281,-0.84375 m 24.46875,1.6875 0.42187,0.42188 c -3e-5,-0.84371 0.21091,-1.26559 0.63281,-1.26563 l 0.42188,0 c 0.42184,4e-5 0.84372,0.77348 1.26562,2.32032 l 0.21094,0 0,-0.21094 c -0.35159,-1.82809 -0.98441,-2.74215 -1.89844,-2.74219 -0.70315,0.18754 -1.05471,0.67973 -1.05468,1.47656 m 5.90625,-0.21093 c 0.23433,1.12503 0.44527,1.68753 0.63281,1.6875 0.63277,-0.23434 1.12496,-0.65622 1.47656,-1.26563 l -0.21094,-0.21094 -1.05468,0 0,0.63282 -0.42188,0 0,-0.63282 0.42188,-0.84375 0.21093,0 0,0.42188 0.84375,-0.84375 -0.84375,-0.21094 c -0.70316,0.23442 -1.05472,0.65629 -1.05468,1.26563 m 2.95312,-1.47657 0.42188,0 -0.21094,0.21094 0,0.21094 0.21094,0.21094 -0.63282,0.21093 0,-0.21093 0.21094,-0.63282 m 8.22656,0.84375 -0.42187,0.63282 0.21094,0 0.42187,-0.63282 -0.21094,0 m -1.89843,0.21094 0,0.42188 0.21093,0 0,-0.42188 -0.21093,0 m -3.375,0 0.42187,1.6875 0,0.21094 c -0.30473,4e-5 -0.58598,-0.56246 -0.84375,-1.6875 l 0.21094,-0.21094 0.21094,0 m -29.74219,1.26563 0.21094,-0.21094 0.63281,0 c 0.2578,4e-5 0.60936,0.42191 1.05469,1.26562 -0.16408,0.86723 -0.58595,1.64066 -1.26563,2.32032 1.12499,-0.46872 1.68749,-1.38278 1.6875,-2.74219 -0.18751,-0.98434 -0.6797,-1.47652 -1.47656,-1.47656 l -0.21094,0 -0.63281,0.84375 m 32.27344,0 0.84375,0 0,-0.63282 -0.84375,0.63282 m -36.07032,0 -0.84375,1.05468 0.21094,0 0.84375,-1.05468 -0.21094,0 m -2.32031,0.84375 0,0.21093 0.21094,0.21094 0.21094,0 0,-0.21094 -0.21094,-0.21093 -0.21094,0 M 172,165.22238 l 0.21094,0 c -2e-5,-0.32808 0.35154,-0.53902 1.05468,-0.63281 0.56249,0.14066 0.84374,0.49223 0.84375,1.05469 l 0.21094,0 0.21094,-0.63281 c -0.14065,-0.56247 -0.56252,-0.84372 -1.26563,-0.84375 -0.58595,0.18753 -1.00783,0.5391 -1.26562,1.05468 m 14.76562,-0.42187 -0.21093,0.21094 0,0.63281 0.21093,0 c -3e-5,-0.56246 0.35153,-0.84371 1.05469,-0.84375 l 0,-0.21094 -1.05469,0.21094 m 4.64063,0 0,0.84375 0.42187,0 -0.21093,-0.84375 -0.21094,0 m -32.0625,0.21094 0.42187,0 -0.63281,1.26562 -0.21094,0 0,-0.84375 0.42188,-0.42187 m 39.02344,0.84375 0.42187,0 0,-0.42188 -0.42187,0.42188 m -21.09375,0.63281 0.21093,0 0.84375,-0.21094 -0.42187,-0.42187 -0.63281,0.63281 m -7.17188,-0.42188 c -0.6797,1.26566 -2.71876,1.89847 -6.11719,1.89844 l -0.42187,0 0,0.21094 1.47656,0.21094 c 2.29686,3e-5 4.05468,-0.77341 5.27344,-2.32032 l -0.21094,0 m 15.39844,3.375 0,0.42188 0.21094,0 c -3e-5,-1.26559 1.05465,-2.39059 3.16406,-3.375 l 0,-0.21094 -0.21094,0 c -1.47659,0.60941 -2.53128,1.6641 -3.16406,3.16406 m 17.29687,-3.16406 -1.05468,2.53125 0,0.63281 c -5e-5,1.12503 0.49214,1.68753 1.47656,1.6875 l 0.42187,0 c 0.56246,-0.28122 0.8437,-0.70309 0.84375,-1.26562 l -0.21093,0 -0.84375,0.63281 -0.42188,0 -0.84375,-0.84375 0,-0.84375 c -5e-5,-0.70309 0.2812,-1.54684 0.84375,-2.53125 l -0.21094,0 m -1.26562,0.21094 -1.6875,1.47656 c 1.07808,-0.53903 1.71089,-1.03121 1.89844,-1.47656 l -0.21094,0 m -29.10938,0.21094 c -1.26564,1.99222 -1.89845,3.18753 -1.89843,3.58593 l 0,0.42188 c 0.35154,0.70315 0.91404,1.05472 1.6875,1.05469 l 0.21093,0 c 1.33592,3e-5 2.95311,-0.98435 4.85157,-2.95313 l 0.84375,-0.42187 -0.42188,-0.42188 -0.84375,0 -1.26562,1.05469 -0.21094,0 -0.21094,-1.05469 c -0.77346,3e-5 -1.47658,0.84378 -2.10937,2.53125 l -0.63282,0.21094 0,0.21094 0.21094,0.21093 0,0.21094 c -0.98439,3e-5 -1.47658,-0.35153 -1.47656,-1.05469 l 0.21094,0.21094 0.21093,0 1.6875,-1.89844 0,-0.42187 -0.42187,0 0,-1.05469 -0.42188,-0.42187 m 13.5,4.64062 c 0.28122,0.63284 0.56247,0.98441 0.84375,1.05469 l 0.42188,0 c 0.84372,3e-5 1.61715,-0.56247 2.32031,-1.6875 l -0.84375,-0.42188 -1.05469,0.21094 -0.21093,-0.21094 0,-0.42187 1.26562,-1.6875 0.63281,0 c -3e-5,0.84378 0.21091,1.26566 0.63282,1.26562 l 0.63281,0 0.21094,-1.89843 c -0.21098,-0.56247 -0.42191,-0.84372 -0.63282,-0.84375 l -0.21093,0 c -2.15629,3e-5 -3.49222,1.5469 -4.00782,4.64062 m 7.80469,-4.42969 0.21094,0 c 1.12496,0.25785 1.68746,0.5391 1.6875,0.84375 l -1.26563,0 c -0.21097,4e-5 -0.42191,-0.28121 -0.63281,-0.84375 m -9.70312,0.42188 -0.42188,0.84375 0.21094,0.63281 0.21094,0 0,-0.42187 -0.21094,0 c -3e-5,-0.56247 0.49216,-0.84372 1.47656,-0.84375 l 0,-0.21094 -1.26562,0 m 7.80468,0.84375 1.26563,-0.42188 0,-0.21093 -0.42188,0 -0.84375,0.63281 m -19.82812,0 0,0.63281 -0.84375,0.84375 -0.21094,0 L 172,168.17551 m -5.0625,0.42187 0,0.21094 c 0.98436,3e-5 1.47655,0.21097 1.47656,0.63281 l 0,0.84375 -0.21094,0.21094 0,0.21094 0.84375,-0.63281 0,-0.84375 -0.63281,-0.63282 -1.47656,0 m 8.01562,-0.21093 0,0.42187 c -0.42189,3e-5 -0.63283,0.21097 -0.63281,0.63281 l -0.21094,0.21094 -0.21093,0 0,-0.21094 c -2e-5,-0.37496 0.35154,-0.72653 1.05468,-1.05468 m 17.08594,0.63281 -0.21094,0.21094 0,0.84375 0.21094,0 0.21094,-1.05469 -0.21094,0 m -3.375,0.21094 -0.21094,0.21093 0,0.21094 c 1.73434,1.03128 5.10934,2.57816 10.125,4.64063 -0.65629,-0.67966 -3.32816,-2.0156 -8.01562,-4.00782 l -1.89844,-1.05468 m 9.49219,2.10937 0.21094,0.84375 0.21093,0 0,-0.63281 -0.21093,0 c 0.14058,-1.12497 0.70308,-1.68747 1.6875,-1.6875 l 0.42187,0 c 0.28121,3e-5 0.42183,0.21097 0.42188,0.63281 l 0.21093,0.21094 0.21094,0 0,-0.21094 c -0.18754,-0.70309 -0.67973,-1.05465 -1.47656,-1.05469 -1.12504,4e-5 -1.68754,0.63285 -1.6875,1.89844 m -34.80469,-1.26562 c 1.12499,3e-5 1.68749,0.21097 1.6875,0.63281 l 0,0.84375 -2.32031,2.53125 0.21094,0 c 1.82811,-1.38278 2.74217,-2.43747 2.74218,-3.16406 -1e-5,-0.84372 -0.49219,-1.2656 -1.47656,-1.26563 l -0.42187,0 -0.42188,0.42188 m 13.71094,0 -0.21094,0.21093 0,0.21094 0.21094,0 0.21094,-0.21094 0,-0.21093 -0.21094,0 m 18.5625,0.21093 0.42187,0.42188 0.21094,0 0,-0.42188 -0.63281,0 m 1.47656,0.21094 0,0.42188 0.42188,0 -0.42188,-0.42188 m -21.51562,0.84375 0,0.21094 0.42187,0 0,-0.21094 -0.42187,0 m 0.84375,0 0,0.21094 0.21093,0.21094 0.21094,0 0,-0.21094 -0.21094,-0.21094 -0.21093,0 m 18.77343,0 0,0.21094 0.42188,0 0,-0.21094 -0.42188,0 m 1.26563,0 0,0.21094 c -4e-5,0.37503 0.35152,0.72659 1.05469,1.05469 l 0,-0.21094 -0.63282,-0.84375 -0.21093,-0.21094 -0.21094,0 m -31.64063,1.89844 0,0.21094 0.21094,0 c 2.76561,-0.91404 4.17186,-1.47654 4.21875,-1.6875 l 0,-0.21094 -0.21094,0 -4.21875,1.6875 m -7.80468,-0.21094 0,0.21094 0.21093,0 c 0,-0.42185 0.14063,-0.63278 0.42188,-0.63281 l 0.63281,0 c 0.23437,3e-5 0.65625,0.56252 1.26563,1.6875 l -2.32032,7.38281 -0.42187,3.16406 c 0,4.14845 1.26562,7.38282 3.79687,9.70313 -2.03906,-3.49218 -3.09375,-6.09374 -3.16406,-7.80469 0.75,-6.60935 2.71875,-9.91404 5.90625,-9.91406 l 0.63281,0.42187 0.42188,0 0,-0.42187 c -1e-5,-0.37498 -0.56251,-0.65623 -1.6875,-0.84375 l -0.21094,0 c -0.79688,2e-5 -1.64063,0.77346 -2.53125,2.32031 l -0.42187,0 c -1e-5,-0.7031 0.35155,-1.33591 1.05468,-1.89844 l -0.42187,-1.26562 0.42187,-1.89844 -0.63281,0.42187 -0.21094,-0.21093 -0.21093,0 0.21093,-0.21094 0,-0.21094 c 0,-0.25778 -0.49219,-0.60934 -1.47656,-1.05469 -0.5625,3e-5 -0.98438,0.3516 -1.26562,1.05469 m 33.75,-1.05469 -0.42188,0.63282 0,0.21093 0.42188,0 c -4e-5,-0.42184 0.28121,-0.63278 0.84375,-0.63281 l 0,-0.21094 -0.84375,0 m -16.875,0.21094 0,0.42188 0.21093,0.21093 0.42188,0 0,-0.21093 -0.42188,-0.42188 -0.21093,0 m 27,1.6875 -0.63282,-0.42187 -0.21093,0 -0.21094,1.05468 c -5e-5,0.65628 0.91402,1.64065 2.74219,2.95313 l 0,1.05469 -0.42188,0 -0.84375,-1.47657 -2.53125,-2.10937 -1.05469,0 c -4e-5,0.4219 -0.14066,0.63284 -0.42187,0.63281 l -1.05469,0 0,0.84375 1.47656,-0.42187 c 0.53902,0.0469 1.80465,1.45315 3.79688,4.21875 l 0.84375,0.21093 c 1.12495,-0.18747 1.68745,-0.74997 1.6875,-1.6875 -5e-5,-0.60935 -0.63286,-2.15622 -1.89844,-4.64062 l 0,-0.63281 0.63281,-0.63282 0.63282,0 0.21093,0.84375 -0.42187,0.42188 0.42187,0 0.21094,-0.84375 c -0.2813,-0.7031 -0.70317,-1.05466 -1.26562,-1.05469 -0.70318,3e-5 -1.19536,0.56253 -1.47657,1.6875 l -0.21093,0 m -16.875,-0.63281 0,1.26562 c 0.14059,0.42191 0.56247,0.63284 1.26562,0.63282 l 0.42188,0 2.10937,-0.63282 0,-0.21093 -0.21094,0 -1.89843,0.42187 c -0.7266,3e-5 -1.14847,-0.21091 -1.26563,-0.63281 l 0,-0.84375 0.42188,-0.63281 -0.84375,0.63281 m -26.78907,0.21094 1.05469,2.32031 0.21094,0 0,-0.84375 c -0.23438,-0.63279 -0.65625,-1.12497 -1.26563,-1.47656 m 27,6.53906 0.21094,0 c 2.10935,-4.0781 4.78122,-6.11716 8.01563,-6.11719 l 0.63281,0 c 1.17184,3e-5 2.43746,0.21097 3.79687,0.63281 l 0,-0.21093 -4.00781,-0.84375 c -3.72659,2e-5 -6.6094,2.17971 -8.64844,6.53906 m -7.17187,-6.32813 0,0.42188 0.21094,0 0,-0.42188 -0.21094,0 m -10.33594,0.21094 0,0.21094 c 3.18749,3e-5 5.36717,0.35159 6.53906,1.05469 l 0,-0.21094 c -0.23439,-0.5156 -1.4297,-0.86716 -3.58593,-1.05469 l -2.95313,0 m 1.47656,0.63281 0,0.21094 0.84375,0 0,-0.21094 -0.84375,0 m 5.69532,0 0,0.42188 0.21093,0 0,-0.42188 -0.21093,0 m 16.875,1.26563 c 0.14059,0.56252 0.56246,0.84377 1.26562,0.84375 l 0.42188,0 c -4e-5,-0.28123 -0.21098,-0.42185 -0.63282,-0.42188 l -0.21093,-0.21093 0,-0.21094 c -4e-5,-0.60935 0.42183,-0.96091 1.26562,-1.05469 l 0,-0.21094 -0.84375,0 c -0.84378,0.35159 -1.26566,0.77347 -1.26562,1.26563 m 9.49218,-1.47656 c 0.70308,0.63284 1.05465,1.19533 1.05469,1.6875 -0.70317,-0.18748 -1.05473,-0.67966 -1.05469,-1.47657 l 0,-0.21093 m -31.00781,0.42187 0,0.21094 c 0.67967,3e-5 1.24217,0.35159 1.6875,1.05469 l 0,0.63281 -0.42187,0.63281 0.63281,0 c 0.32811,3e-5 0.53905,-0.35154 0.63281,-1.05469 -0.37501,-0.98434 -1.14845,-1.47653 -2.32031,-1.47656 l -0.21094,0 m -1.05469,0.63281 0,0.84375 -0.21093,-0.21093 -0.21094,0 0,0.21093 0.21094,0.21094 -0.42188,0 0,0.21094 0.42188,0 c 0.56248,-0.1406 0.84373,-0.49216 0.84375,-1.05469 l -0.21094,-0.21094 -0.42188,0 m -11.39062,0.21094 0,1.05469 0.84375,0 0.63281,-0.63281 -0.21094,0 -0.42187,0.42187 -0.21094,0 c -0.28125,3e-5 -0.42188,-0.28122 -0.42187,-0.84375 l -0.21094,0 m 3.79687,0 0,0.42188 0.21094,0 0,-0.42188 -0.21094,0 m 14.13282,0.21094 0,0.63281 c 0.3281,3e-5 1.31248,1.19534 2.95312,3.58594 l 0,-0.42188 c -0.58596,-1.35935 -1.57033,-2.62497 -2.95312,-3.79687 m -0.84375,0.42187 0,0.42188 c 0.3281,0.84377 0.60935,1.26565 0.84375,1.26562 l 0.42187,0 c -0.70314,-0.7031 -1.0547,-1.2656 -1.05469,-1.6875 l -0.21093,0 m 2.74218,0.63282 0,0.21093 1.05469,0.42188 0.42188,0 0,-0.21094 -1.47657,-0.42187 m 14.76563,0.42187 0,0.21094 0.42187,0 0,0.21094 c -3e-5,0.28127 -0.21097,0.42189 -0.63281,0.42187 l -0.21094,0.21094 0,0.42187 0.42188,0 -0.21094,2.53125 0,0.63282 0.21094,0.21093 0,0.21094 1.89844,-1.47656 0,0.21094 -0.21094,0.63281 1.26562,-1.26563 0.21094,0 c -4e-5,0.4219 0.14059,0.63284 0.42188,0.63282 0.63277,-1.24217 1.33589,-2.15623 2.10937,-2.74219 l 0,-0.21094 -1.26562,0.42188 -0.21094,0 0.21094,-0.21094 0,-0.21094 -0.42188,-0.42187 -0.21094,0 -1.6875,1.6875 -0.21093,-0.21094 0,-0.42188 0.63281,-0.84375 c -0.56254,-0.21091 -0.84379,-0.42185 -0.84375,-0.63281 l 0.21094,-0.21094 -1.89844,0.21094 m -32.48438,-0.21094 0.21094,0 0,0.63282 c -0.70313,2.43752 -1.26563,3.77345 -1.6875,4.00781 l 0,-0.21094 1.47656,-4.42969 m 2.10938,5.27344 0.42187,0 c 1.59375,-3.23435 3.49218,-4.85154 5.69532,-4.85156 1.05467,0.14065 2.53123,0.63283 4.42968,1.47656 l 0.21094,0 0,-0.21094 c -2.22658,-0.98435 -3.77345,-1.47653 -4.64062,-1.47656 -2.48439,3e-5 -4.52345,1.68752 -6.11719,5.0625 m 26.57812,-4.85156 0,0.84375 0.84375,0.21094 0.21094,-0.21094 0,-0.21094 c -0.56253,2e-5 -0.84378,-0.21091 -0.84375,-0.63281 l -0.21094,0 m 3.16407,0 0,0.21094 0.42187,0 0,-0.21094 -0.42187,0 m 3.58593,0 -0.21093,0.21094 0,0.21093 0.21093,0 0.21094,-0.21093 0,-0.21094 -0.21094,0 m -4.64062,0.63281 c -4e-5,0.28127 -0.21097,0.4219 -0.63281,0.42188 l -0.21094,0.21093 0,0.21094 0.21094,0 0.84375,-0.84375 -0.21094,0 m -22.35938,0.21094 0,0.21094 c 0.28124,2e-5 0.42187,0.35158 0.42188,1.05468 l 0.42187,-0.42187 c -0.0938,-0.42185 -0.37501,-0.7031 -0.84375,-0.84375 m -6.32812,0.21094 0.21094,2.10937 0.21093,0 0,-2.10937 -0.42187,0 m 42.39844,-0.21094 0.21093,0 c -0.32817,0.84377 -0.60942,1.26565 -0.84375,1.26562 l -0.84375,-0.21093 0,-0.21094 c 0.42183,2e-5 0.91402,-0.28123 1.47657,-0.84375 m -29.53125,0.42187 0,0.21094 0.84375,0 0,-0.21094 -0.84375,0 m 1.05468,0 c -2e-5,0.4219 -0.35158,0.63284 -1.05468,0.63282 l -1.05469,-0.21094 -1.47656,0.63281 c -2e-5,0.56252 0.84373,0.91408 2.53125,1.05469 l 0,0.63281 -1.05469,0.21094 0,0.21094 c 0.23436,0.56252 0.72654,0.84377 1.47656,0.84375 l 1.89844,0 -0.21094,0.21093 0,0.21094 0.42188,0 1.47656,-0.84375 -0.21094,-0.21094 0,-0.21093 0.21094,-0.21094 -0.21094,0 0,0.21094 c -0.98439,-0.28123 -1.82814,-0.91405 -2.53125,-1.89844 l -0.84375,0 0.21094,0.21094 0,0.21093 -1.05469,0 -1.47656,-0.42187 0,-0.21094 0.21094,0 1.26562,0.21094 0.63281,0 c -1e-5,-0.30467 0.56248,-0.58592 1.6875,-0.84375 l 0,-0.42188 -0.84375,0 m 11.60157,0 -0.21094,0.21094 0,0.21094 c 0.28122,2e-5 0.42184,0.28127 0.42187,0.84375 l 1.05469,-0.21094 -0.21094,-0.21094 0,-0.21093 0.21094,-0.21094 -1.26562,-0.42188 m -21.09375,0.63282 0,0.21093 0.84375,0 0,-0.21093 -0.42188,-0.42188 -0.42187,0.42188 m 3.375,-0.21094 0,1.05469 c -2e-5,0.75002 -0.42189,1.45314 -1.26563,2.10937 l -0.42187,-0.42187 -0.21094,0 c -0.23439,1.12501 -0.44532,1.68751 -0.63281,1.6875 l 0.63281,2.74218 -0.21094,0.21094 -0.42187,0 c -0.28126,2e-5 -0.42189,-0.21092 -0.42188,-0.63281 l -0.21094,0 0,0.84375 0.21094,0.21094 0,0.21093 -0.21094,0 c -0.28126,2e-5 -0.49219,-0.56248 -0.63281,-1.6875 l 0.21094,0 0.21094,0.21094 0.21093,0 c -0.82032,-1.71092 -1.66407,-2.69529 -2.53125,-2.95312 l -0.42187,0.84375 -0.21094,-0.21094 -0.84375,0 c -1.05469,2e-5 -1.82813,0.35158 -2.32031,1.05469 0.39843,1e-5 1.10156,0.84376 2.10937,2.53125 l -0.42187,0.63281 c 1.10155,0.56251 2.01562,0.84376 2.74219,0.84375 l 2.32031,-0.63281 0.21094,0.21093 0,0.21094 c -1e-5,0.4922 -1.47658,0.84376 -4.42969,1.05469 l -0.63281,0.63281 0.42187,0.42188 0,0.21093 -1.26562,1.47657 2.74218,0.42187 0.84375,-0.21094 c 0.21093,0.56251 0.42187,0.84376 0.63282,0.84375 l 0.42187,0 c 0.70312,1e-5 1.47655,-0.42186 2.32031,-1.26562 l 0.42188,-2.95313 -0.21094,-0.21093 0.21094,-0.21094 -0.21094,0 -0.21094,0.21094 -0.21093,0 -0.42188,-1.47657 0.63281,-0.63281 2.74219,0.42188 c 0.51561,1e-5 1.21874,-0.56249 2.10938,-1.6875 l -0.21094,0 c -2e-5,0.28126 -0.21096,0.42189 -0.63281,0.42187 l -0.63282,-0.21094 c -0.28126,0.63283 -0.56251,0.98439 -0.84375,1.05469 l -0.42187,0 0,-0.63281 c 1.12498,-1.54686 1.68748,-2.67186 1.6875,-3.375 l 0.21094,0 0,0.42187 0.21093,0 0,-0.84375 -0.63281,0.42188 c -0.65626,-2.24998 -1.28908,-3.37498 -1.89844,-3.375 l -0.21093,0 m 7.38281,0 -0.21094,0.21094 0,0.84375 c 0.74998,0.84377 2.0156,1.26564 3.79688,1.26562 l 0.84375,0 0.21093,0.21094 0.21094,-0.21094 1.05469,0 c 1.99216,2e-5 3.32809,-0.49217 4.00781,-1.47656 l 0,-0.84375 -0.21094,0 -0.21093,0.21094 c -0.42191,1.26564 -1.82816,1.89845 -4.21875,1.89843 l -0.84375,0 c -2.81253,2e-5 -4.21877,-0.56248 -4.21875,-1.6875 l 0.21093,-0.21093 -0.21093,-0.21094 -0.21094,0 m -12.02344,0.21094 0,0.63281 0.21094,0 0.42187,-0.42188 0,-0.21093 -0.63281,0 m 24.04688,0 0,0.21093 0.63281,0 0,-0.21093 -0.63281,0 m 9.91406,0 c 1.4062,1.64064 2.10933,3.04689 2.10937,4.21875 l 0,1.26562 c -4e-5,3.3047 -1.75785,5.69532 -5.27343,7.17188 l -1.47657,0.21093 -4.42968,-0.63281 -0.42188,0 0,0.21094 4.64063,0.84375 c 3.46871,1e-5 5.92964,-2.10937 7.38281,-6.32813 l 0,-3.58593 c -0.30473,-2.24998 -1.14848,-3.37498 -2.53125,-3.375 m -31.42969,0.42187 -0.21094,0.21094 0,0.42187 0.63282,0 0,-0.21093 -0.42188,-0.42188 m 21.30469,0.63281 -0.63281,0 c -0.49222,3e-5 -1.54691,0.56252 -3.16407,1.6875 l 2.10938,0.63282 0.63281,0 c 1.07809,2e-5 1.71091,-0.28123 1.89844,-0.84375 l 0,-0.21094 -0.42188,0 0,-0.42188 0.21094,-0.21093 c 1.12497,-0.4453 1.68747,-0.79686 1.6875,-1.05469 l 0,-0.21094 -1.05469,0.42188 -1.26562,-0.42188 0,0.63281 m 8.22656,1.05469 0.42188,0.84375 -0.63282,0.21094 0,0.84375 1.6875,1.6875 0,-0.63281 0.63282,0.42187 0,-0.21094 -0.42188,-0.42187 0,-0.42188 0.21094,0 0.21094,0.21094 0.21093,0 -1.47656,-1.89844 0,-0.21093 0.42188,0 0.63281,0.42187 0.63281,-0.21094 0.21094,0.21094 c -0.18754,-0.84373 -0.39848,-1.2656 -0.63281,-1.26562 l -0.21094,0.21093 -0.84375,-1.47656 -0.21094,0 c -0.37504,2e-5 -0.65629,0.56252 -0.84375,1.6875 m -3.375,-1.6875 0.42188,0 0,0.21094 -1.26563,1.05469 0,-0.21094 0.84375,-1.05469 m -27.84375,0.84375 0.21094,0.21094 0.21094,0 0.42187,-0.42188 0,-0.21093 -0.42187,0 -0.42188,0.42187 m 37.75781,0.42188 0.63282,0 0.63281,-0.63282 0,-0.21093 c -0.8438,0.32814 -1.26567,0.60939 -1.26563,0.84375 m -33.53906,-0.84375 c 0.42186,0.0938 0.6328,0.65627 0.63281,1.6875 l -0.21093,1.47656 -0.21094,0 -0.21094,-1.89844 0.21094,-0.63281 -0.21094,-0.63281 m -5.27344,0.84375 0,0.21093 0.63282,0 0,-0.63281 -0.21094,0 -0.42188,0.42188 m 3.375,0 0.21094,0.21093 0.21094,0 0.21094,-0.21093 0,-0.42188 -0.21094,0 -0.42188,0.42188 m 29.32032,-0.63282 0.42187,0.42188 0,0.42187 -0.42187,-0.42187 0,-0.42188 m -6.75,0.84375 0.21093,0.21094 0.21094,0 0.21094,-0.21094 0,-0.42187 -0.21094,0 -0.42187,0.42187 m -23.83594,0 0,0.42188 0.21094,0 0.42187,-0.42188 -0.63281,0 m 37.33594,0.42188 0.63281,3.375 c -5e-5,1.28908 -0.56255,3.32814 -1.6875,6.11719 l 0.21094,0.63281 0.21093,0 c 1.12496,-2.8828 1.68745,-5.06249 1.6875,-6.53906 l -0.42187,-3.79688 -0.21094,0 -0.21094,0.21094 -0.21093,0 m -39.65625,0 0,0.42187 0.21093,0 0,-0.42187 -0.21093,0 m -5.0625,1.05469 0.21093,0 c 0,-0.28123 0.28125,-0.42186 0.84375,-0.42188 l 0,-0.42187 -0.21093,0 c -0.46876,0.14064 -0.75001,0.42189 -0.84375,0.84375 m 19.61718,-0.84375 0,0.21093 c 0.42186,2e-5 0.63279,0.14065 0.63282,0.42188 l 0,0.21094 -0.21094,-0.21094 -0.42188,0 -0.84375,1.89844 0,0.63281 0.21094,0 c 0.0937,-1.14842 0.37498,-1.78123 0.84375,-1.89844 l 0,0.21094 c -0.28127,0.35158 -0.4219,1.26564 -0.42187,2.74219 l -0.21094,0 0,-0.42188 -0.21094,0 0,0.63281 0.21094,0.21094 0.21094,0 c 0.28122,2e-5 0.42185,-0.21092 0.42187,-0.63281 l 0.21094,-0.21094 0.42187,0 c -2e-5,0.6797 0.63279,1.73439 1.89844,3.16406 l 0,0.21094 0.21094,0 1.6875,-2.32031 c 0.0937,-0.70311 0.30466,-1.05467 0.63281,-1.05469 0.21091,0.56252 0.42185,0.84377 0.63281,0.84375 0.3281,2e-5 0.53904,-0.56248 0.63282,-1.6875 l 0,-0.63281 -0.21094,0 -0.21094,1.89844 -0.21094,0 0,-2.53125 0.21094,0.21093 0.21094,0 0,-0.21093 -0.63281,-1.26563 -0.21094,0.21094 -0.21094,0 0,-0.63281 -2.10937,0.21093 -0.21094,1.05469 0,0.21094 0.21094,0.84375 -0.21094,0.21094 0,0.21093 0.21094,1.05469 -0.21094,0.21094 0,0.21094 0.21094,0.84375 -0.21094,1.05468 c -0.28128,2e-5 -0.4219,-0.21092 -0.42188,-0.63281 l 0.21094,-2.10937 -0.42187,-3.16407 -0.21094,0 -1.89844,-0.21093 -0.21094,0 m 12.02344,0 0,0.42187 0.21094,0 0,-0.42187 -0.21094,0 m -25.94531,0.21093 0.42187,0.42188 0.21094,0 0,-0.42188 -0.63281,0 m 1.47656,0 0,0.42188 0.21094,0 0,-0.42188 -0.21094,0 m 19.82813,-0.21093 2.74218,0 0,0.21093 -1.47656,0.21094 -0.21094,0 -1.05468,-0.21094 0,-0.21093 m 15.60937,2.10937 0,1.26563 0.21094,0 c -5e-5,-1.59374 0.2812,-2.57811 0.84375,-2.95313 l 0.21094,0.21094 0.42187,0 -0.42187,-0.42188 -0.42188,0 c -0.56254,0.18752 -0.84379,0.82034 -0.84375,1.89844 m -3.16406,-1.47656 0,0.21094 c 0.28121,2e-5 0.42183,0.21095 0.42187,0.63281 l 0.21094,0 0,-0.42188 -0.63281,-0.42187 m -5.90625,0.21094 0,0.42187 0.21094,0 0,-0.42187 -0.21094,0 m -1.26563,0.21093 0,0.21094 0.42188,0 0,-0.21094 -0.42188,0 m 2.10938,0.21094 0,0.21094 0.42187,0 0,-0.21094 -0.42187,0 m -19.61719,0.21094 c -0.65627,2.81251 -1.9922,4.21876 -4.00781,4.21875 l -2.10938,-0.42188 0,0.21094 0.42188,0.42188 1.6875,0 c 1.92186,1e-5 3.32811,-1.1953 4.21875,-3.58594 l 0,-0.84375 -0.21094,0 m 10.54688,-0.21094 0.21093,0 0,0.42188 -0.21093,0 0,-0.42188 m 4.00781,1.05469 -0.63281,-0.21094 0,0.42188 1.6875,0.63281 0,0.42187 c -0.56254,2e-5 -0.84379,0.21096 -0.84375,0.63282 -4e-5,0.25782 0.42184,0.60939 1.26562,1.05468 l 0.63281,0 c 0.74997,2e-5 1.24216,-0.28123 1.47657,-0.84375 l -0.21094,-0.84375 c 0.42184,2e-5 0.63277,-0.35154 0.63281,-1.05468 l 0.63281,-0.63282 -0.42187,0 -1.6875,0.42188 -0.21094,-0.21094 0,-0.21094 0.21094,-0.21093 -0.21094,0 -0.21094,0.21093 0,-0.42187 -0.21093,0 c -0.84379,0.56252 -1.4766,0.84377 -1.89844,0.84375 m 6.53906,-0.84375 c -0.84379,1.03127 -1.26566,2.01564 -1.26562,2.95312 l -0.42188,0 0,-0.42187 -0.21094,0 c -0.91409,1.54689 -1.68753,2.32032 -2.32031,2.32031 l -0.63281,0 0.42187,0.42188 0.42188,0 c 0.51559,1e-5 1.07809,-0.28124 1.6875,-0.84375 l 0.21094,0 0,0.21093 c -0.28129,0.56252 -0.63285,0.84377 -1.05469,0.84375 l 0,0.21094 0.42187,0 c 0.79684,1e-5 1.64059,-1.05467 2.53125,-3.16406 l 0.42188,0 0,0.21094 c -4e-5,0.70314 -0.56254,1.6172 -1.6875,2.74218 l 0.21094,0 0.63281,-0.63281 0.21094,0 0,0.42188 0.63281,-0.42188 0.21094,0.63281 c 1.54683,-0.32811 2.32027,-0.96092 2.32031,-1.89843 l -1.6875,1.47656 -0.42188,0 0,-0.42188 c 0.84371,-0.60936 1.26559,-1.52342 1.26563,-2.74218 l -0.84375,0.42187 -0.21094,-0.21094 0,-0.21093 0.21094,-0.21094 0,-0.21094 -0.21094,-0.63281 0.21094,-0.21094 -0.21094,0 -0.21094,0.21094 c -4e-5,-0.56248 -0.21097,-0.84373 -0.63281,-0.84375 M 172,183.57395 l 0,0.42187 0.42187,0 0.42188,-0.42187 -0.84375,0 m -2.53125,0.21093 0,0.42188 c -0.37501,0.93752 -0.79689,1.50001 -1.26563,1.6875 l -0.21093,0 c 0.67967,-1.40623 1.17186,-2.10936 1.47656,-2.10938 m -9.28125,0.21094 0.21094,0 c 2.81249,0.44533 4.28905,0.93752 4.42968,1.47656 l -4.64062,-1.26562 0,-0.21094 m 10.54687,0.42188 -0.21093,0.21093 0,0.21094 0.21093,0 0.21094,-0.21094 0,-0.21093 -0.21094,0 m 24.04688,-0.21094 0,0.42187 0.21094,0 -0.21094,0.63282 -0.42188,0 0,-0.63282 0.42188,-0.42187 m -8.22656,0.42187 0,0.42188 0.21093,2.10937 -0.84375,0.21094 0,0.21094 0.84375,0 0.42188,-1.05469 -0.42188,-1.89844 -0.21093,0 m 5.0625,-0.21093 0,0.21093 c -0.14066,0.4219 -0.56254,0.63283 -1.26563,0.63282 l -0.84375,0 0,-0.21094 2.10938,-0.63281 m -18.5625,2.53125 0.42187,0.42187 c -1.40627,0.23439 -2.10939,0.51564 -2.10937,0.84375 0.72654,0.70314 1.35935,1.0547 1.89843,1.05469 l 0.21094,0 1.47656,-0.21094 c -2e-5,-0.28124 -0.21095,-0.42186 -0.63281,-0.42187 l 0,-0.63282 c 0.79686,2e-5 1.28904,-0.35154 1.47656,-1.05468 l -0.21093,-0.21094 0.21093,-0.21094 c -0.98439,2e-5 -1.47658,-0.42186 -1.47656,-1.26562 l -0.21094,0 c -0.21095,1e-5 -0.56251,0.56251 -1.05468,1.6875 m 24.89062,-1.47657 0,0.63282 0.21094,0 0,-0.63282 -0.21094,0 m 3.79688,0.42188 0,0.42187 c 0.70307,2e-5 1.05464,0.49221 1.05468,1.47657 l 0.21094,0 0,-1.05469 c -0.21098,-0.56249 -0.42192,-0.84374 -0.63281,-0.84375 l -0.63281,0 m -3.16407,0.84375 0,0.21094 0.63282,0.21093 0,-0.21093 -0.21094,-0.21094 -0.42188,0 m -25.10156,0.21094 2.10938,0 0,0.21093 -1.26563,0.21094 -0.84375,-0.21094 0,-0.21093 m 3.58594,0.21093 c -2e-5,1.26564 -1.26565,2.60158 -3.79688,4.00782 l 0,0.42187 c 2.81248,-1.49999 4.21873,-2.83592 4.21875,-4.00781 l 0,-0.42188 -0.42187,0 m 7.38281,0.21094 0.84375,1.47656 0,0.42188 -0.42187,0 0,1.05469 c 0.63278,0.67969 1.05465,1.38282 1.26562,2.10937 l -0.42187,0.42188 0.21093,0 1.05469,-1.05469 -1.26562,-2.53125 0.21093,-0.21094 0.21094,0 1.6875,1.6875 1.05469,0 0.42187,-0.42187 0,-0.21094 c -0.4219,1e-5 -1.19534,-0.56249 -2.32031,-1.6875 l -0.21094,0 -1.05468,0.21094 -0.63282,-1.26563 -0.63281,0 m -22.14844,0 0.21094,0 1.89844,0.42188 0,0.21093 -1.26563,0.21094 c 0,-0.35155 -0.28125,-0.56248 -0.84375,-0.63281 l 0,-0.21094 m 16.875,0.21094 c -2e-5,4.50001 -1.96877,6.75001 -5.90625,6.75 l 0.42188,0.42187 8.22656,-0.42187 5.69531,0.42187 0.63282,-0.21093 c -4e-5,-0.1875 -1.33597,-0.60937 -4.00782,-1.26563 -1.12502,-1.12499 -1.68752,-2.74218 -1.6875,-4.85156 l -1.47656,1.89844 c -0.84377,-1.7578 -1.47659,-2.67186 -1.89844,-2.74219 m -20.25,1.05469 0,1.47656 0.21094,0 c 0,-0.98436 0.42187,-1.47655 1.26563,-1.47656 l 0,-0.21094 -0.42188,-0.42188 -0.42187,0 -0.63282,0.63282 m 24.04688,-0.63282 0,0.84375 0.21094,0 0,-0.84375 -0.21094,0 m -12.65625,0.21094 0,0.21094 0.42187,2.74219 -0.21093,0.21093 -0.21094,0 c -0.18752,-1.82811 -0.46877,-2.74217 -0.84375,-2.74218 l -0.63281,0 -0.21094,0.21093 -0.21094,0 0.21094,1.05469 -0.84375,3.16406 0.21094,-0.21093 0.84375,0 c -2e-5,1.61719 0.35155,2.53125 1.05468,2.74218 0.23436,1e-5 0.4453,-0.35155 0.63282,-1.05468 l -0.21094,0.21093 -0.42188,0 0.21094,-3.16406 0.21094,0 0.21094,2.74219 0.21093,0 c 0.53905,-1.68749 0.96093,-2.53124 1.26563,-2.53125 l 0.42187,0.42187 0.21094,-1.47656 c -2e-5,-0.84374 -0.63283,-1.54686 -1.89844,-2.10937 l 0,-0.42188 -0.42187,0 m -3.375,0.42188 0.21094,0 0,0.42187 c -2e-5,0.89064 -0.77345,1.52345 -2.32032,1.89844 l -0.21093,0 0,-0.21094 c 0.89061,1e-5 1.66405,-0.70311 2.32031,-2.10937 m 29.32031,0.21093 0.21094,0.21094 0.42187,0.42188 0,0.21093 0.21094,0 0,-0.84375 -0.84375,0 m -13.07812,0.84375 0,0.84375 0.21093,0.84375 0.21094,0 0,-0.21093 -0.21094,-1.47657 -0.21093,0 m 4.00781,-0.21093 c 0.5859,0.18751 1.00778,0.53907 1.26562,1.05468 l -0.42187,0 -0.84375,-0.84375 0,-0.21093 m 2.32031,0.84375 0.63281,0 0,-0.42188 -0.21093,0 -0.42188,0.42188 m 10.54688,-0.42188 0,0.21094 0.21093,0.84375 c -4e-5,0.63282 -1.05473,1.96876 -3.16406,4.00781 -4e-5,0.70313 -0.28129,1.05469 -0.84375,1.05469 l 0,0.84375 0.63281,0.63281 0.84375,-0.42187 c 0.25777,0.51563 0.67965,0.86719 1.26563,1.05468 l 3.16406,-0.84375 c 0.8437,1e-5 1.26558,0.35157 1.26563,1.05469 l 0.21093,0 0.42188,-0.42187 0,-0.84375 c -5e-5,-0.23437 -0.49224,-0.51562 -1.47656,-0.84375 l 0.21093,-0.21094 0,-0.63281 -1.47656,0 c -0.49223,0 -1.19536,0.35156 -2.10937,1.05468 l -0.42188,0 0,-0.42187 c -4e-5,-0.23437 0.84371,-0.79687 2.53125,-1.6875 l 0.42188,-1.47656 0,-0.84375 c -0.42192,1e-5 -0.63286,-0.21093 -0.63282,-0.63282 l 0.21094,-0.21093 0,-0.21094 c -0.23442,-0.70311 -0.65629,-1.05468 -1.26562,-1.05469 m -6.75,0.21094 c -4e-5,0.84376 -0.3516,1.26563 -1.05469,1.26562 l 0,0.21094 0.42187,0 c 0.56247,-0.14061 0.84372,-0.42186 0.84375,-0.84375 l 0,-0.63281 -0.21093,0 m -17.71875,0.84375 -1.26563,2.32031 0.42188,0 1.05468,-2.32031 -0.21093,0 m -12.44532,0 1.05469,0 0,0.21094 -1.05469,0.21093 -1.47656,0 0,-0.21093 1.47656,-0.21094 m 10.33594,1.6875 -1.47656,2.53125 0.21094,0 1.47656,-2.53125 -0.21094,0 m 27.84375,0 0,0.63281 c -0.0704,0.28126 -0.42192,0.56251 -1.05469,0.84375 l 0,-0.21094 1.05469,-1.26562 m -9.91406,0.42187 0,0.21094 0.63281,0 0,-0.21094 -0.63281,0 m -29.10938,0.21094 c 0,0.84376 -0.28125,1.26563 -0.84375,1.26563 l -0.21093,0 0.21093,0.63281 0.21094,0 0,-0.42188 0.21094,0 0,0.42188 c 0.42187,1e-5 0.6328,0.14063 0.63281,0.42187 l -0.42187,0 -0.21094,-0.21093 -0.21094,0 0,0.21093 c 0.79687,0.51563 1.85156,0.93751 3.16406,1.26563 l 0,0.42187 -0.42187,0.42188 c -0.51563,0 -1.64063,-0.5625 -3.375,-1.6875 l -0.21094,0 0,0.21094 c 0.51562,0.0469 0.9375,0.32813 1.26563,0.84375 l -0.42188,0 c -0.58594,-0.1875 -1.00782,-0.53906 -1.26562,-1.05469 l 0.21093,-0.21094 -1.47656,-0.21094 -0.84375,0 0,0.21094 c 0.42187,1e-5 0.63281,0.28126 0.63281,0.84375 l -0.21093,0 c -0.84376,0.0938 -1.26563,0.30469 -1.26563,0.63281 l 0,0.84375 c 0,0.32813 0.35156,0.53907 1.05469,0.63282 l -0.42188,-0.63282 0,-0.42187 0.63282,-0.63281 1.05468,0 5.27344,1.05468 0.21094,-0.21093 c -1e-5,0.28125 0.21093,0.42187 0.63281,0.42187 1.26561,-0.14062 1.89843,-0.42187 1.89844,-0.84375 -3.23439,-0.82031 -4.85157,-1.94531 -4.85156,-3.375 l 0.42187,-0.63281 0,-0.21094 -1.05469,0 m 30.16407,0 0,0.21094 c 2.10933,1e-5 3.16402,0.56251 3.16406,1.6875 -4e-5,0.28125 -0.28129,0.42188 -0.84375,0.42187 l 0,0.21094 0.63281,0 0.63281,-1.05469 c -4e-5,-0.98436 -0.9141,-1.47655 -2.74218,-1.47656 l -0.84375,0 m -2.53125,0.21094 0,0.21094 c 0.42184,0 0.7734,0.63282 1.05468,1.89843 -0.32816,1.82813 -1.10159,2.74219 -2.32031,2.74219 -0.98441,-0.1875 -1.47659,-0.67968 -1.47656,-1.47656 l 0,-0.21094 0.42187,-0.42187 1.26563,1.47656 0.21094,0 0.42187,-0.42188 c -0.70316,1e-5 -1.05472,-0.35155 -1.05469,-1.05468 l -0.21093,-0.21094 -0.63282,0 c -0.28128,0.0703 -0.56253,0.42188 -0.84375,1.05469 -3e-5,0.84375 0.56247,1.33594 1.6875,1.47656 l 0.84375,0 1.26563,-0.84375 c 0.28121,0 0.42184,0.21094 0.42187,0.63281 l 0.21094,0 0.84375,-2.10937 c -4e-5,-1.24218 -0.70316,-2.15625 -2.10937,-2.74219 m 14.13281,0.21094 0.21094,0.63281 0.21093,0 0,-0.42188 -0.21093,-0.21093 -0.21094,0 m -45.98438,0.21093 0,0.21094 0.42188,0 0,-0.21094 -0.42188,0 m 41.13282,-0.21093 0,0.21093 -1.05469,1.05469 -0.21094,0 c -4e-5,-0.42187 0.42183,-0.84374 1.26563,-1.26562 m -33.11719,0.42187 -0.63281,1.26563 0.63281,0.42187 0.21094,0 0,-0.21094 -0.42188,-0.63281 0.42188,-0.84375 -0.21094,0 m 38.17969,0.42188 0,0.42187 0.21093,0 0,-0.42187 -0.21093,0 m -33.11719,0.21093 0,0.42188 0.42187,-0.42188 -0.42187,0 m 16.24219,0.42188 -5.69532,-0.21094 -1.47656,0 0,0.21094 8.01563,0.21094 0.63281,-0.21094 0,-0.42188 -0.21094,0 -1.26562,0.42188 m -13.5,0 0,0.21094 1.05468,0.21093 4.85157,-0.21093 0,-0.21094 -2.32032,0 -2.53125,0.21094 -0.84375,-0.21094 -0.21093,0 m -1.26563,0.42187 0,0.42188 0.21094,0 0,-0.42188 -0.21094,0 m -1.05469,0.21094 0,0.42188 0.42188,-0.42188 -0.42188,0 m 29.53125,-0.21094 0.63282,0.21094 0,0.21094 -1.47657,0.42187 c 0.0937,-0.42187 0.37496,-0.70312 0.84375,-0.84375 m -27,0.42188 0,0.21094 c 0.51561,1.26563 1.21873,1.89844 2.10938,1.89843 l 0.21094,-0.21093 0.21093,0 1.89844,0.63281 c 0.84373,-0.1875 1.2656,-0.60937 1.26563,-1.26563 -0.7969,0.56251 -1.42971,0.84376 -1.89844,0.84375 -0.35159,1e-5 -1.40627,-0.6328 -3.16406,-1.89843 l -0.63282,-0.21094 m 6.11719,2.10937 c 1.68747,-1.12499 2.81247,-1.68749 3.375,-1.6875 0.56247,1e-5 0.98435,0.28126 1.26563,0.84375 l 0,0.21094 c -3e-5,0.42188 -0.28128,0.63282 -0.84375,0.63281 l 0,0.21094 0.63281,0 c 0.42184,-0.14062 0.63278,-0.56249 0.63281,-1.26562 l 0,-0.21094 c -0.2344,-0.5625 -0.72659,-0.84375 -1.47656,-0.84375 -1.33597,0 -2.53128,0.70313 -3.58594,2.10937 m 17.50781,-2.32031 c 0.51559,0.25782 0.86715,0.67969 1.05469,1.26563 l -0.42187,0 c -0.42192,-0.14062 -0.63286,-0.5625 -0.63282,-1.26563 m -5.48437,1.6875 0.42187,0.42188 0.63282,0 c 1.54683,0 2.32027,-0.21094 2.32031,-0.63282 l 0,-0.42187 -3.375,0.63281 m -18.5625,-0.42187 c -0.32814,0.84375 -0.60939,1.26562 -0.84375,1.26562 -0.70314,0 -1.05471,-0.35156 -1.05469,-1.05469 l -0.21094,0 0,1.05469 0.84375,0.42188 c 0.6328,-0.1875 1.12499,-0.75 1.47657,-1.6875 l -0.21094,0 m -8.64844,0 0.63281,0 0,0.42187 -0.42187,0.42188 -0.21094,-0.84375 m 0.84375,0.21093 0.63281,0.21094 0,0.42188 -0.63281,0 0,-0.63282"
         style="font-size:72px;font-variant:normal;font-stretch:normal;font-family:Goudy Initials;-inkscape-font-specification:Goudy Initials"
         id="path4561" />
    </g>
  </g>
</svg>
