<?xml version="1.0" encoding="UTF-8" standalone="no"?>
<!-- Created with Inkscape (http://www.inkscape.org/) -->

<svg
   xmlns:dc="http://purl.org/dc/elements/1.1/"
   xmlns:cc="http://creativecommons.org/ns#"
   xmlns:rdf="http://www.w3.org/1999/02/22-rdf-syntax-ns#"
   xmlns:svg="http://www.w3.org/2000/svg"
   xmlns="http://www.w3.org/2000/svg"
   xmlns:sodipodi="http://sodipodi.sourceforge.net/DTD/sodipodi-0.dtd"
   xmlns:inkscape="http://www.inkscape.org/namespaces/inkscape"
   width="56.734375"
   height="56.734375"
   id="svg2"
   version="1.1"
   inkscape:version="0.48.5 r10040"
   sodipodi:docname="t.svg">
  <defs
     id="defs4" />
  <sodipodi:namedview
     id="base"
     pagecolor="#ffffff"
     bordercolor="#666666"
     borderopacity="1.0"
     inkscape:pageopacity="0"
     inkscape:pageshadow="2"
     inkscape:zoom="3.959798"
     inkscape:cx="43.996764"
     inkscape:cy="5.617196"
     inkscape:document-units="px"
     inkscape:current-layer="layer1"
     showgrid="false"
     fit-margin-top="2"
     fit-margin-left="2"
     fit-margin-right="2"
     fit-margin-bottom="2"
     inkscape:window-width="1366"
     inkscape:window-height="733"
     inkscape:window-x="0"
     inkscape:window-y="0"
     inkscape:window-maximized="1"
     showborder="true"
     borderlayer="false" />
  <metadata
     id="metadata7">
    <rdf:RDF>
      <cc:Work
         rdf:about="">
        <dc:format>image/svg+xml</dc:format>
        <dc:type
           rdf:resource="http://purl.org/dc/dcmitype/StillImage" />
        <dc:title></dc:title>
      </cc:Work>
    </rdf:RDF>
  </metadata>
  <g
     inkscape:label="Layer 1"
     inkscape:groupmode="layer"
     id="layer1"
     transform="translate(-152.28125,-146.34738)">
    <g
       style="font-size:40px;font-style:normal;font-weight:normal;line-height:125%;letter-spacing:0px;word-spacing:0px;fill:#ffffff;fill-opacity:1;stroke:none;font-family:Sans"
       id="flowRoot2985">
      <path
         d="m 154.28125,148.34738 52.73437,0 0,52.73438 -52.73437,0 0,-52.73438 m 1.05469,1.05469 0,50.625 50.625,0 0,-50.625 -50.625,0 m 0.42187,0.63281 49.57031,0 0,49.57032 -49.57031,0 0,-49.57032 m 3.16406,0.84375 0.21094,0 0.21094,-0.21093 c 0.46874,0.14067 0.74999,0.42192 0.84375,0.84375 l -0.21094,0.21093 0,0.42188 0.21094,0 0.21094,-1.05469 0,-0.21094 -0.42188,-0.42187 -0.63281,0 -0.42188,0.42187 m 1.26563,1.89844 0,0.42188 0.42187,0 c 1.80468,-1.54683 3.77343,-2.32027 5.90625,-2.32032 l 0.84375,0 c 3.32811,5e-5 5.36717,1.61724 6.11719,4.85157 l 0,0.84375 c -2e-5,1.33598 -0.98439,2.32035 -2.95312,2.95312 l 0,-0.84375 -1.89844,0.21094 -0.63281,-0.63281 -0.21094,0 c -1e-5,1.12504 0.91405,1.68754 2.74219,1.6875 l -0.21094,0.21093 0,0.84375 c -2e-5,0.79692 0.35155,1.28911 1.05469,1.47657 l -0.21094,-0.21094 0,-1.05469 c -2e-5,-0.28121 0.21092,-0.42183 0.63281,-0.42187 l 0,-0.63282 -0.63281,0 0,-0.42187 c 1.82811,-0.7734 2.74217,-1.82808 2.74219,-3.16406 l 0,-1.05469 c -1.03127,-3.37495 -3.28127,-5.06245 -6.75,-5.0625 l -0.63282,0 c -1.78126,5e-5 -3.89063,0.77349 -6.32812,2.32031 m 23.20312,-2.32031 0,0.21094 0.42188,0 0,-0.21094 -0.42188,0 m -26.57812,0.21094 0,0.21093 0.63281,2.53125 c -0.5625,2.83599 -0.84375,4.94536 -0.84375,6.32813 0.60937,4.92191 1.45312,7.38285 2.53125,7.38281 l 0.21094,0 c -1.125,-2.4609 -1.6875,-4.35933 -1.6875,-5.69531 l 0,-1.6875 -0.63281,0.42187 -0.21094,0 0,-0.63281 c 0.70312,4e-5 1.05468,-0.14058 1.05469,-0.42187 0.42187,-0.98434 1.05468,-1.47652 1.89843,-1.47657 l 1.05469,0.42188 0,-0.84375 c -0.42188,-0.70308 -0.91407,-1.05464 -1.47656,-1.05469 -1e-5,0.2813 0.28124,0.42192 0.84375,0.42188 l 0.21094,0.21093 0,0.63282 -2.32032,-0.63282 c -0.14062,0.8438 -0.35156,1.26567 -0.63281,1.26563 l -0.42187,-0.42188 c 0.44531,-1.26558 0.79687,-1.89839 1.05468,-1.89843 l -0.63281,-1.26563 0,-0.63281 c 0,-0.42183 0.49219,-0.63277 1.47656,-0.63281 l 0,-0.21094 c -0.53906,5e-5 -0.89062,-0.56245 -1.05468,-1.6875 l -1.05469,-0.63281 m 17.50781,1.6875 c 0.28123,0.63286 0.56248,0.98442 0.84375,1.05468 l 0,-0.21093 -0.42187,-1.26563 c -2e-5,-0.32807 0.56248,-0.67964 1.6875,-1.05469 l 2.53125,1.26563 c -3e-5,-0.51558 -0.84378,-1.00776 -2.53125,-1.47656 l -0.21094,0 c -1.03127,5e-5 -1.66408,0.56255 -1.89844,1.6875 m 4.00781,-1.6875 0,0.21093 c 1.8281,5e-5 2.74217,0.8438 2.74219,2.53125 l 0,0.63282 0.21094,0 0.21094,-1.26563 c -0.56253,-1.4062 -1.33597,-2.10932 -2.32032,-2.10937 l -0.84375,0 m 4.42969,0 -0.42187,0.63281 0.21093,0 c -2e-5,-0.2812 0.21091,-0.42183 0.63282,-0.42188 l 0,-0.21093 -0.42188,0 m 1.47656,6.75 -0.21093,-0.21094 -0.21094,0 0.21094,0.21094 0,0.21093 -0.21094,2.74219 -0.21094,0 -0.84375,-0.21094 -0.21094,1.26563 0.21094,1.6875 -0.21094,0.21094 0.21094,0 0.21094,-0.21094 0,1.47656 c -3e-5,1.03129 -0.21097,1.59379 -0.63281,1.6875 l -0.21094,0 0,-0.21094 0.42187,-1.26562 0,-0.63281 -0.21093,0 c -3e-5,1.07816 -0.42191,2.06253 -1.26563,2.95312 l 0.42188,0 c 1.40622,-0.18746 2.10934,-0.82028 2.10937,-1.89844 l 0.63281,0 0,0.42188 0.42188,0 0,-0.21094 -0.63281,-2.32031 0.63281,0.42187 0,-0.21093 -0.42188,-0.63282 0.21094,-0.21093 -0.21094,0 -0.21093,0.21093 -0.42188,-0.84375 0,-0.21093 0.21094,-0.21094 0,-0.21094 -0.42188,0 0.63282,-0.63281 0.42187,0 0.63281,0.63281 -0.42187,0 c 0.42184,0.5391 0.63278,1.17192 0.63281,1.89844 l 1.26563,0.42187 0,-0.21093 -0.21094,-0.21094 0,-0.21094 c 1.12497,-0.16402 1.68747,-0.44527 1.6875,-0.84375 l -0.21094,0.21094 -0.42187,0 c -1.12503,4e-5 -1.68753,-1.05465 -1.6875,-3.16406 l -0.21094,-0.21094 -0.63281,0 0,0.63281 -0.63282,0 c -2e-5,-2.62495 1.33591,-4.87495 4.00782,-6.75 1.85152,-1.12495 3.60933,-1.68745 5.27343,-1.6875 2.29684,5e-5 4.68746,0.77349 7.17188,2.32031 l 0.84375,0.21094 c -2.39067,-1.9687 -4.78129,-2.95307 -7.17188,-2.95312 l -0.63281,0 c -4.38285,5e-5 -7.5469,2.10942 -9.49219,6.32812 l 0,0.42188 m 0.21094,-6.53907 0,0.21094 1.05469,0.63281 c 0.56247,-0.21088 0.84372,-0.42182 0.84375,-0.63281 l -0.21094,0 -0.84375,0.21094 -0.84375,-0.42188 m 16.24219,0.42188 0,0.21094 c 0.0937,0.8438 0.30464,1.26567 0.63281,1.26562 l 0,-0.21094 -0.42187,-1.26562 0.42187,-0.42188 -0.21094,0 -0.42187,0.42188 m 1.6875,0.42187 0,1.26563 0.63281,1.6875 -0.21094,1.05469 0.21094,1.26562 -1.05469,-0.42187 0,0.42187 c 1.40621,2.03911 2.10933,3.58598 2.10938,4.64063 l -0.21094,0.84375 -0.21094,0 c -0.28129,4e-5 -0.42192,-0.49215 -0.42187,-1.47657 l -0.21094,0 0,0.84375 -0.21094,0 c -4e-5,-0.96089 -0.35161,-1.80464 -1.05468,-2.53125 l 0.42187,0 0.84375,0.63282 0,-0.21094 c -0.58598,-0.56246 -1.28911,-0.84371 -2.10937,-0.84375 l 0.84375,1.47656 c -1.12505,4e-5 -1.68755,0.21098 -1.6875,0.63281 l 0,1.26563 0.42187,0.42187 0.42188,-0.84375 0.84375,0 c 0.51557,4e-5 0.86714,0.91411 1.05468,2.74219 -0.21098,1.92191 -1.40629,4.03128 -3.58593,6.32813 l 0,0.84375 c 3.51557,-2.81247 5.27338,-6.3984 5.27343,-10.75782 l 0,-2.32031 c -5e-5,-0.96089 -0.49223,-2.99995 -1.47656,-6.11719 l 0,-0.42187 0.84375,-0.84375 0.42188,0.42187 0,-0.84375 -0.42188,0 c -0.75005,5e-5 -1.24223,0.2813 -1.47656,0.84375 m -34.80469,-0.42187 0,0.21094 0.42188,0 0,-0.21094 -0.42188,0 m 18.5625,1.05469 0,0.21093 0.21094,0 2.10937,-1.05468 0,-0.21094 -0.21093,0 -2.10938,1.05469 m -17.92969,-0.84375 0,0.21093 0.42188,0.42188 0,0.21094 -0.21094,0.21093 0,0.21094 0.21094,0 0.42187,-0.42187 c -0.0938,-0.42183 -0.37501,-0.70308 -0.84375,-0.84375 m 13.92188,0 0,0.63281 c 0.25778,0.70317 0.82028,1.05473 1.6875,1.05469 l 2.10937,-0.42188 0,-0.21094 -1.47656,0.21094 -1.26562,0 c -0.56253,-0.23432 -0.84378,-0.6562 -0.84375,-1.26562 l -0.21094,0 m -18.35156,0.21093 0,0.21094 c 0.98436,5e-5 1.47655,0.35161 1.47656,1.05469 l 0.21094,0 0,-0.84375 -0.84375,-0.42188 -0.84375,0 m 11.8125,3.375 0,0.42188 c 0.16404,1.05473 0.44529,1.61723 0.84375,1.6875 l 0,-0.21094 -0.63282,-1.89844 c 0.0937,-1.4062 0.51561,-2.46088 1.26563,-3.16406 l 0,-0.21094 -0.42188,0 c -0.56252,0.16412 -0.91408,1.28911 -1.05468,3.375 m 17.71875,-1.89843 0.63281,0.42187 1.26562,0 0,-0.21094 c -0.56254,5e-5 -0.84379,-0.14057 -0.84375,-0.42187 l 0,-0.42188 c -4e-5,-0.37495 0.35153,-0.58588 1.05469,-0.63281 l 0,-0.21094 -0.63281,0 c -0.98441,5e-5 -1.4766,0.49224 -1.47656,1.47657 m -20.67188,-1.26563 0,0.21094 1.47656,1.47656 -0.84375,-1.26562 0.21094,-0.21094 -0.21094,0 -0.21093,0.21094 -0.42188,-0.42188 m 4.00781,1.89844 0,0.21094 1.26563,0 c 1.12498,-0.37496 1.68747,-1.00777 1.6875,-1.89844 -0.2344,5e-5 -0.44534,0.35161 -0.63281,1.05469 -0.39846,0.42192 -1.1719,0.63286 -2.32032,0.63281 m 14.34375,-0.84375 0,0.21094 c 0.86715,-0.2812 1.35934,-0.63277 1.47657,-1.05469 l -0.21094,0 c -0.84379,0.32817 -1.26566,0.60942 -1.26563,0.84375 m -19.82812,-0.21094 0,0.21094 c 0.84373,0.58598 1.26561,1.42973 1.26562,2.53125 l 0,0.21094 c -1e-5,0.98442 -0.4922,1.4766 -1.47656,1.47656 -0.70314,-0.23433 -1.0547,-0.65621 -1.05469,-1.26563 l -0.42187,0.42188 0,0.21094 c -2e-5,0.79692 0.49217,1.2891 1.47656,1.47656 1.07811,4e-5 1.71092,-0.84371 1.89844,-2.53125 -2e-5,-1.12495 -0.56252,-2.03902 -1.6875,-2.74219 m 25.73437,0.21094 0,0.21094 0.84375,0.21093 0,-0.21093 -0.21093,-0.21094 -0.63282,0 m -17.08593,0.21094 0,0.42187 c 0.98435,1.42974 1.47653,2.55473 1.47656,3.375 l 0.42187,-0.42187 c -0.84377,-2.10933 -1.47658,-3.23433 -1.89843,-3.375 m 16.03125,0 0,0.21093 0.42187,0 0,-0.21093 -0.42187,0 m -7.80469,0.21093 -0.84375,1.05469 0.21094,0 0.84375,-1.05469 -0.21094,0 m -29.74219,0.42188 0,0.21094 c 0,0.23442 1.05468,0.65629 3.16406,1.26562 0.84375,0.8438 1.26562,1.75786 1.26563,2.74219 l 0,7.59375 c 1.52343,1.40628 2.64843,2.10941 3.375,2.10937 l 0,-10.125 c -1e-5,-1.45308 1.33592,-2.50776 4.00781,-3.16406 l 0,-0.63281 -5.69531,0.21094 -6.11719,-0.21094 m 24.04688,3.16406 -0.21094,-0.21094 -0.21094,0 0,0.21094 0.21094,0.21094 c -0.93753,0.84379 -1.85159,1.26567 -2.74219,1.26562 l -0.63281,0 -1.26563,-0.42187 0,0.42187 1.05469,0.21094 1.26563,0 c 1.54685,4e-5 2.95309,-1.4062 4.21875,-4.21875 l 0.63281,-0.63281 -0.21094,0 c -0.25784,5e-5 -0.96096,1.05473 -2.10937,3.16406 m 6.11718,-2.53125 0,0.63281 c 0.18747,1.26567 0.82028,1.89849 1.89844,1.89844 -3e-5,0.23442 -0.49222,0.51567 -1.47656,0.84375 l -0.42188,1.26563 0.63282,3.58593 -0.84375,1.26563 0,0.21094 1.26562,0 c 1.21872,3e-5 2.06247,-1.19528 2.53125,-3.58594 l 0.21094,-0.21094 0.63281,0 0,0.21094 c -0.42191,0.51566 -0.63285,1.00785 -0.63281,1.47656 0.18746,0.58598 0.53902,1.00785 1.05469,1.26563 l 0.63281,0 c 0.72652,3e-5 1.1484,-0.2109 1.26562,-0.63282 l 0,-0.21093 c -0.44535,4e-5 -0.86722,-0.35153 -1.26562,-1.05469 l 0,-0.21094 c -4e-5,-0.56246 0.42183,-1.12496 1.26562,-1.6875 l 0,-0.21094 -0.84375,-0.42187 -0.42187,0 c 0.14059,-0.42183 0.56246,-0.63277 1.26562,-0.63281 l 0,-0.21094 -0.63281,0 c -1.26566,0.42192 -1.89847,0.84379 -1.89844,1.26562 L 192.25,158.89426 c -4e-5,-0.35152 0.56246,-0.70308 1.6875,-1.05469 l -0.21094,-0.21094 0,-0.42187 0.42188,0 0,-0.21094 -0.63282,0 -0.42187,0.42188 -0.42188,0 0,-0.21094 c -3e-5,-0.28121 0.2109,-0.42183 0.63282,-0.42188 l 0,-0.21093 c -2.53129,-0.32808 -3.79691,-1.24214 -3.79688,-2.74219 l -0.42187,0 -0.63282,0.63281 m 2.95313,-0.42187 -0.21094,0.21093 0,0.21094 c 2.95309,0.77349 4.42965,1.54692 4.42969,2.32031 0.28121,5e-5 0.42183,0.70317 0.42187,2.10938 l -0.21093,5.48437 0.21093,1.89844 c 1.12496,-0.74996 1.68746,-1.45309 1.6875,-2.10937 l 0,-1.05469 -0.21093,-4.21875 c -5e-5,-2.43746 1.47652,-3.8437 4.42968,-4.21875 l 0,-0.42188 -0.63281,-0.21093 -3.58594,0.21093 -6.32812,-0.21093 m -22.14844,1.05468 0,0.21094 0.21094,0 c 0.70311,-0.18745 1.05467,-0.39839 1.05469,-0.63281 l -1.26563,0.42187 m 17.50781,-0.42187 -0.21093,0.21094 0,0.21093 0.21093,0 0.21094,-0.21093 0,-0.21094 -0.21094,0 m -10.54687,5.27344 c -2e-5,1.96879 0.91404,3.1641 2.74219,3.58593 1.75778,4e-5 2.74216,-1.12496 2.95312,-3.375 l 0,-1.6875 -0.42187,0.42188 0,1.6875 c -3e-5,0.93754 -0.56253,1.78129 -1.6875,2.53125 l -1.26563,0 c -1.26565,-0.67965 -1.89846,-1.73434 -1.89844,-3.16406 l 0,-0.42188 c 0.44529,-2.67183 1.57029,-4.00777 3.375,-4.00781 l 0,-0.63281 -0.21093,0 c -2.39065,1.03129 -3.58596,2.71879 -3.58594,5.0625 m 21.9375,-1.6875 0,4.85156 0.21094,0 c -5e-5,-4.49996 0.2812,-6.74996 0.84375,-6.75 2.10933,-0.70308 3.16401,-1.19527 3.16406,-1.47656 -2.81255,0.51567 -4.21879,1.64067 -4.21875,3.375 m -39.02344,-3.16407 0,0.21094 1.6875,0.63281 0.21094,0 0,-0.21093 -1.6875,-0.63282 -0.21094,0 m 32.69531,0 0,0.21094 3.375,1.47656 0,-0.21093 c -1.00785,-0.70308 -2.13285,-1.19527 -3.375,-1.47657 m -25.3125,7.59375 0.21094,0.84375 -0.21094,0.63282 0.21094,0 -0.21094,0.21093 0,3.58594 0.42188,0 0,-10.125 c 0.28124,-1.54683 0.98436,-2.32027 2.10937,-2.32031 l 0,-0.21094 -0.42187,0 c -1.40626,0.35161 -2.10939,1.75786 -2.10938,4.21875 l 0,3.16406 m 19.40625,-6.75 0,0.84375 c 0.0937,0.8438 0.30466,1.26567 0.63282,1.26563 l 1.26562,0 0.42188,-0.42188 0,-0.63281 -0.63282,0.42188 -0.42187,0 c -0.28128,-0.0703 -0.56253,-0.42183 -0.84375,-1.05469 l 0.21094,-1.05469 -0.63282,0.63281 m -11.39062,-0.42187 -1.05469,4.42969 0,0.63281 0.63281,-0.42188 0.42188,1.05469 0.84375,0 0,-0.21094 -0.84375,-1.26562 0.21094,-3.375 0,-0.84375 -0.21094,0 m 20.03906,1.89844 0,0.21093 0.42188,0 0,-0.21093 -0.42188,0 m 8.22656,-0.21094 0.42188,0 c -5e-5,0.56254 0.21089,1.05473 0.63281,1.47656 l 0,0.21094 -0.21094,0 -0.84375,-0.84375 0,-0.84375 m -45.35156,1.05469 0.42188,0 0,0.63281 -0.84375,-0.21094 0.42187,-0.42187 m 31.85156,0 0.63282,0.63281 0,0.42187 -0.21094,0.21094 0.21094,0.21094 0,0.63281 -1.05469,0.21094 -0.21094,-1.26563 c 0.18747,-0.70308 0.39841,-1.05464 0.63281,-1.05468 M 199,159.1052 l 0,0.63281 0.21094,2.32031 c -5e-5,2.46098 -1.68755,4.42972 -5.0625,5.90625 l -1.89844,0.21094 -0.63281,0 c -2.55472,3e-5 -4.6641,-1.26559 -6.32813,-3.79688 l 0,0.21094 c 0.93747,2.67191 3.04684,4.00785 6.32813,4.00781 l 1.47656,0 c 2.55465,4e-5 4.59371,-1.54684 6.11719,-4.64062 l 0.42187,-1.26563 -0.21094,-1.47656 0.21094,-1.47656 c -0.28129,4e-5 -0.42192,-0.2109 -0.42187,-0.63281 l -0.21094,0 m -39.65625,2.53125 0.42187,1.05468 -0.42187,0 -0.21094,-0.21093 -0.21094,0 0,0.21093 c 0,3.1641 1.82812,6.46879 5.48438,9.91407 l 0,0.21093 -0.63281,0 -5.0625,-5.27343 -0.63282,0 c -1.125,3e-5 -1.6875,0.77347 -1.6875,2.32031 0.21094,1.12503 1.19531,1.68753 2.95313,1.6875 l 0.21094,0.21094 0.21093,0 c 0,-0.42185 -0.84375,-0.77341 -2.53125,-1.05469 l -0.21093,-0.21094 0,-0.63281 0.84375,-0.84375 c 0.84374,3e-5 2.3203,1.5469 4.42968,4.64062 l 0.84375,0.63282 0,-0.21094 -1.26562,-1.47656 0.21094,0 2.10937,1.89843 -0.21094,-0.21093 0,-0.63282 1.6875,1.26563 -0.21093,0.63281 1.6875,1.26563 -0.42188,0 0,0.21093 1.05469,0.21094 0,-0.21094 -0.21094,-0.21093 0,-0.21094 1.26563,-0.42188 -0.84375,-1.05468 0,-0.42188 0.63281,0 -1.89844,-2.95312 0,-0.42188 1.47656,-0.21094 1.05469,0.21094 -0.21094,-0.21094 0,-0.42187 0.63282,0 0,-0.42188 -5.69532,-2.74218 c -0.70313,3e-5 -1.75782,-1.05466 -3.16406,-3.16407 l 0.21094,-0.21093 -0.21094,0 -0.21094,0.21093 -0.63281,-2.32031 c 0.375,-1.12496 0.72656,-1.68746 1.05469,-1.6875 l 0.84375,0 c -1e-5,0.51567 -0.35157,1.07817 -1.05469,1.6875 l 0,0.42188 0.21094,1.05468 0.42187,0 -0.42187,-0.63281 0,-0.42187 c 0.70312,-0.74996 1.05468,-1.31246 1.05469,-1.6875 -1e-5,-0.98434 -0.4922,-1.47652 -1.47657,-1.47657 -0.49219,5e-5 -0.91406,0.77348 -1.26562,2.32032 m 17.92969,-2.32032 0,1.26563 c 0.0234,0.30473 0.44529,0.7266 1.26562,1.26562 l 0.84375,0 0.63281,-0.63281 0,-0.84375 -1.05468,0.84375 c -0.9844,4e-5 -1.47659,-0.63277 -1.47657,-1.89844 l -0.21093,0 m 13.71093,0.21094 0.21094,0 0.63281,0.63281 -0.63281,0.42188 -0.42187,-0.42188 0.21093,-0.63281 m 12.02344,0.63281 0,0.42188 0.21094,0 0,-0.42188 -0.21094,0 m -46.19531,0.21094 0.63281,0.21094 0,0.21094 -0.42187,0.42187 -0.21094,0 0,-0.84375 m 12.23437,0.21094 -0.84375,1.05469 0,0.21093 1.47657,-1.05468 0,-0.21094 -0.63282,0 m 21.51563,0 0.21094,0 0.42187,0.42187 0,0.21094 -0.63281,0 0,-0.63281 m -6.53906,0.42187 0,0.21094 0.42187,0 0,-0.21094 -0.42187,0 m -11.17969,0.21094 0,0.42188 0.42187,0.42187 0.42188,-0.42187 -0.42188,-0.42188 -0.42187,0 m -3.58594,0.42188 -0.21094,1.05468 0,0.21094 c -1e-5,0.98441 0.49218,1.4766 1.47657,1.47656 l 0.21093,0 0.42188,-0.42187 c -1.00783,4e-5 -1.64064,-0.35153 -1.89844,-1.05469 l 0,-0.21094 0.21094,-0.84375 0,-0.21093 -0.21094,0 m 5.90625,0.63281 0,0.21094 0.84375,0 0,-0.63282 -0.42187,0 -0.42188,0.42188 m 14.97656,-0.63281 0.21094,0 0.42188,0.42187 -0.21094,0.21094 -0.42188,0 0,-0.63281 m -22.14843,0.42187 0,2.53125 0.21093,0 0,-2.53125 -0.21093,0 m 6.11718,0.42188 0,0.84375 0.21094,0 0.42188,-0.42188 -0.42188,-0.42187 -0.21094,0 m -1.47656,0.21093 0,0.21094 0.42188,0.42188 0.42187,0 0,-0.21094 -0.42187,-0.42188 -0.42188,0 m 30.58594,0.21094 0.42187,0 0.42188,0.42188 c -0.21099,1.54691 -0.49224,2.32034 -0.84375,2.32031 l -0.21094,0 0.21094,-1.05469 -0.21094,-0.21094 0.42188,0 -0.42188,-0.42187 0.21094,-1.05469 M 172,163.74582 l 0,0.63281 0.63281,0 0,-0.63281 -0.63281,0 m 3.16406,0 -0.21094,0.63281 0.84375,0 0,-0.63281 -0.63281,0 m 2.32031,0 0,0.21094 c 0.96092,0.46879 1.66404,1.03129 2.10938,1.6875 l 0,0.63281 -0.63281,0.63281 -0.84375,0 c -0.56253,-0.23434 -0.84378,-0.65621 -0.84375,-1.26562 l -0.21094,0 0,0.84375 c 0.18748,0.70316 0.67966,1.05472 1.47656,1.05469 l 0.21094,0 c 0.98435,3e-5 1.47654,-0.49216 1.47656,-1.47657 l 0,-0.21093 c -2e-5,-0.86715 -0.91409,-1.57028 -2.74219,-2.10938 m -3.79687,0.21094 0,1.05469 0.63281,0 0,-0.63282 -0.42187,-0.42187 -0.21094,0 m 15.60937,1.89844 -0.63281,-0.21094 0.42188,0.42187 0.84375,0 1.6875,-1.05468 c 0.70308,0.18753 1.05465,0.39847 1.05468,0.63281 l 0,0.42187 c -3e-5,0.44535 -0.70316,0.86723 -2.10937,1.26563 l 0,0.21094 c 1.82809,3e-5 2.74215,-0.63278 2.74219,-1.89844 -4e-5,-0.84371 -0.49223,-1.26559 -1.47657,-1.26563 l -2.53125,1.47657 m 4.64063,-1.47657 0.84375,1.05469 0,0.63281 -1.05469,1.05469 0.21094,0 c 0.98433,-0.46871 1.47652,-1.03121 1.47656,-1.6875 -0.28129,-0.63277 -0.56254,-0.98434 -0.84375,-1.05469 l -0.63281,0 m 7.17187,0 c -4e-5,0.46879 -0.49223,0.75004 -1.47656,0.84375 l -0.21094,0.21094 0,1.26563 0.42188,0.42187 c -5e-5,-0.84371 0.21089,-1.26559 0.63281,-1.26562 l 0.42188,0 0.21093,1.05468 -0.42187,1.26563 -0.21094,-0.21094 -0.21094,0 0,0.21094 0.21094,0 -0.63281,1.05469 0.21094,0 c 1.12495,-1.52341 1.68745,-2.85934 1.6875,-4.00782 l -0.63282,-0.84375 m -32.90625,0.42188 0,0.42187 c 0.84374,0.98441 1.54686,1.4766 2.10938,1.47657 l 1.47656,0 0,-0.21094 c -2.08595,3e-5 -3.21095,-0.56247 -3.375,-1.6875 l -0.21094,0 m 4.64063,0.21094 c -2e-5,0.3516 -0.28127,0.84378 -0.84375,1.47656 l 0.21094,0 c 0.7031,-0.42184 1.05467,-0.91403 1.05468,-1.47656 l -0.42187,0 m 1.05469,2.74218 0.21093,0.21094 0,2.10938 -0.63281,0.21093 0.21094,1.05469 0.21094,0 c -2e-5,-0.28122 0.28123,-0.42184 0.84375,-0.42187 -2e-5,-0.42185 0.1406,-0.63278 0.42187,-0.63282 l 0.21094,0 -0.42188,2.32032 0.21094,0 c 0.42186,3e-5 0.63279,0.28128 0.63281,0.84375 l 1.26563,-0.21094 0,-0.21094 -0.42188,-0.42187 c 0.53904,-1.24216 0.96092,-1.87497 1.26563,-1.89844 l 0.21094,0 0,0.42187 0.21093,0 0,-0.21093 c -0.32814,-1.00778 -0.96096,-2.06247 -1.89843,-3.16407 -2e-5,0.42191 -0.14065,0.63285 -0.42188,0.63282 -0.23439,3e-5 -0.44533,-0.49216 -0.63281,-1.47657 l 0.21094,-0.84375 0,-0.21093 -0.21094,0 c -0.37502,3e-5 -0.86721,0.63284 -1.47656,1.89843 m 24.46875,-1.47656 -0.21094,1.05469 0.21094,11.8125 c -5e-5,6.28126 -2.03911,10.71095 -6.11719,13.28906 l -0.21094,0 c 3.79684,-3.09374 5.69527,-7.17186 5.69531,-12.23437 l 0,-12.86719 -0.21093,0 -1.6875,1.05469 0.21093,1.47656 0,8.01562 c -4e-5,4.52346 -0.70316,7.89846 -2.10937,10.125 l -0.21094,-0.21093 -0.21094,0 0,0.21093 0.21094,0.21094 c -3.14066,3.51564 -7.42972,5.27345 -12.86719,5.27344 l 0,1.26562 0.42188,0.63282 c 3.14059,0 6.72653,-0.98437 10.75781,-2.95313 -1.17191,1.2422 -3.77347,2.29688 -7.80469,3.16406 l -2.74218,0 0,0.42188 c 6.9609,0 12.09371,-2.74218 15.39843,-8.22656 1.12496,-2.99999 1.68746,-5.67186 1.6875,-8.01563 l 0,-13.5 -0.21093,0 m -29.74219,0.21094 0.42187,1.47656 -0.21093,0 -0.84375,0.21094 0.42187,0.42187 0.63281,0 0.42188,-1.47656 -0.84375,-0.63281 m 15.60937,0.63281 0,0.63281 -0.21093,-0.21093 -1.6875,0 c -1.82815,0.28128 -2.74222,1.19534 -2.74219,2.74218 l 0,0.21094 c -3e-5,1.12503 0.7031,1.68753 2.10937,1.6875 l 2.10938,-0.63281 c 0.63278,0.2344 1.12497,0.65628 1.47656,1.26562 l 0,0.42188 c -0.25784,0.51565 -0.67972,0.86721 -1.26562,1.05469 l -2.53125,-0.63282 -0.63282,0 -0.63281,0.63282 0,0.21093 0.42188,0.42188 c -3e-5,-0.42185 0.28122,-0.77341 0.84375,-1.05469 l 2.53125,0.63281 c 1.12497,3e-5 1.68747,-0.63278 1.6875,-1.89843 l 0,-0.42188 c -0.5391,-0.84372 -1.31253,-1.26559 -2.32032,-1.26562 l -1.6875,0.42187 -0.21093,0 c -0.70315,-0.39841 -1.05472,-0.82028 -1.05469,-1.26562 -3e-5,-1.0781 0.98435,-1.71091 2.95312,-1.89844 2.24997,0.67972 3.37497,1.80472 3.375,3.375 l 0,0.84375 c -3e-5,0.96096 -1.19534,2.57815 -3.58593,4.85156 -2.15628,2.76565 -3.4219,5.36721 -3.79688,7.80469 l 0.21094,0.63281 c 0.56247,-0.2578 1.19529,-1.45311 1.89844,-3.58594 l 1.26562,-1.6875 c -0.56253,3e-5 -0.84378,-0.21091 -0.84375,-0.63281 l 0.21094,-0.21094 c 0.42185,3e-5 0.63278,0.21096 0.63281,0.63282 l 1.26563,-0.84375 0,-0.21094 -0.42188,0 -0.63281,0.63281 -0.42188,-0.42187 0,-0.63282 0.42188,0 0,0.42188 0.42187,0 -0.42187,-1.05469 0.21094,0 0.21093,-0.21094 0.21094,0 c -3e-5,0.4219 0.1406,0.63284 0.42188,0.63282 l 0.21093,0 -0.42187,-0.63282 0,-0.21093 0.63281,-0.63282 0.21094,0 0,0.42188 -0.21094,0.21094 0,0.21093 1.26563,0.42188 c 0.72653,-0.42185 1.42965,-0.63279 2.10937,-0.63281 l 0.63281,0 c 1.92184,2e-5 3.04684,0.77346 3.375,2.32031 l 0.21094,0.84375 c -0.23441,0.70314 -0.65628,1.05471 -1.26562,1.05469 -0.42191,2e-5 -1.26566,-0.98436 -2.53125,-2.95313 l -1.05469,-0.21094 c -1.12503,3e-5 -1.68753,0.49221 -1.6875,1.47657 l 0,0.42187 0.42187,0 c 0.0468,-0.7031 0.25779,-1.05466 0.63282,-1.05469 l 0.21093,0 c 0.7031,3e-5 1.75778,0.84378 3.16407,2.53125 l 1.05468,0.21094 c 1.54684,-0.21092 2.32028,-1.19529 2.32032,-2.95312 l -1.05469,-1.47657 0,-0.42187 0.42187,0 0,-0.21094 c -0.75003,-0.98435 -2.01566,-1.47654 -3.79687,-1.47656 -0.77347,2e-5 -1.82816,0.63284 -3.16406,1.89844 l -0.84375,0 0,-0.42188 c 0.0937,-0.46872 1.00778,-1.03122 2.74218,-1.6875 l -0.21093,-0.21094 0,-0.21093 0.84375,-0.84375 -0.21094,0 -0.42188,0.42187 -0.21093,0 0,-0.21094 c 0.16403,-0.46872 0.5859,-0.89059 1.26562,-1.26562 l 0,-0.21094 0.42188,0 0,0.42188 0.21093,0 0,-1.26563 -0.21093,0 -0.63282,0.42188 -0.42187,-0.42188 0.21094,-0.21094 0,-1.47656 c -0.28129,-1.26559 -0.63285,-1.8984 -1.05469,-1.89844 l -0.21094,0 0,0.42188 -0.42187,0 c -3e-5,-0.74997 -0.77347,-1.38278 -2.32032,-1.89844 m 5.27344,0 0,0.21094 0.42188,0 0,-0.21094 -0.42188,0 m 9.70313,5.48438 0.21093,0 4.21875,-4.42969 0.84375,0 0,-0.63281 -0.42187,0 0,-0.21094 c -0.30474,3e-5 -1.14849,0.98441 -2.53125,2.95312 l -2.32031,2.32032 m -28.47657,-4.21875 0,0.63281 0.21094,0.21094 0,0.21093 -0.84375,0 c -1e-5,1.1016 0.91405,2.08597 2.74219,2.95313 l 0,0.63281 -0.42188,0.42188 -0.84375,-0.63282 0.21094,-0.21093 -0.21094,0 -0.21093,0.21093 c -0.35158,-1.12497 -0.91408,-1.68747 -1.6875,-1.6875 l 0,0.21094 0.21093,0.84375 -1.89843,-0.42187 -0.42188,0 c 0.4453,1.12503 1.14843,2.17971 2.10938,3.16406 -0.70314,3e-5 -1.0547,0.14065 -1.05469,0.42187 0.28124,3e-5 0.42186,0.21097 0.42187,0.63282 1.61718,2e-5 2.53124,0.35158 2.74219,1.05468 l -0.63281,0.63282 c -1.21877,-0.7031 -2.13283,-1.05467 -2.74219,-1.05469 l -0.21094,0 0,0.42187 c 0.42187,3e-5 0.6328,0.14065 0.63282,0.42188 l -1.6875,0.42187 0,1.05469 0.84375,-0.63281 3.16406,0.63281 1.47656,-0.42187 0,-0.21094 -0.42187,0 0.42187,-0.63281 -0.21094,0 -0.42187,0.42187 -0.21094,0 0,-0.21094 0.42188,-0.42187 -0.21094,-0.21094 0,-0.42187 0.42187,0 0.21094,0.21093 0.21094,0 0.21094,-0.21093 0,1.05468 c 0.42185,3e-5 0.77342,-0.98435 1.05468,-2.95312 l -0.63281,0.42187 -0.21094,0 0,-0.21093 0.84375,-1.05469 -0.21093,0 -0.42188,0.63281 -0.63281,-0.21094 0,-0.42187 1.05469,-0.42188 0.21093,0.21094 c -0.0938,-0.86716 -0.93751,-2.34372 -2.53125,-4.42969 l -0.21093,-0.63281 0.63281,-1.26562 -0.42188,0 -0.84375,0.84375 m -7.17187,-0.84375 2.95312,1.89843 -0.42187,0 c -1.68751,-0.51559 -2.53126,-1.1484 -2.53125,-1.89843 m 25.52344,1.26562 0,0.21094 c 3.09371,0.30472 4.64058,0.72659 4.64062,1.26562 -4e-5,0.7266 -0.21097,1.14847 -0.63281,1.26563 l -0.84375,0 c -0.7266,-0.7031 -1.35941,-1.05466 -1.89844,-1.05469 l -0.42187,0.42188 0,0.42187 0.42187,0 0,-0.42187 0.63281,0 1.47657,1.05468 1.05468,0 c 0.25778,3e-5 0.60934,-0.49215 1.05469,-1.47656 l 0.63281,0.21094 0,-0.42188 -1.05468,-1.05468 -1.26563,0 -3.58594,-0.42188 -0.21093,0 m -21.9375,0.42188 c 1.12498,0.49222 1.68748,0.84378 1.6875,1.05468 l -0.21094,0 -1.6875,-0.42187 0,-0.21094 0.21094,-0.21094 0,-0.21093 m 32.48437,0.21093 -0.42187,0.63282 0.21093,0 0.42188,-0.63282 -0.21094,0 m 4.21875,0 0,0.63282 0.21094,0 0.42187,-0.42188 -0.21093,-0.21094 -0.42188,0 m -1.26562,1.05469 0,0.84375 0.42187,0 0,0.21094 0.63281,-0.21094 0,-0.42187 -0.42187,-0.42188 -0.63281,0 m 1.47656,0.84375 0.42187,0 0,-0.42187 -0.42187,0.42187 m -29.74219,-0.21094 0,0.63282 0.21094,0 0,-0.63282 -0.21094,0 m 3.79688,0.42188 0,0.42187 0.21093,0 0,-0.42187 -0.21093,0 m -0.63282,0.21094 -0.21093,0.63281 0.21093,0 0.21094,-0.21094 0,-0.42187 -0.21094,0 m 24.25782,0.63281 0,0.21094 0.42187,0.42187 0.42188,0 0.21093,-1.05469 -0.63281,0 -0.42187,0.42188 m 1.6875,-0.42188 0,0.21094 0.21093,0.21094 0,0.21094 -0.21093,0.63281 1.05468,0 0,-0.84375 -0.42187,-0.42188 -0.63281,0 m -25.52344,0.21094 -0.21094,0.63281 0.21094,0 0.21094,-0.21093 0,-0.42188 -0.21094,0 m -20.25,0.21094 0,0.21094 0.42187,0.42187 0.21094,-0.21094 0,-0.42187 -0.63281,0 m 32.27344,1.05469 0,0.21093 1.05468,0 c 2.10934,-0.32809 3.16403,-0.74997 3.16407,-1.26562 l -0.21094,0 c -1.07816,0.70315 -2.4141,1.05471 -4.00781,1.05469 m -14.76563,-0.42188 -0.21094,0.21094 0,0.21094 0.21094,0 0.21094,-0.21094 0,-0.21094 -0.21094,0 m 15.1875,1.05469 -0.63281,-0.21094 0,0.21094 -0.21094,0.21094 0,0.21093 0.21094,0 c 3.79684,-0.23434 5.69527,-0.65622 5.69531,-1.26562 l 0,-0.21094 -5.0625,1.05469 m -33.53906,-0.42188 0,0.21094 0.84375,0.21094 0.21094,-0.21094 0,-0.21094 -0.63282,-0.42187 -0.42187,0.42187 m 1.89844,-0.42187 -0.21094,0.63281 0.21094,0.21094 0.21093,0 0.63282,-0.21094 0,-0.21094 -0.42188,-0.42187 -0.42187,0 m 6.75,-0.21094 0.21093,0.21094 0,0.21094 -0.42187,0.42187 -0.21094,0 -0.42187,-0.42187 0,-0.21094 0.84375,-0.21094 m 8.01562,0 0.21094,0 c -0.14064,0.70315 -0.56252,1.05472 -1.26563,1.05469 l 0,-0.21094 1.05469,-0.84375 m 27,0.21094 0,0.63281 0.63281,0.63281 0.42188,-0.42187 0,-0.42188 -0.42188,-0.42187 -0.63281,0 m 1.89844,1.05469 0,0.63281 1.05469,0 0,-0.84375 -0.42188,-0.42188 -0.63281,0.63282 m -36.70313,-0.63282 0.84375,0 0,0.42188 -0.42187,0.42187 -0.42188,0 0,-0.84375 m 4.21875,0 0.21094,0 c 1.21874,1.14847 2.20311,1.78128 2.95313,1.89844 l -0.42188,0.42188 c -1.07814,2e-5 -1.9922,-0.77341 -2.74219,-2.32032 m 34.17188,0.21094 0,0.42188 0.42187,0.42187 0,-0.84375 -0.42187,0 m -44.50781,0.42188 0,0.21093 0.42187,0.42188 0.63281,-0.21094 0,-0.21094 -0.21093,-0.21093 0,-0.21094 -0.84375,0.21094 m 14.97656,2.10937 0,0.42188 2.10937,1.05468 0,0.42188 -0.84375,0 -1.26562,-0.84375 -0.21094,0 -1.47656,1.89844 0,1.05468 c 0.56248,3e-5 0.84373,0.28127 0.84375,0.84375 l 1.05469,1.05469 -0.63282,0 0,0.21094 1.6875,0.42187 0,-0.21093 -0.42187,-1.47657 2.95312,0.42188 0.42188,-1.05469 -0.21094,0 -0.21094,-0.21094 0,-0.21093 -0.21093,0.21093 -0.21094,0 0,-1.47656 c 0.42185,2e-5 0.63279,-0.1406 0.63281,-0.42187 l 0.42188,0 0,1.05468 0.21093,0 0,-0.84375 -1.05468,-1.47656 0,-0.42187 1.05468,0.21093 0.42188,0 0,-0.21093 c -3e-5,-1.03123 -0.70315,-1.94529 -2.10938,-2.74219 l -0.42187,0 0,0.21094 0.63281,0 0,0.63281 c -0.4219,3e-5 -0.63283,0.14065 -0.63281,0.42187 l -0.84375,-0.21093 0.21094,-0.21094 0,-0.21094 c -0.4219,3e-5 -0.63284,-0.1406 -0.63282,-0.42187 l 0.42188,0 0,-0.21094 -0.42188,0 c -0.84377,0.28128 -1.26564,1.05471 -1.26562,2.32031 m -17.71875,-1.89844 -0.21094,0.63282 0.21094,0.21093 0.42187,0 0,-0.42187 -0.42187,-0.42188 m 1.05469,0 0,0.84375 0.84375,0 0,-0.42187 -0.42188,-0.42188 -0.42187,0 m 6.53906,0 0,0.21094 0.63281,0.42188 0,-0.21094 -0.63281,-0.42188 m 2.95312,-0.21093 0,0.84375 -0.84375,-0.63282 0.21094,-0.21093 0.63281,0 m -4.64062,0.42187 0,0.21094 -0.21094,3.58594 c -1e-5,8.15626 2.95312,13.28907 8.85938,15.39843 2.48435,0.84376 4.87498,1.26564 7.17187,1.26563 -2e-5,-1.26562 -0.4219,-1.89843 -1.26562,-1.89844 -3.02346,1e-5 -5.97658,-1.61718 -8.85938,-4.85156 -1.68751,-2.41405 -2.53126,-5.08592 -2.53125,-8.01563 l 0.42188,-2.53125 c -1e-5,-0.30466 -1.19533,-1.35935 -3.58594,-3.16406 m 31.21875,0 0,0.21094 1.47656,0.21094 0,-0.42188 -1.47656,0 m -12.23438,0.63281 0,0.42188 0.63282,0 0.42187,-0.42188 -0.42187,-0.42187 -0.21094,0 -0.42188,0.42187 m 17.50782,0 0,0.21094 1.89843,0 0.42188,-0.42187 -0.21094,0 -2.10937,0.21093 m 4.64062,-0.21093 -0.63281,0.84375 0.63281,0.42187 0.63281,-0.63281 -0.63281,-0.63281 m -44.50781,0.21093 0,0.42188 c 1.12499,2e-5 1.68749,0.4219 1.6875,1.26562 l -1.6875,2.53125 0.21094,0 c -1e-5,-0.25779 0.56249,-0.8906 1.6875,-1.89843 l 0,-0.84375 c -1e-5,-0.98435 -0.63282,-1.47654 -1.89844,-1.47657 m 32.0625,0.21094 0,0.21094 4.00781,0.84375 0,-0.63281 -3.16406,-0.63282 -0.84375,0.21094 m -11.17969,0 0,0.84375 0.42188,0 0.42187,-0.42187 0,-0.42188 -0.84375,0 m 21.51563,0.42188 0.21093,0.63281 0.21094,0 0.42188,-0.42188 0,-0.63281 -0.42188,0 -0.42187,0.42188 m -44.50782,0.42187 0,0.21094 0.63282,0 0.42187,-0.42188 0,-0.21093 -0.63281,0 -0.42188,0.42187 M 188.875,175.9802 c 1.54684,0.16408 2.32028,0.44533 2.32031,0.84375 l -3.16406,-0.21094 0,-0.21094 0.84375,-0.42187 m -30.16406,0.84375 0.21093,0.21093 0.42188,0 0,-0.63281 -0.21094,0 -0.42187,0.42188 m 22.57031,0.42187 0,0.63281 0.42187,0 0.42188,-0.42187 0,-0.63281 -0.42188,0 -0.42187,0.42187 m 12.02344,-0.42187 0,0.21093 c 1.12496,0.14065 1.68746,0.70315 1.6875,1.6875 l -0.42188,0.42188 0.21094,0 c 0.42183,2e-5 0.63277,-0.28123 0.63281,-0.84375 -4e-5,-0.56248 -0.63285,-1.05466 -1.89844,-1.47656 l -0.21093,0 m 10.75781,0.42187 0,0.21094 0.21094,0.63281 -1.6875,0.84375 -0.84375,-0.63281 0.42187,0 0.21094,0.21094 0.21094,0 0,-0.21094 -1.05469,-0.63281 -0.63281,0 0,0.84375 -0.42188,0 -1.26562,-0.84375 0,1.05468 0.84375,0.21094 0.21093,-0.21094 0.21094,0 2.74219,1.47657 0.63281,-0.21094 0,-0.42188 -0.42187,-0.63281 c 0.70307,-0.0937 1.05463,-0.30466 1.05468,-0.63281 l 0,-0.63281 -0.42187,-0.42188 m -23.83594,0.21094 0,0.84375 0.42188,0 0.21093,-0.21094 0.21094,0 -0.21094,-0.63281 -0.63281,0 m -22.99219,0.42187 c 0,0.28128 0.21094,0.4219 0.63282,0.42188 l 0.21093,0.63281 -0.21093,0.84375 0,0.21094 c 0.56249,2e-5 0.84374,0.14065 0.84375,0.42187 -0.42188,0.14065 -0.63282,0.56252 -0.63282,1.26563 l 0,0.21094 c 0,1.12501 0.5625,1.68751 1.6875,1.6875 l 2.10938,0 0.42187,-0.42188 -0.21093,0 -2.74219,0.21094 -1.05469,-1.6875 c 0.21094,-0.56248 0.42187,-0.84373 0.63281,-0.84375 l 1.26563,0.42187 c 0.39843,-0.7031 1.03124,-1.05466 1.89844,-1.05468 l 0,-0.21094 c -0.0703,-0.28123 -0.42188,-0.56248 -1.05469,-0.84375 l -1.26563,1.05469 -0.42187,0 -0.63281,-0.42188 0.21093,-1.05469 0,-0.42187 -0.42187,-0.42188 -1.26563,0 m 27.21094,0.63282 0,0.42187 0.63281,-0.21094 0,-0.21093 -0.63281,0 m -4.21875,0.42187 0,0.21094 0.42188,0.42187 0.21093,-0.21093 0,-0.42188 -0.63281,0 m -1.89844,0.42188 0,0.63281 0.21094,0 0,-0.63281 -0.21094,0 m 21.30469,0.21093 0,0.21094 c -4e-5,0.51565 0.42183,1.28908 1.26563,2.32031 l 0,0.84375 -0.63282,0.63282 -0.42187,0 -0.63281,-0.42188 0,0.63281 c 0.14058,0.4219 0.56245,0.63283 1.26562,0.63282 0.56246,1e-5 0.84371,-0.77342 0.84375,-2.32032 l 0.21094,-0.21093 0.42187,0 0,0.42187 0.63282,0 0,-0.42187 c -5e-5,-0.79686 -0.35161,-1.28905 -1.05469,-1.47657 l 0,0.21094 0.84375,0.84375 0,0.42188 -1.26563,-0.21094 0,-0.84375 0.21094,0 c -4e-5,0.42189 0.14058,0.63283 0.42188,0.63281 -0.23442,-0.84373 -0.58599,-1.2656 -1.05469,-1.26562 l -0.21094,-0.21094 -0.21094,-0.63281 -0.63281,0.21093 m 1.47656,-0.21093 -0.21093,0.21093 0,0.21094 0.21093,0 0.21094,-0.21094 0,-0.21093 -0.21094,0 m -30.375,0.21093 c -1e-5,0.70315 -0.35157,1.05471 -1.05468,1.05469 l 0.42187,-0.63281 -0.21094,0 c -1.26563,1.26564 -1.89845,2.46096 -1.89843,3.58594 l 0,0.21093 0.21093,0.21094 0,0.21094 2.10938,-0.84375 0,0.84375 1.05469,0 0,-0.21094 -0.21094,-0.21094 1.05469,-1.6875 0.21093,0 0,0.63282 -0.84375,1.26562 0.21094,0 c 0.56248,-0.58592 0.84373,-1.14842 0.84375,-1.6875 l 0,-0.84375 c -0.56252,2e-5 -0.91408,-0.35154 -1.05469,-1.05469 -0.21095,3e-5 -0.56251,0.70315 -1.05468,2.10938 l -0.21094,0.21094 -0.21094,0 0,-0.42188 1.26563,-2.74219 -0.21094,0 -0.21094,0.21094 -0.21094,-0.21094 m 23.625,0.63282 0,0.63281 0.21094,0 0.42188,-0.42188 0,-0.21093 -0.63282,0 m -27.63281,0.42187 -0.21094,0.21094 0,1.47656 0.21094,0 0.21094,-1.6875 -0.21094,0 m 36.49219,0.42188 0,0.42187 1.05469,0.21094 0.21093,0 0.21094,-0.63281 -1.05469,0.21093 -0.21093,-0.21093 -0.21094,0 m -10.125,0.21093 0,0.63282 0.42187,0 0,-0.63282 -0.42187,0 m -14.13281,0.21094 c -3e-5,0.70315 -0.14065,1.05471 -0.42188,1.05469 0.21092,0.56252 0.42185,0.84377 0.63281,0.84375 l 0.21094,-1.05469 0,-0.42187 -0.42187,-0.42188 m 6.53906,0 0,1.05469 -0.42188,0.84375 -0.42187,0 c -0.84378,2e-5 -1.26565,-0.35155 -1.26563,-1.05469 l -0.42187,0.42188 c 0.18747,0.70314 0.67966,1.0547 1.47656,1.05468 l 0.21094,0 2.32031,-0.42187 -0.63281,0.84375 0,0.21094 0.42187,0.42187 c -3e-5,-0.51561 0.35153,-0.86717 1.05469,-1.05469 l 0.63281,1.05469 -0.84375,1.89844 0,0.21094 0.21094,0 c 0.70309,-1.12499 1.05466,-1.89842 1.05469,-2.32032 l 0,-1.47656 c -0.93753,-1.12498 -1.8516,-1.68748 -2.74219,-1.6875 l -0.63281,0 m 9.07031,0.21094 0,0.84375 0.42188,-0.42188 0,-0.42187 -0.42188,0 m -38.17969,1.47656 0,0.63281 0.84375,1.05469 -0.63281,0.42188 c 0.14063,0.56251 0.5625,0.84376 1.26563,0.84375 l 1.05468,0 1.26563,-1.05469 0.63281,0.21094 0,0.63281 c -1.40625,1.00783 -2.10938,1.92189 -2.10937,2.74219 l 0,0.63281 0.21093,0 0.63282,-0.42188 c 0.60937,1.40627 1.3828,2.10939 2.32031,2.10938 l 0.21094,0 c 0.98436,1e-5 1.47655,-0.49218 1.47656,-1.47656 l 0,-0.42188 -0.42188,-0.42187 -0.21093,0 0.21093,0.63281 c -0.21094,0.56251 -0.42188,0.84376 -0.63281,0.84375 l -0.84375,0 c -0.70313,-0.35155 -1.05469,-0.91405 -1.05469,-1.6875 l 0,-0.42188 c 0,-0.42186 0.28125,-1.05467 0.84375,-1.89843 -0.28125,1e-5 -0.42188,-0.35155 -0.42187,-1.05469 l -0.21094,-0.21094 0.21094,0 0.21094,0.21094 0.21093,0 0,-0.63281 -1.26562,0.21093 c -2.10938,2e-5 -3.16407,-0.91404 -3.16406,-2.74218 -0.42188,0.14064 -0.63282,0.56252 -0.63282,1.26562 m 46.61719,-0.84375 0,0.42188 -0.21094,0 c 0.70308,1.33595 1.19527,2.95314 1.47657,4.85156 -5e-5,4.75782 -1.89849,7.99219 -5.69532,9.70312 l -2.53125,0.42188 c -1.54691,-0.32812 -2.32035,-0.75 -2.32031,-1.26563 l 0,-0.42187 0.42188,-0.42188 0.84375,0 c 0.91402,0.84376 1.68746,1.26563 2.32031,1.26563 l 0.63281,-0.21094 0,-0.21094 c -1.24223,1e-5 -2.36723,-0.49218 -3.375,-1.47656 l -1.47656,0 -1.05469,1.05469 -0.63281,-0.42188 0,1.26563 0.84375,0.84375 1.05469,0 0,0.63281 -0.63282,0 c -0.60941,0 -2.08597,-0.63281 -4.42968,-1.89844 l -0.63282,0 0,0.84375 -1.6875,-0.42187 -0.42187,0 c -0.84378,0.0937 -1.26565,0.30469 -1.26563,0.63281 l 0,0.63281 c -2e-5,0.32813 0.35154,0.53907 1.05469,0.63282 l 0.21094,0 0,-0.21094 c -0.42191,0 -0.63284,-0.14062 -0.63281,-0.42188 l 0,-0.63281 0.42187,0 0,-0.21094 c 2.85934,1.12501 5.32028,1.68751 7.38281,1.6875 5.60152,1e-5 9.39839,-2.03905 11.39063,-6.11718 0.42182,-1.19531 0.63276,-2.95312 0.63281,-5.27344 -0.23442,-3.18748 -0.79692,-4.94529 -1.6875,-5.27344 m -13.28906,2.32031 3.79687,-1.6875 0,-0.42187 -0.21093,0 -3.58594,1.89844 0,0.21093 m -22.99219,-1.89843 0,1.47656 0.21094,0 0,-1.47656 -0.21094,0 m 3.16406,0 0.21094,0 0,0.42187 -0.21094,0 0,-0.42187 m 3.58594,1.89843 0,1.05469 1.89844,1.6875 c -2e-5,0.42189 0.1406,0.63283 0.42187,0.63281 l 0,-0.63281 -1.6875,-1.47656 0,-0.21094 0.21094,-0.63281 1.05469,0 c 0.98435,0.60939 1.47654,1.45314 1.47656,2.53125 l 0.21094,0 c -2e-5,-0.42186 0.1406,-0.6328 0.42187,-0.63281 -2e-5,0.42189 0.21092,0.63282 0.63282,0.63281 l 0.21093,0.21094 0,1.05468 c -0.42189,0.63283 -0.63283,1.26564 -0.63281,1.89844 l -0.42187,0 0,-2.95312 -0.21094,0 0,2.74218 c -2e-5,0.98439 0.49216,1.6172 1.47656,1.89844 1.0781,3.79688 2.13279,5.69532 3.16406,5.69531 l 1.05469,0.63282 0,-0.42188 c -1.75784,-1.66406 -2.6719,-3.35155 -2.74219,-5.0625 0.1406,-0.65624 0.63279,-1.28905 1.47657,-1.89844 -3e-5,-3.93748 0.77341,-5.90623 2.32031,-5.90625 l 0.42187,0 0.63282,0.63282 c -3e-5,0.70314 -0.49222,1.19532 -1.47657,1.47656 l 0,1.05469 c 0.1406,0.42188 0.56248,0.63282 1.26563,0.63281 0.74997,1e-5 1.24216,-0.28124 1.47656,-0.84375 l 0,-0.21094 -0.84375,0.63281 -0.63281,0 -0.63281,-0.63281 0,-0.21094 c -3e-5,-0.23436 0.56247,-0.65623 1.6875,-1.26562 l 0,-0.84375 c -3e-5,-0.98436 -0.63285,-1.47655 -1.89844,-1.47656 l -1.47656,0.84375 0,-1.26563 -0.21094,0 c -1.26565,0.98439 -1.89846,1.75783 -1.89844,2.32031 l 0.21094,0 0.84375,-1.05468 0.21094,0.21093 -1.05469,2.10938 0.21094,0 -0.21094,0.63281 -0.42188,0 0,-0.84375 -0.21093,0 c -3e-5,2.39064 -0.21097,3.58595 -0.63282,3.58594 l -0.21093,0 -0.42188,-0.42188 0,-0.21093 0.84375,-3.16407 c -2e-5,-1.07811 -0.4219,-2.06248 -1.26562,-2.95312 l -0.21094,0 -0.21094,0.84375 -0.21094,0 c -0.58596,-0.65623 -1.35939,-1.14842 -2.32031,-1.47656 -1.12502,0.37501 -1.68752,0.72658 -1.6875,1.05468 m 13.71094,6.11719 0,1.26563 0.42187,0 0,-1.47657 c -3e-5,-2.57811 1.68747,-4.47654 5.0625,-5.69531 1.40622,-0.14061 2.10934,-0.35154 2.10938,-0.63281 l 0,-0.42188 -1.26563,0 c -2.29691,2e-5 -4.26565,1.5469 -5.90625,4.64063 -0.28128,0.53907 -0.4219,1.31251 -0.42187,2.32031 m 15.39844,-6.96094 c 0.42182,0.9844 0.63276,1.89846 0.63281,2.74219 -0.0938,0.70314 -0.30474,1.0547 -0.63281,1.05469 l -0.21094,0 -0.84375,-0.84375 0,-0.42188 0.42187,-1.26562 0,-0.21094 -0.21093,0 -0.42188,1.47656 0,0.42188 c 0.49214,0.98439 0.8437,1.47657 1.05469,1.47656 l 0.42187,0 c 0.28121,-0.0703 0.56246,-0.42186 0.84375,-1.05469 -0.32817,-2.24998 -0.67973,-3.37498 -1.05468,-3.375 m -40.92188,0.42188 0,0.21094 0.84375,1.05468 0.21094,0 0,-1.26562 -1.05469,0 m 5.27344,0.21094 0,0.63281 0.21094,0 0,-0.63281 -0.21094,0 m 4.85156,0.21093 0,1.05469 0.21094,1.05469 -0.63281,-0.42188 -0.21094,0 c -2e-5,1.00783 0.91404,1.85158 2.74219,2.53125 l 0.21093,0.63282 0.21094,0 0,-0.42188 0.21094,0 0,1.05469 -0.42188,0 -0.21093,0.21094 -0.21094,-0.21094 c -2e-5,-0.35155 -0.28127,-0.56249 -0.84375,-0.63281 -0.35158,-0.84374 -0.91408,-1.26562 -1.6875,-1.26563 l -0.84375,0 0,0.63281 c 1.17186,2e-5 2.01561,0.56252 2.53125,1.6875 -2e-5,0.28126 0.21092,0.42189 0.63281,0.42188 l 1.05469,-0.42188 c -2e-5,0.35158 0.56248,0.98439 1.6875,1.89844 l 0.21094,0 0,-0.21094 -1.6875,-2.74218 c 0.28123,1e-5 0.42185,-0.21093 0.42187,-0.63282 -2e-5,-0.2578 -0.84377,-1.03123 -2.53125,-2.32031 L 172,184.62863 l -0.21094,0 m 26.57813,0.21094 0,0.21094 c 0.8437,0.84376 1.26558,1.6172 1.26562,2.32031 l 0,0.21094 c -0.18754,1.26564 -0.82035,1.89845 -1.89844,1.89844 l -1.05468,-0.21094 0,0.63281 0.84375,1.05469 0,0.21094 c -1.71098,1e-5 -3.18754,0.91407 -4.42969,2.74218 l 1.05469,-0.21093 c 1.85152,0.84375 3.11714,1.26563 3.79687,1.26562 l 0.42188,0 0,-0.21094 -0.84375,0 0,-0.42187 1.47656,-0.21094 0,-0.21094 -0.21094,0 -0.63281,0.21094 -0.21094,-0.21094 0,-0.21093 1.26563,-0.63282 0,0.42188 0.21093,-0.21094 0.21094,0 0.42188,0.42188 -0.42188,0.42187 -1.05469,0.42188 0,0.21093 0.21094,0 c 1.26558,-0.79686 1.89839,-1.49999 1.89844,-2.10937 l 1.05469,0.21094 0.84375,0 0,-0.21094 -0.84375,-1.05469 0.21093,-0.63281 -0.21093,0.21094 -0.21094,0 0,-0.21094 0.42187,-1.26563 0,-0.21093 -0.21093,0 c -0.0938,0.98438 -0.30474,1.47657 -0.63282,1.47656 l -0.21093,0 0.42187,-1.47656 0,-1.05469 -0.21094,0 c -4e-5,1.50001 -0.49223,2.5547 -1.47656,3.16406 l -0.21094,0 0,-0.21094 c 0.84371,-1.47655 1.26558,-2.74217 1.26563,-3.79687 l 0,-0.42188 -0.21094,0 0,0.63282 -0.42187,0 c -0.4688,-1.96874 -0.89067,-2.95311 -1.26563,-2.95313 l -0.42187,0 m -30.375,0.21094 0,0.42187 2.53125,1.47657 0,-0.84375 -2.53125,-1.05469 m -0.84375,0.21094 0,0.42187 0.21093,0 0,-0.42187 -0.21093,0 m 10.96875,0 0.21093,0 0.63282,0.63281 0,1.47656 -0.21094,0 -0.63281,-2.10937 m 20.03906,0.42187 0,0.21094 1.05469,0.84375 c -0.2813,-0.6328 -0.56255,-0.98436 -0.84375,-1.05469 l -0.21094,0 m -9.70313,3.79688 0,0.21093 0.21094,0 c 0.67965,-1.54686 1.59372,-2.32029 2.74219,-2.32031 l 0.42187,0.63281 0,0.42188 -1.05468,1.26562 c 1.40621,-0.42186 2.10933,-1.12498 2.10937,-2.10937 -4e-5,-0.42186 -0.3516,-0.6328 -1.05469,-0.63281 l 0,-0.63282 c -2.25003,0.79689 -3.37503,1.85158 -3.375,3.16407 m 12.65625,-2.10938 0,0.63281 0.21094,0 0,-0.63281 -0.21094,0 m -23.41406,0.63281 0,0.63282 0.21094,0 0,-0.63282 -0.21094,0 m -21.09375,4.42969 c 0,2.48438 1.125,4.38282 3.375,5.69531 0.67968,0.42188 1.59375,0.63282 2.74219,0.63282 3.37499,-0.46875 5.06249,-1.94531 5.0625,-4.42969 -0.56251,-1.96874 -1.47657,-2.95312 -2.74219,-2.95313 l -0.63281,0 c -0.4922,1e-5 -0.98438,0.28126 -1.47656,0.84375 l -0.63282,-0.42187 -0.21093,0 c -0.72657,0.56251 -1.50001,0.84376 -2.32032,0.84375 -0.46875,1e-5 -0.96094,-0.21093 -1.47656,-0.63281 l 0,0.63281 c 0,0.42188 0.28125,0.63282 0.84375,0.63281 l 0,0.21094 -0.42187,0.63281 0.21093,0.21094 1.26563,0 1.26562,-1.05469 0.21094,0 0,0.42188 0.42188,-0.42188 -0.42188,-0.42187 0,-0.42188 0.84375,0 c -1e-5,0.28126 0.21093,0.42189 0.63281,0.42188 l 0,0.42187 c -0.65625,0.56251 -1.21875,1.33595 -1.6875,2.32031 l -0.21093,0 0,-1.05468 -1.26563,0.63281 0.42188,0.42187 -0.21094,1.05469 0,0.42188 c 0.70312,0 1.05468,-0.21094 1.05469,-0.63282 l 0.21093,0 0.63282,0.42188 c -1e-5,-1.26562 0.28124,-2.24999 0.84375,-2.95313 l 0,-0.21093 0.84375,0 c -0.70314,0.72657 -1.0547,1.64063 -1.05469,2.74218 l 0.21094,0.84375 0.21093,-0.21093 1.05469,0.42187 0.21094,0 0,-0.21094 c -0.42188,1e-5 -0.77345,-0.28124 -1.05469,-0.84375 0.0937,-0.89062 0.51562,-1.73436 1.26563,-2.53125 l -0.42188,-0.84375 -0.21094,0.21094 -0.21093,0 -0.42188,-0.42187 c 0.35156,-0.70312 0.98437,-1.05468 1.89844,-1.05469 1.40624,0.51563 2.10936,1.50001 2.10937,2.95312 l 0,0.21094 c -1e-5,1.68751 -1.40626,2.81251 -4.21875,3.375 l -1.05468,0 c -2.90626,0 -4.59376,-2.03906 -5.0625,-6.11719 l 0,-1.26562 1.05468,-2.74219 c -0.98437,1.00783 -1.47656,2.41407 -1.47656,4.21875 m 1.47656,-2.74219 0,0.63282 c 0.28125,0.84376 0.70313,1.26563 1.26563,1.26562 l 0.21094,-0.21094 0,-0.42187 c -0.84376,1e-5 -1.26563,-0.28124 -1.26563,-0.84375 l 0,-0.42188 -0.21094,0 m 31.00782,0.84375 0,0.21094 0.21093,0 c -3e-5,-0.56249 0.42184,-0.84374 1.26563,-0.84375 l 0,-0.21094 -0.21094,0 c -0.84378,0.28127 -1.26566,0.56252 -1.26562,0.84375 m -7.59375,2.32032 c 0.28122,1e-5 0.42184,-0.28124 0.42187,-0.84375 0.58591,-0.56249 1.14841,-0.84374 1.6875,-0.84375 l 0.84375,0 0.42188,1.05468 0.63281,0 0.21094,-1.05468 c -3e-5,-0.84374 -0.63285,-1.26562 -1.89844,-1.26563 -1.07815,1e-5 -1.85159,0.98439 -2.32031,2.95313 m 6.75,-2.95313 0,0.42188 0.21093,0 0,-0.42188 -0.21093,0 m -7.80469,1.05469 0,0.21094 c -3e-5,0.32813 -0.35159,0.53907 -1.05469,0.63281 l 0,0.21094 c 0.42185,1e-5 0.63279,0.21094 0.63281,0.63281 l -0.21093,0 -0.84375,-0.21094 0.21093,-0.21094 -0.63281,-1.05468 1.89844,-0.21094 m 18.5625,0.84375 0.21094,0.63281 -0.84375,0.21094 -0.21094,-0.21094 0,0.42188 -0.63281,0 -0.21094,-0.63282 1.6875,-0.42187 m -2.32031,0.63281 0.63281,0.63281 -0.63281,0 0,-0.63281 m -31.85157,2.10938 0,0.63281 0.63282,-0.42188 0.21093,0 0.63282,0.42188 -0.21094,0.63281 0,0.21094 0.21094,0 0.21093,-1.05469 -0.63281,-0.84375 -0.63281,0 -0.42188,0.42188 m 38.60157,0 -0.21094,0.63281 0,0.21094 0.21094,0 0.21093,-0.63282 0,-0.21093 -0.21093,0 m -29.95313,0.42187 0,0.21094 0.42188,0 0,-0.21094 -0.42188,0 m 0.84375,0.21094 0,0.21094 0.63281,0 0,-0.21094 -0.63281,0 m 14.55469,0 0,0.21094 c 0.5859,0.79688 1.21871,1.35938 1.89844,1.6875 l 0,-0.42188 -1.47657,-1.47656 -0.42187,0 m -18.5625,0.21094 0,0.21093 0.63281,0 0,-0.21093 -0.63281,0 m 5.0625,0 0,0.21093 1.05469,0 0,-0.21093 -1.05469,0 m 24.04687,0 -0.21093,0.21093 0,0.21094 0.21093,0.21094 0.63282,0 0.42187,-0.42188 -1.05469,-0.21093 m -32.0625,2.32031 0.21094,0 c 0.39843,-0.70312 0.96093,-1.05468 1.6875,-1.05469 0.70311,0.18751 1.05467,0.39844 1.05469,0.63281 l 0,0.84375 c -0.42189,1e-5 -0.63283,0.14063 -0.63281,0.42188 l 0.63281,0 c 0.28123,0 0.42186,-0.42187 0.42187,-1.26563 l 0.63282,0 c -2e-5,0.98438 0.42185,1.47657 1.26562,1.47657 l 0.42188,0 0.42187,-0.42188 c -0.98439,-0.14062 -1.47658,-0.56249 -1.47656,-1.26562 l 0.42187,0 c -1e-5,-0.28125 -0.84376,-0.70312 -2.53125,-1.26563 l 0,-0.21094 -0.21093,0 c -0.70314,0.32813 -1.47658,1.03126 -2.32032,2.10938 m 4.00782,-2.10938 0,0.21094 1.47656,1.05469 0.63281,0 0,-0.42188 c -0.4922,1e-5 -1.19533,-0.28124 -2.10937,-0.84375 m 5.27343,0 0,0.21094 2.32032,0.21094 c -3e-5,-0.28125 -0.21096,-0.42187 -0.63282,-0.42188 l -1.6875,0 m 25.73438,2.32032 c 0.14058,0.5625 0.56245,0.84375 1.26562,0.84375 l 0.21094,0 0.63281,-0.63282 0,-0.21093 -1.05468,0.21093 -0.63282,-0.63281 0.42188,-1.89844 c -0.44536,1e-5 -0.72661,0.77345 -0.84375,2.32032 m -10.125,-1.6875 c 0.84371,0.0937 1.26559,0.30469 1.26562,0.63281 l 0,0.21094 -0.84375,0 -0.42187,-0.42188 0,-0.42187 m -17.08594,1.47656 c -2e-5,0.72656 0.49217,1.14844 1.47656,1.26562 l 0.21094,-0.21093 0,-0.21094 c -0.56252,0 -0.84377,-0.21094 -0.84375,-0.63281 l 0,-0.21094 0.63281,-0.63281 0.21094,0 c 0.42185,0 1.33592,0.42188 2.74219,1.26562 l 0,-0.21094 c -1.12502,-0.98437 -2.25002,-1.47655 -3.375,-1.47656 -0.56252,1e-5 -0.84377,0.35157 -0.84375,1.05469 l -0.21094,0 m 3.79688,-1.05469 0.84375,0.84375 0,-0.21094 -0.63282,-0.63281 -0.21093,0 m -21.72657,0.21094 0,0.21094 0.21094,0.63281 0.21094,0 0,-0.63281 -0.21094,-0.21094 -0.21094,0 m 44.29688,0 -1.26563,1.6875 0.21094,0.21094 0.63281,0 c -4e-5,-0.70313 0.2109,-1.33594 0.63282,-1.89844 l -0.21094,0 m -44.92969,1.6875 0,0.21094 1.05469,0 0,-0.42188 -1.05469,0.21094"
         style="font-size:72px;font-variant:normal;font-stretch:normal;font-family:Goudy Initials;-inkscape-font-specification:Goudy Initials"
         id="path4583" />
    </g>
  </g>
</svg>
