<?xml version="1.0" encoding="UTF-8" standalone="no"?>
<!-- Created with Inkscape (http://www.inkscape.org/) -->

<svg
   xmlns:dc="http://purl.org/dc/elements/1.1/"
   xmlns:cc="http://creativecommons.org/ns#"
   xmlns:rdf="http://www.w3.org/1999/02/22-rdf-syntax-ns#"
   xmlns:svg="http://www.w3.org/2000/svg"
   xmlns="http://www.w3.org/2000/svg"
   xmlns:sodipodi="http://sodipodi.sourceforge.net/DTD/sodipodi-0.dtd"
   xmlns:inkscape="http://www.inkscape.org/namespaces/inkscape"
   width="56.734375"
   height="56.734375"
   id="svg2"
   version="1.1"
   inkscape:version="0.48.5 r10040"
   sodipodi:docname="u.svg">
  <defs
     id="defs4" />
  <sodipodi:namedview
     id="base"
     pagecolor="#ffffff"
     bordercolor="#666666"
     borderopacity="1.0"
     inkscape:pageopacity="0"
     inkscape:pageshadow="2"
     inkscape:zoom="3.959798"
     inkscape:cx="43.996764"
     inkscape:cy="5.617196"
     inkscape:document-units="px"
     inkscape:current-layer="layer1"
     showgrid="false"
     fit-margin-top="2"
     fit-margin-left="2"
     fit-margin-right="2"
     fit-margin-bottom="2"
     inkscape:window-width="1366"
     inkscape:window-height="733"
     inkscape:window-x="0"
     inkscape:window-y="0"
     inkscape:window-maximized="1"
     showborder="true"
     borderlayer="false" />
  <metadata
     id="metadata7">
    <rdf:RDF>
      <cc:Work
         rdf:about="">
        <dc:format>image/svg+xml</dc:format>
        <dc:type
           rdf:resource="http://purl.org/dc/dcmitype/StillImage" />
        <dc:title></dc:title>
      </cc:Work>
    </rdf:RDF>
  </metadata>
  <g
     inkscape:label="Layer 1"
     inkscape:groupmode="layer"
     id="layer1"
     transform="translate(-152.28125,-146.34738)">
    <g
       style="font-size:40px;font-style:normal;font-weight:normal;line-height:125%;letter-spacing:0px;word-spacing:0px;fill:#ffffff;fill-opacity:1;stroke:none;font-family:Sans"
       id="flowRoot2985">
      <path
         d="m 154.28125,148.34738 52.73437,0 0,52.73438 -52.73437,0 0,-52.73438 m 1.05469,1.05469 0,50.625 50.625,0 0,-50.625 -50.625,0 m 0.42187,0.63281 49.57031,0 0,49.57032 -49.57031,0 0,-49.57032 m 16.45313,0.84375 0,0.84375 0.84375,0.84375 0,-0.21093 c -0.32815,5e-5 -0.53908,-0.35152 -0.63282,-1.05469 l 1.26563,-0.42188 -0.42188,-0.42187 -0.63281,0 -0.42187,0.42187 m -12.44532,0.63282 -2.53125,0 -0.21093,-0.21094 -0.21094,0 0,0.21094 c 0,0.32817 0.35156,0.53911 1.05469,0.63281 l -0.21094,0.21094 0,0.42187 0.42187,0 c 0,-0.32807 0.42188,-0.60932 1.26563,-0.84375 l 0,0.42188 1.05469,-0.63282 0.42187,0 0,0.42188 -1.6875,0.84375 0,0.42187 c 2.08593,-1.4062 3.56249,-2.10932 4.42969,-2.10937 l 0,0.42187 -1.26563,0.42188 c 0.1875,0.8438 0.39843,1.26567 0.63282,1.26562 l 0.21093,0 1.47657,-0.21093 0,-0.21094 -1.05469,0 0,-0.42188 0.42187,-0.63281 -0.21093,-0.21094 0.21093,-0.63281 0.21094,0 0.42188,0.42188 0,0.21093 -0.42188,0 0,0.21094 0.21094,0 1.05469,-0.21094 0,-0.21093 c -0.42189,5e-5 -0.63283,-0.14058 -0.63282,-0.42188 l 0,-0.21094 0.42188,0 c 0.28124,5e-5 0.42186,0.21099 0.42187,0.63282 l 0.42188,0 -0.21094,-0.21094 0,-0.42188 0.63281,0 0,0.63282 0.42188,0 -0.21094,-0.21094 0,-0.42188 0.42188,0 0,-0.21093 -2.95313,0 -4.42969,0.84375 m 19.19532,-0.84375 0,0.21093 1.05468,0 0,-0.21093 -1.05468,0 m 3.16406,0 0,0.42187 0.63281,0 0,-0.42187 -0.63281,0 m 2.53125,0 0,0.42187 0.63281,0 0,-0.42187 -0.63281,0 m 5.0625,0 0,0.42187 0.63281,0 0,0.84375 -0.21094,0.21094 0,0.21094 0.21094,0 0.63281,-0.84375 0,-0.42188 -0.42187,-0.42187 -0.84375,0 m -22.35938,0.21093 0.21094,0.21094 -0.21094,0.21094 0,0.42187 c 1.3828,5e-5 3.14061,0.63287 5.27344,1.89844 l 0,-0.21094 c -2.08595,-1.68745 -3.84376,-2.5312 -5.27344,-2.53125 m 8.85938,0 0,0.21094 0.63281,0 0,-0.21094 -0.63281,0 m 1.47656,0.42188 0,0.63281 0.42188,0 0.42187,-0.42187 0,-0.21094 -0.42187,-0.42188 -0.42188,0.42188 m 2.95313,-0.42188 0,0.42188 0.42187,0.42187 0.42188,-0.42187 0,-0.42188 -0.84375,0 m 2.95312,3.79688 c -0.28128,5e-5 -0.56253,-0.49214 -0.84375,-1.47656 -0.6094,0.35161 -1.03127,0.84379 -1.26562,1.47656 l 0.21093,0 0.63282,-0.63281 0,0.21093 -0.21094,0.84375 0.42187,0.42188 -0.21093,1.05469 0.42187,2.32031 0,0.21094 -0.21094,0 -0.42187,-1.6875 -0.21094,0 0,0.63281 0.21094,0.21094 -0.63281,0 0.21093,2.53125 0,1.47656 -0.42187,0.42187 -0.42188,0 -0.21093,-1.05468 0,-2.95313 c -0.28128,-0.28121 -0.63284,-1.61714 -1.05469,-4.00781 l -0.42188,-0.42188 0,-0.21093 0.21094,0 0.63281,0.42187 c -0.2344,-0.63276 -0.72658,-1.19526 -1.47656,-1.6875 -0.21096,0.56255 -0.4219,0.8438 -0.63281,0.84375 l -0.21094,0 c -2e-5,-0.86714 -0.91408,-1.71089 -2.74219,-2.53125 l 0,0.42188 0.42188,1.47656 -0.21094,0 c -1.54689,5e-5 -2.60158,1.19536 -3.16406,3.58594 -0.58595,0.56254 -1.14845,0.84379 -1.6875,0.84375 l -0.42188,-0.42188 0.21094,-0.21094 0,-0.42187 -0.42187,0.42187 0,0.63282 0.42187,0.42187 1.05469,0 c 0.23436,5e-5 1.00779,-1.05464 2.32031,-3.16406 0.49217,-0.42183 1.19529,-0.63277 2.10938,-0.63281 1.19529,4e-5 1.96872,1.75785 2.32031,5.27343 l -0.21094,2.10938 0,0.42187 0.21094,0 0,-1.05468 0.63281,0 0,1.47656 1.26563,1.89844 0,0.21093 c -1.12503,-0.67965 -1.68753,-1.31246 -1.6875,-1.89843 l -0.21094,0 0,0.63281 c 0.74998,1.54691 1.59372,2.32035 2.53125,2.32031 1.12497,4e-5 2.17966,-0.63277 3.16406,-1.89844 l -0.21094,0.21094 -0.42187,0 0,-0.21094 0.21094,-0.63281 -0.21094,-0.21094 -0.21094,0 0.42188,-1.26562 0,-0.84375 0.42187,0 0,-0.21094 0.63281,0.42188 0,1.05468 0.21094,0 c -3e-5,-5.06245 0.77341,-7.5937 2.32031,-7.59375 -3e-5,-0.2812 0.63278,-0.42182 1.89844,-0.42187 l 0.42188,-0.63281 0,-0.42188 c -0.42191,5e-5 -0.63285,-0.14057 -0.63282,-0.42187 l 0.21094,-1.47657 -3.16406,0.84375 c -3e-5,0.42193 -0.28128,0.63287 -0.84375,0.63282 -0.4219,0.53911 -0.63284,1.24223 -0.63281,2.10937 l -0.21094,0.21094 -0.21094,0 m 11.8125,-3.79688 0,0.21094 0.21094,0.63281 0.21094,0 0,-0.63281 1.89843,0 0,0.63281 -0.84375,0 0,0.21094 1.6875,0.42188 0,0.63281 c -4e-5,0.2813 -0.28129,0.42192 -0.84375,0.42187 l 0,0.21094 1.05469,0 0.63281,-0.84375 0.42188,0 0,-0.21094 c -5e-5,-0.37495 -0.56255,-0.6562 -1.6875,-0.84375 l 0,-0.42187 c 0.82027,5e-5 1.73433,0.42192 2.74219,1.26562 l 1.26562,0 0.42188,-0.42187 -0.21094,-0.21094 c 1.12495,5e-5 1.68745,-0.2812 1.6875,-0.84375 l -1.6875,0.42188 -5.48438,-0.63282 -1.47656,0 m -11.8125,0.21094 0,1.26563 0.21094,0 0.42187,-0.42188 0,-0.42187 -0.42187,-0.42188 -0.21094,0 m 4.64063,5.0625 0.21093,0 c 1.40622,-2.29683 3.65622,-3.8437 6.75,-4.64062 l 0,-0.42188 -0.42187,0 c -1.50004,5e-5 -3.25785,0.8438 -5.27344,2.53125 -0.84378,1.24224 -1.26566,2.08598 -1.26562,2.53125 m -9.07032,-4.42969 0,0.63282 0.63282,0 0.42187,-0.42188 -0.21094,-0.21094 -0.84375,0 m 7.38282,-0.21093 1.26562,0 c -0.14066,0.42192 -0.56253,0.63286 -1.26562,0.63281 l -0.63282,0 0.63282,-0.63281 m -4.64063,0.84375 0,0.21093 1.05469,0 0,-0.63281 -0.63281,0 -0.42188,0.42188 m -14.34375,0.42187 0.42188,0.42188 1.05468,-0.42188 0,-0.21094 -0.84375,0 -0.63281,0.21094 m 13.07813,-0.21094 -0.42188,0.63282 0.42188,0.42187 0.42187,0 0.42188,-0.42187 0,-0.42188 -0.84375,-0.21094 m 14.34375,0.42188 0.21093,0 1.05469,-0.21094 0,-0.21094 -0.84375,0 -0.42187,0.42188 m -30.16407,-0.21094 0,0.21094 0.84375,0 0,-0.21094 -0.84375,0 m 27.42188,0.42188 0,0.21093 1.05469,0 0,-0.21093 -1.05469,0 m 9.70312,0 0.42188,0.42187 0,-0.42187 -0.42188,0 m -35.22656,0.84375 -9.28125,0 0,0.21093 2.95313,1.47657 c 1.1953,4e-5 3.02343,3.65629 5.48437,10.96875 l 2.10938,4.64062 2.95312,-1.47656 0,-0.63281 c -0.44533,-0.46872 -1.50001,-3.07028 -3.16406,-7.80469 l -0.21094,0 -0.21094,0.21094 -1.26562,-0.42188 -0.63281,0.21094 c -0.42189,-0.53902 -0.63283,-1.17183 -0.63282,-1.89844 l 0,-0.21094 c 1.26562,-1.12495 1.89843,-2.03901 1.89844,-2.74218 -1e-5,-0.49215 0.77343,-1.26558 2.32031,-2.32032 l -0.21093,-0.21093 0,-0.21094 -2.10938,0.21094 m 25.52344,0 -0.21094,0.21093 0,0.21094 c 2.81246,0.51567 4.21871,1.50005 4.21875,2.95313 l 0,0.63281 -0.63281,2.53125 c -4e-5,0.77348 0.35152,1.33598 1.05469,1.6875 1.52339,-4.64058 3.14058,-6.96089 4.85156,-6.96094 l 1.89844,-1.05469 -5.48438,0 -5.69531,-0.21093 m -11.60156,0.21093 0,0.42188 0.21093,0 0,-0.42188 -0.21093,0 m -13.5,2.74219 0,0.63281 0.21093,0 c -1e-5,-1.17183 0.77343,-2.01558 2.32032,-2.53125 l 0.21093,-0.63281 -0.21093,0 c -1.59377,0.89067 -2.43752,1.73442 -2.53125,2.53125 m 23.20312,-2.53125 c -3e-5,1.54692 -0.49222,2.32036 -1.47656,2.32031 l -1.47656,-0.21093 c -1.12503,0.32817 -1.68753,0.89067 -1.6875,1.6875 l 0.21093,0.63281 0.21094,0 c -3e-5,-1.12496 0.63278,-1.68746 1.89844,-1.6875 1.82809,4e-5 2.74215,-0.42183 2.74219,-1.26563 l 0,-0.42187 -0.21094,-1.05469 -0.21094,0 m 13.28906,0 c -4e-5,0.53911 -1.12504,1.10161 -3.375,1.6875 -1.26566,1.5938 -2.25004,3.63286 -2.95312,6.11719 l 0,0.42187 0.21094,0 c 1.33589,-4.49995 2.88276,-6.74995 4.64062,-6.75 -5e-5,-0.18745 0.56245,-0.39839 1.6875,-0.63281 l 0,-0.84375 -0.21094,0 m -11.60156,0.42188 c -4e-5,0.28129 0.98434,0.70317 2.95313,1.26562 l 0,-0.21094 -2.95313,-1.05468 m -34.38281,0.21093 c 0,0.2813 0.77343,0.63286 2.32031,1.05469 0,-0.23433 -0.77344,-0.58589 -2.32031,-1.05469 m 16.45312,0 0,0.42188 c 1.12498,1.78129 1.68748,3.5391 1.6875,5.27344 l 0,1.47656 0.42188,0 0,-1.47656 c -2e-5,-1.57027 -0.49221,-3.46871 -1.47656,-5.69532 l -0.63282,0 m 6.11719,0.21094 0,0.63281 0.21094,0 0,-0.63281 -0.21094,0 m -23.625,4.64063 0.84375,4.00781 -0.42187,0 0,0.21094 1.47656,2.95312 -0.84375,0.63281 -0.63281,0 -0.21094,-0.21093 -0.21094,0 0,0.21093 0.63281,0.63282 0.84375,0 c 0.375,3e-5 0.65625,-0.49216 0.84375,-1.47657 0.42187,4e-5 0.63281,0.21098 0.63282,0.63282 l 0.21093,0 0,-0.63282 c 0,-0.56246 -0.42188,-1.19527 -1.26562,-1.89843 l 0,-0.63282 -0.21094,0 0,0.42188 -0.42187,0 0,-0.42188 0.63281,-0.84375 1.26562,0.42188 0,0.21094 -0.63281,0 0,0.21093 2.95313,1.47657 c 1.26561,-0.72653 1.89843,-1.21872 1.89843,-1.47657 l 0,-0.42187 c 0,-0.72653 -0.21094,-1.1484 -0.63281,-1.26563 l -0.21094,0 0.21094,0.84375 c -1e-5,0.37504 -0.35157,0.7266 -1.05469,1.05469 -0.65625,4e-5 -1.64063,-0.63277 -2.95312,-1.89844 l -0.21094,0 -0.63281,0.42188 -0.21094,0 c -0.84375,-0.89059 -1.26563,-1.87496 -1.26562,-2.95313 l 0,-0.42187 c -1e-5,-1.03121 0.21093,-2.22652 0.63281,-3.58594 l 0,-0.21094 c -0.51563,5e-5 -0.86719,1.33599 -1.05469,4.00782 m 47.03906,-4.00782 0,0.63282 0.21094,2.10937 -0.63281,2.74219 0.21094,0.21094 0.42187,0 0.42188,-1.89844 0,-1.6875 -0.21094,-2.10938 -0.42188,0 m -45.35156,0.84375 0,0.63282 0.21094,0 0,-0.63282 -0.21094,0 m 44.71875,0.21094 0,1.47656 0.21094,0 0,-1.47656 -0.21094,0 m -30.375,0.63281 c -2e-5,0.37505 -0.21095,0.79692 -0.63281,1.26563 l 0,0.42187 c 0.0937,0.8438 0.30467,1.26567 0.63281,1.26563 l 0.42188,0 -0.63282,-0.84375 0,-0.63281 0.63282,-0.63282 0.63281,0 c 0.7031,0.35161 1.05467,0.8438 1.05469,1.47657 l 0.21093,0 0,-0.42188 c -0.46877,-1.40621 -1.2422,-2.10933 -2.32031,-2.10937 l 0,0.21093 m 17.29688,0.63282 0,0.21093 c 0.84371,5e-5 1.40621,0.49223 1.6875,1.47657 l -0.21094,2.32031 0.84375,1.05469 c -0.56254,0.23441 -0.84379,0.7266 -0.84375,1.47656 l 0,0.63281 0.42187,0.42188 c 0.35153,-0.70309 0.91403,-1.05465 1.6875,-1.05469 l 2.32032,0.63281 c -0.0469,-0.60934 -0.67973,-1.45309 -1.89844,-2.53125 l 0,0.21094 -0.63281,-0.21094 0,-0.63281 c 0.49215,4e-5 1.61714,0.77347 3.375,2.32031 l 2.74218,0.42188 c 1.26558,-0.14059 1.8984,-0.35153 1.89844,-0.63282 l -0.21094,0.21094 -1.05468,0 c -2.32036,4e-5 -4.00786,-0.91402 -5.0625,-2.74219 -0.28129,-0.53902 -0.42192,-1.31246 -0.42188,-2.32031 l 0.84375,-2.10937 -0.21094,0 c -0.98441,4e-5 -1.4766,0.49223 -1.47656,1.47656 l 0.21094,0.63281 -0.63281,0 c -4e-5,-1.40621 -0.56254,-2.10933 -1.6875,-2.10937 -1.05473,0.1641 -1.61723,0.44535 -1.6875,0.84375 m 10.96875,0.21093 0.21093,0 c 0.42183,-0.0937 0.70308,-0.37495 0.84375,-0.84375 l -0.21093,0 -0.84375,0.84375 m -42.82032,-0.63281 c 0.32813,2.39067 1.17188,3.58598 2.53125,3.58594 l 0.63282,0 c 0.30468,4e-5 0.58593,-0.63277 0.84375,-1.89844 l 0,-0.21094 -0.84375,-0.84375 -0.21094,0 0.42187,0.63282 0,0.63281 c -0.14063,0.42192 -0.5625,0.63285 -1.26562,0.63281 -0.70313,4e-5 -1.33594,-0.84371 -1.89844,-2.53125 l -0.21094,0 m 29.10938,1.26563 0.21094,2.10937 0.42187,-0.42187 0,-1.89844 0.21094,-1.05469 -0.21094,0 c -0.23441,5e-5 -0.44534,0.42192 -0.63281,1.26563 m -21.72656,1.05468 0.63281,0.63282 0.42187,-0.42188 0.21094,0 0.63281,0.42188 0.42188,0 -0.42188,-0.63282 0,-0.63281 c 0.14062,-0.42183 0.56249,-0.63277 1.26563,-0.63281 1.12498,0.42192 1.68748,1.26567 1.6875,2.53125 l 0.63281,-0.21094 0,-0.21094 c -1e-5,-1.57027 -0.98439,-2.48433 -2.95312,-2.74218 l -0.21094,0 c -1.54689,0.18754 -2.32032,0.82035 -2.32031,1.89843 M 199,161.00363 l 0,0.63282 c 2.39058,-0.63278 3.58589,-1.12496 3.58594,-1.47657 l 0.42187,-1.26562 0,-0.21094 -0.21094,0 c -4e-5,0.89067 -0.70317,1.45317 -2.10937,1.6875 l -0.42188,0 -0.42187,-0.42187 0,-0.42188 0.84375,-1.05469 -0.21094,0 c -0.37504,5e-5 -0.86723,0.8438 -1.47656,2.53125 m -24.04688,-0.84375 0,0.63282 0.21094,0 0,-0.63282 -0.21094,0 m 10.33594,0.42188 c 0.58591,4e-5 1.14841,0.28129 1.6875,0.84375 -0.28128,-0.84371 -0.56253,-1.26558 -0.84375,-1.26563 l -0.42187,0 -0.42188,0.42188 m -0.21094,2.10937 0,0.21094 0.21094,0 1.05469,-0.42187 0,0.21093 c -3e-5,0.28129 -0.21097,0.42192 -0.63281,0.42188 l 0,0.21094 2.53125,0.63281 c 0.63278,-0.25778 1.19527,-0.74996 1.6875,-1.47656 l 0,-0.21094 -0.21094,0 -0.21094,0.21094 -0.21094,0 0,-0.21094 c 0.56247,-0.5859 0.84372,-1.1484 0.84375,-1.6875 l 0,-0.42188 c -2.36722,1.68754 -4.05471,2.53129 -5.0625,2.53125 m 7.80469,-2.32031 c 0.28121,4e-5 0.42184,0.28129 0.42188,0.84375 0.42183,4e-5 0.63277,0.14067 0.63281,0.42188 l -0.42188,0.42187 -0.63281,-0.21094 0.21094,-0.21093 0,-0.42188 c -0.42191,4e-5 -0.63285,-0.14058 -0.63281,-0.42187 l 0.42187,-0.42188 m -24.67969,0.84375 0,0.21094 c 1.7578,4.82816 2.8828,7.42972 3.375,7.80469 l 0,-0.42188 -3.375,-7.59375 m 32.0625,1.6875 c 0.56246,-0.65621 1.05465,-1.00777 1.47657,-1.05469 1.4062,4e-5 2.10932,1.19535 2.10937,3.58594 l 0,0.21094 -0.42187,0.63281 0,0.42188 c 0.32807,3e-5 0.60932,-0.63278 0.84375,-1.89844 -0.18755,-2.10934 -0.96099,-3.16402 -2.32032,-3.16406 l -0.21093,0 c -0.98442,4e-5 -1.47661,0.42191 -1.47657,1.26562 m -30.16406,0.84375 0.21094,0.63281 0.21094,0 c 0.0937,-0.84371 0.23436,-1.26558 0.42187,-1.26562 l -0.21094,-1.05469 c -0.28126,4e-5 -0.4922,0.56254 -0.63281,1.6875 m 1.26563,-1.47656 1.26562,1.47656 c -0.84377,0.32816 -1.26564,0.60941 -1.26562,0.84375 l 1.05468,0.21094 0.21094,0 c 1.89842,-0.70309 3.16404,-1.05465 3.79688,-1.05469 l 0,-0.21094 -0.63282,0 0,-0.21093 1.05469,0 0,-0.21094 -5.48437,-0.84375 m 27.84375,1.47656 -1.89844,-0.42187 -0.21094,0 0,0.21093 2.32031,0.63282 0.63282,0 2.74218,-0.84375 -0.21093,-0.63282 -0.42188,0 c -0.42192,0.37504 -1.40629,0.7266 -2.95312,1.05469 m -16.875,-1.05469 0,0.42188 c -3e-5,0.28129 -0.28128,0.42191 -0.84375,0.42187 l 0,0.21094 0.84375,0 c -0.14066,0.42191 -0.56253,0.63285 -1.26563,0.63281 l -0.63281,-0.63281 0.84375,0 0,-0.21094 -0.84375,0 0,-0.63281 0.84375,0.21094 1.05469,-0.42188 m 1.47656,0.21094 -0.21094,0.21094 0,0.21094 0.21094,0 0.21094,-0.21094 0,-0.21094 -0.21094,0 m 12.65625,0 0,0.21094 0.21094,0.21094 0.21093,0 0,-0.21094 -0.21093,-0.21094 -0.21094,0 m -6.32813,0.42188 -0.42187,0.63281 0,0.84375 0.21094,0 c -4e-5,-0.84371 0.28121,-1.26559 0.84375,-1.26563 l 0,-0.21093 -0.63282,0 m -5.90625,0.84375 0,0.21093 1.26563,0.21094 0,0.42188 -1.47656,-0.21094 0.21093,0.21094 0,0.21093 -0.42187,0.42188 c 0.18747,3e-5 0.53903,0.9141 1.05469,2.74219 l 1.05468,0.21093 0.42188,0 1.05469,-0.21093 0,-0.63282 -0.21094,-0.21093 0,-0.21094 1.05469,0 0.21093,0.21094 c 0.86716,3e-5 1.49997,-0.35153 1.89844,-1.05469 -1.50003,3e-5 -2.55472,-0.49215 -3.16406,-1.47656 l 0,-0.21094 0.42187,0 0,-0.42188 -2.10937,-0.63281 -1.26563,0.42188 m -10.33593,0.84375 0,0.21093 c -2e-5,0.28129 0.21092,0.42191 0.63281,0.42188 l -0.21094,0.63281 -2.74219,0.21094 c 0.53905,0.98441 1.73436,1.47659 3.58594,1.47656 l 0,0.42188 -0.21094,0.21093 0,0.21094 0.21094,0 c 0.96092,3e-5 1.66404,-0.91403 2.10938,-2.74219 l 0.63281,-0.63281 -1.6875,0.84375 -0.42188,-0.42187 2.10938,-0.84375 c -0.0938,-0.42184 -0.65627,-0.63278 -1.6875,-0.63282 l -2.32031,0.63282 m 14.55468,-0.63282 c 0.30466,0.98442 0.65622,1.4766 1.05469,1.47657 l 0,-0.21094 c -0.32816,-0.84371 -0.60941,-1.26559 -0.84375,-1.26563 l -0.21094,0 m 13.5,0 -0.21093,0.21094 0,0.21094 0.21093,0 0.21094,-0.21094 0,-0.21094 -0.21094,0 m -5.69531,0.42188 0,0.21094 1.05469,0.42187 0.42187,0 0,-0.21094 -1.26562,-0.42187 -0.21094,0 m -13.5,0.42187 0,0.21094 0.21094,0.84375 -0.21094,0 -0.21094,-0.21094 -0.21093,0 0,0.63282 -0.63282,-0.42188 0.21094,1.05469 0,1.26562 -0.42187,0.42188 -0.21094,-0.21094 0,-1.6875 -0.21094,-1.05469 -0.21094,0 0,1.05469 -0.42187,0 c -3e-5,-0.98434 -0.49221,-1.47653 -1.47656,-1.47656 l -0.21094,0 c -0.56252,0.18753 -0.84377,0.82035 -0.84375,1.89844 l 0,0.84375 1.05469,-0.21094 0,1.05469 c 1.40622,1.21878 2.10935,1.99221 2.10937,2.32031 l 0.42188,0 c 0.98434,-0.56247 1.47653,-1.40622 1.47656,-2.53125 l -0.21094,-1.05469 1.05469,0.63281 0,-1.05468 c -0.21097,-1.54684 -0.56253,-2.32028 -1.05469,-2.32032 m 10.75781,0.21094 -3.58593,9.07031 -0.21094,-0.21093 -0.21094,0 0.21094,0.21093 0,0.21094 -4.85156,9.70313 0,0.21093 1.05468,1.26563 0.42188,0 7.17187,-15.39844 1.6875,-4.64062 -1.6875,-0.42188 m 5.48438,1.05469 0.63281,0.63281 0.63281,0 -0.42187,-0.63281 0,-0.42188 0.21094,-0.21093 0,-0.21094 -0.21094,0 L 199,166.48801 m 2.53125,-0.84375 0,0.21094 c 1.54683,1.71097 2.32026,3.0469 2.32031,4.00781 -5e-5,0.93753 -0.70317,1.50003 -2.10937,1.6875 l 0.42187,0.42187 c 1.26558,3e-5 1.89839,-0.91403 1.89844,-2.74218 -5e-5,-0.8906 -0.77349,-2.08591 -2.32031,-3.58594 l -0.21094,0 m -14.97656,20.67187 c 1.3359,-1.92185 3.79684,-6.91404 7.38281,-14.97656 l 2.10937,-5.48437 -3.375,7.80468 -6.11718,12.65625 m -24.89063,-19.82812 0,0.21094 2.10938,0.42187 1.47656,0 0,-0.42187 -0.42188,0 -0.84375,0.21093 -2.10937,-0.42187 -0.21094,0 m 34.38281,1.89844 c -4e-5,1.14847 1.26559,3.18753 3.79688,6.11718 l 0,0.21094 0.21094,0 0,-0.42187 c -2.39067,-2.88279 -3.58598,-4.85153 -3.58594,-5.90625 l 0,-0.21094 c 0.23433,-0.56247 0.72652,-0.84372 1.47656,-0.84375 l 1.47656,0.84375 0,-0.21094 c -4e-5,-0.30465 -0.56254,-0.65621 -1.6875,-1.05469 -1.12504,0.23441 -1.68754,0.7266 -1.6875,1.47657 m -4.64062,-1.26563 0,0.21094 0.63281,0.42187 0,-0.21093 -0.63281,-0.42188 m -29.53125,0.21094 0,0.21094 0.63281,0.21093 0.21094,0 0,-0.21093 -0.63281,-0.21094 -0.21094,0 m 28.47656,0 0,0.42187 c 0.28122,0.56254 0.70309,0.84379 1.26563,0.84375 l 0,-0.42187 -1.05469,-0.84375 -0.21094,0 m 9.28125,2.32031 0.42188,1.05469 0.42187,0 0,-0.21094 -0.42187,-1.26562 0,-0.21094 c -5e-5,-0.84372 0.42183,-1.26559 1.26562,-1.26563 l 0,-0.42187 -0.63281,0 c -0.70317,0.1641 -1.05473,0.93753 -1.05469,2.32031 m -36.70312,-1.89844 0,0.21094 c 0.70311,0.25785 1.05468,0.82035 1.05468,1.6875 l 0,0.21094 c -0.0703,1.12503 -0.63282,1.68753 -1.6875,1.6875 l -0.21093,-0.21094 0,0.21094 0.21093,0.21094 0.21094,0 c 1.12499,3e-5 1.68749,-0.63279 1.6875,-1.89844 -0.0938,-1.40622 -0.51563,-2.10934 -1.26562,-2.10938 m 37.96875,0.63282 0,0.21093 0.42187,0 c 0.8437,-0.14059 1.26558,-0.35153 1.26563,-0.63281 l 0,-0.21094 -0.21094,0 -1.47656,0.63282 m -13.92188,0.63281 0,0.42187 0.21094,0.21094 0,0.21094 -0.63281,0.21094 c -3e-5,0.75003 1.12496,1.38284 3.375,1.89843 l 0.21093,-0.21093 0,-0.21094 c -1.33597,3e-5 -2.17972,-0.42185 -2.53125,-1.26563 l 0,-0.42187 c -3e-5,-0.84372 0.42185,-1.26559 1.26563,-1.26563 0.70309,4e-5 1.05465,0.42191 1.05469,1.26563 l 0.21093,0 0.21094,-0.63281 c -0.18753,-0.7031 -0.67972,-1.05466 -1.47656,-1.05469 l -0.63281,0 -1.26563,0.84375 m -13.92187,-0.63281 c -0.58596,1.21878 -3.32814,2.97659 -8.22657,5.27343 -1.96875,1.73441 -3.16406,3.4219 -3.58593,5.0625 l 0.21093,0 2.74219,-4.00781 c 0.72655,-0.79685 2.76561,-1.85153 6.11719,-3.16406 1.17186,-0.65622 2.22654,-1.57028 3.16406,-2.74219 l -0.42187,-0.42187 m -12.23438,0.21093 0,0.63282 0.63281,0 0,-0.21094 -0.42187,-0.42188 -0.21094,0 m -1.05469,0.42188 -0.42187,0.42187 0.21094,0.63282 0.63281,-0.63282 -0.42188,-0.42187 m 42.1875,0 c -4e-5,1.5469 -0.63285,2.32034 -1.89843,2.32031 l -0.21094,0 -1.6875,-1.47656 0,0.42187 c 0.37496,0.98441 1.07808,1.4766 2.10937,1.47657 0.7734,3e-5 1.40621,-0.63279 1.89844,-1.89844 l 0,-0.84375 -0.21094,0 m -45.5625,1.47656 0.42188,0 c 0,-0.42184 0.21093,-0.63278 0.63281,-0.63281 l 0,-0.21094 c 0.63281,3e-5 0.98437,0.77347 1.05469,2.32031 l 0.21094,0 0,-1.26562 c -0.21094,-0.84372 -0.70313,-1.26559 -1.47657,-1.26563 l -0.21093,0 c -0.32813,4e-5 -0.53907,0.3516 -0.63282,1.05469 m 28.47657,-0.84375 c -3e-5,0.75003 -0.42191,1.31253 -1.26563,1.6875 l -0.63281,0.63281 0,0.84375 c -3e-5,0.28128 0.21091,0.42191 0.63281,0.42188 l 0.21094,0.21094 0,0.21093 -0.21094,0.21094 0,0.21094 0.84375,0.21094 2.10938,-1.6875 0.21093,0 0.21094,0.21093 0.21094,0 0.21094,-0.21093 0,-0.63282 -1.05469,0 -1.47656,1.05469 -0.84375,0 -0.63282,-0.63281 0,-0.42188 c 0.39841,-0.70309 1.03122,-1.05465 1.89844,-1.05468 l 0,-1.26563 -0.42187,0 m -22.78125,0.21094 0,0.63281 0.42187,0 0,-0.63281 -0.42187,0 m 3.16406,0.42187 c 0.56249,0.0704 0.84374,0.28128 0.84375,0.63282 -1e-5,0.51565 -0.28126,1.07815 -0.84375,1.6875 l 0.21094,0 c 0.70311,-0.82029 1.05467,-1.52341 1.05468,-2.10938 l -0.63281,-0.63281 -0.21094,0 -0.42187,0.42187 m 8.85937,0 0,0.21094 c 0.28123,0.56253 0.70311,0.84378 1.26563,0.84375 0.63279,-0.25778 1.19529,-0.74997 1.6875,-1.47656 l -0.21094,0 -0.84375,0.84375 -0.84375,0 c -0.35158,3e-5 -0.56252,-0.28122 -0.63281,-0.84375 l -0.42188,0.42187 m -13.5,-0.21093 0,0.84375 0.84375,0 0,-0.42188 -0.42187,-0.42187 -0.42188,0 m 17.29688,0 c -2e-5,1.5469 -1.40627,2.32034 -4.21875,2.32031 0.32811,1.40628 1.03123,2.1094 2.10937,2.10937 1.12498,0.82034 1.68748,1.52347 1.6875,2.10938 l 0.84375,0 -0.84375,-1.6875 0,-0.21094 0.63282,0 c -3e-5,-0.28122 -0.21096,-0.42185 -0.63282,-0.42187 l -0.21093,0.21093 -1.89844,-0.21093 0.21094,-0.21094 0,-0.21094 c -0.84377,3e-5 -1.26565,-0.1406 -1.26563,-0.42187 l 0,-0.42188 0.42188,-0.42187 0.21093,0 0,0.42187 0.63282,-0.21094 2.74218,0.21094 0.42188,-0.63281 -0.84375,0 0,-0.21094 0.63281,-0.84375 0,-0.21094 -0.21094,-1.05468 -0.42187,0 m 16.875,0.63281 0,0.63281 c 1.68746,0.75003 3.30464,2.2969 4.85156,4.64063 l 0,0.21093 0.42188,0 c -0.63286,-1.75778 -2.39067,-3.5859 -5.27344,-5.48437 m -35.01563,0.21094 0,0.63281 0.42188,0 0,-0.21094 -0.42188,-0.42187 m 12.44532,0.21093 0,0.21094 c 2.10935,5.06253 5.13279,11.25002 9.07031,18.5625 l 0.21094,0 0,-0.21094 -2.74219,-5.27343 0.21094,-0.21094 -0.21094,0 -0.21094,0.21094 -3.79687,-8.22657 0.21093,-0.21093 -0.21093,0 -0.21094,0.21093 -2.10938,-5.0625 -0.21093,0 m -3.79688,1.89844 2.74219,5.48438 c 1.03123,2e-5 1.66404,-0.56248 1.89844,-1.6875 l 0.21093,0 c 0.60936,2e-5 1.17186,1.12502 1.6875,3.375 l 0,0.21093 -0.42187,1.89844 c 0.84373,0.28127 1.2656,0.84377 1.26562,1.6875 -2e-5,0.56252 -0.28127,0.98439 -0.84375,1.26563 l -0.63281,-0.42188 -0.21094,0 6.11719,11.17969 c 3.09372,-4.66405 4.6406,-7.33593 4.64063,-8.01563 l -1.05469,-0.84375 -2.10938,3.58594 c -0.75002,-0.0937 -2.85939,-3.89061 -6.32812,-11.39062 -1.10158,-1.75779 -2.29689,-4.42966 -3.58594,-8.01563 l -0.21094,0 c -1.64064,1.12503 -2.69532,1.68753 -3.16406,1.6875 m -11.8125,0.21094 0,0.84375 c 1.125,1.12503 1.6875,1.89846 1.6875,2.32031 l -0.42187,2.10938 0,0.21093 0.21093,0 0.42188,-2.10937 0,-1.26563 -1.6875,-1.89843 1.05469,-1.47657 0,-0.42187 -0.42188,0 c -0.375,3e-5 -0.65625,0.56253 -0.84375,1.6875 m 4.42969,-1.6875 -0.21094,0.21094 0,0.63281 0.21094,0 0.42187,-0.42188 -0.42187,-0.42187 m -1.6875,0.63281 -0.21094,0.63281 0.42188,2.10938 c -0.84376,4.80471 -1.26563,8.10939 -1.26563,9.91406 l 0,0.42188 0.42188,0 0,1.6875 0.21093,1.47656 0.21094,0 0,-0.63281 0.42188,0 0.63281,2.53125 c -0.28126,1e-5 -0.42188,-0.21093 -0.42188,-0.63282 l -0.63281,0 c 0.82031,2.39064 1.94531,3.58595 3.375,3.58594 1.73437,2.10938 3.21093,3.16407 4.42969,3.16406 0.56249,0.0703 0.84374,0.28126 0.84375,0.63282 l 0,0.21093 -0.84375,0 c -0.82032,1e-5 -1.94532,-0.70312 -3.375,-2.10937 l -0.21094,0 -0.21094,0.21094 -0.21093,0 -0.21094,-0.21094 0,0.63281 -1.26563,-1.05469 0.21094,-0.21093 0,-0.21094 -0.42187,0 0,-0.42188 0.21093,0 1.26563,0.42188 0,-0.21094 c -0.72657,-0.42187 -1.42969,-0.6328 -2.10938,-0.63281 l -0.42187,0 0.21094,1.05469 -1.26563,-0.42188 -0.21094,0.63281 c -0.84375,1e-5 -1.26562,-0.21093 -1.26562,-0.63281 l -0.21094,0 -0.63281,0.63281 0.63281,0.84375 -0.63281,0.63282 c 0,1.6875 0.63281,2.53125 1.89844,2.53125 1.21874,-0.84375 2.27343,-1.26562 3.16406,-1.26563 l 0,-0.21094 -1.05469,0 -2.53125,0.84375 -0.42187,-0.63281 0,-0.42187 c -1e-5,-0.51562 0.77343,-0.9375 2.32031,-1.26563 3.37499,1.54688 5.83593,2.32032 7.38281,2.32031 l 1.6875,0 2.10938,-0.21093 0.42187,0.42187 c 1.24217,-0.70312 2.57811,-1.05468 4.00781,-1.05469 l 2.53125,0.21094 -1.05468,-1.05469 -1.47657,0 0,0.21094 1.6875,0 0,0.42188 -2.32031,0 -2.10937,0.21093 c 0.25779,-0.37499 1.38279,-0.86718 3.375,-1.47656 0.49216,-0.53905 0.84372,-1.24218 1.05468,-2.10937 -0.18752,-1.12499 -0.60939,-1.68749 -1.26562,-1.6875 -0.9844,0.18751 -1.47658,0.46876 -1.47656,0.84375 l 0,0.21093 0.21093,-0.21093 1.05469,0 0.63281,0.63281 0,0.63281 c -1.12502,1.54688 -2.39064,2.32032 -3.79687,2.32031 l 0,-0.21093 c -2e-5,-0.28125 0.21092,-0.42187 0.63281,-0.42188 -0.18752,-0.70312 -0.39845,-1.05468 -0.63281,-1.05469 -0.18752,0.98438 -0.67971,1.47657 -1.47656,1.47657 l -0.21094,-0.63282 -1.89844,0 0,-0.42187 c 2.67186,-0.30468 4.0078,-0.72656 4.00781,-1.26563 l 0,-0.21093 -0.42187,0.42187 -0.63281,-0.21094 0,-0.84375 0.63281,0 0,-0.21093 c -2.95314,-0.65624 -4.4297,-1.78124 -4.42969,-3.375 -1e-5,-0.56249 0.28124,-0.98437 0.84375,-1.26563 l 0.84375,0 0.63281,0.63281 0,0.84375 -0.21093,0.21094 0,0.21094 0.21093,0 c 0.56249,-0.58593 0.84374,-1.14843 0.84375,-1.6875 -0.46876,-0.98436 -1.17189,-1.47655 -2.10937,-1.47656 -0.84376,1e-5 -1.40626,0.77345 -1.6875,2.32031 l -0.21094,0 -0.84375,-0.42188 0,0.84375 0.63281,1.89844 -0.63281,0 0,0.21094 c 0.11718,0.46876 0.53905,0.89063 1.26563,1.26562 l 2.74218,0 0,0.42188 -0.42187,0.42187 -1.05469,0 c -1.78126,1e-5 -3.53907,-0.70311 -5.27344,-2.10937 l -0.63281,0 -0.21094,0.21094 -0.21093,0 c -1e-5,-0.56249 -0.21095,-0.84374 -0.63282,-0.84375 l 0.21094,-0.84375 0.42188,0 c -1e-5,0.42188 0.14061,0.63282 0.42187,0.63281 -0.84376,-1.47655 -1.26563,-2.60155 -1.26562,-3.375 l 0,-0.84375 c 0.32811,-2.24998 1.3828,-3.37498 3.16406,-3.375 l 0.21094,0 0.84375,0.84375 0,0.63281 c -0.3047,0.70314 -1.00783,1.19533 -2.10938,1.47656 -0.56251,0.58596 -0.84376,1.14846 -0.84375,1.6875 l 0,0.21094 c -1e-5,1.54689 0.63281,2.32032 1.89844,2.32031 l 0.63281,-1.05468 0,-0.21094 -0.21094,0 c -1e-5,0.42189 -0.14063,0.63282 -0.42187,0.63281 l -0.63281,0 -0.63282,-0.63281 0,-0.63281 c 0,-0.98436 0.63281,-1.47655 1.89844,-1.47657 0.84374,2e-5 1.26561,-0.42186 1.26563,-1.26562 l 0.84375,0 0,-1.47656 -1.26563,-1.47657 0.63281,-0.84375 0,-0.21093 -2.10937,-0.42188 -0.21094,0 -1.26562,0.63281 0,-1.89843 c -1.82814,0.51564 -2.7422,2.34377 -2.74219,5.48437 l -0.21094,-0.21094 -0.21094,0 0.42188,1.26563 -0.63281,0.42187 -0.42188,0 -0.21094,-0.21093 -0.21093,0 c -1e-5,-0.65624 0.49218,-2.27342 1.47656,-4.85157 l 0.21094,-1.89843 0,-0.84375 c -0.23438,2e-5 -0.51563,0.49221 -0.84375,1.47656 0.42187,2e-5 0.6328,0.14064 0.63281,0.42187 l -1.05469,0.21094 -0.63281,-0.63281 0.84375,0 -0.21094,-0.21094 0,-0.21094 0.21094,-0.21093 -0.21094,0 -0.21094,0.21093 0,-0.42187 1.6875,-3.375 -0.63281,0 c 0.14062,-1.40622 0.35156,-2.10935 0.63281,-2.10938 l 0,1.47657 0.21094,0 0,-1.26563 c -0.21094,-0.56247 -0.42188,-0.84372 -0.63281,-0.84375 l -0.63281,0.63281 c -0.4922,-1.54684 -0.84376,-2.32028 -1.05469,-2.32031 m -1.05469,0.21094 0,0.42187 0.21094,0 0,-0.42187 -0.21094,0 m 3.79688,0 0.21093,0.63281 0.21094,0 0.42188,-0.42187 -0.21094,-0.21094 -0.63281,0 m 18.5625,0 0.21093,4.21875 0,2.32031 0.42188,0.42188 0.42187,0 -0.21093,-3.16407 0,-3.79687 -0.84375,0 m 13.71093,0 0,0.21094 1.05469,0.42187 0,-0.21094 -0.84375,-0.42187 -0.21094,0 m -6.96093,0.42187 0.21093,0.21094 -0.21093,1.05469 -0.42188,0 c -3e-5,-0.7031 -0.14066,-1.05466 -0.42187,-1.05469 l 0.21093,0.21094 0,0.63281 -0.21093,0.21094 c -0.93753,0.39846 -1.42972,0.82034 -1.47657,1.26562 l 0.42188,0 -0.21094,1.05469 0,0.21094 0.63281,0.63281 0.21094,0 -0.21094,-1.05469 0,-0.21093 c 1.2656,-1.17185 1.89841,-1.94529 1.89844,-2.32032 l 0,-0.42187 c 1.26559,-0.0937 1.8984,-0.30466 1.89844,-0.63281 l -0.21094,0 -2.10937,0.21093 m 13.5,0.63282 0,1.6875 0.21093,1.47656 -0.21093,0.21094 -0.21094,0 -0.21094,-0.21094 -0.42187,0.63281 0,1.89844 0.21093,0 0,-0.42188 0.21094,0 c 0.44527,1.14846 1.14839,2.27346 2.10938,3.375 -0.18755,0.84377 -0.39849,1.26565 -0.63282,1.26563 -4e-5,-1.12498 -0.21098,-1.68748 -0.63281,-1.6875 l 0,0.21094 0.42188,1.26562 c -0.2813,0.63283 -0.56255,0.98439 -0.84375,1.05469 -0.2813,2e-5 -0.49224,-0.84373 -0.63282,-2.53125 -1.26566,-0.98436 -1.89848,-1.68748 -1.89843,-2.10938 -0.2813,3e-5 -0.42192,0.4219 -0.42188,1.26563 l -1.47656,-0.42188 c 0.37496,2.1094 0.65621,3.16408 0.84375,3.16407 1.26558,0.96095 1.89839,2.15626 1.89844,3.58593 L 199,188.00363 l 0,0.21094 0.21094,0 0.21093,-1.89844 0.21094,0 0.21094,1.6875 -1.05469,1.89844 0.21094,-0.21094 0.42187,0 0,0.21094 c -0.18754,0.58595 -0.5391,1.00782 -1.05468,1.26563 l 0,-0.21094 0.42187,-0.84375 -0.21094,0 -1.26562,1.47656 -0.63281,-0.21094 c -2.03911,1.82814 -4.21879,2.7422 -6.53907,2.74219 l -0.42187,-0.63281 0.42187,-0.42188 0.42188,0.42188 c 0.0234,-0.18749 0.93746,-0.53906 2.74219,-1.05469 l 0.21093,-0.63281 -0.84375,0 0,-0.21094 1.05469,-1.6875 -0.21094,-1.05469 -0.21093,0 -0.42188,0.42188 c -0.86722,-0.56249 -1.57035,-0.84374 -2.10937,-0.84375 -0.58598,0.18751 -1.00785,0.53907 -1.26563,1.05469 l 0,0.63281 0.42188,0.42187 0.21093,0 -0.21093,-0.21093 0,-0.63282 c 0.0703,-0.28123 0.42184,-0.56248 1.05468,-0.84375 0.84372,0.21095 1.26559,0.70314 1.26563,1.47657 -4e-5,0.70313 -1.33597,1.54688 -4.00781,2.53125 l 0.21093,0.63281 0.21094,-0.21094 0.42188,0 0,0.84375 -1.05469,0.21094 c -3e-5,0.30469 0.49215,0.58594 1.47656,0.84375 l 2.32031,-0.42188 0,0.42188 c -1.12503,0.18751 -1.68753,0.60938 -1.6875,1.26562 -0.9844,1e-5 -1.47659,-0.28124 -1.47656,-0.84375 l -0.63281,-0.42187 -0.21094,1.05469 -0.63281,0 c -1.21878,0 -2.06253,-0.5625 -2.53125,-1.6875 l 0,-0.84375 0.42187,-0.42188 c 0.49216,1e-5 0.98435,0.28126 1.47657,0.84375 l 0,-0.21094 c -3e-5,-0.74999 -0.28128,-1.24217 -0.84375,-1.47656 l -0.42188,0 c -0.9844,1e-5 -1.47659,0.4922 -1.47656,1.47656 l 0,0.21094 c -3e-5,1.82813 1.68747,2.74219 5.0625,2.74219 l 0,0.42187 -2.74219,-0.21093 -1.6875,0.21093 c -3e-5,-0.28124 0.21091,-0.42187 0.63281,-0.42187 l 0,-0.21094 -0.63281,0 c -0.56253,1e-5 -0.9844,0.28126 -1.26562,0.84375 l 1.6875,0 c 1.68747,1e-5 3.16403,0.35157 4.42968,1.05469 l 0.21094,-0.63281 1.6875,0 c 1.42965,0 4.17184,-0.63281 8.22656,-1.89844 l 1.05469,0 c 1.10152,0 1.80464,0.35157 2.10938,1.05469 l 0,0.63281 -1.05469,0.21094 -2.10938,-1.26563 -0.21093,0.21094 c 0.67964,1.125 1.45308,1.6875 2.32031,1.6875 0.70308,0 1.4062,-0.49219 2.10937,-1.47656 l 0.63282,0.63281 0,-0.42188 c -5e-5,-0.65624 -0.42193,-1.35937 -1.26563,-2.10937 -5e-5,-0.28124 0.21089,-0.42187 0.63281,-0.42188 l 0.21094,-0.21093 0,-0.21094 -1.89844,-0.84375 -1.6875,0.84375 -0.42187,-1.05469 -0.84375,0.21094 0,0.21094 0.42187,0 0,0.21093 c -4e-5,0.28126 -0.21098,0.42189 -0.63281,0.42188 l -0.21094,0.21094 0,0.21093 -0.21093,-0.21093 -0.42188,0 c -1.42973,1.125 -2.48441,1.6875 -3.16406,1.6875 l -0.21094,-0.21094 0,0.42187 -0.63281,0 0,-0.42187 0.42187,-0.42188 0.21094,0.21094 c 0.5859,-0.65624 2.06246,-1.5703 4.42969,-2.74219 l 0.63281,-1.05468 0.63281,0 -0.21093,0.21093 0,0.21094 0.21093,0 c 1.96871,-2.29686 2.95308,-4.89842 2.95313,-7.80469 l 0.21094,-0.21093 0,-0.21094 -1.6875,-8.64844 c -5e-5,-1.10153 0.35151,-1.80466 1.05468,-2.10937 l 0.42188,0 0.42187,0.42187 0,0.63281 -0.21093,0.84375 0,0.21094 0.21093,0 0.63282,-2.10937 c -0.21099,-0.56247 -0.42193,-0.84372 -0.63282,-0.84375 l -1.05468,0 c -0.44536,0.56252 -1.00786,0.84377 -1.6875,0.84375 m -6.96094,-0.63282 -0.21094,0.21094 0,0.21094 c 1.68746,0.30471 3.65621,1.78128 5.90625,4.42969 l 0,-0.63282 c -1.24223,-1.96872 -3.14066,-3.37497 -5.69531,-4.21875 m -35.85938,0.21094 -0.21093,0.63281 0.42187,0 0,-0.63281 -0.21094,0 m 4.00782,7.17188 c 0.28124,2e-5 0.49218,-0.42186 0.63281,-1.26563 1.73436,-3.09372 3.56249,-4.6406 5.48437,-4.64062 l 0,-0.42188 -0.42187,-0.42187 c -2.20314,0.75002 -3.82032,2.15627 -4.85156,4.21875 l -0.84375,2.53125 m 13.92187,-6.53907 0,0.21094 1.26563,0.21094 0.21093,0 0,-0.21094 -0.84375,-0.21094 -0.63281,0 m 3.79688,0 c -3e-5,0.42191 -0.35159,0.63284 -1.05469,0.63282 l 0,0.42187 0.63281,0.21094 0.63281,-0.21094 0,-1.05469 -0.21093,0 m 2.32031,0.84375 0,0.21094 0.21094,0.63281 1.05468,-0.21093 0,-0.21094 c -0.70315,3e-5 -1.05471,-0.1406 -1.05468,-0.42188 l -0.21094,0 m 5.27344,1.89844 c 0.46871,3e-5 0.82028,-0.49216 1.05468,-1.47656 -0.70315,0.4219 -1.05472,0.91409 -1.05468,1.47656 m 5.69531,-0.21094 0,1.05469 c 0.23434,0.56253 0.72652,0.84377 1.47656,0.84375 l 1.47656,-0.42187 0.84375,0 0.42188,0.42187 0,0.84375 c -4e-5,0.28127 -0.28129,0.4219 -0.84375,0.42188 l 0,0.21093 0.84375,0 0.63281,-1.05468 c -4e-5,-0.42186 -0.42192,-0.84373 -1.26562,-1.26563 l -2.53125,0.42188 -0.42188,-0.63282 0,-0.63281 c 0.23434,-0.56247 0.72652,-0.84372 1.47656,-0.84375 1.19528,3e-5 2.53121,0.91409 4.00782,2.74219 l 0,-0.21094 c -1.52348,-2.10935 -2.85942,-3.16403 -4.00782,-3.16406 l -0.84375,0 c -1.00785,3e-5 -1.57035,0.4219 -1.6875,1.26562 l 0.42188,0 m -10.75781,2.95313 0.42187,0 c 0.18747,-1.28904 0.74997,-2.48435 1.6875,-3.58594 l 0,-0.42187 c -0.82034,0.4219 -1.52346,1.75783 -2.10937,4.00781 m -18.14063,-1.26563 0.21094,0 c 0.79686,-1.12497 1.64061,-1.68747 2.53125,-1.6875 l 0.63281,0 c 0.56249,0.2344 0.84374,0.72659 0.84375,1.47657 l 0,0.21093 c -1e-5,0.4219 -0.4922,0.63284 -1.47656,0.63282 l 0,0.21093 1.26562,0 c 0.6328,-0.28122 0.98437,-0.56247 1.05469,-0.84375 l 0,-1.47656 c -1e-5,-0.25779 -0.4922,-0.60935 -1.47656,-1.05469 -1.54689,0.44534 -2.7422,1.21878 -3.58594,2.32032 l 0,0.21093 m 39.02344,-2.10937 0,0.42187 0.21094,0 0,-0.42187 -0.21094,0 m -24.25781,0.84375 0,0.21094 c 0.37497,1.54689 0.79685,2.32033 1.26562,2.32031 -2e-5,-0.65623 -0.4219,-1.49998 -1.26562,-2.53125 m 24.04687,0 0,0.42187 0.21094,0 0,-0.42187 -0.21094,0 m -27,0.21094 0,0.21093 0.21094,1.05469 1.26562,0 0,-0.84375 -0.21093,0.21094 -0.63282,0 c -0.28127,2e-5 -0.42189,-0.21091 -0.42187,-0.63281 l -0.21094,0 m 4.00781,0.21093 0,0.21094 0.42188,0 0,-0.21094 -0.42188,0 m -1.89843,1.26563 0,0.63281 c 0.5156,0.84377 1.35935,1.26565 2.53125,1.26563 l 0.42187,0 c 2.53122,-0.14061 3.79685,-0.56248 3.79688,-1.26563 l 0,-0.63281 -0.63282,-0.63281 -0.42187,0 0.21094,1.47656 c -0.51566,0.4219 -1.00784,0.63283 -1.47657,0.63281 l -0.84375,0 c -1.87502,2e-5 -2.92971,-0.35154 -3.16406,-1.05469 l 0.21094,-1.05468 -0.63281,0.63281 m -4.85157,-0.42188 c -1e-5,0.56253 -0.91408,1.05471 -2.74218,1.47657 l -0.21094,0.84375 -2.32031,-0.42188 -0.21094,0.21094 0,0.42187 c 0.56249,3e-5 0.91405,1.26565 1.05469,3.79688 0.42186,2e-5 0.63279,0.21095 0.63281,0.63281 l 0,0.42188 0.21094,0 0,-0.42188 0.21093,0 0.21094,0.21094 0.21094,0 c -2e-5,-1.40623 0.21092,-2.10936 0.63281,-2.10938 l 0.21094,0.21094 -0.21094,1.47656 c 0.42186,1.96877 1.26561,2.95314 2.53125,2.95313 l 0.42188,0 0,-0.21094 c -0.70315,2e-5 -1.33596,-0.35155 -1.89844,-1.05469 l 0,-0.21093 0.42187,0 c 0.6328,0.53907 1.26561,0.82032 1.89844,0.84375 l 0,-0.42188 c -0.56252,2e-5 -0.98439,-0.28123 -1.26562,-0.84375 l 0,-0.84375 0.63281,-0.63281 1.47656,0 0,-0.42188 -0.84375,-1.05468 -1.05469,0.42187 -0.21093,-0.21094 0,-0.42187 c 0.84373,2e-5 1.2656,-0.84373 1.26562,-2.53125 -2e-5,-0.7031 -0.35158,-1.40623 -1.05469,-2.10938 m 31.00782,0 0,0.21094 0.21093,0.84375 -0.21093,0.21094 -0.42188,0 c -0.35161,2e-5 -0.56255,-0.28123 -0.63281,-0.84375 l -0.21094,0 0,0.21094 c 0.32808,0.84377 0.60933,1.26564 0.84375,1.26562 l 0.42188,0 0.42187,-0.42187 0,-0.42188 -0.21094,-1.05469 -0.21093,0 m -3.58594,0 0.42187,0 c -4e-5,0.67971 0.28121,1.31253 0.84375,1.89844 l 0,0.21094 c -0.56254,2e-5 -0.98442,-0.63279 -1.26562,-1.89844 l 0,-0.21094 m -14.13281,0.42188 c -3e-5,0.9844 -0.3516,1.47658 -1.05469,1.47656 l 0,0.21094 0.63281,0 c 0.3281,2e-5 0.53903,-0.35154 0.63281,-1.05469 l 0,-0.63281 -0.21093,0 m 4.64062,0.63281 0.42188,1.05469 c -0.63285,2e-5 -1.19535,0.56252 -1.6875,1.6875 -4e-5,0.70314 0.35152,1.26564 1.05468,1.6875 l 0.63282,0 -0.42188,-1.6875 c 0.49215,-1.12498 1.26559,-1.68748 2.32031,-1.6875 1.40621,0.56252 2.10934,1.54689 2.10938,2.95312 l -1.05469,2.10938 0,0.42187 0.21094,0 c 0.98433,-0.86717 1.47652,-1.99217 1.47656,-3.375 -4e-5,-1.61716 -0.98441,-2.88279 -2.95312,-3.79687 l -1.47657,0 -0.63281,0.63281 m -26.15625,-0.21094 -0.21094,0.63282 0.21094,0.84375 0.21094,0 c -1e-5,-0.84373 0.49218,-1.26561 1.47656,-1.26563 l 0,-0.21094 -1.6875,0 m 7.80469,1.05469 0.42187,0.42188 -0.21093,0.63281 -0.42188,-0.42188 0.21094,-0.63281 m 27.84375,0.63281 0,0.21094 c 0.21089,0.56252 0.42183,0.84377 0.63281,0.84375 l -0.42187,-1.05469 -0.21094,0 m -20.67188,0.21094 -0.63281,3.58594 c 0.39841,2e-5 0.67966,-0.70311 0.84375,-2.10938 l 0,-1.47656 -0.21094,0 m 1.26563,0.21094 0,6.53906 0.21094,1.05469 0.21093,0 0,-0.42188 -0.21093,-7.17187 -0.21094,0 m 1.05469,0 c -3e-5,3.1172 1.54684,5.3672 4.64062,6.75 l 2.53125,0.42187 c 1.10153,2e-5 2.29684,-0.28123 3.58594,-0.84375 l 0,-0.42187 -0.21094,0 c -1.68753,0.56251 -2.95316,0.84376 -3.79687,0.84375 -2.81253,1e-5 -4.85159,-1.7578 -6.11719,-5.27344 l -0.21094,-1.47656 -0.42187,0 m 1.05468,0 0,1.05469 0.21094,0 0,-1.05469 -0.21094,0 m 9.07032,1.89844 0.21093,0 0.63282,-0.21094 0,0.42187 c -0.56254,0.53908 -0.84379,1.10158 -0.84375,1.6875 l -0.21094,0 c 0.14059,0.79689 0.56246,1.42971 1.26562,1.89844 l 0.21094,-0.21094 0.21094,0 c 0.70308,0.0235 1.05465,0.16408 1.05469,0.42188 l 1.89843,-0.84375 0.63282,0.21094 0,0.84375 -2.74219,2.95312 0,0.84375 0.42187,0.42188 0.42188,0 -0.63281,-0.84375 0,-0.42188 2.95312,-2.53125 0.21094,-1.26562 c -0.28129,-0.70311 -0.70317,-1.05467 -1.26563,-1.05469 -0.79691,0.70314 -1.42972,1.0547 -1.89843,1.05469 -0.98442,-0.39843 -1.4766,-0.96092 -1.47657,-1.6875 0.35153,-0.84374 0.7734,-1.26561 1.26563,-1.26563 l 0,-0.84375 c -4e-5,-0.46873 -0.21098,-0.96092 -0.63281,-1.47656 -0.9141,2e-5 -1.4766,0.63283 -1.6875,1.89844 m -29.95313,-1.89844 0.21094,0 0,0.63281 -0.63281,2.32031 -0.21094,0 0,-1.05468 0.63281,-1.89844 m 10.33594,0 -0.21094,0.84375 L 172,181.0427 l 0.84375,-0.21094 m 5.0625,0.21094 0,0.63281 0.63281,0.42187 0.21094,0 0.42187,-0.42187 0,-0.42188 -0.42187,0.42188 c -0.4219,2e-5 -0.63284,-0.21092 -0.63281,-0.63281 l -0.21094,0 M 172,181.25363 l 0.21094,0.21094 0,0.63281 -0.21094,0 -0.42188,-0.42187 L 172,181.25363 m 21.72656,0 0.42188,0 -0.63282,0.84375 -0.42187,0 0,-0.21093 0.63281,-0.63282 m -34.38281,0.21094 0.63281,0.42188 0.21094,-0.21094 0.63281,0 0,0.21094 c 0,0.32814 -0.35157,0.53908 -1.05469,0.63281 l 0,-0.21094 -0.21093,-0.21094 -0.21094,0 0,-0.63281 m -2.95313,0.42188 0,0.21093 0.21094,0.84375 0.84375,0 0.21094,-0.84375 -0.84375,0.42188 -0.21094,-0.63281 -0.21094,0 m 27.21094,0.21093 0,0.21094 0.63281,0.63281 0.42188,0 0.42187,-0.42187 0,-0.21094 -0.21093,0.21094 -0.63282,0 -0.63281,-0.42188 m -12.44531,0 0.63281,0 0,0.84375 -0.21094,0 -0.42187,-0.42187 0,-0.42188 m 26.57812,0.21094 0.42188,0 c -4e-5,0.32815 0.35152,0.75002 1.05469,1.26563 l -0.42188,0.42187 0.42188,0.42188 -0.21094,0.21093 -0.21094,0 -1.47656,-1.47656 0.63281,-0.21094 -0.21094,-0.63281 m -33.75,0.63281 1.47657,0 0,0.21094 c -1.68751,2e-5 -2.7422,0.70314 -3.16407,2.10938 l -0.84375,0 c 1.14843,-1.54686 1.99218,-2.3203 2.53125,-2.32032 m 40.07813,0.42188 0,0.21094 0.42187,0 0,-0.21094 -0.42187,0 m -2.10938,0.42187 0.21094,0 -0.42187,1.26563 0.63281,0 -0.42188,0.63281 0.42188,0.42188 -1.05469,0.21093 -0.21094,0 c -4e-5,-0.28123 0.2109,-0.42186 0.63282,-0.42187 l 0,-0.21094 c -0.42192,2e-5 -0.63286,-0.14061 -0.63282,-0.42187 l 0.21094,-0.21094 c -0.56254,2e-5 -0.84379,-0.21092 -0.84375,-0.63281 0.56246,1e-5 1.05464,-0.21092 1.47656,-0.63282 m -13.5,0.42188 0,1.05469 0.21094,0 1.6875,-0.42188 0.21094,0 0.42187,0.42188 0,0.42187 c -0.28128,0.56252 -0.63284,0.84377 -1.05468,0.84375 l 0,0.21094 0.63281,0 c 0.70309,-0.28124 1.05465,-0.77342 1.05469,-1.47656 l 0,-0.42188 -0.63282,-0.63281 -0.21093,0 -1.89844,0.63281 -0.21094,-0.63281 -0.21094,0 m -5.48437,0.42187 0,0.21094 c 0.28122,0.93752 1.68747,2.34377 4.21875,4.21875 l 0.63281,0.84375 0,0.84375 -0.63281,0.63281 -0.63281,0 c -0.28128,1e-5 -0.42191,-0.35155 -0.42188,-1.05468 l -0.21094,0 0,1.26562 0.84375,0.63281 0.63282,0 1.05468,-1.26562 0.42188,0 0,-0.21094 c -3e-5,-1.21874 -1.40628,-2.48436 -4.21875,-3.79687 l -1.47656,-2.32032 -0.21094,0 m 21.09375,0.42188 0,0.63281 0.42187,0 0,-0.63281 -0.42187,0 m -33.75,0.21094 0,0.42187 0.21094,0 0,-0.42187 -0.21094,0 m -12.86719,0.42187 -0.21094,0.63281 0,0.21094 0.21094,0 0.21094,-0.63281 0,-0.21094 -0.21094,0 m 13.07813,0.21094 0.21093,0.63281 0.21094,0 0,-0.42187 -0.21094,-0.21094 -0.21093,0 m -10.54688,0.42187 0,0.21094 0.42188,0 0,-0.21094 -0.42188,0 m 27.63281,0.21094 0,0.21094 0.63282,0 0,-0.21094 -0.63282,0 m 15.60938,2.10938 c 0.2812,1e-5 0.70308,-0.70312 1.26562,-2.10938 l -0.21093,0 c -0.30474,2e-5 -0.6563,0.70314 -1.05469,2.10938 m -14.13281,-1.89844 0,0.21094 0.63281,0 0,-0.21094 -0.63281,0 m -32.69532,1.6875 c 0,0.63282 0.42188,1.40626 1.26563,2.32031 l 0,-0.21094 -0.84375,-1.47656 0,-0.21094 0.42187,-0.42187 c 0.5625,0.63282 0.84375,1.12501 0.84375,1.47656 l 0.21094,0 0,-0.21094 c -0.49219,-1.54686 -0.84375,-2.32029 -1.05469,-2.32031 -0.5625,0.14064 -0.84375,0.4922 -0.84375,1.05469 m 36.91407,-0.63281 c 0.98433,1e-5 1.47652,0.21095 1.47656,0.63281 l 0,0.21094 0.42187,-0.42188 0,-0.42187 -0.42187,-0.42188 -1.05469,0 -0.42187,0.42188 m -33.75,-0.42188 1.6875,0 0,0.21094 -0.42188,0.42187 -0.63281,0 -0.63281,-0.63281 m 14.55468,0.21094 0,0.21094 0.63282,0 0,-0.21094 -0.63282,0 m -1.89843,2.53125 c -2e-5,0.84376 0.56248,1.33595 1.6875,1.47656 l 0.63281,-0.63281 0,-0.21094 -0.21094,0.21094 -0.21094,0 c -0.84376,1e-5 -1.26564,-0.35155 -1.26562,-1.05469 0.28123,-0.84374 0.84373,-1.26561 1.6875,-1.26562 l 0,-0.21094 -0.42188,0 c -0.63283,1e-5 -1.26564,0.56251 -1.89843,1.6875 m 26.57812,-1.6875 c -4e-5,0.44532 -0.49223,1.28907 -1.47656,2.53125 l 0.21094,0 1.47656,-2.32031 0,-0.21094 -0.21094,0 m -39.65625,0.21094 0,0.42187 0.21094,0 0,-0.42187 -0.21094,0 m 26.15625,0 c -3e-5,0.37501 -1.5469,2.97657 -4.64062,7.80468 l 0.21093,0 c 0.74998,-0.74999 2.29685,-3.28124 4.64063,-7.59375 l 0,-0.21093 -0.21094,0 m 15.82031,3.79687 0.21094,0 c 0.70308,-1.12499 1.4062,-1.68749 2.10938,-1.6875 l 0.42187,0.84375 -0.21094,0.63281 c 0.30464,1e-5 0.58589,-0.56249 0.84375,-1.6875 -0.14067,-0.56248 -0.42192,-0.84373 -0.84375,-0.84375 -0.46879,2e-5 -1.31254,0.91408 -2.53125,2.74219 m -42.39843,-1.47656 c 0.28124,0.63282 0.56249,0.98438 0.84375,1.05469 l 0,-0.21094 c -0.28126,1e-5 -0.42188,-0.21093 -0.42188,-0.63281 l -0.21094,-0.21094 -0.21093,0 m -1.05469,0.42187 c 0,0.56251 -0.35157,0.84376 -1.05469,0.84375 l 0,0.21094 0.42188,0 0,0.21094 c 0.56249,-0.14062 0.84374,-0.42187 0.84375,-0.84375 l 0,-0.42188 -0.21094,0 m 13.28906,1.6875 0.42188,0 0.21093,0.63282 -0.63281,0.42187 -0.21094,-0.21094 0.21094,-0.84375 m 22.35938,2.95313 0.42187,0 0.21094,0.63281 -0.63281,0 0,-0.63281 m -25.3125,0.63281 0.84375,0 0,0.42188 c 0.42186,0 0.63279,0.14063 0.63281,0.42187 l -0.21094,0.21094 -0.42187,0 0,-0.42188 -0.21094,0 0,0.42188 -0.21094,0 -0.42187,-0.42188 0,-0.63281 m 12.86718,0.42188 c -2e-5,0.53906 -0.56252,0.96094 -1.6875,1.26562 l 0,0.21094 0.63282,0.21094 c 0.98435,-0.46875 1.47653,-1.03125 1.47656,-1.6875 l -0.42188,0 m -17.50781,0.84375 0,0.21093 -0.42187,0.42188 -0.21094,-0.21094 -0.63281,0 0,0.21094 1.47656,0.21094 0.21094,0 0,-0.42188 -0.42188,-0.42187 m 32.27344,0.42187 -0.42188,-0.42187 -1.05468,0.21093 c 0.14058,0.42188 0.56246,0.63282 1.26562,0.63282 l 0.42188,0 2.10937,-0.84375 c 0.42183,0 0.63277,0.21094 0.63281,0.63281 l 0.21094,0 0,-0.63281 -1.05469,-0.21094 -2.10937,0.63281"
         style="font-size:72px;font-variant:normal;font-stretch:normal;font-family:Goudy Initials;-inkscape-font-specification:Goudy Initials"
         id="path4605" />
    </g>
  </g>
</svg>
