<?xml version="1.0" encoding="UTF-8" standalone="no"?>
<!-- Created with Inkscape (http://www.inkscape.org/) -->

<svg
   xmlns:dc="http://purl.org/dc/elements/1.1/"
   xmlns:cc="http://creativecommons.org/ns#"
   xmlns:rdf="http://www.w3.org/1999/02/22-rdf-syntax-ns#"
   xmlns:svg="http://www.w3.org/2000/svg"
   xmlns="http://www.w3.org/2000/svg"
   xmlns:sodipodi="http://sodipodi.sourceforge.net/DTD/sodipodi-0.dtd"
   xmlns:inkscape="http://www.inkscape.org/namespaces/inkscape"
   width="56.734375"
   height="56.734375"
   id="svg2"
   version="1.1"
   inkscape:version="0.48.5 r10040"
   sodipodi:docname="v.svg">
  <defs
     id="defs4" />
  <sodipodi:namedview
     id="base"
     pagecolor="#ffffff"
     bordercolor="#666666"
     borderopacity="1.0"
     inkscape:pageopacity="0"
     inkscape:pageshadow="2"
     inkscape:zoom="3.959798"
     inkscape:cx="43.744226"
     inkscape:cy="5.617196"
     inkscape:document-units="px"
     inkscape:current-layer="layer1"
     showgrid="false"
     fit-margin-top="2"
     fit-margin-left="2"
     fit-margin-right="2"
     fit-margin-bottom="2"
     inkscape:window-width="1366"
     inkscape:window-height="733"
     inkscape:window-x="0"
     inkscape:window-y="0"
     inkscape:window-maximized="1"
     showborder="true"
     borderlayer="false" />
  <metadata
     id="metadata7">
    <rdf:RDF>
      <cc:Work
         rdf:about="">
        <dc:format>image/svg+xml</dc:format>
        <dc:type
           rdf:resource="http://purl.org/dc/dcmitype/StillImage" />
        <dc:title></dc:title>
      </cc:Work>
    </rdf:RDF>
  </metadata>
  <g
     inkscape:label="Layer 1"
     inkscape:groupmode="layer"
     id="layer1"
     transform="translate(-152.28125,-146.34738)">
    <g
       style="font-size:40px;font-style:normal;font-weight:normal;line-height:125%;letter-spacing:0px;word-spacing:0px;fill:#ffffff;fill-opacity:1;stroke:none;font-family:Sans"
       id="flowRoot2985">
      <path
         d="m 154.28125,148.34738 52.73437,0 0,52.73438 -52.73437,0 0,-52.73438 m 1.05469,1.05469 0,50.625 50.625,0 0,-50.625 -50.625,0 m 0.42187,0.63281 49.57031,0 0,49.57032 -49.57031,0 0,-49.57032 m 1.05469,1.05469 0,0.63281 0.21094,0 c -1e-5,-0.42182 0.14062,-0.63276 0.42187,-0.63281 0.46875,5e-5 0.96094,0.21099 1.47656,0.63281 l 0.63282,0 -1.47657,-1.05468 -0.84375,0 -0.42187,0.42187 m 9.70312,0.21094 0,0.21094 c 1.71093,-0.42183 3.18749,-0.63277 4.42969,-0.63282 l 3.58594,0.63282 0,-0.42188 -3.375,-0.42187 -1.26563,0 c -2.25001,5e-5 -3.37501,0.21098 -3.375,0.63281 m -1.26562,-0.42188 0.42187,1.05469 0.21094,0 0,-0.84375 -0.21094,-0.21094 -0.42187,0 m 13.07812,0 0,0.42188 0.42188,-0.42188 -0.42188,0 m 4.85157,4.21875 c 0.28122,0.63286 0.56247,0.98442 0.84375,1.05469 0.3984,-1.42964 1.80465,-2.76558 4.21875,-4.00781 1.47652,-0.42183 2.95309,-0.63276 4.42968,-0.63281 l 2.53125,0.21093 0.21094,-0.21093 0,-0.21094 -3.16406,-0.42188 c -3.89066,5e-5 -6.91409,1.4063 -9.07031,4.21875 m -24.89063,-2.53125 -0.21094,0 -1.05468,-0.63281 0,0.21094 0.21093,0 -0.21093,0.21094 0,0.42187 2.53125,0.42188 3.375,-0.84375 -0.63282,0.84375 0,0.21093 1.05469,0 c 1.12499,5e-5 1.68749,-0.49213 1.6875,-1.47656 l -0.84375,-0.84375 -0.84375,0 c -2.48438,0.98443 -4.17188,1.47661 -5.0625,1.47656 m 21.9375,-0.42187 c -0.28127,5e-5 -0.4219,-0.21089 -0.42187,-0.63281 l -0.42188,0.42187 c -2e-5,1.05474 0.77341,1.82817 2.32031,2.32031 l 0,0.21094 c -2e-5,0.4688 -0.21096,0.96098 -0.63281,1.47656 l 0,0.21094 c 2.9531,2.01567 4.42966,5.39067 4.42969,10.125 l 0,0.21094 0.42187,0.42187 0.21094,-1.26562 c -3e-5,-3.51559 -1.61722,-7.73433 -4.85156,-12.65625 l 0,-0.84375 0.63281,-0.84375 0,-0.21094 -0.84375,0 c -0.28127,5e-5 -0.4219,0.2813 -0.42187,0.84375 l -0.21094,0.21094 -0.21094,0 m -4.42969,-0.63281 0.42188,0 1.26562,0.21093 0.21094,0 0,-0.21093 -1.05469,-0.21094 -0.63281,0 -0.21094,0.21094 m 7.17188,0.21093 0,0.21094 0.63281,0.63281 1.47656,0 0,-0.21093 c -1.12502,5e-5 -1.68752,-0.35152 -1.6875,-1.05469 l -0.42187,0.42187 m -11.39063,-0.21093 0,0.21093 1.05469,0 0,-0.21093 -1.05469,0 m 27.42188,0 0,1.05468 1.26562,1.47657 0.42188,0 0,-0.63282 c -0.8438,-0.89057 -1.26567,-1.52338 -1.26563,-1.89843 l -0.42187,0 m 2.95312,0.63281 -0.42187,-0.42188 -0.63281,0.63282 c -5e-5,1.03129 0.21089,1.59379 0.63281,1.6875 0.56245,4e-5 1.05464,-0.63277 1.47656,-1.89844 l 0.84375,-0.21094 0.21094,0.21094 0,-0.21094 -0.42188,-0.42187 -0.42187,0 -1.26563,0.63281 m -32.27343,0.63281 0.21093,0.21094 0.21094,0 0.63281,-1.05469 -0.21093,0 -0.84375,0.84375 m 4.00781,0.21094 1.05469,-0.21094 0.42187,0 4.00781,1.05469 0.63282,0 -1.6875,-1.89844 0,0.63281 -0.21094,0 -1.47656,-0.63281 c -1.82815,0.18755 -2.74221,0.53911 -2.74219,1.05469 m 16.03125,0 c 0.2109,0.56255 0.42184,0.8438 0.63281,0.84375 l 0.42188,0 -0.42188,-0.84375 c 0.5859,-0.56245 1.21872,-0.8437 1.89844,-0.84375 l 0,-0.21094 -1.05469,0 c -0.98441,0.23443 -1.4766,0.58599 -1.47656,1.05469 m 5.0625,-0.63281 0.42187,0.42187 c -0.9141,5e-5 -1.54691,0.42192 -1.89843,1.26563 l 0.21093,1.05468 0.21094,0 c 0.56246,-1.26557 1.47652,-1.89839 2.74219,-1.89843 l 2.95312,0.84375 0.21094,0 c -1.00785,-1.4062 -2.20317,-2.10933 -3.58594,-2.10938 l -0.84375,0 -0.42187,0.42188 m 1.6875,-0.21094 1.05469,0.21094 0,0.21093 -1.6875,0 c -4e-5,-0.2812 0.21089,-0.42182 0.63281,-0.42187 m -29.10938,1.26562 0,1.26563 -0.42187,0.63281 c 0.0234,0.37505 0.58592,1.00786 1.6875,1.89844 l 0,0.21094 -0.84375,0 c 0.0703,0.28129 0.42186,0.56254 1.05469,0.84375 l 0.21093,-0.63282 c 1.45311,5e-5 3.21092,1.19536 5.27344,3.58594 l 0,0.21094 -0.21094,0 -0.21093,-0.21094 -0.42188,0 c -2e-5,-0.49215 -0.42189,-0.98433 -1.26562,-1.47656 l -0.21094,0 -1.05469,0.21094 0.63281,1.05468 c -0.72657,4e-5 -1.28907,0.35161 -1.6875,1.05469 l 0,0.63281 0.63282,0.63282 0,-0.21094 -0.21094,-0.84375 c 0.42186,-0.42184 0.91405,-0.63277 1.47656,-0.63281 l 0,-0.21094 c 1.14842,4e-5 2.20311,1.19535 3.16406,3.58594 l 0.84375,0.21093 0,-0.63281 -0.21093,0.21094 -0.42188,0 0,-0.63281 0.63281,-0.21094 c -2e-5,-3.2109 -2.39064,-5.81246 -7.17187,-7.80469 -0.56251,-0.67964 -0.84376,-1.24214 -0.84375,-1.6875 -1e-5,-0.56245 0.56249,-0.8437 1.6875,-0.84375 l -0.42188,-0.42187 -0.63281,0 -1.05469,0.21093 m -10.125,0.42188 0,0.42187 c 0,0.2813 0.28125,0.42193 0.84375,0.42188 1.21875,5e-5 3.67969,6.96098 7.38282,20.88281 l 1.89843,5.90625 0.84375,0 c 1.03124,2e-5 2.01561,0.21096 2.95313,0.63281 l 0,-0.42187 c -3.79689,-11.29684 -6.32814,-19.66402 -7.59375,-25.10156 -1e-5,-1.00777 0.91405,-1.78121 2.74219,-2.32032 l 0,-0.21093 -0.21094,0 -4.85156,0.21093 -4.00782,-0.42187 m 13.71094,0.21094 -0.21094,0.21093 0,0.42188 0.84375,0 c 2.01561,5e-5 3.70311,3.02348 5.0625,9.07031 1.96873,6.00003 3.09373,9.7969 3.375,11.39063 l 0,0.21093 c -2e-5,0.4219 -0.84377,2.25003 -2.53125,5.48438 l 0,0.21094 0.42188,0 1.47656,0.21093 1.26563,-2.95312 0.21093,0 0.21094,0.21094 0.21094,0 2.10937,-4.85157 c -3.2344,-9.82027 -4.85158,-15.44527 -4.85156,-16.875 -2e-5,-0.91401 0.63279,-1.54682 1.89844,-1.89843 l 0,-0.21094 -0.21094,-0.21094 -2.74219,0 -6.53906,-0.42187 m 19.61719,1.89843 0,0.63282 -0.21094,0 -0.63281,-0.21094 0,1.05469 c -4e-5,0.28129 0.84371,1.12504 2.53125,2.53125 l 0,0.63281 0.21094,0 0.21093,-0.21094 0.21094,0 0,0.42188 -0.21094,0.63281 -1.05468,-0.21094 0.21093,-0.21094 0,-0.21093 c -0.30472,4e-5 -1.07816,-0.70309 -2.32031,-2.10938 l 0,1.26563 -0.21094,0 c -0.21097,-1.12496 -0.56253,-1.68746 -1.05468,-1.6875 l 0,-0.42188 0.42187,0 0.84375,0.63281 0,-0.21093 c -0.91409,-0.86715 -1.68753,-1.35933 -2.32031,-1.47657 l 0,0.21094 0.21094,0.21094 0,0.21094 -0.42188,0 -0.63281,-0.42188 c -0.56253,0.21098 -0.84378,0.42192 -0.84375,0.63281 1.24216,5e-5 2.15622,0.63286 2.74219,1.89844 0.86715,1.68754 1.85152,2.53129 2.95312,2.53125 l 0.84375,0 c 1.12496,4e-5 1.68746,-0.56246 1.6875,-1.6875 l 0,-0.21094 c -4e-5,-0.63277 -0.84379,-1.75777 -2.53125,-3.375 l -0.21094,-1.05468 c 0.0468,-0.42183 0.39841,-0.91402 1.05469,-1.47657 l -0.42187,0 c -0.70316,0.25786 -1.05473,0.82036 -1.05469,1.6875 m -26.57813,1.05469 7.59375,24.67969 0.63282,0.63281 -3.79688,-12.23437 0.21094,-0.21094 -0.21094,0 -0.21094,0.21094 -3.79687,-13.07813 c -1e-5,-1.12495 0.84374,-1.82808 2.53125,-2.10937 l 0,-0.42188 -0.21094,0 c -1.82813,0.60942 -2.74219,1.38286 -2.74219,2.32031 l 0,0.21094 m 16.875,-2.53125 c -2e-5,0.51567 -0.49221,1.00786 -1.47656,1.47656 l -0.42187,1.26563 4.64062,15.39844 0.21094,0 0,-0.21094 c -2.95315,-8.74215 -4.42971,-13.94527 -4.42969,-15.60938 l 0,-0.21093 1.89844,-1.47657 0,-0.63281 -0.42188,0 m 6.53907,0 0,0.63281 0.21093,0 0.42188,-0.42187 0,-0.21094 -0.63281,0 m 1.6875,0 0,0.42188 0.42187,0 0,-0.42188 -0.42187,0 m 6.11718,0 -0.21093,0.21094 0,0.21094 2.95312,1.6875 0.42188,1.89843 0,0.63282 -4.42969,16.45312 0.84375,0 c 0.98433,3e-5 1.47652,-0.63278 1.47656,-1.89844 0.84371,-2.15622 2.32027,-7.85152 4.42969,-17.08593 0.30464,-0.60933 1.28901,-1.24214 2.95312,-1.89844 l 0,-0.21094 -2.53125,0.21094 -1.6875,0 -4.21875,-0.21094 m 8.85938,0 c -5e-5,0.60942 -0.8438,1.17192 -2.53125,1.6875 -0.42192,5e-5 -1.12505,2.81254 -2.10938,8.4375 l -2.95312,10.54688 0,0.21093 0.21094,0 c 0.98433,-2.71872 2.5312,-8.76559 4.64062,-18.14062 0.53902,-0.89058 1.52339,-1.52339 2.95313,-1.89844 l 0.21093,-0.63281 -0.21093,-0.21094 -0.21094,0 m -34.59375,0.42188 0,0.63281 0.84375,0.84375 0,-0.21094 c -0.28127,5e-5 -0.42189,-0.35152 -0.42188,-1.05469 l -0.21093,-0.21093 -0.21094,0 m 2.10937,0.21093 0,0.21094 0.84375,0.21094 0.21094,0 0,-0.21094 -0.63281,-0.21094 -0.42188,0 m 16.66407,0.42188 0,0.63281 0.42187,0 0.42188,-0.42187 -0.21094,-0.21094 -0.63281,0 m -1.6875,0.21094 0.42187,0.42187 0.21094,-0.21094 0,-0.21093 -0.63281,0 m 6.96093,1.89843 0,0.84375 0.21094,-0.21093 0.21094,0.21093 0.21094,0 0.63281,-0.21093 0,0.21093 c -4e-5,0.56255 0.2109,0.8438 0.63281,0.84375 l 0.63281,-1.6875 c -0.70316,-0.0937 -1.05472,-0.44526 -1.05468,-1.05468 l -0.42188,-0.42188 c -0.70316,0.18755 -1.05472,0.67973 -1.05469,1.47656 M 158.5,156.57395 c -0.98438,2.2266 -1.47657,4.12504 -1.47656,5.69531 l 0,1.26562 0.84375,-0.21093 -0.21094,-1.05469 0,-0.63281 c 0,-2.41402 0.42187,-4.10152 1.26562,-5.0625 l -0.42187,0 m -0.84375,0.21093 -0.21094,0.21094 0,0.21094 -0.21094,-0.21094 -0.42187,0 0,0.42188 0.84375,0 0.21094,-0.63282 -0.21094,0 m 44.50781,0.21094 c 0.8437,1.38286 1.26558,2.92973 1.26563,4.64063 l 0,0.84375 -0.21094,0.21093 0,0.21094 0.21094,0.21094 0.21093,0 0.42188,-0.63281 0,-1.26563 c -5e-5,-1.07808 -0.35161,-2.55464 -1.05469,-4.42969 l -0.42187,0 -0.21094,0.21094 -0.21094,0 m -21.72656,1.26563 0,0.21093 0.63281,0 c 0.3281,5e-5 0.53904,-0.49214 0.63281,-1.47656 -0.28127,5e-5 -0.4219,0.2813 -0.42187,0.84375 l -0.84375,0.42188 m -14.97656,-1.05469 0,0.42187 c -1e-5,0.98442 0.56249,1.47661 1.6875,1.47657 l 0.21093,0 c -0.98438,-0.56246 -1.47657,-1.12496 -1.47656,-1.6875 l 0,-0.21094 -0.42187,0 m 25.3125,-0.21094 0.21093,0 2.32032,2.32031 0,0.21094 -2.53125,-2.10937 0,-0.42188 m -8.64844,0.63281 0.21094,0.63282 -0.42188,1.89843 c 0.25779,1.68754 0.53904,2.53129 0.84375,2.53125 l 0.63281,-0.21093 0,0.21093 c -2e-5,0.84379 0.35154,1.26567 1.05469,1.26563 l 0.21094,-0.21094 0,-0.21094 c -1.12503,-0.37496 -1.68753,-1.57027 -1.6875,-3.58593 l 0.21094,-1.05469 c -0.18753,-0.5859 -0.53909,-1.00777 -1.05469,-1.26563 m 13.5,2.32032 c 0.56246,4e-5 0.91402,0.28129 1.05469,0.84375 0.56245,-0.14059 0.8437,-0.49215 0.84375,-1.05469 l -0.42188,0 0.42188,-1.26563 -0.21094,0 c -0.98442,0.30473 -1.54692,0.79692 -1.6875,1.47657 m -9.91406,-0.42188 0,1.47656 0.21093,0 c -3e-5,-0.93745 0.28122,-1.64058 0.84375,-2.10937 l 0,-0.21094 -0.42187,0 c -0.35159,4e-5 -0.56253,0.28129 -0.63281,0.84375 m -27.42188,-0.63281 0,0.21094 c 0.14062,0.84379 0.35156,1.26566 0.63281,1.26562 l 0.84375,0 0,-0.63281 c -0.70312,4e-5 -1.05469,-0.28121 -1.05468,-0.84375 l -0.42188,0 m 8.22656,3.16406 c 0.35155,1.33598 0.77343,2.10941 1.26563,2.32031 l 0.21094,0 c -0.70314,-0.9609 -1.0547,-1.66402 -1.05469,-2.10937 -1e-5,-1.45309 0.91405,-2.50777 2.74219,-3.16406 l 1.26562,0.21093 0.21094,0 0,-0.21093 -1.05469,-0.21094 -0.42187,0 c -2.10939,0.56254 -3.16408,1.61723 -3.16407,3.16406 m 28.05469,-2.74219 0,0.42188 0.21094,0 0,-0.42188 -0.21094,0 m -26.57812,2.32032 1.05468,0.21093 0,-0.21093 -0.42187,-0.63282 0,-0.63281 0.42187,-0.63281 -0.21093,0 c -0.56252,0.18754 -0.84377,0.82035 -0.84375,1.89844 m 13.28906,-1.89844 0,1.6875 c -3e-5,3.42191 1.89841,6.09378 5.69531,8.01562 l 1.6875,0.42188 1.6875,0 c 1.8984,3e-5 3.65621,-1.05466 5.27344,-3.16406 l 0,-0.42188 -0.63281,0 -0.21094,0.84375 -0.21094,-0.21094 -0.21094,0 0,0.21094 0.21094,0.21094 c -1.19535,1.26566 -2.88285,1.89847 -5.0625,1.89844 l -0.63281,0 c -3.84378,3e-5 -6.30472,-3.02341 -7.38281,-9.07032 l 0,-0.42187 -0.21094,0 m 20.25,0.21094 -0.21094,0.21093 0,0.21094 c 0.8437,4e-5 1.26558,0.63285 1.26563,1.89844 l 0.21093,0 0,-1.47656 c -0.14067,-0.56246 -0.56254,-0.84371 -1.26562,-0.84375 m -6.53906,0.21093 -0.21094,0.21094 0,0.21094 0.42187,0.42187 -0.21093,0.21094 -0.21094,0 0,0.42188 -0.21094,0 -0.21094,-0.21094 -0.42187,0 0,0.21094 c 0.56246,4e-5 0.91402,0.28129 1.05469,0.84375 l -0.63282,0.21093 -0.21093,-0.63281 -1.26563,0.84375 -0.21094,-0.21094 -0.63281,0 0,0.63282 c 0.53903,3e-5 1.03121,0.3516 1.47656,1.05468 l -0.21093,0.21094 0,0.21094 0.21093,0 0.21094,-0.21094 c -4e-5,0.21098 0.28121,0.42191 0.84375,0.63281 l 0,-0.63281 0.21094,0 0.84375,1.26563 0.21094,0 0.63281,-2.10938 -0.42188,-1.26562 0.84375,-0.21094 -0.21093,-1.05469 -0.21094,0 0,0.42188 c -0.63285,-0.28121 -0.98442,-0.56246 -1.05469,-0.84375 l 0,-0.21094 0.42188,0 0.63281,0.42187 0,-0.21093 -1.47656,-0.63282 m -36.49219,1.26563 0,1.26562 c 0,0.28129 0.77343,0.63285 2.32031,1.05469 l 0.42188,1.05469 c -0.28126,0.63285 -0.56251,0.98441 -0.84375,1.05469 l -1.05469,0 c -0.70313,-0.39841 -1.05469,-0.82028 -1.05469,-1.26563 l -0.42187,0.42188 0,0.21093 0.42187,0 c 0.1875,1.54691 0.96094,2.32035 2.32031,2.32032 l 0.42188,0 0.21094,-0.21094 0.21093,0 -0.42187,-1.05469 0.63281,-0.63281 0,-0.63281 c 0,-0.82028 -0.84375,-1.73434 -2.53125,-2.74219 l -0.21094,-0.84375 -0.42187,0 m 28.47656,1.47656 c 0.89059,4e-5 1.38278,0.28129 1.47656,0.84375 l -0.42187,0.42188 0,0.42187 0.42187,0 c 1.40622,-0.16402 2.10934,-0.44527 2.10938,-0.84375 l 0,-0.84375 -1.26563,0.42188 0,-0.21094 0.42188,-0.63281 0,-0.42188 -1.05469,-0.21094 c -0.96097,4e-5 -1.52347,0.35161 -1.6875,1.05469 m 14.55469,-0.84375 -0.63281,0.84375 0,0.21094 c 1.26557,4e-5 1.89839,0.63285 1.89843,1.89844 l 0,1.6875 -0.21093,-0.21094 -0.21094,0 0.21094,0.63281 c -0.2813,0.37504 -0.49224,1.35941 -0.63282,2.95313 1.54683,-1.00778 2.32027,-2.76559 2.32032,-5.27344 l 0,-1.89844 -0.21094,0 -0.63281,4.00781 -0.42188,0 0.42188,-1.26562 c -5e-5,-2.39059 -0.63286,-3.5859 -1.89844,-3.58594 m -32.90625,1.6875 0.42187,0.42188 0.21094,0 0,-1.05469 -0.63281,0.63281 m 26.78906,-0.42187 0.21094,0 0.21094,1.89843 c -0.28129,4e-5 -0.49223,-0.42183 -0.63282,-1.26562 l 0.21094,-0.63281 m -38.39062,0.42187 0,0.42188 0.21093,1.05468 0.21094,0 0,-0.21093 -0.21094,-0.21094 0,-0.21094 0.21094,-0.63281 -0.21094,-0.21094 -0.21093,0 m 15.82031,0 -0.42188,0.63281 0,0.21094 0.21094,-0.21094 0.63281,0 0.63282,0.42188 0,-0.21094 c -0.14065,-0.56246 -0.49221,-0.84371 -1.05469,-0.84375 m -15.1875,0.21094 0,0.21094 0.21094,0.21093 0.21093,0 0,-0.21093 -0.21093,-0.21094 -0.21094,0 m 34.80469,0.21094 0,0.21093 0.63281,0.21094 0,-0.21094 -0.21094,-0.21093 -0.42187,0 m -22.35938,0.21093 0,0.21094 0.42188,0 0,-0.21094 -0.42188,0 m 19.61719,2.95313 0.21094,0 c 0.53902,3e-5 1.10152,-0.35153 1.6875,-1.05469 l 0.42187,0.42188 0.21094,0 0.21094,-0.84375 c -0.18754,-0.70309 -0.39848,-1.05465 -0.63282,-1.05469 l -0.21093,0 0,0.42187 c -0.70316,4e-5 -1.05473,-0.2109 -1.05469,-0.63281 -0.32816,4e-5 -0.60941,0.9141 -0.84375,2.74219 m -18.5625,-2.53125 0.42187,0.42187 0,-0.42187 -0.42187,0 m 29.32031,0.42187 0,0.21094 0.21094,0 0.21094,-0.21094 0.21093,0 c 0.56246,0.63285 0.84371,1.12504 0.84375,1.47657 l 0.21094,0 0,-0.63282 c -5e-5,-0.56246 -0.2813,-0.98433 -0.84375,-1.26562 l -0.42187,0 -0.42188,0.42187 m -31.00781,0 -0.21094,0.63282 0.21094,0.21093 0.21094,0 0.42187,-0.42187 0,-0.42188 -0.63281,0 m 18.14062,0 -0.21093,0.21094 0.42187,0.63281 c -3e-5,0.5391 -0.42191,1.03129 -1.26562,1.47657 l -0.21094,0 -1.26563,-0.42188 0,0.21094 c 0.56247,0.42191 1.40622,0.63284 2.53125,0.63281 l 1.05469,-1.26562 0,-0.63282 c -0.0703,-0.28121 -0.42191,-0.56246 -1.05469,-0.84375 m -30.375,0.21094 0,0.21094 1.47657,3.58594 0.21093,0 0.84375,-0.84375 0,-0.21094 -0.21093,0 -0.21094,0.21094 c -0.63282,-0.23435 -1.125,-0.65622 -1.47656,-1.26563 l 0.42187,0 -0.84375,-1.6875 -0.21094,0 m 16.03125,0.21094 0,0.21094 0.63282,0 0,-0.21094 -0.63282,0 m 1.47657,0 0,0.21094 0.42187,0 0,-0.21094 -0.42187,0 m -6.96094,0.21094 0,0.21093 0.42187,0.42188 0.21094,0 0,-0.63281 -0.63281,0 m 2.95312,0 0,0.63281 0.63282,0 0,-0.21094 -0.42188,-0.42187 -0.21094,0 m 1.47657,0 0,0.63281 0.42187,-0.42188 -0.21094,-0.21093 -0.21093,0 m 3.16406,0 0,0.21093 1.47656,1.26563 c -2e-5,-0.44528 -0.49221,-0.93747 -1.47656,-1.47656 m -0.63281,0.63281 c -2e-5,1.31253 -0.4219,2.50784 -1.26563,3.58594 l 0.42188,0.42187 c 0.98435,-1.59372 1.47654,-2.6484 1.47656,-3.16406 l 0,-0.42188 -0.42188,-0.42187 -0.21093,0 m -5.48438,0.21094 0,0.42187 0.84375,0.21094 0,-0.21094 -0.42187,-0.42187 -0.42188,0 m 1.6875,0.84375 0.42188,0 0,-0.42188 -0.42188,0.42188 m 1.26563,1.26562 c 0.30467,2.10941 1.14842,3.16409 2.53125,3.16406 l 0,-0.42187 c -0.93752,3e-5 -1.71096,-0.84372 -2.32032,-2.53125 0.28124,-0.84372 0.56249,-1.26559 0.84375,-1.26563 l 0.21094,0 0.21094,0.21094 0.21094,0 0,-0.21094 c -2e-5,-0.28121 -0.21096,-0.42184 -0.63282,-0.42187 -0.70314,0.18753 -1.0547,0.67972 -1.05468,1.47656 m 4.64062,-1.26562 0,0.21093 0.21094,0.84375 0.21094,0 0,-0.42187 -0.21094,-0.63281 -0.21094,0 m 24.25781,0 c -4e-5,0.56253 -0.14067,0.84378 -0.42187,0.84375 l -0.21094,0 0,-0.63282 -0.21094,0 c -0.23442,4e-5 -0.51567,0.49222 -0.84375,1.47657 l 0.21094,0.84375 0,0.21093 -0.63281,0.84375 0.42187,0 0.63282,-0.63281 0,-1.47656 c 0.70308,3e-5 1.05464,-0.28122 1.05468,-0.84375 l 0.21094,0 0,0.63281 0.42188,0 -0.42188,-1.26562 -0.21094,0 m -44.08593,0.42187 0,0.42188 0.84375,2.10937 0.42187,0 0,-0.63281 -1.05469,-1.89844 -0.21093,0 m 11.8125,0.84375 0.21093,-0.21094 0.63282,0 0.84375,0.84375 -1.26563,1.6875 0.42188,0 c 0.98436,-0.49215 1.47654,-1.05465 1.47656,-1.6875 -2e-5,-0.70309 -0.4922,-1.19528 -1.47656,-1.47656 -0.46877,0.14066 -0.75002,0.42191 -0.84375,0.84375 m -11.17969,3.375 0.21094,0 c 1.52343,-2.24997 2.92968,-3.37497 4.21875,-3.375 l 0,-0.21094 -0.84375,0 c -0.6797,4e-5 -1.87501,1.19535 -3.58594,3.58594 m 19.61719,-2.95312 0,0.84375 0.21093,0 0,-0.84375 -0.21093,0 m 15.82031,0.42187 c 0.84371,3e-5 1.26558,0.28128 1.26562,0.84375 l 0.63282,-0.42187 c -0.21098,-0.56247 -0.42192,-0.84372 -0.63282,-0.84375 l -0.84375,0 -0.42187,0.42187 m -17.71875,-0.21094 0,0.21094 0.21094,1.47656 c -0.35159,1.40628 -0.9844,2.10941 -1.89844,2.10938 l -0.63281,-0.63281 0,0.42187 0.42187,0.42188 0.42188,0 c 1.2656,2e-5 1.89841,-0.84372 1.89843,-2.53125 l 0,-0.42188 -0.21093,-1.05469 -0.21094,0 m 8.4375,0 -0.21094,0.21094 0,0.21094 0.84375,0.63281 0,-0.42187 -0.63281,-0.63282 m -24.04688,1.6875 c 2.8125,2.17972 4.21875,4.21878 4.21875,6.11719 l 0.21094,0 0,-1.6875 -0.63281,-0.84375 0.63281,-0.21094 c -1e-5,-1.40622 -1.05469,-2.4609 -3.16406,-3.16406 l -0.21094,-1.05469 0.84375,0 0,-0.21093 -0.42187,-0.42188 c -0.44532,3e-5 -0.93751,0.49222 -1.47657,1.47656 m 3.16407,-1.47656 0,0.63281 0.21093,0 0,-0.63281 -0.21093,0 m 22.35937,0 c -3e-5,1.82816 -1.33596,5.27347 -4.00781,10.33594 l -1.05469,2.53125 0.21094,0 c 3.65622,-7.19529 5.48434,-11.48435 5.48437,-12.86719 l -0.63281,0 m 2.10938,0.21094 0,0.21094 0.84375,0.84375 -0.21094,0.63281 0.63281,-0.21094 0,-0.42187 c -0.25784,-0.5156 -0.67972,-0.86716 -1.26562,-1.05469 m 13.28906,1.89844 -0.21094,0 0,-0.21094 0.84375,-1.26563 -0.42187,0 c -5e-5,0.60941 -0.91411,1.59378 -2.74219,2.95313 l -0.42188,1.05469 c 1.10152,2e-5 2.50777,-1.05466 4.21875,-3.16407 0.11714,-0.46872 0.74996,-0.74996 1.89844,-0.84375 l 0,-0.21093 -0.42187,0 0,-0.21094 c -0.72661,0.21097 -1.64068,0.84378 -2.74219,1.89844 m -23.625,-1.47657 -0.42188,0.84375 0.21094,0 0.42188,-0.63281 0,-0.21094 -0.21094,0 m 12.86719,1.05469 0.63281,2.53125 0,0.42188 c -4e-5,0.4219 -0.28129,0.63284 -0.84375,0.63281 l 0,0.21094 0.42187,0 c 0.56247,-0.63279 0.84372,-1.2656 0.84375,-1.89844 l -0.63281,-1.6875 0.84375,-0.63281 0.63281,0 1.05469,1.05468 0,1.47657 -0.21094,-0.21094 -0.21093,0 0,0.21094 0.21093,0 c -3e-5,0.77346 -1.19534,1.75784 -3.58593,2.95312 -0.70316,0.4219 -1.05472,1.12503 -1.05469,2.10938 -3e-5,0.42189 0.98434,0.84377 2.95312,1.26562 l 0.42188,0.84375 0.21094,0 0.42187,-1.26562 -0.42187,-1.05469 0.42187,-0.42188 -1.05469,-0.21093 -1.05468,0.63281 -0.42188,0 -0.63281,-0.63281 0.63281,-0.63282 0.84375,0 1.05469,0.21094 -0.21094,-0.21094 0,-0.42187 c 0.60934,2e-5 1.03121,-0.28123 1.26563,-0.84375 l -0.42188,0 0,-0.21094 c 1.26559,-1.05466 1.8984,-1.96872 1.89844,-2.74219 l 0,-1.05468 -0.21094,0.21093 -0.42187,0 c -4e-5,-0.82028 -0.56254,-1.31247 -1.6875,-1.47656 l -0.84375,0 -0.84375,0.84375 m -20.25,0.84375 0,0.21094 c 1.82811,-0.56247 2.74217,-0.98435 2.74218,-1.26563 l -0.21093,-0.21093 c -1.54689,0.51565 -2.39064,0.93753 -2.53125,1.26562 m 14.76562,-1.26562 0,0.42187 0.21094,0 0,-0.42187 -0.21094,0 m 19.40625,0.84375 0,0.42187 0.21094,0 0,-0.42187 -0.21094,0 m -44.71875,0.21093 0,0.42188 0.42188,1.26562 c -1e-5,0.56253 -0.49219,0.84378 -1.47657,0.84375 0.14063,0.46878 0.42188,0.75003 0.84375,0.84375 0.70312,-0.18747 1.05469,-0.67966 1.05469,-1.47656 l 0,-0.42187 c 0,-0.74997 -0.28125,-1.24216 -0.84375,-1.47657 m 17.71875,0.21094 0,0.21094 c 1.12498,0.0235 1.68748,0.30472 1.6875,0.84375 l 0,0.84375 c -0.70315,0.91409 -1.05471,1.61721 -1.05469,2.10937 l 0,0.42188 0.63282,0.21094 0.21093,-0.21094 0,-0.21094 -0.42187,-0.42187 1.05469,-2.32032 0,-0.21093 c -0.35159,-0.84372 -0.77346,-1.2656 -1.26563,-1.26563 l -0.84375,0 m 9.07031,0.42188 -0.21093,1.05468 c -3e-5,0.56253 0.28122,0.98441 0.84375,1.26563 l 0,-0.21094 c -0.42191,-0.1406 -0.63285,-0.56247 -0.63282,-1.26562 l 0,-0.21094 0.42188,-0.63281 -0.42188,0 m 0.84375,1.47656 0.21094,0 c 0.11716,-0.53904 0.60934,-0.96091 1.47656,-1.26563 l 1.05469,0.42188 0,-0.42188 -1.05469,-0.21093 c -0.77347,3e-5 -1.33597,0.49221 -1.6875,1.47656 m -16.24218,-1.26563 0,0.21094 c 0.84373,0.11722 1.2656,0.53909 1.26562,1.26563 l 0.42188,-0.42188 0,-0.42187 c -0.14065,-0.42185 -0.56252,-0.63279 -1.26563,-0.63282 l -0.42187,0 m 29.95312,0.63282 1.26563,0.42187 0,-0.42187 -0.42188,-0.42188 -0.42187,0 -0.42188,0.42188 m 3.375,-0.21094 0,0.63281 0.42188,0 0,-0.63281 -0.42188,0 m -16.03125,0.63281 0,0.42188 0.21094,0.63281 0.21094,0 0,-0.63281 -0.42188,-0.42188 m 14.76563,0 0,0.42188 0.42187,0 0,-0.42188 -0.42187,0 m -26.78907,0.21094 0,0.21094 0.42188,0 0,-0.21094 -0.42188,0 m 0.84375,1.26562 -1.05468,-0.42187 c -2e-5,0.4219 0.28123,0.63284 0.84375,0.63281 l 0,0.63281 0.21093,0 0.42188,-1.6875 0,-0.21093 c -0.28127,2e-5 -0.4219,0.35159 -0.42188,1.05468 m -19.82812,-0.84375 0,0.42188 0.21094,0 0,-0.42188 -0.21094,0 m 4.42969,0 c -1e-5,0.30472 -0.84376,1.42972 -2.53125,3.375 l 0.42187,0 2.32031,-2.95312 0,-0.42188 -0.21093,0 m 42.39843,0 0,0.42188 0.21094,0 0,-0.42188 -0.21094,0 m -29.74218,0.63282 0,0.21093 c 0.56248,3e-5 0.84373,0.28128 0.84375,0.84375 l 0.21093,0 0,-0.63281 -0.84375,-0.42187 -0.21093,0 m 10.54687,0 0,0.42187 0.84375,2.74219 -0.21094,0.21094 -0.21093,0 -0.63282,-2.32032 c -0.28127,3e-5 -0.9844,1.33597 -2.10937,4.00782 l 2.53125,6.96093 0.21094,0 c -3e-5,-0.58592 0.70309,-1.71092 2.10937,-3.375 l -1.89844,-5.27343 0.21094,-0.21094 0.21094,0 c 0.91403,3.09377 1.61715,4.78127 2.10937,5.0625 l 0,-0.42188 c -0.53909,-0.74998 -1.52346,-3.35154 -2.95312,-7.80468 l -0.21094,0 m 4.64063,0 0,0.21093 0.42187,0 0,-0.21093 -0.42187,0 m 13.28906,0 0,0.42187 0.42187,0 0,-0.42187 -0.42187,0 m -45.77344,0.21093 0,1.26563 0.21094,0 0,-1.26563 -0.21094,0 m 31.42969,0 c -3e-5,0.56253 -0.42191,0.84378 -1.26563,0.84375 l -0.63281,-0.63281 c 0.21091,0.56253 0.42185,0.84378 0.63281,0.84375 l 0.84375,0 c 0.21091,3e-5 0.42185,-0.28122 0.63282,-0.84375 l 0,-0.21094 -0.21094,0 m 10.75781,1.05469 0,0.21094 c 0.56246,2e-5 0.84371,0.14065 0.84375,0.42187 l -0.21094,0.21094 1.26563,0.63281 0.21094,0 0,-0.21093 c -5e-5,-0.37498 -0.35161,-0.58592 -1.05469,-0.63282 l 0,-0.63281 c 0.70308,-0.0937 1.05464,-0.30466 1.05469,-0.63281 l 0,-0.42188 -0.21094,0 c -0.53911,0.16409 -0.96098,0.51565 -1.26563,1.05469 l -0.63281,0 m -27.42187,-0.84375 0,0.42188 c 0.56248,0.0469 0.84373,0.32815 0.84375,0.84375 L 172,178.08957 l 0,0.42188 0.63281,0 -0.42187,1.26562 0.42187,1.89844 0.21094,0 -0.21094,-1.05469 0,-0.42187 c 0.0937,-0.84373 0.30467,-1.26561 0.63281,-1.26563 l 0.42188,0.63281 1.47656,-0.63281 0,-0.21094 c -1.40627,3e-5 -2.10939,-0.49216 -2.10937,-1.47656 -2e-5,-1.12497 -0.49221,-1.68747 -1.47657,-1.6875 l -0.21093,0 m 32.0625,0.21094 0,0.21094 -0.42188,0.63281 0.21094,0 0.42187,-0.63281 -0.21093,-0.21094 m -10.75782,0 -0.84375,1.26562 c 0.5859,-0.18747 1.00778,-0.53903 1.26563,-1.05468 l 0,-0.21094 -0.42188,0 m -34.59375,0.42187 -0.42187,1.05469 0,0.42188 0.21094,0 c -1e-5,-0.84373 0.42187,-1.2656 1.26562,-1.26563 l 0,-0.21094 -1.05469,0 m 18.14063,0.21094 -0.63281,0.84375 0.21093,0 0.63282,-0.84375 -0.21094,0 m 16.66406,1.05469 0,0.21094 0.21094,-0.21094 0.21094,0 c 5.46089,2e-5 8.9062,2.60158 10.33593,7.80469 l 0.21094,2.53125 c -5e-5,1.87501 -0.21098,3.14063 -0.63281,3.79687 l 0.21094,0.21094 -1.47657,2.53125 c -1.26567,1.6875 -2.88285,2.53125 -4.85156,2.53125 l -1.47656,-0.63281 0,0.21093 c -4e-5,0.28126 0.2109,0.42188 0.63281,0.42188 l 0.21094,0.21094 0,0.21093 -0.84375,0.21094 0,0.21094 0.84375,0 c 1.68746,0 3.51558,-0.91406 5.48437,-2.74219 l 0.21094,0 0,0.42188 c -1.26567,1.14844 -1.89848,2.0625 -1.89844,2.74218 l 0.84375,-0.42187 c 0.2109,0.70313 0.70308,1.05469 1.47657,1.05469 l 0.42187,0 0,0.21093 c 0.4687,-0.11718 0.89058,-0.53906 1.26563,-1.26562 -0.25786,-1.26562 -0.53911,-1.89843 -0.84375,-1.89844 l 0.21093,1.47656 0,0.42188 -0.63281,0.63281 -0.21094,0 -0.63281,-0.63281 0,-1.26563 c 1.54683,-2.57811 2.32026,-5.39061 2.32031,-8.4375 -5e-5,-4.8281 -2.03911,-8.2031 -6.11718,-10.125 -1.54692,-0.56247 -2.81254,-0.84372 -3.79688,-0.84375 l -1.26562,0 -0.42188,0.42188 m -36.07031,0 0,0.42187 0.21094,0 0,-0.42187 -0.21094,0 m 3.375,0 0,0.21094 0.84375,0.63281 0,-0.42188 -0.84375,-0.42187 m 1.26562,0 0,0.42187 0.42188,0 0,0.42188 -0.42188,0.63281 0.21094,0 0.42188,-0.63281 0,-0.21094 -0.63282,-0.63281 m 12.44532,0.21094 0,0.21093 0.42187,0 0,-0.21093 -0.42187,0 m 2.10937,0 0,0.21093 c 0.42186,3e-5 0.63279,0.21096 0.63281,0.63282 l 0.21094,0 0,-0.63282 -0.63281,-0.21093 -0.21094,0 m 12.44531,-0.21094 0.21094,0 0.63281,1.05469 -0.84375,0 0,-1.05469 m -30.58593,0.42187 0,0.21094 0.84375,0.63281 0,-0.21093 -0.84375,-0.63282 m 29.32031,0.21094 0,0.63281 0.42187,0.42188 0,-0.42188 -0.21093,-0.63281 -0.21094,0 m -27.42188,0.21094 -0.42187,1.26562 0.21094,0.84375 0.21093,0 -0.21093,-1.05468 0.42187,-1.05469 -0.21094,0 m 36.49219,0 0,0.21094 c 1.40621,0.56252 2.10933,1.33596 2.10938,2.32031 l 0,0.42187 c -5e-5,1.12502 -0.63286,1.68752 -1.89844,1.6875 -0.42192,-0.46873 -0.63285,-0.8906 -0.63281,-1.26562 l -0.42188,0.42187 c 0.0703,1.12502 0.63277,1.68752 1.6875,1.6875 l 1.05469,-0.63281 0.42187,0 0,0.42188 0.21094,0 c 0.3984,1e-5 0.67964,-0.70311 0.84375,-2.10938 -4e-5,-1.35935 -1.05473,-2.41404 -3.16406,-3.16406 l -0.21094,0 m -3.375,0.21094 -3.375,9.91406 -0.42187,0 c -0.3516,1e-5 -0.70316,-0.6328 -1.05469,-1.89844 l -0.21094,0 c -1.40628,1.52345 -2.1094,2.57814 -2.10937,3.16406 0.7734,2.22658 1.54684,3.84376 2.32031,4.85157 2.67184,-4.85155 4.85152,-10.05467 6.53906,-15.60938 l 0,-0.21094 -0.21094,-0.21093 -1.47656,0 m -30.16406,1.6875 c -1e-5,0.70314 0.91405,1.47658 2.74219,2.32031 l 0,0.21094 -0.21094,0.63281 c -0.28126,2e-5 -0.42189,-0.28123 -0.42188,-0.84375 l -0.21093,0 -0.42188,1.47656 -0.21094,-0.21094 -0.21093,0 0,0.21094 0.21093,0.21094 -0.84375,0.42187 0,0.42188 0.42188,0.42187 c 1.21874,-0.84373 1.92186,-1.54685 2.10937,-2.10937 0.42187,2e-5 0.63281,-0.28123 0.63282,-0.84375 l 0.42187,0 0,-0.21094 c -0.72657,2e-5 -1.92188,-0.77342 -3.58594,-2.32031 l 0.21094,-0.63281 0.84375,0 c -1e-5,0.42189 0.28124,0.77346 0.84375,1.05468 0.56249,-0.1406 0.84374,-0.49216 0.84375,-1.05468 l -0.63281,0.42187 -0.21094,0 -1.05469,-1.05469 c -0.84375,3e-5 -1.26563,0.49221 -1.26562,1.47657 m 28.6875,9.07031 -0.21094,-0.21094 -0.21094,0 0.21094,0.21094 0,0.21094 -2.32031,5.0625 -0.21094,-0.21094 -0.21094,0 0,0.21094 0.21094,0.21093 -0.42187,0.42188 0,0.21094 0.21093,0 c 1.61716,-1.92187 3.86715,-7.12499 6.75,-15.60938 l 0.21094,-1.05469 c -0.21098,0.0469 -1.26566,2.8594 -3.16406,8.4375 -0.25785,2e-5 -0.5391,0.70314 -0.84375,2.10938 m -31.21875,-10.33594 0,0.21094 1.05469,0 0,-0.21094 -1.05469,0 m -2.53125,0.21094 -0.84375,2.74219 0,1.6875 0.21094,0 c -1e-5,-2.01561 0.35156,-3.42186 1.05468,-4.21875 l 0,-0.21094 -0.42187,0 m 43.66406,0 0,0.21094 1.26563,1.05468 c 0.70307,-0.18747 1.05464,-0.39841 1.05468,-0.63281 l 0,-0.42187 -1.05468,0.21093 -1.26563,-0.42187 m -20.67187,0.21094 -0.42188,1.05468 0,0.21094 0.21094,0 0.42187,-1.05469 0,-0.21093 -0.21093,0 m -18.98438,0.63281 0,0.42187 0.21094,0 0,-0.42187 -0.21094,0 m -3.375,0.42187 0,0.63282 1.47656,0.84375 0,-0.21094 C 158.92187,181.32397 158.5,180.90209 158.5,180.40988 l -0.21094,0 m 30.16406,0.42188 0,0.21094 0.21094,-0.21094 c 0.70309,0.23439 1.05465,0.65627 1.05469,1.26562 l -0.63281,1.05469 c 0.84371,-0.28123 1.26559,-0.84373 1.26562,-1.6875 -0.18753,-0.7031 -0.67972,-1.05466 -1.47656,-1.05469 l -0.42188,0.42188 m -26.57812,-0.21094 0,1.05469 0.21094,0 0,-1.05469 -0.21094,0 m 39.02344,0.21094 c 0.56245,1.10158 0.8437,2.01564 0.84375,2.74219 l 0,0.21093 -0.84375,0.84375 -0.63282,-0.21093 0,0.42187 0.42188,0.42188 c 0.98433,1e-5 1.47651,-0.56249 1.47656,-1.6875 -5e-5,-1.12498 -0.42192,-2.03905 -1.26562,-2.74219 m -26.15625,1.47656 0,0.21094 c 2.3906,2e-5 3.58591,0.63283 3.58593,1.89844 l 0.42188,2.95312 0.42187,0 0.84375,-2.10937 c -0.28127,1e-5 -0.49221,-0.56249 -0.63281,-1.6875 l 0.21094,0 c 0.28122,1e-5 0.42185,0.21095 0.42187,0.63281 l 0.21094,0 0,-0.21094 c -0.35159,-1.40623 -0.84377,-2.10935 -1.47656,-2.10937 l -0.42188,0.42187 c -0.67971,-0.56248 -1.24221,-0.84373 -1.6875,-0.84375 l -1.89843,0.84375 m -12.65625,-0.42187 0,0.42187 0.21093,0 0,-0.42187 -0.21093,0 m 10.75781,0 0,0.21093 0.21094,0.21094 0.21093,0 0,-0.21094 -0.21093,-0.21093 -0.21094,0 m -5.69531,0.21093 0,0.21094 1.05468,0 0,-0.21094 -1.05468,0 m 1.6875,0.21094 0,0.21094 1.05468,0 0,-0.21094 -1.05468,0 m 1.47656,0.21094 0,0.21094 0.63281,0 0,-0.21094 -0.63281,0 m 10.33594,2.32031 1.47656,-1.89844 0,-0.42187 -0.21094,0 c -0.4219,2e-5 -0.84377,0.77345 -1.26562,2.32031 m -22.99219,-1.6875 c 0.23437,0.56252 0.72656,0.84377 1.47656,0.84375 l 0.63281,-0.21094 0,-0.21093 c -0.98437,1e-5 -1.47656,-0.21092 -1.47656,-0.63282 l 0,-0.21093 -0.21094,0 -0.42187,0.42187 m -1.05469,8.22656 0.42188,3.16407 0.21093,-0.21094 0.63282,0 0,0.42187 -0.63282,0 0.21094,1.47657 0,0.21093 c 0,0.6797 -0.21094,1.38282 -0.63281,2.10938 l 0.21094,0 c 0.84374,0 1.26562,-0.42187 1.26562,-1.26563 l 0,-0.63281 c -0.42188,-0.51562 -0.63281,-1.00781 -0.63281,-1.47656 l 0,-0.21094 0.42187,0.42188 -0.21093,0.21093 1.47656,1.05469 1.26562,0 c 0,-0.28124 0.35156,-0.42187 1.05469,-0.42187 0.42187,-0.32812 0.63281,-0.67969 0.63281,-1.05469 l -1.47656,0.63281 c -1.82813,1e-5 -3.02344,-1.40624 -3.58594,-4.21875 0,-3.32811 1.47656,-5.99998 4.42969,-8.01562 l 2.10938,-0.63282 0,-0.21093 -0.21094,0 c -4.64063,1.2422 -6.96094,4.12501 -6.96094,8.64843 m 14.76563,-8.64843 0,0.21093 0.42187,0 0,-0.21093 -0.42187,0 m 0.63281,0.21093 0,0.21094 0.42187,0 0,-0.21094 -0.42187,0 m -4.21875,0.21094 -0.21094,0.21094 0,0.21094 c 0.39843,1e-5 1.45311,2.53126 3.16406,7.59375 0.37499,0.39844 0.86718,1.52344 1.47657,3.375 0.42185,0 1.96873,-2.67187 4.64062,-8.01563 0.56248,-0.74998 0.84373,-1.38279 0.84375,-1.89844 -2e-5,-0.5156 -0.35158,-0.93748 -1.05469,-1.26562 -0.23439,0.0234 -1.07814,1.57033 -2.53125,4.64062 l -0.84375,0 c -0.70314,-2.9531 -1.47658,-4.42967 -2.32031,-4.42968 l -3.16406,-0.42188 m 4.85156,0 0,0.21094 c 0.4453,2e-5 1.21873,0.42189 2.32031,1.26562 l 0.21094,0 c -2e-5,-0.39842 -0.77346,-0.8906 -2.32031,-1.47656 l -0.21094,0 m 11.8125,7.59375 c 1.03122,3.93751 2.15622,5.90626 3.375,5.90625 1.82809,1.54688 3.86715,2.32032 6.11719,2.32031 l 1.26562,0 c 1.61715,1e-5 3.23434,-0.63281 4.85157,-1.89843 l -0.21094,0 c -1.92192,0.98437 -3.67973,1.47656 -5.27344,1.47656 -3.32816,0 -6.28128,-1.54687 -8.85937,-4.64063 l -0.63282,-3.16406 0,-0.63281 c -3e-5,-1.82811 1.12497,-3.58592 3.375,-5.27344 1.40622,-0.39842 2.10934,-0.74998 2.10938,-1.05469 l 0,-0.42187 -0.21094,0 c -1.33597,2e-5 -2.67191,0.77345 -4.00781,2.32031 -0.98441,1.19533 -1.61722,2.88283 -1.89844,5.0625 m -27.42187,-6.75 0,0.63281 0.42187,1.05469 0.21094,0 0,-0.21094 -0.42188,-1.47656 -0.21093,0 m 37.54687,0 -0.21094,1.05469 c 0.79684,2e-5 1.42965,0.77345 1.89844,2.32031 l -0.84375,0 0,-0.42187 -0.63281,0 c -0.84379,0.37501 -1.26566,1.71095 -1.26563,4.00781 l -0.21093,1.89844 c -0.63285,1.26563 -1.26567,1.89844 -1.89844,1.89843 l 0,0.42188 0.42187,0 0,0.21094 c 0.98434,-0.16406 1.47653,-0.65625 1.47657,-1.47657 l 1.05468,0.63282 0.84375,-1.6875 -0.63281,0 c 0.14059,-0.72656 0.42184,-1.28906 0.84375,-1.6875 l -0.21094,-1.89844 0.21094,-0.21094 0.21094,0 c 0.28121,0.0703 0.56246,0.42189 0.84375,1.05469 l -0.42188,0.84375 0.63282,0.21094 0,1.6875 c -0.42192,1e-5 -0.63286,-0.56249 -0.63282,-1.6875 l -0.21093,0 0,2.32031 0.21093,0 0.84375,-0.63281 0.21094,0.21093 -0.42187,1.26563 0,0.63281 0.63281,0.63281 c 1.26558,-0.74999 1.89839,-1.73436 1.89844,-2.95312 l 0,-0.42188 0.84375,0.42188 0.21093,-0.63281 -0.42187,-1.47657 c -0.2813,1e-5 -0.42192,0.21095 -0.42188,0.63282 L 199,190.74582 l 0,-0.84375 0.42187,0 0,0.42188 0.21094,0 0,-0.21094 -0.21094,-0.63281 0.21094,0 c 0.28121,1e-5 0.42183,0.28126 0.42188,0.84375 l 0.21093,0 0,-0.42188 -0.84375,-1.6875 0.21094,0 1.26563,1.05469 0.84375,0.21094 0.63281,0 0,-0.42188 -0.63281,-0.84375 0,-0.21094 c 0.70307,2e-5 1.05464,-0.35154 1.05468,-1.05468 l -1.05468,0.21093 c -0.32817,2e-5 -1.31255,-0.91404 -2.95313,-2.74218 l -0.63281,0 c -0.28129,1e-5 -0.42192,0.42189 -0.42188,1.26562 l -0.42187,0 c -1.03129,-0.98436 -1.94535,-1.54686 -2.74219,-1.6875 m -21.9375,0.42188 0,0.42187 0.21094,0 0,-0.42187 -0.21094,0 m -10.96875,0.42187 0,0.42188 0.21094,0 0,-0.42188 -0.21094,0 m 11.17969,0.21094 0,0.42187 0.21094,0 0,-0.42187 -0.21094,0 m 8.64844,0.21094 -1.05469,1.05468 0.21094,-0.21093 0.42187,0 -0.84375,1.26562 -0.21094,-0.21094 -0.42187,0 -0.42188,1.6875 0.21094,1.26563 0,0.63281 -0.21094,0.21094 0,0.21094 0.42188,0 -0.84375,0.84375 c -2e-5,-0.28124 -0.21096,-0.42187 -0.63281,-0.42188 l -0.21094,-0.21094 0,-0.21093 0.42187,0 -0.42187,-2.53125 -0.21094,0 -0.21094,2.95312 c -2e-5,1.40626 0.49217,2.25001 1.47657,2.53125 0.18747,-0.70312 0.46872,-1.05468 0.84375,-1.05469 l 0,-0.63281 c 0.23435,-2.95311 1.0781,-4.42967 2.53125,-4.42969 l 0.84375,0.84375 0,0.21094 c -3e-5,0.35158 -0.77347,0.77345 -2.32032,1.26563 l 0,0.21093 c 0.37498,-0.28123 1.28904,-0.49217 2.74219,-0.63281 l 0.42188,-0.84375 -0.42188,-1.05469 0.42188,0 c -0.23441,-1.26561 -0.65628,-1.89842 -1.26563,-1.89843 l -1.05469,0.42187 0,-0.21094 0.21094,-0.84375 -0.21094,-0.21093 -0.21093,0 m 6.75,0.42187 c 0.84371,2e-5 1.40621,0.14064 1.6875,0.42188 l 0,-0.21094 -0.63282,-0.63281 -0.63281,0 -0.42187,0.42187 m -22.14844,-0.21094 -0.21094,0.63282 c 0.0703,0.4922 0.49218,1.0547 1.26563,1.6875 l 0,0.21093 -0.42188,0 c -0.79688,-0.70311 -1.50001,-1.05467 -2.10937,-1.05468 l -0.42188,0 0,0.42187 -2.74219,-0.42187 0,0.21093 0.84375,1.47657 c -0.42188,1e-5 -0.63281,0.14063 -0.63281,0.42187 l 0,0.21094 c 0.0703,0.4922 1.12499,1.0547 3.16406,1.6875 l 0,0.42187 -0.63281,0 -0.84375,-0.21093 -0.84375,0.21093 0,0.21094 0.63281,0 -0.21093,0.63281 -1.47657,0 -0.63281,0.63282 c 0.46875,1e-5 1.17187,0.35157 2.10938,1.05468 l 0.63281,0 0.63281,-0.42187 0.21094,0 0,0.21094 -0.21094,1.05468 c 0.30468,1e-5 1.0078,-0.56249 2.10938,-1.6875 l 0.21093,0 c 1.31249,1e-5 2.08593,0.84376 2.32032,2.53125 l -0.21094,0.63282 0.42187,0 0.21094,-0.63282 c -0.21095,-2.10936 -1.0547,-3.16405 -2.53125,-3.16406 l 0.42188,-0.42187 0.42187,0 0.63281,0.42187 0.84375,-0.42187 0.63282,1.05468 0,0.63282 -0.21094,-0.21094 -0.21094,0 0,0.21094 0.21094,0.84375 0.21094,0 0.42187,-2.10938 -0.21094,0.21094 -0.21093,0 c -2e-5,-0.93749 -1.47658,-1.85155 -4.42969,-2.74219 l 0,-0.42187 0.84375,0 -0.21094,0.21093 0,0.21094 0.21094,-0.21094 0.21094,0 c 2.10936,0.6797 3.16404,1.31251 3.16406,1.89844 l 0.21094,0 0,-0.42187 -1.26563,-1.89844 0,-0.42188 0.42188,0 c 0.0703,0.56252 0.28123,0.84377 0.63281,0.84375 l 0,-0.21093 c -0.98439,-1.45312 -1.47658,-2.36718 -1.47656,-2.74219 l -0.63282,0.42187 -0.21093,0 c -2e-5,-0.77342 -0.35158,-1.33592 -1.05469,-1.6875 m 6.96094,0.21094 0,0.42188 0.21093,0 0,-0.42188 -0.21093,0 m 4.64062,0 c -1.89846,4.28908 -3.58595,7.38282 -5.0625,9.28125 l 0,0.21094 c 0.91405,-0.35156 2.67186,-3.4453 5.27344,-9.28125 l 0,-0.21094 -0.21094,0 m -18.14062,0.21094 -0.21094,0.21094 0,0.42187 0.21094,0 0.21093,-0.63281 -0.21093,0 m 28.89843,0.21094 0,0.42187 c 0.3281,0.84377 0.60935,1.26564 0.84375,1.26563 l 0,-0.42188 -0.63281,-1.26562 -0.21094,0 m 11.60157,0.42187 0.21093,0 0.63282,0.63281 0,0.21094 -0.84375,-0.84375 m -26.57813,0.42188 0,0.42187 0.42188,0 -0.42188,-0.42187 m -14.55469,0.21093 c 0,0.28127 0.21094,0.42189 0.63282,0.42188 l 0.63281,0 0,-0.21094 -1.26563,-0.21094 m 39.44532,-0.21093 0.21093,0 0,0.84375 -0.84375,0 0,-0.21094 0.63282,-0.63281 m -20.46094,0.63281 c 0.42185,0.32814 0.63279,1.2422 0.63281,2.74219 l 0.21094,0 0,-1.89844 -0.63281,-0.84375 -0.21094,0 m 18.14062,0 0.84375,0.63281 -0.63281,0 0.21094,0.21094 0,0.63281 -1.26563,-0.21094 0,-0.42187 c 0.42184,1e-5 0.63278,-0.14061 0.63282,-0.42188 l -0.42188,0 c -4e-5,-0.28123 0.2109,-0.42186 0.63281,-0.42187 m 2.53125,0.21094 0.84375,0 0,0.21093 -0.42187,0.42188 -0.42188,-0.42188 0,-0.21093 m -40.07812,0.42187 0,1.6875 c 0,0.72657 0.35156,1.28907 1.05469,1.6875 l 0.42187,0 c 0.84375,1e-5 1.26562,-0.35155 1.26563,-1.05469 l -0.21094,0.21094 -1.05469,0 c -0.84375,-0.39842 -1.26563,-1.24217 -1.26562,-2.53125 l -0.21094,0 m 4.64062,0.42188 1.05469,0.42187 0,0.42188 -0.21094,0 -0.63281,-0.21094 -0.21094,0.21094 -0.42187,-0.63282 0.21094,-0.21093 0.21093,0 m 1.26563,0.63281 0.63281,0 0,0.21094 -0.42187,0.42187 -0.21094,0 0,-0.63281 m 36.70312,1.47656 0.63282,0 0,-0.42187 -0.21094,0 -0.42188,0.42187 m -20.46093,0 -0.21094,1.05469 0.84375,0.63281 1.26562,0 0.42188,-0.42187 -1.05469,0.21093 -0.42187,0 c -0.4219,1e-5 -0.63284,-0.49217 -0.63282,-1.47656 l -0.21093,0 m 1.89843,0 0,0.63281 0.42188,0 0,-0.21093 -0.42188,-0.42188 m -6.53906,0.63281 c 0.56248,0.56251 0.84373,1.0547 0.84375,1.47657 l 0.21094,0 0,-1.05469 -0.42188,-0.42188 -0.63281,0 m 7.59375,0 0,0.21094 0.42188,0 0,-0.21094 -0.42188,0 m 17.71875,0.21094 -0.21094,0.21094 0,0.21094 0.63282,0 -0.42188,-0.42188 m -37.33594,0.21094 0.63282,0 0,0.21094 -0.42188,0.42187 -0.21094,0 0,-0.63281 m 0.84375,0 0.42188,0 0.42187,0.42187 -0.21093,0.21094 -0.21094,0 -0.42188,-0.42187 0,-0.21094 m 1.26563,0.21094 0.21094,0 0,0.42187 -0.63282,0 0.42188,-0.42187 m 12.02344,0.21093 1.26562,0 c -2e-5,0.28126 -0.21096,0.42189 -0.63281,0.42188 l 0,0.21094 0.42187,0 0,0.21093 -0.42187,0.42188 -0.21094,0 -0.42187,-0.42188 0,-0.21093 0.42187,0 -0.42187,-0.63282 m 11.8125,2.74219 c -4e-5,1.61719 1.3359,2.67188 4.00781,3.16406 l 0.84375,0 0,-0.21093 c -2.95316,-0.30469 -4.42972,-1.28906 -4.42969,-2.95313 l 0,-0.21094 c -3e-5,-0.98436 0.49215,-1.47655 1.47656,-1.47656 l 0,-0.42187 -0.21093,0 c -1.12504,1e-5 -1.68754,0.70313 -1.6875,2.10937 m 10.75781,-2.10937 0,0.21093 0.63281,0 0,-0.21093 -0.63281,0 m -20.46094,1.47656 -0.63281,-0.21094 0,0.63281 0.63281,2.10938 -0.42187,0.42187 -0.42188,0 c -0.2344,1e-5 -0.51565,-0.49218 -0.84375,-1.47656 -0.56252,1e-5 -0.84377,-0.21093 -0.84375,-0.63281 l 0.42188,-0.42188 c 0.28122,1e-5 0.42185,0.21095 0.42187,0.63282 l 0.21094,0 0,-0.42188 c -0.67971,-0.56249 -1.24221,-0.84374 -1.6875,-0.84375 l -0.21094,0.21094 0,0.21094 0.42188,0 0,0.21093 -0.63282,0.21094 c -0.18752,-0.56249 -0.82033,-0.84374 -1.89843,-0.84375 -0.37502,1e-5 -0.65627,0.4922 -0.84375,1.47656 l 0.21093,0.21094 0.21094,0 0.63281,-0.63281 0.42188,0 c 2.0156,2.39063 3.63279,3.58594 4.85156,3.58594 0.84373,0 1.33591,-0.5625 1.47656,-1.6875 l 0,-0.21094 -0.21093,-1.89844 c 0.18747,-0.58593 0.53903,-1.0078 1.05468,-1.26562 l 0.63282,0 c 0.56247,0.28125 0.84372,0.63282 0.84375,1.05468 l 0.21093,0 0,-0.63281 c -0.58596,-0.56249 -1.14846,-0.84374 -1.6875,-0.84375 l -0.21093,0 c -0.58597,1e-5 -1.28909,0.35157 -2.10938,1.05469 m 19.82813,-0.84375 -0.21094,0.21094 0,0.21093 0.21094,0.21094 0.42187,0 0,-0.21094 -0.42187,-0.42187 m -41.13282,0.42187 0,0.42188 1.05469,0.21094 1.47656,-0.42188 0.21094,0.21094 0.21094,0 0,-0.21094 -0.63281,-0.21094 -1.89844,0.42188 -0.42188,-0.42188 m 43.875,-0.21093 0.21094,0 -0.21094,1.05468 -0.84375,0 0.42188,-0.42187 0,-0.21094 0.42187,-0.42187 m -7.80468,0.84375 0,0.42187 0.63281,0 0,-0.42187 -0.63281,0 m -27,0.21093 c -2e-5,1.4297 -0.70314,2.41407 -2.10938,2.95313 -0.72657,0.42188 -1.4297,0.63281 -2.10937,0.63281 l -0.42188,0 c -1.96875,-0.375 -2.95313,-0.72656 -2.95312,-1.05469 l -0.63282,0.21094 0,0.21094 c 1.40625,0.70313 2.46093,1.05469 3.16407,1.05469 l 1.47656,0 c 1.54686,0 2.81249,-0.84375 3.79687,-2.53125 l 0,-1.47657 -0.21093,0 m 13.28906,-0.21093 0,1.6875 -0.63281,-0.63282 c 0.18747,-0.70311 0.39841,-1.05468 0.63281,-1.05468 m 1.26562,1.47656 0,0.63281 0.42188,0 0.21094,-0.21094 0.21093,0 -0.21093,-0.21093 0,-0.21094 0.84375,-1.05469 -0.21094,0 -1.26563,1.05469 m 10.96875,-0.63281 -0.21093,0.21093 0,0.21094 0.21093,0 0.21094,-0.21094 0,-0.21093 -0.21094,0 m -28.47656,0.21093 0.63281,0.84375 0,0.21094 -0.84375,1.05469 0.21094,0 c 0.84374,-0.32812 1.26562,-0.82031 1.26563,-1.47656 l -0.21094,-0.63282 -1.05469,0 m 29.32031,0 0,0.42188 0.42188,0 0,-0.42188 -0.42188,0 m -22.78125,0.84375 0,1.26563 0.21094,0 0.21094,-0.21094 0.21094,0 -0.21094,-0.21094 0,-0.63281 0.63281,0 0,-0.21094 -1.05469,0 m 12.23438,0.84375 0,0.63282 0.63281,0.63281 0.42188,0 1.47656,-0.21094 0.21094,0.21094 0,-0.42188 -0.42188,0 0,-0.21093 -1.05469,0.21093 -0.42187,0 -0.42188,-0.42187 0,-0.21094 c -2e-5,-0.32812 0.35154,-0.53906 1.05469,-0.63281 l 2.74219,0.84375 0.21094,0 0,-0.21094 -3.16407,-1.05469 c -0.84377,0.28126 -1.26565,0.56251 -1.26562,0.84375 m -13.5,-0.63281 0,0.21094 0.42187,0 0,-0.21094 -0.42187,0 m 31.21875,-0.21094 0.42187,0 0,1.26563 -0.42187,0 0,-1.26563 m -31.85156,0.42188 0,0.21094 0.42187,0 0,-0.21094 -0.42187,0 m 4.85156,0.21094 0.42187,0.42187 0.21094,-0.21094 0,-0.21093 -0.63281,0 m -6.75,0.84375 0,0.21093 0.42187,0 c -1e-5,-0.28124 0.21093,-0.42187 0.63282,-0.42187 l 0.21093,-0.21094 0,-0.21094 -1.26562,0.63282 m 5.0625,-0.63282 0,0.21094 1.05469,0.63281 0.42187,0 0,-0.21093 -1.47656,-0.63282 m -3.58594,0.63282 0.84375,0.63281 0.21094,0 0,-0.42188 -0.63281,-0.63281 -0.42188,0.42188 m 6.53906,-0.42188 0,0.21094 0.42188,0 0,-0.21094 -0.42188,0 m -13.07812,0.21094 0,0.21094 1.6875,0 0,-0.21094 -1.6875,0 m 17.92969,-0.21094 0,0.42188 -0.42188,0.42187 -0.63281,0 0,-0.42187 1.05469,-0.42188 m -21.51563,0.42188 0,0.42187 0.21094,0 0,-0.42187 -0.21094,0 m 16.03125,0.42187 0,0.42188 0.21094,0 0.42187,-0.42188 -0.63281,0"
         style="font-size:72px;font-variant:normal;font-stretch:normal;font-family:Goudy Initials;-inkscape-font-specification:Goudy Initials"
         id="path4627" />
    </g>
  </g>
</svg>
