<?xml version="1.0" encoding="UTF-8" standalone="no"?>
<!-- Created with Inkscape (http://www.inkscape.org/) -->

<svg
   xmlns:dc="http://purl.org/dc/elements/1.1/"
   xmlns:cc="http://creativecommons.org/ns#"
   xmlns:rdf="http://www.w3.org/1999/02/22-rdf-syntax-ns#"
   xmlns:svg="http://www.w3.org/2000/svg"
   xmlns="http://www.w3.org/2000/svg"
   xmlns:sodipodi="http://sodipodi.sourceforge.net/DTD/sodipodi-0.dtd"
   xmlns:inkscape="http://www.inkscape.org/namespaces/inkscape"
   width="56.734375"
   height="56.734375"
   id="svg2"
   version="1.1"
   inkscape:version="0.48.5 r10040"
   sodipodi:docname="w.svg">
  <defs
     id="defs4" />
  <sodipodi:namedview
     id="base"
     pagecolor="#ffffff"
     bordercolor="#666666"
     borderopacity="1.0"
     inkscape:pageopacity="0"
     inkscape:pageshadow="2"
     inkscape:zoom="3.959798"
     inkscape:cx="43.744226"
     inkscape:cy="5.617196"
     inkscape:document-units="px"
     inkscape:current-layer="layer1"
     showgrid="false"
     fit-margin-top="2"
     fit-margin-left="2"
     fit-margin-right="2"
     fit-margin-bottom="2"
     inkscape:window-width="1366"
     inkscape:window-height="733"
     inkscape:window-x="0"
     inkscape:window-y="0"
     inkscape:window-maximized="1"
     showborder="true"
     borderlayer="false" />
  <metadata
     id="metadata7">
    <rdf:RDF>
      <cc:Work
         rdf:about="">
        <dc:format>image/svg+xml</dc:format>
        <dc:type
           rdf:resource="http://purl.org/dc/dcmitype/StillImage" />
        <dc:title></dc:title>
      </cc:Work>
    </rdf:RDF>
  </metadata>
  <g
     inkscape:label="Layer 1"
     inkscape:groupmode="layer"
     id="layer1"
     transform="translate(-152.28125,-146.34738)">
    <g
       style="font-size:40px;font-style:normal;font-weight:normal;line-height:125%;letter-spacing:0px;word-spacing:0px;fill:#ffffff;fill-opacity:1;stroke:none;font-family:Sans"
       id="flowRoot2985">
      <path
         d="m 154.28125,148.34738 52.73437,0 0,52.73438 -52.73437,0 0,-52.73438 m 1.05469,1.05469 0,50.625 50.625,0 0,-50.625 -50.625,0 m 0.42187,0.63281 49.57031,0 0,49.57032 -49.57031,0 0,-49.57032 m 45.14063,0.42188 -0.63282,1.05469 0,0.21093 0.21094,0 c 0.0703,-0.56245 0.28121,-0.8437 0.63281,-0.84375 l 0.63282,0.21094 0,-0.42187 -0.84375,-0.21094 m -44.29688,0.84375 0,0.21094 0.63281,-0.42188 c 0.42188,5e-5 0.63281,0.2813 0.63282,0.84375 l 0.21093,0 c -0.98437,3.39849 -1.47656,5.92973 -1.47656,7.59375 l 0,1.26563 c 0,4.17191 2.60156,7.5469 7.80469,10.125 l 1.26562,0.21093 0.63282,0 0,-0.42187 c -1.4297,3e-5 -3.39845,-1.19528 -5.90625,-3.58594 -1.26563,-1.61715 -1.89844,-3.23434 -1.89844,-4.85156 l 0,-1.47656 c 0,-2.01559 1.26562,-3.2109 3.79687,-3.58594 l 0.42188,0 0,-0.21094 -0.42188,-0.42187 -1.47656,0 -0.21094,0.21093 -0.21093,0 0,-0.84375 c -0.8672,5e-5 -1.78126,1.12505 -2.74219,3.375 l 0,0.42188 0.21094,0.63281 -0.21094,0.21094 -0.21094,0 c -0.28125,4e-5 -0.42188,-0.2109 -0.42187,-0.63281 -1e-5,-1.59371 0.84374,-3.63277 2.53125,-6.11719 l 0,-0.84375 -0.84375,0.63281 -0.21094,-1.47656 0.21094,0 c -0.23438,-0.98433 -0.51563,-1.47651 -0.84375,-1.47656 l -0.63282,0 -0.63281,0.63281 m 3.16406,-0.21094 0.63282,0 0,1.05469 -0.21094,0.21094 0,0.21093 0.21094,0 0.42187,-1.26562 0,-0.21094 -0.42187,-0.42187 -0.21094,0 -0.42188,0.42187 m 1.05469,2.32031 0.63281,0 c 1.92187,-1.4062 3.89062,-2.10932 5.90625,-2.10937 1.89843,5e-5 3.65624,0.70317 5.27344,2.10937 -2e-5,0.98443 0.49217,1.9688 1.47656,2.95313 l 0,1.05469 -0.42187,0.42187 -0.63281,0 c -0.37502,5e-5 -0.58596,-0.35152 -0.63282,-1.05469 l -0.42187,0 0,0.63282 c -2e-5,1.12504 0.63279,1.68754 1.89844,1.6875 0.35154,4e-5 0.91404,-0.49215 1.6875,-1.47657 l 0.21093,0 0,0.42188 0.42188,-0.42188 0,-0.63281 c -0.84377,5e-5 -1.26565,-0.2812 -1.26563,-0.84375 l 0.21094,-0.21094 0.21094,0 0,0.21094 0.21094,-0.21094 0.21093,0 0.21094,0.21094 0.21094,0 0,-0.21094 c -0.9844,-0.58589 -1.47658,-1.00776 -1.47656,-1.26562 l 0,-0.21094 c -2e-5,-0.2812 0.21091,-0.42183 0.63281,-0.42187 l 1.47656,1.26562 1.26563,0 -0.21094,-1.05469 0.21094,0 c 0.84372,5e-5 1.33591,-0.63276 1.47656,-1.89843 -3e-5,-0.91402 -0.63284,-1.47652 -1.89844,-1.6875 l -0.21094,0 -0.42187,0.42187 c 0.79685,5e-5 1.28904,0.35161 1.47656,1.05469 -0.14065,0.56255 -0.56252,0.8438 -1.26562,0.84375 -0.70315,5e-5 -1.05471,-0.14058 -1.05469,-0.42188 l -0.63281,0.21094 -1.05469,-0.42187 0,-0.42188 0.42187,0 0,-0.21094 -0.84375,0 -0.63281,0.84375 c -2.06251,-1.26557 -4.17189,-1.89838 -6.32812,-1.89843 -1.89845,5e-5 -3.93751,0.77348 -6.11719,2.32031 l -0.21094,0.21094 0,0.21093 m 19.61719,-1.26562 c 0.35154,1.54692 1.12497,2.32036 2.32031,2.32031 -3e-5,0.2813 -0.49221,0.56255 -1.47656,0.84375 0.23435,0.56255 0.72653,0.8438 1.47656,0.84375 l 1.26563,0 0,-0.21094 -0.42188,0 0,-0.42187 c 0.63279,-0.0234 1.2656,-0.30464 1.89844,-0.84375 l 0,0.84375 -1.05469,0.21094 0,0.21093 0.42188,0 2.53125,-2.10937 0.21093,0 -0.63281,1.89844 c -3e-5,1.03129 0.49216,1.87504 1.47656,2.53125 l 0.21094,-0.84375 1.05469,0.63281 c 0.98434,4e-5 1.47653,-0.42183 1.47656,-1.26563 l -0.21094,-0.21093 -0.21093,0.21093 -0.84375,0 -1.05469,-1.05468 0,-0.21094 c -3e-5,-2.43745 1.8984,-3.8437 5.69531,-4.21875 l 0.42188,0 c 1.89839,5e-5 3.6562,0.77349 5.27343,2.32031 l -0.21093,0 -2.32032,-1.26562 -0.21093,0 0,0.21093 c 1.0312,0.37505 2.1562,1.00786 3.375,1.89844 l 0,-0.21094 -0.63282,-0.63281 0.21094,0 0.21094,0.21094 0.21094,0 0,-0.21094 c -5e-5,-0.89057 -1.47661,-1.80464 -4.42969,-2.74219 l -2.95313,-0.21093 c -1.85159,5e-5 -5.08597,1.19536 -9.70312,3.58593 -1.40628,-0.39839 -2.1094,-0.82026 -2.10938,-1.26562 l 0,-1.05469 0.42188,-0.42187 0.42187,0 0.42188,0.42187 0,1.05469 1.47656,0 c 0.98435,5e-5 1.47653,-0.49214 1.47656,-1.47656 l 0,-0.21094 -0.21093,0 c -3e-5,0.56255 -0.3516,1.05474 -1.05469,1.47656 l -0.63281,0 -0.63282,-0.42187 0.21094,-0.21094 0,-0.84375 -0.63281,-0.63281 -0.63281,0 c -0.93753,5e-5 -1.57034,0.49223 -1.89844,1.47656 m 22.14844,0.84375 -1.05469,-0.42188 0,1.05469 c -5e-5,0.70317 0.70308,1.68755 2.10937,2.95313 l 0,1.05468 c -0.32817,-0.0468 -0.67973,-0.67964 -1.05468,-1.89843 l -2.10938,-0.84375 c -4e-5,0.56254 -0.14067,0.84379 -0.42187,0.84375 l -0.21094,0 0,1.05468 0.84375,-0.42187 c 1.68745,0.39848 2.5312,2.01567 2.53125,4.85156 l -1.05469,4.85156 0,0.42188 0.21094,0 c 1.4062,-1.94528 2.10932,-3.7734 2.10937,-5.48438 -5e-5,-1.45308 -0.42192,-4.4062 -1.26562,-8.85937 l 0.21094,-0.21094 0.84375,0 0,0.42188 0.21093,0 0,-0.84375 -0.42187,-0.63282 c -0.98442,5e-5 -1.47661,0.49224 -1.47656,1.47657 l 0,0.63281 m -11.60157,-1.6875 0,0.21094 -0.21093,0.63281 -0.21094,0 -0.21094,-0.63281 0.63281,-0.21094 m -23.625,0.42187 0,0.42188 c 0.60937,5e-5 1.03124,0.2813 1.26563,0.84375 l -0.84375,0.21094 0,0.21093 0.84375,0 1.05469,-0.21093 0,-0.42188 c -0.65627,-0.70307 -1.4297,-1.05464 -2.32032,-1.05469 m 25.3125,0.84375 0,0.63282 1.05469,0.21093 1.05469,0 0,-0.21093 c -0.42192,4e-5 -0.63285,-0.14058 -0.63281,-0.42188 l 0,-0.21094 0.42187,-0.42187 1.26563,0 1.26562,0.21094 0.21094,0 0,-0.21094 -2.10938,-0.42188 -0.63281,0 c -1.26566,0.25787 -1.89847,0.53912 -1.89844,0.84375 m -17.50781,-0.63281 0,0.21094 0.21094,0.21094 0.21094,0 0,-0.21094 -0.21094,-0.21094 -0.21094,0 m 14.34375,-0.21094 0.84375,0 0,0.21094 -0.42187,0.42188 -0.42188,-0.42188 0,-0.21094 m -0.63281,0.21094 0.63281,0.21094 0,0.63281 -0.42187,0 -0.42188,-0.42187 0.21094,-0.21094 0,-0.21094 m 11.8125,0.21094 0,0.21094 0.21094,0.21093 0.21093,0 0,-0.21093 -0.21093,-0.21094 -0.21094,0 m -44.08594,0.21094 0,0.42187 0.21094,0.21094 0,0.21094 -0.21094,0.21093 0,0.42188 0.21094,0 0.21094,-0.63281 -0.21094,-0.84375 -0.21094,0 m 7.80469,0.63281 0,0.21094 0.42187,0 0,-0.21094 -0.42187,0 m 9.70312,-0.21094 0.21094,0.63281 0.21094,-0.21093 0.84375,0 0,0.21093 c -0.56252,0.4688 -0.84377,0.89068 -0.84375,1.26563 l -0.63281,0 0,-0.42188 0.21093,-0.21093 0,-0.21094 -0.21093,0.21094 -0.42188,0 c 0.0937,-0.84371 0.30467,-1.26558 0.63281,-1.26563 m 14.13282,0 0.42187,0.42188 0,0.21093 -0.42187,0.42188 -0.42188,-0.63281 0.42188,-0.42188 m 8.4375,0.21094 0,0.21094 0.42187,0 0,-0.21094 -0.42187,0 m -17.92969,0 0.42187,0 0,0.21094 -0.63281,0.63281 -0.42187,0 0.63281,-0.63281 0,-0.21094 m 22.99219,0 0.21093,0 0.63282,1.6875 -0.21094,0 c -0.42192,-0.14058 -0.63286,-0.56245 -0.63281,-1.26563 l 0,-0.42187 m -33.75,1.05469 -7.38282,0 c 0,0.28129 0.91406,0.70317 2.74219,1.26562 l 15.1875,18.5625 0,0.42188 c -0.49221,0.30471 -2.03908,2.06252 -4.64062,5.27343 0.42185,3e-5 0.63279,0.56253 0.63281,1.6875 3.23435,-3.25779 4.85154,-5.15622 4.85156,-5.69531 l 0.63281,0 1.47657,1.6875 0.21093,0 1.26563,-3.79687 -0.84375,-0.84375 6.75,-7.80469 0,-0.21094 -1.26563,-1.05469 -6.53906,7.38282 c -7.87502,-8.74215 -11.81251,-13.59371 -11.8125,-14.55469 0.37499,-1.4062 1.07811,-2.10933 2.10938,-2.10938 l 0,-0.21093 -0.21094,-0.21094 -3.16406,0.21094 m 25.10156,0 -2.32031,0 0,0.42187 c 1.82808,0.56255 2.74215,1.12505 2.74218,1.6875 -3e-5,0.70317 -1.54691,2.81254 -4.64062,6.32813 l 1.47656,0.84375 c 1.73434,-2.29684 3.14059,-3.91402 4.21875,-4.85157 l 0.21094,0.21094 0,0.21094 -4.00781,4.42969 0,0.21093 0.21093,0 6.75,-7.59375 c 1.26559,-0.49214 1.8984,-0.98432 1.89844,-1.47656 l 0,-0.21094 -0.21094,0 c -4e-5,0.37505 -0.84379,1.00786 -2.53125,1.89844 -4e-5,0.2813 -0.63285,1.05473 -1.89843,2.32031 l 0,0.21094 -0.42188,-0.42187 c 1.73434,-1.96871 3.2109,-3.30464 4.42969,-4.00782 l -0.21094,-0.21093 0,-0.21094 -5.69531,0.21094 m -21.51563,0.42187 -1.6875,1.05469 0,0.84375 c -1e-5,0.86723 3.23436,4.94535 9.70313,12.23437 l 1.26562,1.89844 0.42188,0 c -0.28128,-0.79684 -1.5469,-2.41403 -3.79688,-4.85156 l 0.21094,-0.21094 -0.21094,0 -0.21093,0.21094 -3.16407,-4.00781 0.21094,-0.21094 -0.21094,0 -0.21093,0.21094 -3.79688,-5.0625 0,-0.42188 1.47656,-1.26562 0.21094,-0.21094 0,-0.21094 -0.21094,0 m -12.23437,0.21094 -0.21094,0.63281 0.21094,0 0.21094,-0.21094 0,-0.42187 -0.21094,0 m 1.47656,0.21094 c 0,0.32817 0.63281,0.60942 1.89844,0.84375 l 0.21094,0 0,-0.21094 -2.10938,-0.63281 m 30.16406,0 0,0.42187 1.89844,1.05469 0,-0.21094 c -4e-5,-0.4687 -0.63285,-0.89058 -1.89844,-1.26562 m -11.60156,0.42187 -0.21094,1.26563 0.63282,0 0,0.84375 -1.05469,3.16406 0,0.21094 0.21094,0.21093 0,-0.21093 0.21093,-0.21094 -0.21093,-0.21094 0,-0.21094 c -3e-5,-0.56245 0.28122,-0.98433 0.84375,-1.26562 l 0,-0.42188 0.42187,0 0,0.42188 0.21094,-0.21094 0.21094,0 0.21093,0.63281 0.21094,-0.21093 0.21094,0 0.21094,0.63281 0.21093,0 0,-2.32031 -0.63281,-0.63282 0,0.63282 -0.42187,0 c -3e-5,-0.70308 -0.35159,-1.40621 -1.05469,-2.10938 l -0.21094,0 m 5.69531,1.6875 0,0.21094 0.21094,0 c 0.56247,-0.21089 0.84372,-0.42183 0.84375,-0.63281 l 0,-0.21094 -1.05469,0.63281 m -7.38281,-0.42187 c -2e-5,0.70317 -0.28127,1.05473 -0.84375,1.05468 l 0.42188,0.42188 c 0.42185,4e-5 0.63279,-0.28121 0.63281,-0.84375 l 0,-0.63281 -0.21094,0 m 1.26563,0.21093 -0.21094,0.84375 c 0.28123,5e-5 0.42185,-0.21089 0.42187,-0.63281 l 0,-0.21094 -0.21093,0 m 18.98437,0 -0.21094,1.05469 -0.21093,-0.21094 -0.21094,0 0,0.21094 0.21094,0.21094 c -0.70317,0.3516 -1.05473,0.9141 -1.05469,1.6875 l 0.21094,0.63281 -1.05469,-0.21094 -0.21094,0 -0.63281,0.63282 0,0.21093 c -4e-5,0.28129 0.42183,0.49223 1.26562,0.63282 l 0.21094,1.26562 -1.05469,1.89844 c 0.98434,-0.42184 1.47653,-1.05465 1.47657,-1.89844 l 0.63281,0 0,0.21094 -0.84375,1.47656 0.21094,0 c 0.98433,-1.07809 1.47652,-2.20308 1.47656,-3.375 l 0.63281,0 c -4e-5,0.89067 -0.42192,1.94535 -1.26562,3.16406 l 0.21093,0 1.47657,-2.32031 0.21093,0.21094 0,0.21094 -0.42187,0.84375 0.21094,0 c 1.12495,-1.03121 1.9687,-2.6484 2.53125,-4.85157 l -0.42188,0 -1.47656,1.26563 c -5e-5,-1.21871 -0.56255,-2.20308 -1.6875,-2.95313 l -0.21094,0 m -11.17969,0.63282 -0.21093,1.05468 0,1.26563 c -3e-5,2.62504 1.82809,4.45316 5.48437,5.48437 l 0.21094,0 2.95312,-0.84375 0,-0.42187 -0.63281,-0.21094 c -0.84379,0.56254 -1.4766,0.84379 -1.89844,0.84375 l -1.05468,0 0,-0.21094 c 1.12496,4e-5 2.03902,-0.49215 2.74218,-1.47656 l 0,-0.63281 -0.42187,-0.42188 -0.21094,0 -0.42187,0.42188 0.63281,0.42187 c -0.28129,0.98442 -1.19535,1.4766 -2.74219,1.47657 -2.81253,-1.03122 -4.21878,-2.57809 -4.21875,-4.64063 l -0.21094,-0.21094 0,-0.21093 0.21094,-0.84375 0,-0.84375 -0.21094,0 m -23.20312,0.21093 -0.21094,1.05469 0,1.26563 0.21094,1.05468 0.21094,0 0,-0.42187 0.21093,0 0.21094,0.21094 0.21094,0 0.42187,-2.10938 -1.05468,-1.05469 -0.21094,0 m 18.77344,1.47657 0,0.42187 0.63281,0.21094 c -3e-5,-0.28121 0.35153,-0.42183 1.05469,-0.42188 -3e-5,-0.8437 0.49215,-1.26558 1.47656,-1.26562 l 0,0.42187 c -0.56253,5e-5 -0.98441,0.63286 -1.26563,1.89844 l -0.84375,-0.42187 -0.21093,1.05468 0,0.21094 0.63281,1.6875 -0.21094,0.21094 0.42188,0 c -3e-5,-0.42184 0.14059,-0.63277 0.42187,-0.63281 l 0.21094,0.84375 -1.05469,0.42187 -0.63281,-0.21094 0,-0.21093 0.42187,0 0,-0.21094 c -0.46877,4e-5 -1.03127,-0.98434 -1.6875,-2.95313 l -0.21093,0 0,0.42188 -0.21094,0 -1.26563,-0.84375 -0.42187,0.42187 0,1.05469 0.42187,0.63281 0,0.42188 -0.63281,0 0,0.21094 c 1.12498,0.98441 1.68748,1.75785 1.6875,2.32031 l -0.63281,0.21094 c -0.77346,-1.57028 -1.47659,-2.41403 -2.10938,-2.53125 l -0.42187,0.42187 -1.05469,0 0,-0.42187 c 0.7031,4e-5 1.05467,-0.2109 1.05469,-0.63282 l 0.21094,0.21094 0.84375,0 -0.63282,-0.63281 -0.63281,0 c -2e-5,0.56254 -0.35158,0.84379 -1.05469,0.84375 l 0,0.42187 -0.21093,0.21094 0.21093,0.21094 c 0.30467,4e-5 1.57029,1.12504 3.79688,3.375 l 0.84375,0.21094 c 0.42185,-0.0937 0.7031,-0.37497 0.84375,-0.84375 l -0.21094,0.21093 -0.84375,0 c -2e-5,-0.2109 0.28123,-0.42184 0.84375,-0.63281 l 0,-0.42187 0.42188,0 c -3e-5,0.60941 0.49216,1.31253 1.47656,2.10937 l 0.21094,-0.63281 -0.63282,-2.10938 1.6875,0.42188 0.63282,-0.84375 0,-0.21094 c -0.28128,4e-5 -0.42191,-0.2109 -0.42188,-0.63281 l -0.21094,0.21094 -0.21093,0 0,-1.05469 0.21093,0.21094 0.21094,0 0,-0.63282 0.21094,0.21094 0.21094,0 -0.21094,-1.47656 0,-0.63281 0.21094,-2.10938 c -0.7266,5e-5 -1.35941,0.21098 -1.89844,0.63281 l -0.42188,0 0,-0.84375 -0.21093,0 c -0.56253,0.23442 -0.84378,0.72661 -0.84375,1.47657 m -3.79688,-1.26563 -0.42187,1.89844 0,0.63281 0.21093,0 0.63282,-2.53125 -0.42188,0 m -16.875,0.63281 -0.21094,-0.21093 -0.63281,0 0,0.21093 c 0.5625,1.45317 1.12499,2.29692 1.6875,2.53125 l -0.21094,-0.21093 0,-0.42188 0.42188,0 c -0.1172,-1.54683 -0.32813,-2.32027 -0.63281,-2.32031 l -0.42188,0.42187 m 25.94531,0.42188 0,0.63281 c 0.11716,0.84379 0.53903,1.26567 1.26563,1.26563 0.56246,-0.2109 0.84371,-0.42184 0.84375,-0.63282 l 0,-0.63281 -0.63281,0.42188 -0.63282,0 c -0.32815,4e-5 -0.53909,-0.35152 -0.63281,-1.05469 l -0.21094,0 m -11.8125,0.21094 -0.42187,3.375 0.42187,0 0.42188,-2.74219 0,-0.63281 -0.42188,0 m 22.99219,0 0,0.63281 -0.42187,0 0,-0.21094 0.42187,-0.42187 m -33.96094,1.89843 0.63282,-0.21093 -0.21094,-0.21094 0,-0.21094 0.42187,0 0,0.42188 -0.21093,0.21093 0,0.21094 0.21093,0 c 0.56249,-0.14058 0.84374,-0.56246 0.84375,-1.26562 l -0.42187,-0.42188 -0.42188,0 c -0.37501,4e-5 -0.65626,0.49223 -0.84375,1.47656 m -5.27343,0.42188 c -1e-5,0.63285 0.77343,0.98441 2.32031,1.05469 l 0.42187,0 0,-0.21094 -0.63281,0 0,-0.42188 0.42188,0 -1.89844,-2.10937 c -0.28126,4e-5 -0.49219,0.56254 -0.63281,1.6875 m 14.34375,-1.47656 0,0.42187 0.42187,0.42188 0.42188,0 0.42187,-0.42188 -1.26562,-0.42187 m 24.25781,0.21093 0.42187,0 0,0.21094 -0.42187,0.42188 0,-0.63282 m -40.71094,0.63282 0.21094,0 0,0.63281 -0.63281,0 0,-0.21094 0.42187,-0.42187 m 6.96094,0.42187 0.42187,1.05469 -0.42187,0 0.21094,0.21094 -0.21094,0.21093 0,0.21094 0.42187,0.42188 0.21094,0 -0.21094,-0.21094 0,-0.21094 0.21094,-0.21094 0,-0.63281 -0.21094,-0.63281 0.42188,0 0,-0.21094 -0.84375,0 m 1.47656,0.84375 0,0.21094 0.84375,0 c -1e-5,0.28129 -0.21095,0.42191 -0.63281,0.42187 l 0,0.21094 0.42187,0 c 0.98437,-0.14058 1.47655,-0.35152 1.47657,-0.63281 l -0.63282,-1.05469 -0.21093,0 -1.26563,0.84375 m -3.16406,-0.21094 0.21094,0.21094 0,0.21094 -0.21094,0.21094 0.21094,0 0.63281,-0.84375 -0.21094,0 -0.63281,0.21093 m -5.48438,-0.21093 0.63282,0.63281 -0.63282,0 0,-0.63281 m 23.625,0 0.21094,0 0,0.42187 -0.21094,0 0,-0.42187 m 0.21094,0.42187 c 0.8906,1.17191 1.59372,1.87504 2.10938,2.10938 l 0,0.42187 -0.42188,0 c -0.7969,-0.5859 -1.3594,-1.21871 -1.6875,-1.89844 l 0,-0.63281 m 4.64063,0.63281 0,0.63282 0.21093,0 0,-0.63282 -0.21093,0 m 9.91406,0 -0.63281,0.84375 0.21093,0 0.63282,-0.84375 -0.21094,0 m -35.22656,0.63282 -0.84375,-0.21094 0,0.21094 c 0.46874,0.98441 0.89062,1.4766 1.26562,1.47656 0.98437,4e-5 1.68749,-0.42184 2.10938,-1.26563 l -0.21094,0 0,0.21094 -0.63281,-0.21094 0,-0.21093 0.84375,-0.21094 0,-0.21094 -0.21094,0 -2.32031,0.42188 m 3.375,-0.21094 c 1.07811,2.10941 2.62499,3.1641 4.64062,3.16406 l 2.53125,0 0.42188,-0.42187 -0.21094,-0.21094 -2.32031,0.21094 c -1.87502,3e-5 -3.4922,-0.91403 -4.85157,-2.74219 l -0.21093,0 m 4.42968,0.63281 0,0.84375 c -1e-5,0.42191 0.28124,0.63285 0.84375,0.63281 l 1.47657,0 0,-0.21093 c -1.26564,3e-5 -1.89845,-0.2109 -1.89844,-0.63282 l 0,-0.21093 c -1e-5,-0.28122 0.21092,-0.42184 0.63281,-0.42188 l -0.42187,-0.42187 -0.21094,0 -0.42188,0.42187 m 33.11719,1.47656 0,0.63282 0.21094,2.10937 0.42187,0 -0.42187,-2.10937 0.63281,-2.53125 c -0.56254,0.18753 -0.84379,0.82035 -0.84375,1.89843 m -35.64844,-1.6875 0,0.42188 -0.21093,-0.21094 -0.21094,0 0,0.21094 2.10937,0.63281 0.21094,-1.05469 -1.89844,0 m 31.21875,1.47657 0,0.21093 c 1.68746,4e-5 2.53121,0.3516 2.53125,1.05469 l 0,0.63281 c -4e-5,0.42191 -0.3516,0.63285 -1.05468,0.63282 l 0,0.21093 0.84375,0 c 0.70308,-0.18746 1.05464,-0.67965 1.05468,-1.47656 l -0.42187,-1.05469 0.63281,0 0,-0.21093 -1.05469,-0.84375 -2.53125,0.84375 m -33.75,-0.63282 c 0,0.70317 -0.63282,1.19535 -1.89843,1.47657 l 0,0.21093 c -1e-5,0.32816 0.35155,0.5391 1.05468,0.63282 0.91406,-0.37497 1.40625,-0.72653 1.47657,-1.05469 l 0,-0.42188 c -0.28126,4e-5 -0.42189,-0.28121 -0.42188,-0.84375 l -0.21094,0 m 18.5625,0 0,0.63282 c -2e-5,0.21097 -0.28127,0.42191 -0.84375,0.63281 l -0.21093,-0.21094 0,-0.21094 1.05468,-0.84375 m 1.05469,8.22657 0,0.21093 6.96094,-7.80468 0,-0.21094 -0.21094,0 c -2.41409,2.4141 -4.66409,5.01566 -6.75,7.80469 m 21.09375,-7.59375 0.42188,2.53125 -0.63282,2.53125 0,0.21093 c 0.51558,-0.0937 0.86714,-1.28903 1.05469,-3.58593 l -0.42187,-1.89844 -0.21094,0.21094 -0.21094,0 m -7.59375,0.21093 0,0.21094 0.42188,0 0,-0.21094 -0.42188,0 m -0.63281,0.21094 0,0.21094 0.42187,0 0,-0.21094 -0.42187,0 m -39.23438,0.21094 0,0.42187 c 0,0.77348 0.35157,1.33598 1.05469,1.6875 l 0,-0.21093 c -0.21094,3e-5 -0.42188,-0.28122 -0.63281,-0.84375 l 0.21094,-0.21094 0.42187,0 c 1.45312,1.68753 2.29687,2.53128 2.53125,2.53125 l 0,-0.21094 -2.95312,-3.16406 -0.63282,0 m 8.4375,0 0.21094,0.63281 0.63281,0 -0.63281,-0.63281 -0.21094,0 m 29.74219,0 0,0.21094 0.63281,0 0,-0.21094 -0.63281,0 m -1.47656,3.16406 -0.21094,-0.84375 -0.21094,0 0,0.84375 0.63282,0.42188 c 0.84371,3e-5 1.26558,-0.35153 1.26562,-1.05469 l -0.21094,-1.26563 0.63282,-0.42187 0.63281,0 c 0.56246,0.28128 0.84371,0.63285 0.84375,1.05469 -4e-5,0.70315 -0.56254,1.47659 -1.6875,2.32031 1.68746,-0.46872 2.53121,-1.31247 2.53125,-2.53125 -4e-5,-0.70309 -0.42192,-1.05465 -1.26563,-1.05469 l -1.05468,0 c -0.49223,4e-5 -0.84379,0.77347 -1.05469,2.32031 l -0.84375,0.21094 m -2.32031,-1.6875 -0.21094,0 -0.63281,-0.42187 -0.21094,0 c -0.75003,3e-5 -1.24222,0.28128 -1.47656,0.84375 l 0,1.6875 -0.63282,0.21093 -0.21093,-0.21093 0,0.21093 0.42187,0.42188 c 0.37497,-0.0468 0.65622,-0.39841 0.84375,-1.05469 l -0.21094,-0.84375 0.63282,-0.42187 c 0.56246,3e-5 0.98434,0.35159 1.26562,1.05468 -3e-5,0.79691 -0.56253,1.64066 -1.6875,2.53125 l 0.21094,-0.21093 0.84375,0 -2.10938,1.6875 0.21094,0 0.63281,-0.42188 0,0.21094 c -3e-5,0.28128 -0.4219,0.49222 -1.26562,0.63281 l 0,-0.21094 0.63281,-1.26562 -0.21094,0 c -0.56253,0.72659 -0.84378,1.50003 -0.84375,2.32031 l 0.21094,0.21094 0,0.21094 c -0.56253,0.21096 -0.84378,0.4219 -0.84375,0.63281 l 0,0.21094 0.42188,0.42187 0.63281,-0.42187 0.42187,0 0.21094,1.05468 0.84375,0 3.16406,-1.26562 c 0.98434,0.18753 1.47653,0.67971 1.47657,1.47656 l 0.21093,0 c 0.56247,-0.28122 0.84371,-0.7031 0.84375,-1.26562 l -0.21093,-1.05469 -0.63282,0 -1.05468,-0.21094 0.42187,-0.63281 0,-0.63281 -1.47656,0 0,0.21093 0.42187,0 c -3e-5,0.32816 -0.35159,0.53909 -1.05468,0.63282 l 0.21093,-0.21094 0,-0.42188 c -0.56253,3e-5 -1.26566,0.70316 -2.10937,2.10938 l -1.05469,0.21094 -0.42187,-0.63282 0,-0.42187 0.42187,0 c -3e-5,-0.42185 0.14059,-0.63279 0.42188,-0.63281 -4e-5,0.56252 0.14059,0.84377 0.42187,0.84375 l -0.21094,-0.21094 0,-0.84375 c 2.24997,-0.5156 3.37497,-1.6406 3.375,-3.375 l -0.21093,0.21094 -0.63282,0 0,-0.21094 c 0.42184,-0.60934 0.63278,-1.17184 0.63282,-1.6875 l -0.42188,-1.6875 c -0.28128,3e-5 -0.42191,0.21097 -0.42187,0.63281 m -27.84375,1.05469 c 0.74999,0.98441 1.52342,1.47659 2.32031,1.47656 l 0.21094,0 0,-0.21094 c -0.91408,4e-5 -1.47657,-0.56246 -1.6875,-1.6875 l 0.84375,-0.63281 1.05468,0.63281 0,-0.21093 c -0.28126,-0.56247 -0.70313,-0.84372 -1.26562,-0.84375 -0.98438,3e-5 -1.47657,0.49222 -1.47656,1.47656 m 7.38281,-0.42188 0,0.84375 c -2e-5,1.12504 0.56248,1.68754 1.6875,1.6875 0.56248,4e-5 0.98436,-0.28121 1.26562,-0.84375 l 0,-0.42187 c -1e-5,-0.84372 -0.42189,-1.26559 -1.26562,-1.26563 l -0.21094,0.21094 0,0.21094 0.84375,0.21094 0,0.63281 -0.63281,0.63281 -0.42188,0 c -0.70314,-0.42184 -1.0547,-0.91403 -1.05468,-1.47656 l 1.05468,-1.47656 -0.21093,0 -1.05469,1.05468 m -3.16406,-0.21093 0,0.63281 0.63281,0.84375 c -0.98439,0.0938 -1.47657,0.37503 -1.47656,0.84375 0.28124,0.63284 0.56248,0.9844 0.84375,1.05469 l 0.21093,-0.21094 0.21094,0 1.6875,0.42187 0,0.21094 -0.84375,0 0,0.21094 c 1.05467,3e-5 2.24999,0.21097 3.58594,0.63281 l 0,0.84375 -0.21094,0 -3.58594,-0.84375 c -1.61719,3e-5 -3.02344,0.77347 -4.21875,2.32031 l 0,0.21094 0.84375,0.21094 -0.21093,1.05469 c -1e-5,1.26565 0.77342,1.89846 2.32031,1.89843 0.74999,3e-5 1.24217,-0.35153 1.47656,-1.05468 l -0.21094,0 c -1e-5,0.28127 -0.21095,0.4219 -0.63281,0.42187 -0.63282,-0.28122 -0.98438,-0.56247 -1.05469,-0.84375 l 0,-0.42187 0.42188,-1.26563 -0.42188,0 0.42188,-0.63281 -0.63281,0 0,-0.21094 1.6875,-1.05469 c -2e-5,0.42191 0.21092,0.63284 0.63281,0.63282 l 1.05469,-0.42188 0,0.21094 -0.21094,0.21094 0,0.21093 1.89844,0 c 1.03123,3e-5 2.64842,0.77347 4.85156,2.32032 0.56248,-0.63279 0.84373,-1.12498 0.84375,-1.47657 -1.82815,-1.73434 -4.42971,-3.28122 -7.80469,-4.64062 -0.70314,-0.77341 -1.0547,-1.47653 -1.05469,-2.10938 l 0.63282,-0.63281 0,-0.21094 -1.05469,0 -0.63281,0.63282 m 12.44531,-0.63282 c 0.56247,0.37504 0.84372,0.86723 0.84375,1.47657 l 0.42187,0 0,-0.42188 0.21094,0 1.26563,0.42188 c -3e-5,-0.65622 -0.91409,-1.14841 -2.74219,-1.47657 m 12.23437,4.64063 0,0.42187 c 4.5234,-1.12497 7.61715,-2.39059 9.28125,-3.79687 l -0.21093,-0.84375 c -2.03911,1.75784 -5.06254,3.16409 -9.07032,4.21875 m 8.64844,0 0.42188,0 c 0.51558,-1.96872 1.07807,-2.95309 1.6875,-2.95313 l 0.42187,0 0.21094,0.21094 0.21094,0 0,-0.42187 -0.63282,-0.21094 c -0.86723,3e-5 -1.64067,1.12503 -2.32031,3.375 m -43.875,-2.53125 -0.21094,0.84375 0.84375,0 0,-0.84375 -0.63281,0 m 1.26563,0.63281 0,0.21094 0.42187,0.42187 0.21094,0 0.42187,-0.42187 0,-0.21094 -0.42187,-0.42187 -0.21094,0 -0.42187,0.42187 m 44.50781,-0.21094 c 0.56245,1.96878 0.98433,2.95316 1.26562,2.95313 l 0.21094,-1.05469 -0.21094,0 -0.21093,0.21094 -0.63282,-2.10938 -0.42187,0 m -43.03125,0.84375 0,0.21094 0.42187,0.42188 0.63282,0 0.42187,-0.42188 -1.05469,-0.21094 -0.42187,0 m 25.52344,2.10938 0,0.63281 0.21093,0 c 0.11716,-1.40622 0.39841,-2.10934 0.84375,-2.10937 l 0.63282,0 0,0.63281 0.21093,0 0.42188,-0.42188 c -0.14066,-0.56247 -0.49222,-0.84371 -1.05469,-0.84375 -0.53909,4e-5 -0.96097,0.70316 -1.26562,2.10938 m 8.22656,-2.10938 0,0.21094 0.42187,0 0,-0.21094 -0.42187,0 m 5.27344,0.42188 0,0.21094 0.21093,-0.21094 0.21094,0 1.26563,0.42187 0,-0.21093 c -0.14067,-0.42185 -0.56255,-0.63278 -1.26563,-0.63282 l -0.42187,0.42188 m 6.11718,-0.42188 c -5e-5,1.78128 -0.56254,2.83597 -1.6875,3.16407 l -1.26562,-0.63282 0,0.63282 1.26562,0.42187 c 1.26558,-0.1406 1.89839,-1.26559 1.89844,-3.375 l 0,-0.21094 -0.21094,0 m -36.70312,0 0.42187,0 0.63282,0.21094 0,0.42188 c -0.70314,-0.18747 -1.0547,-0.39841 -1.05469,-0.63282 m 6.53906,0.84375 c -2e-5,0.37503 0.70311,1.14847 2.10938,2.32032 l 0.21093,0 0,-0.21094 c -0.53908,3e-5 -1.17189,-0.63278 -1.89843,-1.89844 l 0.63281,-0.21094 -0.63281,-0.63281 c -0.28127,3e-5 -0.4219,0.21097 -0.42188,0.63281 m -17.71875,-0.42187 0,0.21094 0.63281,0.63281 0.42188,0 0,-0.84375 -1.05469,0 m 1.47656,1.05469 0,0.21093 0.84375,0 0,-0.84375 -0.21093,0 -0.63282,0.63282 m 30.16407,-0.63282 -0.21094,0.21094 0,0.21094 0.21094,0 0.21093,-0.21094 0,-0.21094 -0.21093,0 m -28.47657,0.84375 0,0.21094 0.84375,0.21094 c 0.91406,-0.28122 2.60156,-0.42185 5.0625,-0.42188 l 0,-0.21093 -2.32031,-0.21094 c -0.93751,0.28128 -2.13282,0.4219 -3.58594,0.42187 m 33.75,0 0.42188,0.42188 1.6875,-0.42188 5.27344,0.63282 1.6875,-0.63282 0,-0.42187 -0.21094,0 -1.6875,0.63281 -0.21094,0 -4.21875,-0.63281 -2.74219,0.42187 m -21.09375,-0.21093 1.05469,0.84375 0.21094,-0.21094 0.42187,0.84375 0.21094,0 0,-0.42188 0.42188,0 0,0.63282 -0.42188,0.42187 -0.21094,0 0,-0.42187 -0.21093,0.21093 -0.42188,0 -0.42187,-0.42187 0.42187,0 0,-0.42188 -0.84375,0.63282 -0.42187,0 0,-0.21094 0.42187,-0.84375 -0.21094,-0.63281 m -15.39843,0.42187 0,0.42188 0.42187,0.42187 0.21094,0 0.42187,-0.42187 -0.63281,-0.42188 -0.42187,0 m 23.625,10.75781 c 0.25778,2e-5 0.82028,-1.61716 1.6875,-4.85156 0.56247,-0.58591 1.19528,-2.48435 1.89843,-5.69531 -0.39846,3e-5 -1.52346,3.09377 -3.375,9.28125 l -0.21093,1.26562 m -21.9375,-10.33593 0,0.42187 0.42187,0.42188 0.63281,-0.63282 -0.21093,-0.21093 -0.84375,0 m -1.6875,10.75781 c -1e-5,1.12502 0.42187,2.67189 1.26562,4.64062 l -0.21094,0 -0.42187,0.42188 0,0.42187 c 0.84375,1.07814 1.26562,2.06251 1.26562,2.95313 l 0,0.21094 c 0,0.32813 -0.35156,0.53907 -1.05468,0.63281 -1e-5,-0.28124 -0.21094,-0.42187 -0.63282,-0.42188 l -0.21093,-0.63281 0.21093,-1.89844 0,-0.21093 -0.42187,-0.42188 0.21094,0.63281 -0.21094,2.53125 c 0.1875,0.70314 0.67968,1.0547 1.47656,1.05469 0.98437,1e-5 1.47656,-0.6328 1.47656,-1.89844 l 0.21094,0 0.63281,0.42188 0.42188,0 0,-0.63281 c -1e-5,-0.49218 -0.56251,-1.26562 -1.6875,-2.32032 l 0.63281,-0.63281 0.42188,0 c 1.17187,0.98439 2.01561,1.47658 2.53125,1.47656 l 0.42187,0 c 0.72656,2e-5 1.14843,-0.21092 1.26563,-0.63281 l -0.84375,0 0,-0.63281 c 1.68749,1e-5 2.53124,-0.56249 2.53125,-1.6875 l 0,-0.63281 -0.21094,0 c -1e-5,0.70314 -0.70314,1.19532 -2.10938,1.47656 l -1.47656,0 c -0.49219,1e-5 -1.19532,-0.35155 -2.10937,-1.05469 l -0.84375,0 -0.21094,1.05469 0.21094,-0.21094 0.63281,0 0,0.42188 c -0.70313,1e-5 -1.05469,0.42188 -1.05469,1.26562 l -0.42187,0 0,-0.42187 0.42187,-1.26563 c -0.58594,2e-5 -1.14844,-1.54686 -1.6875,-4.64062 0,-3.49217 1.40625,-6.30467 4.21875,-8.4375 1.89843,-0.7031 2.8828,-1.2656 2.95313,-1.6875 -5.06251,1.14846 -7.59376,4.7344 -7.59375,10.75781 m 36.49218,-10.33594 0,0.21094 c 2.20309,3e-5 4.24215,0.4219 6.11719,1.26562 l 0,-0.63281 c -0.9141,-0.42185 -2.46098,-0.77341 -4.64062,-1.05469 l -1.47657,0.21094 m 6.75,0 0,1.47656 c -4e-5,2.34378 0.63277,3.82034 1.89844,4.42969 l 0,-0.21094 c -1.12504,-0.96091 -1.68754,-2.5781 -1.6875,-4.85156 l 0,-0.21094 0.21094,-0.21093 0,-0.21094 -0.21094,-0.21094 -0.21094,0 m -31.64062,0.63281 0,0.21094 0.63281,0 0,-0.21094 -0.63281,0 m 6.53906,-0.21093 0.21094,0 0,0.42187 -0.42188,0.42188 -0.21093,-0.21094 0,-0.21094 0.42187,-0.42187 m -18.14062,0.42187 -0.21094,0.21094 0,0.21094 0.63281,-0.21094 0,-0.21094 -0.42187,0 m 10.33593,0.63281 1.05469,-0.42187 0,-0.21094 -0.21094,0 c -0.56251,0.21097 -0.84376,0.4219 -0.84375,0.63281 m 27.21094,-0.63281 0,0.21094 1.47656,0 0,-0.21094 -1.47656,0 m 9.49219,0 0,0.63281 0.21094,1.47657 c -0.0938,0.84377 -0.23443,1.26565 -0.42188,1.26562 l 0.21094,0.63281 0.21094,0 0.21093,-2.10937 0,-0.42188 -0.21093,-1.47656 -0.21094,0 m -46.19531,1.89844 -0.63282,0 c -0.28125,2e-5 -0.42187,-0.42185 -0.42187,-1.26563 l -0.21094,0 0,1.26563 0.42188,1.6875 -0.21094,0.21094 0.21094,0 2.74218,-3.58594 -1.89843,1.6875 m 19.19531,-1.6875 0,0.21094 0.21094,0.21093 0.21093,0 0,-0.21093 -0.21093,-0.21094 -0.21094,0 m 19.40625,0 0,0.21094 c 0.91402,2e-5 1.47652,0.49221 1.6875,1.47656 -0.14067,0.56252 -0.56254,0.84377 -1.26563,0.84375 l -0.84375,-1.26563 -0.42187,0 c 0.16402,1.26565 0.72652,1.89847 1.6875,1.89844 l 0.21094,0 1.05468,-0.21094 c -4e-5,1.10159 0.28121,1.7344 0.84375,1.89844 l 0.21094,-0.21094 0.21094,0 c -0.32817,-1.68747 -0.75004,-2.81247 -1.26563,-3.375 l 0.42188,0 c -4e-5,-0.42184 -0.77348,-0.84372 -2.32031,-1.26562 l -0.21094,0 m -27.21094,1.47656 0,0.63281 c -1e-5,1.14847 0.98436,2.06253 2.95313,2.74219 -1.40627,-1.14841 -2.10939,-2.13279 -2.10938,-2.95312 -1e-5,-0.56248 0.35155,-0.98435 1.05469,-1.26563 0.84373,0.14065 1.26561,0.35159 1.26562,0.63281 l 0,0.84375 -0.42187,0.63282 0,0.21093 c 0.0937,0.84378 0.30467,1.26565 0.63281,1.26563 l 0.63281,0 -0.84375,-1.26563 0.42188,-1.89843 c -0.23439,-0.56248 -0.72658,-0.84373 -1.47656,-0.84375 l -0.42188,0 c -0.6797,2e-5 -1.2422,0.4219 -1.6875,1.26562 m 15.1875,-1.26562 0,0.21093 2.32031,3.16407 -0.21093,0.21093 -0.21094,0 c -3e-5,-0.28122 -0.70316,-1.19528 -2.10938,-2.74218 l -1.47656,4.00781 c 0.77341,0.63283 4.42966,4.9922 10.96875,13.07812 l 0,0.63282 c -4e-5,0.32813 -0.98441,0.89063 -2.95312,1.6875 l 0,0.21093 2.95312,0 8.22656,0.21094 0.63282,-0.21094 0,-0.42187 c -2.13286,1e-5 -4.52348,-1.96874 -7.17188,-5.90625 l -8.85937,-10.54688 0.21093,-0.21093 0.21094,0 c 7.64059,9.32814 11.99996,14.46094 13.07813,15.39843 l 0.21093,0.21094 0.21094,0 0,-0.21094 c -1.24223,-1.10155 -5.81254,-6.51561 -13.71094,-16.24218 l -2.32031,-2.53125 m 16.66406,0.84375 c -4e-5,0.32815 0.77339,1.52346 2.32032,3.58593 l 0.63281,2.32032 0,1.26562 -0.42188,3.58594 -0.42187,0 -1.26563,-0.21094 c -0.84379,0.18752 -1.26567,0.39845 -1.26562,0.63281 l 1.6875,-0.21093 c 1.4062,0.60939 2.10932,1.38282 2.10937,2.32031 l 0,0.42187 c -5e-5,0.46877 -0.21098,0.96095 -0.63281,1.47657 l 0,0.21093 0.42188,0 0.63281,-1.89843 -0.63281,-2.53125 0.42187,-3.16407 0,-1.26562 c -5e-5,-2.36717 -1.12505,-4.54685 -3.375,-6.53906 l -0.21094,0 m -27.63281,0.84375 0,0.21093 0.42188,0.42188 c -2e-5,-0.42185 0.1406,-0.63279 0.42187,-0.63281 l 0.63281,0 0.63282,0.42187 0,-0.42187 -1.47657,-0.42188 -0.21093,0 -0.42188,0.42188 m -12.02344,0.84375 0,1.89843 0.21094,0 0,-0.84375 0.42188,0 c -1e-5,0.4219 0.21093,0.63284 0.63281,0.63282 l 0,0.63281 -0.21094,-0.21094 -0.63281,0 0.21094,0.21094 0,0.21094 c -0.37501,2e-5 -0.65626,0.56252 -0.84375,1.6875 0.28124,2e-5 0.42187,-0.21092 0.42187,-0.63282 l 0.84375,0.21094 0,1.6875 -0.21094,0 -0.21093,-1.26562 -0.21094,0 0,0.21093 0.21094,1.89844 0,0.42188 -0.21094,0 -0.21094,-1.47657 -0.21094,0 c 0,1.57033 -0.42188,2.69533 -1.26562,3.375 -1e-5,0.35158 0.70312,0.63283 2.10937,0.84375 1.52343,-0.46873 2.36718,-0.96092 2.53125,-1.47656 l -0.21093,0.21094 -0.42188,0 0,-0.63281 c 0.56249,1e-5 0.91405,-0.56249 1.05469,-1.6875 l 0.21094,0 0,0.63281 0.21093,0 c 0.11718,-0.98436 0.39843,-1.47654 0.84375,-1.47656 l 0.21094,0.21093 0,0.21094 -0.42187,0.84375 c 0.21092,0.56252 0.42186,0.84377 0.63281,0.84375 l 0,-0.21094 -0.21094,-0.63281 1.26563,0.21094 0,0.42187 -0.84375,0 0,0.42188 1.05468,0.21094 c 0.6328,-0.28124 0.98437,-0.56249 1.05469,-0.84375 l 0,-0.42188 c -0.42189,2e-5 -0.63282,-0.14061 -0.63281,-0.42187 l 0,-0.84375 c 0.49217,-0.84373 1.12498,-1.26561 1.89844,-1.26563 l 0.84375,0 c 0.5156,2e-5 1.14842,0.28127 1.89843,0.84375 l 0,-0.21094 c -0.72658,-0.5156 -1.57032,-0.86716 -2.53125,-1.05468 l 0,-0.21094 0.21094,-0.21094 0.21094,0.21094 0.42187,0 c -1e-5,-0.46873 -0.91407,-0.74998 -2.74218,-0.84375 l -0.21094,0 c -0.56251,2e-5 -1.40626,0.35158 -2.53125,1.05469 l -0.21094,-0.21094 0,0.21094 0.21094,0.21093 c -0.56251,0.14065 -0.84376,0.56252 -0.84375,1.26563 l -0.63281,0 0,-0.21094 c 0.91405,-1.8281 2.24998,-2.74216 4.00781,-2.74219 l 0.84375,0 1.26562,0.21094 0.21094,0 0,-0.21094 -2.32031,-0.42187 -2.53125,0.21094 c -2.10938,2e-5 -3.3047,-0.91404 -3.58594,-2.74219 l -1.05469,1.05469 m 18.14063,-0.84375 c -3e-5,0.28127 -1.61721,2.25002 -4.85156,5.90625 l 0.21093,0.21093 0.21094,0 c 3.23435,-3.77341 4.85154,-5.81247 4.85156,-6.11718 l -0.42187,0 m 9.91406,0.63281 0.21094,0.21094 -1.05469,1.47656 0.21094,0 1.26562,-1.05469 0,-0.63281 -0.63281,0 m -9.49219,1.05469 0,0.21093 c 0.56248,3e-5 0.84373,0.4219 0.84375,1.26563 l 0,0.42187 0.21094,0 0,-1.89843 -0.63281,-0.42188 -0.42188,0.42188 m 9.07032,1.26562 0.21093,0.21094 0.21094,0 c 1.47653,-0.84373 2.60153,-1.2656 3.375,-1.26563 l 1.26563,0 c 2.81245,0.46878 4.2187,1.7344 4.21875,3.79688 l 0.42187,0 0,-0.63281 c -0.70317,-2.53123 -2.46098,-3.79685 -5.27344,-3.79688 -1.52347,3e-5 -3.00003,0.56253 -4.42968,1.6875 m -10.33594,0 -0.21094,-0.21094 -0.21094,0 0,0.21094 0.21094,0.21094 -0.21094,0.21094 c 0.70311,0.65627 1.05467,1.4297 1.05469,2.32031 l 0.63281,0.63281 0,-1.26562 -0.63281,-2.74219 -0.21094,0 c -0.28127,2e-5 -0.42189,0.21096 -0.42187,0.63281 m 11.17969,0.84375 1.6875,-0.63281 c 1.54683,2e-5 2.32027,0.63283 2.32031,1.89844 -0.28129,2e-5 -0.42191,0.21095 -0.42188,0.63281 l -1.26562,0 -0.42188,-0.42188 0.21094,-0.21093 -0.21094,0 -0.21093,0.21093 0,-0.42187 -0.21094,0 0,0.42187 c 0.42184,0.9844 0.91402,1.47659 1.47656,1.47657 1.12496,2e-5 1.68746,-0.49217 1.6875,-1.47657 l -0.21094,-1.47656 0.84375,0 0,-0.21094 c -4e-5,-0.42185 -0.63285,-0.77341 -1.89843,-1.05468 l -0.63282,0 c -1.82816,0.28127 -2.74222,0.70314 -2.74218,1.26562 m -18.77344,-0.84375 0,0.21094 c 0.51561,2e-5 1.35936,0.56252 2.53125,1.6875 l 0,-0.21094 c -0.63283,-0.74998 -1.40627,-1.31248 -2.32031,-1.6875 l -0.21094,0 m 31.64062,0 0,0.21094 0.21094,0.84375 0.21094,0 0,-0.42188 -0.21094,-0.63281 -0.21094,0 m -43.03125,0.84375 0,0.63281 0.21094,0 0.21094,-1.26562 c -0.28126,2e-5 -0.42188,0.21096 -0.42188,0.63281 m 20.88282,0 0,0.63281 0.21093,0 0,-0.63281 -0.21093,0 m 1.89843,0 -0.63281,1.89844 0.21094,0 c 0.30466,2e-5 0.58591,-0.56248 0.84375,-1.6875 l -0.21094,-0.21094 -0.21094,0 m 13.07813,1.47656 0,0.42188 c 0.65621,1.12502 1.64058,1.68752 2.95312,1.6875 1.54683,-0.21092 2.32027,-0.56248 2.32032,-1.05469 l 0,-0.84375 c -0.35161,-0.7031 -0.91411,-1.05466 -1.6875,-1.05469 l 0,0.21094 0.63281,1.05469 0,0.42187 c -0.70317,2e-5 -1.05473,0.14065 -1.05469,0.42188 -0.98442,-0.25779 -1.4766,-0.53904 -1.47656,-0.84375 l 0,-0.21094 0.42187,-0.42187 -0.21093,-0.84375 -0.42188,0 c -0.70316,2e-5 -1.19535,0.35158 -1.47656,1.05468 m 5.69531,-1.05468 0,0.21093 c 0.56245,0.63284 0.8437,1.12502 0.84375,1.47657 l 0.21094,0 0,-0.63282 c -5e-5,-0.7031 -0.35161,-1.05466 -1.05469,-1.05468 m -41.34375,0.42187 0,0.63281 0.21094,0 0,-0.63281 -0.21094,0 m 10.75781,0.42188 0,0.21093 c 1.40624,2e-5 2.39061,1.12502 2.95313,3.375 l 0,1.05469 c -2e-5,2.20314 -1.61721,4.10158 -4.85156,5.69531 -1.26564,0.35158 -1.89845,0.63283 -1.89844,0.84375 l 0,0.21094 c 2.3203,1e-5 4.5703,-1.47655 6.75,-4.42969 l 0.63281,-3.16406 0,-1.26562 c -1.03127,-1.68748 -2.01564,-2.53123 -2.95312,-2.53125 l -0.63282,0 m 4.85157,1.89843 0,0.63282 0.84375,0.84375 0.63281,0 0,-0.21094 c -0.56252,2e-5 -0.84377,-0.21092 -0.84375,-0.63281 l 0,-0.84375 0.63281,-0.21094 c 1.2656,2e-5 1.89842,2.25002 1.89844,6.75 l 0.21094,0.84375 c 0.84372,0.53907 1.2656,1.03126 1.26562,1.47656 l 0.21094,0 c 0.42185,-0.14061 0.63279,-0.56249 0.63281,-1.26562 l 0,-2.10938 c -2e-5,-2.20311 0.98435,-3.60936 2.95313,-4.21875 l 1.26562,0.42188 0,-0.21094 c -3e-5,-0.84373 -0.35159,-1.26561 -1.05469,-1.26563 l -1.05468,0.21094 0,-0.21094 0.21093,-1.05468 c -1.96877,0.4922 -2.95315,1.96876 -2.95312,4.42968 l 0,1.47657 -0.42188,0.42187 -0.21093,0 0.21093,-3.58594 c -2e-5,-0.93748 -0.28127,-1.78123 -0.84375,-2.53125 l -0.21093,0.21094 -0.21094,0 c -0.63284,-0.84373 -1.12502,-1.2656 -1.47656,-1.26562 -1.12502,2e-5 -1.68752,0.63283 -1.6875,1.89843 M 158.5,181.46457 l -0.21094,1.05469 0.63281,1.47656 0.84375,0 0.63282,-0.63281 0,-1.6875 -0.21094,0 c -1e-5,0.72658 -0.21094,1.14846 -0.63281,1.26562 l -0.21094,0 c -0.42188,-0.0937 -0.63282,-0.58591 -0.63281,-1.47656 l -0.21094,0 m 5.48437,0.63281 0.42188,0 0,0.63282 -0.84375,0 0,-0.21094 0.42187,-0.42188 m 7.38282,0.21094 c -6.23439,7.59376 -9.82032,11.39063 -10.75782,11.39063 l -1.6875,0.63281 0,0.42187 0.84375,0.21094 2.53125,-0.21094 2.32032,0 2.95312,0.21094 0.63281,-0.21094 0,-0.42187 c -1.54688,1e-5 -2.46094,-0.63281 -2.74218,-1.89844 l 0,-0.42187 7.17187,-8.64844 0,-0.21094 c -0.28127,-0.56248 -0.70314,-0.84373 -1.26562,-0.84375 m 30.58593,0.21094 -0.63281,1.26562 c 0.14058,0.56252 0.42183,0.84377 0.84375,0.84375 0.8437,-0.28123 1.26558,-0.84373 1.26563,-1.6875 l -0.21094,-0.21093 -0.21094,0 0.21094,0.21093 0,0.21094 -0.42188,0.42188 -0.63281,0 0,-1.05469 -0.21094,0 m -6.11718,0.21094 c -4e-5,0.60939 0.91402,1.03126 2.74218,1.26562 1.54683,-0.21092 2.32027,-0.56248 2.32032,-1.05469 l -1.05469,0.63282 -1.89844,0 c -0.82035,1e-5 -1.52348,-0.28124 -2.10937,-0.84375 m -32.69532,0.21093 0.42188,0 0.42187,0.42188 0,0.21094 -0.63281,0.21093 -0.21094,-0.21093 0,-0.63282 m 30.58594,0.84375 0,0.63282 0.84375,0.63281 0,-0.21094 -0.42187,-0.42187 0,-0.21094 c -4e-5,-0.28123 0.42183,-0.42186 1.26562,-0.42188 l 0,-0.21093 -1.05469,-0.21094 -0.21093,0 -0.42188,0.42187 m -30.58594,0 0.21094,0.21094 0,0.42188 -0.63281,0.21093 -0.42188,-0.63281 0.84375,-0.21094 m 9.49219,0.21094 -4.42969,5.48438 0.21094,0 4.42969,-4.85157 0,-0.63281 -0.21094,0 m 13.5,0 0,0.63281 c 0.74997,4.92189 2.92966,7.38283 6.53906,7.38282 -0.0704,-0.28124 -1.12503,-0.77343 -3.16406,-1.47657 -1.96878,-1.7578 -2.95315,-3.86717 -2.95312,-6.32812 l -0.21094,-0.21094 -0.21094,0 m 10.54688,0.21094 -0.63282,1.6875 0,0.42187 c -4e-5,1.12502 0.70309,1.68752 2.10938,1.6875 l 1.05469,-0.21093 0,0.63281 1.05468,0 c 0.56246,-0.70311 1.05465,-1.05467 1.47657,-1.05469 l 0,-0.21094 -0.63282,-0.21093 -1.47656,0.63281 0,-0.42188 0.42188,-1.26562 0,-0.63281 -0.21094,0 c -5e-5,0.84376 -0.42192,1.26564 -1.26563,1.26562 l 0,0.63281 0.21094,0.21094 0,0.21094 -1.05469,0.21094 c -0.98441,-0.42186 -1.4766,-1.05468 -1.47656,-1.89844 l 0.63281,-1.6875 -0.21093,0 m 0.84375,0.21094 -0.42188,0.84375 0,1.05468 0.42188,0 0,0.21094 0.63281,-0.21094 0,-0.42187 c -0.56254,1e-5 -0.84379,-0.28124 -0.84375,-0.84375 l 0.42187,-0.42188 0,-0.21093 -0.21093,0 m -23.41407,3.79687 0.21094,0 c 0.51561,-1.03123 0.93748,-1.59373 1.26563,-1.6875 l 0.42187,0 1.05469,0.21094 0,0.63281 -0.84375,1.05469 0.63281,0 c 0.7031,-0.42186 1.05467,-0.91405 1.05469,-1.47656 -0.18752,-0.58593 -0.53909,-1.0078 -1.05469,-1.26563 l -0.42187,0 c -1.07815,2e-5 -1.85159,0.84377 -2.32032,2.53125 m 8.01563,-0.42187 0.84375,0.84375 0.63281,0 0.42188,-0.42188 -0.42188,0 -0.21094,0.21094 -0.21093,0 -0.42188,-0.63281 0,-0.42188 c 0.0703,-0.28123 0.42185,-0.56248 1.05469,-0.84375 0.67966,2e-5 1.73434,1.0547 3.16406,3.16406 l 0.21094,0.21094 0.21094,0 0,-0.21094 -2.53125,-3.79687 -1.05469,-0.21094 c -1.12503,2e-5 -1.68753,0.70314 -1.6875,2.10938 m 20.88281,-0.84375 c -0.98442,1.68751 -2.17973,2.53126 -3.58594,2.53125 l -0.42187,0 -0.84375,-0.63282 0,1.05469 1.47656,0.42188 -0.21094,0.21093 0,0.42188 0.21094,0 1.05469,-0.63281 0.21094,0.21093 c -5e-5,-0.32811 0.35151,-0.53905 1.05468,-0.63281 l 0,0.21094 -1.26562,1.47656 0,0.84375 0.42187,0.42188 c 1.03121,-2.46093 1.94527,-4.14843 2.74219,-5.0625 -0.0938,-0.42186 -0.37505,-0.70311 -0.84375,-0.84375 m -32.69531,1.47656 0.21094,0 0.63281,-0.63281 0.42187,0.42187 c -1e-5,0.51564 -0.28126,1.07814 -0.84375,1.6875 l 0.21094,0 c 0.84373,-0.91405 1.26561,-1.68749 1.26563,-2.32031 l 0,-0.42188 -0.63282,0 c -0.72657,0.37502 -1.14845,0.79689 -1.26562,1.26563 m 17.92969,-1.26563 0,0.21094 c -4e-5,1.14845 0.70309,2.20314 2.10937,3.16406 l 0.21094,0 0,-0.21093 c -0.39847,1e-5 -1.03129,-0.56249 -1.89844,-1.6875 l 0,-0.63282 0.21094,0 1.26562,1.05469 0,-0.21094 c -0.70316,-1.12498 -1.33597,-1.68748 -1.89843,-1.6875 m -8.4375,1.47657 0.84375,0.21093 -0.42188,0.42188 -0.42187,0 0,-0.63281 m -17.92969,0.21093 0.21094,0 c 0.84374,0.14064 1.26561,0.35158 1.26562,0.63282 l -0.21094,0 c -0.84375,-0.14062 -1.26563,-0.35155 -1.26562,-0.63282 m 14.13281,0.42188 -0.21094,0.21094 0,1.05468 0.42188,1.6875 -1.89844,-1.89843 -0.84375,0 c -1.68752,1e-5 -2.53126,1.54688 -2.53125,4.64062 l -1.26562,0.42188 0,0.21093 0.42187,0.42188 0.84375,0 c 0.32811,0 0.53905,-1.05468 0.63281,-3.16406 0.51561,-0.42187 1.0078,-0.63281 1.47657,-0.63282 0.63279,1e-5 1.89841,1.33595 3.79687,4.00782 l 0.63281,0.63281 -0.63281,0 -1.26562,-1.26563 c 0.65623,1.40626 1.49997,2.10938 2.53125,2.10938 l 1.89843,-0.84375 0,0.21094 -0.63281,1.6875 0.21094,0.21093 0.21094,0 c 0.67966,1e-5 1.17185,-0.56249 1.47656,-1.6875 l 0.63281,0 0,0.63282 0.42188,0 c 0.89059,0 1.80466,-0.63281 2.74218,-1.89844 l -0.21093,0 c -0.30472,0.51563 -0.86722,1.00782 -1.6875,1.47656 l -0.21094,-0.21094 0,-0.21093 c 0.37497,0 1.14841,-0.77344 2.32031,-2.32032 l 0.21094,0 -0.21094,0.21094 0,0.42188 0.21094,0 c 1.07809,-2.53124 2.20309,-3.79687 3.375,-3.79688 -3e-5,-0.39843 -0.70316,-0.67968 -2.10938,-0.84375 l -1.89843,0.63281 0,-0.21093 0.21093,-0.84375 0,-1.05469 c -2.95315,0.72657 -4.42971,2.41407 -4.42968,5.0625 l -0.63282,0 0,-1.89844 c -0.6094,1e-5 -1.31252,-0.49218 -2.10937,-1.47656 -0.4219,1e-5 -0.63284,-0.14062 -0.63281,-0.42188 l 0,-0.21093 0.84375,0.21093 0.21093,0 0,-0.21093 c -0.46877,1e-5 -1.24221,-0.35155 -2.32031,-1.05469 m 26.15625,-0.21094 0.21094,0.21094 0,0.42187 -0.21094,0 -0.42187,-0.42187 0.21093,-0.21094 0.21094,0 m -21.9375,0.42188 0.21094,0 0,0.63281 -0.63281,0 0,-0.21094 0.42187,-0.42187 m -18.77344,0.42187 0,0.63281 c 0.28125,0.56251 0.70312,0.84376 1.26563,0.84375 l 0.21094,-0.21093 0,-0.42188 c -0.35157,1e-5 -0.84376,-0.28124 -1.47657,-0.84375 m -2.74218,0 0.84375,0.84375 -0.21094,0.63281 -0.21094,0 -0.42187,-1.47656 m 8.85937,0.21094 -1.47656,1.89844 0.21094,0 1.47656,-1.89844 -0.21094,0 m 1.6875,0.42187 0,0.21094 0.42188,0 0.21093,-0.21094 0,-0.21093 -0.63281,0.21093 m 9.28125,0.21094 1.05469,1.47656 0.21094,0 0,-0.42187 -0.63282,-0.84375 -0.21093,-0.21094 -0.42188,0 m 4.42969,-0.21094 0.63281,0 c -3e-5,0.25783 -0.49221,0.75001 -1.47656,1.47657 l 0,0.42187 -0.63281,0 0,-0.21094 c 0.32809,-0.77342 0.82028,-1.33592 1.47656,-1.6875 m 19.61719,0.63282 0,0.42187 0.63281,0 0,-0.84375 -0.21094,0 -0.42187,0.42188 m 1.26562,0 0,0.21093 0.42188,0.42188 0.42187,-0.42188 0,-0.42187 -0.21094,0 -0.63281,0.21094 m -26.36719,0.21093 0.42188,0 1.05469,1.05469 -0.63282,0.21094 -0.84375,-1.26563 m 24.46875,1.05469 0,0.42188 0.42188,0 0,-0.84375 -0.42188,0.42187 m 1.05469,-0.42187 0,0.84375 0.63281,0.21093 0.21094,-0.21093 0,-0.42188 -0.42187,-0.42187 -0.42188,0 m -37.125,0.21093 0,0.42188 0.21094,0 0,-0.42188 -0.21094,0 m 25.73438,0.21094 0,0.42188 1.26562,0 0,-0.42188 -1.26562,0 m 12.86718,0 0,0.42188 0.42188,0 0,-0.42188 -0.42188,0 m -36.49218,0.21094 0,0.21094 2.53125,0.42187 0,-0.63281 -2.53125,0 m 17.08593,5.90625 0.21094,0 c 0.98435,-0.30469 1.47653,-0.72656 1.47656,-1.26563 l 0.63282,0 c -4e-5,0.86719 0.56246,1.35938 1.6875,1.47657 l 0.84375,0 c 0.70309,0 1.61715,-0.70313 2.74218,-2.10938 l 0.84375,0 0.42188,0.42188 0,0.21093 c -4e-5,0.42188 -0.28129,0.63282 -0.84375,0.63282 l 0,0.84375 1.26562,0.21093 3.16407,-1.6875 c 0.56245,0.14063 0.8437,0.4922 0.84375,1.05469 l -0.63282,0.21094 0,0.21094 0.42188,0 c 0.42183,-0.0937 0.70308,-0.375 0.84375,-0.84375 -0.28129,-0.63281 -0.56254,-0.98437 -0.84375,-1.05469 l -0.21094,0 c -0.63285,0 -1.61723,0.5625 -2.95312,1.6875 l -0.84375,0 -0.21094,-0.63281 c 0.70308,-0.1875 1.05465,-0.39844 1.05469,-0.63282 l 0,-0.63281 -1.05469,-0.21094 -0.63281,0 -3.58594,1.26563 -0.63281,0 c -0.84379,-0.5625 -1.26566,-1.125 -1.26563,-1.6875 0.72653,-2.10937 1.78122,-3.16405 3.16406,-3.16406 l 0.21094,0 0,-0.21094 -1.05469,0 c -2.34378,1e-5 -3.82034,1.75782 -4.42968,5.27344 l -0.63282,0.63281 M 172.21094,193.27707 172,194.12082 c 0.37498,1e-5 0.65623,0.56251 0.84375,1.6875 l 0,0.21094 c -2e-5,1.54688 -0.63283,2.32031 -1.89844,2.32031 l -0.21094,0 c -0.46876,0 -1.38282,-0.56249 -2.74218,-1.6875 l -0.63282,0 -0.63281,0.63281 0,0.63282 c 0.28124,0 0.42186,-0.21094 0.42188,-0.63282 l 0.21093,-0.21093 0.84375,0 c 1.33593,1.26562 2.39061,1.89844 3.16407,1.89843 1.40623,-0.16406 2.10935,-0.58593 2.10937,-1.26562 l 0.21094,0 c 0.74998,0.5625 1.38279,0.84375 1.89844,0.84375 l 0.42187,0 -1.26562,-1.26563 -0.21094,0.21094 -0.63281,-0.84375 0.42187,-0.42187 0,0.42187 0.21094,0 0,-0.21094 c -0.77346,-2.10936 -1.54689,-3.16405 -2.32031,-3.16406 m 30.375,0 0,0.42188 0.63281,0 -0.42188,-0.42188 -0.21093,0 m 1.26562,0.42188 0,0.21093 0.42188,-0.42187 0,-0.21094 -0.42188,0.42188 m -14.97656,1.6875 0,0.42187 0.42187,0.42188 0.63282,0 0,-0.42188 c -0.42191,1e-5 -0.63285,-0.14062 -0.63282,-0.42187 l 0,-0.63282 0.42188,-0.63281 -0.21094,0 c -0.42191,0.14063 -0.63284,0.56251 -0.63281,1.26563 m 15.1875,-0.84375 0,0.42187 0.63281,0 0,-0.42187 -0.63281,0 m -36.07031,0.84375 -1.6875,-0.21094 -6.75,0.21094 -0.84375,-0.21094 0.42187,0.42187 4.00781,0 1.89844,-0.21093 2.10938,0.42187 c 0.84373,-0.18749 1.26561,-0.39843 1.26562,-0.63281 l 0,-0.21094 -0.42187,0.42188 m 34.38281,0 -2.53125,0 -4.42969,-0.21094 -3.16406,0.21094 -1.47656,-0.21094 0.42187,0.42187 4.42969,0 6.53906,0.21094 0.84375,-0.63281 0,-0.21094 -0.63281,0.42188 m -45.14063,-0.21094 -0.42187,0.63281 0,0.42188 0.42187,0 0.42188,-0.42188 0,-0.21094 -0.42188,-0.42187 m 26.78907,0 0.21093,0 c -2e-5,0.70313 -0.35159,1.19532 -1.05468,1.47656 l -0.42188,0 0,-0.21094 1.26563,-1.26562 m 15.1875,1.05469 c -5e-5,0.75 0.2812,1.24219 0.84375,1.47656 l 0.63281,-0.63281 0.63281,1.6875 0.42188,0 c -5e-5,-0.42188 0.14057,-0.63281 0.42187,-0.63282 -5e-5,0.28126 0.42183,0.49219 1.26563,0.63282 l -0.42188,-0.63282 1.05469,0 0,0.42188 c 0.2812,-0.0703 0.56245,-0.42187 0.84375,-1.05469 l -0.42188,-1.26562 -0.21093,0 c -5e-5,0.98438 -0.2813,1.47656 -0.84375,1.47656 l -1.05469,0 c -0.70317,-0.84375 -1.33598,-1.26562 -1.89844,-1.26563 l -1.26562,-0.21093 m -40.71094,0.21093 -0.21094,0.21094 0,0.21094 0.84375,-0.21094 0,-0.21094 -0.63281,0 m 1.47656,0 0,0.21094 1.05469,0 0,-0.21094 -1.05469,0 m 2.53125,0 0,0.21094 0.21094,1.05469 c -0.75001,0 -1.24219,0.28125 -1.47656,0.84375 l 1.26562,0.21094 0.63281,-0.63282 1.26563,0.42188 c 0.70311,-0.1875 1.05468,-0.67968 1.05469,-1.47656 l 0,-0.63282 -0.42188,0 0.21094,0.21094 0,0.84375 -0.63281,0.63281 -0.84375,0 -0.42188,-0.42187 0.21094,-0.63281 -0.21094,0 c -0.28126,0 -0.42188,-0.21094 -0.42187,-0.63282 l -0.42188,0 m 23.83594,-0.21093 0.42187,0 0,0.42187 -0.42187,0.84375 -0.21094,0 0,-0.21094 0.21094,-1.05468 m -29.53125,1.47656 0.42187,0.42187 0.42188,0 0,-0.84375 -0.42188,0 -0.42187,0.42188 m 2.10937,0 0,0.21094 0.42188,0 0.42187,-0.42188 -0.21093,-0.21094 -0.21094,0 -0.42188,0.42188"
         style="font-size:72px;font-variant:normal;font-stretch:normal;font-family:Goudy Initials;-inkscape-font-specification:Goudy Initials"
         id="path4649" />
    </g>
  </g>
</svg>
