<?xml version="1.0" encoding="UTF-8" standalone="no"?>
<!-- Created with Inkscape (http://www.inkscape.org/) -->

<svg
   xmlns:dc="http://purl.org/dc/elements/1.1/"
   xmlns:cc="http://creativecommons.org/ns#"
   xmlns:rdf="http://www.w3.org/1999/02/22-rdf-syntax-ns#"
   xmlns:svg="http://www.w3.org/2000/svg"
   xmlns="http://www.w3.org/2000/svg"
   xmlns:sodipodi="http://sodipodi.sourceforge.net/DTD/sodipodi-0.dtd"
   xmlns:inkscape="http://www.inkscape.org/namespaces/inkscape"
   width="56.734375"
   height="56.734375"
   id="svg2"
   version="1.1"
   inkscape:version="0.48.5 r10040"
   sodipodi:docname="x.svg">
  <defs
     id="defs4" />
  <sodipodi:namedview
     id="base"
     pagecolor="#ffffff"
     bordercolor="#666666"
     borderopacity="1.0"
     inkscape:pageopacity="0"
     inkscape:pageshadow="2"
     inkscape:zoom="3.959798"
     inkscape:cx="43.744226"
     inkscape:cy="5.617196"
     inkscape:document-units="px"
     inkscape:current-layer="layer1"
     showgrid="false"
     fit-margin-top="2"
     fit-margin-left="2"
     fit-margin-right="2"
     fit-margin-bottom="2"
     inkscape:window-width="1366"
     inkscape:window-height="733"
     inkscape:window-x="0"
     inkscape:window-y="0"
     inkscape:window-maximized="1"
     showborder="true"
     borderlayer="false" />
  <metadata
     id="metadata7">
    <rdf:RDF>
      <cc:Work
         rdf:about="">
        <dc:format>image/svg+xml</dc:format>
        <dc:type
           rdf:resource="http://purl.org/dc/dcmitype/StillImage" />
        <dc:title></dc:title>
      </cc:Work>
    </rdf:RDF>
  </metadata>
  <g
     inkscape:label="Layer 1"
     inkscape:groupmode="layer"
     id="layer1"
     transform="translate(-152.28125,-146.34738)">
    <g
       style="font-size:40px;font-style:normal;font-weight:normal;line-height:125%;letter-spacing:0px;word-spacing:0px;fill:#ffffff;fill-opacity:1;stroke:none;font-family:Sans"
       id="flowRoot2985">
      <path
         d="m 154.28125,148.34738 52.73437,0 0,52.73438 -52.73437,0 0,-52.73438 m 1.05469,1.05469 0,50.625 50.625,0 0,-50.625 -50.625,0 m 0.42187,0.63281 49.57031,0 0,49.57032 -49.57031,0 0,-49.57032 m 9.49219,0.84375 0.42187,0.63282 0,0.42187 c -1e-5,0.32818 -0.35157,0.53911 -1.05468,0.63281 l 0,-0.63281 c -1e-5,-0.2812 0.21092,-0.42182 0.63281,-0.42187 l 0,-0.21094 -0.42188,0 c -0.5625,0.14067 -0.84375,0.56255 -0.84375,1.26562 l 1.05469,0.21094 0.21094,0 c 0.56249,-0.23432 0.84374,-0.72651 0.84375,-1.47656 l -0.42188,-0.42188 -0.42187,0 m 14.97656,1.05469 c -2e-5,0.70318 0.63279,1.19536 1.89844,1.47656 2.10935,-0.4687 3.16403,-0.89057 3.16406,-1.26562 l -0.21094,0 -2.53125,0.63281 -0.63281,0 c -0.56252,-0.2812 -0.84377,-0.63276 -0.84375,-1.05469 l 0.21094,-0.63281 -0.21094,-0.21094 c -0.37502,0.0469 -0.65627,0.39849 -0.84375,1.05469 m -9.49219,-0.21094 0,0.42188 0.42188,0.63281 0,0.42188 -1.6875,0.21093 -2.74219,-1.89843 0,0.21093 c 1.07811,1.26568 2.20311,1.89849 3.375,1.89844 l 0.84375,0 0.63281,-0.63281 -0.42187,-1.26563 1.26562,-0.42187 c 2.81248,0.8438 4.21873,1.75786 4.21875,2.74219 l 0.42188,0 c -2e-5,-1.12495 -1.26565,-2.10933 -3.79688,-2.95313 l -1.26562,0 c -0.84377,0.0938 -1.26564,0.30474 -1.26563,0.63281 m 5.48438,0 0,0.21094 0.63281,-0.42187 0.42188,0 c 1.40622,5e-5 2.10935,1.12505 2.10937,3.375 -2e-5,0.5391 -0.4219,1.38285 -1.26562,2.53125 l 0,0.21093 0.21093,0 c 0.98435,-1.12495 1.47654,-2.17964 1.47657,-3.16406 l 0,-0.84375 c -3e-5,-1.0312 -0.70315,-1.87495 -2.10938,-2.53125 l -0.21094,0 c -0.84377,0.0938 -1.26564,0.30474 -1.26562,0.63281 m 6.96094,2.74219 c -3e-5,0.21099 0.28122,0.42192 0.84375,0.63281 1.3359,-2.10932 4.07809,-3.16401 8.22656,-3.16406 l 1.47656,0 1.05469,0.21094 c -4e-5,0.2813 -0.28129,0.42192 -0.84375,0.42187 l -0.21094,0.21094 0,0.21094 0.42188,0.42187 c -4e-5,-0.60932 0.84371,-0.96088 2.53125,-1.05468 2.22652,0.70317 3.35151,1.26567 3.375,1.6875 l 0,0.63281 c -5e-5,0.37505 -1.33598,0.93754 -4.00782,1.6875 -1.54691,1.19536 -3.30472,3.44535 -5.27343,6.75 l -0.42188,0.42187 0.21094,0 c 1.82809,-2.03902 3.37496,-4.07808 4.64062,-6.11718 1.10153,-0.7734 2.71871,-1.40621 4.85157,-1.89844 l 0.42187,-0.63281 0,-0.42188 -0.21094,-0.21094 0,-0.21093 0.63282,0 c -5e-5,0.93754 0.56245,1.8516 1.6875,2.74218 0.8437,1.99223 1.26557,3.60942 1.26562,4.85157 l 0,2.53125 c -5e-5,0.7266 -0.42192,1.99222 -1.26562,3.79687 0.2812,3e-5 0.42182,0.21097 0.42187,0.63281 l 0.21094,0 c 0.8437,-2.24996 1.26557,-4.49996 1.26562,-6.75 -5e-5,-4.80464 -2.46098,-8.10932 -7.38281,-9.91406 L 192.25,151.08957 c -3.39847,5e-5 -6.42191,1.12505 -9.07031,3.375 m 17.29687,-3.375 -0.21094,1.05469 0,0.21094 1.47657,1.47656 0,-0.21094 -0.84375,-1.47656 0.21093,-1.05469 -0.63281,0 m -41.97656,0.21094 0,0.21094 c 1.26562,5e-5 1.89843,0.49223 1.89844,1.47656 l 0,0.21094 c -1e-5,0.70317 -0.28126,1.54692 -0.84375,2.53125 l 0.21093,0 c 0.5625,-0.74996 0.84375,-1.38277 0.84375,-1.89844 l 0,-0.84375 c -0.0937,-1.12495 -0.58594,-1.68745 -1.47656,-1.6875 l -0.63281,0 m 44.50781,0.21094 -0.63281,1.89843 0.42187,1.89844 0.21094,0 0,-0.21094 -0.21094,-1.89843 0,-0.21094 0.84375,-0.84375 0.42188,0.42187 -0.42188,1.05469 0,0.21094 0.21094,0 0.42188,-1.47656 0,-0.63282 -1.05469,-0.21093 -0.21094,0 m -46.19531,0.21093 0.42187,0.42188 0,-0.42188 -0.42187,0 m 28.89844,0 -0.21094,0.21094 0,0.21094 0.63281,-0.21094 0,-0.21094 -0.42187,0 M 158.5,152.3552 l 0,0.84375 0.42187,0 0,-0.42188 L 158.5,152.3552 m -1.26563,0.84375 0,0.42187 0.42188,0 0,-0.84375 -0.42188,0.42188 m 29.32032,1.26562 c 0.2109,0.56255 0.42184,0.8438 0.63281,0.84375 l 0.21094,-0.21094 0.21093,0 -0.42187,-0.84375 1.26562,-1.47656 c -1.26565,0.51567 -1.89846,1.07817 -1.89843,1.6875 m -11.60157,-1.47656 0,1.6875 c 0.21092,1.54692 0.56248,2.32036 1.05469,2.32031 l 0.42188,0 c -0.84377,-0.91402 -1.26565,-1.68745 -1.26563,-2.32031 l 0,-0.63281 0.21094,-1.05469 -0.42188,0 m -13.5,1.05469 0,0.21093 c 0,0.21099 1.19531,0.8438 3.58594,1.89844 l 3.79688,6.11719 c 0.96092,-0.65621 2.08592,-1.1484 3.375,-1.47656 l -2.10938,-3.375 0,-1.05469 c -1e-5,-0.28121 0.84374,-1.05464 2.53125,-2.32031 l -0.21094,0 -4.00781,0.63281 -6.96094,-0.63281 m 9.07032,2.95312 c 1.2656,2.67192 2.17967,4.00785 2.74218,4.00781 l 0,-0.21093 -2.32031,-3.79688 c 0.70311,-1.26558 1.47655,-1.89839 2.32031,-1.89844 l 0,-1.05468 c -0.28126,4e-5 -0.42189,0.21098 -0.42187,0.63281 -1.54689,0.56255 -2.32033,1.33598 -2.32031,2.32031 m 18.5625,-2.95312 -0.21094,0.21093 0,0.42188 c -3e-5,0.30473 0.70309,0.51567 2.10937,0.63281 0.84372,0.6563 1.26559,1.2188 1.26563,1.6875 l -3.79688,5.48438 0,0.21093 1.6875,0.63282 c 3.16403,-5.34371 5.76559,-8.01558 7.80469,-8.01563 1.03121,5e-5 1.59371,-0.21089 1.6875,-0.63281 l 0,-0.63281 -5.69531,0.42187 -4.85156,-0.42187 m -13.07813,1.05468 0,0.63282 c 1.00779,-0.70308 1.92185,-1.05464 2.74219,-1.05469 l 0,-0.42188 -2.74219,0.84375 m 4.42969,-0.63281 0,0.21094 1.47656,0.21094 0.21094,0 0,-0.21094 -0.84375,-0.21094 -0.84375,0 m -18.77344,0.42188 0,0.21093 c 0.63281,0.70317 1.40624,1.05474 2.32031,1.05469 l 0.21094,0 0,-0.21094 -2.53125,-1.05468 m 20.67188,0 1.6875,1.89843 0,0.63282 -0.63282,0.84375 0.21094,0 c 0.56247,-0.14059 0.84372,-0.56246 0.84375,-1.26563 -3e-5,-0.6562 -0.63284,-1.35933 -1.89844,-2.10937 l -0.21093,0 m -5.0625,0.63281 c -3e-5,1.75786 -0.77346,2.81254 -2.32032,3.16406 l -0.42187,-0.42187 0.21094,-0.21094 -0.21094,0 -0.21094,0.21094 0,-0.21094 0.63281,-1.6875 -0.21093,0 c -0.37502,4e-5 -0.65627,0.56254 -0.84375,1.6875 l 0,0.42187 c -2e-5,0.32817 0.35154,0.53911 1.05468,0.63282 1.68748,-0.35152 2.53123,-1.3359 2.53125,-2.95313 l 0,-0.63281 -0.21093,0 m 12.44531,0 0,0.21094 1.89844,0.63281 c -4e-5,-0.37496 -0.56254,-0.65621 -1.6875,-0.84375 l -0.21094,0 m -7.38281,0.21094 c -1.33597,1.80473 -2.1094,4.12504 -2.32032,6.96093 l 0.21094,0.84375 c 0.3281,4e-5 0.60935,-0.77339 0.84375,-2.32031 l 0.63281,0 0,2.10938 c 0.63279,1.1016 1.19529,1.73441 1.6875,1.89843 l 0.84375,0 0,-1.05468 1.05469,0.21093 0.42188,0 0.63281,-0.63281 0,-0.42187 c -3e-5,-0.65621 -0.70316,-1.49996 -2.10938,-2.53125 l 0.21094,-0.21094 -0.21094,0 -0.21093,0.21094 0,-0.84375 0.42187,-0.63282 -0.21094,0 c -0.56252,0.23442 -0.84377,0.72661 -0.84375,1.47657 -2e-5,1.03129 0.77341,1.6641 2.32032,1.89843 l 0.21093,0.21094 0,0.21094 -0.42187,0.42187 -0.42188,0 c -1.12502,4e-5 -1.89846,-0.84371 -2.32031,-2.53125 l 0,-2.53125 0.63281,-2.10937 -1.05468,-0.63281 m 4.21875,0.42187 0.42187,0.42188 0.42188,-0.42188 -0.42188,-0.42187 -0.42187,0.42187 m 1.47656,-0.21094 0,0.42188 0.84375,0.63281 0.21094,-0.21094 0,-0.21093 -0.63282,-0.63282 -0.42187,0 m -30.58594,0.63282 0,0.21093 0.42188,0.63282 0,1.47656 0.42187,0 0.21094,-0.21094 1.05469,0.42188 1.05468,-2.10938 c -0.42188,5e-5 -0.84375,0.49223 -1.26562,1.47656 l -0.63281,0 c -1e-5,-0.93745 -0.35157,-1.57026 -1.05469,-1.89843 l -0.21094,0 m 29.74219,0.21093 0,0.63282 0.42187,0.42187 0.42188,-0.42187 0,-0.42188 -0.84375,-0.21094 m -1.6875,0.63282 0,0.21093 0.63281,0 0.42188,-0.42187 0,-0.21094 -0.63282,0 -0.42187,0.42188 m 10.33594,1.47656 0.21093,0 -0.63281,1.05469 c -4e-5,1.03129 0.70309,1.80472 2.10938,2.32031 l -0.84375,-2.10938 0,-0.42187 c 0.18745,-1.68746 0.60933,-2.53121 1.26562,-2.53125 l 0,-0.21094 -0.21094,0 c -1.26566,0.16411 -1.89847,0.79692 -1.89843,1.89844 m -7.59375,-0.63281 0.42187,0 0.42188,-0.42188 0,-0.21094 -0.21094,0 -0.63281,0.63282 m 9.28125,1.6875 0,0.21093 0.21093,0 1.05469,-0.42187 -0.63281,1.26562 c 0.21089,1.12504 0.77339,1.68754 1.6875,1.6875 0.70308,-0.0937 1.05464,-0.30464 1.05469,-0.63281 -0.75005,4e-5 -1.24224,-0.28121 -1.47657,-0.84375 l 0,-0.63281 0.84375,-0.84375 1.05469,0 c 1.26558,0.89066 1.89839,2.50785 1.89844,4.85156 l 0.21094,0 0,-1.47656 c -0.32818,-3.51558 -1.52349,-5.27339 -3.58594,-5.27344 -1.54692,0.28129 -2.32036,0.98442 -2.32031,2.10938 m -19.82813,-1.89844 0,0.21094 c -2e-5,0.3516 0.63279,0.63285 1.89844,0.84375 l 0.63281,0 0,-0.21094 c -0.70315,4e-5 -1.5469,-0.28121 -2.53125,-0.84375 m 8.64844,0 -0.63281,1.6875 c 0.67965,1.96879 1.38278,2.95316 2.10937,2.95312 l 0,-0.21093 c -1.26565,-1.00778 -1.89847,-1.92184 -1.89844,-2.74219 l 0.84375,-1.6875 -0.42187,0 m 0.84375,0.42187 0,0.63282 0.42187,0.42187 0.42188,-0.42187 0,-0.21094 -0.42188,-0.42188 -0.42187,0 m -24.25781,2.95313 -0.21094,-0.21094 -0.84375,0 c -1e-5,1.33598 1.40624,2.6016 4.21875,3.79688 l 1.05469,1.47656 0,0.21094 -0.42188,0 c -1e-5,-0.42184 -0.4922,-0.98434 -1.47656,-1.6875 l -0.21094,0 c -1e-5,0.42191 -0.14063,0.63284 -0.42187,0.63281 -1.00782,-0.70309 -1.78126,-1.05465 -2.32032,-1.05469 0.21093,1.14847 0.49218,1.92191 0.84375,2.32031 l -0.63281,0.42188 c 0.35156,0.98441 1.12499,1.47659 2.32031,1.47656 l 0,0.42188 -0.42187,0.42187 -0.42188,0 0.21094,-0.21094 0,-0.21093 c -1.00782,3e-5 -1.92188,-0.98435 -2.74219,-2.95313 -0.79688,-0.70309 -1.5,-1.05465 -2.10937,-1.05469 l -0.42188,0 0.21094,1.05469 c -1.26563,4e-5 -1.89844,0.63285 -1.89844,1.89844 0,1.10159 0.42188,1.87503 1.26563,2.32031 l 0.21094,0 0,-0.21094 c -0.42188,4e-5 -0.77344,-0.28121 -1.05469,-0.84375 l 0,-0.84375 c 0.1875,-1.26559 0.82031,-1.8984 1.89844,-1.89843 0.74999,3e-5 1.87499,1.19534 3.375,3.58593 l 0.84375,0.42188 0,-0.21094 -1.05469,-0.84375 0.21094,-0.21094 0.21093,0 c 0,0.39847 0.70312,0.67972 2.10938,0.84375 -1e-5,-0.42184 0.21093,-0.63278 0.63281,-0.63281 l 0,0.42188 0.21094,0 0.21094,-0.63282 c -0.0938,-0.51559 -0.65626,-1.35934 -1.6875,-2.53125 l 0.21093,0 c 0.70312,0.32816 1.40624,0.96098 2.10938,1.89844 l 0,0.84375 -0.84375,0.84375 -0.21094,-0.21094 -0.21094,0.21094 -0.21093,-0.21094 c -1e-5,0.28128 -0.28126,0.42191 -0.84375,0.42188 l 0,0.21094 1.05468,0 c 1.49999,3e-5 2.41405,-1.12497 2.74219,-3.375 -1e-5,-0.96091 -0.91407,-2.43747 -2.74219,-4.42969 l 0.21094,-0.21094 -0.21094,0 -0.21093,0.21094 c -0.98439,-1.35934 -1.47657,-2.2734 -1.47657,-2.74219 l 0.84375,-1.47656 -0.84375,0 c -0.70313,4e-5 -1.05469,0.84379 -1.05468,2.53125 m 14.13281,-2.53125 -0.63281,2.74219 0,1.26562 c -2e-5,1.1016 0.35154,1.94535 1.05468,2.53125 l 0.21094,0 0,-0.21094 c -0.65627,-0.9609 -1.00783,-1.87496 -1.05469,-2.74218 l 0.21094,-1.26563 -0.21094,0 c 0.56248,-1.03121 0.84373,-1.80464 0.84375,-2.32031 l -0.42187,0 m 17.50781,1.47656 1.89844,2.32031 0.21094,-0.21093 c -4e-5,0.42191 0.14058,0.63285 0.42187,0.63281 l 0,0.63281 -0.63281,0.63281 0,-0.63281 -0.21094,0 0,0.42188 -0.42187,-0.42188 0,-0.63281 0.42187,0 0,-0.21094 -0.21094,0 -0.63281,0.21094 c -0.42191,-0.70309 -0.9141,-1.05465 -1.47656,-1.05469 l -0.21094,0.21094 0,0.21094 0.42188,0.84375 -0.63282,0 -0.63281,-0.42188 -1.89844,0.63281 c 0.11716,0.65629 0.60934,1.2891 1.47657,1.89844 l -0.42188,0.42188 0.63281,0.42187 2.74219,0 0.42188,0.42188 0,0.84375 -1.26563,0 0,-0.42188 -0.84375,0.21094 c -1.78129,-0.84372 -2.9766,-1.26559 -3.58594,-1.26563 l -0.21093,0 0,0.63282 0.21093,0.21093 0,0.21094 c -1.12503,0.14066 -1.68753,0.70316 -1.6875,1.6875 l 0,0.42188 0.42188,0.42187 c -3e-5,-0.53903 0.49215,-0.9609 1.47656,-1.26562 l 5.0625,0.42187 c 0.63277,-0.28122 0.98434,-0.56247 1.05469,-0.84375 l 0,-0.63281 -0.21094,-0.21094 0,-0.21094 0.63281,0 c 0.42184,0.14066 0.63277,0.56254 0.63282,1.26563 l 0,0.42187 c -1.00786,1.96878 -3.5391,2.95316 -7.59375,2.95313 l 0,0.21094 2.10937,0 c 4.07809,-0.49216 6.11715,-2.10935 6.11719,-4.85157 l -0.63281,-1.26562 c 0.70308,-0.28121 1.05464,-0.70309 1.05468,-1.26563 -4e-5,-0.89058 -0.70316,-1.59371 -2.10937,-2.10937 -0.84379,-0.56246 -1.26567,-1.19527 -1.26563,-1.89844 l 0,-0.42187 0.21094,-1.05469 c -0.37504,4e-5 -0.65629,0.49223 -0.84375,1.47656 m -35.01562,0.21094 0.42187,1.47656 0.21094,0 0,-0.21094 -0.42188,-1.05468 0.84375,-1.26563 0.84375,0.42188 0,-0.21094 c 0,-0.35152 -0.28125,-0.56246 -0.84375,-0.63281 -0.46875,4e-5 -0.82031,0.49223 -1.05468,1.47656 m 22.35937,-1.6875 0.21094,0.21094 0,0.63281 -0.42188,0 -0.42187,-0.42188 0.63281,-0.42187 m -23.41406,0.42187 0,1.26563 0.21094,0 0,-1.26563 -0.21094,0 m 6.75,0 0,1.26563 0.21094,1.05469 0.84375,0 0.42187,-0.42188 0,-0.21094 c -0.84376,4e-5 -1.26563,-0.56246 -1.26562,-1.6875 l -0.21094,0 m 16.03125,0.63282 0.84375,0 0,0.42187 -0.42188,0 -0.42187,-0.42187 m -22.57031,0.84375 0,0.42187 0.21093,0 0,-0.42187 -0.21093,0 m 22.78125,-0.21094 0.42187,0 0.63281,0.63281 -0.21093,0 -1.89844,-0.21094 0,-0.21093 1.05469,-0.21094 m -13.07813,3.58594 0,1.47656 c 0.84374,1.26566 1.68749,1.89847 2.53125,1.89844 l 0.84375,0 c -2e-5,-0.18747 -0.63283,-0.46872 -1.89844,-0.84375 -0.70313,-0.72653 -1.0547,-1.35934 -1.05468,-1.89844 l 0,-0.21094 c 0.32811,-1.82808 1.59373,-2.74215 3.79687,-2.74219 l 1.05469,0 2.10937,0.42188 c -0.23439,-0.56246 -0.72658,-0.84371 -1.47656,-0.84375 l -2.10937,0 c -2.13283,4e-5 -3.39845,0.9141 -3.79688,2.74219 m -10.96875,-2.32032 -0.42187,1.05469 0,0.21094 0.21093,0 0.21094,-0.84375 0.84375,0 0.84375,0.63281 0,-0.21094 c -0.67969,-0.56246 -1.24219,-0.84371 -1.6875,-0.84375 m 1.89844,0.42188 0,0.21094 c 0.28124,4e-5 0.42187,0.21097 0.42187,0.63281 l 0.42188,0 -0.84375,-0.84375 m 10.33594,1.05469 7.38281,10.96875 0.21094,0 4.85156,0.42187 c 0.86716,-1.6406 1.57028,-2.62497 2.10937,-2.95312 l 0,0.21093 -1.6875,2.95313 0.42188,0 7.17187,-10.33594 0,-0.21094 -0.21093,0 c -0.46879,0.32817 -1.80472,2.2266 -4.00782,5.69532 l -1.6875,1.6875 0,-0.21094 5.0625,-7.38281 -1.47656,-0.84375 -6.96094,9.91406 -0.42187,0 c -0.32815,-0.8906 -2.78909,-4.54684 -7.38281,-10.96875 -1.1719,4e-5 -2.29689,0.3516 -3.375,1.05469 m 4.21875,-1.05469 0,0.42187 6.96093,10.125 0,-0.42187 0.21094,0 -6.96094,-10.125 -0.21093,0 m 3.375,0.21094 0,0.63281 c 0.8906,4e-5 1.59372,0.9141 2.10937,2.74219 l 0,0.42187 -1.05469,0.21094 0,0.21094 0.42188,0 0,0.21093 c 0.63279,-0.28121 0.98435,-0.56246 1.05469,-0.84375 l 0,-0.21093 c -3e-5,-1.1484 -0.84378,-2.2734 -2.53125,-3.375 m -16.24219,0.21093 0,0.21094 0.42187,0 0,-0.21094 -0.42187,0 m 20.03906,0.63282 -1.05469,1.47656 0.21094,0 c 0.23435,4e-5 0.58591,-0.49215 1.05469,-1.47656 l -0.21094,0 m -20.46094,0.42187 0.42188,0.42188 0.21094,0 0,-0.42188 -0.63282,0 m 38.17969,2.74219 0,0.21094 0.21094,0 c -4e-5,-1.05466 0.49214,-1.82809 1.47656,-2.32032 l 0.84375,0.21094 0.21094,0 c -5e-5,-0.35152 -0.2813,-0.56246 -0.84375,-0.63281 -1.26567,0.56254 -1.89848,1.40629 -1.89844,2.53125 m -17.50781,-2.10938 -0.84375,1.26563 0.21094,2.74219 -0.42188,1.26562 0.21094,0 c 0.7031,-0.2109 1.05466,-0.91403 1.05469,-2.10937 l 0,-0.42188 0.63281,0 0,0.42188 0.42187,-0.42188 0,-0.21094 c -2e-5,-1.10152 -0.4219,-1.94527 -1.26562,-2.53125 m 13.07812,0 c 1.96871,0.37504 2.95309,1.00785 2.95313,1.89844 l -0.21094,0 c -0.7266,-0.65621 -1.8516,-1.1484 -3.375,-1.47656 l 0,-0.21094 0.63281,-0.21094 m -33.11718,0.63282 0,0.42187 0.42187,0 0,-0.42187 -0.42187,0 m 41.76562,0 0,0.42187 0.21094,0 0,-0.42187 -0.21094,0 m -25.3125,1.26562 1.05469,-0.42187 0,-0.21094 -0.21094,0 -0.84375,0.63281 m 5.48438,-0.21094 0,0.21094 1.26562,0.63281 0.21094,-0.21093 0,-0.21094 c -0.65628,3e-5 -1.14847,-0.14059 -1.47656,-0.42188 m 16.45312,1.26563 c 0.70308,3e-5 1.05464,0.63284 1.05469,1.89844 -5e-5,1.19534 -1.19536,2.74221 -3.58594,4.64062 l -0.21094,0 0.21094,0.63281 -0.21094,0.63282 0.21094,0 c 2.01558,2e-5 3.91402,-1.40623 5.69531,-4.21875 0.70308,-0.18747 1.05464,-0.39841 1.05469,-0.63282 l -1.05469,0 c -1.6641,2.27347 -2.92973,3.46878 -3.79687,3.58594 l 0,-0.21094 c 2.39058,-1.8984 3.58589,-3.51559 3.58594,-4.85156 l -0.42188,-0.42187 -0.21094,0 -0.21093,0.21093 -0.21094,0 c -5e-5,-1.12496 -0.42192,-1.68746 -1.26563,-1.6875 l -0.21093,0 -0.42188,0.42188 m -16.03125,0 0,0.42187 0.42188,0 -0.42188,-0.42187 m -0.84375,0.42187 0,0.63282 0.84375,0.21093 0,-0.21093 -0.63281,-0.63282 -0.21094,0 m -13.92187,1.05469 0,0.42188 0.42187,0 -0.42187,-0.42188 m 22.78125,0.42188 c -4e-5,0.9844 -0.9141,1.47659 -2.74219,1.47656 l 0,0.21094 2.53125,0 0.84375,-0.84375 0,-0.42188 -0.42188,-0.42187 -0.21093,0 m -9.28125,0.42187 -0.42188,0.84375 0.21094,0 0.42187,-0.63281 0,-0.21094 -0.21093,0 m -14.13282,0.21094 0,0.42187 0.42188,0 0,-0.42187 -0.42188,0 m 1.89844,1.6875 0,0.21094 0.42188,0.42187 0,-1.26562 1.05468,-0.21094 0.21094,0 1.05469,0.63281 0,0.63281 c -2e-5,0.93753 -0.49221,1.85159 -1.47656,2.74219 l 0.21093,0 c 1.40624,-1.00778 2.17967,-1.99216 2.32032,-2.95312 -2e-5,-0.65622 -0.63283,-1.28904 -1.89844,-1.89844 -1.26564,0.23441 -1.89845,0.7969 -1.89844,1.6875 m -11.17969,-1.05469 0,0.21094 c 1.125,3e-5 1.6875,0.21097 1.6875,0.63281 l 0,0.21094 0.63282,0 -0.21094,-1.05469 -2.10938,0 m 27.84375,0 0.42188,0.42188 0.21094,0 -0.42188,-0.42188 -0.21094,0 m -19.40625,0.42188 0,0.42187 0.42188,0 0,-0.42187 -0.42188,0 m 18.98438,0.21093 0,0.21094 0.42187,0 0,-0.21094 -0.42187,0 m 1.6875,0 0,0.21094 0.42187,0 0,-0.21094 -0.42187,0 m -21.72656,0.63282 0.42187,0 0,-0.42188 -0.42187,0.42188 m 22.35937,-0.42188 0,0.21094 0.42188,0 0,-0.21094 -0.42188,0 m -29.32031,0.63281 0.63281,0 0,-0.42187 -0.21094,0 -0.42187,0.42187 m 28.05469,-0.42187 0,0.21094 c 0.56246,3e-5 1.19528,0.49221 1.89843,1.47656 l 0,0.84375 -0.21093,0.21094 0,0.21093 c 0.37496,-0.0468 0.65621,-0.39841 0.84375,-1.05468 -4e-5,-0.74997 -0.77347,-1.38279 -2.32032,-1.89844 l -0.21093,0 m 7.80468,0 0.42188,0.63281 c -4e-5,1.5469 -1.89848,2.46097 -5.69531,2.74219 l -0.21094,0.63281 0.42187,0.84375 -2.53125,0.21094 -1.05468,0 c -4.59378,-1.2656 -8.03909,-1.89841 -10.33594,-1.89844 -3.96096,0.14065 -6.07033,0.56253 -6.32813,1.26563 l 0,0.21093 c 1.59374,-0.7031 3.28124,-1.05466 5.0625,-1.05468 2.06248,2e-5 5.99998,0.70315 11.8125,2.10937 l 2.10938,0.21094 1.26562,-0.21094 c -3e-5,0.70315 0.14059,1.05471 0.42188,1.05469 l 0.42187,0 c 2.01559,2e-5 4.54684,-0.56248 7.59375,-1.6875 l 1.6875,0.63281 0,-0.21094 c -4e-5,-0.42185 -0.42192,-0.63278 -1.26562,-0.63281 l 0,-0.21094 0.21094,-0.63281 -0.21094,0 -0.84375,-0.21094 -0.84375,0.21094 0,-0.21094 c -2.69535,0.9844 -4.38285,1.47659 -5.0625,1.47657 l -0.42188,-0.42188 0,0.21094 0.21094,0.21094 -0.63281,0 0,-1.05469 0.63281,0.42187 0.42188,-0.42187 1.6875,0 c 0.84371,2e-5 1.54683,-0.42185 2.10937,-1.26563 l 0,-0.42187 -0.21094,-0.21094 0.42188,-1.26562 0,-0.84375 -1.05469,-0.21094 -0.21094,0 m 2.53125,0 0,0.84375 0.21094,0 0.21094,-0.84375 -0.42188,0 m -31.00781,2.95312 0,0.21094 0.21094,0 c 0.84374,-1.49997 1.26561,-2.48434 1.26562,-2.95312 l -0.21093,0 c -0.21095,3e-5 -0.4922,0.70315 -0.84375,2.10937 l -0.42188,0.63281 m -5.27344,-1.89843 0.21094,0.21093 0.21094,0 0.42187,-0.42187 0,-0.21094 -0.42187,0 -0.42188,0.42188 m 2.74219,-0.21094 0,0.21094 c 0.56249,0.0703 0.84374,0.28128 0.84375,0.63281 l 0,0.21094 -0.21094,1.47656 -0.21093,-0.21094 -0.21094,0 0,0.21094 0.21094,0.21094 0.21093,0 c 0.56249,-0.74998 0.84374,-1.38279 0.84375,-1.89844 l 0,-0.21094 -0.84375,-0.84375 -0.63281,0.21094 m -4.00781,0.42187 0,0.21094 0.21094,0 0.42187,-0.42187 0,-0.21094 -0.21094,0 -0.42187,0.42187 m 41.76562,0.63282 0,0.21093 1.05469,-0.63281 1.05469,0.21094 0,-0.42188 c -5e-5,-0.28122 -0.21099,-0.42184 -0.63281,-0.42187 -0.91411,0.37503 -1.4063,0.72659 -1.47657,1.05469 m -35.64843,-0.84375 0.21093,1.05468 0.21094,0 0,-1.05468 -0.42187,0 m -8.64844,0.42187 -0.21094,1.05469 0.21094,0.21094 0.42187,0 -0.21093,-0.21094 0,-0.63281 0.21093,-0.21094 0,-0.21094 -0.42187,0 m 28.26562,0 0,0.21094 c 0.7031,0.0938 1.05466,0.44534 1.05469,1.05469 -0.2344,0.84377 -0.86722,1.26565 -1.89844,1.26562 l 0,0.21094 1.05469,0 c 0.58591,-0.18748 1.00778,-0.53904 1.26563,-1.05469 l 0,-0.42187 c -4e-5,-0.72654 -0.21097,-1.14841 -0.63282,-1.26563 l -0.84375,0 m 15.60938,0.63281 -0.21094,0.21094 0,0.21094 0.21094,0 0.21094,-0.21094 0,-0.21094 -0.21094,0 m -0.63281,3.16407 0,0.84375 c 0.0234,1.07814 0.86714,2.48439 2.53125,4.21875 l 0,-0.21094 -1.6875,-2.74219 0.21093,-0.21094 -0.21093,0 -0.21094,0.21094 -0.21094,-1.47656 c -4e-5,-1.03123 0.42183,-1.80466 1.26563,-2.32031 0.60932,0.14065 0.96089,0.49221 1.05468,1.05468 -0.84379,1.07815 -1.26567,1.85159 -1.26562,2.32032 l 0,0.21093 c -5e-5,0.84378 0.2812,1.26565 0.84375,1.26563 l 0.21094,0 0,-0.21094 c -0.56255,2e-5 -0.8438,-0.21091 -0.84375,-0.63281 l 0,-0.84375 c 1.12495,-1.12498 1.68745,-1.96873 1.6875,-2.53125 -5e-5,-0.63279 -0.56255,-1.19529 -1.6875,-1.6875 -1.12505,0.65628 -1.68755,1.57034 -1.6875,2.74219 m -38.39063,-2.53125 -0.42187,0.63281 -2.10938,0.21094 0.84375,2.32031 0,0.42187 c 0,1.19534 -0.63282,3.2344 -1.89844,6.11719 -0.98437,2.01564 -1.47656,4.40626 -1.47656,7.17188 l 0.21094,0.21093 0,0.21094 -0.21094,0.21094 0,0.21094 c 0.82031,3.09375 1.52344,4.64063 2.10938,4.64062 l 0.42187,0 1.05469,-0.21094 c -1.40626,-1.78124 -2.10938,-3.74999 -2.10938,-5.90625 0,-4.92186 1.54687,-8.29685 4.64063,-10.125 1.24218,-0.7031 2.57811,-1.05466 4.00781,-1.05468 l 0.42188,0 0,0.21093 c -3.6797,3e-5 -6.21095,1.89846 -7.59375,5.69532 l 0,0.21093 -0.21094,-0.21093 -0.21094,0 0.21094,0.21093 0,0.21094 -0.21094,0.63281 c 1.66406,-1.68748 3.21093,-2.53123 4.64063,-2.53125 l 3.16406,1.05469 0.21094,-0.21094 0,-0.21093 -0.21094,-0.21094 0.63281,0 1.47656,0.21094 0.21094,-0.21094 c -1e-5,-0.35155 -0.4922,-0.91405 -1.47656,-1.6875 l 0.42187,0 0,-0.42188 -1.6875,-0.42187 -2.10937,0.21094 -0.21094,-0.21094 0,-0.21094 0.63281,-0.63281 4.64063,0.63281 0.63281,-0.21094 0,-0.21093 -0.42187,-0.63282 0,-0.21093 0.42187,0 c 1.12498,2e-5 2.03905,-0.56248 2.74219,-1.6875 l 0,-0.21094 -2.32031,-0.21094 -0.63282,0.21094 -0.63281,-0.21094 0.42188,-0.63281 0,-0.21094 -0.42188,0 c -0.89064,3e-5 -1.94532,0.4219 -3.16406,1.26563 l -0.84375,0 0,-0.21094 c 0.0937,-0.42185 1.0078,-0.98435 2.74219,-1.6875 l 0.21093,-0.63281 -0.21093,0 0.21093,-0.21094 0,-0.84375 c -1.68751,3e-5 -2.53126,0.49221 -2.53125,1.47656 l -0.21093,0 c -0.28126,3e-5 -0.42189,-0.21091 -0.42188,-0.63281 -1.40626,0.58596 -2.53126,1.9219 -3.375,4.00781 -0.65626,0.70315 -1.14844,1.05471 -1.47656,1.05469 l 0.21094,0.21094 0,0.42187 -0.84375,0 0,-0.63281 c 0.28124,2e-5 0.42187,-0.28123 0.42187,-0.84375 l 0.21094,0.21094 0.21094,0 0.84375,-1.6875 -0.21094,0 -0.21094,0.21093 0,-0.21093 0.42188,-1.89844 -0.21094,-0.63281 0.42187,0 0.21094,0.84375 -0.42187,1.47656 c 0.84374,-0.79685 1.26561,-1.71091 1.26562,-2.74219 -1e-5,-0.7031 -0.28126,-1.12497 -0.84375,-1.26562 m 35.4375,-0.21094 0,0.63281 -0.42187,0 0,-0.21094 0.42187,-0.42187 m -39.44531,3.375 c -0.28125,2e-5 -0.42188,-0.21091 -0.42188,-0.63281 l -0.42187,0 -0.42188,1.6875 0.21094,0.84375 0.63281,-0.42188 0.21094,0 0.21094,1.05469 -0.42188,1.26562 c 0.84375,-0.44529 1.26562,-1.21872 1.26563,-2.32031 l 0,-0.42187 0.63281,0 0,-0.21094 -1.05469,-2.32031 0.42188,-0.84375 -0.21094,0 c -0.42188,2e-5 -0.63281,0.77346 -0.63281,2.32031 m 32.27344,-1.89844 0.42187,0 0,0.63281 0.21094,1.05469 c -0.56254,-0.21091 -0.84379,-0.42185 -0.84375,-0.63281 l 0.21094,-1.05469 m -12.65625,0.63281 0,0.21094 -0.21094,15.39844 c -0.37502,0.70313 -1.64065,1.40626 -3.79688,2.10937 l 0,0.21094 1.05469,0.21094 4.85156,-0.42188 5.69532,0.42188 0,-0.42188 c -2.81253,-0.65624 -4.21878,-1.85155 -4.21875,-3.58593 l 0.21093,-4.42969 0,-4.64063 -0.21093,-4.64062 -3.375,-0.42188 m -6.75,0.42188 0,0.42187 2.10937,-0.21093 1.05469,0 c 1.03123,2e-5 2.0156,0.21096 2.95312,0.63281 l 0,-0.42188 c -1.50002,-0.42185 -2.76564,-0.63278 -3.79687,-0.63281 l -0.84375,0 -1.47656,0.21094 m 10.75781,0.21094 0,13.92187 c -3e-5,0.70314 0.35153,1.33595 1.05469,1.89844 l 0,-0.21094 c -0.42191,-0.72655 -0.63284,-1.42968 -0.63282,-2.10937 l 0,-13.5 -0.42187,0 m -16.03125,0 0.21094,0 c -0.56251,0.7969 -1.33595,1.42971 -2.32032,1.89843 l -0.42187,-0.42187 2.53125,-1.47656 m 8.01562,0.63281 0,0.21094 0.63282,0 0,-0.21094 -0.63282,0 m 0.84375,0.21094 0,0.21093 c 0.72655,3e-5 1.21873,0.63284 1.47657,1.89844 l 0,0.84375 c -2e-5,0.39846 -0.56252,0.67971 -1.6875,0.84375 l -0.63282,-0.63281 0,0.42187 0.84375,0.84375 0.63282,0 0.63281,-0.42187 0.42187,0 0,0.42187 0.63282,-0.21093 0,-0.21094 0.21093,-1.89844 c -0.60939,-1.40623 -1.38283,-2.10935 -2.32031,-2.10937 l -0.21094,0 m -9.07031,0.21093 0.21094,1.26563 -0.63281,-0.63281 0,-0.21094 0.42187,-0.42188 m 17.29688,0.21094 0,0.21094 0.84375,0.21094 0.21093,0 0,-0.21094 -0.63281,-0.21094 -0.42187,0 m 2.53125,0 -0.21094,0.21094 0,0.21094 0.42187,0.42187 0.21094,0 0,-0.42187 -0.42187,-0.42188 m 11.39062,0.42188 0,0.21093 0.84375,0.84375 0,-0.21093 c -0.28129,2e-5 -0.42192,-0.42186 -0.42187,-1.26563 l -0.42188,0.42188 m -12.65625,0 0,0.21093 0.63281,0.42188 0.21094,0 c -3e-5,-0.21092 -0.28128,-0.42185 -0.84375,-0.63281 m -19.61719,0 0.42188,0.42187 0,0.21094 -0.42188,-0.42188 0,-0.21093 m 21.72657,0.42187 0,0.42188 0.42187,0 0,-0.42188 -0.42187,0 m 2.32031,1.26563 0.63281,1.05468 0,0.21094 c -0.42191,2e-5 -0.63284,0.14065 -0.63281,0.42188 l 0.21094,0.21093 1.26562,0 2.32031,-0.84375 0.21094,0 0,0.63282 c -0.67972,2e-5 -1.1016,0.56252 -1.26562,1.6875 l 0.21093,0 0.21094,-0.21094 0.21094,0 c 0.0468,0.70314 0.25777,1.0547 0.63281,1.05469 l 0.21094,-0.21094 0.21094,0 -0.42188,-1.26563 c 0.74996,-1.54685 1.73434,-2.32029 2.95313,-2.32031 l 1.6875,0 c 2.85933,2e-5 5.03901,1.96877 6.53906,5.90625 l 0,1.26563 c -5e-5,2.15626 -0.70317,4.05469 -2.10938,5.69531 l 0,0.21094 0.21094,0.21093 0.21094,0 c 1.4062,-2.08592 2.10932,-3.98436 2.10937,-5.69531 l 0,-1.05469 c -5e-5,-3.35154 -1.96879,-5.67185 -5.90625,-6.96093 l -0.84375,-0.21094 -1.05468,0 c -1.07817,2e-5 -2.27348,0.21096 -3.58594,0.63281 l 0.42187,0.63281 0,0.42188 c -0.28128,2e-5 -0.42191,-0.21092 -0.42187,-0.63281 l -0.21094,-0.21094 -0.21094,0 -1.05468,0.42187 c -0.7266,2e-5 -1.2891,-0.35154 -1.6875,-1.05468 l 0,-1.05469 -0.21094,0 c -0.28129,0.0703 -0.56253,0.4219 -0.84375,1.05469 m -4.85156,-0.21094 0,0.42187 0.84375,0 0,-0.42187 -0.42188,-0.42188 -0.42187,0.42188 m 1.47656,0.21094 0.42187,0.42187 0.42188,0 0.21094,-0.63281 -0.21094,-0.21094 -0.42188,0 -0.42187,0.42188 m 2.10937,0 0,0.42187 0.42188,0.42188 0,-0.42188 -0.42188,-0.42187 m -1.05468,0.63281 0,0.63281 0.42187,0 0,-0.63281 -0.42187,0 m -1.47657,0.21094 0,0.21093 0.42188,0 0,-0.21093 -0.42188,0 m -20.67187,0 0.21094,0 0,0.84375 -0.21094,0 -0.42188,-0.42188 0.42188,-0.42187 m 6.53906,1.05468 c 1.47655,2e-5 2.8828,1.19533 4.21875,3.58594 l 0.63281,2.32031 0,1.89844 c -2e-5,0.72657 -0.28127,1.64064 -0.84375,2.74219 l 0.42188,0 c 0.49217,1e-5 0.84373,-0.77343 1.05469,-2.32031 l 0,-1.89844 c -2e-5,-3.51561 -1.5469,-5.83592 -4.64063,-6.96094 -0.56251,0.21096 -0.84376,0.4219 -0.84375,0.63281 m 12.23438,-0.63281 0,0.63281 c 0.84372,0.72659 1.61715,2.97658 2.32031,6.75 -3e-5,1.73439 1.40622,3.77345 4.21875,6.11719 0.28121,1e-5 0.42184,0.21095 0.42187,0.63281 1.68747,0.89063 2.53122,1.52345 2.53125,1.89844 l 0,0.63281 0.63282,0 0,-0.63281 -2.95313,-2.10937 0.21094,0 2.95312,1.26562 1.26563,0 0,-0.63281 c -2.15629,0 -4.4766,-1.33593 -6.96094,-4.00781 -0.98441,-0.72656 -1.89847,-3.32812 -2.74219,-7.80469 -0.21096,-1.0078 -0.84377,-1.92186 -1.89843,-2.74219 m -22.99219,0 0.63281,0.63281 -0.21094,0.21094 -0.42187,0 0,-0.84375 m 2.95312,0 0.21094,0 0.21094,0.84375 -0.21094,-0.21094 -0.21094,0 0,0.42188 -0.21093,0 -0.42188,-0.42188 0,-0.21093 c 0.42187,2e-5 0.63281,-0.14061 0.63281,-0.42188 m 22.78125,0.21094 0,0.42187 0.42188,0 -0.42188,-0.42187 m 1.05469,0.21094 0,0.42187 0.63281,0 -0.42187,-0.42187 -0.21094,0 m -17.08594,0.42187 0,0.21094 0.84375,0 0,-0.21094 -0.84375,0 m 29.74219,0 0,0.21094 0.84375,0 0,-0.21094 -0.84375,0 m -34.17187,0 c 1.12499,0.25783 1.68748,0.53908 1.6875,0.84375 l -1.6875,-0.42187 c -1.50001,2e-5 -2.83595,0.56251 -4.00782,1.6875 l -0.21093,-0.21094 0,-0.21094 c 1.35936,-1.12498 2.76561,-1.68748 4.21875,-1.6875 m 5.69531,0.21094 0,0.21094 c 0.86717,0.14064 1.57029,0.70314 2.10937,1.6875 l 0,0.84375 c -1e-5,0.42189 -0.35158,0.63282 -1.05468,0.63281 l 0,0.21094 1.05468,0 0.63282,-0.63282 0,-1.05468 c -0.37502,-0.70311 -1.21877,-1.33592 -2.53125,-1.89844 l -0.21094,0 m 24.89062,1.26562 0,0.63282 0.84375,1.26562 -0.21093,0 -1.6875,-1.47656 c -0.84379,0.18752 -1.26567,1.03127 -1.26563,2.53125 l 0.42188,3.79687 -0.84375,1.89844 c 1.12496,-0.42186 1.68746,-1.1953 1.6875,-2.32031 l 0.21093,0 0.21094,0.21094 0.21094,0 0,-0.21094 -1.05469,-3.16406 0,-1.47657 0.84375,0 0,0.21094 -0.42187,0 c 0.28121,0.21095 0.42183,0.98439 0.42187,2.32031 l 0.21094,0.21094 0.63281,0 c -4e-5,-0.70311 0.14059,-1.05467 0.42188,-1.05469 l 0.21093,0 c -4e-5,0.75002 0.28121,1.31252 0.84375,1.6875 l 0.42188,0 0.63281,-0.63281 0,-0.21094 -0.21094,-1.47656 0.21094,0 0.21094,0.21094 0.21094,0 0.21093,-0.21094 0,-0.21094 -1.47656,-1.26562 c -4e-5,-0.42186 -0.21098,-0.6328 -0.63281,-0.63281 l 0,-0.21094 0.84375,-0.63281 0,0.21093 -0.21094,0.21094 0,0.21094 c 0.46871,2e-5 1.10152,0.4922 1.89844,1.47656 l 0.84375,0.21094 0.42187,-0.63281 0.63282,0.21093 0,-0.63281 -0.21094,0.21094 c -1.00786,-0.28123 -2.41411,-1.05467 -4.21875,-2.32031 -0.60942,0.14064 -1.03129,0.4922 -1.26563,1.05468 m -1.6875,-0.42187 0,0.21094 0.63282,0 0.42187,-0.42188 -0.21094,-0.21094 -0.42187,0 -0.42188,0.42188 m -18.77343,-0.21094 0,0.21094 0.84375,1.05469 0.84375,0 0,-0.21094 c -0.37503,2e-5 -0.93752,-0.35155 -1.6875,-1.05469 m 13.92187,0 0,0.21094 0.42188,0 0,-0.21094 -0.42188,0 m 1.26563,0 c -0.84379,1.42971 -1.26566,2.76564 -1.26563,4.00781 l 0,0.21094 c 0.37497,1.96876 0.79684,2.95314 1.26563,2.95313 l 0,-0.42188 c -0.56254,-1.31249 -0.84379,-2.36717 -0.84375,-3.16406 l 1.05468,-3.375 0,-0.21094 -0.21093,0 m -25.73438,3.79688 0,0.63281 c 1.07812,1.12501 1.99218,1.68751 2.74219,1.6875 l 0.42187,0 c -1e-5,-0.84374 0.14062,-1.26561 0.42188,-1.26563 -1e-5,0.42189 0.14061,0.63283 0.42187,0.63282 0.56249,-0.14062 0.84374,-0.49218 0.84375,-1.05469 l -0.42187,-0.42188 0.21094,-1.05468 -1.26563,-0.63282 -0.42187,0 0,0.21094 0.84375,0 0,0.21094 c -0.56252,1e-5 -0.84377,0.14064 -0.84375,0.42187 l 0.21093,0.21094 -1.47656,0.42188 0,-0.21094 0.21094,-0.21094 0,-0.21094 -0.63281,0 0,-0.21093 1.47656,-0.42188 0,-0.21094 -0.21094,0 c -0.89063,0.0938 -1.73438,0.58596 -2.53125,1.47657 m 25.73438,-1.26563 0,0.84375 c 0.2109,0.56252 0.42184,0.84377 0.63281,0.84375 l 0.84375,0 c -0.84379,-0.60936 -1.26566,-1.17186 -1.26563,-1.6875 l -0.21093,0 m -20.46094,2.53125 0.63281,0.42188 0,-0.42188 0.21094,0.21094 0.21094,0 0.63281,-0.42188 0,0.21094 -0.21094,0.21094 0,0.21094 1.47656,0.42187 0,-0.84375 c -1e-5,-0.21092 -0.28126,-0.42186 -0.84375,-0.63281 l -0.21093,-0.21094 0,-0.21094 0.21093,-0.21093 0,-0.21094 -1.26562,-0.42188 -0.21094,0 c -0.28126,2e-5 -0.4922,0.63283 -0.63281,1.89844 m 29.32031,-1.47656 -0.63281,1.89844 0.42187,1.6875 c -4e-5,0.44532 -0.28129,1.00782 -0.84375,1.6875 l 0.63282,0 0.63281,-2.32032 -0.42188,-0.84375 0.84375,0 0,-0.63281 -0.42187,-1.47656 -0.21094,0 m -38.8125,4.21875 c 0,1.96876 1.05468,3.72657 3.16406,5.27344 1.28906,0.84375 2.76562,1.26563 4.42969,1.26562 2.01561,1e-5 3.70311,-0.70312 5.0625,-2.10937 l -0.42187,0 c -1.42971,0.98438 -3.11721,1.47656 -5.0625,1.47656 -3.07033,0 -5.32032,-1.82812 -6.75,-5.48438 l 0,-0.84375 c -1e-5,-1.96873 1.05468,-2.95311 3.16406,-2.95312 l 0,-0.63281 -1.05469,0 c -1.6875,1e-5 -2.53125,1.33595 -2.53125,4.00781 m 23.625,-4.00781 c -3e-5,1.21876 -0.4219,2.27345 -1.26562,3.16406 l 0,0.21094 0.63281,0 c 0.39841,1e-5 0.67966,-0.70312 0.84375,-2.10938 l 0,-1.26562 -0.21094,0 m 1.6875,0.21093 0,0.21094 c 0.18747,0.98439 0.67966,1.47658 1.47656,1.47656 l 0.21094,0 0.63281,-0.63281 0,-0.21094 -0.21093,0.21094 -0.84375,0 -1.26563,-1.05469 m 15.1875,0.63282 0,0.21093 c 1.12495,2e-5 1.68745,0.63283 1.6875,1.89844 l 0.21094,0 0,-0.84375 c -5e-5,-1.03124 -0.21099,-1.59373 -0.63281,-1.6875 l -0.84375,0 -0.42188,0.42188 m -26.15625,0.21093 c -2e-5,0.56252 -0.21096,0.84377 -0.63281,0.84375 l -0.63281,-0.21093 0.42187,0.42187 0.42188,0 c 0.21091,1e-5 0.42185,-0.28124 0.63281,-0.84375 l 0,-0.21094 -0.21094,0 m -11.8125,2.53125 0,0.21094 0.21094,0 0,-0.42187 c 0.37499,1e-5 0.65624,0.42188 0.84375,1.26562 l -0.42188,0.42188 -0.21093,0 c -1e-5,-0.42187 -0.14064,-0.63281 -0.42188,-0.63282 l 0,0.21094 c 0.42187,0.98439 1.05468,1.47657 1.89844,1.47656 l 0.21094,0 c 0.84374,1e-5 1.26561,-0.35155 1.26562,-1.05468 l -0.42187,0 0.21093,-0.21094 0,-0.21094 -1.05468,-0.21094 0,-0.21093 0.63281,0 0.21094,0.21093 0.21093,0 c -1e-5,-0.42186 0.28124,-0.6328 0.84375,-0.63281 l -0.21093,-0.21094 0,-0.21093 0.21093,-0.21094 c -1.33594,-0.98436 -2.17969,-1.47655 -2.53125,-1.47656 -0.98438,0.42188 -1.47657,1.0547 -1.47656,1.89843 m 33.53906,-1.89843 0,0.42187 -0.21093,-0.21094 -0.21094,0 0,0.21094 0.21094,0.21094 -0.21094,0 -0.21094,-0.21094 -0.21094,0 -0.21093,1.6875 0.21093,0.21094 0.21094,0 0.84375,-0.63281 0,0.84375 0.42188,0 0.42187,-1.89844 -1.05469,-0.63281 m -4.85156,0.42187 c -4e-5,0.63283 -0.28128,1.19533 -0.84375,1.6875 l 0.21094,0.21094 0,0.42187 c -4e-5,0.28126 -0.28129,0.42189 -0.84375,0.42188 0.14059,0.56251 0.49215,0.84376 1.05469,0.84375 l 0.63281,-0.21094 -0.42188,-1.05469 0.63282,0.42188 0.42187,0 c -0.21097,-1.82811 -0.49222,-2.74218 -0.84375,-2.74219 m -21.30469,0.21094 0,0.42187 0.21094,0 0,-0.42187 -0.21094,0 m 28.05469,0.21094 c -4e-5,0.42188 -0.21098,0.63282 -0.63281,0.63281 -0.16411,1.68751 -1.00786,2.53126 -2.53125,2.53125 l -0.21094,0 0,0.21094 0.63281,0 c 1.96871,-0.44531 2.95309,-1.42968 2.95313,-2.95313 l 0,-0.42187 -0.21094,0 m -29.95312,0.21093 0,0.21094 0.42187,0 0,-0.21094 -0.42187,0 m 1.05468,0.42188 0,0.21094 0.42188,0 0,-0.21094 -0.42188,0 m 1.26563,0 0,0.42187 0.63281,0 0,-0.21093 -0.63281,-0.21094 m 1.6875,0 0.21094,0.21094 0,0.42187 -0.21094,-0.21094 -0.42188,0 0.21094,0.21094 0,0.42188 -0.42187,0 0.63281,0.84375 -0.42188,0 c -1e-5,0.28126 -0.21095,0.42188 -0.63281,0.42187 l 0,0.21094 0.42188,0 -0.21094,0.21094 0,0.21093 0.63281,0 c 0.70311,-0.56249 1.05467,-1.1953 1.05469,-1.89843 l 0,-0.42188 -0.63281,-0.63281 -0.21094,0 m -4.85156,0.21094 0,0.21093 0.42187,0.42188 0.21094,0 0,-0.21094 -0.42188,-0.42187 -0.21093,0 m 1.26562,0.21093 0,0.84375 0.21094,0 0,-0.84375 -0.21094,0 m 1.05469,0.42188 -0.21094,0.21094 0,0.21093 0.63281,0 -0.42187,-0.42187 m 1.05469,0.21094 -0.21094,0.21093 0,0.42188 0.21094,0 0.42187,-0.42188 -0.21094,-0.21093 -0.21093,0 m 29.74218,0 c -4e-5,1.54688 -1.40629,2.88282 -4.21875,4.00781 l -0.21093,1.05469 0,0.21093 c -4e-5,0.42188 0.63277,0.77345 1.89843,1.05469 l 0.84375,0 0,-0.42187 1.26563,0 0.63281,0.42187 1.26563,-0.21094 1.05468,0.63282 0.21094,0 0,-1.05469 -1.26562,-0.42188 c -5e-5,-0.28124 0.21089,-0.42187 0.63281,-0.42187 l 0,-0.21094 -1.05469,0 -3.375,1.05469 -0.42187,0 0,-0.42188 -0.21094,0.21094 -0.42188,0 -0.21093,-0.84375 0.21093,0 0.21094,0.21094 0.21094,0 0.42187,-0.42188 1.26563,0 c 0.0937,-0.56249 0.51558,-0.84374 1.26562,-0.84375 l -0.21093,0.21094 0,0.21094 0.21093,0 0.42188,-1.05469 -0.84375,0 c 0.56245,-0.98437 0.8437,-1.89843 0.84375,-2.74219 l -0.21094,-0.21093 -0.21094,0 m -33.53906,0.21093 0,0.42188 0.42188,0 0,-0.42188 -0.42188,0 m 0.84375,0.21094 0,0.63281 0.42188,-0.42187 -0.21094,-0.21094 -0.21094,0 m 0.84375,0.21094 0,0.42187 0.42188,0 0,-0.42187 -0.42188,0 m 1.26563,0.21094 0,0.63281 0.21093,0 0.42188,-0.42188 -0.21094,-0.21093 -0.42187,0 m -2.95313,0.84375 0.42188,0 0,-0.42188 -0.42188,0.42188 m 0.84375,0.42187 0,0.21094 0.63281,0 0.21094,-0.63281 -0.42187,0 -0.42188,0.42187 m 1.26563,0 0.42187,0 0,-0.42187 -0.42187,0.42187 m 23.83593,-0.21094 0,0.42188 0.42188,0 0,0.42187 -0.63281,0.63282 -0.21094,0 -1.26563,-0.21094 -0.21093,0 0,0.21094 1.47656,0.21093 1.05469,0 0.63281,-0.63281 0,-0.42187 -0.63281,-0.63282 -0.63282,0 m -28.47656,0.84375 c -1e-5,0.65626 0.77343,1.07814 2.32031,1.26563 l 0.63282,0 0.63281,-0.84375 -0.21094,-0.21094 -0.42187,0 -0.63282,0.42188 c -1e-5,-0.70312 -0.21095,-1.05468 -0.63281,-1.05469 l -1.6875,0.42187 m 5.90625,-0.21093 0,0.21093 0.21094,0.21094 -0.21094,0 -0.21094,-0.21094 -0.21093,0 -1.26563,0.63282 0,0.42187 0.42188,0.42188 c 1.40623,-0.39843 2.10935,-0.82031 2.10937,-1.26563 l 0,-0.42187 -0.21094,0.21093 -0.21093,0 -0.21094,-0.21093 -0.21094,0 m -7.17187,0.42187 0,0.21094 0.21093,0.63281 0.42188,0 -0.42188,-0.84375 -0.21093,0 m 21.09375,0.63281 -4.64063,-0.42187 -5.0625,0.42187 -1.47656,-0.42187 0,0.21094 c -2e-5,0.23438 0.35154,0.44532 1.05469,0.63281 l 5.90625,-0.42188 4.85156,0.42188 c 0.63278,-0.28124 0.98434,-0.56249 1.05469,-0.84375 l 0,-0.21094 -0.21094,0 c -0.51566,0.42188 -1.00784,0.63282 -1.47656,0.63281 m 17.71875,0 1.47656,-0.21093 c -5e-5,-0.28125 -0.21099,-0.42187 -0.63281,-0.42188 l -0.84375,0.63281 m -36.91407,-0.63281 0.21094,0 c 0.70312,0.18751 1.05468,0.39845 1.05469,0.63281 l -0.63281,0 -0.63282,-0.63281 m 29.74219,1.89844 c 0.2109,0.5625 0.42184,0.84375 0.63281,0.84375 l 0,-0.21094 -0.21093,-1.05469 -0.42188,0.42188 m -20.67187,-0.21094 0,0.42188 c 0.56248,1.125 1.33591,1.6875 2.32031,1.6875 l 1.6875,-0.63282 0.21094,0.63282 1.05468,0 c -2e-5,-0.32812 -0.35158,-0.53906 -1.05468,-0.63282 l 0,-1.05468 -0.42188,-0.42188 c -0.21096,1.12501 -0.70315,1.68751 -1.47656,1.6875 -0.89065,1e-5 -1.66408,-0.56249 -2.32031,-1.6875 m 6.75,0.21094 0,0.21094 c 2.01559,0 3.35153,0.28125 4.00781,0.84375 l 0,-0.21094 c -0.84378,-0.5625 -1.47659,-0.84375 -1.89844,-0.84375 l -2.10937,0 m 5.69531,0 -0.21094,0.21094 0,0.42187 0.21094,0 0.42187,-0.42187 -0.21093,-0.21094 -0.21094,0 m -1.47656,0.21094 0,0.21093 0.63281,0 0,-0.21093 -0.63281,0 m 2.74218,0 0,0.42187 0.42188,0 0,-0.42187 -0.42188,0 m 8.64844,-0.21094 0.21094,0 0,0.63281 -0.21094,0 0,-0.63281 m -35.22656,1.05469 0,0.21093 0.21094,1.05469 0.84375,0 -0.42188,-0.84375 c -1e-5,-0.42187 0.21093,-0.63281 0.63281,-0.63281 l 0.21094,-0.21094 0,-0.21094 -0.84375,0 -0.63281,0.63282 m 11.39062,-0.42188 0,0.84375 0.21094,0.63281 1.05469,0 0.21094,-0.63281 c -0.84377,1e-5 -1.26565,-0.28124 -1.26563,-0.84375 l -0.21094,0 m 12.86719,0.63281 0,0.21094 0.63281,-0.63281 -0.21093,0 -0.42188,0.42187 m 2.74219,-0.21093 0,0.63281 0.42187,0 0,-0.21094 -0.42187,-0.42187 m -1.47656,0.21093 0.42187,0.42188 0.21094,0 0,-0.42188 -0.63281,0 m 2.74218,0 0,0.21094 0.42188,0 0,-0.21094 -0.42188,0 m -5.48437,0.21094 0,0.42188 0.63281,0 0,-0.42188 -0.63281,0 m 1.47656,0.63281 0,0.21094 0.63281,0 0,-0.21094 -0.63281,0 m 2.10938,0 0,0.21094 0.42187,0 0,-0.21094 -0.42187,0"
         style="font-size:72px;font-variant:normal;font-stretch:normal;font-family:Goudy Initials;-inkscape-font-specification:Goudy Initials"
         id="path4671" />
    </g>
  </g>
</svg>
