<?xml version="1.0" encoding="UTF-8" standalone="no"?>
<!-- Created with Inkscape (http://www.inkscape.org/) -->

<svg
   xmlns:dc="http://purl.org/dc/elements/1.1/"
   xmlns:cc="http://creativecommons.org/ns#"
   xmlns:rdf="http://www.w3.org/1999/02/22-rdf-syntax-ns#"
   xmlns:svg="http://www.w3.org/2000/svg"
   xmlns="http://www.w3.org/2000/svg"
   xmlns:sodipodi="http://sodipodi.sourceforge.net/DTD/sodipodi-0.dtd"
   xmlns:inkscape="http://www.inkscape.org/namespaces/inkscape"
   width="56.734375"
   height="56.734375"
   id="svg2"
   version="1.1"
   inkscape:version="0.48.5 r10040"
   sodipodi:docname="y.svg">
  <defs
     id="defs4" />
  <sodipodi:namedview
     id="base"
     pagecolor="#ffffff"
     bordercolor="#666666"
     borderopacity="1.0"
     inkscape:pageopacity="0"
     inkscape:pageshadow="2"
     inkscape:zoom="3.959798"
     inkscape:cx="43.744226"
     inkscape:cy="5.617196"
     inkscape:document-units="px"
     inkscape:current-layer="layer1"
     showgrid="false"
     fit-margin-top="2"
     fit-margin-left="2"
     fit-margin-right="2"
     fit-margin-bottom="2"
     inkscape:window-width="1366"
     inkscape:window-height="733"
     inkscape:window-x="0"
     inkscape:window-y="0"
     inkscape:window-maximized="1"
     showborder="true"
     borderlayer="false" />
  <metadata
     id="metadata7">
    <rdf:RDF>
      <cc:Work
         rdf:about="">
        <dc:format>image/svg+xml</dc:format>
        <dc:type
           rdf:resource="http://purl.org/dc/dcmitype/StillImage" />
        <dc:title></dc:title>
      </cc:Work>
    </rdf:RDF>
  </metadata>
  <g
     inkscape:label="Layer 1"
     inkscape:groupmode="layer"
     id="layer1"
     transform="translate(-152.28125,-146.34738)">
    <g
       style="font-size:40px;font-style:normal;font-weight:normal;line-height:125%;letter-spacing:0px;word-spacing:0px;fill:#ffffff;fill-opacity:1;stroke:none;font-family:Sans"
       id="flowRoot2985">
      <path
         d="m 154.28125,148.34738 52.73437,0 0,52.73438 -52.73437,0 0,-52.73438 m 1.05469,1.05469 0,50.625 50.625,0 0,-50.625 -50.625,0 m 0.42187,0.63281 49.57031,0 0,49.57032 -49.57031,0 0,-49.57032 m 4.42969,0.42188 0.63281,0.84375 -0.21094,0.21094 0,0.21093 0.21094,0 0.21094,-0.21093 0,-0.63282 -0.42188,-0.42187 -0.42187,0 m -3.375,0.63281 0,0.42188 0.63281,-0.42188 0.21094,0 c 0.42187,0.14068 0.63281,0.56255 0.63281,1.26563 l -0.42187,3.79687 c 0.28124,0.8438 1.05468,1.26567 2.32031,1.26563 0.30468,-0.0703 0.93749,-1.19527 1.89844,-3.375 l 1.05468,-0.63282 c 0.98437,0.18755 1.47656,0.4688 1.47657,0.84375 l 0,0.21094 -0.42188,0.42188 -1.47656,-0.21094 c -0.70313,5e-5 -1.05469,0.70317 -1.05469,2.10937 0.28124,0.63286 0.56249,0.98442 0.84375,1.05469 l 0.63281,0 0.42188,-0.42187 c -0.98438,4e-5 -1.47657,-0.35152 -1.47656,-1.05469 l 0.63281,-1.05469 1.6875,0.42188 c 0.6328,-0.28121 0.98436,-0.56246 1.05469,-0.84375 l 0,-0.42188 c -1e-5,-1.12495 -0.4922,-1.68745 -1.47657,-1.6875 l -0.84375,0.21094 0,-1.26563 c 0,-0.2812 -0.21094,-0.42182 -0.63281,-0.42187 -1.54688,0.53911 -2.32032,1.66411 -2.32031,3.375 -1e-5,0.6563 -0.14063,1.14848 -0.42188,1.47656 l 0.21094,0.21094 0,0.21094 -0.21094,0.21093 -0.63281,0 -0.63281,-0.63281 0.63281,-0.21094 0,-0.63281 -0.21094,-0.21094 0,-0.21093 c 0.70312,-0.63277 1.05469,-1.47652 1.05469,-2.53125 l -0.21094,-0.63282 -0.21093,0.21094 -0.63282,0 c 0,-0.72651 -0.21094,-1.14839 -0.63281,-1.26562 l -1.05469,0 -0.42187,0.42187 m 6.96094,0.21094 0,0.21094 3.16406,-0.63282 c 2.03905,5e-5 3.86717,0.8438 5.48437,2.53125 l 0.21094,0 0,-0.21093 c -0.91408,-1.68745 -2.81251,-2.5312 -5.69531,-2.53125 l -0.84375,0 c -1.54689,5e-5 -2.32032,0.21098 -2.32031,0.63281 m 11.60156,0.21094 -0.21094,-0.21094 -0.84375,0 0,0.42187 1.47656,0.21094 c -2e-5,-0.37495 0.56248,-0.6562 1.6875,-0.84375 l 0.21094,0 0.63281,0.63281 0,0.42188 c -2e-5,0.39849 -0.70314,0.67974 -2.10937,0.84375 l -2.74219,-1.05469 0,0.21094 c 1.73436,0.98442 3.21092,1.47661 4.42969,1.47656 0.86716,-0.2812 1.35935,-0.63276 1.47656,-1.05469 l 0,-0.42187 c -2e-5,-0.98433 -0.70315,-1.47651 -2.10937,-1.47656 l -1.89844,0.84375 m -4.21875,-0.63282 0,0.21094 0.42187,0 0,-0.21094 -0.42187,0 m 11.39062,0.84375 0,0.84375 c 0.3281,0.70318 0.96091,1.05474 1.89844,1.05469 2.24997,-0.37495 3.37497,-0.72651 3.375,-1.05469 l -0.21094,0 c -1.05471,0.42193 -1.96878,0.63286 -2.74218,0.63282 -0.56253,4e-5 -0.98441,-0.35152 -1.26563,-1.05469 -3e-5,-0.56245 0.77341,-0.8437 2.32031,-0.84375 l 0,-0.21094 -1.47656,-0.21094 -1.05469,0 -0.84375,0.84375 m 5.69532,1.6875 0,0.21094 1.05468,0 c 1.87497,-1.4062 3.84372,-2.10932 5.90625,-2.10937 1.54684,5e-5 3.30465,0.56255 5.27344,1.6875 l 0,-0.42188 c -4e-5,-0.74995 -1.89848,-1.38276 -5.69531,-1.89844 l -0.63281,0.21094 0,-0.21094 c -1.78129,5e-5 -3.75004,0.8438 -5.90625,2.53125 m -1.89844,-2.10937 0,0.21094 1.26562,0 0.21094,-0.21094 0,-0.21094 -1.47656,0.21094 m 15.39844,1.05469 -0.84375,-0.42188 1.05468,3.375 0.21094,-0.21094 0.42188,0 0,0.42188 -0.63282,0.63281 -0.42187,-0.42187 0.21094,-0.21094 c -1.24224,-0.70308 -2.08599,-1.05464 -2.53125,-1.05469 -0.63286,0.2813 -0.98442,0.56255 -1.05469,0.84375 l 0.63281,0.21094 0,0.21094 c -0.42192,0.51567 -0.63285,1.00785 -0.63281,1.47656 -4e-5,0.30473 1.12495,0.93754 3.375,1.89844 l 0,0.84375 0.42187,0 0,-0.42188 c -4e-5,-0.98433 -0.77348,-1.47652 -2.32031,-1.47656 L 199,156.99582 l 0.63281,-0.84375 1.05469,0 c 1.9687,1.66411 2.95308,3.70317 2.95312,6.11719 l 0,1.05469 -0.21093,0.84375 0.21093,0.21093 0,0.21094 c -0.96098,3.32816 -2.43754,5.71878 -4.42968,7.17188 -1.17192,0.77346 -2.57817,1.40627 -4.21875,1.89843 l 0,0.42188 0.21093,0 c 1.59371,3e-5 3.49215,-0.98435 5.69532,-2.95313 2.39057,-2.8359 3.58588,-5.6484 3.58593,-8.4375 l 0,-1.47656 c -0.42192,4e-5 -0.84379,-0.91402 -1.26562,-2.74219 l 0.21094,-0.84375 -0.21094,-0.21093 0.21094,-0.21094 0.21093,0 0,0.63281 0.21094,0 0,-0.63281 c -0.8438,-1.94527 -1.26567,-3.2812 -1.26562,-4.00781 l 0,-0.63282 0.84375,-0.84375 0.42187,0 c 0.2812,5e-5 0.42183,0.42193 0.42188,1.26563 l 0.21093,0 0,-1.26563 -0.63281,-0.42187 c -0.86723,5e-5 -1.57036,0.35161 -2.10937,1.05469 m -35.85938,-0.84375 0,0.21093 1.26563,0 0,-0.21093 -1.26563,0 m -9.07031,0.21093 0,0.84375 0.21094,0.84375 0.21093,0 0,-0.21093 -0.21093,-1.47657 -0.21094,0 m 8.01562,0 0,0.21094 0.63282,0 0,-0.21094 -0.63282,0 m 2.74219,0 0,0.21094 c 0.42186,5e-5 0.6328,0.14068 0.63281,0.42188 l 0,0.42187 c -1e-5,0.2813 -0.28126,0.42192 -0.84375,0.42188 l 0,0.21093 1.05469,0 0.42188,-0.42187 0,-0.63281 c -2e-5,-0.32808 -0.35158,-0.53902 -1.05469,-0.63282 l -0.21094,0 m 12.86719,0 -0.21094,0.84375 0.63281,0.42188 c 0.56248,-0.21089 0.84373,-0.42183 0.84375,-0.63281 l -0.63281,-0.63282 -0.63281,0 m -16.45313,0.21094 0,0.21094 0.42188,0 0,-0.21094 -0.42188,0 m -2.32031,0 0.21094,0.21094 0,0.21094 c -0.23438,5e-5 -0.51563,0.42192 -0.84375,1.26562 l -0.42188,0 c 0,-0.77339 0.35156,-1.33589 1.05469,-1.6875 m 31.21875,1.05469 0,0.21094 0.42188,0.42187 1.47656,0 0,-0.21094 -0.42188,0 0,-0.42187 c -4e-5,-0.35151 0.28121,-0.56245 0.84375,-0.63281 l 0,-0.21094 -0.63281,0 c -1.12504,0.25786 -1.68754,0.53911 -1.6875,0.84375 m 3.16406,0.42187 0,0.21094 c 0.51559,5e-5 1.07809,0.21099 1.6875,0.63281 l 0,-0.63281 -1.05468,-0.21094 -0.63282,0 m 3.58594,0 0,0.21094 0.21094,0.21094 0.21094,0 0,-0.21094 -0.21094,-0.21094 -0.21094,0 m -42.39844,0.21094 c 0,0.6563 -0.14062,1.14849 -0.42187,1.47656 l 0,0.21094 c 0.32812,5e-5 0.53906,-0.35151 0.63281,-1.05469 l 0,-0.63281 -0.21094,0 m 46.40625,0.21094 0,0.42187 -0.21093,0 c 0.18745,0.70318 0.39839,1.05474 0.63281,1.05469 l 0.21094,0 c -0.2813,-0.32808 -0.42193,-0.82026 -0.42188,-1.47656 l -0.21094,0 m -37.33593,0.21094 0,1.47656 c 1.96873,0.18754 2.95311,0.46879 2.95312,0.84375 l 1.26563,-0.63281 9.91406,0.21093 9.07031,0 c 0.84372,0.0938 1.26559,0.30474 1.26563,0.63282 l 0,0.84375 -1.05469,1.47656 -0.21094,-0.21094 -0.21094,0 0,0.21094 0.21094,0.21094 -8.64844,11.17968 0.21094,1.05469 0,2.10938 -0.42187,2.95312 c 10.54684,-13.31246 15.82027,-20.55464 15.82031,-21.72656 l 0,-0.42188 -0.63281,0 -29.53125,-0.21093 m -2.10938,4.21875 0,0.21093 c 0.16405,1.05473 0.4453,1.61723 0.84375,1.6875 l 0,-0.21093 -0.42187,-1.6875 c 0.28124,-0.84371 0.84374,-1.26558 1.6875,-1.26563 l 0.42187,0 c 1.40624,0.18755 2.10936,0.82036 2.10938,1.89844 l -0.21094,0.63281 0.42187,0 0.63282,-0.63281 0,-1.05469 c -2e-5,-0.6562 -0.91408,-1.2187 -2.74219,-1.6875 -1.82814,0.25786 -2.7422,0.96098 -2.74219,2.10938 m 32.27344,-2.10938 c -4e-5,0.37505 -5.4141,7.68754 -16.24219,21.9375 l 0,0.42188 16.45313,-22.14844 0,-0.21094 -0.21094,0 m -26.15625,0.63281 0.21094,0 5.48437,-0.21093 6.96094,0.21093 3.79687,0 3.58594,0.21094 c -3e-5,-0.42183 -1.61722,-0.63277 -4.85156,-0.63281 l -14.76563,0 -0.42187,0.42187 m -12.86719,0.21094 0,0.21094 c 0.49219,0.84379 1.125,1.26567 1.89844,1.26562 l 0.42187,-0.42187 c -0.84375,4e-5 -1.61719,-0.35152 -2.32031,-1.05469 m 15.60938,0.21094 c -2e-5,2.27348 -1.47658,3.60941 -4.42969,4.00781 -0.84376,4e-5 -1.26564,0.14067 -1.26563,0.42188 l 1.05469,0.21093 c 2.46092,4e-5 4.21873,-1.33589 5.27344,-4.00781 l 0,-0.63281 -0.63281,0 m 8.4375,1.26562 c -3e-5,0.32817 0.35153,0.53911 1.05468,0.63282 0.44529,4e-5 1.00779,-0.28121 1.6875,-0.84375 l 0,1.05468 c 0.84372,-0.2812 1.2656,-0.8437 1.26563,-1.6875 l 0,-0.21093 -1.6875,0 c -0.96097,0.70316 -1.7344,1.05473 -2.32031,1.05468 m 4.64062,-1.05468 0,0.63281 0.42188,1.26562 0.21093,-0.21093 0.21094,0 0.84375,0.42187 c 0.65622,-0.18746 1.00778,-0.46871 1.05469,-0.84375 -1.12503,4e-5 -1.68753,-0.42183 -1.6875,-1.26562 l -1.05469,0 m -20.25,0.21093 -0.42187,3.16407 0.63281,0.42187 c 0.28124,-1.40621 0.70311,-2.46089 1.26562,-3.16406 l 0,-0.21094 -1.05468,-0.21094 -0.42188,0 m 4.85156,0 -0.42187,0.63282 0,0.42187 c -2e-5,0.32817 0.35155,0.53911 1.05469,0.63281 0.63279,-0.2812 0.98435,-0.56245 1.05468,-0.84375 l 0,-0.21093 -1.05468,0.63281 -0.63282,-0.21094 0,-0.63281 0.21094,-0.21094 0,-0.21094 -0.21094,0 m 7.38282,0.21094 -0.21094,0.21094 0,0.63281 0.63281,0.63281 0.63281,-0.21093 0,-1.05469 -1.05468,-0.21094 m 1.6875,1.26563 0.21093,0.21093 0,0.63282 -0.42187,0.42187 -0.42188,-0.42187 0,0.63281 0.63282,4.21875 -0.42188,0.42187 -0.21094,0 -0.42187,-0.42187 0,-1.89844 c -2e-5,-1.19527 -0.4219,-2.03902 -1.26563,-2.53125 l -0.21093,0.63281 -0.21094,0 c -0.96096,-0.8437 -1.7344,-1.26558 -2.32031,-1.26562 l 0,0.84375 0.42187,0 0,0.63281 0.21094,1.05469 -0.21094,0 c -0.28127,4e-5 -0.42189,-0.28121 -0.42187,-0.84375 l -0.21094,0 0,0.42187 0.63281,1.05469 0,0.21094 -0.63281,0 -0.63281,-0.21094 0,0.21094 c -2e-5,1.07816 0.63279,2.06254 1.89843,2.95312 l 0.21094,0.63282 -0.63281,0.42187 c -0.4219,4e-5 -0.84377,-0.56246 -1.26563,-1.6875 l -0.21093,0 -0.42188,0.42188 0.42188,0.42187 0,0.21094 -2.32032,-1.6875 0,-0.21094 0.42188,-0.42187 1.89844,1.05468 0,-0.21093 c -0.7969,-0.70309 -1.50002,-1.05465 -2.10938,-1.05469 l -0.42187,0 0,0.84375 -1.47657,-0.21094 -0.84375,0 c -0.70313,0.42191 -1.0547,0.9141 -1.05468,1.47656 l 1.26562,0 c 0.93749,4e-5 2.6953,0.84379 5.27344,2.53125 l 1.6875,0.42188 1.05469,0 c 0.42185,3e-5 0.63279,-0.28122 0.63281,-0.84375 l 0.21094,0 c 0.96091,3e-5 1.52341,1.96878 1.6875,5.90625 -3e-5,1.47659 -0.35159,3.65627 -1.05469,6.53906 l -0.21094,-0.21094 -0.21094,0 0.21094,0.21094 0,0.21094 -1.05469,4.85156 0,0.21094 0.21094,0 2.32031,-9.07031 0.42188,-3.58594 0,-1.26563 c -3e-5,-1.61715 -0.4219,-3.30465 -1.26563,-5.0625 l 0.63282,0 0.21093,0.21094 0.63282,-0.21094 0,-0.42187 -0.42188,-0.42188 -1.05469,0.42188 c -0.0703,-0.56247 -0.28127,-0.84372 -0.63281,-0.84375 l 0,-0.21094 1.89844,-0.42187 -0.42188,0.63281 0.21094,0.21094 0.21094,0 0.21094,-0.21094 0,-1.47656 0.42187,0 -0.21094,-5.90625 -0.21093,-0.21094 0.21093,-0.21094 -0.21093,0 c -0.4219,5e-5 -0.63284,0.42192 -0.63282,1.26563 l -0.21093,0 m 16.03125,0.42187 -0.63282,-0.21094 0,0.21094 -0.42187,1.26563 0.42187,1.47656 -1.89843,0.63281 -0.21094,0 0.84375,1.47656 c -0.75004,1.54691 -1.45316,2.32035 -2.10938,2.32032 l 0,0.21093 0.42188,0 1.26562,-0.84375 0.21094,0 -1.05469,1.26563 0.21094,0 c 1.42965,-0.46872 2.48434,-1.45309 3.16406,-2.95313 l 0.42188,0 0,0.42188 -1.47656,2.10937 0.21093,0 0.63282,-0.63281 0.21093,0 0,0.63281 0.21094,0 c 0.42184,4e-5 0.63277,-0.28121 0.63281,-0.84375 l 0.84375,0.21094 c 1.31246,-0.70309 2.36715,-1.05465 3.16407,-1.05469 l 0.84375,0.42188 0.21093,-0.21094 c -4e-5,-0.89059 -0.63285,-1.38277 -1.89843,-1.47656 l -0.63282,0.63281 -0.21093,-0.21094 0,-0.21093 0.42187,-0.84375 -0.42187,0 0,-0.21094 0.21093,-1.6875 0.21094,0.21094 0.21094,0 0,-1.6875 c -0.23442,4e-5 -0.51567,0.42191 -0.84375,1.26562 l -0.42188,0 0,-1.05469 c -4e-5,-0.60933 -0.3516,-1.38277 -1.05468,-2.32031 -0.2813,5e-5 -0.84379,0.56254 -1.6875,1.6875 m -28.26563,-1.26562 c -0.60939,2.25004 -1.17188,3.37504 -1.6875,3.375 l 0.21094,0.21093 0,0.21094 c 0.51561,4e-5 0.93749,-0.91402 1.26562,-2.74219 0.32812,5e-5 0.53905,-0.35152 0.63282,-1.05468 l -0.42188,0 m 8.85938,0 0,0.84375 0.42187,0.42187 0.21094,0 0.42187,-0.42187 c -0.21096,-0.56246 -0.42189,-0.84371 -0.63281,-0.84375 l -0.42187,0 m -18.77344,0.21093 0,2.10938 c 0,3.37504 1.89843,5.62503 5.69531,6.75 l 0.21094,0 0,-0.21094 c -1e-5,-0.23434 -0.77345,-0.65621 -2.32031,-1.26562 -1.96876,-1.82809 -2.95313,-3.79684 -2.95313,-5.90625 l 0.21094,-1.05469 -0.84375,-0.42188 m 1.6875,3.375 c -1e-5,1.59379 1.19531,3.00004 3.58594,4.21875 l 0.21093,0 0,-0.21093 c -1.96875,-0.74997 -2.95313,-1.94528 -2.95312,-3.58594 0.37499,-1.40621 1.07812,-2.10933 2.10937,-2.10938 l 0.21094,0 0.63281,0.63282 c 0,0.58597 -0.49219,1.21879 -1.47656,1.89843 l 0,1.05469 0.63281,0.21094 0,-0.42188 -0.21093,-0.21093 0,-0.21094 c 1.40624,-0.70309 2.10936,-1.54684 2.10937,-2.53125 -1e-5,-1.12496 -0.91407,-1.75777 -2.74219,-1.89844 -1.40625,0.53911 -2.10938,1.59379 -2.10937,3.16406 m 16.03125,-3.16406 0,0.42188 0.42187,0.42187 0,-0.84375 -0.42187,0 m 9.70312,0.63281 0,1.26563 c 0.21091,1.54691 0.49216,2.32035 0.84375,2.32031 l 0.21094,-0.21094 0,-0.42187 c -0.4219,-0.32809 -0.63284,-1.24215 -0.63281,-2.74219 l -0.21094,-0.21094 -0.21094,0 m -6.96093,0.42188 0,0.21094 0.42187,0.42187 0.21094,-0.21094 0,-0.21093 -0.63281,-0.21094 m 4.00781,0 -0.42188,0.63281 c 0.7031,4e-5 1.12498,0.28129 1.26563,0.84375 -0.84378,1.40629 -1.26565,2.39066 -1.26563,2.95313 l 0.84375,1.26562 -1.05468,1.47656 0,0.84375 0.21093,0 2.74219,-3.16406 0.42188,-1.89844 0,-0.84375 -0.21094,0 c -3e-5,1.42973 -0.4219,2.27348 -1.26563,2.53125 l -0.42187,0 c -0.28128,-0.0703 -0.56253,-0.42183 -0.84375,-1.05468 0.84372,-1.17184 1.2656,-1.94528 1.26562,-2.32032 l 0,-0.63281 c -0.14065,-0.42183 -0.56252,-0.63277 -1.26562,-0.63281 m 22.14844,0 0,0.84375 0.21093,0 0,-0.84375 -0.21093,0 m -31.21875,0.21094 0,0.42187 0.21093,0 0,-0.42187 -0.21093,0 m 0.84375,0 -0.21094,0.63281 0.21094,0.21094 0.21093,0 0,-0.84375 -0.21093,0 m 12.02343,0.42187 0,0.42188 0.63282,0.63281 0.21093,0 0.63282,-0.63281 0,-0.21094 -0.63282,0.42187 -0.84375,-0.63281 m -13.71093,0.63281 c -0.63283,0.70317 -2.17971,1.26567 -4.64063,1.6875 -0.70314,4e-5 -1.0547,0.42192 -1.05469,1.26563 l 0,0.42187 0.42188,0.42188 0.84375,0 c -1e-5,-0.28121 -0.21095,-0.42184 -0.63281,-0.42188 l 0,-0.63281 c -2e-5,-0.42184 1.26561,-0.91402 3.79687,-1.47656 l 1.47656,-1.26563 -0.21093,0 m 0.84375,0.21094 0,1.05469 0.84375,0 0,-0.84375 -0.84375,-0.21094 m 23.41406,-0.21094 0.63281,0 0,0.21094 -0.42187,0.42188 -0.21094,-0.21094 0,-0.42188 m 4.64062,0.21094 -0.42187,0.63281 0,1.05469 0.21094,0 0.63281,-0.42187 0.42187,0 c 0.56246,4e-5 0.84371,0.63285 0.84375,1.89843 l 0.21094,0 0,-0.63281 c -5e-5,-1.68746 -0.63286,-2.53121 -1.89844,-2.53125 m -4.64062,0.63281 0.42187,0 0,0.63282 -0.42187,0 0,-0.63282 m -24.25781,0.63282 0,0.63281 0.42187,0.42187 0.63281,0 0,-0.21093 c -0.0703,-0.28122 -0.42189,-0.56246 -1.05468,-0.84375 m -8.4375,1.05468 0,1.05469 0.84375,1.05469 -0.63282,0.21094 0,0.21093 0.42188,1.47657 0.42187,0 -0.21093,-0.21094 0,-0.21094 0.42187,0 1.26563,0.42188 -0.21094,0.21093 0,0.21094 2.95312,0.42188 0.21094,-0.21094 0.42188,0.63281 0,0.21094 -0.42188,0.84375 -0.21094,0 0,-0.42188 -0.84375,0 c -1.85157,-0.70309 -3.25782,-1.05465 -4.21875,-1.05468 -0.75,3e-5 -1.24219,0.28128 -1.47656,0.84375 l 0.63281,0.84375 c -0.70313,0.0938 -1.05469,0.30472 -1.05468,0.63281 l 0.21093,1.26562 0,0.21094 -0.21093,0 c -0.28126,3e-5 -0.42188,-0.28122 -0.42188,-0.84375 l -0.21094,0 0,0.84375 1.26563,0.63281 0.63281,0 0,-0.21093 -0.21094,-0.84375 c 0.32812,-0.84372 0.82031,-1.2656 1.47657,-1.26563 l 0,-0.21094 -0.21094,0 -0.63281,0.21094 0,-0.21094 c 0.14061,-0.42184 0.56249,-0.63278 1.26562,-0.63281 l 0.63281,0 0.42188,0.42188 -0.84375,0 0,0.21093 1.26562,0 c 2.24999,4e-5 3.37499,-0.49215 3.375,-1.47656 -0.18751,-0.60934 -1.38282,-1.5234 -3.58593,-2.74219 -0.8672,-0.91402 -1.35939,-1.68746 -1.47657,-2.32031 l 0.42188,-1.05469 -0.42188,0 c -0.63282,0.28129 -0.98438,0.56254 -1.05468,0.84375 m -7.17188,-0.21093 0,0.21093 0.21094,-0.21093 0.21094,0 1.26562,0.84375 0,-0.21094 c -0.32813,4e-5 -0.53906,-0.35153 -0.63281,-1.05469 l -0.63281,0 -0.42188,0.42188 m 39.65625,-0.63282 0.42188,0 c 0.2812,4e-5 0.42183,0.21098 0.42187,0.63282 -0.21098,0.56253 -0.42191,0.84378 -0.63281,0.84375 l -0.21094,0 0,-0.21094 0.21094,-1.05469 -0.21094,-0.21094 m -20.88281,0.21094 1.05469,0 0.42187,0.42188 -0.21094,0.21093 -0.21093,0 -1.05469,-0.42187 0,-0.21094 m 1.47656,1.26563 1.6875,2.95312 -1.05469,0 0,-0.21094 0.21094,-0.21093 0,-0.21094 c -0.37502,3e-5 -0.7969,-0.70309 -1.26562,-2.10938 l 0.21093,-0.21093 0.21094,0 M 172,164.80051 l 0,0.21094 1.05469,0.21093 0.21093,0 0,-0.21093 -0.84375,-0.21094 -0.42187,0 m -15.39844,3.16406 c 0.35156,0.84378 0.98437,1.26566 1.89844,1.26563 l 0.42187,0 1.89844,-0.63282 0,-0.21093 -1.05469,0.21093 -1.26562,0 -0.63281,-0.63281 0,-0.63281 0.84375,-0.84375 0.21093,0 0.63282,0.63281 -0.21094,0.63281 0.21094,0 0.42187,-0.42187 c 0,-0.74997 -0.28125,-1.24215 -0.84375,-1.47656 l -0.21094,0 -1.05468,0.21093 -0.21094,-0.84375 -0.21094,0 c -0.28125,4e-5 -0.5625,0.9141 -0.84375,2.74219 m 33.32813,-1.26562 0.21093,0 c 1.54684,-0.21091 2.32028,-0.56247 2.32032,-1.05469 -1.68754,0.0938 -2.53129,0.44535 -2.53125,1.05469 m 10.125,0.21093 0,0.42188 c 0.8437,3e-5 1.26558,0.14066 1.26562,0.42187 l 0,0.21094 -0.21094,0.84375 0,0.21094 0.21094,0 0.63281,-1.47656 c -0.28129,-0.63278 -0.56254,-0.98434 -0.84375,-1.05469 l -0.63281,0 -0.42187,0.42187 m -23.625,-0.42187 c -2e-5,0.56253 0.1406,0.84378 0.42187,0.84375 l 0.21094,0 0,0.21094 -0.84375,0.84375 -0.42188,-0.42188 0.21094,-0.21094 -0.42187,0 -0.21094,0.21094 -0.21094,0 0,-0.63281 c 0.37498,3e-5 0.79686,-0.28122 1.26563,-0.84375 m -6.32813,1.05469 0.42188,1.47656 c -2e-5,0.30472 -0.49221,0.93753 -1.47657,1.89844 l 0.21094,0.21093 c 0.98436,-0.42184 1.47655,-1.05465 1.47656,-1.89843 l 0,-1.26563 -0.42187,-0.42187 -0.21094,0 m 25.10156,1.89843 c -4e-5,0.56254 0.28121,0.98441 0.84375,1.26563 l 1.26563,0 0,-0.21094 c -0.79692,3e-5 -1.2891,-0.35153 -1.47656,-1.05469 0.18746,-0.70309 0.67964,-1.05465 1.47656,-1.05468 l 0.42187,0 c 0.56246,0.2344 0.84371,0.72659 0.84375,1.47656 -0.56254,1.68753 -1.33598,2.53128 -2.32031,2.53125 l 0,0.21094 c 1.49996,3e-5 2.48433,-1.05466 2.95313,-3.16407 -0.0938,-1.12496 -0.6563,-1.68746 -1.6875,-1.6875 l -0.63282,0 c -1.12504,4e-5 -1.68754,0.56254 -1.6875,1.6875 m -5.90625,-0.84375 0,1.05469 c 1.40622,0.60941 2.10934,1.24222 2.10938,1.89844 l 0.21094,0 0,-0.63281 c -0.98441,-0.58591 -1.4766,-1.00778 -1.47657,-1.26563 l 0,-0.63281 0.63282,-0.63281 0.63281,0 c 1.12496,3e-5 1.82809,0.77347 2.10937,2.32031 l 0,0.21094 c -3e-5,0.70315 -0.3516,1.33596 -1.05468,1.89843 l 0.21093,0.21094 0,0.21094 c -0.77347,0.84378 -1.61722,1.26565 -2.53125,1.26562 l 0,-0.42187 0.42188,0 0,-0.21094 -0.21094,0 c -3.39847,3e-5 -6.70315,1.75784 -9.91406,5.27344 -1.26565,2.83596 -1.89846,4.66408 -1.89844,5.48437 0.7031,2e-5 1.05466,-0.84373 1.05469,-2.53125 1.85154,-3.23435 4.24216,-4.85153 7.17187,-4.85156 1.54685,3e-5 2.74216,0.56253 3.58594,1.6875 l 0,0.21094 c -3e-5,0.9844 -0.42191,1.47658 -1.26562,1.47656 l 0,0.21094 0.42187,0.42187 0.42188,0 c 0.32809,2e-5 0.53902,-0.35154 0.63281,-1.05468 l 0.21094,0 0.63281,0.42187 c 0.56246,-0.23435 0.84371,-0.72654 0.84375,-1.47656 l -0.84375,-0.84375 0,-0.21094 c 0.70309,2e-5 1.05465,-0.1406 1.05469,-0.42187 -0.21098,-0.56248 -0.42192,-0.84373 -0.63282,-0.84375 -0.42191,2e-5 -0.63284,0.21096 -0.63281,0.63281 l -0.84375,0 -0.63281,-0.63281 0.42187,-0.63282 -2.74218,0.63282 c -0.42191,2e-5 -0.63285,-0.21092 -0.63282,-0.63282 l -0.21093,0 0,0.42188 0.21093,0.21094 -0.84375,0.21093 -0.63281,-0.21093 0.21094,0.21093 0,0.21094 -0.84375,0 -0.21094,-1.05469 0.63281,0 0,0.42188 0.21094,0 c -3e-5,-0.42185 0.21091,-0.63279 0.63281,-0.63281 l 0,-0.42188 1.05469,0.21094 0.42188,-0.42188 0.21093,0 -0.21093,0.63282 0,0.21093 0.21093,0 0.42188,-0.84375 3.16406,0.21094 c 2.10934,3e-5 3.16402,-0.91403 3.16406,-2.74219 l -0.63281,0.21094 0,-0.21094 0.63281,-1.26562 0,-0.63281 c -0.21097,-1.96872 -1.05472,-2.9531 -2.53125,-2.95313 l -1.26562,0 c -0.84379,0.0938 -1.26566,0.30472 -1.26563,0.63281 m -28.26562,-0.42187 0,0.21094 0.42187,0 0,-0.21094 -0.42187,0 m -4.42969,7.80469 0.63281,-0.42188 0.21094,0 0.21094,0.63281 -0.21094,0.21094 0,0.21094 0.21094,0.21094 0,0.21093 -1.05469,0 0,0.63282 0.21094,0 0,-0.42188 0.84375,0 0.42187,0.84375 0,0.21094 -1.26562,0.21094 0,-0.63282 -0.21094,0 0,0.42188 0.63281,5.48437 -0.42187,2.53125 0.21094,0 c 0.70312,-0.35154 1.33593,-1.33592 1.89843,-2.95312 l -0.21093,0.21094 -0.42188,0 -0.21094,-2.10938 0.21094,0 c 0.28125,2e-5 0.42187,0.21096 0.42188,0.63281 l 0.21093,0 0,-0.21093 c -0.98437,-1.82811 -1.47656,-2.95311 -1.47656,-3.375 l 0.63281,0 c 0.32813,1.40627 0.89063,2.10939 1.6875,2.10937 1.6875,-0.23435 2.53125,-0.79685 2.53125,-1.6875 l -0.21093,0 -0.84375,0.42188 c -2.25001,-0.42186 -3.37501,-1.47654 -3.375,-3.16407 l 0,-1.89843 c -1e-5,-1.73435 1.26562,-3.42185 3.79687,-5.0625 l 0.63281,-0.63282 -0.21093,0 c -1.35938,4e-5 -2.83594,1.19535 -4.42969,3.58594 l -1.05469,3.79688 m 14.76563,-6.75 -0.21094,1.05468 c 3.23435,1.50003 4.85154,3.18753 4.85156,5.0625 l 0.21094,0.21094 0.21094,0 0,-0.42187 c -2e-5,-1.75779 -1.40627,-3.72654 -4.21875,-5.90625 l -0.42188,0 -0.21094,-0.21094 -0.21093,0.21094 m 30.375,1.6875 0.21093,0 1.05469,-0.84375 0.63281,0 0.84375,0.63281 0.21094,0 0,-0.63281 -0.84375,-0.84375 c -0.6563,3e-5 -1.35942,0.56253 -2.10937,1.6875 m -13.71094,-1.47657 -0.42188,1.26563 c 0.28122,0.63284 0.56247,0.9844 0.84375,1.05469 l 1.05469,0 0,-0.63282 -1.47656,-1.6875 m -31.00781,0.84375 0,0.42188 0.42187,0 0.84375,-0.84375 -0.84375,0 -0.42187,0.42187 m 18.77343,1.26563 0.42188,1.47656 0.21094,0 0,-0.21094 -0.21094,-1.05468 c 0.28123,-0.63279 0.56248,-0.98435 0.84375,-1.05469 l 0.63281,0 0.63281,0.63281 0,0.42188 -0.42187,0.63281 c 0.56248,-0.1406 0.84373,-0.56247 0.84375,-1.26563 -2e-5,-0.84371 -0.49221,-1.26559 -1.47656,-1.26562 -0.86721,3e-5 -1.3594,0.56253 -1.47657,1.6875 m -14.97656,-1.26563 c -1.26563,1.1016 -1.89844,2.15628 -1.89844,3.16407 0,0.84377 0.49219,1.26565 1.47657,1.26562 0.70312,-0.0937 1.05468,-0.30466 1.05468,-0.63281 l 0,-0.63281 -0.63281,0.42187 c -0.70313,-0.18747 -1.05469,-0.39841 -1.05469,-0.63281 l 0,-0.42188 c 0,-0.89059 0.42187,-1.73434 1.26563,-2.53125 l -0.21094,0 m 4.64063,1.47657 c -1e-5,0.28128 0.28124,0.4219 0.84375,0.42187 l 0,0.42188 -0.63282,0 c -2.53125,0.9844 -3.79688,2.17971 -3.79687,3.58593 l -1.47656,0.42188 c -0.56251,-0.7031 -1.0547,-1.05466 -1.47657,-1.05469 0.28125,1.5469 1.05469,2.32034 2.32032,2.32031 1.45311,3e-5 2.71874,-1.2656 3.79687,-3.79687 l 0.63281,-0.42188 1.05469,0 0,0.63282 c -1.26563,0.2344 -1.89845,0.86721 -1.89844,1.89843 l 0,1.05469 0.84375,-0.21094 0.63282,0.21094 -0.21094,0.21094 0,0.42187 0.42187,0.42188 c 0.98437,-0.18748 1.47655,-0.46873 1.47657,-0.84375 l -0.21094,0 -0.21094,0.21094 -0.21094,0 c -0.56251,-0.21092 -0.84376,-0.42185 -0.84375,-0.63282 l 0,-0.42187 c -1e-5,-1.12498 0.6328,-1.68747 1.89844,-1.6875 l 0.42188,0 c 0.53904,3e-5 1.17186,0.35159 1.89843,1.05469 l 0,-0.21094 -1.05468,-1.05469 0.21093,-0.21094 -0.21093,0 0.21093,-0.21093 0,-0.42188 c -0.42189,3e-5 -0.63282,-0.21091 -0.63281,-0.63281 l -1.6875,-1.05469 0,0.63281 -0.84375,0 0,-0.84375 0.84375,0 0,-0.84375 -0.84375,0 c -0.84376,0.0938 -1.26563,0.30472 -1.26562,0.63282 m 20.88281,-0.63282 -0.42188,0.84375 0,0.42188 0.84375,0 c -3e-5,-0.42185 0.21091,-0.63278 0.63282,-0.63281 l -0.63282,-0.63282 -0.42187,0 m 4.85156,0.63282 -0.21094,0.21093 0,0.21094 0.21094,0 0.21094,-0.21094 0,-0.21093 -0.21094,0 m -19.82812,0.21093 0.21093,0.21094 0,0.63281 -0.84375,0 0,0.84375 c -1e-5,1.17191 0.6328,2.01565 1.89844,2.53125 l 0,-0.21093 c -0.42189,-0.1406 -0.63283,-0.56248 -0.63281,-1.26563 l 0,-0.42187 0.42187,-0.42188 0.21094,0 c 0.89061,3e-5 1.87498,0.84378 2.95313,2.53125 l 0.21093,0 c -2e-5,-1.87497 -1.47658,-3.35153 -4.42968,-4.42969 m 30.58593,0.21094 0,0.63281 0.63282,0.21094 0.42187,-0.42187 -0.42187,-0.63282 -0.63282,0.21094 m -12.02343,0 0,0.21094 0.84375,0 0,-0.21094 -0.84375,0 m -3.58594,1.6875 c 1.82809,-0.18747 2.74215,-0.46872 2.74219,-0.84375 l 0,-0.63281 -0.63282,0 c -1.40628,3e-5 -2.1094,0.49222 -2.10937,1.47656 m -7.38281,-1.05469 -14.55469,19.82813 -0.21094,-0.21094 -0.21094,0 0,0.21094 0.21094,0.21094 -0.84375,1.05468 0,0.42188 21.09375,0.21094 6.96094,0 c 1.75777,0 3.23433,-1.26562 4.42969,-3.79688 l 0.63281,-0.63281 0.21094,0.21094 c -1.66411,3.09375 -3.14067,4.64063 -4.42969,4.64062 l -3.58594,0 -0.84375,0.21094 -1.47656,-0.21094 -20.46094,0 -2.53125,-0.21094 0.42188,0.42188 1.47656,0 27.21094,0.21094 c 1.19527,0 3.09371,-2.32031 5.69531,-6.96094 l -0.21094,0 -1.05469,1.89844 -0.42187,-0.42188 1.26562,-2.32031 -0.21093,0 c -3.51567,3.23438 -6.46879,4.85157 -8.85938,4.85156 l -11.8125,0.42188 -1.89844,0 -3.375,-0.21094 -1.47656,0.21094 -0.63281,-1.26563 8.85937,-12.02344 c 0.56248,-2.0156 0.84373,-3.91403 0.84375,-5.69531 l 0,-0.42187 0.21094,-0.21094 0,-0.21094 -0.21094,-0.21094 -0.21093,0 m 24.46875,0 0,0.84375 0.21093,0 0.42188,-0.42187 0,-0.42188 -0.63281,0 m -11.39063,0.21094 c -0.14066,0.4219 -0.56253,0.63284 -1.26562,0.63281 l 0,0.21094 0.42187,0 c 0.63278,-0.28122 0.98434,-0.56247 1.05469,-0.84375 l -0.21094,0 m -15.60937,0.21094 0,0.42187 0.21093,0 0,-0.42187 -0.21093,0 m -9.28125,0 0.63281,0 -0.42188,0.84375 0.21094,0 0.63281,-0.63281 0.63282,0.63281 -1.26563,0.42187 0,0.42188 -0.42187,0 0.21093,-0.21094 0,-0.21094 -0.21093,0 -0.21094,0.21094 -0.21094,-0.21094 0.42188,-1.26562 m 33.75,0.42187 0.42187,0.42188 0.42188,0 0,-0.63281 -0.21094,0 -0.63281,0.21093 m -16.03125,0 c -3e-5,0.67972 -0.28128,1.31253 -0.84375,1.89844 l 0.21093,0 c 0.7031,-0.53903 1.05466,-1.10153 1.05469,-1.6875 l 0,-0.21094 -0.42187,0 m 13.28906,1.6875 c -4e-5,0.4219 0.70308,0.84378 2.10937,1.26563 l 0,-0.21094 c -4e-5,-0.23435 -0.42192,-0.5156 -1.26562,-0.84375 l 0,-0.21094 1.05469,-1.26562 0,-0.21094 c -1.26567,0.2344 -1.89848,0.72659 -1.89844,1.47656 m 3.375,0 0.21094,0 1.05468,-1.05468 0,-0.21094 -0.21093,0 c -0.2813,3e-5 -0.42193,0.28128 -0.42188,0.84375 -0.42192,3e-5 -0.63286,0.14065 -0.63281,0.42187 m -6.53906,-0.63281 0,0.21094 1.89843,0 0,-0.21094 -1.89843,0 m 2.10937,0.21094 0,0.21094 0.63281,0 0,-0.21094 -0.63281,0 m -29.32031,0.42187 0,0.21094 c 1.17186,3e-5 1.87498,0.77346 2.10937,2.32031 -1e-5,2.2969 -0.98438,3.91409 -2.95312,4.85157 -0.51564,0.32814 -1.57032,0.53908 -3.16406,0.63281 -1.28907,-0.14061 -2.20313,-0.42186 -2.74219,-0.84375 l -0.21094,0.21094 0,0.42187 2.95313,0.63281 1.26562,0 c 2.36718,2e-5 4.33592,-1.54685 5.90625,-4.64062 l 0,-0.84375 c -0.16408,-1.96873 -1.07814,-2.9531 -2.74219,-2.95313 l -0.42187,0 m -7.17188,0.42188 0,0.21094 0.42188,0 0,-0.21094 -0.42188,0 m 31.85157,0.21094 0,0.21093 c 3.98433,3e-5 7.28901,1.96878 9.91406,5.90625 0.70308,1.3594 1.05464,2.83596 1.05469,4.42969 l 0,0.42188 c -5e-5,1.78126 -0.42193,2.97657 -1.26563,3.58593 l -0.21094,-0.21093 0,0.21093 -1.26562,0.84375 -0.21094,0 0,-0.21093 0.21094,-0.63282 c -0.51567,0.3047 -1.00786,0.8672 -1.47656,1.6875 l 0,0.42188 c 0.14058,0.42188 0.56245,0.63282 1.26562,0.63281 l 1.26563,-1.26562 0.21093,0 0.63282,0.63281 c -1.9688,1.19532 -2.95317,2.74219 -2.95313,4.64062 l 0.21094,0.63282 0.21094,0 1.26562,-1.05469 0.21094,0.21094 0,1.47656 c 0.56245,0.0234 0.8437,0.16406 0.84375,0.42187 l 1.05469,-0.21093 0,-0.42188 c -0.67974,0 -1.10161,-0.56249 -1.26563,-1.6875 l 0,-0.84375 0.21094,-0.21094 0,-0.21093 -0.42188,0 c -4e-5,-0.84375 0.42183,-1.54687 1.26563,-2.10938 l 0.21094,0.21094 0.63281,-1.6875 -0.63281,-0.84375 0.63281,-2.53125 0,-1.89844 c -5e-5,-5.06248 -3.0938,-8.5781 -9.28125,-10.54687 l -1.6875,-0.21094 -0.63281,0.21094 m 5.48437,0.42187 0,0.21094 c 1.21871,0.56252 2.83589,1.61721 4.85156,3.16406 l 1.05469,0 c 0.32808,2e-5 0.60933,-0.49216 0.84375,-1.47656 -5e-5,-0.86716 -0.35161,-1.49998 -1.05469,-1.89844 l -1.05468,0 0,0.42188 c 0.70307,2e-5 1.05464,0.35158 1.05468,1.05468 l 0.21094,0 -0.63281,0.84375 c -0.49224,3e-5 -2.10942,-0.7031 -4.85156,-2.10937 l -0.21094,-0.21094 -0.21094,0 m -13.92187,0.21094 0.42187,0.42187 0,0.42188 -0.63281,-0.21094 0.21094,-0.63281 m 9.91406,0.42187 0,0.21094 0.84375,0 0,-0.21094 -0.84375,0 m 1.05469,0.21094 0,0.21094 0.42187,0 0,-0.21094 -0.42187,0 m 0.63281,0.21094 0,0.21094 c 1.12496,2e-5 2.39058,0.98439 3.79687,2.95312 l 0.21094,0.84375 0,0.21094 -0.63281,0.63281 -0.42188,0 c -0.28129,2e-5 -0.42191,-0.28123 -0.42187,-0.84375 l -0.21094,-0.21094 -0.21094,0 -0.21093,1.05469 c 0.2812,0.84377 0.8437,1.26564 1.6875,1.26563 l 1.05468,-0.63282 0.63282,0.21094 0,-0.63281 c -5e-5,-2.08592 -1.68755,-3.77342 -5.0625,-5.0625 l -0.21094,0 m -32.48438,0.42187 0,1.05469 1.05469,0 0.42188,-0.42187 0,-0.21094 c -1e-5,-0.35154 -0.28126,-0.56248 -0.84375,-0.63281 l -0.63282,0.21093 m 8.22657,1.47657 0.21093,0 1.05469,-1.05469 c 0.42186,2e-5 0.6328,0.35158 0.63281,1.05469 l 0.21094,0 0.21094,-0.84375 c -0.14064,-0.56248 -0.49221,-0.84373 -1.05469,-0.84375 -0.4922,2e-5 -0.91408,0.56252 -1.26562,1.6875 m 22.35937,-1.47657 0,0.21094 c 0.51559,2e-5 1.1484,0.49221 1.89844,1.47656 l 0,0.63282 -0.84375,0.84375 -0.63281,0 -1.05469,-1.05469 0,0.21094 c -4e-5,0.98439 0.49215,1.47658 1.47656,1.47656 l 0.21094,0 c 1.12496,2e-5 1.68746,-0.56248 1.6875,-1.6875 l 0,-0.63281 c -0.86723,-0.98436 -1.71098,-1.47654 -2.53125,-1.47657 l -0.21094,0 m -12.23437,2.53125 -0.21094,-0.21093 -0.21094,0 0,0.21093 0.21094,0.21094 c -0.28128,0.0703 -0.56253,0.4219 -0.84375,1.05469 l 0,0.42187 0.21094,0 c 0.63278,-1.96872 2.17966,-2.9531 4.64062,-2.95312 1.2656,0.18752 1.89841,0.82033 1.89844,1.89844 l -0.84375,0.42187 0,0.42188 1.05469,0 c 0.56246,-0.23436 0.84371,-0.72655 0.84375,-1.47657 -4e-5,-1.12497 -0.98441,-1.8281 -2.95313,-2.10937 -2.53128,0.63283 -3.7969,1.33596 -3.79687,2.10937 m -15.82032,-0.63281 c 1.12499,2e-5 1.68749,0.14065 1.6875,0.42188 l 0,0.84375 c -0.79688,1.12502 -1.64063,1.68752 -2.53125,1.6875 l 0,0.21093 c 2.53124,-0.49216 3.79687,-1.54685 3.79688,-3.16406 -0.14064,-0.56248 -0.63283,-0.84373 -1.47656,-0.84375 -0.98439,0.18752 -1.47658,0.46877 -1.47657,0.84375 m -5.90625,3.375 c 1.00781,-1.54685 1.99219,-2.32029 2.95313,-2.32031 0.98437,0.30471 1.47655,0.72658 1.47656,1.26562 l 0.42188,0 0,-0.21093 c -0.28126,-0.84373 -0.84376,-1.26561 -1.6875,-1.26563 l -1.05469,0 c -0.98438,0.4219 -1.68751,1.12502 -2.10938,2.10938 l 0,0.42187 m 23.41407,-2.53125 c -0.42191,0.51565 -0.63284,1.00783 -0.63282,1.47656 l 0,0.21094 1.05469,-0.84375 c 0.63279,0.28127 0.98435,0.56252 1.05469,0.84375 l 0,0.42188 -0.63281,2.32031 c 0.98434,-1.12498 1.47653,-2.03905 1.47656,-2.74219 -3e-5,-0.77342 -0.35159,-1.33592 -1.05469,-1.6875 l -0.63281,0 -0.21094,0.21094 -0.21094,0 -0.21093,-0.21094 m -23.83594,0.42188 0,0.63281 0.42187,0 0,-0.21094 -0.42187,-0.42187 m 22.57031,0.21093 -0.63281,1.6875 c 0.3281,0.84377 0.60935,1.26565 0.84375,1.26563 l 0.84375,0 c -0.56253,-0.89061 -0.84378,-1.87498 -0.84375,-2.95313 l -0.21094,0 m -4.42969,0.42188 -4.42968,6.11719 -0.21094,-0.21094 -0.21094,0 0,0.21094 0.21094,0.21093 c -0.39846,0.18752 -1.31252,1.38283 -2.74219,3.58594 l 0,0.21094 0.21094,0 7.17187,-9.70313 0.21094,-0.21093 0,-0.21094 -0.21094,0 m 5.90625,6.75 0.21094,0.21094 0,1.47656 -0.21094,0.21094 0.42188,1.6875 0.42187,0 -0.42187,-2.74219 c 0.37497,-2.3203 1.07809,-4.0078 2.10937,-5.0625 1.40622,-1.26561 2.67185,-1.89842 3.79688,-1.89844 l 1.05469,0 c 1.47652,2e-5 2.53121,0.70314 3.16406,2.10938 l 0.42187,0 c -4e-5,-1.45311 -1.4766,-2.29686 -4.42968,-2.53125 l -0.42188,0 c -1.35941,2e-5 -2.76565,0.84377 -4.21875,2.53125 -0.9844,1.2422 -1.61721,2.57814 -1.89844,4.00781 m -21.72656,-6.11719 0,0.21094 0.42188,0 0,-0.21094 -0.42188,0 m 18.5625,0 0,0.63281 0.21094,0 0,-0.63281 -0.21094,0 m -17.92969,0.21094 0,0.21094 0.63282,0 0,-0.21094 -0.63282,0 m 31.85157,0.21094 c 0.46871,0.84376 0.89058,1.26564 1.26562,1.26562 l 0,0.21094 c -0.58598,0.84377 -1.21879,1.26564 -1.89844,1.26562 l -0.63281,-0.42187 0.21094,-1.05469 -0.63281,-0.42187 c -1.26566,0.75001 -1.89848,1.45314 -1.89844,2.10937 0.14059,0.84377 0.35153,1.26564 0.63281,1.26563 l 1.89844,0 c 1.38277,-0.23436 2.6484,-1.0078 3.79687,-2.32032 l 0,-0.21093 c -4e-5,-1.26561 -0.49222,-1.89842 -1.47656,-1.89844 l -0.21094,0 -1.05468,0.21094 m -34.80469,0.84375 0,0.42187 1.6875,1.47656 0.63281,0 -2.32031,-1.89843 m 17.71875,0 -0.84375,4.00781 c 0.28123,1e-5 0.63279,-1.26561 1.05469,-3.79688 l 0,-0.21093 -0.21094,0 m 24.89062,0 c -4e-5,1.50001 -0.42192,2.41407 -1.26562,2.74218 l -0.84375,0 c -0.35161,2e-5 -0.56255,-0.28123 -0.63281,-0.84375 l 0.42187,-0.84375 -0.63281,0 0,0.42188 -0.21094,-0.21094 -0.21094,0 -0.21093,1.05469 c -5e-5,0.63283 0.63277,1.0547 1.89843,1.26562 1.40621,-0.56248 2.10933,-1.40623 2.10938,-2.53125 l -0.21094,-1.05468 -0.21094,0 m -35.64843,0.42187 0,0.21094 1.89843,0.21094 0,0.84375 c -1e-5,0.42189 -0.28126,0.63282 -0.84375,0.63281 l 0,0.21094 0.21094,0 c 0.98436,-0.28124 1.47655,-0.77342 1.47656,-1.47657 -0.21095,-0.56248 -0.42188,-0.84373 -0.63281,-0.84375 l -0.63281,0 -1.47656,0.21094 m 18.5625,2.74219 0,0.21094 0.21093,0 c -3e-5,-0.70311 0.77341,-1.47655 2.32032,-2.32032 l 0.63281,0 c 0.70309,2e-5 1.05465,0.35158 1.05469,1.05469 l 0.21093,0 c 0.42184,2e-5 0.63278,-0.28123 0.63282,-0.84375 -4e-5,-0.46873 -0.49223,-0.82029 -1.47657,-1.05469 -1.26565,2e-5 -2.46096,0.9844 -3.58593,2.95313 m -8.01563,4.85156 0,0.21094 0.42188,0.42187 0.21093,0 c 0.21092,1e-5 0.63279,-1.47655 1.26563,-4.42968 0.74997,-1.12499 1.73435,-1.68749 2.95312,-1.6875 0.56248,0.21095 0.84373,0.42189 0.84375,0.63281 l 0,0.42187 c -2e-5,0.37502 -0.91408,0.65627 -2.74218,0.84375 l -0.42188,1.26563 0,0.63281 c -2e-5,0.39845 0.63279,0.75001 1.89844,1.05469 l 0.84375,-0.63281 -0.21094,0 -0.21094,0.21093 -0.21093,0 c -0.70315,-0.18748 -1.05472,-0.39842 -1.05469,-0.63281 l 0,-0.63281 c -3e-5,-0.37499 0.77341,-0.72655 2.32031,-1.05469 l 0.21094,-0.21094 0,-0.42187 -0.21094,-1.47656 0.42188,-0.42188 0,-0.21094 -2.10938,-0.42187 -0.63281,0.42187 -0.21094,-0.63281 0.21094,-0.63281 c -1.38284,0.70314 -2.2969,1.54689 -2.74219,2.53125 -0.56252,1.31251 -0.84377,2.9297 -0.84375,4.85156 m 20.46094,-7.17187 c -4e-5,1.26564 -1.54692,2.32032 -4.64063,3.16406 l -0.21093,0 0,0.21094 0.84375,0 c 1.82808,1e-5 3.23433,-0.98436 4.21875,-2.95313 l 0,-0.42187 -0.21094,0 m -37.96875,0.42187 0,1.6875 0.42187,1.89844 0.42188,0 -0.63281,-3.58594 -0.21094,0 m 1.05469,2.10938 0,0.21093 0.21093,0 c 1.64062,-0.70311 2.69531,-1.47654 3.16407,-2.32031 l -0.42188,0 -2.95312,2.10938 m 15.39843,-1.6875 -0.21093,1.26562 0,0.21094 0.21093,0 0.21094,-1.26563 0,-0.21093 -0.21094,0 m 11.60157,1.05468 0,0.84375 0.42187,0 c 0.32809,2e-5 0.53903,-0.35154 0.63281,-1.05468 l -0.21093,-0.21094 -0.42188,0 -0.42187,0.42187 m -21.51563,0.42188 0,0.21094 0.21094,0 0.42187,-0.84375 -0.21093,0 c -0.28126,1e-5 -0.42189,0.21095 -0.42188,0.63281 m -2.95312,-0.21094 0,0.21094 c 1.54686,1.66407 2.3203,2.71876 2.32031,3.16406 l 0.42187,0 0,-0.42187 c -0.86719,-1.49999 -1.71094,-2.48436 -2.53125,-2.95313 l -0.21093,0 m 25.73437,2.95313 -0.42187,0 c -1.40629,1e-5 -2.10941,0.56251 -2.10938,1.6875 l 0.21094,0 1.6875,-1.05469 0.42187,0.42187 0.21094,0 0,-0.63281 2.10938,0.63281 0.63281,0 0,-0.21093 c -1.26566,1e-5 -1.96879,-0.28124 -2.10938,-0.84375 0.42184,1e-5 0.63278,-0.14062 0.63282,-0.42188 l 0,-0.21094 c -0.42191,2e-5 -0.63285,-0.35155 -0.63282,-1.05468 l 0.42188,0 0,-1.26563 -0.21094,0 c -0.37503,2e-5 -0.65628,0.98439 -0.84375,2.95313 m -2.95312,-2.32032 0.21093,0.63282 0.84375,0 0,-0.63282 -0.42187,-0.42187 -0.21094,0 -0.42187,0.42187 m -1.05469,0 0,0.42188 0.21094,0 0,-0.42188 -0.21094,0 m 16.24219,0.63282 0,0.42187 0.21093,0 0.42188,-0.42187 0,-0.42188 -0.21094,0 -0.42187,0.42188 m -25.73438,1.47656 -0.21094,-0.21094 -1.6875,0.63281 -0.42187,0 0,-0.42187 c -0.32814,1e-5 -0.53908,0.4922 -0.63281,1.47656 -2e-5,0.84376 0.49217,1.26564 1.47656,1.26563 l -0.63281,-0.84375 0,-0.63282 0.63281,-0.63281 0.63281,0 c 0.56248,0.14064 0.84373,0.84376 0.84375,2.10938 l 1.05469,0 0,-3.58594 -0.42188,-0.84375 c -0.42189,0.0938 -0.63283,0.65626 -0.63281,1.6875 m -18.35156,2.32031 0,1.05469 c 0,1.89844 1.19531,3.30469 3.58594,4.21875 l 0.21093,-0.21094 0,-0.21094 c -1.21875,1e-5 -2.34375,-1.05468 -3.375,-3.16406 l 0,-1.6875 c 0,-1.05468 0.5625,-2.10936 1.6875,-3.16406 l 0,-0.42188 -0.21093,0 c -1.26563,1.17189 -1.89844,2.3672 -1.89844,3.58594 m 27.63281,-3.58594 0,0.42188 0.21094,0 0,-0.42188 -0.21094,0 m 2.74219,0 -0.21094,0.63282 0.21094,0.21093 0.84375,0 0.21094,-0.84375 -1.05469,0 m 4.42969,2.10938 0,0.21094 0.63281,0 c 1.03121,-0.28124 1.87496,-0.91405 2.53125,-1.89844 l 0,-0.21094 c -1.19535,1.26564 -2.25004,1.89845 -3.16406,1.89844 m -32.0625,-0.21094 0.21093,0 c 0.67969,-0.70311 1.45312,-1.05467 2.32032,-1.05469 l 0.21093,0 1.05469,0.21094 c -0.14063,-0.42186 -0.56251,-0.6328 -1.26562,-0.63281 l -0.63282,0 c -0.84375,1e-5 -1.47656,0.4922 -1.89843,1.47656 m 25.94531,-1.47656 0,0.63281 0.84375,-0.21094 -0.42188,-0.42187 -0.42187,0 m 12.44531,2.10937 0,0.63282 c -4e-5,1.03126 0.2109,1.59376 0.63281,1.6875 l -0.42187,-1.6875 c -4e-5,-1.54687 0.77339,-2.3203 2.32031,-2.32032 l 0,-0.21093 -0.42187,0 c -1.12505,1e-5 -1.82817,0.63282 -2.10938,1.89843 m 3.375,-1.26562 0.21094,0.21094 0.21094,0 0.42187,-0.42188 0,-0.21094 -0.42187,0 -0.42188,0.42188 m -15.60937,0.42187 0,0.42188 0.42187,-0.42188 -0.42187,0 m 13.71093,0.42188 0.21094,0.21094 0.21094,0 0.42187,-0.42188 0,-0.21094 -0.42187,0 -0.42188,0.42188 m -39.02343,0 0.84375,3.16406 0.42187,0 c -0.32813,-2.10936 -0.67969,-3.16405 -1.05469,-3.16406 l -0.21093,0 m 1.05468,0 0,0.21094 c 0.84375,0.56251 1.26562,1.33594 1.26563,2.32031 -1e-5,0.63282 -0.63282,1.19532 -1.89844,1.6875 -0.98438,1e-5 -1.47657,-0.63281 -1.47656,-1.89844 l -0.42188,0 0,0.42188 c 0.21094,1.26563 0.77344,1.89844 1.6875,1.89843 1.6875,1e-5 2.53125,-0.91405 2.53125,-2.74218 -0.25782,-1.26562 -0.82032,-1.89843 -1.6875,-1.89844 m -3.58593,2.95312 0,0.21094 0.21093,0 c 0,-0.51561 0.5625,-1.35936 1.6875,-2.53125 l 0,-0.21094 -0.21093,0 c -1.12501,0.89064 -1.68751,1.73439 -1.6875,2.53125 m 21.09375,-1.26562 0,0.21094 0.21093,0 1.47657,-0.21094 -0.42188,-0.42188 -0.84375,0 -0.42187,0.42188 m 5.69531,-0.21094 0,0.42188 0.21094,0 0,-0.42188 -0.21094,0 m 10.96875,1.89844 0,0.84375 c -4e-5,0.32813 0.35152,0.53907 1.05469,0.63281 l 1.26562,-0.21094 0,0.42188 c -0.56254,0.0703 -0.84379,0.28125 -0.84375,0.63281 l 0,0.21094 0.21094,0 c 1.54683,-0.21093 2.32027,-0.5625 2.32031,-1.05469 -4e-5,-0.2578 -0.49223,-0.67968 -1.47656,-1.26562 l -1.89844,0.21093 -0.21094,-0.84375 -0.42187,0.42188 m 7.38281,2.53125 c -5e-5,0.5625 0.2812,0.98438 0.84375,1.26562 l -0.21094,-2.53125 c -0.42192,0.14064 -0.63286,0.56251 -0.63281,1.26563 m -43.66406,1.89844 -0.63281,0 c -0.98438,-0.5625 -1.47657,-1.47656 -1.47657,-2.74219 l -0.21093,0 0,0.63281 c 0.14062,1.68751 0.84374,2.53125 2.10937,2.53125 1.75781,0 2.74218,-1.05468 2.95313,-3.16406 l 0,-0.21094 c -0.42188,1e-5 -0.70313,0.63282 -0.84375,1.89844 -0.72657,0.70313 -1.35938,1.05469 -1.89844,1.05469 m 34.17187,-1.26563 0.63282,0.42188 0.42187,0 -0.21094,-1.05469 0,-0.21094 0.42188,-0.63281 -0.42188,0 c -0.56253,0.23438 -0.84378,0.72657 -0.84375,1.47656 m -31.42968,0 0,0.42188 c 0.98436,0 1.82811,-0.42187 2.53125,-1.26563 l -0.42188,0 -2.10937,0.84375 m 7.59375,-0.21094 0,0.21094 c -2e-5,0.42188 0.77342,0.70313 2.32031,0.84375 l 0,0.63281 -0.84375,0 c -0.70314,1e-5 -1.89845,-0.70312 -3.58594,-2.10937 l -1.26562,0 c -0.46876,0 -1.38283,0.5625 -2.74219,1.6875 l -0.21094,0 0.42188,0.42187 1.05468,-0.42187 0.84375,0.84375 2.10938,-0.42188 0,-0.21093 -0.63281,0 -1.05469,0.21093 c -1e-5,-0.28124 -0.21095,-0.42187 -0.63281,-0.42187 l 0,-0.42188 c -1e-5,-0.28124 0.42186,-0.56249 1.26562,-0.84375 2.48436,1.54688 4.59374,2.32032 6.32813,2.32032 0.56248,-0.21094 0.84373,-0.42188 0.84375,-0.63282 l 0,-0.42187 -2.95313,-0.63281 0,-0.42188 c -1e-5,-0.28124 0.21092,-0.42187 0.63281,-0.42187 1.17186,0 2.57811,0.5625 4.21875,1.6875 l 0.21094,0 c -0.53908,-0.84375 -2.08595,-1.54687 -4.64062,-2.10938 l -0.63282,0 c -0.70314,0.0938 -1.0547,0.30469 -1.05468,0.63281 m 6.32812,-0.63281 0,0.21094 c 0.65623,1.82813 1.57029,2.74219 2.74219,2.74219 l 1.26562,0 0,-0.21094 c -1.03127,-1.03125 -1.59377,-1.94531 -1.6875,-2.74219 -0.42189,1e-5 -0.63283,0.21094 -0.63281,0.63281 l -0.21094,0.21094 -0.21093,0 c -0.21096,-0.56249 -0.4219,-0.84374 -0.63282,-0.84375 l 0,0.21094 -0.21093,-0.21094 -0.42188,0 m 2.95313,0.21094 0.21093,0.63281 0.21094,0 0,-0.63281 -0.42187,0 m 1.89843,1.05469 0,0.42187 c 0.42185,0.70313 0.91404,1.05469 1.47657,1.05469 l 2.74218,-0.42188 0.84375,0.21094 -0.63281,-0.63281 -2.74219,0.42187 -0.42187,-0.63281 0,-0.21094 0.84375,-0.84375 5.69531,1.89844 0.21094,0 0,-0.21094 c -3.39847,-1.40624 -5.50784,-2.10937 -6.32813,-2.10937 -0.72659,0 -1.28908,0.35157 -1.6875,1.05469 m 5.48438,-1.05469 0,0.21094 c 2.15622,1.40625 4.12496,2.10937 5.90625,2.10937 l 2.95312,0 c 2.53121,-0.53906 3.79684,-1.03124 3.79688,-1.47656 l 0,-0.21094 -0.42188,0 c -1.50004,0.98438 -3.46879,1.47657 -5.90625,1.47656 -1.80472,1e-5 -3.63284,-0.70312 -5.48437,-2.10937 l -0.84375,0 m 4.64062,0.42187 0.63282,0.63282 0.21093,-0.21094 0.21094,0 0.21094,0.21094 0,-0.21094 -0.63281,-0.42188 -0.63282,0 m -13.5,0.42188 c 0.42186,0.14063 0.63279,0.5625 0.63282,1.26562 l -1.05469,-0.63281 0,-0.21094 0.42187,-0.42187 m 17.29688,0.21094 0,0.21093 0.63281,0 0,-0.21093 -0.63281,0 m 3.58594,1.05468 0,0.63282 0.42187,0 -0.21094,-0.63282 -0.21093,0 m -8.85938,0.21094 0,0.21094 0.63281,0 0,-0.21094 -0.63281,0"
         style="font-size:72px;font-variant:normal;font-stretch:normal;font-family:Goudy Initials;-inkscape-font-specification:Goudy Initials"
         id="path4693" />
    </g>
  </g>
</svg>
